<svg xmlns="http://www.w3.org/2000/svg" width="493.174" height="392.54" viewBox="0 0 130.48566 103.85941"><path class="landxx af" d="M.158 50.352c-.36-1.233.478-2.176 1.435-2.794 1.516-.962.705-1.619-.133-2.758 2.553-.29 2.446-3.547 2.62-5.441.132-.972-1.011-2.096-.453-3.037.492-.822.505-2.09.652-3.014.345-2.027 3.11.695 4.014 1.16 1.356.696 2.393-.202 3.762.175 1.489.412 2.619 1.846 3.097 3.266.957-2.02 3.47-.907 4.945-2.233.784-.71 1.662-1.072 2.14-2.076.452-.933-.505-1.329.758-2.01-.678-.471-1.25-1.132-1.529-1.912 4.121.531 8.534-2.272 11.725-4.541 3.15-2.23-.824-9.27 3.057-10.86 1.41-.579 3.882.25 5.038-.488 1.223-.783-.226-3.078 1.542-3.365 1.343-.216 2.845 1.169 3.922 1.766 1.635.894 3.057.406 4.812.178 2.033-.266 3.855-.318 5.343 1.241 1.502 1.571 3.257-.106 5.052.394.73.198 2.073 1.948 2.711 2.53 1.423 1.275 1.569-.28 3.031.027-.252-1.648 2.54-1.725 3.35-2.628.837-.925.718.18 1.529-.149.398-.16.359-1.066.89-.982 1.45.222 1.941 2.931 3.722 2.522 2.14-.49-.212-3.192.665-4.45 1.848-2.658 5.849.508 7.005-.761 1.436-1.555-.744-2.127-.983-3.22-.28-1.272 1.515-2.77 1.98-4.038 1.276-3.493 5.836-3.794 7.79-.347.452.804-.213 3.374.665 3.66.904.296 2.206-.908 2.765.39.584 1.366.239 4.293.305 5.781 0 1.677.346 3.394.957 4.96 1.901 4.85 4.773 2.181 7.51-.12 1.13-.945 3.404.107 4.015-1.34.825-1.95 2.034-3.15 4.002-4.135 1.462-.73 7.032-.58 4.652 2.076 1.662.697 4.4-1.163 5.889-1.904 1.25-.621 5.277.523 5.982 2-1.117.505-2.22-.452-3.35.093-1.33.646-.452 1.799.944 2.253-1.197.41-2.779.961-3.696 1.816-1.568 1.458-2.712-.691-4.267-.347-3.296.73-6.686.346-9.717.842-1.449.234-2.685 1.063-4.107 1.46-1.609.445-1.928 2.524-2.965 3.067-1.13.596-1.489-.682-2.685 1.01-.585.823-1.768 1.998-2.034 2.914-.319 1.03 1.197 1.715 1.835 2.2 1.435 1.742 2.95 3.3 3.682 5.893-1.356 1.643.704 1.54.664 2.54-.837.65-.678 1.314-1.036 2.247-.718 1.822-2.273 2.244-2.792 3.177-.252.481-.346.949-.146 1.46-.28.014-1.183.067-.957.63.332.796 1.316 1.288 1.887 1.88 2.008 2.065-1.13 4.245-2.632 4.572-1.449.319-3.15.04-4.612-.253-.718-.145-2.752-.898-3.443-.208-1.489 1.484 2.977 2.834 3.403 4.658.213.927 1.768 2.492 1.303 3.406-.452.9-2.553 2.183-3.71 2.17-4.04-.053-2.897 1.204-2.724 2.8.146 1.307 0 2.853-.917 3.89-.984 1.125 0 2.614.358 3.835.599 2.287.253 5.143-2.087 6.36-1.382.724-1.954-.026-2.645-1.118-.279-.451-1.515-.854-2.074-.953-.358-.067.266.195-.292.874-5.33-1.954-2.18 1.81-8.242 2.584.306 1.186 1.649 1.235 2.393 2.01a12.941 12.941 0 0 1-4.759 1.445c-1.621.162-2.273-.978-3.137-1.02-1.542-.067-2.313 2.836-3.43 3.634-1.355.953-1.661.913-1.767 2.972-.133 1.903.664 3.39.824 5.233-.16.726-.173 1.218-.306 1.95.133.698.705 1.097.957 1.666.904 2.052-7.005 3.41-8.016 3.649-1.688.403-2.937 1.155-4.719 1.082-1.767-.08-3.921-.736-5.57.146-1.594.862-2.618 1.76-4.479 1.24-1.741-.483-3.735-1.034-5.53-.788-3.974.55-8.547 1.383-12.522.215-4.652-1.371-7.67-3.315-12.429-4.386 2.034-2.332 3.47-5.083 5.211-7.622 1.502-2.183 2.991-4.574 2.087-7.333-1.662-5.044-9.425-1.06-10.648-6.58-.77-3.498-.917-6.537-2.499-9.834-1.382-2.842-3.203-5.595-1.236-8.54 1.582-2.376 1.223-2.11-1.25-2.781-2.246-.616-2.605-4.383-2.379-5.642" fill="#c83737" fill-rule="evenodd" stroke="#000" stroke-width=".144"><title>Afghanistan</title></path></svg>