<svg xmlns="http://www.w3.org/2000/svg" width="199.86" height="253.878" viewBox="0 0 52.879562 67.171829"><g class="landxx coastxx bd" transform="matrix(1.3293 0 0 1.3293 -2560.836 -703.634)" fill="#c83737" fill-rule="evenodd" stroke="#000" stroke-width=".109"><title>Bangladesh</title><path d="M1947.58 557.42c-.21-.02-.43-.05-.64-.07.38.294.81.486 1.29.576-.22-.168-.43-.336-.65-.504M1947.87 562.17c0 .448.22.809.58 1.08-.1-.555.92-1.011.93-.937-.12-.969-1.06-.629-1.51-.143M1948.66 560.88c.19.144.39.288.58.432a1.155 1.155 0 0 0-.58-.432"/><path d="M1948.74 563.61c.3.759 1 1.243 1.23 2.045.13.544.15 1.091.1 1.641-.1.424-.74 2.599.3 1.066-.21.276-.23.539-.1.789 1.14.506 1.26-3.214 1.14-3.67-.25-.919-1.76-1.738-1.78-2.574 0-.784-1.05-.105-.88.703M1949.02 568.8c.19.286.52-.4.22.504.32-.391.39-.823.21-1.296-.15.264-.29.528-.43.792"/><path d="M1949.67 565.63c0 .325 0 .638.15.936.1-.33 0-.642-.15-.936M1952.91 568.51c1.68-.865.58-2.625-.14-3.744.31 1.21.29 2.512.14 3.744M1956.29 566.21c.72-.732-.42-1.813-.93-2.232-.23.879.23 1.719.93 2.232M1959.46 569.95c-.18.494-.2.998-.1 1.512.14-.498.16-1.002.1-1.512M1960.04 573.77c1.2-.446.31-1.937-.51-2.231.16.745.25 1.509.51 2.231"/><path class="landxx bd" d="M1927.42 530.35c0-.323.1-.635.22-.936.81.589 2.19.969 2.59 1.986.37.919 1.9.886 2.67 1.182a3.702 3.702 0 0 0-1.01-1.512c1.2-.222 1.45.876 1.88 1.719.64 1.26 2.31 1.536 3.45 2.169.24-.606.41-1.187.1-1.801 2.22-.188 2.73 4.185 2.8 5.542 0 .897-.19 1.701.84 2.055 1.56.53 3.42.971 5.07.971 3.48 0 7.03-.315 10.53.02 1.62.155 6.12 2.934 2.21 2.571 1.17 2.22-1.52 4.23-1.73 6.049-.69-.612-1.39.541-1.87-.217.14 1.198-1.2.963-1.94.864.31.985-.87 2.639-.95 3.712-.12 1.507 1.37 3.709 1.96 5.072.14-.475.16-.955.1-1.44.72.32 1.94 4.042 3.26 1.856.49-.815-.48-2.188 0-3.225.45-1.021.7-1.219.36-2.375.98.864 2-1.314 2.64.227.76 1.825 1.15 3.946 1.7 5.846.7 2.448 1.56 4.785 2.18 7.27.59 2.394.74 5.039 1.69 7.322-.85.256-1.87-1.247-2.86-1.084-1.49.244.54 4.617.55 5.476-.68-1.08-1.91-2.397-2.28-3.611-.38-1.285-.43-2.045-.6-3.301-.31-2.323-3.5-4.806-1.72-7.2-.46.368-.74 1.079-.73 1.656-.66-1.979-3.19-3.604-3.02-5.832-.1.925-1.1 1.274-1.62 1.889a.743.743 0 0 0-.18.775c-.63.21-1.2-.1-1.51-.648.16.262.17.513 0 .753-1.02.591-2.61-3.154-2.92-3.561a2.269 2.269 0 0 1-.3-1.527c0-.91-.39-1.156-.64-1.931-.19-.598.85-.831.45-1.366-.14.556.72.293-.65.433 0-.267.1-.531.14-.793-.36.289-.74.337-1.15.145.31.227 1.57 1.844.4 1.693-.58-.07-1.63-.447-1.99-.541.94.566 2.34 1.028 2.9 2.041.39.689-.34 1.168-.88 1.414.74.899.33 1.714-.29 2.521 1.35.03.92 1.351.87 2.304.18-.251.37-.491.57-.72 1.12.999 1.34 3.607-.5 3.96.12-.51 0-.989-.22-1.439.16 1.188-.17 2.17-.39 3.313-.26 1.354-1.86.803-1.19-.289-.21.224-.43.439-.65.648-.37-1.28 1.08-1.742 1.23-2.879-.4.66-1.02 1.156-1.59 1.654.1-.482.2-.938.43-1.367-.31.46-.62.916-.93 1.367-.46-1.464-.66-2.71-.1-4.176-1.59.644-.2 2.113-.75 3.186-.41.776.55.826.21 1.768-.3.845-1.13.383-1.48-.13-.1.454-.1.91-.1 1.368-1.13.01-.58-4.208-.58-4.896-.38.956.1 1.912-.14 2.88-.37-.801-.76-1.635-.87-2.52 0 1.435 1.44 3.581 0 5.04-.42-.712 0-1.555-.57-2.232.29.718-.19 2.282-.72 2.808.1-1.373-1.39-2.435-1.56-3.944-.19-1.671-1.12-2.947-1.47-4.551-.17-.773-.33-1.549-.57-2.305-.33-1.021 0-1.508-.12-2.48 0-.551-.83-.512-1.21-.604-.79-.192-.31-1.108-.25-1.647.13-1.177-2.09-1.257-2-2.829 0-.807.94-1.09 1.04-1.83.1-.749-.19-1.604-.47-2.283-.47-1.11-2.72-1.226-3.76-1.935-.61-.416-1.67-1.026-1.73-1.872-.1-.887.74-1.519.79-2.376 1.22 2.139 1.7-1.88 2.02-1.944.81-.162 2.49-.321 3.24.07.93-1.493-1.03-.955-1.19-2.376-.11-.975-1.4-.172-2.1-.631-.94-.624-1.34-1.816-2.44-2.252-2.76-1.092-1.29-4.32.98-5.182-.21-.691-.93-.994-1.59-1.008"/></g></svg>