<svg xmlns="http://www.w3.org/2000/svg" width="126.025" height="70.892" viewBox="0 0 33.344112 18.756966"><path class="landxx bt" d="M.072 13.377c0-.78.146-.956.625-1.366.731-.615.292-1.894 1.077-2.47C3.475 8.298 4.14 5.397 5.323 3.678 6.626 1.797 8.433.03 10.893.073c.598 0 2.578.27 2.831.965.213.632-.372 1.525.492 1.8 1.489.476 3.257.3 4.812.3.93 0 1.436 1.506 2.46.59.837-.742 1.05-1.079 2.259-.713 1.569.48 3.536.884 3.51 2.773 0 2.124 0 4.277 2.844 4.113 2.765-.159 2.26 2.238 2.074 3.81 0 .65 1.648 2.419.904 2.784-1.768.866-3.47 1.041-5.225.379-.73-.274-2.352.705-3.216.758-1.303.08-2.672.106-3.975.066-1.994-.053-3.483-1.871-5.317-.79-1.41.842-3.43 2.267-5.224 1.608-1.556-.57-2.406-1.855-4.32-1.698-3.377.277-4.427-1.567-5.73-3.445" fill="#c83737" fill-rule="evenodd" stroke="#000" stroke-width=".144"><title>Bhutan</title></path></svg>