<svg xmlns="http://www.w3.org/2000/svg" width="1974.359" height="1521.36" viewBox="0 0 522.38257 402.52658"><g transform="matrix(1.3293 0 0 1.3293 -2388.116 -397.583)" fill="#c83737" stroke="#000" stroke-width=".109"><title>China</title><g class="landxx coastxx cn cnx" fill-rule="evenodd"><path d="M2134.14 419.11c.13-.588-.19-.789-.73-.647.22.233.47.448.73.647M2142.92 420.046c-.18-.227-.42-.322-.72-.288.24.1.48.192.72.288M2157.75 484.486c1.39.618 4.44 4.068 6.05 2.377-.97-.805-4.8-3.609-6.05-2.377M2166.9 516.454c0 .12.1.239.14.359 1.25-.352.13-1.909-.14-.359M2168.77 499.966c.78-.106 1.53.388 2.3 0-.48-.78-1.96-1.481-2.74-.72.14.241.29.48.44.72M2168.55 497.374c.24.353.58.496 1.01.432-.1-.651-.49-.832-1.01-.432M2170.42 502.702c.14-.581-.11-.653-.72-.217.24.07.48.145.72.217M2147.24 554.542c.19.168.38.336.58.504.95-1.009-.52-1.44-.58-.504M2161.57 539.062c.72 1.313.97-.508.79-1.08-.28.02-.54.1-.79.217.26.216.52.432.79.647-.27.07-.53.143-.79.216M2157.03 533.95c.48.256.99.472 1.51.647-.64.348-1.24-.07-1.51-.647M2151.63 547.27c-.21.59 0 .948.65.864.12-.492-.1-.934-.65-.864M2088.49 592.414c-.37.587.36 2.945.48 3.602.2 1.078.14 2.68.96 3.526.99 1.035 2.67.838 3.84 1.544 1.12.671 2.88.794 4.15.76-.5-1.414 1.36-2.25 1.92-1.299-.38-.652 2.03-2.611 2.42-2.979.56-.523 1.26-3.441.41-3.786.93-.493 1.86-2.961 1.66-3.961 1.87 1.391.76-2.215.47-2.915-.48-1.166-3.83-2.401-2.42.25-.44-.541-2.64-1.426-1.51.07-.65-1.897-2.65-.712-3.24.145-.55-1.225-2.66-1.066-3.53-.36.16.268.33.531.51.792-.86.292-1.4-.805-2.16-.576-1 .297-.51 1.623.29 1.8-1.79.494-2.94 2.206-4.25 3.385M2098.06 578.157c.8-.16 1.61-.493 2.16.36.53-1.499-1.69-1.511-2.16-.36M2100.01 576.142c-.59.354-.47.594.36.721l-.36-.721M2109.15 573.046c.39-.188.6-.5.65-.937-.6.09-.6.435-.65.937M2115.13 571.75c-.43.138-.7.426-.8.864.58.03.88-.282.8-.864M2116.42 572.902c.1-.561-.1-1.065-.43-1.512.1.527.2 1.031.43 1.512M2119.23 561.382c.1.232 1.15 1.647 1.59 1.224-.42-.521-.86-1.144-1.59-1.224M2120.31 562.822c.1.436.1.593.58.721-.2-.241-.39-.481-.58-.721"/><path class="landxx cn cnx" d="M1796.53 418.318c1.01 0 1.73-.506 1.51-1.584-.3-1.48-1.02-1.203-.57-2.765.37-1.264 1.43-.818 2.37-1.195 1.09-.439 1.52-1.982 2.81-2.016a2.233 2.233 0 0 1-.15-1.44c.74.153 2.24.881 2.93.265.51-.462 1.08-1.231 1.81-1.333.77-.106 1.13 1.881 1.65 2.336.88.773 2.59-.276 3.72-.178 2.06.179 2.21-2.749 2.45-4.184.19-1.183.73-1.627 2.02-1.436 1.63.242 3.14.273 4.72-.08.82-.183 1.96.123 2.64-.519.74-.709.61-2.109 1.32-2.937 1.77-2.083 5.24-2.29 7.3-3.976.83-.678 1.26-1.044 2.31-1.07 1.36-.03.99-.525.58-1.509-.53-1.253-.99-2.351-1.61-3.555-.8-1.576.91-1.927 2-2.203-.42-.4-.9-.712-1.44-.936.44-.657 1.19-1.645 2.09-1.008.58-1.317-1.02-1.447-1.08-2.542-.1-1.434-1.51-2.438-2.3-3.506-1.09-1.466-2.24-2.94-2.86-4.677-.41-1.145.27-3.008-.81-3.505-.92-.419-4.65.02-3.61-1.539.6-.881 2.81-1.13 3.79-1.438 1.8-.561 3.57-.705 5.37-1.354 1.8-.646 2.07.26 3.56.852 1.18.475 2.19-.746 3.37.08 1.37.955 1.39-.624 1.11-1.555-.43-1.395-2.17-.586-2.87-1.627-.6-.89 0-2.592.11-3.563.12-1.464-.24-3.002-.23-4.479 0-1.397.6-2.932.32-4.291-.34-1.639.51-2.101 1.96-1.404 1.22.588 2.29 1.147 3.63 1.463 1.75.411 3.43-.246 5.18-.07 1.35.134 1.82 1.904 3.06.859.95-.804 2.26-.912 3.16-1.718 1.65-1.469-2.46-5.515-2.93-7.1-.25-.86-.44-3.209.42-3.812.83-.58 2.04.01 2.95-.396 2.32-1.037 2.14-2.114 1.41-4.265-.48-1.405 1.13-1.392 2.05-1.413 1.01-.02 2.52.693 4.43-.219.58.546 1.38 1.493.91 1.619-1.25.342 1.01 1.337 1.34 1.48 1.66.708.14 1.305 1.15 1.783 1.41.663 3.32.693 4.39 1.994 1.2 1.46 4.48 3.168 6.31 2.646 1.9-.539 3.77 2.458 4.63.989.76.238 2.81 1.416 3.67 2.24 1.21 1.165 1.81 2.707 3.07 3.804 1.1.955 2.53 1.829 3.66 3.243 1.62 2.029 1.46 1.125 1.59 2.292.39 3.522 1.98 3.741 1.08 4.985-1.02 1.398-.92 2.834.33 4.023.86.817 1.97 1.966 3.27 2.297 1.61.407 3.2.627 4.91.848 1.6.206 3.38.523 5 .643 1.56.113 3.05-.129 4.61-.06 2.92.124 5.56 1.729 7.83 2.783.79.367 1.57.679 1.88.87 1.98 1.213 2.85 1.601 4.4 2.188 1.12.426 2.02.248 3.19.406 1.51.204.87 1.418 1.62 2.054 1.31 1.094 2.3 1.189 3.3 2.717.8 1.206 1.87 2.363 2.82 3.45 1.11 1.269 2.78 1.962 4.06 3.027.89.745.86 1.802 2.04 1.967 1.43.199 3.08-.381 4.72-.484 2.46-.155 7.09 1.299 10.78 1.463 1.82.08 3.6.483 5.42.437 1.74-.04 2.95-1.113 4.73-.989 1.89.132 3.97.679 5.85.93 1.62.215 3.11-.424 5.14.631 1.39.719 2.33 2.019 3.76 2.558 2 .751 4.4 1.072 6.57 1.579 3.22.752 5.96 2.047 9.99 1.714 1.42-.118 1.53.352 2.68 1.09 1.17.747 4.39.533 3.6.663-1.3.21 6.66-4.475 8.38-4.954 1.22-.34 3.29-1.226 5.12-1.34 1.98-.123 3.79-.678 6.22-.66 3.13.02 6.91.637 9.08-.783 1.23-.802 3.24-1.227 4.17-2.334.9-1.06 1.07-2.676 1.78-3.848.62-1.029 1.59-.785 2.64-2.026.44-.521.96-.811 1.49-1.383.27-.299.72-.136.8-.476.48-2.063-4.71-4.266-5.96-5.612-.9-.962.2-1.502-.33-2.698-.68-1.542.27-3.113 1.69-3.577 2.04-.666 3.46 1.427 9.44 2.7.8.169 2.87.587 3-.02.29-1.342 2.01-1.394 2.6-2.362.54-.887.5-1.958 1.17-2.777.63-.784 2.36-.05 3.2.03 2.24.216 4.7-1.182 6-3.131.57-.853-1.12-1.632-.37-3.233.61-1.3.19-2.433 3.36-2.121 1.02.101 1.67.347 1.8-1.142.11-1.24 1.85-.285 2.41-.321.4-.03 1.95-1.146 2.76-1.326.65-.145 1.2-.06 1.84.01 1.28.552 1.99-.548 1.83-.28.5 0 1.6.605 2.18.718 1.06.203 2.06.408 3.13.3 3.56-.358.16-3.342-1.17-4.26-3.96-2.74-7.88-4.902-11.81-6.806-1.84-.89-4.68-1.544-5.81.628-1.52 2.944-3.75-.432-6.04 0-.84.154-2.38-.02-3.16.128-1.02.19-1.15 1.57-2.51.806-.86-.486-3.99-2.07-3.19-3.417.44-.759 1.05-.733.45-1.679-.59-.939-.6-1.724-.58-2.786.1-3.197-.26-6.393-.51-9.576 2.37 1.137 4.98 1.107 7.27 2.124 2.61 1.157 2.8-1.152 4.39-2.609 1.11-1.011 3.92-.808 4.2-1.994.22-.953-1.52-1.252-2.15-1.911-.46-.482-.24-1.041-.29-1.599-.1-.889.52-1.29.11-2.203-.25-.415-.28-.851-.11-1.309.37-.939-.17-1.465-.17-2.388 0-1.956-.95-3.614.91-4.998 2.08-1.546-.78-3.225-1.53-4.588-.67-1.209-2.25-2.199-3.67-1.633-1.27.506-1.87-.47-2.62-1.299 2.04-.689 1.4-3.951 3.82-4.419 2.87-.557 5.63-1.657 8.59-1.494 2.94.161 5.39-1.294 8.25-.117 1.03.425 3.09.69 4.09 1.454 1.42 1.099 3.33 1.034 4.91 1.839-.48-2.136 6.24.08 5.96.939-.23.706 2.76 1.456 3.49 1.859.57.313.2.721.7 1.023.79.472 1.46.89 2.23 1.447 1.5 1.08 3.6 1.932 4.33 3.256.61 1.1 1.63 2.058 2.65 2.726.93.615 1.51 1.691 2.93 2.176 1.47.499 2.18 2.369 3.34 3.244 1.31.98 2.71 1.882 3.98 2.924 1.08.883 1.31 2.163 2.33 3.081 1.14 1.023 2.05.662 2.59 2.233.88 2.573 4.89 4.803 7.5 4.314 1.11-.207 2.7-.314 3.7.241 1.64.908 3.19 1.09 4.89 1.786-1.29-2.261 1.99.622 2.52.648 1.23.06 2.74 1.852 3.79 2.462 1.71.985 3.24.194 4.89.85.49.196.25 1.431.62 1.881.43.511 1.3.879 1.87 1.203 1.66.959 1.34 1.997 1.99 3.474.47 1.049 3.79 2.939 4.82 3.394.61.268 1.26-.377 1.94-.377 1.02 0 1.86.63 2.9.504 1.17-.143 5.11.02 4.7-1.346-.44-1.446 1.79-2.528 3.22-2.375.1 0 1.33.547 1.41.19.19-.827.13-1.06 1.05-1.303.85-.224 2.31-1.36 3.34-1.142.58.122 2.38.594 2.77 1.008-.1.975.18 1.771.86 2.467.99 1.018 3.1 2.236 2.14 3.947-.21.363-.92.791-1.23 1.103-.76.777.38 1.354.67 1.985.25.512.12 1.118.23 1.658.21.994 1.11 1.83 1.04 2.881-.1 1.237 2.61 3.237.54 3.887 1.29.941.2 1.298.26 2.405 0 .817 1.11 1.416.82 2.237-.31.893-1.8.244-.78 2.404.28.586.76 1.262.87 1.916.16 1.054-5.54-.69-6.44-.893-.39-.09-2.85-1.156-3.03-.816-.38.751-.31 2.102-1.09 2.556-.63.364-1.68.515-2.11 1.014-.41.479 1.29 1.62 1.51 1.845 2.09 2.168 3.66 4.7 5 7.378 1.12 2.245 3.39 3.689 3.19 6.345-.1 1.158.55 1.844-.79 1.646-1.13-.166-2.16.02-2.81 1.196 2.14.494 3.08 2.424 3.9 3.405 1.14 1.362-4.44-2.47-5.47-4.013-.86-1.278-1.98-1.638-3.47-1.553.27.919 1.73 3.543 1.14 4.44-.46.697-1.81-.02-2.44.511-.92.783.76 2.395-1.26 2.91-1.81.461-3.7.03-5.5.492.94 1.282 4.41 2.772 4 4.537-.21.943-4.35.308-5.31.16-.9-.136-1.83-.332-2.63-.794-.92-.542-1.82-2.126-3.04-1.989-.64.07-.75.804-1.52.82.1 1.637.19 2.52-.35 4.097-.24.696-.35 1.874-.99 2.348-.32.242-1.85.302-1.76.846.13.707-.51.611-.83 1.134-.37.339-.79.548-1.29.627-.44.223-.87 1.265-1.12 1.342-1.57.475-2.78 2.191-2.76 3.948 0 2.069-3.14 2.139-4.29.925.16 1.093-1.36.969-2.02.935.27.8-.45.95-1.05 1.051-1.25.208-2.15 1.162-3.12 1.901-.97.731-1.63 1.039-1.75 2.361-.1.963-1.2.872-.92 1.814a2.398 2.398 0 0 0-1.58-.432c.77 1.04-2.59 3.581-3.34 1.122-.39-1.283 2.09-1.258 2.43-1.631.5-.541-.14-.989-.2-1.529-.1-.674.99-1.027 1.32-1.49-2.24.992-3.4-.533-5.4-.864.36-.508.9-.885 1.52-1.008-1.26-1.89-.37-1.584 1.03-2.981.64-.641.9-2.553.98-3.427.27-3.147-4.59-2.48-4.97-5.256.23 1.828-1.65 1.03-2.62.683-1.22-.439-3.85.943-1.98 1.693-1.42.278-2.26 2.466-2.14 3.806.1 1.104-3.16 2.316-3.91 2.818-.72.485-1.39.841-1.8 1.656-.67 1.33.63 1.988.31 3.008-.76 2.419-2.8 1.608-4.61 2.711-1.23.755-2.52-1.225-3.88-.969-1.97.372-.98 3.598-.53 4.819.79 2.137 3.2 2.92 4.92 4.124.54.38 1.83.521 2.45.277 1.02-.403 1.26 1.076 2.13 1.221.24-.504.24-1.008 0-1.512 1.46 0 3.46 1.464 4.14 2.754.95 1.778-.39 3.495 1.55 4.988 1.31 1.002 2.9 1.273 4.48 1.019 1.12-.18 2.47-.795 1.2-1.921.61-.36 3.48-2.736 1.37-2.735 1.21.226 2.32-.839 3.41-1.168 1.03-.312 2.69.764 3.31 1.517.53.656.99.578 1.73.354.43-.128.95.731 1.17.952 1 1.013 2.68-.478 3.7.576.11-.306.21-.617.29-.936 1.52 1.073 3.64.273 5.11 1.368-.27.138-.53.282-.79.432 1.59 1.29-.82 1.652.69 2.726.6.431.52 1.086-.27 1.402-1.32.522-1.45-.681-2-1.464-.17.375-.36.735-.58 1.08-.16-1.083-.84-.768-1.45-.219-.35.317-2.86 2.111-1.43.58-.82.528-2.3 1.925-3.22 2.092-.65.118-2.21-.751-1.82.571 1.06-.93 2 .46 1.37 1.44-.31-.759-1.2-.81-1.37.07-.15.748.68 1.184.54 1.955-.1.353-1.15.857-1.47.781-1.02-.242-.59-1.434-1.45-1.872.97 1.394-.39.234-1.15.36 0 .938 1.18 2.255 2.16 2.232-2.04.308-.86 3.904-3.31 3.312 0 .97-.19 3.019-.69 3.858-.84 1.396-.14 2.315.26 3.702 1.03-.984 2.69.42 3.52 1.03 1.63 1.204 3.53 1.648 5.34 2.476 1.43.649 1.95 2.793 2.8 3.981 1.28 1.8 2.49 3.883 4.14 5.363 1.13 1.02 2.24 2.55 2.34 4.084.12 1.822 2.88 2.08 4.2 2.665 1.15.513.64 1.196 1.2 2.072.43.673 1.14.674 1.81 1.009 1.09.552 3.54 1.767 2.8 3.383-1.56-.431-3.28-1.986-4.99-1.5-2.28.653-2.2-.978-4.15-1.704-1.96-.729-2.81 1.764-4.46.86-.81-.447-1.27-1.21-1.79-1.946-.65-.913-1.58-.861-2.46-1.397.44.342.61.933.35 1.439.4-.467.84-.491 1.3-.07-.27-.206-.54-.422-.79-.647.87-.327 2.64 1.974.94 1.224 1.17.782 2.53 2.522 4.16 1.779.66-.299.58-.936 1.42-.892.72.04 1.65.357 2.11.943.29.364 0 .808.44 1.05.8.396 1.73.514 2.56.837 1.79.699 3.33 2.311 5.06 3.217.95.5 3.02 2.487 2.96 3.689 0 .558-1.2.345-1.52.374-1.22.111-1.88 1.114-2.79 1.787-.6.449-1.34.681-1.47 1.47-.1.351-.13 1.203-.64 1.234-.87.05-1.37-.79-2.35-.41-.83.319-1.44 1.066-2.1 1.625.46-.227 2.2-1.662 2.7-1.309.96.671.98 2.494 2.42 2.461-.3-.19-.62-.358-.94-.504 1.71.259 2.77-1.77 4.41-1.299 1.14.324 1.7 1.249 2.47 2.034.93.932 2.97 1.134 4.21 1.425-.85.398-1.22 1.041-1.8 1.728-.2.365-.44.701-.72 1.008-.44.341-1.02.16-1.44.576.14.279.33.519.57.72.44-.63 1.29-1.51 2.09-.792-.42-.422-.34-1.564.49-1.112.92.503.12 1.281.56 2.019 0 .01.88 2.443 0 1.839-.52-.336-.47-1.201-.93-1.594.11.474.19.954.22 1.44-.61.16-1.02-.226-1.15-.793.26 1.335-.12.488-.44 0-.13.58-.37 1.108-.72 1.584.93-.188 2.31.694 2.45 1.656-.43-.452-.76-.404-1 .145.76-.05 1.62 1.001.76 1.527-1.07.653-2.58-.628-3.5-1.023.49.386.78 1.199 1.37 1.439.83.339 1.4-.346 1.92.678.24.489 1.59 1.726.92 2.326-.61.545-1.38.506-1.04 1.604-.94-.432-.99-1.689-1.95-2.088-.27.476-.3.574-.79.792 1.43.192-.69 4.439-3.02 1.584.31 1.05 2.63.847 2.33 2.06-.27 1.044-1.33 2.938 0 3.629-.73.343-.72.813-.61 1.503.22 1.489-1.03-.07-.61.944-.49-.425-.97-.857-1.44-1.296 0 .52 2.52 2.313.43 1.872.37.854-.29 1.634-1.08 1.872.87 1.215 1.52 3.375-1.01 2.736.76-.314 1.12-1.102.79-1.872-.34.273-.61.609-.79 1.008-.48-.35-.86-.859-1.01-1.44-.3.532-.84.854-1.44.576.37.412.52.892.44 1.44 1.18-.533 2.55 1.533.86 1.368.1.889 1.17 1.366 1.44.288.89.921-.1.879-.71 1.476-.62.614-.94 1.462-1.23 2.268-.78-.725-1.96-1.135-2.96-1.439.78.489 1.26 1.863 2.37 1.678 1.1-.184 1.48-1.331 2.39.05-.74.305-.47 1.511-.71 2.274-.38 1.26 1.57 1.3 1.14 2.622-.23-.96-.49-.96-.8 0-.45-.693-1.09-1.283-1.87-1.584-.1.605-.4 1.138-.93 1.439.52.284 1.84.466 1.62 1.368-.31 1.301-1.33-.572-1.33 1.081-.16-.745-.88-2.033-1.66-.936.99.349.13 1.819 1.29 1.871-.26.797-1.94 2.021-1.94.648-.79.634-.61.804 0 1.225.82.524.12 1.773-.27 2.303-.42-.417-.83-.85-1.22-1.296-.25.948-1.49 1.549-2.01.432-.55.792-1.89.292-1.08 1.439-.55-.16-1.1-.185-1.66-.07.5.548 1.23.756 1.94.504-.14.576.14.915.72.936-.2.532-.69.53-1.06.852-.58.504-.2 1.465-1.1 2.028.32-.699.1-.963-.65-.792.29.776-.2 1.466-.21 2.232-.1-1.453-1.53.07-2.3.07-.16.181-.73 2.691-1.51 1.928-.69-.671-1.15-1.02-1.28.238-.15 1.383-.8 1.709-2.18 1.506.83.319 1.86.299 2.09 1.368-.93-1.134-.86.632-1.52-.07-.29.879.23 2-.93 2.352-.76.23-2.07.524-2.81.1 1.08 1.145-3.09 1.725-2.16-.07-.63.703-1.45.408-2.16.07.14.614 1.79 1.431 1.35 2.18-.27.459-.88.07-1.15-.112-.83-.567-1.6-.478-1.5-1.492-.45.613-2.1 1.616-2.66 1.225 1.27.444.44 1.417-.32 1.206-.9-.247-.87-1.328-.26-1.854-.85 0-1.62.442-2.08 1.152.96.175-.1 1.161 1 1.439-.21.191-.45.335-.72.433-.46-1.546-4.01-1.408-4.82-.144-.1-2.108-2.74-2.657-2.45-4.896-.29 1.435-.25.578-.86.07.48-.806 1.3-.942 2.16-.792-1.11-.776-2.05.79-3.17.288 1.6.643-.1 1.884-1.15 1.512.4.162 1.91.723 1.99 1.209-.16.127-.34.132-.55.01.9.596 3.06 3.477 2.16 4.752-.96 1.352-2.99-2.558-3.46-3.096-.1 1.289 1.49 2.443 2.09 3.456a1.3 1.3 0 0 0-1.01 1.08c-.53-.263-.93-.754-.93-1.368-1.31.601 0 2.088-.8 2.952-.99-1.274-1.71-.249-2.37.659-.45.614-2.03-.696-1.15-1.523-.62.242-1.01-.06-.94-.72-.12.836.49 1.699.23 2.535-.33 1.053-3.06-.858-3.62-1.023 1.3 1.643-.42.888-1.36.937 1.63.642-.74 3.095-1.8 1.584-.17.543-.53 1.08-1.08 1.296.54-1.099-.8-.431-1.54-.258-.91.215-2.2.511-2.78 1.338.16-.412.38-.796.64-1.152-.6.419-1.07 1.143-.64 1.872-1.56.47-1.01-.642-1.95-1.368-.37.821.74 1.358 0 2.098-.51.521-1.63 1.054-1.17 1.999.26.541 1.03.569 1.52.739.69.236.48 1.775-.1.132.11 1.264 1.87 1.922 1.77 3.179-.15 2.118-3.03 1.08-4.22 1.646.1-.728-.78-1.891.51-1.224-.26-1.223-2.46-.976-1.59-2.664-1.01.135-.38-1.312-1.22-1.403-.54-.06-.69-2.074-.34-2.446.71-.733-.17-1.243.8-1.835 1.5-.91-.61-1.433-1.18-1.947.13.259.25.523.36.792-1.11.239-1.67-1.411-2.16-2.088-.35.597-.1 1.159.5 1.439-.42.47-1.83 1.701-2.37.72-.88 2.021-1.07-1.031-1.52-1.368-.52-.396-2.39.438-1.29-1.079-.26-.09-.52-.164-.79-.217-.1.526.1 1.007.36 1.44-.88-.133-1.29-1.798-2.16-1.584.4-.506.22-.998-.36-1.224-.23.514-.45 1.241-.58.216-.19 1.061 1.43 1.72.83 2.802-.29.52-1.28-.689-1.69-.642.28.621 0 1.202-.58 1.512 0-.646-1.68-.958-2.53-1.21-1.82-.541-2.79 1.266-3.16-.158l-.72.433c-.69-1.049-1.7-.904-2.51-1.562-.39-.327-.19-.556-.42-.951-.23-.383-1.48-1.122-2.47-.656-.61-1.915-1.66-3.36-1.65-5.327 1.71.602.93-3.704-1.66-2.522-1.04.476-1.3-.286-2.1-.682-.96-.479-1.38.419-2.61-.09-2.14-.894-2.99-1.84-4.22-3.541-.52 1.212-1.98 1.35-2.9 2.115-.59.489.51 1.469-.23 2.215-.61.615-4.36 2.439-3.99.421-1.3.05-1.62 3.093-2.08 2.801-.66-.416-1.2-1.08-1.73-1.64-1.14-1.191-1.06.1-1.45.999-1.39-1.609-1.58-1.957-2.67.06-1 1.853-2.42-.119-3.37-.912-2.08-1.721-2.38.745-3.2 2.123-.51.851-1.11-.08-1.67-.06-.38.01-.84.07-1.21.183-.49.147-.37-.665-.8-.665-1.88 0-.97 3.637-.5 4.332.53.788 1.2 1.542 1.49 2.466.2.292.39.594.55.907.1.526-.37.984-.36 1.512 0 .559 1.19 1.735.65 2.231-.71.671-1.54-.849-2.43-.58-1.36.412-1.52.51-2.07-.894-.48-1.208-1.23-2.381-1.33-3.71-1.21.905-3.31 3.439-4.91 2.403-.77-.495-.94.651-1.59.517-.65-.139-.86-1.588-.56-2.056-2.51-.03-.66-2.502-2-3.164-1.47-.726-3.27-.632-4.81-.416-1.98.279-.41-2.579-.29-3.276.19-1.027-1-3.95.91-3.873-.51-1.516-1.48-1.656-2.95-1.656-1.93 0-1.76-1.575-2.56-2.81-.1-.113-.75-.859-.62-1.048.68-.969-.69-1.633-1.1-2.352-.69-1.208 1.05-1.728.75-2.933-1.74 1.29-3.91-.35-5.73.67-.42.235-2.88 2.182-3.3 1.844-.88-.692 0-1.415.33-2.125.28-.704-.2-1.825-.59-2.406-.59-.902-.95-.782-1.18-2.076-.17-.962.24-1.66 1.26-1.739-.77-1.271-.1-2.268-.14-3.6 1.68 1.526 1.8-2.423 1.95-2.952 2.47.178.69-.879 2.3-2.088.25-.19 1.14.313 1.2-.125.11-.877-.99-1.52-1.27-2.251 1.48.577.72-2.089.72-2.819 0-1.588-.37-3.434-.91-4.924-.42-1.186-.43-2.501-1.1-3.565-.52-.827-1.15-1.735-2.46-2.372.29.575 0 1.025-.57 1.225-.52-1.038-1.49-2.083-1.82-3.177-.3-.966-.26-1.795-1.07-2.517-1.32-1.195-3.38-1.667-4.53-2.947-.1.766-.54 2.147-.61 2.636 0 .223-.31.378-.39.527-.22.176.1-.285-.74-1.069-.87-.853-1.34.08-2.21-.316-.79-.36-1.77-1.067-2.67-1.058-.84 0-1.16 1.08-2.06.722-.64-.256-.11-1.178.1-1.534.31-.561.92-1.14 1.08-1.757.25-.991-1.57-1.444-1.2-2.688-.64.183-1.32 1.063-2.04.896-1.63-.372.18-1.874.74-2.119-.65-.59-1.53-1.384-2.25-1.898-.71-.51-2.81 1.07-3.4 1.479-.6.421-.3 1.354-.88 1.747-.51.352-1.45-.1-1.9-.285-.17-.07-2.31-1.381-1.43-.324-.66-.386-1.68-1.178-2.38-1.368-.82-.219-1.45.463-2.24.932-1.15.674-1.76 1.938-2.6 2.913-1.06 1.237-2.09 1.208-3.58 1.468-1.64.287-1 1.398-1.72 2.413-.66.932-2.27 1.351-2.56 2.457-.37 1.444-.39 2.501-2.34 2.571-1.26.04-2.18.82-3.41.655-.46-.06-1.21.111-1.5-.05-.28-.162-.1-.66-.12-1.158 0-.887-2.28-1.396-3.05-1.38-1.19.02-.81 1.43-2.54.269-2.12-.07-3.28-.105-4.01-.472-1.13-.568 0-1.42-1.15-1.757-1.43-.428-2.65-.204-3.92.64-1.33.887-2.13 2.97-2.82 4.399-.52 1.086-1.85 2.129-1.94 3.32-2.72-2.093-.72-3.726-1.26-5.265-.84-2.444-3.52-.559-5.39-.432 0 .265.1.529.14.792-1.62-.471-3.92.134-5.64.1-1.56-.03-2.55-.629-3.99-1.358-.51-.254-1.36-.798-1.96-.538-.54.231-.19 1.092-.76 1.196-.87.158-2.58-1.083-2.63-1.99-.2.17-.25 3.128-.98 1.9-.75-1.25-2.36-1.987-2.84-3.412-.25 1.163-4.16.677-4.44-.35-.15-.549.41-1.516 0-1.97-.46-.47-1.84.586-2.64.109-1.26-.759-4.11-1.713-4.61-3.198-.62-1.828-2.5-3.829-4.43-1.906-.69.693-2.92-2.281-3.28-2.709-.98-1.178-2.93-1.425-4.39-2.314-2.27-1.385-4.3-2.924-6.26-4.674-.74-.669-1.77-.57-2.67-.859-.96-.312-.97.918-2.02.519.4 2.62-1.08 2.951-2.6 1.276-1.37-1.499-3.09-2.199-4.99-2.717-.4-.11-1.34-.228-1.63-.574-.44-.535.38-1.397-.58-1.777-.72-.288-1.08-.372-1.71-.95-1.08-.991-1.79-.278-2.94-.618-1.74-.512-2.45-2.387-3.61-3.53-1.17-1.154-2.44 2.119-3.18-.185-.26-.811.1-1.633-.43-2.391-.49-.767-.68-1.395-.83-2.28-.16-.952-1.11-1.532-1.77-2.119-.97-.868-.75-2.201-1.57-3.143 1.96-1.462 2.34-.396 3.47.955.56.666 1.4.783 1.85.04.56-.933 1.52-.859 2.12-1.67.73-1-.26-1.977-.84-2.669-.47-.55-.23-2.059-.8-2.231-2.35-.708-2.2-.544-3.87-2.239-1.89-1.912-2.12-5.35-2.05-5.82 0-.235 2.53-.973.42-1.652-1.83-.587-3.25-2.005-4.97-3.04-2.36-1.428-1.61-4.729-5.53-7.026-2.32.102-9.32-.379-9.46-3.731-.69.177-1.68 1.287-2.42.624-.57-.515-2.1-1.422-2.41-2.09-.27-.613-.2-1.835-.39-2.548a4.98 4.98 0 0 0-1.49-2.466c-1.05-.978-2.85-.431-3.5-1.433-.71-1.084-3.01-2.396-3.9-.799-.72-1.738-2.72-.458-3.4-1.724-.9-1.672 2.24-.966 2.69-1.048 1.88-.339 1.14-2.083.1-2.739-.9-.557-.48-.849-.51-1.724 0-.391-.68-1.565-.86-1.984-.26-.592-.98-.656-1.21-1.316-.28-.774 0-1.605-.18-2.395-.3-1.457-2.74-1.856-3.94-2.119-1.6-.351-2.73 1.78-3.94.249-.4-.495-2.06-2.758-.45-2.768-.52-.724-1.21-1.279-1.84-1.901-.61-.612-.36-1.685-.62-2.426"/></g><title>Hong Kong</title><g class="landxx coastxx cn hk" fill-rule="evenodd"><path d="M2124.34 564.838c.75-.259 1.47-.625 2.09.144-.23.215-.47.406-.72.576.3-.263.86-.448 1.22-.17 1.12.867-1.25.08-.28 1.395-.85-.179-4.02-.834-2.31-1.945"/><path d="M2123.33 567.502c0-.753.9-.923 1.37-1.224.1.788-.68 1.256-1.37 1.224M2125.78 566.782c0 .375.19.615.58.72-.1-.326-.29-.566-.58-.72"/></g><g><title>Macao</title><path class="landxx coastxx cn mo" d="M2121.1 567.502c.13-.08.24.421.15-.145.12.278.14.566.1.864-.1-.239-.15-.479-.22-.719" fill-rule="evenodd"/></g></g></svg>