<?xml version="1.0" encoding="UTF-8" standalone="no"?>
<!-- Created with Inkscape (http://www.inkscape.org/) -->

<svg
   xmlns:dc="http://purl.org/dc/elements/1.1/"
   xmlns:cc="http://creativecommons.org/ns#"
   xmlns:rdf="http://www.w3.org/1999/02/22-rdf-syntax-ns#"
   xmlns:svg="http://www.w3.org/2000/svg"
   xmlns="http://www.w3.org/2000/svg"
   xmlns:sodipodi="http://sodipodi.sourceforge.net/DTD/sodipodi-0.dtd"
   xmlns:inkscape="http://www.inkscape.org/namespaces/inkscape"
   width="98.509529mm"
   height="95.647766mm"
   viewBox="0 0 98.509529 95.647766"
   version="1.1"
   id="svg40966"
   inkscape:version="0.92.0 r15299"
   sodipodi:docname="iraq.svg">
  <defs
     id="defs40960" />
  <sodipodi:namedview
     id="base"
     pagecolor="#ffffff"
     bordercolor="#666666"
     borderopacity="1.0"
     inkscape:pageopacity="0.0"
     inkscape:pageshadow="2"
     inkscape:zoom="0.35"
     inkscape:cx="186.15973"
     inkscape:cy="180.75167"
     inkscape:document-units="mm"
     inkscape:current-layer="layer1"
     showgrid="false"
     fit-margin-top="0"
     fit-margin-left="0"
     fit-margin-right="0"
     fit-margin-bottom="0"
     inkscape:window-width="1920"
     inkscape:window-height="1017"
     inkscape:window-x="1912"
     inkscape:window-y="-8"
     inkscape:window-maximized="1" />
  <metadata
     id="metadata40963">
    <rdf:RDF>
      <cc:Work
         rdf:about="">
        <dc:format>image/svg+xml</dc:format>
        <dc:type
           rdf:resource="http://purl.org/dc/dcmitype/StillImage" />
        <dc:title></dc:title>
      </cc:Work>
    </rdf:RDF>
  </metadata>
  <g
     inkscape:label="Layer 1"
     inkscape:groupmode="layer"
     id="layer1"
     transform="translate(66.263691,-101.00945)">
    <path
       inkscape:connector-curvature="0"
       id="iq"
       class="landxx iq"
       d="m -66.231858,146.98311 c 5.795716,-2.8447 10.886921,-5.62025 16.044576,-9.16415 1.648314,-1.12592 3.416286,-2.52034 4.360089,-3.95864 1.807842,-2.7636 0.358901,-6.41519 0.731115,-7.44937 0,-4.29495 1.19636,-4.82667 0.943779,-6.89106 -0.279137,-2.30633 -3.5625,-6.35669 -1.023542,-8.33068 1.448916,-1.12991 3.256758,-1.08337 4.745569,-2.33158 1.262835,-1.04883 4.639249,-3.79514 3.628975,-4.90244 -0.451956,-0.50779 0.465267,0.0399 1.156488,-0.16218 1.129911,-0.34296 1.502101,-1.41039 1.993951,-2.3143 0.491823,-0.8893 5.543134,-0.0665 6.646465,0.3589 0.87733,0.33632 1.767946,0.65535 2.698459,0.84545 1.515393,0.3137 1.967347,-0.66998 3.283363,-0.91455 3.336523,-0.61813 1.063437,3.74727 2.95102,3.57713 1.382466,-0.11966 1.927473,-2.20929 3.44289,-2.15214 1.914184,0.0665 1.84771,3.34052 2.698459,4.47174 0.398796,0.53705 0.9172,0.44266 1.249545,1.11528 0.41206,0.82152 -0.132948,1.98996 0.558298,2.66524 1.4622056,1.42501 4.6658046,2.82873 3.3631016,5.28926 2.153452,-0.48386 3.044095,1.45824 4.014478,1.82379 1.83442303,0.69789 1.87429303,-0.76568 5.848877,0.28714 -0.345612,1.49412 -2.086978,1.14717 -2.71175197,2.30232 -1.050144,1.9514 1.92747697,3.403 2.10029497,5.17628 0.225978,2.34089 -2.63201197,-0.23263 -2.55224797,2.14016 0,1.06874 -1.11662103,0.88796 -1.42233603,1.89425 -0.332346,1.13787 0.225975,1.98596 0.425373,3.03477 -0.717825,0 -1.395757,-0.1954 -2.007238,-0.57558 -0.159528,0.9624 -0.824169,1.69352 0,2.49111 0.824169,0.86669 1.448917,1.23757 0.983671,2.66124 -0.438664,1.3572 -1.648315,1.6656 -0.478534,2.72239 0.996964,0.90391 1.87429303,1.98463 3.00420103,2.74101 1.12988697,0.75504 6.97878797,5.77179 3.64226497,6.70894 1.302702,0.31636 0.970383,1.83043 2.047108,1.58053 1.54197,-0.35759 2.406009,0.62343 3.642264,1.31998 2.2597964,1.28143 3.7087364,4.19261 6.8591544,4.43718 1.48881,0.11963 4.227163,4.96624 5.543158,6.12806 1.993948,1.75865 0.770986,3.57448 0.265846,5.99246 -0.239266,1.15515 -0.172792,4.43452 1.541997,4.55681 0.598167,0.0399 1.595154,-0.0798 2.073688,0.51843 0.598191,0.76965 0.598191,2.32094 0.465269,3.26209 -0.305742,2.08832 0.784276,2.70111 3.110545,4.38401 1.183069,0.84941 0.917199,3.48274 2.592118,3.88553 -0.864039,0.0665 -6.008405,-0.66732 -6.128039,-1.60845 0.704512,1.67224 -2.233215,0.32967 -3.376416,0.27914 -1.661605,-0.0665 -3.81508,0.32168 -4.572776,1.92217 -1.635024,3.46813 -1.342575,10.37648 -6.872443,9.74372 l -13.9841774,-1.60046 c -4.679119,-0.66863 -4.851913,-3.12917 -9.1322386,-5.81833 -11.844012,-8.7082 -23.182887,-19.14183 -36.435949,-24.94818 -4.758884,-2.08567 -8.999316,-1.90888 -13.292955,-2.85799 2.698485,-2.92313 -0.558298,-1.63503 -1.369153,-2.87924 -0.199398,-0.30842 -0.358925,-0.92387 -0.186108,-1.23492 0.677932,-0.77631 0,-1.56592 -0.425374,-2.69848 -0.930513,-2.50705 -1.821132,-4.97155 -2.618721,-7.52379"
       style="fill:#c83737;fill-opacity:1;fill-rule:evenodd;stroke:#000000;stroke-width:0.14449541;stroke-miterlimit:4;stroke-dasharray:none;stroke-opacity:1">
      <title
         id="title644">Iraq</title>
    </path>
  </g>
</svg>
