<svg xmlns="http://www.w3.org/2000/svg" width="372.319" height="361.503" viewBox="0 0 98.509529 95.647766"><path class="landxx iq" d="M.032 45.974c5.796-2.845 10.887-5.62 16.044-9.164 1.649-1.126 3.417-2.52 4.36-3.96 1.808-2.763.36-6.414.732-7.448 0-4.295 1.196-4.827.943-6.892-.279-2.306-3.562-6.356-1.023-8.33 1.449-1.13 3.257-1.084 4.745-2.332 1.263-1.049 4.64-3.795 3.63-4.902-.453-.508.465.04 1.156-.162 1.13-.343 1.502-1.41 1.994-2.315.492-.889 5.543-.066 6.646.36.878.335 1.768.655 2.699.845 1.515.313 1.967-.67 3.283-.915 3.337-.618 1.064 3.747 2.951 3.577 1.383-.12 1.928-2.21 3.443-2.152 1.914.067 1.848 3.34 2.698 4.472.4.537.918.442 1.25 1.115.412.822-.133 1.99.558 2.665 1.463 1.425 4.666 2.829 3.363 5.29 2.154-.484 3.045 1.458 4.015 1.823 1.834.698 1.874-.765 5.849.288-.346 1.494-2.087 1.147-2.712 2.302-1.05 1.951 1.928 3.403 2.1 5.176.226 2.341-2.632-.233-2.552 2.14 0 1.069-1.117.888-1.422 1.895-.333 1.137.226 1.985.425 3.034a3.756 3.756 0 0 1-2.007-.575c-.16.962-.824 1.693 0 2.49.824.868 1.449 1.238.984 2.662-.44 1.357-1.649 1.666-.479 2.722.997.904 1.874 1.985 3.004 2.741 1.13.755 6.979 5.772 3.642 6.71 1.303.316.97 1.83 2.048 1.58 1.542-.358 2.406.623 3.642 1.32 2.26 1.281 3.709 4.193 6.859 4.437 1.489.12 4.227 4.966 5.543 6.128 1.994 1.759.771 3.575.266 5.993-.24 1.155-.173 4.434 1.542 4.556.598.04 1.595-.08 2.074.519.598.77.598 2.32.465 3.262-.306 2.088.784 2.701 3.11 4.384 1.184.85.918 3.483 2.593 3.885-.864.067-6.009-.667-6.128-1.608.704 1.672-2.234.33-3.377.28-1.661-.067-3.815.32-4.573 1.921-1.635 3.468-1.342 10.377-6.872 9.744l-13.984-1.6c-4.68-.669-4.852-3.13-9.132-5.819-11.844-8.708-23.183-19.142-36.436-24.948-4.76-2.086-9-1.909-13.293-2.858 2.698-2.923-.559-1.635-1.37-2.88-.199-.308-.358-.923-.186-1.234.678-.776 0-1.566-.425-2.699-.93-2.507-1.821-4.971-2.619-7.523" fill="#c83737" fill-rule="evenodd" stroke="#000" stroke-width=".144"><title>Iraq</title></path></svg>