<?xml version="1.0" encoding="UTF-8" standalone="no"?>
<!-- Created with Inkscape (http://www.inkscape.org/) -->

<svg
   xmlns:dc="http://purl.org/dc/elements/1.1/"
   xmlns:cc="http://creativecommons.org/ns#"
   xmlns:rdf="http://www.w3.org/1999/02/22-rdf-syntax-ns#"
   xmlns:svg="http://www.w3.org/2000/svg"
   xmlns="http://www.w3.org/2000/svg"
   xmlns:sodipodi="http://sodipodi.sourceforge.net/DTD/sodipodi-0.dtd"
   xmlns:inkscape="http://www.inkscape.org/namespaces/inkscape"
   width="105.12648mm"
   height="174.73625mm"
   viewBox="0 0 105.12648 174.73625"
   version="1.1"
   id="svg10762"
   inkscape:version="0.92.0 r15299"
   sodipodi:docname="japan.svg">
  <defs
     id="defs10756" />
  <sodipodi:namedview
     id="base"
     pagecolor="#ffffff"
     bordercolor="#666666"
     borderopacity="1.0"
     inkscape:pageopacity="0.0"
     inkscape:pageshadow="2"
     inkscape:zoom="0.35"
     inkscape:cx="328.40004"
     inkscape:cy="46.386951"
     inkscape:document-units="mm"
     inkscape:current-layer="layer1"
     showgrid="false"
     fit-margin-top="0"
     fit-margin-left="0"
     fit-margin-right="0"
     fit-margin-bottom="0"
     inkscape:window-width="1920"
     inkscape:window-height="1017"
     inkscape:window-x="1912"
     inkscape:window-y="-8"
     inkscape:window-maximized="1" />
  <metadata
     id="metadata10759">
    <rdf:RDF>
      <cc:Work
         rdf:about="">
        <dc:format>image/svg+xml</dc:format>
        <dc:type
           rdf:resource="http://purl.org/dc/dcmitype/StillImage" />
        <dc:title></dc:title>
      </cc:Work>
    </rdf:RDF>
  </metadata>
  <g
     inkscape:label="Layer 1"
     inkscape:groupmode="layer"
     id="layer1"
     transform="translate(226.74036,13.629703)">
    <g
       id="g4586">
      <path
         inkscape:connector-curvature="0"
         id="path3488"
         d="m -225.59748,109.74031 c -2.12687,0.44398 -0.66465,3.61966 0.77099,4.01978 -0.73111,-1.1392 -0.47855,-2.75031 -0.77099,-4.01978"
         style="fill:#c83737;fill-opacity:1;fill-rule:evenodd;stroke:#000000;stroke-width:0.14449541;stroke-miterlimit:4;stroke-dasharray:none;stroke-opacity:1" />
      <path
         inkscape:connector-curvature="0"
         id="path3490"
         d="m -224.93284,115.00431 c -0.29244,-0.56761 -0.73111,-0.72712 -1.32929,-0.47855 0.29244,2.22125 2.12687,2.02319 1.32929,0.47855"
         style="fill:#c83737;fill-opacity:1;fill-rule:evenodd;stroke:#000000;stroke-width:0.14449541;stroke-miterlimit:4;stroke-dasharray:none;stroke-opacity:1" />
      <path
         inkscape:connector-curvature="0"
         id="path3492"
         d="m -224.73344,132.61745 c 0.13293,0.42937 0.27915,0.84544 0.47854,1.24688 0.61148,-0.41208 1.28942,-0.69921 2.00724,-0.86271 -0.61148,-1.14452 -1.80784,-0.80289 -2.77823,-1.33993 0.13293,0.3177 0.1861,0.63673 0.29245,0.95576"
         style="fill:#c83737;fill-opacity:1;fill-rule:evenodd;stroke:#000000;stroke-width:0.14449541;stroke-miterlimit:4;stroke-dasharray:none;stroke-opacity:1" />
      <path
         inkscape:connector-curvature="0"
         id="path3494"
         d="m -221.76912,128.40359 c -0.13293,-0.15951 -0.25256,-0.31903 -0.38549,-0.47854 0,0.89594 -0.47855,2.22789 0.86404,2.39273 -0.31903,-0.60084 -0.47855,-1.23758 -0.47855,-1.91419"
         style="fill:#c83737;fill-opacity:1;fill-rule:evenodd;stroke:#000000;stroke-width:0.14449541;stroke-miterlimit:4;stroke-dasharray:none;stroke-opacity:1" />
      <path
         inkscape:connector-curvature="0"
         id="path3498"
         d="m -218.80479,125.62537 c -0.22598,-0.13293 -0.43867,-0.25523 -0.66465,-0.38284 -0.26586,0.64471 -0.3722,1.31467 -0.29244,2.00989 0.70452,-0.2632 1.15648,-0.85207 0.95709,-1.62705"
         style="fill:#c83737;fill-opacity:1;fill-rule:evenodd;stroke:#000000;stroke-width:0.14449541;stroke-miterlimit:4;stroke-dasharray:none;stroke-opacity:1" />
      <path
         inkscape:connector-curvature="0"
         id="path3500"
         d="m -218.80479,119.69672 c -0.29245,0.0266 -0.5716,0.0665 -0.86404,0.0931 0.21268,0.73377 0.77099,1.15781 1.54198,0.86138 -0.22598,-0.3177 -0.45196,-0.63673 -0.67794,-0.95576"
         style="fill:#c83737;fill-opacity:1;fill-rule:evenodd;stroke:#000000;stroke-width:0.14449541;stroke-miterlimit:4;stroke-dasharray:none;stroke-opacity:1" />
      <path
         inkscape:connector-curvature="0"
         id="path3502"
         d="m -216.21267,125.43927 c -0.42537,-0.33631 -1.62174,-0.33764 -2.02052,0.0133 -0.55831,0.46658 0.91721,1.90355 1.16977,2.17207 0.86404,0.876 2.10029,0.92253 3.17702,1.35322 0.83745,0.33365 0.97038,1.68554 1.6882,2.2053 -0.59818,-0.30707 -1.44893,0.001 -2.00723,-0.38284 -0.62477,-0.43069 -0.73112,-1.37848 -1.24954,-1.91285 -1.84772,1.43829 2.12687,2.91248 2.20663,4.40262 0.29244,-0.53704 2.632,-2.51636 3.07067,-1.27214 0.23927,0.67395 -0.13293,1.84107 1.15648,1.56857 1.38247,-0.30441 0.17281,-3.90547 -2.02052,-2.49774 0.70452,-1.31202 -0.41209,-2.47648 -1.34259,-3.25279 1.5021,-2.14282 4.58606,2.16277 5.47669,3.41496 1.32929,1.8743 2.56554,4.41459 1.24954,6.76611 -0.78429,1.39974 -1.84772,1.04216 -1.22295,2.91913 0.33232,0.97969 0.82416,1.71877 1.38246,2.57218 0.41208,0.65002 3.15043,4.86654 0.5716,3.948 0.99697,1.06078 1.63503,1.80784 3.16372,1.96204 0.75769,0.0798 1.09002,0.97969 1.91418,0.81353 1.19636,-0.2406 0.31903,-1.19105 -0.21269,-1.47818 -1.16978,-0.64072 -2.14016,-2.98958 -1.24953,-4.19658 1.02355,-1.39044 3.04408,1.19238 0.79757,0.50646 0.39879,1.13655 1.36918,1.90754 1.90089,2.96566 0.65136,1.29074 0.3855,2.5549 0.29245,3.92407 1.47551,-0.59685 2.16675,-2.02052 3.44287,-2.87127 -2.6453,-1.75068 -0.82416,-2.4233 1.34259,-1.33993 1.52868,-2.96698 -1.11661,-7.28852 -0.89063,-10.53332 0,-0.58091 -0.47855,-3.02681 -0.1994,-3.49605 0.87734,-1.46222 2.53896,-3.05339 0.22598,-4.15404 0.21269,-0.32701 0.43867,-0.64471 0.67794,-0.95709 -1.40905,0.0665 -1.51539,-0.9119 -2.36614,-1.68953 -1.03685,-0.95045 -2.72505,-0.2446 -3.7619,-1.27746 1.5021,-0.72446 1.90089,-3.23949 0.21269,-4.01579 -2.35285,-1.08205 -4.34679,2.60674 -6.60659,-0.63408 -1.28942,-1.86367 -0.39879,-2.74233 -2.88457,-2.43659 -1.76796,0.21534 -4.1474,1.60313 -2.88457,3.83235 -2.35285,-0.0798 -1.32929,0.0665 -2.85798,1.72277 -0.99697,-2.29702 -1.66162,0.0399 -1.34259,1.33594"
         style="fill:#c83737;fill-opacity:1;fill-rule:evenodd;stroke:#000000;stroke-width:0.14449541;stroke-miterlimit:4;stroke-dasharray:none;stroke-opacity:1" />
      <path
         inkscape:connector-curvature="0"
         id="path3506"
         d="m -210.57646,135.67483 c 0.13293,0.99697 0.7444,1.83841 1.06343,2.77557 3.85496,-2.11225 -2.02052,-4.84927 -1.06343,-2.77557"
         style="fill:#c83737;fill-opacity:1;fill-rule:evenodd;stroke:#000000;stroke-width:0.14449541;stroke-miterlimit:4;stroke-dasharray:none;stroke-opacity:1" />
      <path
         inkscape:connector-curvature="0"
         id="path3508"
         d="m -210.57646,144.48805 c 0.82416,0.22066 0.98368,-0.093 0.47854,-0.95709 -0.15951,0.31903 -0.31903,0.63673 -0.47854,0.95709"
         style="fill:#c83737;fill-opacity:1;fill-rule:evenodd;stroke:#000000;stroke-width:0.14449541;stroke-miterlimit:4;stroke-dasharray:none;stroke-opacity:1" />
      <path
         inkscape:connector-curvature="0"
         id="path3510"
         d="m -208.17044,118.54023 c 0.14622,-1.86766 2.71176,0.13958 4.24045,-0.39613 3.11055,-1.09534 5.17095,-0.33764 8.00235,1.35322 -1.02356,-0.80023 -1.71479,-5.79705 0.1861,-5.93396 1.06343,-0.0798 1.56856,1.3027 2.52566,1.58186 0.67794,0.19939 3.80178,-1.38779 4.28032,-1.86899 0,0.49051 0.21269,0.78428 0.62477,0.87999 0.27915,-0.3403 0.31903,-0.72978 0.13293,-1.16579 0.78428,0.5583 1.71479,0.36689 1.63503,-0.76567 1.07673,0.65002 1.99394,-0.60749 3.13714,-0.18743 1.67491,0.60881 2.8181,-1.68289 0.97038,-1.05546 1.79455,-0.46526 3.36311,-1.60579 5.19754,-1.91552 2.02053,-0.34428 3.5758,1.55395 5.39693,1.19903 1.35588,-0.26453 2.88457,-1.55528 3.88154,0.21534 0.83746,1.46754 -0.82416,3.24614 -2.03382,3.84964 1.03685,0.78295 1.90089,1.87031 1.78125,3.25411 -0.15951,1.55926 1.7015,2.2691 2.80481,2.82209 1.19637,0.59951 1.58186,2.05908 2.88457,2.53496 0.99697,0.36024 1.90089,0.95577 2.92445,1.21897 1.19636,0.30972 1.8876,-5.03138 2.11358,-5.81035 0.21268,-0.74174 0.13293,-2.49641 0.71782,-3.04408 1.24953,-1.07008 3.04408,-0.18344 4.38666,-0.87999 -1.20965,-1.54597 -2.11357,-2.47781 -3.92141,-3.31925 -2.20663,-1.02621 -1.40905,-2.02584 -1.43564,-3.99054 0,-0.88132 0.81087,-2.55623 1.60845,-0.87999 0.45196,0.97969 0.19939,3.27272 1.92747,2.92577 -0.59818,-0.52773 -0.77099,-1.16579 -0.47854,-1.91418 0.57159,2.55756 3.66885,0.30308 4.21386,2.29835 -0.73111,0.19275 -1.27612,0.73377 -1.24954,1.53002 3.24348,-1.91153 7.08514,-0.70719 10.52801,-0.19142 -2.24651,-2.14016 1.47552,-8.33866 4.3202,-4.88117 -0.3589,0.11964 -0.70452,0.24725 -1.06343,0.38151 0.78428,1.14053 0.5716,3.56516 2.10028,4.11948 1.64833,0.6035 1.95407,-1.96204 1.84772,-2.99357 -0.13293,-1.31201 -1.40905,-2.13485 -1.54198,-3.45085 -0.26586,-2.74233 4.37338,-0.59951 5.15766,0.21934 0.7577,-1.21764 -3.16372,-3.47079 -0.57159,-4.01846 -1.43564,-1.730739 3.93471,-2.448558 2.4459,0.81752 -0.3855,0.83612 -0.53172,5.86218 0.94379,6.24369 0.5716,0.14755 3.85496,-3.0042 3.86825,-3.72202 0,-1.1206 -0.81087,-1.87431 -0.85075,-2.92046 -0.13293,-1.652313 1.62174,-2.251825 2.77823,-2.908496 -3.11055,-2.015209 -5.30389,-5.006121 -6.34074,-8.557994 -0.3722,-1.296061 -0.53171,-2.751638 -0.50513,-4.099542 0,-0.824163 0.15952,-0.77232 0.82416,-1.083375 0.61148,-0.28181 0,-0.845431 0,-1.285427 -0.21268,-3.866916 -3.48275,-6.917645 -5.37034,-10.000278 -2.20663,-3.613021 -0.47855,-6.857827 3.56251,-4.260387 -1.48881,-1.599141 -4.36009,-8.276184 -1.34259,-8.899623 -1.06344,-0.854736 -0.22598,-2.513694 -0.98368,-3.581117 -0.61147,-0.864041 -0.5583,-1.892915 -1.30271,-2.815445 -0.83745,-1.043496 -1.22295,-2.415327 -2.10028,-3.494714 -0.78428,-0.969055 -1.59515,-1.39177 -2.21992,-2.467169 -1.35588,-2.308984 -4.41326,-3.429578 -6.38061,-5.12044 -2.56554,-2.206628 -4.43984,-5.896748 -5.29059,-9.128261 -1.44893,1.31733 -4.8918,-2.120224 -5.78243,-0.643379 -1.316,2.176055 3.23018,5.144368 3.86824,2.079016 1.47552,0.700538 3.05738,2.97496 2.00724,4.59404 -0.9438,-0.60217 -1.94077,-1.084704 -2.96433,-1.530018 0.41208,0.669965 0.41208,1.339929 0,2.009893 -1.59515,-0.39613 -2.11357,-2.130858 -3.07067,-3.254112 -0.99697,-1.179083 -2.41931,-0.723135 -3.53592,-1.628385 0,1.390442 2.8314,4.305583 1.58186,5.387629 -0.65135,0.555644 -2.96432,1.143192 -1.63503,2.476474 1.02356,1.020898 2.97762,2.383424 3.41629,3.715377 0.38549,1.188388 0.43866,4.043712 -1.54199,2.681185 0.3855,1.346575 1.07673,1.14851 2.19334,1.145852 1.48881,0 2.59212,1.673581 3.25677,2.778224 1.72808,2.840701 2.24651,7.781686 1.79455,11.011871 -0.35891,2.504389 2.11357,6.881754 -0.55831,8.3586 -3.07067,1.689532 -1.52869,4.63126 -3.07067,7.490571 -1.27612,2.356838 -4.09422,2.479133 -6.14133,3.84033 -1.27613,0.850748 -2.88457,4.793434 -4.77217,1.480833 -0.51842,-0.898602 -0.33232,-2.132187 -1.62174,-2.368801 -0.77099,-0.140906 -1.66161,-1.660289 -0.63806,-1.475517 2.16675,0.384166 1.3293,-3.098584 1.7015,-3.740633 -1.5021,-0.420057 -4.06764,0.92386 -4.55948,2.411339 -0.66465,2.053759 2.96432,4.489026 2.49907,7.144955 -0.3722,2.125541 -1.316,3.433566 -2.57883,5.088537 -2.11358,2.759614 2.29968,4.364072 2.15346,6.696983 -1.76796,-1.458236 -0.35891,1.002287 -2.10029,0.382836 0.66465,3.114538 -5.4501,-0.45063 -3.44287,1.722768 -0.58489,-0.37088 -1.91418,-0.41075 -2.0737,-1.24688 -0.15951,-0.929177 0.50514,-2.35418 -1.10331,-1.903549 -0.69123,0.194077 -1.28942,0.628756 -1.96736,0.832138 -1.67491,0.502473 -3.46945,-0.01329 -5.0646,0.7896 -1.10332,0.567609 -2.12688,0.937151 -3.37641,1.107301 -1.18307,0.16218 -3.64227,-0.564949 -4.53289,0.0399 -1.27613,0.85607 -1.78126,0.24592 -2.95104,-0.41341 -1.3027,-0.741746 -3.5758,0.70187 -4.78545,1.17642 2.12687,2.38609 -6.34074,8.90893 -6.9655,10.72475 -0.66465,1.90753 -4.58607,0.2313 -4.5329,2.1056 0,1.49413 1.23625,3.2129 1.94077,4.49434"
         style="fill:#c83737;fill-opacity:1;fill-rule:evenodd;stroke:#000000;stroke-width:0.14449541;stroke-miterlimit:4;stroke-dasharray:none;stroke-opacity:1" />
      <path
         inkscape:connector-curvature="0"
         id="path3512"
         d="m -208.36983,135.39568 c 0.23927,1.20833 1.96735,0.2087 2.00723,-0.66997 -0.77099,-0.25256 -1.52869,0.0399 -2.00723,0.66997"
         style="fill:#c83737;fill-opacity:1;fill-rule:evenodd;stroke:#000000;stroke-width:0.14449541;stroke-miterlimit:4;stroke-dasharray:none;stroke-opacity:1" />
      <path
         inkscape:connector-curvature="0"
         id="path3522"
         d="m -197.93488,93.283648 c -0.85075,-0.106344 -0.98367,0.24459 -0.38549,1.052801 0.13293,-0.350934 0.25256,-0.701867 0.38549,-1.052801"
         style="fill:#c83737;fill-opacity:1;fill-rule:evenodd;stroke:#000000;stroke-width:0.14449541;stroke-miterlimit:4;stroke-dasharray:none;stroke-opacity:1" />
      <path
         inkscape:connector-curvature="0"
         id="path3524"
         d="m -197.54938,158.55198 c -1.7015,0.30042 -0.31903,2.24518 0.70452,2.44324 1.99394,0.38683 0.58489,-2.22923 -0.70452,-2.44324"
         style="fill:#c83737;fill-opacity:1;fill-rule:evenodd;stroke:#000000;stroke-width:0.14449541;stroke-miterlimit:4;stroke-dasharray:none;stroke-opacity:1" />
      <path
         inkscape:connector-curvature="0"
         id="path3526"
         d="m -196.97779,90.98397 c -0.78428,0.390812 -0.87733,1.502102 0.13293,1.724094 1.58186,0.358909 0.71782,-1.409052 -0.13293,-1.724094"
         style="fill:#c83737;fill-opacity:1;fill-rule:evenodd;stroke:#000000;stroke-width:0.14449541;stroke-miterlimit:4;stroke-dasharray:none;stroke-opacity:1" />
      <path
         inkscape:connector-curvature="0"
         id="path3528"
         d="m -193.62796,118.83268 c -0.31904,-0.60882 -1.63504,0.26586 -1.91419,0.38283 0.65136,-0.0266 1.28942,-0.15419 1.91419,-0.38283"
         style="fill:#c83737;fill-opacity:1;fill-rule:evenodd;stroke:#000000;stroke-width:0.14449541;stroke-miterlimit:4;stroke-dasharray:none;stroke-opacity:1" />
      <path
         inkscape:connector-curvature="0"
         id="path3530"
         d="m -194.58506,114.71187 c -1.1166,0.39745 -1.02355,0.71649 0.27916,0.95709 -0.13293,-0.31903 -0.18611,-0.63806 -0.27916,-0.95709"
         style="fill:#c83737;fill-opacity:1;fill-rule:evenodd;stroke:#000000;stroke-width:0.14449541;stroke-miterlimit:4;stroke-dasharray:none;stroke-opacity:1" />
      <path
         inkscape:connector-curvature="0"
         id="path3532"
         d="m -191.52768,121.9964 c -0.69123,1.5792 -2.52566,1.97666 -3.53592,3.25411 1.19636,0.0798 1.94077,-1.0209 2.96432,-1.43564 0.22598,0.55299 0.66465,2.23188 1.48881,2.16808 1.07673,-0.0798 1.5021,0.69921 0,0.99032 1.09002,0.36024 1.07673,3.31925 2.53895,3.12517 1.28942,-0.17281 1.50211,1.35987 2.53896,1.756 1.02355,0.39081 2.08699,-0.22199 2.96432,0.66996 -2.00723,-1.38512 -0.79758,-5.18823 0,-6.90701 2.0737,-4.40794 5.71596,-1.21231 8.41443,0.4945 0.27915,-1.01026 0,-2.05642 0.27915,-3.06269 0.35891,-1.20036 1.48881,-1.96603 2.12687,-3.01617 0.59819,-0.9983 -1.95406,-3.65157 -2.02052,-5.0234 -2.23322,0.46259 -3.69544,-1.06743 -5.76914,-1.43963 -1.72808,-0.30972 -3.23018,1.99527 -4.47972,1.24821 1.75467,1.56458 0.87733,2.63067 -1.05014,3.1584 -2.77823,0.7577 -2.43261,-1.1073 -4.97156,-1.53135 -0.22598,1.27081 -0.17281,5.12177 -1.54198,5.55114"
         style="fill:#c83737;fill-opacity:1;fill-rule:evenodd;stroke:#000000;stroke-width:0.14449541;stroke-miterlimit:4;stroke-dasharray:none;stroke-opacity:1" />
      <path
         inkscape:connector-curvature="0"
         id="path3534"
         d="m -193.62796,115.7753 c -0.91722,0.53172 -0.27916,1.17643 0.57159,0.95709 -0.19939,-0.31903 -0.38549,-0.63806 -0.57159,-0.95709"
         style="fill:#c83737;fill-opacity:1;fill-rule:evenodd;stroke:#000000;stroke-width:0.14449541;stroke-miterlimit:4;stroke-dasharray:none;stroke-opacity:1" />
      <path
         inkscape:connector-curvature="0"
         id="path3536"
         d="m -193.62796,154.15202 c -1.07673,0.55564 -0.9571,5.46074 0.66464,4.88116 -0.67794,-1.57388 0.15952,-3.33785 -0.66464,-4.88116"
         style="fill:#c83737;fill-opacity:1;fill-rule:evenodd;stroke:#000000;stroke-width:0.14449541;stroke-miterlimit:4;stroke-dasharray:none;stroke-opacity:1" />
      <path
         inkscape:connector-curvature="0"
         id="path3538"
         d="m -189.52045,114.43271 c -0.73111,-0.13824 -0.73111,0.17946 0,0.9571 0,-0.31903 0,-0.63807 0,-0.9571"
         style="fill:#c83737;fill-opacity:1;fill-rule:evenodd;stroke:#000000;stroke-width:0.14449541;stroke-miterlimit:4;stroke-dasharray:none;stroke-opacity:1" />
      <path
         inkscape:connector-curvature="0"
         id="path3540"
         d="m -181.85042,-13.059864 c -0.61148,-0.106344 1.19636,1.206999 1.52869,1.339928 -0.23928,-0.691233 -0.81087,-1.208328 -1.52869,-1.339928"
         style="fill:#c83737;fill-opacity:1;fill-rule:evenodd;stroke:#000000;stroke-width:0.14449541;stroke-miterlimit:4;stroke-dasharray:none;stroke-opacity:1" />
      <path
         inkscape:connector-curvature="0"
         id="path3542"
         d="m -177.83595,111.74754 c -0.71782,-0.3948 -1.3293,-0.0665 -1.72809,0.57558 0.65136,0.60882 2.37944,0.84942 1.72809,-0.57558"
         style="fill:#c83737;fill-opacity:1;fill-rule:evenodd;stroke:#000000;stroke-width:0.14449541;stroke-miterlimit:4;stroke-dasharray:none;stroke-opacity:1" />
      <path
         inkscape:connector-curvature="0"
         id="path3544"
         d="m -178.69999,-10.760186 c -0.13293,1.173767 1.14319,1.7307411 2.00723,0.957092 -0.5716,-0.518425 -1.24954,-0.838784 -2.00723,-0.957092"
         style="fill:#c83737;fill-opacity:1;fill-rule:evenodd;stroke:#000000;stroke-width:0.14449541;stroke-miterlimit:4;stroke-dasharray:none;stroke-opacity:1" />
      <path
         inkscape:connector-curvature="0"
         id="path3546"
         d="m -175.73567,-13.059864 c 0.82416,1.357209 1.02356,2.940398 2.2598,4.0516878 1.84772,1.6563002 4.01447,3.3843823 5.11778,5.6481698 0.98368,1.9846358 2.11358,4.21386165 2.87128,6.2849015 0.71782,1.9740015 -1.3293,2.7729071 0.13293,4.4770619 1.44893,1.7520094 4.83863,5.896748 0.14622,5.350408 -2.12687,-0.245919 -4.5196,-2.021856 -6.54013,-1.966026 -1.24953,0.03988 0.17281,1.95805 0.58489,2.231885 1.14319,0.781625 2.29968,1.183071 2.04711,2.863299 -0.45196,3.021485 -3.81507,1.29872 -2.41931,5.282614 1.06343,3.024143 4.20057,2.873933 6.07487,5.053975 1.18307,1.378478 0.55831,3.422932 1.60845,4.968901 1.66162,2.457864 2.23321,0.824162 4.16069,0.06646 -1.316,-1.032861 0,-2.297019 1.16978,-2.520341 0.31903,-0.05317 4.37337,1.040837 3.36311,-0.648695 -0.73111,-1.20434 -3.41628,-1.876963 -4.57277,-2.686503 -1.7015,-1.183072 -3.9613,-0.994312 -5.71596,-2.206628 -0.98368,-0.679269 -1.66162,-2.14681 -1.01027,-3.297978 0.63806,-1.135217 2.51237,-0.09305 3.27007,0.304408 1.01026,0.515766 1.86101,1.464882 2.88456,1.871646 1.07673,0.430691 2.41932,-2.069711 3.41629,-2.639978 3.28335,-1.880951 7.7232,2.343545 10.67423,3.40698 2.12687,0.768332 6.55342,3.618338 8.81322,3.348492 1.38246,-0.164833 0.65135,-1.603129 0.26586,-2.343545 -0.93051,-1.773278 -1.1432,-3.102572 -0.35891,-5.052646 1.62174,-4.10486 4.16069,-4.228484 8.13528,-3.230185 -1.76797,-2.238531 4.16069,0.292445 2.20662,-2.298349 0.93051,-0.397459 1.94077,-0.675281 2.96433,-0.478546 -0.13293,-0.842772 0.3722,-1.526029 1.14319,-1.817144 -1.26283,-1.4582358 -1.20966,0.458606 -2.11358,0.897273 -0.54501,0.265859 -1.54198,-0.914554 -1.72808,-1.082045 -0.42537,-0.386825 -3.948,-3.6821443 -1.32929,-2.4950849 -1.86101,-0.8387844 -3.98788,-1.2455483 -4.37338,-3.5997278 -0.25256,-1.5379931 0.17281,-4.45845177 -1.64832,-5.20684424 -0.27916,1.51007787 -0.67794,4.13410404 -2.41932,4.68709034 -2.08699,0.6646469 -5.30388,-2.573513 -6.48695,-1.2402313 -0.3722,-1.1591442 -1.22295,-1.0793866 -2.20663,-0.9079077 -1.36917,0.2379436 -1.63503,-0.7842834 -2.77822,-1.22162109 -3.53593,-1.36385554 -6.76611,-2.54426851 -10.06276,-4.55681951 -3.80178,-2.3196178 -7.35099,-5.0273895 -11.13948,-7.3669468 -1.23625,-0.764344 -2.77823,-2.117565 -4.24045,-2.41001 -1.05014,-0.210028 -0.97038,1.359868 -2.11358,0.478546"
         style="fill:#c83737;fill-opacity:1;fill-rule:evenodd;stroke:#000000;stroke-width:0.14449541;stroke-miterlimit:4;stroke-dasharray:none;stroke-opacity:1" />
      <path
         inkscape:connector-curvature="0"
         id="path3548"
         d="m -171.9073,111.46839 c -1.44893,-0.0798 -2.36615,2.85532 -1.316,3.72734 1.95406,1.61642 1.23624,-3.21158 1.316,-3.72734"
         style="fill:#c83737;fill-opacity:1;fill-rule:evenodd;stroke:#000000;stroke-width:0.14449541;stroke-miterlimit:4;stroke-dasharray:none;stroke-opacity:1" />
      <path
         inkscape:connector-curvature="0"
         id="path3550"
         d="m -173.34294,23.602062 c 0,0.769661 0.3855,1.163132 1.15649,1.052801 0,-0.808211 -0.33233,-1.245549 -1.15649,-1.052801"
         style="fill:#c83737;fill-opacity:1;fill-rule:evenodd;stroke:#000000;stroke-width:0.14449541;stroke-miterlimit:4;stroke-dasharray:none;stroke-opacity:1" />
      <path
         inkscape:connector-curvature="0"
         id="path3552"
         d="m -158.02947,68.492317 c -1.03685,0.356251 -2.23322,2.553573 -0.82417,3.195622 1.26283,0.571597 1.02356,0.951775 0.82417,2.356838 1.56856,-0.03988 2.27309,-1.499443 1.4888,-2.816773 -0.26585,-0.259213 -0.58488,-0.432021 -0.95709,-0.517096 -0.49184,-0.269846 -0.34561,-1.726752 -0.53171,-2.218591"
         style="fill:#c83737;fill-opacity:1;fill-rule:evenodd;stroke:#000000;stroke-width:0.14449541;stroke-miterlimit:4;stroke-dasharray:none;stroke-opacity:1" />
      <path
         inkscape:connector-curvature="0"
         id="path3556"
         d="m -130.75236,108.69016 c -0.3855,0.86537 -0.13293,1.18441 0.86404,0.9571 -0.26586,-0.3403 -0.55831,-0.65933 -0.86404,-0.9571"
         style="fill:#c83737;fill-opacity:1;fill-rule:evenodd;stroke:#000000;stroke-width:0.14449541;stroke-miterlimit:4;stroke-dasharray:none;stroke-opacity:1" />
    </g>
  </g>
</svg>
