<svg xmlns="http://www.w3.org/2000/svg" width="71.919" height="69.981" viewBox="0 0 19.028606 18.515879"><g transform="matrix(1.3293 0 0 1.3293 -2147.861 -663.425)" fill="#c83737" stroke="#000" stroke-width=".109"><title>Kuwait</title><g class="landxx coastxx kw" fill-rule="evenodd"><path d="M1627.11 500.18c.14.313-1.7 3.358.58 3.132 1.97-.196 0-2.463-.58-3.132"/><path class="landxx kw" d="M1615.81 507.74c3.2-1.167 1.71-7.661 5.06-8.277 1.29-.238 3.13-.358 4.83 1.042.44.362 1.56 2.708 1.12 3.276-.95-1.335-2.31.929-2.81 1.584 1.46-.194 3.09.374 3.45 1.954.44 1.921 1.91 3.633 2.55 5.573-1.24-.711-4.32.486-5.53-.366-.95-.665-1.07-2.105-1.44-3.1-.51-1.33-5.29-.973-7.23-1.686"/></g></g></svg>