<svg xmlns="http://www.w3.org/2000/svg" width="357.93" height="176.493" viewBox="0 0 94.702354 46.696999"><path class="landxx kg" d="M1.773 36.592c1.502-2.622 4.466-1.905 5.995-1.228.651.288 4.254 1.436 2.858 2.665 1.502-.344 3.03-2.638 3.841-3.336 1.542-1.344 1.862-1.649 3.975-.733.545.238 1.05.819 1.569 1.006.837.3.717-1.213 1.488.027.452.73 1.994-.538 2.912-.51-2.872-1.526 2.685-1.856 3.256-1.818-.372-.723-.77-1.347-.678-2.2 1.582.681 2.765 1.087 3.616-.78.2-.457 2.871-1.308 1.861-1.915-.518-.317-2.313-.478-2.977-.464-2.18.04-3.483-2.844-5.836-1.435-.133-2.4-1.515-1.343-2.858-2.538-1.396-1.233-3.19-2.405-3.948-3.778.146.793.572 1.846.16 2.629-.28.425-.692.634-1.21.623a1.845 1.845 0 0 1 0 1.629c-1.688-1.585-5.25.395-6.328-2.259-.558-1.4-1.196-1.559-2.578-1.139-1.117.342-2.393-1.074-3.536-1.1.478-3.25 5.955-5.787 8.042-7.753-2.818-1.46-4.64.08-3.018-3.517.426-.952 0-1.675 1.104-2.299 1.13-.647 2.632-.283 3.602-.926 2.034-1.348 7.138.562 9.185 1.204a4.961 4.961 0 0 1 1.968.9c1.21.887 1.781.475 3.137.618 1.356.141 2.619 1.812 4.028 1.34-1.396-1.31-2.672-6.132-.559-7.286C31.35 1.94 35.417.966 34.94.127c2.791.915 5.556 2.391 8.175 3.703 1.023.508 5.702 2.171 6.952 1.561.957-.47.133-1.627 1.436-1.627 1.914 0 3.855.722 5.755.475 1.383-.181 2.672-.86 4.095-.86 1.488 0 2.738 1.103 4.253.648 1.356-.404 2.912.014 4.254.254 1.742.307 3.43-.04 5.171.08 2.911.186 7.218 1.263 9.491 3.137.984.804 1.37 1.887 2.845 1.833 1.25-.053 2.02-.027 3.11.598 1.343.775 3.51 1.976 4.148 3.492.186.444-3.55 1.708-4.28 2.31-2.327 1.936-5.956 2.792-8.574 4.52-1.21.803-1.901 1.262-1.875 2.69 0 1.225-.983 2.64-2.645 2.498-1.422-.12-2.579.276-4.014.44-1.609.182-3.084-.307-4.666-.356-2.1-.066-2.02 2.506-2.273 4.298-.678 4.63-3.058 2.97-5.756 3.743-3.097.888-2.606-2.108-3.975-3.218-.784-.638-2.113 1.348-2.725 1.705-1.422.846-2.432-.12-3.974-.437-.147.66-.133 1.299.199 1.914-1.25.027-2.007 1.149-2.672 2.04-.957 1.313-2.95.519-3.948 1.907-1.422 1.973 2.207 4.413-.24 5.93-1.01.625-2.286-.523-3.362.347-1.263 1.027-2.872.83-4.427.643-1.755-.214-5.543-.58-5.928 2.15-2.247-2.186-3.895-.688-5.251-1.877-.133.327-.133-.714-.612-1.209-.518.04-1.263-.146-1.768-.243-.585-.372-.239-.989-.81-1.313-.413-.237-3.975 2.662-5.477 2.435-1.117-.17-1.29-.472-2.007-1.373-.997-1.259-2.805-.731-4.081-.247 0-.351-.133-.701-.133-1.053-.771.562-1.888.706-3.15.547-2.978-.376-3.763 1.162-4.986.37-1.342-.872-1.74-6.583.133-4.267 0-.689.293-1.375.386-1.65" fill="#c83737" fill-rule="evenodd" stroke="#000" stroke-width=".144"><title>Kyrgyzstan</title></path></svg>