<svg xmlns="http://www.w3.org/2000/svg" width="317.358" height="373.131" viewBox="0 0 83.967628 98.724174"><path class="landxx la" d="M.097 24.782C.483 23.23-.035 21.009 1.44 19.9c.837-.636 3.11.08 3.257-1.34-1.968 1.167-.4-2.341-.146-2.978.412-1.053.398-1.626 1.542-2.133.957-.428 2.818-1.41 2.525-2.737 1.316.922.904 5.076 3.363 3.888 1.662-.795 1.596.68 3.177.792 1.742.12-.172-2.539-.226-2.701-.398-1.333.838-1.841.333-2.59-1.037-1.498-1.223-2.51-1.994-3.384-1.064-1.22-1.236-2.694-1.45-3.465-.278-1.016.16-3.588 1.702-3.127.625.189.372.8.678.76 3.483-.454 1.383-.303 2.872.185.186.04.358.922 1.342 1.93 1.183 1.2 2.393 2.293 3.656 3.427.97.868 1.023 2.834 2.34 3.232.943-.952.199-2.255.504-1.714.652 1.334 1.197.777 1.702 2.066.306.808-.36 2.071.133 4.255.478 2.151 3.257 5.203 5.144 5.14 1.742-.054 2.353.71 4.028 1.738.824-1.122.625-2.22 2.047-2.946 1.728-.881 2.951.107 4.4 1.207.824.622 2.18 1.233 2.326 2.366.16 1.17-1.621 1.007-1.874 1.957.89.362 2.765.106 3.057 1.28.293 1.125.798 1.105 1.436 1.209 3.589.58 2.113 3.577.385 4.02 1.968.563-1.834 2.899-3.243 2.686-.332-.053-3.762-1.1-4.028-.39-.319.867 1.861 2.102 1.144 2.704-.679.565-2.66 1.14-.719 2.112 1.356.681.878.168 2.26 1.004 1.396.837 4.307 3.14 5.477 3.96.93.647 6.42 1.239 5.237 2.338-.358.34-.864.762.612 2.909.691 1 1.914 2.144 2.725 2.208.997.08 1.622 1.764 1.967 2.475.785 1.628 1.835 2.831 3.071 4.122.718.742 4.041 3.622 4.706 3.807 1.29.362 2.645 3.411 2.871 3.713.89 1.212.665 3.043 1.37 4.063.238.35.89 1.663 1.355 1.736.572.094 1.064-.381 1.622-.066 1.116.65.611 1.235 2.047 1.597.545.136 2.366 2.507 4.546 3.232-.505 1.144-2.153 1.534-2.592 2.717-.465 1.286 3.018 2.815 3.722 3.616 1.25 1.425 2.539 1.978 1.861 4.102-.226.723-1.25 1.316-1.25 1.743 0 .52.32.237.864 1.856.599 1.809-1.9 4.167-5.157 4.989-2.619.662-3.908-2.042-4.998-2.231-.825-.142-.333.783-.878 1.013-.545.229-1.754-.158-1.74.43 0 .811-.785 1.097-1.49.741-.133-.053-.89.784-.651 1.195.651 1.097 2.393 2.358 1.116 3.66-.717.732-2.233.347-3.017-.81-.479-.707-2.606-1.214-3.948-1.131-1.462.093-3.097-1.756-1.874-2.776.904-.759 2.38-1.632 2.233-3.044-.146-1.312.359-2.987-.133-4.029-.253-.53-1.09-.819-1.037-1.844 0-.776.665-1.48.957-2.154-.372.18-.704.16-.997-.067-.2-1.074 2.3-2.479.665-4.129-.877-.893-4.374-1.951-2.154-3.464-3.695-1.447-7.523-3.95-8.108-8.324-.465-3.396.757-8.132-2.725-10.202-3.563-2.111-4.693-7.586-8.813-8.476-.532-.12-7.445-1.832-5.331.78-1.17.232-1.303 3.237-2.366 3.285-.293.014-1.41.395-2.167.99-1.343 1.045-2.153-.756-2.592-.809-2.1-.257-2.805-1.684-4.08-2.498-1.397-.905-1.703 2.793-3.444 1.52-.133 2.63-3.283 4.462-4.812 6.285-.704.841-1.701.376-2.473-.42-.85-.887-.159-2.52.213-3.453.599-1.453.784-2.434.559-4.01-.133-.941-1.064-2.558-.944-3.38.24-.475.545-.91.904-1.3.492-.815.133-.84 0-1.668-.133-1.81.717-2.856-.186-4.588-1.29-2.444 0-6.158-4.095-5.022-.492 0-.864.191-1.103.586-.399.928-.518.12-1.303.279-1.369.274-2.3-.638-2.977-1.958-.957-1.878 1.675-3.753.571-5.147-.452-.573-1.807-2.33-2.379-2.677-.89-.521-1.263.821-2.3 1.107-.133-.32-.133-.64-.2-.958" fill="#c83737" fill-rule="evenodd" stroke="#000" stroke-width=".144"><title>Lao People&apos;s Democratic Republic</title></path></svg>