<svg xmlns="http://www.w3.org/2000/svg" width="60.966" height="70.205" viewBox="0 0 16.130663 18.575113"><g transform="matrix(1.3293 0 0 1.3293 -2030.845 -610.773)" fill="#c83737" stroke="#000" stroke-width=".109"><title>Lebanon</title><path class="landxx lb" d="M1529.12 473.254c1.59-1.854 1.53-5.199 2.88-7.283.67-1.032-.11-2.426.66-3.421.6-.774 2.23-1.63 1.71-2.832.61.13 1.55.393 2.14.04 1.36-.81.4.732.6 1.196 0-.06.89.282.99.375.68.659.3.513.82 1.463 1.1 2.021-2.43 2.345-1.02 4.052-1.43-.427-3.86.572-2.16 2.16-.64.146-2.79 2.234-2.88 2.88a.8.8 0 0 1-.36-.36c-.24.465-.25 1.016-.51 1.491-.54 1.005-2.09-.393-2.87.238" fill-rule="evenodd"/></g></svg>