<?xml version="1.0" encoding="UTF-8" standalone="no"?>
<!-- Created with Inkscape (http://www.inkscape.org/) -->

<svg
   xmlns:dc="http://purl.org/dc/elements/1.1/"
   xmlns:cc="http://creativecommons.org/ns#"
   xmlns:rdf="http://www.w3.org/1999/02/22-rdf-syntax-ns#"
   xmlns:svg="http://www.w3.org/2000/svg"
   xmlns="http://www.w3.org/2000/svg"
   xmlns:sodipodi="http://sodipodi.sourceforge.net/DTD/sodipodi-0.dtd"
   xmlns:inkscape="http://www.inkscape.org/namespaces/inkscape"
   width="300.07013mm"
   height="118.259mm"
   viewBox="0 0 300.07013 118.259"
   version="1.1"
   id="svg39996"
   inkscape:version="0.92.0 r15299"
   sodipodi:docname="mongolia.svg">
  <defs
     id="defs39990" />
  <sodipodi:namedview
     id="base"
     pagecolor="#ffffff"
     bordercolor="#666666"
     borderopacity="1.0"
     inkscape:pageopacity="0.0"
     inkscape:pageshadow="2"
     inkscape:zoom="0.35"
     inkscape:cx="567.06168"
     inkscape:cy="223.48165"
     inkscape:document-units="mm"
     inkscape:current-layer="layer1"
     showgrid="false"
     fit-margin-top="0"
     fit-margin-left="0"
     fit-margin-right="0"
     fit-margin-bottom="0"
     inkscape:window-width="1920"
     inkscape:window-height="1017"
     inkscape:window-x="1912"
     inkscape:window-y="-8"
     inkscape:window-maximized="1" />
  <metadata
     id="metadata39993">
    <rdf:RDF>
      <cc:Work
         rdf:about="">
        <dc:format>image/svg+xml</dc:format>
        <dc:type
           rdf:resource="http://purl.org/dc/dcmitype/StillImage" />
        <dc:title></dc:title>
      </cc:Work>
    </rdf:RDF>
  </metadata>
  <g
     inkscape:label="Layer 1"
     inkscape:groupmode="layer"
     id="layer1"
     transform="translate(167.044,-89.703851)">
    <path
       inkscape:connector-curvature="0"
       id="mn"
       class="landxx mn"
       d="m -167.03308,122.72809 c 2.2598,0.19275 1.39576,-1.28674 1.84772,-2.63464 0.95709,-2.88856 6.02169,0.53437 5.71595,-1.38515 1.56857,0.0931 2.03384,0.82018 2.96433,0.0931 -0.18611,-0.32302 -0.37219,-0.64071 -0.57159,-0.95709 1.68821,-0.26585 2.49907,-0.63938 4.1208,-1.24555 -0.75769,-0.46259 -1.24952,-1.28143 -1.54197,-2.1056 0.42538,-0.29776 3.23018,-0.57159 2.93773,-1.33194 -0.38548,-0.98102 0.93051,-0.95179 1.60847,-1.39045 0.9172,-0.60615 2.52564,-0.45994 3.15041,-0.9438 0.73112,-0.56894 1.56858,-1.77328 3.05739,-2.3688 0.93049,-0.36953 1.88758,-0.0266 2.68517,-1.02222 0.59817,-0.74176 0.81085,-1.39045 1.79455,-1.53268 1.12989,-0.16352 4.7057,0.093 3.722,-1.99794 1.91419,-0.0266 2.71178,2.20929 3.88156,1.71878 0.31903,-0.13825 1.55526,-1.39042 1.96734,-0.93182 0.90394,0.99696 0.91723,2.02848 2.48578,2.06173 2.07371,0.0399 4.25374,0 6.31414,-0.0665 2.2864,-0.0798 4.13411,0.24725 5.56974,2.21194 2.69849,3.72069 5.63621,4.01049 9.8368,4.96225 2.28638,0.51712 3.28334,-0.56229 5.34376,-0.57424 0.199375,0 2.273087,0.18742 2.499065,0.22997 2.233215,0.41474 5.024731,0.83746 7.630136,1.19636 1.767972,0.24326 4.493014,2.34754 5.303893,0.91189 0.837459,-1.48348 1.47552,-1.53931 2.990911,-1.88892 1.462233,-0.33366 1.355889,-2.49375 1.276125,-3.6489 -0.132924,-1.58586 -1.129911,-2.41003 -2.472484,-2.98692 -2.073714,-0.88666 -2.698485,-2.75564 -4.439854,-3.97727 -1.249542,-0.87467 -2.871277,-6.795353 0,-5.855542 -0.638061,-1.357202 -0.877329,-2.811449 0.877329,-3.339175 1.741393,-0.523735 1.38247,-2.80349 1.036858,-4.126129 2.140161,0.523735 3.987874,1.422337 6.247669,2.20929 2.166768,0.755042 4.28035,1.775931 6.580016,2.097615 2.3529,0.327015 4.14728,0.751051 6.540193,1.067429 2.15341,0.288459 5.39678,2.180032 7.44406,1.639016 4.01448,-1.060784 8.00218,2.210628 8.61386,4.805396 0.39869,1.68023 2.39267,2.79417 3.36288,4.15804 1.20972,1.69086 4.00133,2.69447 5.21106,3.36045 1.40883,0.78031 3.5357,0.14225 5.39677,1.75865 0.65136,0.56628 3.29668,0.94913 4.65269,0.47591 1.90075,-0.66068 2.06018,0.26718 4.67897,-0.74044 2.00736,-0.77498 3.98795,-1.4662 5.99507,-1.96336 3.97456,-0.98501 9.50448,0.36954 13.5722601,0.7577 2.03365,0.19407 3.57562,1.73472 5.25073,2.76625 2.67185997,1.64301 4.78534,1.05414 7.68332,1.65233 1.48867,0.30839 2.28631,1.68154 3.20346,2.7091 1.1697999,1.3027 2.5922599,1.82777 4.0943099,2.7051 2.17994,1.27878 4.22722,1.62174 6.03499,1.50476 3.05741,-0.19806 5.03799,0.58091 7.73638,1.13521 2.1534,0.44134 4.0544,0.33101 6.22119,0.42538 1.58189,0.0665 3.68223,0.82018 4.62591,-0.13293 1.52858,-1.5433 2.60541,-1.92482 5.58298,-2.1508 1.24964,-0.0931 4.87857,-1.45025 7.08527,-1.21894 1.96721,0.20735 3.13701,-0.1994 3.62893,-2.12023 0.54499,-2.07503 1.95406,-3.11055 3.68223,-4.29495 1.6481,-1.12325 2.33937,-1.4609 4.46624,-1.75865 1.8876,-0.26588 3.82852,-0.40678 6.19466,1.22028 1.63495,1.12193 3.89472,2.44856 5.87531,2.77292 1.7547,0.28447 2.805,-0.30708 4.30705,-0.98766 2.21985,-1.0023 5.71588,0.66729 6.63303,1.67489 l 1.15666,16.42743 c 1.84768,1.52868 -1.36916,2.24117 -0.31911,3.64757 1.02352,1.37183 3.21684,2.7995 4.33359,3.37641 1.59503,0.82283 2.20646,-1.53267 4.00109,-1.38512 2.29969,0.18742 4.43995,-0.54634 6.659803,0.49847 1.80777,0.84545 2.96418,1.6922 4.42656,-0.20604 1.24941,-1.64832 2.06041,-2.51369 4.26688,-2.36349 3.77523,0.25789 8.44106,3.07068 11.59145,5.08057 3.64231,2.31963 7.55041,4.37871 10.56791,7.57033 3.53594,3.74861 -2.31283,3.51864 -4.66582,3.12384 -1.56851,-0.26319 -3.13701,-1.78258 -4.3202,-0.6633 -0.38531,0.36155 -2.44573,-0.27651 -3.00411,-0.24061 -1.70164,0.10634 -2.84466,0.96904 -4.29365,1.71213 -1.02354,0.51975 -3.19032,-0.88531 -3.49605,0.34162 -0.33224,1.33727 -0.25265,1.99262 -1.91413,1.88893 -1.9409,-0.11964 -3.85506,-0.37354 -4.74567,1.73606 -0.33224,0.78427 -0.50506,1.64965 -0.5316,2.49775 0,0.91588 1.11651,1.80784 0.91715,2.53761 -0.19934,0.78163 -2.80474,2.67719 -3.50941,3.26475 -1.3027,1.09269 -3.615533,1.12059 -5.223953,1.08337 -1.19658,-0.0266 -3.21708,-1.08736 -3.93489,0.33366 -0.67788,1.33062 -0.8507,2.92711 -1.98058,4.02776 -0.74434,0.72713 -1.63495,0.54633 -2.21986,1.49678 -0.43861,0.71916 -0.78425,1.39045 -1.72817,1.30937 -2.03389,-0.17416 -4.1873,-0.55964 -6.16788,-0.97971 -3.34974,-0.7085 -7.20479,-4.74557 -10.7142,-2.06173 -1.35577,1.03021 -1.27593,2.77822 -0.69128,4.21519 0.35903,0.89994 -0.26579,1.7334 0,2.62402 0.27919,0.93716 1.09022,1.01958 1.71479,1.62707 1.20973,1.19105 9.13232,5.60031 5.80911,7.04526 -0.83732,0.3682 -2.06043,1.74801 -2.73831,2.41533 -0.91715,0.91455 -2.65871,1.0674 -3.16378,2.42195 -0.7178,1.97268 -1.40907,4.23247 -3.05741,5.66014 -1.34262,1.15783 -3.69537,1.67624 -5.29041,2.64 -1.80801,1.09401 -5.0913,0.78028 -7.15172,0.87732 -2.65847,0.13293 -4.93163,-0.45993 -7.57695,-0.0399 -5.51654,0.87867 -10.2089,1.45958 -15.3002,4.05303 -2.07357,1.05147 -4.18729,2.07236 -5.99506,3.54257 -1.63495,1.33194 -1.34262,1.5473 -3.27015,1.37049 -1.18295,-0.10634 -2.45912,0 -3.42958,-0.78693 -1.8876,-1.53535 -2.04703,-1.58851 -4.70574,-1.30538 -4.8518,0.51312 -9.6505299,-1.99392 -14.3562699,-2.84467 -2.20671,-0.39746 -4.59938,-0.81088 -6.63328,-1.78525 -2.21985,-1.0621 -3.589,-3.22885 -6.1413501,-3.69278 -2.24638,-0.40809 -4.53269,-0.0532 -6.7927,-0.52108 -1.9672,-0.40145 -3.96117,-0.72048 -5.94176,-1.02887 -2.31308,-0.36158 -3.96142,0.93183 -6.22119,1.17243 -2.93765,0.30974 -6.10143,-0.51312 -9.05247,-0.60883 -4.97155,-0.16084 -9.86326,-2.16408 -14.83481,-1.62572 -1.40907,0.15154 -3.86843,0.88796 -5.25073,0.28315 -0.63821,-0.2858 -1.02376,-1.04615 -1.31609,-1.63502 -0.47853,-0.96642 -1.82116,-1.55794 -2.69839,-2.05909 -3.855046,-2.18801 -5.622896,-6.36599 -8.813303,-9.22529 -1.222939,-1.098 -3.163705,-1.30273 -3.376393,-3.23152 -0.199395,-1.89689 -4.240453,-1.04748 -5.995112,-1.86366 -2.02053,-0.94247 -4.160692,-1.93812 -6.048298,-3.13713 -1.701498,-1.08337 -3.655552,-0.98501 -5.303893,-2.29436 -3.775186,-2.98561 -8.892968,-1.71613 -13.292928,-2.15613 -3.64226,-0.36555 -7.37758,-1.00095 -10.97998,-1.49811 -3.1637,-0.43732 -7.33768,-2.61205 -7.76306,-6.22109 -0.19939,-1.71347 2.00722,-3.36045 0.78428,-4.82533 -1.55526,-1.85704 -0.74441,-4.23116 -2.11358,-5.93663 -1.76795,-2.18005 -3.2036,-3.84565 -5.55645,-5.41023 -2.15346,-1.43697 -2.77823,-3.40166 -4.41325,-5.23876 -1.09002,-1.21763 -3.12384,-1.93677 -4.46644,-3.0042 -1.23622,-0.99696 -0.41208,0.34561 -1.48881,0.36822 -0.86404,0.0134 -1.68818,-0.68591 -2.36614,-1.12857 -1.79455,-1.17112 -1.99392,-0.79759 -3.92142,-0.66997 -2.44588,0.16084 -4.91839,-1.56459 -6.75281,-2.97229 -1.42234,-1.08471 -2.87128,-2.33956 -4.66581,-2.77158 -1.70149,-0.41209 -2.52566,-0.3177 -2.45919,-1.95009 0,-1.18971 -2.89786,-1.38512 -3.403,-2.51766 -0.1861,-0.38816 0.3988,-0.40145 0.53172,-0.6394 0.38548,-0.67262 -1.07672,-1.84372 -1.3426,-2.35419"
       style="fill:#c83737;fill-opacity:1;fill-rule:evenodd;stroke:#000000;stroke-width:0.14449541;stroke-miterlimit:4;stroke-dasharray:none;stroke-opacity:1">
      <title
         id="title2488">Mongolia</title>
    </path>
  </g>
</svg>
