<?xml version="1.0" encoding="UTF-8" standalone="no"?>
<!-- Created with Inkscape (http://www.inkscape.org/) -->

<svg
   xmlns:dc="http://purl.org/dc/elements/1.1/"
   xmlns:cc="http://creativecommons.org/ns#"
   xmlns:rdf="http://www.w3.org/1999/02/22-rdf-syntax-ns#"
   xmlns:svg="http://www.w3.org/2000/svg"
   xmlns="http://www.w3.org/2000/svg"
   xmlns:sodipodi="http://sodipodi.sourceforge.net/DTD/sodipodi-0.dtd"
   xmlns:inkscape="http://www.inkscape.org/namespaces/inkscape"
   width="83.92968mm"
   height="46.64447mm"
   viewBox="0 0 83.92968 46.64447"
   version="1.1"
   id="svg38762"
   inkscape:version="0.92.0 r15299"
   sodipodi:docname="nepal.svg">
  <defs
     id="defs38756" />
  <sodipodi:namedview
     id="base"
     pagecolor="#ffffff"
     bordercolor="#666666"
     borderopacity="1.0"
     inkscape:pageopacity="0.0"
     inkscape:pageshadow="2"
     inkscape:zoom="0.35"
     inkscape:cx="158.60726"
     inkscape:cy="88.146937"
     inkscape:document-units="mm"
     inkscape:current-layer="layer1"
     showgrid="false"
     fit-margin-top="0"
     fit-margin-left="0"
     fit-margin-right="0"
     fit-margin-bottom="0"
     inkscape:window-width="1920"
     inkscape:window-height="1017"
     inkscape:window-x="1912"
     inkscape:window-y="-8"
     inkscape:window-maximized="1" />
  <metadata
     id="metadata38759">
    <rdf:RDF>
      <cc:Work
         rdf:about="">
        <dc:format>image/svg+xml</dc:format>
        <dc:type
           rdf:resource="http://purl.org/dc/dcmitype/StillImage" />
        <dc:title></dc:title>
      </cc:Work>
    </rdf:RDF>
  </metadata>
  <g
     inkscape:label="Layer 1"
     inkscape:groupmode="layer"
     id="layer1"
     transform="translate(58.973767,-125.51107)">
    <path
       inkscape:connector-curvature="0"
       id="np"
       class="landxx np"
       d="m -58.696924,142.38643 c 0.518404,-1.56723 1.728078,-2.36081 0.930489,-4.02244 -0.491824,-1.0488 -0.385481,-1.20035 0,-2.28238 0.810879,-2.11757 0.837459,-1.54331 1.701498,-2.93376 1.329307,-2.10825 2.126873,-6.27958 4.479723,-4.50764 0.412084,0.31372 1.036856,1.34391 1.714788,0.82018 1.076726,-0.82283 1.18307,-1.63902 0.996962,-2.86464 1.209675,0.46393 1.422362,-1.24686 2.233217,-0.98632 1.409071,0.4586 2.698485,0.35758 4.094242,1.47552 2.990912,2.41531 6.008404,4.89577 8.773338,6.34603 2.273085,1.20035 4.094218,1.30538 5.715952,3.185 1.661628,1.92215 2.698462,4.42255 4.851937,2.62004 1.063437,-0.88665 2.472484,-0.1449 3.509317,0.65001 1.249545,0.96773 1.42236,3.03212 2.033818,3.52531 1.754682,1.40505 5.144389,3.39102 6.792703,3.38437 1.1299109,0 1.9673469,-1.25085 2.6585919,0.36689 0.385482,0.87733 -1.090017,1.38911 0.132924,2.33956 0.917223,0.72447 4.413247,1.47683 5.463394,0.1595 0.611484,1.86899 2.73835596,2.46185 3.60239496,4.13012 1.12988404,2.14415 1.03685704,-1.76795 1.47552004,-2.12023 0,1.17378 3.083965,3.63696 3.948004,1.97932 0.319032,-0.61678 0.53172,-1.55129 1.608445,-1.01558 0.957093,0.47192 1.289415,0.27383 2.1534541,0.83215 2.645302,1.69486 3.163705,1.5061 5.117785,1.6204 1.714786,0.10634 4.838623,-0.74041 6.805967,-0.0931 1.395757,0.45994 0,5.96722 0.226002,7.53711 0.398769,2.99356 3.150415,4.23912 2.44588,7.60621 -0.571587,2.72638 -2.764912,1.41837 -5.263999,1.72411 -1.967344,0.23927 -4.71899,0.82015 -5.077889,-1.91419 -1.794552,0.59951 -2.379456,2.19067 -4.399984,0.97835 -0.9703831,-0.57957 -5.3437631,-2.11889 -6.3805941,-1.71479 -2.0604,0.81353 -1.701498,-0.21534 -2.80480504,-1.36915 -1.688208,-1.76133 -2.93775096,0.868 -4.69240896,0 -0.877353,-0.43602 -2.246506,-2.23191 -3.921424,-2.53631 -2.047111,-0.36954 -1.807843,-1.24687 -2.6187219,-2.88058 -0.824145,-1.6377 -9.278453,-4.08757 -8.29478,-1.47286 -1.103307,-0.48652 -2.658591,-1.77194 -3.948004,-1.13522 -1.767972,0.88531 -2.193348,1.08471 -4.267036,0.16617 -1.129911,-0.50248 -2.711752,-0.57426 -3.243469,-1.86898 -0.757695,-1.86767 -2.206638,-0.4945 -3.722028,-1.41039 -1.409047,-0.85474 -2.804804,-2.40735 -4.134112,-2.06972 -1.993924,0.50382 -3.85495,-1.33193 -5.90206,-2.27043 -1.767972,-0.8175 -2.804804,-2.64263 -4.506302,-3.67549 -1.781262,-1.08603 -3.735317,-1.8517 -5.503289,-2.95501 0,1.7613 -1.940766,0.13292 -2.990912,-0.54236 -0.744406,-0.47322 -2.618697,-1.69485 -1.794528,-2.80879"
       style="fill:#c83737;fill-opacity:1;fill-rule:evenodd;stroke:#000000;stroke-width:0.14449541;stroke-miterlimit:4;stroke-dasharray:none;stroke-opacity:1">
      <title
         id="title2189">Nepal</title>
    </path>
  </g>
</svg>
