<?xml version="1.0" encoding="UTF-8" standalone="no"?>
<!-- Created with Inkscape (http://www.inkscape.org/) -->

<svg
   xmlns:dc="http://purl.org/dc/elements/1.1/"
   xmlns:cc="http://creativecommons.org/ns#"
   xmlns:rdf="http://www.w3.org/1999/02/22-rdf-syntax-ns#"
   xmlns:svg="http://www.w3.org/2000/svg"
   xmlns="http://www.w3.org/2000/svg"
   xmlns:sodipodi="http://sodipodi.sourceforge.net/DTD/sodipodi-0.dtd"
   xmlns:inkscape="http://www.inkscape.org/namespaces/inkscape"
   width="46.205612mm"
   height="60.588333mm"
   viewBox="0 0 46.205612 60.588333"
   version="1.1"
   id="svg9560"
   inkscape:version="0.92.0 r15299"
   sodipodi:docname="northkorea.svg">
  <defs
     id="defs9554" />
  <sodipodi:namedview
     id="base"
     pagecolor="#ffffff"
     bordercolor="#666666"
     borderopacity="1.0"
     inkscape:pageopacity="0.0"
     inkscape:pageshadow="2"
     inkscape:zoom="0.35"
     inkscape:cx="87.317691"
     inkscape:cy="114.49764"
     inkscape:document-units="mm"
     inkscape:current-layer="layer1"
     showgrid="false"
     fit-margin-top="0"
     fit-margin-left="0"
     fit-margin-right="0"
     fit-margin-bottom="0"
     inkscape:window-width="1920"
     inkscape:window-height="1017"
     inkscape:window-x="1912"
     inkscape:window-y="-8"
     inkscape:window-maximized="1" />
  <metadata
     id="metadata9557">
    <rdf:RDF>
      <cc:Work
         rdf:about="">
        <dc:format>image/svg+xml</dc:format>
        <dc:type
           rdf:resource="http://purl.org/dc/dcmitype/StillImage" />
        <dc:title></dc:title>
      </cc:Work>
    </rdf:RDF>
  </metadata>
  <g
     inkscape:label="Layer 1"
     inkscape:groupmode="layer"
     id="layer1"
     transform="translate(40.111734,-118.53917)">
    <path
       inkscape:connector-curvature="0"
       id="kp"
       class="landxx kp"
       d="m -40.042129,151.2668 c 0.359023,-1.29076 1.103355,-2.31829 2.126873,-3.34317 0.677883,-0.68726 1.767851,-0.37353 1.954055,-1.2336 0.372167,-1.77328 3.948029,-1.88892 3.948029,-3.66485 0,-1.07408 1.156417,-0.58491 1.794625,-0.7577 1.236254,-0.33232 1.448747,-2.25184 1.648339,-3.03212 0.611433,-2.37412 -0.624821,-5.26534 1.010131,-6.18122 0.638207,-0.36423 1.342621,-1.48482 2.246627,-1.03552 1.27593,0.6394 2.193323,1.76797 3.442721,2.4645 2.206709,1.2336 4.466481,1.6324 6.912458,1.84109 1.355766,0.11964 4.133991,0.30041 3.150389,-1.90223 -0.425471,-0.95576 -1.661723,-1.10465 -2.392669,-1.72275 -0.983843,-0.83746 -1.714788,-1.93015 -2.485895,-2.96433 2.14026,-0.54769 4.585993,-0.34695 6.792703,-0.55034 2.897979,-0.26719 1.329235,-2.10426 1.914136,-3.56783 0.505066,-1.26549 2.29969,-0.42535 3.230227,-0.84408 1.35601,-0.6035 -0.943679,-5.19356 -1.222865,-6.14267 2.047036,-0.11965 3.761822,0.3137 4.745424,2.08034 1.395926,2.53496 5.370486,3.21555 7.218175,5.57507 -0.86409,0.64337 -1.595277,-0.31107 -2.49904,-0.1449 -0.544984,0.0931 -0.89062,1.61375 -1.050293,2.02318 -0.624578,1.57522 -2.179934,4.26039 -1.741318,6.0177 0.305715,1.23626 6.752783,7.47198 3.894966,8.88236 -0.943925,0.4679 -2.11373,0.85871 -2.618793,1.88493 -0.319106,0.65668 0.279183,1.55261 -0.265801,2.08966 -0.811024,0.78296 -1.674868,0.82283 -2.286545,1.90488 -0.478536,0.85073 -0.797396,1.86101 -1.54197,2.53762 -0.850702,0.77629 -2.060425,0.55431 -3.057412,0.98368 -0.863843,0.36822 -1.47552,1.10595 -2.140016,1.72542 -0.917149,0.84276 -1.821156,1.24686 -0.624821,2.21993 0.983602,0.80421 1.169805,2.39671 1.395685,3.56515 -0.45176,-1.54596 -0.996987,-0.70055 -0.890619,0.4041 0.199593,2.10959 2.485895,1.27347 3.921498,2.16277 2.153404,1.33063 9.331661,4.19657 8.986025,7.25528 -0.518451,4.47972 -8.733372,0.0798 -10.873632,3.55853 -0.770863,1.2429 -0.757719,4.39465 -2.233239,4.14207 -0.770864,-0.13293 -5.011465,-1.53798 -3.416189,0.75769 -0.877475,-0.53568 -2.525813,-0.85605 -3.216841,-1.46753 -1.063436,-0.95975 -2.180178,-1.72674 -3.668843,-1.78657 0.584658,0.46658 1.222866,0.84809 1.914136,1.14719 -0.970455,0.0931 -1.143273,1.83442 -2.392914,2.87126 -0.824169,-1.28277 0.797638,-0.74174 0.664739,-1.53 -0.185961,-1.07541 -1.595033,-1.57257 -1.528583,-0.0931 -0.744576,-1.62042 -2.924511,-0.0266 -3.828517,-1.62707 2.206709,0 -0.584902,-1.64566 1.728175,-0.86138 -1.209723,-1.26016 -3.642312,-0.56628 -5.170896,-0.86139 0.199349,-0.79226 0.850701,-1.16045 1.621565,-0.86004 -1.874219,-1.26284 -0.1329,-3.24746 -1.435603,-4.68976 1.409071,1.02091 0.744576,-0.8627 2.499039,-0.9624 1.090211,-0.0665 2.499282,0.10634 3.442964,0.67528 -1.169805,-2.43128 -5.902085,0.0399 -5.968534,-3.44022 0,-1.36917 0.717801,-3.37507 0.345635,-4.65519 -0.385553,-1.3027 -1.741319,-1.15914 -1.169804,-2.81544 -2.406059,1.54864 -5.370245,-1.34257 -7.470586,-2.20131 0.478534,0.69256 0.398697,1.33063 -0.199349,1.91419 -0.292573,-1.29076 -1.44899,-1.82912 -2.538957,-2.305 -0.624821,-0.26719 -3.58925,-2.4007 -1.382541,-2.48047 -0.412084,-0.31903 -0.824169,-0.63806 -1.236254,-0.95709"
       style="fill:#c83737;fill-opacity:1;fill-rule:evenodd;stroke:#000000;stroke-width:0.14449541;stroke-miterlimit:4;stroke-dasharray:none;stroke-opacity:1">
      <title
         id="title2012">Korea, Democratic People's Republic of</title>
    </path>
  </g>
</svg>
