<?xml version="1.0" encoding="UTF-8" standalone="no"?>
<!-- Created with Inkscape (http://www.inkscape.org/) -->

<svg
   xmlns:dc="http://purl.org/dc/elements/1.1/"
   xmlns:cc="http://creativecommons.org/ns#"
   xmlns:rdf="http://www.w3.org/1999/02/22-rdf-syntax-ns#"
   xmlns:svg="http://www.w3.org/2000/svg"
   xmlns="http://www.w3.org/2000/svg"
   xmlns:sodipodi="http://sodipodi.sourceforge.net/DTD/sodipodi-0.dtd"
   xmlns:inkscape="http://www.inkscape.org/namespaces/inkscape"
   width="75.558357mm"
   height="111.58743mm"
   viewBox="0 0 75.558357 111.58743"
   version="1.1"
   id="svg43853"
   inkscape:version="0.92.0 r15299"
   sodipodi:docname="oman.svg">
  <defs
     id="defs43847" />
  <sodipodi:namedview
     id="base"
     pagecolor="#ffffff"
     bordercolor="#666666"
     borderopacity="1.0"
     inkscape:pageopacity="0.0"
     inkscape:pageshadow="2"
     inkscape:zoom="0.35"
     inkscape:cx="142.78752"
     inkscape:cy="210.87387"
     inkscape:document-units="mm"
     inkscape:current-layer="layer1"
     showgrid="false"
     fit-margin-top="0"
     fit-margin-left="0"
     fit-margin-right="0"
     fit-margin-bottom="0"
     inkscape:window-width="1920"
     inkscape:window-height="1017"
     inkscape:window-x="1912"
     inkscape:window-y="-8"
     inkscape:window-maximized="1" />
  <metadata
     id="metadata43850">
    <rdf:RDF>
      <cc:Work
         rdf:about="">
        <dc:format>image/svg+xml</dc:format>
        <dc:type
           rdf:resource="http://purl.org/dc/dcmitype/StillImage" />
        <dc:title></dc:title>
      </cc:Work>
    </rdf:RDF>
  </metadata>
  <g
     inkscape:label="Layer 1"
     inkscape:groupmode="layer"
     id="layer1"
     transform="translate(54.788125,-93.039618)">
    <g
       id="om"
       class="landxx coastxx om"
       style="fill:#c83737;fill-opacity:1;fill-rule:evenodd;stroke:#000000;stroke-width:0.10870087;stroke-miterlimit:4;stroke-dasharray:none;stroke-opacity:1"
       transform="matrix(1.3292939,0,0,1.3292939,-2265.0428,-613.21345)">
      <title
         id="title947">Oman</title>
      <path
         inkscape:connector-curvature="0"
         id="path4692"
         d="m 1712.07,585.07 c 0.67,-0.595 0.9,-1.389 1.22,-2.19 0.19,-0.241 0.4,-0.446 0.65,-0.618 0.27,-0.321 -0.42,-1.322 -0.5,-1.657 -0.37,1.562 -2,2.723 -1.37,4.465"
         style="fill:#c83737;fill-opacity:1;stroke:#000000;stroke-width:0.10870087;stroke-miterlimit:4;stroke-dasharray:none;stroke-opacity:1" />
      <path
         inkscape:connector-curvature="0"
         id="path4696"
         class="landxx om"
         d="m 1688.74,534.02 c 0.21,-0.579 0.47,-1.13 0.79,-1.655 0.68,0.76 1.33,-0.274 1.01,-0.937 0.58,0.316 1.76,2.303 0.29,1.944 0.94,0.655 0.25,4.669 -0.79,4.484 -1.41,-0.25 0.5,-3.744 -1.3,-3.836"
         style="fill:#c83737;fill-opacity:1;fill-rule:evenodd;stroke:#000000;stroke-width:0.10870087;stroke-miterlimit:4;stroke-dasharray:none;stroke-opacity:1" />
      <path
         inkscape:connector-curvature="0"
         id="path4786"
         class="landxx om"
         d="m 1662.82,594.32 c 10.52,-2.42 17.11,-4.956 21.88,-7.546 1.95,-3.719 -0.15,2.139 0.79,-2.003 0.76,-3.383 1.29,-6.76 2.05,-9.984 0.53,-2.231 1.78,-5.035 0.49,-7.159 -0.93,-1.528 -2.81,-2.834 -3.4,-4.522 -0.74,-2.122 3.27,-9.425 1.3,-10.581 0.88,-1.054 2.62,-0.142 3.39,-1.151 0.84,-1.107 -0.51,-0.738 -0.79,-1.296 -0.74,-1.486 -1.32,-4.749 -0.33,-6.256 0.46,-0.704 1.4,0.378 1.25,0.935 -0.46,1.737 1.3,-0.146 1.58,-0.41 0.85,-0.818 0.85,-0.68 1.38,0.474 0.89,1.918 2.05,3.731 3.47,5.303 2.23,2.485 5.36,3.378 8.55,4.018 1.49,0.299 2.76,0.886 4.27,1.056 2.03,0.228 3.14,2.7 4.31,4.08 0.93,1.113 1.57,2.457 2.51,3.522 0.97,1.109 1.48,1.155 2.77,1.668 3.01,1.204 -0.4,5.48 -1,7.247 -1.13,3.338 -4.71,5.08 -5.68,8.656 -0.22,0.844 -0.54,3.285 -1.87,2.883 -1.06,-0.317 -0.86,-2.337 -2.21,-1.496 -1.62,0.978 -1.53,4.493 -1.94,5.938 -0.55,1.889 0.1,3.353 0.57,5.183 0.4,1.496 0.66,2.627 -1.16,2.682 -2.92,0.09 -6.13,0.948 -6.85,4.096 -0.28,1.237 -0.51,2.597 -1.28,3.642 -0.97,1.301 -2.9,1.23 -4.43,1.345 -1.85,0.138 -2.59,0.439 -3.68,1.898 -1.05,1.412 -0.37,1.681 -0.45,3.294 -0.1,1.283 -1.38,2.214 -2.42,2.717 -0.5,0.241 -1,0.565 -1.51,0.164 -0.87,-0.693 -1.6,-0.504 -2.69,-0.504 -3.16,0 -5.92,3.065 -9.11,2.975 -2.06,-0.06 -1.14,-5.109 -3.35,-5.351 0.94,-0.98 -1.35,-4.426 -1.82,-5.289 -1.63,-3.012 -3.56,-7.004 -4.63,-10.26"
         style="fill:#c83737;fill-opacity:1;fill-rule:evenodd;stroke:#000000;stroke-width:0.10870087;stroke-miterlimit:4;stroke-dasharray:none;stroke-opacity:1" />
    </g>
  </g>
</svg>
