<svg xmlns="http://www.w3.org/2000/svg" width="285.575" height="421.748" viewBox="0 0 75.558357 111.58743"><g class="landxx coastxx om" transform="matrix(1.3293 0 0 1.3293 -2210.255 -706.253)" fill="#c83737" fill-rule="evenodd" stroke="#000" stroke-width=".109"><title>Oman</title><path d="M1712.07 585.07c.67-.595.9-1.389 1.22-2.19.19-.241.4-.446.65-.618.27-.321-.42-1.322-.5-1.657-.37 1.562-2 2.723-1.37 4.465"/><path class="landxx om" d="M1688.74 534.02c.21-.579.47-1.13.79-1.655.68.76 1.33-.274 1.01-.937.58.316 1.76 2.303.29 1.944.94.655.25 4.669-.79 4.484-1.41-.25.5-3.744-1.3-3.836M1662.82 594.32c10.52-2.42 17.11-4.956 21.88-7.546 1.95-3.719-.15 2.139.79-2.003.76-3.383 1.29-6.76 2.05-9.984.53-2.231 1.78-5.035.49-7.159-.93-1.528-2.81-2.834-3.4-4.522-.74-2.122 3.27-9.425 1.3-10.581.88-1.054 2.62-.142 3.39-1.151.84-1.107-.51-.738-.79-1.296-.74-1.486-1.32-4.749-.33-6.256.46-.704 1.4.378 1.25.935-.46 1.737 1.3-.146 1.58-.41.85-.818.85-.68 1.38.474.89 1.918 2.05 3.731 3.47 5.303 2.23 2.485 5.36 3.378 8.55 4.018 1.49.299 2.76.886 4.27 1.056 2.03.228 3.14 2.7 4.31 4.08.93 1.113 1.57 2.457 2.51 3.522.97 1.109 1.48 1.155 2.77 1.668 3.01 1.204-.4 5.48-1 7.247-1.13 3.338-4.71 5.08-5.68 8.656-.22.844-.54 3.285-1.87 2.883-1.06-.317-.86-2.337-2.21-1.496-1.62.978-1.53 4.493-1.94 5.938-.55 1.889.1 3.353.57 5.183.4 1.496.66 2.627-1.16 2.682-2.92.09-6.13.948-6.85 4.096-.28 1.237-.51 2.597-1.28 3.642-.97 1.301-2.9 1.23-4.43 1.345-1.85.138-2.59.439-3.68 1.898-1.05 1.412-.37 1.681-.45 3.294-.1 1.283-1.38 2.214-2.42 2.717-.5.241-1 .565-1.51.164-.87-.693-1.6-.504-2.69-.504-3.16 0-5.92 3.065-9.11 2.975-2.06-.06-1.14-5.109-3.35-5.351.94-.98-1.35-4.426-1.82-5.289-1.63-3.012-3.56-7.004-4.63-10.26"/></g></svg>