<?xml version="1.0" encoding="UTF-8" standalone="no"?>
<!-- Created with Inkscape (http://www.inkscape.org/) -->

<svg
   xmlns:dc="http://purl.org/dc/elements/1.1/"
   xmlns:cc="http://creativecommons.org/ns#"
   xmlns:rdf="http://www.w3.org/1999/02/22-rdf-syntax-ns#"
   xmlns:svg="http://www.w3.org/2000/svg"
   xmlns="http://www.w3.org/2000/svg"
   xmlns:sodipodi="http://sodipodi.sourceforge.net/DTD/sodipodi-0.dtd"
   xmlns:inkscape="http://www.inkscape.org/namespaces/inkscape"
   width="152.20419mm"
   height="152.87741mm"
   viewBox="0 0 152.20419 152.87741"
   version="1.1"
   id="svg37588"
   inkscape:version="0.92.0 r15299"
   sodipodi:docname="pakistan.svg">
  <defs
     id="defs37582" />
  <sodipodi:namedview
     id="base"
     pagecolor="#ffffff"
     bordercolor="#666666"
     borderopacity="1.0"
     inkscape:pageopacity="0.0"
     inkscape:pageshadow="2"
     inkscape:zoom="0.35"
     inkscape:cx="287.62997"
     inkscape:cy="288.90231"
     inkscape:document-units="mm"
     inkscape:current-layer="layer1"
     showgrid="false"
     fit-margin-top="0"
     fit-margin-left="0"
     fit-margin-right="0"
     fit-margin-bottom="0"
     inkscape:window-width="1920"
     inkscape:window-height="1017"
     inkscape:window-x="1912"
     inkscape:window-y="-8"
     inkscape:window-maximized="1" />
  <metadata
     id="metadata37585">
    <rdf:RDF>
      <cc:Work
         rdf:about="">
        <dc:format>image/svg+xml</dc:format>
        <dc:type
           rdf:resource="http://purl.org/dc/dcmitype/StillImage" />
        <dc:title></dc:title>
      </cc:Work>
    </rdf:RDF>
  </metadata>
  <g
     inkscape:label="Layer 1"
     inkscape:groupmode="layer"
     id="layer1"
     transform="translate(93.111026,-72.394654)">
    <path
       inkscape:connector-curvature="0"
       id="pk"
       class="landxx pk"
       d="m -93.006587,154.96743 c 4.227141,0.95045 8.095406,3.02414 12.229494,4.26304 4.918387,1.47552 8.879681,-0.0532 13.798069,-0.14487 1.741392,-0.0399 3.216888,0.67128 4.905097,0.91853 1.728078,0.2539 2.937753,-0.97836 4.466434,-1.53267 2.007237,-0.73111 3.89482,0.093 5.902057,0 1.688209,-0.0798 3.283366,-0.95178 4.931678,-1.33062 1.900896,-0.44 5.609635,-0.75772 6.819283,-2.54694 0.717825,-1.06743 -0.996963,-1.647 -0.797565,-2.68118 0.491826,-2.51238 -0.677955,-4.53955 -0.438663,-6.98677 0.252555,-2.48047 0.731091,-1.92083 2.193321,-3.38837 0.903933,-0.90125 1.129911,-2.40469 2.32627,-3.02813 1.236231,-0.65269 1.661604,0.66864 2.871279,0.80821 2.060398,0.23926 3.88153,-0.41608 5.676083,-1.37714 -0.744405,-0.775 -2.087004,-0.82417 -2.392744,-2.00989 1.767973,-0.0266 3.602392,-1.14189 4.546196,-2.58815 1.116597,-1.70948 3.88153,1.1977 3.974584,-0.9531 1.315995,0.61944 1.861026,0.32701 2.671881,1.70149 0.677931,1.16049 1.741369,0.76435 2.685172,0.0665 2.499087,-1.88096 1.874316,-5.35174 0.864039,-7.83486 -0.638064,-1.59382 0.611481,-1.84241 0.957093,-3.21424 0.265869,-1.07142 0.292449,-2.6998 -0.132924,-3.74729 -0.465246,-1.24553 0.850749,-1.46355 1.728078,-1.66027 1.462231,-0.32701 2.233216,0.16481 3.5625222,-0.90259 1.635025,-1.30005 1.581841,-1.36652 0.9172,-2.97363 -0.558298,-1.3426 -1.3425732,-2.81943 -2.6054082,-3.61702 -2.472484,-1.5659 -2.857987,-3.81506 0.61146,-2.86994 2.3528502,0.64337 8.0688262,1.40639 8.7201772,-1.95406 0.186108,-0.99165 0.172818,-1.73474 -0.598191,-2.40603 -0.332322,-0.28712 -1.821132,-1.24952 -1.52868,-1.84241 0.252579,-0.26185 0.571587,-0.37085 0.95709,-0.32699 -0.438663,-0.951783 0.332322,-1.682898 0.864039,-2.348854 0.47856,-0.614136 2.19334904,-2.017876 2.19334904,-2.77158 0,-0.715172 0.239265,-1.350581 0.691221,-1.904887 0.345609,-0.49051 -0.864039,-0.987665 -1.023543,-1.301389 -0.132948,-0.348264 0,-0.606152 0.279138,-0.7723 0.531717,-0.563629 -0.385482,-1.70549 -0.53172,-2.234555 -0.212685,-0.704532 -1.42233704,-2.376773 -1.90089404,-2.984263 -0.704511,-0.873337 -1.834422,-1.460893 -2.671881,-2.185363 -1.143178,-0.983673 2.286399,-5.192218 3.402996,-4.846607 1.51539104,0.474566 1.63504904,-1.19103 2.53895804,-2.104261 0.95709296,-0.966391 2.20663496,-1.587171 3.48276096,-1.99261 2.764905,-0.870685 5.715955,-0.878668 8.5872248,-0.990318 1.44894,-0.05318 3.46945,-0.813533 4.81205,-0.142246 1.31599,0.657997 1.42233,1.024881 2.63201,0.119634 1.6616,-1.23623 5.80901,-3.295314 6.97879,-0.438665 1.18306,-2.122881 4.25374,-0.378835 5.19754,1.062098 0.86404,1.331961 3.25676,0.604837 4.65252,1.904887 0.98367,0.922529 1.63502,1.971337 1.98066,3.278032 0.23927,0.947795 0.14621,2.573522 0.5184,3.387054 0.3988,0.887966 2.43262,2.094963 3.2036,2.778225 0.97038,0.88132 2.2864,-0.5942 3.2036,-0.829476 0.17282,4.123451 9.69056,5.501927 12.98722,4.782786 -0.87733,0.987665 -6.54013,3.646256 -6.08817,4.974225 0.19939,0.603498 -1.60845,2.225233 -0.89062,1.637677 0.38548,-0.3137 -1.03686,0.822855 -1.44894,1.468876 -0.3988,0.648698 -6.24767,1.425015 -7.27124,2.13486 -2.91115,2.01785 -5.48997,0.43068 -8.90626,-0.28846 -2.76494,-0.57826 -6.16793,-2.420641 -8.83981,-0.769672 -1.82113,1.123262 -3.0441,3.655552 -0.74441,4.625962 2.11358,0.88796 -0.81088,2.14016 0.93051,2.69712 0.58488,0.18345 4.50631,0.0134 2.99092,1.51274 -1.38247,1.3572 -3.17702,2.31962 -0.5982,3.86692 2.40604,1.44892 -0.65135,3.44418 0.58491,4.89712 0.73109,0.86803 1.96734,1.34391 2.85796,2.01254 0.41209,0.26453 0.71782,0.63008 0.70453,1.11263 0,1.00626 0.35891,1.11925 1.80785,1.35321 2.8048,0.45195 1.38247,2.9537 3.93471,3.50403 1.44892,0.31105 4.16069,0.59287 5.19753,1.81181 1.27612,1.49945 -2.77823,2.963 -3.58908,3.34052 -2.07372,0.96373 -4.47973,2.87393 -2.35285,4.97288 1.55526,1.53002 -0.55833,5.61762 2.14016,5.67477 -0.26587,1.10199 -2.14016,1.97399 -3.16373,3.2036 -1.28941,1.54596 -4.24045,4.66714 -2.81809,5.83826 2.56553,2.11889 -2.23322,3.30861 -3.27008,3.82438 -1.1432,0.57293 -1.1432,2.46983 -1.31599,3.5625 -0.30574,1.85436 -0.81088,3.76324 -1.64834,5.4541 -1.24952,2.51503 -3.37639,2.85266 -5.14436,4.78147 -0.7178,0.77629 -1.05015,2.15611 -1.14318,3.18099 -0.15953,1.80918 -2.10029,2.90849 -2.73835,4.50498 -1.36918,3.39102 -3.36313,2.30101 -6.59331,3.1624 -1.09002,0.29376 -2.3395598,1.42367 -3.5226298,1.30803 -1.422336,-0.13826 -2.07369,-1.8557 -2.778225,-2.84735 -1.648314,-2.32362 -4.120798,1.203 -4.77214896,2.65591 -1.143201,2.57617 -3.00420104,4.78546 -4.04105804,7.31778 -1.276123,3.11852 0.478533,4.86255 3.45615704,5.61094 2.77822296,0.69656 4.14740196,0.84146 3.88155396,4.24178 -0.146238,1.94344 -0.518428,6.29155 2.818095,6.32743 0.970376,0 2.073686,-0.68857 2.924436,0.0798 0.8507498,0.76833 0.15953,2.86064 0.9172198,3.93606 1.54197,2.2106 3.24347,3.86424 3.9613,6.59062 0.27914,1.04482 0.87733,0.73243 -0.14622,1.4609 -0.81087,0.58091 0.5317,2.51634 1.20966,2.65459 -1.80785,1.36519 -3.69545,3.07467 -5.22413,0.51843 -0.7045398,-1.1884 -1.7945598,-0.29909 -2.6851798,0.0665 -0.45195,0.11963 -0.903928,0.27648 -1.342592,0.44796 -0.717801,0.37219 -0.265848,1.27347 -1.036833,1.60579 -2.578851,1.09002 -5.47670796,-1.39444 -8.17517,-1.24689 -1.448916,0.0798 -3.363103,0.33366 -4.705699,-0.33232 0.132924,1.05944 1.023567,4.01978 -0.890619,4.01978 -1.6217352,0 -4.1075322,0.0399 -3.9878982,2.29704 -0.132924,-1.30803 -0.265848,-1.27612 -0.478534,0.093 -0.638063,-0.55564 -1.063437,-1.31865 -1.528683,-2.00989 0.345612,0.60084 0.438666,1.24024 0.279138,1.91287 -0.704511,-0.4347 -1.302702,-0.97703 -1.821132,-1.62707 0.438666,1.75201 -0.943803,0.76435 -2.007238,1.33993 0,-0.51045 0,-1.02223 0,-1.53134 -1.156467,0.83612 -2.645277,-0.74306 -1.329285,-1.53002 -1.555284,0.29377 -3.761896,-1.98066 -2.113581,-3.2541 -1.821133,-1.04616 -0.83746,-4.061 -2.33956,-4.81472 -0.850749,-0.42005 -5.117785,-0.6035 -4.998127,-1.96735 0.239268,-2.7596 -0.385506,-3.57448 -1.754683,-5.75716 -1.010253,-1.61908 -4.054348,-3.2847 -4.586065,-0.38151 1.648338,-0.0798 2.738353,-1.54596 3.628972,0.66997 -1.754658,-1.13256 -3.722026,-0.4347 -5.529868,0.13558 -1.887583,0.59419 -3.695425,-0.0665 -5.476685,0.47588 -0.970383,0.29245 -7.763063,0.19939 -6.021694,2.06838 -0.784275,0.23661 -1.302703,-0.13692 -1.342599,-0.95709 -2.618695,1.35588 -4.705699,-2.5642 -6.128036,-1.91419 0.225978,0.32171 0.438663,0.64074 0.664641,0.95843 -1.315992,0.26984 -6.726229,-1.46753 -5.35705,1.72277 -1.369179,-0.70054 -11.724381,-1.46756 -10.820448,1.14717 -0.691246,-0.0266 -1.236254,-1.04082 -1.794552,-1.36253 -0.983673,-0.55696 -0.983673,0.75638 -1.581865,1.10598 -2.406009,1.40107 -4.160691,-0.1901 -4.080928,-2.31563 0.132924,-2.86463 -0.571588,-13.22115 4.971572,-11.97428 -1.621759,-4.27235 8.21504,-1.95805 8.693573,-4.30292 0.212688,-1.02357 0.58488,-4.92238 0.146214,-5.26799 -1.036833,-0.83215 -2.432589,-0.22865 -3.615659,-0.30442 -1.701498,-0.10635 -1.448941,-2.9085 -1.488811,-4.05701 -0.132948,-2.2106 -0.77101,-5.05131 -1.475521,-7.1662 -0.319031,-0.97837 -2.033819,-1.03951 -2.897858,-1.57389 -1.435652,-0.88402 -2.911172,-1.41839 -4.426563,-2.12159 -3.363103,-1.55793 -4.74557,-3.83633 -6.447068,-6.94556 -1.821132,-3.29797 -4.71899,-5.92199 -7.337711,-8.558"
       style="fill:#c83737;fill-opacity:1;fill-rule:evenodd;stroke:#000000;stroke-width:0.14449541;stroke-miterlimit:4;stroke-dasharray:none;stroke-opacity:1">
      <title
         id="title70">Pakistan</title>
    </path>
  </g>
</svg>
