<svg xmlns="http://www.w3.org/2000/svg" width="82.993" height="61.363" viewBox="0 0 21.958435 16.235674"><g transform="matrix(1.3293 0 0 1.3293 -2025.59 -634.58)" fill="#c83737" stroke="#000" stroke-width=".109"><title>Palestine, State of</title><g class="landxx ps" fill-rule="evenodd"><path d="M1523.86 488.52c.69-.685 1.34-1.438 1.8-2.304.86.544-.97 2.869-1.37 3.288a5.89 5.89 0 0 1-.43-.984M1528.76 481.03c.36-.857.49-3.264 1.96-2.976.5.1 1.99.973 2.18 1.467.54 1.435.4 3.45.35 5.01 0 1.072-.1 2.228-.61 2.492l-2.1.981c-.99.465-1.98.498-1.56-1.061.12-.413 1.59-2.587 1.8-2.516-.44-.149-1.57.283-1.83-.478-.47-1.344 0-2.355-.19-2.919"/></g></g></svg>