<svg xmlns="http://www.w3.org/2000/svg" width="370.654" height="623.467" viewBox="0 0 98.068832 164.95895"><g fill="#c83737" fill-rule="evenodd" stroke="#000" stroke-width=".144"><path d="M76.79 78.386c.253.236.452.203.572-.094-.2.027-.386.067-.572.094M.701 133.219c.638-1.04.638-2.266-.385-3.063A3.065 3.065 0 0 0 .7 133.22M16.68 142.79c.132-1.058-.253-1.282-1.144-.67.36.26.745.484 1.143.67M31.235 164.896c.598-.338 4.068-2.215 3.908-2.647-.598-1.593-1.608-.093-2.419.48-.997.714-2.632.743-1.489 2.167M37.456 149.689c-.226.528-.2 1.038.133 1.531.465-.55.426-1.06-.133-1.531M45.3 155.618c2.618-1.308-1.476-2.577-2.74-2.344-1.355.255-1.169 1.991-.85 1.819.877-.478 3.177-.7 3.59.525M50.762 147.668c.187 1.157 1.29 1.808 2.367 1.311 1.116-.505 1.036-1.707 1.741-2.555-.984.08-1.582-.68-2.486-.861-.944-.189-1.635.964-2.486 1.148.253.351.545.67.864.957M49.991 153.132c.28.742.758.965 1.436.67a4.221 4.221 0 0 0-1.436-.67M60.04 139.254c3.537-1.396-2.87-2.276 0 0M66.169 118.384c1.648-.08.957-1.598.292-2.393-.93.46-1.515 1.837-.292 2.393M67.512 113.213c.903-.053 1.223-.376.957-.957-.745-.066-.997.246-.957.957M68.854 105.184l.758-.957c-.89.013-.771.26-.758.957M78.226 118.583c.452-.998-.386-2.55-1.529-1.53a2.21 2.21 0 0 0 1.529 1.53M86.547 161.068c.306.174.625.206.97.093-.319-.305-.65-.337-.97-.093M90.003 143.747c.306-1.032 0-2.052-.2-3.063-1.66.333-.225 1.986.2 3.063M2.522 124.22c-.518.92-.332 1.98-.571 2.965 2.605-3.229 6.3-4.292 8.614-7.944.85-1.357 8.175-6.136 5.543-8.326 1.555.384.492-.686.585-1.629.133-1.148 1.967-1.306 2.765-1.413 1.369-.18 1.635-.715 1.86-1.976.32-1.759 1.596-1.322 2.739-2.066 2.406-1.563.638-3.097-.372-4.9-1.21-2.164.744-5.124-1.064-6.97-1.17 1.016.253 4.89-1.435 3.352.412.8 1.528 3.043 1.621 3.924-.983-.548-2.126-1.14-2.485-2.298 0 1.213.611 2.186.97 3.294.372 1.112-1.024 4.55-1.635 2.162-.133.742-.492.987-1.17 1.17-.518.141-.24 1.622-.372 1.989-.186.462-1.117-.139-1.33.287-.332.675.546 1.143 0 1.913-.252-2.253-1.209.353-1.541.96-.559 1.014-1.104 2.043-1.875 2.91-1.236 1.371-1.887 3.244-3.336 4.442-.572.476-1.236.255-1.808.684-.665.49-.691 1.354-1.382 1.751-1.928 1.133-3.576 3.622-4.32 5.719M25.971 92.064c.28-1.013-.133-1.203-1.05-.574.346.191.691.383 1.05.574M26.636 81.922a5.627 5.627 0 0 0-.957-.766c-1.689 3.191 2.485 3.734 4.692 3.734 0-.588-.279-1.381-.81-1.675-1.09-.608-1.782-.343-2.925-1.293M25.586 63.737c.372.924 1.329 1.491 2.113 2.01 0-1.183-1.023-1.964-2.113-2.01M27.021 85.75c-.412.093-.837.191-1.25.287.227 1.186 1.65 1.284 1.543 2.584.864-.783 0-2.082-.293-2.871M28.55 101.635c-.133-1.672-2.3-.12-2.286.957 1.289.516 1.063-1.131 2.286-.957M28.364 68.137c.2.55 2.326 2.249 2.831 2.646 2.14 1.694 1.622 3.9 3.177 5.682.678.781 5.304 9.222 6.328 4.305.226-1.042.864-1.924 1.063-2.967.2-1.034-.77-1.955-.77-2.99 0-2.473-1.25-4.011-2.925-5.678-1.343-1.352-8.428-2.656-9.704-.998M29.893 87.186c0-.68-.133-1.35-.293-2.01-.372.741-.279 1.411.293 2.01M19.178 37.417c-.425 2.117 1.277 1.849 1.476 3.05.332 1.838.465 4.202 1.396 5.823.89 1.56 1.356 2.93 1.621 4.674.173 1.056 1.861 3.385 1.635 1 1.782.67.758 4.145 2.832 4.765 3.044.914.638-3 .704-4.286.771.282 7.086 2.354 4.64 4.102-.944.67-1.768 1.482-2.606 2.261-1.369 1.249 0 3.714.16 5.314.81-.093 1.13-.581.77-1.342 1.729.027 2.513.984 2.207 2.682.559-1.99 1.808-.244 1.436.765.984-.162 2.42.444 3.23-.368.705-.694.89-1.752 1.688-2.349.24-.185 1.675-1.29 2.034-1.009 1.197.963 2.792 1.44 3.908 2.493 1.463 1.39 4.24 3.288 4.64 5.347.133.69 1.342 1.697 1.621.487 0-.653-.2-1.263-.531-1.833-.133-.32-1.556-2.248-.798-2.005-1.529-.96-1.13-3.021-2.207-4.305 2.06-.327 4.002 2.161 4.999 3.582 1.342 1.922 3.642 2.037 4.785 4.405.306.622-.385 1.827.518 2.022.984.212 1.808.912 2.712 1.345.718.347 1.356 1.35 2.18.915.598-.315 1.489-1.23 2.233-1.073-.16 1.175-2.313 1.7-1.382 3.068.173.248 1.967 2.812 2.433 1.546.744-1.966 0-8.789-3.736-6.24-.412-.809 0-1.35-.173-2.14-.252-1-1.688-2.439-2.552-2.933-2.273-1.311 2.526-2.592 3.775-1.915-.212-1.409-2.499-1.975-3.655-2.08-1.954-.18-2.287-1.84-3.908-2.13-.412 1.331 2.087 3.27 0 4.019-1.529.548-1.968-3.113-2.646-4.254-1.369-2.326-7.125-4.404-7.018-.053a10.703 10.703 0 0 0-.758-1.148c-1.29 1.196 1.343 1.946.598 2.784-1.25 1.42-3.802-.509-4.719-1.443-.81-.839-4.333-6.834-1.728-6.988-2.353-1.645-4.799-6.377-3.722-9.093.731-1.851-.2-3.538.465-5.168.825-2.018 3.523-2.152 4.892-3.637l-.478 1.629c1.156-1.311.784-2.85 1.329-4.402.81-2.366 1.9-4.905 1.449-7.466-1.33.628-.718-1.209-1.157-1.82-1.196-1.69-2.578-1.744-3.31-4.07-.757-2.385-.69-4.233.306-6.476.519-1.163-.997-4.352-2.047-2.654-.412.674-.478 2.16-1.622 1.953-.69-.133-2.193-.922-2.804-.141-.373-.8-1.13-1.363-1.861-1.81-1.45-.898-3.324-2.245-5.052-1.676-.73.246-1.542-.157-2.273-.222-.691-.066-.16.932-.81.932-1.835 0-.679 1.017-.719 2.106-.133 1.946-.678 4.341-.957 6.317-.505 3.594 2.207 6.77 1.45 10.593-.599 3.1.677 5.413 1.09 8.298.518 3.578-4.932-1.193-5.318-2.717-1.21.605-1.09 1.91-.665 2.969M29.135.276a2.885 2.885 0 0 0 1.808 1.245c.279-1.084-.918-1.828-1.808-1.245M29.893 6.218c.345-.026.69-.066 1.05-.093-.545-.243-.798-.424-1.05.093M35.157 6.497c.638-.473.93-1.243.678-2.01-.599.55-.825 1.22-.678 2.01"/><path d="M41.378 50.43c.305 1.176.917 3.429 2.206 3.923.559-1.435.16-6.02-2.206-3.922M46.363 61.916c-.293-1.165-1.835-1.973-2.872-2.299.652 1.09 1.835 1.649 2.872 2.299M43.491 68.336c0 2.148 3.31 3.758 3.403.687 0-1.563-2.898-2.412-3.403-.687M46.07 53.687c.28-.922 0-1.177-.957-.765l.957.765M45.977 87.571c3.097.55 2.353 2.963 2.3 5.342 0 1.726.239 2.953-.226 4.68-.479 1.8.571 3.514 0 5.291 1.781.378 2.91-2.68 4.852-2.68 1.276 0 3.629-1.843 3.256-3.1-.319-1.101 3.722-1.512 3.177-3.08-.73-2.08.758-4.948-2.578-2.528.81-.894-.412-2.107-1.396-1.889-.904.203-1.502 1.347-2.273.519-.89-.936-1.516-2.006-2.725-2.576-1.144-.536-2.606-.762-3.363-1.892a3.738 3.738 0 0 0-.958 1.913M46.735 79.143c-.133 1.728-.851 3.197.478 4.689.226-1.968.386-3.939.798-5.862.24-1.088-2.22-.4-1.276 1.173M46.841 54.166c.32-.027.638-.067.957-.093a1.798 1.798 0 0 0-.957.093M49.327 79.143c.824.12.73-.194-.293-.957.133.32.2.638.293.957M50.762 140.69c-.491 2.705 3.217 3.845 3.497.683.132-1.151.598-4.334 1.475-4.685.705-.277 1.21-4.471 2.805-3.238 1.156.888.678 2.797 1.595 3.794.253-1.684.85-.865 1.343 0 .372-1.038 0-2.474 1.342-2.967.572.691.465 1.525-.2 2.106 1.317.053 2.14 1.676 3.457 1.435-.399-.58-.89-1.366-.864-2.105 0-.42.944-.372 1.05-.766.292-1.035-.864-.794.479-1.798.81-.617 1.621.467 2.246.857 2.114 1.324 4.015 1.69 4.732 4.489.373 1.522-1.688 2.947-1.847 4.573-.16 1.627.717 3.865 1.063 5.471.519 2.477 2.685 3.963 4.799 5.047.97.499 4.426 2.741 5.477 1.816.837-.74.385-2.49 1.98-2.407.146 0-.319 7.392 1.941 5.834 1.569-1.082 2.938-4.801 2.698-6.614-.345-2.55-2.286-3.619-3.27-5.677-.598-1.242 2.42-8.199 3.496-7.683.838.396 2.659 4.335 3.031 5.293.346.934.146 1.908.226 2.873.133 1.41 1.263 2.349 1.476 3.717 0-2.223.997-5.105-.678-6.987.824-.386 1.489.106 1.82.861-1.421-1.262.679-2.528 1.37-3.474 1.343-1.828.399-4.5 0-6.455-.292-1.606-2.393-1.613-1.555-3.357.478-1.01.518-3.612-1.29-2.793 3.071-2.64-2.565-3.5-2.485-4.882 0-.808 1.608-1.185 1.914-1.978.558-1.421-1.024-1.992-1.436-3.094-.2-.52.372-3.002-.585-2.505-1.223.626-1.449.183-2.1-.757-.771-1.114 0-1.756-1.688-2.275-1.875-.573-2.22-2.267-3.855-2.98-.997 2.16.744 5.001 1.396 7.042.146.467.837 2.187 0 2.433-1.117.319-2.632.04-3.111-1.149-.904 2.82 0 3.047-2.579 1.21-2.499-1.728-.332 5.088-2.393 5.371-1.316.182-1.581-1.414-2.804-.865-1.263.573-.918 2.902-1.316 3.988-.479 1.305-2.38.723-3.324 1.494-.558.448-1.502 1.507-2.26 1.54-.784.04.971-1.217.811-1.11.997-.66 1.197-1.027.944-2.284-.186-.976-1.528-5.672-3.15-3.406-.253-.783-.731-1.777-1.728-1.724.558 2.633-2.739 1.623-3.51 3.053-.917 1.688-.132 3.241-2.233 3.934-2.127.7-5.277.093-6.287 2.786-.426 1.156-.16 2.498-.293 3.7-.173 1.59-.997 3.178-1.648 4.615M51.906 79.143a5.5 5.5 0 0 0-.957.766c.81.647 1.648 1.275 2.392 2.01.89-1.255.133-2.784-1.435-2.776M55.827 114.463c.904.655 2.22.636 2.978 1.53.638.753.305 1.955 1.063 2.634 1.05.937 2.446-.182 2.964-1.114.984-1.734-.824-2.916-1.276-4.432-.864-2.79.213-6.899 1.09-9.618.665-2.071 2.872-4.852 0-6.369-.943-.5-2.166-.658-3.177-.206-1.714.778-.997 2.276-1.422 3.694-.28.915-1.183 1.21-.85 2.298.371 1.21.89 2.531.411 3.798-.73 1.91-4.253.689-4.2 2.82 0 1.785 1.435 3.574 2.432 4.965"/><path d="M54.391 103.27c.851-.388 2.872-3.035 1.05-3.48-1.369-.336-1.714 2.767-1.05 3.48M60.134 76.95c-1.103-1.781-2.366-4.205-4.4-5.073-.997 1.683 3.642 3.972 4.4 5.073M59.084 84.886c0 .35-.133.7-.133 1.051 1.343-.92 2.353-4.546 3.975-2.652.664.769 1.395 1.481 1.98 2.31.745 1.048 2.273 1.103 3.044 2.16 1.476-2.852-2.42-4.587-3.735-6.147-.585-.695-1.489-1.464-2.18-2.02-.412-.333-2.685-1.412-3.177-1.402.345.913 0 3.33.465 3.867.984 1.327-.186 1.395-.279 2.833M63.39 79.143c.36.7.838 1.307 1.436 1.819-.199-1.292-.558-2.874-1.82-3.541-.293.668-.16 1.242.385 1.722M63.59 107.95c.133 2.001-.492 3.956-.678 5.933 2.739.723 2.154-5.785 3.257-7.074 1.37-1.6 2.818-2.896 3.057-5.12.28-2.65-.558-5.26-.478-7.905-1.33.273-1.702 4.421-1.928 5.43-.678 3.06-2.605 5.668-3.23 8.735M66.076 70.915c.16-.654-.16-.783-.957-.383.319.133.638.255.957.383M67.512 67.472c2.406-1.69 2.047-5.493-1.157-6.125-.944 1.964-.306 4.777 1.157 6.125M68.083 71.487c-.306-.257-.651-.32-1.05-.193.346.066.705.133 1.05.193M68.362 111.206c-.212 3.726 6.434-.51 7.285-.193-.532-1.92-.598-5.704-4.041-4.763-1.21.33-4.905 3.898-3.244 4.956M69.612 79.143c.758 2.037 1.622 3.777 3.35 5.169.957.775 3.895 3.876 5.078 3.35-.412.949-.36 2.206-1.542 2.584a6.022 6.022 0 0 1 1.435 1.722c-1.023-1.122-1.608.305-2.446.789-1.29.748-3.31-1.33-3.868-2.319-.957 1.18.85 6.849 2.3 7.464-.253-2.57 2.765.747 2.831 2.058.173 3.34-.425 5.91 3.11 7.513-.159-1.009-.677-1.929-.677-2.965.558.623 2.512.675 2.698-.386.133-.589-1.329-3.366-1.688-3.96-.824-1.37-1.063-1.19-1.196-3.023-.133-1.187.172-3.053-.864-3.924.797-.206 3.044 1.986 3.057 1.962.877-1.029 4.174.282 5.078.814-.731-.85-1.223-2.043-2.393-2.393 1.502-1.152-1.515-4.55-1.648-5.92-.146-1.442.492-2.724-.293-3.953-.505-.784 1.396-.555-.133-1.474-.824-.498-1.887-.133-1.807-1.437.133-1.677-1.356-1.736-2.553-1.999-1.302-.285-1.728-.306-3.084.134-1.581.503-3.31-.894-4.745.194"/><path d="M72.962 91.107c1.688.247.452-3.692-1.622-2.488.452.868.691 1.962 1.622 2.488M81.669 107.95c.358.31.717.63 1.063.956-.2-.908-.638-2.427-1.914-2.01.252.378.532.729.85 1.053M85.497 107.95c.758.53.85 1.34.2 2.009 1.422.21 1.09-1.825.93-2.61-.186-.82-.705-1.547-.838-2.367-.133-.747.373-1.348.133-2.105-1.887.805-.385 2.408-1.435 3.636.757.12 1.262.627 1.05 1.436M89.618 113.027c.651-.68.2-1.587-.479-2.011-.133.735 0 1.405.479 2.011M90.19 107.95c-.48.642-.891 3.352.624 3.003 1.555-.353.399-2.812-.625-3.004M72.204 101.25c0-.351-.133-.702-.2-1.053 1.077.16 1.157.51.2 1.052M77.933 91.971c.16.399.24.812.2 1.246-.2-.395-.266-.81-.2-1.246M64.44 96.092c-.704-3.74 4.388-1.817 0 0"/></g></svg>