<?xml version="1.0" encoding="UTF-8" standalone="no"?>
<!-- Created with Inkscape (http://www.inkscape.org/) -->

<svg
   xmlns:dc="http://purl.org/dc/elements/1.1/"
   xmlns:cc="http://creativecommons.org/ns#"
   xmlns:rdf="http://www.w3.org/1999/02/22-rdf-syntax-ns#"
   xmlns:svg="http://www.w3.org/2000/svg"
   xmlns="http://www.w3.org/2000/svg"
   xmlns:sodipodi="http://sodipodi.sourceforge.net/DTD/sodipodi-0.dtd"
   xmlns:inkscape="http://www.inkscape.org/namespaces/inkscape"
   width="98.068832mm"
   height="164.95895mm"
   viewBox="0 0 98.068832 164.95895"
   version="1.1"
   id="svg16925"
   inkscape:version="0.92.0 r15299"
   sodipodi:docname="philippines.svg">
  <defs
     id="defs16919" />
  <sodipodi:namedview
     id="base"
     pagecolor="#ffffff"
     bordercolor="#666666"
     borderopacity="1.0"
     inkscape:pageopacity="0.0"
     inkscape:pageshadow="2"
     inkscape:zoom="0.98994949"
     inkscape:cx="170.1277"
     inkscape:cy="497.71292"
     inkscape:document-units="mm"
     inkscape:current-layer="layer1"
     showgrid="false"
     fit-margin-top="0"
     fit-margin-left="0"
     fit-margin-right="0"
     fit-margin-bottom="0"
     inkscape:window-width="1920"
     inkscape:window-height="1017"
     inkscape:window-x="1912"
     inkscape:window-y="-8"
     inkscape:window-maximized="1" />
  <metadata
     id="metadata16922">
    <rdf:RDF>
      <cc:Work
         rdf:about="">
        <dc:format>image/svg+xml</dc:format>
        <dc:type
           rdf:resource="http://purl.org/dc/dcmitype/StillImage" />
        <dc:title></dc:title>
      </cc:Work>
    </rdf:RDF>
  </metadata>
  <g
     inkscape:label="Layer 1"
     inkscape:groupmode="layer"
     id="layer1"
     transform="translate(66.043359,-72.691169)">
    <g
       id="g17705">
      <path
         inkscape:connector-curvature="0"
         id="path5902"
         d="m 10.746691,151.07676 c 0.252566,0.23662 0.45196,0.20339 0.571596,-0.0931 -0.199394,0.0266 -0.385495,0.0665 -0.571596,0.0931"
         style="fill:#c83737;fill-opacity:1;fill-rule:evenodd;stroke:#000000;stroke-width:0.14449541;stroke-miterlimit:4;stroke-dasharray:none;stroke-opacity:1" />
      <path
         inkscape:connector-curvature="0"
         id="path5800"
         d="m -65.342092,205.91014 c 0.638061,-1.04084 0.638061,-2.26645 -0.385495,-3.0627 -0.425374,1.02755 -0.292445,2.17473 0.385495,3.0627"
         style="fill:#c83737;fill-opacity:1;fill-rule:evenodd;stroke:#000000;stroke-width:0.14449541;stroke-miterlimit:4;stroke-dasharray:none;stroke-opacity:1" />
      <path
         inkscape:connector-curvature="0"
         id="path5806"
         d="m -49.363979,215.48105 c 0.132929,-1.05812 -0.252566,-1.28144 -1.143193,-0.66996 0.358909,0.26054 0.744405,0.48386 1.143193,0.66996"
         style="fill:#c83737;fill-opacity:1;fill-rule:evenodd;stroke:#000000;stroke-width:0.14449541;stroke-miterlimit:4;stroke-dasharray:none;stroke-opacity:1" />
      <path
         inkscape:connector-curvature="0"
         id="path5832"
         d="m -34.808211,237.58721 c 0.598182,-0.33764 4.067639,-2.2146 3.908124,-2.64662 -0.598182,-1.59383 -1.608445,-0.093 -2.419315,0.47987 -0.99697,0.71383 -2.632002,0.74308 -1.488809,2.16675"
         style="fill:#c83737;fill-opacity:1;fill-rule:evenodd;stroke:#000000;stroke-width:0.14449541;stroke-miterlimit:4;stroke-dasharray:none;stroke-opacity:1" />
      <path
         inkscape:connector-curvature="0"
         id="path5838"
         d="m -28.587115,222.38009 c -0.22598,0.52773 -0.199395,1.03818 0.132929,1.53134 0.465253,-0.55032 0.425374,-1.06077 -0.132929,-1.53134"
         style="fill:#c83737;fill-opacity:1;fill-rule:evenodd;stroke:#000000;stroke-width:0.14449541;stroke-miterlimit:4;stroke-dasharray:none;stroke-opacity:1" />
      <path
         inkscape:connector-curvature="0"
         id="path5840"
         d="m -20.744281,228.30874 c 2.618709,-1.30803 -1.475517,-2.57617 -2.738346,-2.34355 -1.35588,0.25523 -1.169779,1.99129 -0.850748,1.81848 0.877334,-0.47722 3.177012,-0.69921 3.589094,0.52507"
         style="fill:#c83737;fill-opacity:1;fill-rule:evenodd;stroke:#000000;stroke-width:0.14449541;stroke-miterlimit:4;stroke-dasharray:none;stroke-opacity:1" />
      <path
         inkscape:connector-curvature="0"
         id="path5858"
         d="m -15.280884,220.35956 c 0.186102,1.15649 1.289416,1.80784 2.366144,1.31068 1.116606,-0.50513 1.036849,-1.70681 1.741375,-2.5549 -0.983678,0.0798 -1.58186,-0.6806 -2.48578,-0.86138 -0.943799,-0.18876 -1.635031,0.96374 -2.48578,1.14851 0.252566,0.35093 0.545011,0.66996 0.864041,0.95709"
         style="fill:#c83737;fill-opacity:1;fill-rule:evenodd;stroke:#000000;stroke-width:0.14449541;stroke-miterlimit:4;stroke-dasharray:none;stroke-opacity:1" />
      <path
         inkscape:connector-curvature="0"
         id="path5860"
         d="m -16.051874,225.82296 c 0.279152,0.74175 0.757698,0.96507 1.435637,0.66996 -0.438667,-0.31504 -0.917212,-0.53836 -1.435637,-0.66996"
         style="fill:#c83737;fill-opacity:1;fill-rule:evenodd;stroke:#000000;stroke-width:0.14449541;stroke-miterlimit:4;stroke-dasharray:none;stroke-opacity:1" />
      <path
         inkscape:connector-curvature="0"
         id="path5874"
         d="m -6.0024121,211.94513 c 3.5359217,-1.39576 -2.8712749,-2.27575 0,0"
         style="fill:#c83737;fill-opacity:1;fill-rule:evenodd;stroke:#000000;stroke-width:0.14449541;stroke-miterlimit:4;stroke-dasharray:none;stroke-opacity:1" />
      <path
         inkscape:connector-curvature="0"
         id="path5882"
         d="m 0.12563275,191.07522 c 1.64832445,-0.0798 0.95709165,-1.59781 0.29244466,-2.39273 -0.93050573,0.45993 -1.51539501,1.83708 -0.29244466,2.39273"
         style="fill:#c83737;fill-opacity:1;fill-rule:evenodd;stroke:#000000;stroke-width:0.14449541;stroke-miterlimit:4;stroke-dasharray:none;stroke-opacity:1" />
      <path
         inkscape:connector-curvature="0"
         id="path5888"
         d="m 1.4682196,185.90426 c 0.9039198,-0.0532 1.2229504,-0.37619 0.9570916,-0.95709 -0.7444046,-0.0665 -0.9969704,0.24592 -0.9570916,0.95709"
         style="fill:#c83737;fill-opacity:1;fill-rule:evenodd;stroke:#000000;stroke-width:0.14449541;stroke-miterlimit:4;stroke-dasharray:none;stroke-opacity:1" />
      <path
         inkscape:connector-curvature="0"
         id="path5892"
         d="m 2.8108064,177.87533 c 0.2525659,-0.31903 0.5051317,-0.63673 0.7576976,-0.95709 -0.890627,0.0133 -0.7709905,0.25921 -0.7576976,0.95709"
         style="fill:#c83737;fill-opacity:1;fill-rule:evenodd;stroke:#000000;stroke-width:0.14449541;stroke-miterlimit:4;stroke-dasharray:none;stroke-opacity:1" />
      <path
         inkscape:connector-curvature="0"
         id="path5900"
         d="m 12.182328,191.27461 c 0.45196,-0.9983 -0.385495,-2.54959 -1.528688,-1.53135 0.212687,0.73909 0.784284,1.32797 1.528688,1.53135"
         style="fill:#c83737;fill-opacity:1;fill-rule:evenodd;stroke:#000000;stroke-width:0.14449541;stroke-miterlimit:4;stroke-dasharray:none;stroke-opacity:1" />
      <path
         inkscape:connector-curvature="0"
         id="path5908"
         d="m 20.503708,233.75884 c 0.305738,0.17414 0.624768,0.20604 0.970385,0.0931 -0.319031,-0.3044 -0.651354,-0.33631 -0.970385,-0.0931"
         style="fill:#c83737;fill-opacity:1;fill-rule:evenodd;stroke:#000000;stroke-width:0.14449541;stroke-miterlimit:4;stroke-dasharray:none;stroke-opacity:1" />
      <path
         inkscape:connector-curvature="0"
         id="path5910"
         d="m 23.959872,216.43814 c 0.305738,-1.03153 0,-2.05243 -0.199394,-3.06269 -1.661617,0.33232 -0.22598,1.98597 0.199394,3.06269"
         style="fill:#c83737;fill-opacity:1;fill-rule:evenodd;stroke:#000000;stroke-width:0.14449541;stroke-miterlimit:4;stroke-dasharray:none;stroke-opacity:1" />
      <path
         inkscape:connector-curvature="0"
         id="path5802"
         d="m -63.520959,196.91082 c -0.518425,0.9212 -0.332324,1.98064 -0.571597,2.96565 2.605416,-3.22885 6.300854,-4.29229 8.613825,-7.94386 0.850748,-1.35721 8.175157,-6.13602 5.543155,-8.3267 1.555274,0.38417 0.491839,-0.68591 0.58489,-1.62838 0.132929,-1.14851 1.967355,-1.3067 2.764931,-1.41304 1.369173,-0.18078 1.635032,-0.71516 1.861012,-1.97666 0.31903,-1.75866 1.595152,-1.32132 2.738345,-2.06572 2.406022,-1.56325 0.638061,-3.09726 -0.372202,-4.89978 -1.209658,-2.16409 0.744404,-5.12443 -1.063435,-6.96949 -1.169779,1.01558 0.252565,4.88914 -1.435638,3.35115 0.412081,0.80024 1.528688,3.04276 1.621739,3.92408 -0.983678,-0.54767 -2.126871,-1.13921 -2.48578,-2.29835 0,1.21364 0.611475,2.18669 0.970385,3.29399 0.372202,1.11262 -1.023557,4.55017 -1.635032,2.16276 -0.132929,0.74175 -0.491839,0.98634 -1.169778,1.16978 -0.518425,0.1409 -0.239273,1.62174 -0.372203,1.98862 -0.186101,0.4626 -1.116607,-0.13824 -1.329294,0.28713 -0.332323,0.67528 0.545011,1.14319 0,1.91285 -0.252565,-2.25315 -1.209657,0.3536 -1.541981,0.96108 -0.558303,1.01292 -1.103313,2.0418 -1.874304,2.9085 -1.236243,1.37183 -1.887597,3.2448 -3.336528,4.4425 -0.571596,0.47589 -1.236243,0.25522 -1.807839,0.68458 -0.664647,0.49051 -0.691233,1.35323 -1.382466,1.75068 -1.927476,1.13256 -3.575801,3.62233 -4.320205,5.71863"
         style="fill:#c83737;fill-opacity:1;fill-rule:evenodd;stroke:#000000;stroke-width:0.14449541;stroke-miterlimit:4;stroke-dasharray:none;stroke-opacity:1" />
      <path
         inkscape:connector-curvature="0"
         id="path5812"
         d="m -40.072215,164.7552 c 0.279152,-1.01292 -0.132929,-1.20301 -1.050142,-0.57426 0.345616,0.19142 0.691233,0.38284 1.050142,0.57426"
         style="fill:#c83737;fill-opacity:1;fill-rule:evenodd;stroke:#000000;stroke-width:0.14449541;stroke-miterlimit:4;stroke-dasharray:none;stroke-opacity:1" />
      <path
         inkscape:connector-curvature="0"
         id="path5814"
         d="m -39.407568,154.61268 c -0.292444,-0.29111 -0.611475,-0.54633 -0.957091,-0.76567 -1.688204,3.19164 2.485779,3.73399 4.692407,3.73399 0,-0.58755 -0.279152,-1.38114 -0.810869,-1.67491 -1.090021,-0.60749 -1.781254,-0.34296 -2.924447,-1.29341"
         style="fill:#c83737;fill-opacity:1;fill-rule:evenodd;stroke:#000000;stroke-width:0.14449541;stroke-miterlimit:4;stroke-dasharray:none;stroke-opacity:1" />
      <path
         inkscape:connector-curvature="0"
         id="path5816"
         d="m -40.45771,136.42794 c 0.372202,0.92386 1.329294,1.49147 2.113577,2.0099 0,-1.18307 -1.023556,-1.96337 -2.113577,-2.0099"
         style="fill:#c83737;fill-opacity:1;fill-rule:evenodd;stroke:#000000;stroke-width:0.14449541;stroke-miterlimit:4;stroke-dasharray:none;stroke-opacity:1" />
      <path
         inkscape:connector-curvature="0"
         id="path5818"
         d="m -39.022073,158.44105 c -0.412081,0.0931 -0.837455,0.19142 -1.249536,0.28713 0.22598,1.18573 1.648325,1.2841 1.541981,2.58415 0.864041,-0.78296 0,-2.08168 -0.292445,-2.87128"
         style="fill:#c83737;fill-opacity:1;fill-rule:evenodd;stroke:#000000;stroke-width:0.14449541;stroke-miterlimit:4;stroke-dasharray:none;stroke-opacity:1" />
      <path
         inkscape:connector-curvature="0"
         id="path5820"
         d="m -37.493385,174.32611 c -0.132929,-1.67225 -2.299678,-0.11963 -2.286385,0.95709 1.289415,0.51577 1.063435,-1.13122 2.286385,-0.95709"
         style="fill:#c83737;fill-opacity:1;fill-rule:evenodd;stroke:#000000;stroke-width:0.14449541;stroke-miterlimit:4;stroke-dasharray:none;stroke-opacity:1" />
      <path
         inkscape:connector-curvature="0"
         id="path5824"
         d="m -37.679486,140.82791 c 0.199394,0.55032 2.326265,2.24916 2.831396,2.64662 2.140163,1.69352 1.621739,3.90015 3.177013,5.6814 0.67794,0.78163 5.303882,9.22264 6.327439,4.30559 0.22598,-1.04217 0.864041,-1.92482 1.063435,-2.96699 0.199394,-1.03419 -0.770991,-1.95539 -0.770991,-2.99091 0,-2.47249 -1.249536,-4.01048 -2.924446,-5.67741 -1.342587,-1.3519 -8.427724,-2.65593 -9.703846,-0.9983"
         style="fill:#c83737;fill-opacity:1;fill-rule:evenodd;stroke:#000000;stroke-width:0.14449541;stroke-miterlimit:4;stroke-dasharray:none;stroke-opacity:1" />
      <path
         inkscape:connector-curvature="0"
         id="path5828"
         d="m -36.150798,159.87669 c 0,-0.67927 -0.132929,-1.34923 -0.292444,-2.00989 -0.372203,0.74174 -0.279152,1.41171 0.292444,2.00989"
         style="fill:#c83737;fill-opacity:1;fill-rule:evenodd;stroke:#000000;stroke-width:0.14449541;stroke-miterlimit:4;stroke-dasharray:none;stroke-opacity:1" />
      <path
         inkscape:connector-curvature="0"
         id="path5808"
         d="m -46.864907,110.10793 c -0.425374,2.11756 1.276123,1.84904 1.475517,3.0494 0.332323,1.83841 0.465252,4.20322 1.395758,5.82363 0.890627,1.56059 1.35588,2.92977 1.621739,4.6738 0.172808,1.05679 1.861011,3.38571 1.635031,1.00096 1.781254,0.66996 0.757698,4.14474 2.831396,4.76419 3.044083,0.91455 0.638061,-3.00022 0.704526,-4.28565 0.770991,0.28181 7.085137,2.35418 4.639236,4.1022 -0.943799,0.66997 -1.767961,1.48217 -2.605416,2.26113 -1.369173,1.24821 0,3.71405 0.159515,5.31319 0.810869,-0.0931 1.1299,-0.5809 0.77099,-1.34126 1.728083,0.0266 2.512366,0.98368 2.206628,2.68119 0.558304,-1.98862 1.80784,-0.24326 1.435638,0.76567 0.983677,-0.16217 2.419315,0.44399 3.230184,-0.36821 0.704526,-0.69389 0.890627,-1.75201 1.688203,-2.34886 0.239273,-0.18478 1.67491,-1.28942 2.03382,-1.00894 1.196364,0.96241 2.791517,1.43963 3.908124,2.49243 1.462223,1.39044 4.240447,3.28867 4.639236,5.34775 0.132929,0.6899 1.342586,1.69618 1.621738,0.48652 0,-0.65268 -0.199394,-1.26283 -0.531717,-1.8331 -0.13293,-0.32036 -1.555274,-2.24783 -0.797577,-2.00457 -1.528688,-0.96108 -1.1299,-3.02149 -2.206628,-4.30559 2.060406,-0.327 4.001175,2.16144 4.998145,3.58245 1.342587,1.92216 3.6422657,2.03648 4.7854585,4.40528 0.3057376,0.62211 -0.3854952,1.82645 0.5184246,2.02186 0.9836775,0.21136 1.8078397,0.91189 2.7117596,1.34524 0.7178187,0.34695 1.3558797,1.34924 2.180042,0.91456 0.5981822,-0.31505 1.48880913,-1.2296 2.23321371,-1.07274 -0.15951527,1.17509 -2.31297141,1.70016 -1.38246566,3.06801 0.17280821,0.24725 1.96735495,2.81145 2.43260785,1.54597 0.7444046,-1.96603 0,-8.7893 -3.7353159,-6.23971 -0.4120811,-0.80954 0,-1.35056 -0.1728082,-2.14016 -0.2525658,-0.99963 -1.6882032,-2.43926 -2.5522443,-2.93375 -2.2730925,-1.31069 2.5256584,-2.59213 3.7751947,-1.91419 -0.212687,-1.40905 -2.4990725,-1.97533 -3.6555582,-2.08034 -1.954062,-0.18079 -2.2863855,-1.84107 -3.9081241,-2.13086 -0.4120811,1.33195 2.0869914,3.27139 0,4.01978 -1.5286876,0.54767 -1.9673546,-3.1132 -2.6452946,-4.25374 -1.369173,-2.32626 -7.125016,-4.40395 -7.018672,-0.0532 -0.22598,-0.39613 -0.478546,-0.77896 -0.757698,-1.14851 -1.289415,1.19637 1.342587,1.94609 0.598183,2.78487 -1.249537,1.41969 -3.801781,-0.50912 -4.718994,-1.44361 -0.810869,-0.83879 -4.333498,-6.8339 -1.728082,-6.9881 -2.35285,-1.64434 -4.798751,-6.37662 -3.722023,-9.09237 0.731112,-1.85171 -0.199394,-3.53858 0.465253,-5.16829 0.824162,-2.01787 3.522629,-2.15213 4.891802,-3.63695 -0.159515,0.54368 -0.319031,1.08603 -0.478546,1.62838 1.156486,-1.31068 0.784283,-2.84867 1.329294,-4.40129 0.810869,-2.36614 1.90089,-4.90509 1.44893,-7.466643 -1.329294,0.628756 -0.717818,-1.208328 -1.156485,-1.819803 -1.196365,-1.689533 -2.578831,-1.744034 -3.309942,-4.068969 -0.757698,-2.386082 -0.691233,-4.233801 0.305737,-6.47632 0.518425,-1.163132 -0.99697,-4.352108 -2.047112,-2.654599 -0.412081,0.673952 -0.478546,2.160102 -1.621739,1.952732 -0.691233,-0.132929 -2.193335,-0.9212 -2.80481,-0.140905 -0.372202,-0.798906 -1.1299,-1.362526 -1.861011,-1.810498 -1.448931,-0.897274 -3.323235,-2.243848 -5.051317,-1.67491 -0.731112,0.245919 -1.541981,-0.156857 -2.273093,-0.221993 -0.691233,-0.06646 -0.159515,0.931835 -0.810869,0.931835 -1.834426,0 -0.67794,1.01691 -0.717819,2.105602 -0.132929,1.946086 -0.67794,4.341474 -0.957091,6.316805 -0.505132,3.59441 2.206627,6.770093 1.44893,10.593146 -0.598182,3.09991 0.67794,5.41288 1.090021,8.29878 0.518425,3.57713 -4.93168,-1.19371 -5.317176,-2.71708 -1.209657,0.60483 -1.090021,1.90887 -0.664647,2.96832"
         style="fill:#c83737;fill-opacity:1;fill-rule:evenodd;stroke:#000000;stroke-width:0.14449541;stroke-miterlimit:4;stroke-dasharray:none;stroke-opacity:1" />
      <path
         inkscape:connector-curvature="0"
         id="path5826"
         d="m -36.908495,72.967453 c 0.438667,0.651355 1.036849,1.066094 1.807839,1.24422 0.279152,-1.083375 -0.917212,-1.82778 -1.807839,-1.24422"
         style="fill:#c83737;fill-opacity:1;fill-rule:evenodd;stroke:#000000;stroke-width:0.14449541;stroke-miterlimit:4;stroke-dasharray:none;stroke-opacity:1" />
      <path
         inkscape:connector-curvature="0"
         id="path5830"
         d="m -36.150798,78.909397 c 0.345617,-0.02659 0.691233,-0.06646 1.050142,-0.09305 -0.54501,-0.243261 -0.797576,-0.424045 -1.050142,0.09305"
         style="fill:#c83737;fill-opacity:1;fill-rule:evenodd;stroke:#000000;stroke-width:0.14449541;stroke-miterlimit:4;stroke-dasharray:none;stroke-opacity:1" />
      <path
         inkscape:connector-curvature="0"
         id="path5836"
         d="m -30.886794,79.188549 c 0.638061,-0.473229 0.930506,-1.24289 0.67794,-2.009892 -0.598182,0.548998 -0.824162,1.218962 -0.67794,2.009892"
         style="fill:#c83737;fill-opacity:1;fill-rule:evenodd;stroke:#000000;stroke-width:0.14449541;stroke-miterlimit:4;stroke-dasharray:none;stroke-opacity:1" />
      <path
         inkscape:connector-curvature="0"
         id="path5842"
         d="m -24.665698,123.12171 c 0.305737,1.1751 0.917212,3.42825 2.206627,3.92275 0.558304,-1.43564 0.159516,-6.02037 -2.206627,-3.92275"
         style="fill:#c83737;fill-opacity:1;fill-rule:evenodd;stroke:#000000;stroke-width:0.14449541;stroke-miterlimit:4;stroke-dasharray:none;stroke-opacity:1" />
      <path
         inkscape:connector-curvature="0"
         id="path5844"
         d="m -19.680846,134.60681 c -0.292445,-1.16446 -1.834426,-1.97267 -2.871275,-2.29835 0.651354,1.09002 1.834425,1.64833 2.871275,2.29835"
         style="fill:#c83737;fill-opacity:1;fill-rule:evenodd;stroke:#000000;stroke-width:0.14449541;stroke-miterlimit:4;stroke-dasharray:none;stroke-opacity:1" />
      <path
         inkscape:connector-curvature="0"
         id="path5846"
         d="m -22.552121,141.0273 c 0,2.14814 3.309942,3.75792 3.402992,0.68725 0,-1.56325 -2.897861,-2.41267 -3.402992,-0.68725"
         style="fill:#c83737;fill-opacity:1;fill-rule:evenodd;stroke:#000000;stroke-width:0.14449541;stroke-miterlimit:4;stroke-dasharray:none;stroke-opacity:1" />
      <path
         inkscape:connector-curvature="0"
         id="path5848"
         d="m -19.973291,126.37848 c 0.279152,-0.92253 0,-1.17775 -0.957092,-0.76567 0.319031,0.25522 0.638061,0.50912 0.957092,0.76567"
         style="fill:#c83737;fill-opacity:1;fill-rule:evenodd;stroke:#000000;stroke-width:0.14449541;stroke-miterlimit:4;stroke-dasharray:none;stroke-opacity:1" />
      <path
         inkscape:connector-curvature="0"
         id="path5850"
         d="m -20.066342,160.26218 c 3.097255,0.55033 2.352851,2.963 2.299679,5.34244 0,1.72542 0.239273,2.95236 -0.22598,4.67911 -0.478546,1.79986 0.571596,3.51465 0,5.29192 1.781254,0.37752 2.911154,-2.67986 4.851923,-2.67986 1.276122,0 3.628972,-1.84373 3.2567697,-3.10124 -0.3190307,-1.10065 3.7220229,-1.51141 3.1770124,-3.07997 -0.7311116,-2.08035 0.7576975,-4.94764 -2.5788302,-2.52699 0.8108693,-0.89462 -0.4120811,-2.10693 -1.3957589,-1.88893 -0.90392,0.20205 -1.502102,1.34658 -2.273092,0.51843 -0.890627,-0.93583 -1.515395,-2.00591 -2.725053,-2.57617 -1.143192,-0.53571 -2.605416,-0.76169 -3.363113,-1.89159 -0.505132,0.54368 -0.824163,1.18174 -0.957092,1.91285"
         style="fill:#c83737;fill-opacity:1;fill-rule:evenodd;stroke:#000000;stroke-width:0.14449541;stroke-miterlimit:4;stroke-dasharray:none;stroke-opacity:1" />
      <path
         inkscape:connector-curvature="0"
         id="path5852"
         d="m -19.308644,151.83446 c -0.132929,1.72808 -0.850748,3.19695 0.478546,4.68842 0.22598,-1.96735 0.385495,-3.9387 0.797576,-5.86219 0.239273,-1.08736 -2.219921,-0.39878 -1.276122,1.17377"
         style="fill:#c83737;fill-opacity:1;fill-rule:evenodd;stroke:#000000;stroke-width:0.14449541;stroke-miterlimit:4;stroke-dasharray:none;stroke-opacity:1" />
      <path
         inkscape:connector-curvature="0"
         id="path5854"
         d="m -19.202301,126.85703 c 0.319031,-0.0266 0.638062,-0.0665 0.957092,-0.093 -0.332323,-0.0532 -0.651354,-0.0266 -0.957092,0.093"
         style="fill:#c83737;fill-opacity:1;fill-rule:evenodd;stroke:#000000;stroke-width:0.14449541;stroke-miterlimit:4;stroke-dasharray:none;stroke-opacity:1" />
      <path
         inkscape:connector-curvature="0"
         id="path5856"
         d="m -16.716521,151.83446 c 0.824162,0.11964 0.731112,-0.19408 -0.292445,-0.95709 0.13293,0.32036 0.199394,0.63806 0.292445,0.95709"
         style="fill:#c83737;fill-opacity:1;fill-rule:evenodd;stroke:#000000;stroke-width:0.14449541;stroke-miterlimit:4;stroke-dasharray:none;stroke-opacity:1" />
      <path
         inkscape:connector-curvature="0"
         id="path5862"
         d="m -15.280884,213.38077 c -0.491838,2.70511 3.216892,3.84565 3.496043,0.68326 0.13293,-1.15117 0.598183,-4.3335 1.475517,-4.68444 0.7045254,-0.27782 1.2096571,-4.47174 2.8048098,-3.23816 1.1564857,0.88797 0.6779399,2.79684 1.5951526,3.79381 0.2525659,-1.68422 0.8507481,-0.86537 1.3425869,0 0.3722023,-1.03818 0,-2.47382 1.3425868,-2.96699 0.5715964,0.69124 0.4652529,1.5247 -0.1993941,2.10561 1.316001,0.0532 2.1401632,1.67624 3.45616418,1.43563 -0.39878817,-0.57957 -0.89062691,-1.36651 -0.86404104,-2.1056 0,-0.42006 0.94379867,-0.3722 1.05014219,-0.76567 0.29244465,-1.03552 -0.86404104,-0.79359 0.4785458,-1.79854 0.81086927,-0.61679 1.62173857,0.46792 2.24650667,0.8574 2.1135773,1.32398 4.0144676,1.68953 4.7322863,4.48902 0.3722023,1.52205 -1.6882032,2.94705 -1.8477185,4.57277 -0.1595153,1.62706 0.7178187,3.86559 1.0634351,5.47138 0.5184246,2.47647 2.6851737,3.96262 4.7987513,5.04733 0.970384,0.49848 4.426548,2.741 5.476691,1.81581 0.837455,-0.74041 0.385495,-2.48976 1.980647,-2.40735 0.146223,0 -0.31903,7.39221 1.94077,5.83427 1.568566,-1.08204 2.937739,-4.80141 2.698466,-6.61456 -0.345616,-2.54959 -2.286385,-3.61834 -3.270063,-5.67609 -0.598182,-1.24289 2.419315,-8.19908 3.496043,-7.68332 0.837455,0.39613 2.658588,4.33483 3.03079,5.29325 0.345617,0.93317 0.146223,1.90754 0.22598,2.8726 0.13293,1.40906 1.262829,2.34887 1.475516,3.71671 0,-2.22258 0.996971,-5.10449 -0.677939,-6.98677 0.824162,-0.38549 1.488809,0.10635 1.821132,0.86138 -1.422344,-1.26282 0.67794,-2.52831 1.369173,-3.47477 1.342587,-1.82778 0.398788,-4.49966 0,-6.45505 -0.292445,-1.60579 -2.392729,-1.61243 -1.555274,-3.35647 0.478546,-1.01026 0.518425,-3.61169 -1.289415,-2.79284 3.070669,-2.63998 -2.565537,-3.50004 -2.48578,-4.8825 0,-0.80821 1.608446,-1.1844 1.914184,-1.97799 0.558303,-1.42102 -1.023557,-1.99128 -1.435638,-3.09327 -0.199394,-0.51975 0.372202,-3.00287 -0.584889,-2.50572 -1.222951,0.6261 -1.448931,0.18345 -2.100285,-0.75636 -0.77099,-1.11395 0,-1.756 -1.688203,-2.27576 -1.874304,-0.57292 -2.219921,-2.26644 -3.854952,-2.98027 -0.996971,2.1601 0.744404,5.00213 1.395759,7.0426 0.146222,0.46658 0.837455,2.18668 0,2.4326 -1.116607,0.31903 -2.632002,0.0399 -3.110548,-1.14851 -0.90392,2.81944 0,3.04675 -2.57883,1.20966 -2.499073,-1.72808 -0.332324,5.08854 -2.392729,5.37168 -1.316001,0.18211 -1.5818601,-1.41437 -2.8048105,-0.86537 -1.2628292,0.57292 -0.9172128,2.90185 -1.316001,3.98788 -0.4785458,1.30537 -2.3794361,0.72314 -3.3232347,1.49413 -0.5583035,0.44797 -1.5021021,1.50742 -2.2597997,1.54065 -0.7842834,0.0399 0.9703846,-1.21764 0.8108693,-1.11129 0.9969704,-0.65933 1.1963645,-1.02622 0.9437987,-2.28373 -0.1861012,-0.9757 -1.528688,-5.6721 -3.15042657,-3.40565 -0.25256584,-0.78295 -0.73111164,-1.77727 -1.72808203,-1.72409 0.5583034,2.63333 -2.7383455,1.62306 -3.5093359,3.05338 -0.9172128,1.68821 -0.1329294,3.24082 -2.2332138,3.93338 -2.1268702,0.70054 -5.2772968,0.0931 -6.2875598,2.7862 -0.425374,1.15649 -0.159516,2.49775 -0.292445,3.69943 -0.172808,1.58984 -0.99697,3.17834 -1.648324,4.61531"
         style="fill:#c83737;fill-opacity:1;fill-rule:evenodd;stroke:#000000;stroke-width:0.14449541;stroke-miterlimit:4;stroke-dasharray:none;stroke-opacity:1" />
      <path
         inkscape:connector-curvature="0"
         id="path5864"
         d="m -14.137691,151.83446 c -0.345616,0.218 -0.664647,0.47323 -0.957091,0.76567 0.810869,0.64737 1.648324,1.2748 2.392729,2.0099 0.890627,-1.25486 0.132929,-2.78355 -1.435638,-2.77557"
         style="fill:#c83737;fill-opacity:1;fill-rule:evenodd;stroke:#000000;stroke-width:0.14449541;stroke-miterlimit:4;stroke-dasharray:none;stroke-opacity:1" />
      <path
         inkscape:connector-curvature="0"
         id="path5866"
         d="m -10.216274,187.1538 c 0.9039201,0.65534 2.219921,0.63673 2.9776185,1.53002 0.6380611,0.75371 0.3057376,1.95539 1.0634352,2.63466 1.0501421,0.93715 2.4459007,-0.18212 2.9643254,-1.11395 0.9836774,-1.73473 -0.8241623,-2.91647 -1.2761222,-4.43187 -0.864041,-2.79018 0.212687,-6.89903 1.090021,-9.61877 0.664647,-2.07104 2.87127484,-4.85192 0,-6.36864 -0.9437987,-0.49982 -2.166749,-0.65801 -3.1770124,-0.20605 -1.7147891,0.77764 -0.9969704,2.27576 -1.4223445,3.69411 -0.2791517,0.91456 -1.1830715,1.20966 -0.8507481,2.29835 0.3722023,1.20966 0.8906269,2.53098 0.4120811,3.79779 -0.7311116,1.90887 -4.25374,0.68858 -4.200569,2.81944 0,1.78524 1.435638,3.57447 2.432608,4.96491"
         style="fill:#c83737;fill-opacity:1;fill-rule:evenodd;stroke:#000000;stroke-width:0.14449541;stroke-miterlimit:4;stroke-dasharray:none;stroke-opacity:1" />
      <path
         inkscape:connector-curvature="0"
         id="path5868"
         d="m -11.651911,175.96114 c 0.850748,-0.38815 2.8712746,-3.03477 1.050142,-3.48009 -1.369173,-0.33631 -1.714789,2.76759 -1.050142,3.48009"
         style="fill:#c83737;fill-opacity:1;fill-rule:evenodd;stroke:#000000;stroke-width:0.14449541;stroke-miterlimit:4;stroke-dasharray:none;stroke-opacity:1" />
      <path
         inkscape:connector-curvature="0"
         id="path5870"
         d="m -5.9093616,149.64113 c -1.1033139,-1.78126 -2.3661431,-4.20456 -4.3999624,-5.07259 -0.996971,1.68289 3.6422649,3.97193 4.3999624,5.07259"
         style="fill:#c83737;fill-opacity:1;fill-rule:evenodd;stroke:#000000;stroke-width:0.14449541;stroke-miterlimit:4;stroke-dasharray:none;stroke-opacity:1" />
      <path
         inkscape:connector-curvature="0"
         id="path5872"
         d="m -6.9595037,157.57701 c 0,0.35093 -0.1329294,0.70054 -0.1329294,1.05147 1.3425868,-0.9212 2.3528502,-4.54618 3.9745887,-2.65194 0.664647,0.76833 1.3957586,1.48083 1.9806479,2.30898 0.74440463,1.04882 2.2730926,1.10332 3.0440831,2.16144 1.4755162,-2.85267 -2.41931492,-4.5874 -3.7353159,-6.14799 -0.5848893,-0.69522 -1.4888091,-1.46355 -2.180042,-2.0192 -0.4120811,-0.33365 -2.6851737,-1.41304 -3.1770124,-1.4024 0.3456164,0.91322 0,3.32988 0.4652529,3.86691 0.9836775,1.32664 -0.1861012,1.39443 -0.2791518,2.83273"
         style="fill:#c83737;fill-opacity:1;fill-rule:evenodd;stroke:#000000;stroke-width:0.14449541;stroke-miterlimit:4;stroke-dasharray:none;stroke-opacity:1" />
      <path
         inkscape:connector-curvature="0"
         id="path5876"
         d="m -2.6525915,151.83446 c 0.3589094,0.70054 0.8374552,1.3067 1.4356374,1.81847 -0.1993941,-1.29207 -0.5583034,-2.87393 -1.8211326,-3.54123 -0.2924447,0.66863 -0.1595153,1.24289 0.3854952,1.72276"
         style="fill:#c83737;fill-opacity:1;fill-rule:evenodd;stroke:#000000;stroke-width:0.14449541;stroke-miterlimit:4;stroke-dasharray:none;stroke-opacity:1" />
      <path
         inkscape:connector-curvature="0"
         id="path5878"
         d="m -2.4531974,180.64026 c 0.1329294,2.00192 -0.4918388,3.95731 -0.6779399,5.93397 2.73834543,0.72313 2.15345611,-5.78509 3.25677005,-7.0745 1.36917275,-1.59915 2.81810305,-2.89521 3.05737595,-5.12044 0.2791517,-2.64929 -0.5583034,-5.25869 -0.4785458,-7.90399 -1.3292939,0.27251 -1.7014962,4.42124 -1.92747614,5.43017 -0.67793989,3.06003 -2.60541606,5.66811 -3.23018416,8.73479"
         style="fill:#c83737;fill-opacity:1;fill-rule:evenodd;stroke:#000000;stroke-width:0.14449541;stroke-miterlimit:4;stroke-dasharray:none;stroke-opacity:1" />
      <path
         inkscape:connector-curvature="0"
         id="path5880"
         d="m 0.03258218,143.60613 c 0.15951527,-0.65401 -0.15951527,-0.78295 -0.95709161,-0.38284 0.31903054,0.13293 0.63806107,0.25523 0.95709161,0.38284"
         style="fill:#c83737;fill-opacity:1;fill-rule:evenodd;stroke:#000000;stroke-width:0.14449541;stroke-miterlimit:4;stroke-dasharray:none;stroke-opacity:1" />
      <path
         inkscape:connector-curvature="0"
         id="path5884"
         d="m 1.4682196,140.16326 c 2.406022,-1.68953 2.0471126,-5.49264 -1.1564857,-6.12539 -0.94379867,1.9647 -0.3057376,4.77749 1.1564857,6.12539"
         style="fill:#c83737;fill-opacity:1;fill-rule:evenodd;stroke:#000000;stroke-width:0.14449541;stroke-miterlimit:4;stroke-dasharray:none;stroke-opacity:1" />
      <path
         inkscape:connector-curvature="0"
         id="path5886"
         d="m 2.039816,144.17773 c -0.3057376,-0.25656 -0.651354,-0.32036 -1.05014221,-0.19275 0.34561641,0.0665 0.70452581,0.13293 1.05014221,0.19275"
         style="fill:#c83737;fill-opacity:1;fill-rule:evenodd;stroke:#000000;stroke-width:0.14449541;stroke-miterlimit:4;stroke-dasharray:none;stroke-opacity:1" />
      <path
         inkscape:connector-curvature="0"
         id="path5890"
         d="m 2.3189677,183.89703 c -0.212687,3.72601 6.4337825,-0.50912 7.2845306,-0.19275 -0.5317176,-1.9195 -0.5981823,-5.704 -4.0410535,-4.76286 -1.2096574,0.32967 -4.90509449,3.89749 -3.2434771,4.95561"
         style="fill:#c83737;fill-opacity:1;fill-rule:evenodd;stroke:#000000;stroke-width:0.14449541;stroke-miterlimit:4;stroke-dasharray:none;stroke-opacity:1" />
      <path
         inkscape:connector-curvature="0"
         id="path5894"
         d="m 3.568504,151.83446 c 0.7576975,2.03648 1.6217385,3.77652 3.3498206,5.1683 0.9570916,0.77497 3.8948314,3.87622 5.0779024,3.35115 -0.412081,0.94778 -0.358909,2.20529 -1.541981,2.58281 0.58489,0.48254 1.063435,1.05679 1.435638,1.72277 -1.023557,-1.12193 -1.608446,0.30441 -2.445901,0.78827 -1.2894151,0.74839 -3.3099418,-1.32929 -3.8682453,-2.31829 -0.9570916,1.17908 0.8507481,6.84852 2.2996785,7.46399 -0.2525659,-2.57086 2.7649318,0.74706 2.8313958,2.05774 0.172808,3.34052 -0.425374,5.91004 3.110548,7.51317 -0.159515,-1.00893 -0.67794,-1.9288 -0.67794,-2.96565 0.558303,0.62344 2.512366,0.67528 2.698467,-0.3855 0.132929,-0.58887 -1.329294,-3.36577 -1.688204,-3.95996 -0.824162,-1.36918 -1.063435,-1.18972 -1.196364,-3.02282 -0.13293,-1.18706 0.172808,-3.05339 -0.864041,-3.92407 0.797576,-0.20604 3.044083,1.98596 3.057376,1.96203 0.877334,-1.02887 4.173983,0.28181 5.077903,0.81353 -0.731112,-0.84942 -1.222951,-2.04312 -2.392729,-2.39273 1.502102,-1.1525 -1.515396,-4.55017 -1.648325,-5.91934 -0.146222,-1.44229 0.491839,-2.72506 -0.292445,-3.95332 -0.505131,-0.78429 1.395759,-0.55565 -0.132929,-1.47419 -0.824162,-0.49849 -1.887597,-0.13293 -1.80784,-1.43697 0.13293,-1.67757 -1.355879,-1.73605 -2.552244,-1.99926 -1.302708,-0.28446 -1.728082,-0.30573 -3.0839618,0.13426 -1.5818598,0.50248 -3.3099418,-0.89461 -4.7455792,0.19408"
         style="fill:#c83737;fill-opacity:1;fill-rule:evenodd;stroke:#000000;stroke-width:0.14449541;stroke-miterlimit:4;stroke-dasharray:none;stroke-opacity:1" />
      <path
         inkscape:connector-curvature="0"
         id="path5896"
         d="m 6.9183246,163.79811 c 1.6882032,0.24724 0.4519599,-3.69145 -1.6217386,-2.48844 0.4519599,0.86803 0.6912329,1.96204 1.6217386,2.48844"
         style="fill:#c83737;fill-opacity:1;fill-rule:evenodd;stroke:#000000;stroke-width:0.14449541;stroke-miterlimit:4;stroke-dasharray:none;stroke-opacity:1" />
      <path
         inkscape:connector-curvature="0"
         id="path5904"
         d="m 15.6252,180.64026 c 0.358909,0.31105 0.717818,0.63008 1.063435,0.95709 -0.199394,-0.90791 -0.638061,-2.42729 -1.914183,-2.00989 0.252565,0.37752 0.531717,0.72845 0.850748,1.0528"
         style="fill:#c83737;fill-opacity:1;fill-rule:evenodd;stroke:#000000;stroke-width:0.14449541;stroke-miterlimit:4;stroke-dasharray:none;stroke-opacity:1" />
      <path
         inkscape:connector-curvature="0"
         id="path5906"
         d="m 19.453566,180.64026 c 0.757698,0.53039 0.850748,1.34126 0.199394,2.00989 1.422345,0.21003 1.090021,-1.82512 0.930506,-2.6094 -0.186101,-0.82151 -0.704526,-1.5473 -0.837455,-2.36747 -0.13293,-0.74707 0.372202,-1.34791 0.132929,-2.10561 -1.887597,0.80556 -0.385495,2.40868 -1.435637,3.63695 0.757697,0.11964 1.262829,0.6261 1.050142,1.43564"
         style="fill:#c83737;fill-opacity:1;fill-rule:evenodd;stroke:#000000;stroke-width:0.14449541;stroke-miterlimit:4;stroke-dasharray:none;stroke-opacity:1" />
      <path
         inkscape:connector-curvature="0"
         id="path5912"
         d="m 23.574377,185.71816 c 0.651354,-0.67927 0.199394,-1.58717 -0.478546,-2.01122 -0.132929,0.7351 0,1.40506 0.478546,2.01122"
         style="fill:#c83737;fill-opacity:1;fill-rule:evenodd;stroke:#000000;stroke-width:0.14449541;stroke-miterlimit:4;stroke-dasharray:none;stroke-opacity:1" />
      <path
         inkscape:connector-curvature="0"
         id="path5914"
         d="m 24.145974,180.64026 c -0.478546,0.64338 -0.890627,3.35248 0.624768,3.0042 1.555274,-0.35359 0.398788,-2.81278 -0.624768,-3.0042"
         style="fill:#c83737;fill-opacity:1;fill-rule:evenodd;stroke:#000000;stroke-width:0.14449541;stroke-miterlimit:4;stroke-dasharray:none;stroke-opacity:1" />
      <path
         inkscape:connector-curvature="0"
         id="path5920"
         d="m 6.1606271,173.94062 c 0,-0.35094 -0.1329294,-0.70187 -0.1993941,-1.0528 1.076728,0.15951 1.1564857,0.51045 0.1993941,1.0528"
         style="fill:#c83737;fill-opacity:1;fill-rule:evenodd;stroke:#000000;stroke-width:0.14449541;stroke-miterlimit:4;stroke-dasharray:none;stroke-opacity:1" />
      <path
         inkscape:connector-curvature="0"
         id="path5924"
         d="m 11.889884,164.66215 c 0.159515,0.39878 0.239273,0.8122 0.199394,1.24555 -0.199394,-0.39481 -0.265859,-0.80954 -0.199394,-1.24555"
         style="fill:#c83737;fill-opacity:1;fill-rule:evenodd;stroke:#000000;stroke-width:0.14449541;stroke-miterlimit:4;stroke-dasharray:none;stroke-opacity:1" />
      <path
         inkscape:connector-curvature="0"
         id="path5936"
         d="m -1.6024493,168.78296 c -0.7045258,-3.74064 4.3866699,-1.81715 0,0"
         style="fill:#c83737;fill-opacity:1;fill-rule:evenodd;stroke:#000000;stroke-width:0.14449541;stroke-miterlimit:4;stroke-dasharray:none;stroke-opacity:1" />
    </g>
  </g>
</svg>
