<?xml version="1.0" encoding="UTF-8" standalone="no"?>
<!-- Created with Inkscape (http://www.inkscape.org/) -->

<svg
   xmlns:dc="http://purl.org/dc/elements/1.1/"
   xmlns:cc="http://creativecommons.org/ns#"
   xmlns:rdf="http://www.w3.org/1999/02/22-rdf-syntax-ns#"
   xmlns:svg="http://www.w3.org/2000/svg"
   xmlns="http://www.w3.org/2000/svg"
   xmlns:sodipodi="http://sodipodi.sourceforge.net/DTD/sodipodi-0.dtd"
   xmlns:inkscape="http://www.inkscape.org/namespaces/inkscape"
   width="16.130663mm"
   height="19.196959mm"
   viewBox="0 0 16.130663 19.196959"
   version="1.1"
   id="svg42702"
   inkscape:version="0.92.0 r15299"
   sodipodi:docname="qatar.svg">
  <defs
     id="defs42696" />
  <sodipodi:namedview
     id="base"
     pagecolor="#ffffff"
     bordercolor="#666666"
     borderopacity="1.0"
     inkscape:pageopacity="0.0"
     inkscape:pageshadow="2"
     inkscape:zoom="0.35"
     inkscape:cx="-56.659882"
     inkscape:cy="419.13485"
     inkscape:document-units="mm"
     inkscape:current-layer="layer1"
     showgrid="false"
     fit-margin-top="0"
     fit-margin-left="0"
     fit-margin-right="0"
     fit-margin-bottom="0"
     inkscape:window-width="1920"
     inkscape:window-height="1017"
     inkscape:window-x="1912"
     inkscape:window-y="-8"
     inkscape:window-maximized="1" />
  <metadata
     id="metadata42699">
    <rdf:RDF>
      <cc:Work
         rdf:about="">
        <dc:format>image/svg+xml</dc:format>
        <dc:type
           rdf:resource="http://purl.org/dc/dcmitype/StillImage" />
        <dc:title></dc:title>
      </cc:Work>
    </rdf:RDF>
  </metadata>
  <g
     inkscape:label="Layer 1"
     inkscape:groupmode="layer"
     id="layer1"
     transform="translate(2.017668,-240.53247)">
    <g
       id="qa"
       style="fill:#c83737;fill-opacity:1;stroke:#000000;stroke-width:0.10870087;stroke-miterlimit:4;stroke-dasharray:none;stroke-opacity:1"
       transform="matrix(1.3292939,0,0,1.3292939,-2190.5972,-468.79989)">
      <title
         id="title2598">Qatar</title>
      <path
         inkscape:connector-curvature="0"
         id="qa-"
         class="landxx qa"
         d="m 1649.79,540.79 c 0,-0.39 -0.61,-2.786 0.5,-1.656 -0.1,-0.388 -0.32,-2.542 0.37,-0.72 0,-1.816 0.7,-6.609 3.2,-3.966 0.63,0.663 1.83,1.128 1.84,2.168 0,0.726 -0.36,1.186 -0.52,1.849 -0.15,0.574 0.21,1.32 0.26,1.893 0.1,0.573 0.67,0.584 0.83,1.08 0.26,0.809 0.1,1.543 -0.26,2.29 -0.57,1.293 -0.38,2.237 -1.8,2.662 -1.18,0.354 -2.24,1.291 -3.03,-0.439 -0.72,-1.578 -1.02,-3.477 -1.39,-5.161"
         style="fill:#c83737;fill-opacity:1;fill-rule:evenodd;stroke:#000000;stroke-width:0.10870087;stroke-miterlimit:4;stroke-dasharray:none;stroke-opacity:1" />
      <circle
         id="qa."
         class="circlexx qa"
         r="6.0130301"
         cy="541.98999"
         cx="1652.49"
         style="opacity:0;fill:#c83737;fill-opacity:1;stroke:#000000;stroke-width:0.10870087;stroke-miterlimit:4;stroke-dasharray:none;stroke-opacity:1" />
    </g>
  </g>
</svg>
