<svg xmlns="http://www.w3.org/2000/svg" width="152.52" height="236.032" viewBox="0 0 40.354298 62.450249"><g class="landxx coastxx kr" transform="matrix(1.3293 0 0 1.3293 -2891.882 -565.525)" fill="#c83737" fill-rule="evenodd" stroke="#000" stroke-width=".109"><title>Korea, Republic of</title><path d="M2175.82 432.5c-.79.479.37 2.223 1.23 1.439-.23-.604-.65-1.134-1.23-1.439M2180.79 444.67a2.72 2.72 0 0 0-1.01-1.08c.1.544.47.956 1.01 1.08M2185.47 457.56c-.61.556-.46.82.43.792-.15-.264-.29-.528-.43-.792M2187.2 461.16a3.314 3.314 0 0 0-1.3-.647c-.54 2.13 1.66 1.585 1.3.647M2193.68 469.37c-.99-.1-5.54 1.133-3.61 2.604 2.01 1.525 6.29-1.932 3.61-2.604M2189.58 462.24c.21.403.55.571 1 .504-.19-.506-.52-.674-1-.504M2196.49 457.49c-.1 1.423.81 1.585 2.01 1.585-.14-.735-1.37-1.395-2.01-1.585M2201.09 457.92c1.17 1.917 2.67-.302 1.01-1.009 0 .59-.44.97-1.01 1.009"/><path class="landxx kr" d="M2176.76 433.22c.64-.786 1.22.693 1.87.792-2.44-1.045-1.3-4.585.53-5.636 1.51-.867 3.46.07 5.09-.231.51-.09 1.13 0 1.58-.31 1.07-.755 0-1.44.43-2.319 2.64 1.996 4.63 4.869 7.13 7.063 2.27 1.994 4.73 3.953 6.54 6.398 1.35 1.827 1.48 3.73 2.25 5.783.21.575 1.9 4.625 2.37 2.717.86 1.005 1.52 3.908 1.15 5.185-.25-.206-.49-.423-.72-.648.5 1.643.88 3.431-1 4.32-.1-.915-2.24-.588-3.32-1.152.73 1.329-.62.364-.86 1.512.98-.553 1.11.801.86 1.513-.68-1.676-2.91-.127-3.38-2.088-.12 1.615-2.06.461-2.59 1.728.33.333.84.471 1.23.724.72.465-.74.388-.22 1.437-.78-.563-.95-1.597-1.73-2.16-.16.355-.36.691-.58 1.008.52.522 1.29.856 1.59 1.584-.36.02-.72.02-1.08 0 .25.151.49.319.72.504-.55 1.097-1.54-.245-2.02-.647.98.228 1.11-1.589-.1-1.44-1.05.131-1.32 2.156-1.37 2.952a3.3 3.3 0 0 1-1.44-1.08c0 .719-.34 1.36-.58 2.016-.84-.212-1.3-1.091-.86-1.871-.73.04-2.78-.555-2.09-1.656.16.527.59.899 1.15.936-.53-.759-.38-.95.44-.574a5.554 5.554 0 0 0-1.45-.722c.55.09 1.01-.08 1.37-.504-.2-.265-.44-.48-.72-.647-.18 1.922-2.36-1.683-2.88-2.088.46.188.94.261 1.44.216-1.18-.698-1.38-3.57 0-4.104-.51-.04-1.01-.111-1.51-.216.14-.479.44-.826.89-1.04.45-.27.35-1.149.62-1.552-.51.158-1.01.158-1.51 0a3.09 3.09 0 0 1 1.22-1.368c-1.46 1.643-4.31-2.078-3.38-3.528-.96.487-.9-.325-1.03-.989-.15-.698-1.64-1.763-1.56-.379-.49-.846-1.65-.785-1.95-1.8.72 0 1.06-.228.51-1.008.5 1.063.64 1.063.43 0 .58-.107 1.04.21 1.15.792.43-.524.38-1.004-.14-1.439 1.18.88 2.61.688 3.17 2.304-.3-.6.12-1.104.57-1.44-.74.141-1.71-.335-1.36-1.224-1.01.682-2.74-1.836-.8-1.656-.93-.25-1.75-1.028-2.41-1.686-.17-.366-.33-.74-.47-1.122-.4-.497-.97-.506-1.22-1.16"/></g></svg>