<svg xmlns="http://www.w3.org/2000/svg" width="228.844" height="216.256" viewBox="0 0 60.54834 57.217838"><path class="landxx sy" d="M.312 46.285c.838-1.057 2.433-3.254 3.922-3.541-2.26-2.11.97-3.439 2.87-2.871-1.674-2.029.812-2.276 1.397-4.214.319-1.074-1.024-3.248-2.247-3.476-1.409-.26 1.263-2.275-.917-1.665-3.616 1.017-3.882-1.294-4.054-3.17-.16-1.705.943-4.819-.585-6.073-1.223-1.007-.266-3.683-.32-5.154 0-1.105 2.021.631 2.42.827 0 .146.505-.981 1.37-1.508 1.076-.651.345-2.115.544-3.132.93.226 1.928-.04 2.871-.093-.757-1.538-1.249-1.936-1.462-3.787-.133-.674 0-2.576.93-2.811.705-.178 1.423-.185 1.981.12 1.53.801 1.835 2.162 3.403 1.918 1.915-.3 3.177-.527 5.012-1.316 1.874-.81 3.243-1.935 5.344-1.633 1.555.222 2.472 1.327 3.788 1.942 1.502.702 4.427.41 6.048.27 4.134-.356 7.099-2.72 10.847-4.219 3.789-1.515 7.923.61 11.818-.942 1.98-.793 4.892-3.826 5.184.918 0 1.105-2.632 3.345-3.403 4.113-1.409 1.394-2.978 1.296-4.56 2.226-3.402 1.998.16 6.324.426 8.711.16 1.412-.691 3.144-.798 4.604-.146 2.173 0 5.688 0 7.84 0 5.035-21.228 14.666-31.982 22.03-2.925 2.005-7.67 6.829-11.486 4.162-1.382-.969-2.379-1.715-3.815-2.697-2.472-1.707-3.589-.43-4-.49-.134-.311.89-6.256-.532-6.88" fill="#c83737" fill-rule="evenodd" stroke="#000" stroke-width=".144"><title>Syrian Arab Republic</title></path></svg>