<svg xmlns="http://www.w3.org/2000/svg" width="55.734" height="144.219" viewBox="0 0 14.746266 38.158051"><path d="M.145 20.165c.253.953.771 1.748.452 2.76-.253.83-.518 1.554.2 2.26 1.329 1.297 1.767 3.432 2.618 5.115.984 1.955 3.11 2.52 4.374 4.21.398.542 1.25 4.046 2.246 3.524 1.303-.674.532-2.89.386-3.968-.24-1.739.252-3.04 1.236-4.459 2.353-3.39 2.778-9.694 2.512-13.703-.133-.83-.611-2.075-.332-2.892.266-.82.704-1.292.797-2.196.213-2.104-.505-3.642-.505-5.677 0-1.053 1.05-1.905.133-2.762-.585-.524-3.602-2.915-4.36-2.158-1.21 1.2-3.602 1.498-4.28 3.185-.691 1.74-.492 2.759-1.728 4.25-1.144 1.361-1.396 3.311-1.848 4.962-.665 2.436-2.433 4.916-1.861 7.55" fill="#c83737" fill-rule="evenodd" stroke="#000" stroke-width=".144"/></svg>