<?xml version="1.0" encoding="UTF-8" standalone="no"?>
<!-- Created with Inkscape (http://www.inkscape.org/) -->

<svg
   xmlns:dc="http://purl.org/dc/elements/1.1/"
   xmlns:cc="http://creativecommons.org/ns#"
   xmlns:rdf="http://www.w3.org/1999/02/22-rdf-syntax-ns#"
   xmlns:svg="http://www.w3.org/2000/svg"
   xmlns="http://www.w3.org/2000/svg"
   xmlns:sodipodi="http://sodipodi.sourceforge.net/DTD/sodipodi-0.dtd"
   xmlns:inkscape="http://www.inkscape.org/namespaces/inkscape"
   width="14.746265mm"
   height="38.158051mm"
   viewBox="0 0 14.746266 38.158051"
   version="1.1"
   id="svg8987"
   inkscape:version="0.92.0 r15299"
   sodipodi:docname="taiwan.svg">
  <defs
     id="defs8981" />
  <sodipodi:namedview
     id="base"
     pagecolor="#ffffff"
     bordercolor="#666666"
     borderopacity="1.0"
     inkscape:pageopacity="0.0"
     inkscape:pageshadow="2"
     inkscape:zoom="1.979899"
     inkscape:cx="-86.899664"
     inkscape:cy="64.003631"
     inkscape:document-units="mm"
     inkscape:current-layer="layer1"
     showgrid="false"
     fit-margin-top="0"
     fit-margin-left="0"
     fit-margin-right="0"
     fit-margin-bottom="0"
     inkscape:window-width="1920"
     inkscape:window-height="1017"
     inkscape:window-x="1912"
     inkscape:window-y="-8"
     inkscape:window-maximized="1" />
  <metadata
     id="metadata8984">
    <rdf:RDF>
      <cc:Work
         rdf:about="">
        <dc:format>image/svg+xml</dc:format>
        <dc:type
           rdf:resource="http://purl.org/dc/dcmitype/StillImage" />
        <dc:title></dc:title>
      </cc:Work>
    </rdf:RDF>
  </metadata>
  <g
     inkscape:label="Layer 1"
     inkscape:groupmode="layer"
     id="layer1"
     transform="translate(14.375045,-129.75431)">
    <g
       id="g4489">
      <path
         inkscape:connector-curvature="0"
         id="path2746"
         d="m -14.229961,149.91966 c 0.252566,0.9531 0.77099,1.74802 0.45196,2.75961 -0.252566,0.82948 -0.518425,1.55395 0.199394,2.2598 1.329294,1.29739 1.767961,3.43224 2.618709,5.11512 0.9836772,1.95539 3.1105475,2.52034 4.3733767,4.20988 0.3987881,0.54235 1.2495362,4.04637 2.2465067,3.52396 1.302708,-0.67396 0.5317175,-2.88989 0.3854952,-3.96795 -0.2392729,-1.73871 0.2525658,-3.04009 1.2362433,-4.45845 2.35285023,-3.39103 2.77822427,-9.69454 2.51236549,-13.70369 -0.13292939,-0.82948 -0.61147519,-2.07503 -0.33232347,-2.89121 0.26585878,-0.82018 0.70452577,-1.29208 0.79757634,-2.196 0.21268702,-2.10427 -0.50513168,-3.64226 -0.50513168,-5.67741 0,-1.0528 1.05014218,-1.90488 0.13292939,-2.76227 -0.58488932,-0.52375 -3.60238647,-2.91515 -4.36008397,-2.15745 -1.2096575,1.20035 -3.6023865,1.49812 -4.2803264,3.18499 -0.6912328,1.74005 -0.4918387,2.75828 -1.7280816,4.24975 -1.143193,1.3612 -1.395759,3.31127 -1.847719,4.96226 -0.664647,2.43526 -2.432608,4.91573 -1.861011,7.54906"
         style="fill:#c83737;fill-opacity:1;fill-rule:evenodd;stroke:#000000;stroke-width:0.14449541;stroke-miterlimit:4;stroke-dasharray:none;stroke-opacity:1" />
    </g>
  </g>
</svg>
