<svg xmlns="http://www.w3.org/2000/svg" width="296.087" height="188.58" viewBox="0 0 78.339569 49.895069"><path class="landxx tj" d="M.117 20.117c.784-1.496 0-4.002 2.778-3.829 2.087.133 3.975.875 6.248.793 1.568-.054 2.034-1.297 1.728-2.595-.133-.49-.186-1.03.425-1.198 1.45-.395-.133-1.765 1.463-.35-.652-.44-1.13-1.13-1.25-1.914.452 0 .904.027 1.343.093-.665-1.411-2.406.107-3.457-1.025 1.768-1.86 4.467.266 6.5-.574-.956-.759 0-1.267-.677-2.354-.585-.938-1.542-3.355-.133-4.01 1.555-.685 2.805 1.316 3.974 1 1.875-.51 4.214-2.354 5.118-4.045 1.064.823 1.781 2.025 2.818 2.88 1.303 1.074.745 1.736-.638 2.758-1.874 1.39-1.316 1.074.213 2.115.665.456 1.09 1.514 1.927 1.723.958.242 1.968-.27 2.912-.311-.838.898-2.752 3.29-3.975 3.373 1.37-1.212-3.642-3.061-4.785-3.158-2.739-.234-4.347 1.105-4.493 3.445-2.048-2.165-1.01 3.063-.413 3.935.798 1.187 2.606-.093 3.576-.177 1.755-.158 3.044.694 4.879-.408 0 .353 0 .702.133 1.053.904-.347 2.007-.81 3.004-.528 1.116.32 1.356 1.53 2.313 1.988 1.409.672 4.254-1.41 5.463-2.106 1.37-.782 1.01.703 1.635 1.107a9.575 9.575 0 0 0 1.755.305c.253.35.439.732.572 1.147 1.834 1.345 3.363-.36 5.264 1.914.358-3.4 5.995-2.076 8.161-2.101 1.13-.014 3.417-1.782 4.28-.878.36.76.134 1.938.705 2.792.785 1.155 2.18 2.015 2.552 2.963-2.14.013 0 3.021.599 3.68.744.95 1.449.831 2.658.187 2.1-1.124 2.566-.568 3.403-.377 2.646.593 4.945.936 4.507 4.418 0 .488.172 1.668 1.143 2.464 1.077.892 1.356 2.373 1.582 2.86.412.889-.226 1.68.239 2.253.691.826 1.489.788 1.954 1.86.385.869 0 1.997-.984 2.347-.173.106-1.342-1.12-1.914-1.276-.77-.216-3.602-1.218-4.387-.649-1.608 1.17-4.187 2.413-5.742 1.757 2.486-2.775-3.828-2.887-5.304-1.685-1.356 1.093-2.42 1.902-3.15 3.605-.771 1.812-3.403.578-4.693 1.869-7.883 7.847-8.467-4.284-8.228-9.619.16-3.598-1.795-.662-3.217-1.962-.572-.518-.133-2.564-.293-3.305-.319-1.201-2.711-2.594-3.602-2.572-3.961.107-4.32 3.959-5.902 5.699-.89.961.651 1.882 1.01 2.595.93 1.84-.904 2.363-2.579 1.855-1.621-.493-3.363-.535-4.293.212-1.422 1.15-.133 1.95-.133 3.033.146 4.019-3.27 1.042-3.629.188-.186-.463-1.063-1.117-1.263-.75-.97 1.86-1.462.502-1.755.683-.518.32-1.17.765-1.528.943-.798.39-2.233.529-2.3 1.986-1.236-.286-1.568 1.099-2.805.247-1.94-1.345-3.137-5.038-1.82-7.318 1.674-2.891 4.532-5.596.983-8.105-2.765-1.95-.2-7.472-3.988-7.55-1.09-.027-2.512.203-3.03-.99-.705-1.607-2.646-.778-3.51-2.408" fill="#c83737" fill-rule="evenodd" stroke="#000" stroke-width=".144"><title>Tajikistan</title></path></svg>