<svg xmlns="http://www.w3.org/2000/svg" width="540.461" height="329.433" viewBox="0 0 142.99701 87.162369"><path class="landxx tm" d="M.062 11.466c4.134-6.742 11.857-7.886 18.81-4.64 3.442 1.608 5.077 4.6 7.496 7.162 3.324 3.519 6.434 2.21 10.967 2.563 1.967.153 3.749.231 5.809.303 2.074.067.877-1.69.651-2.082-2.725-4.69-1.714-5.297.545-7.624 1.715-1.784 5.238.741 5.264-3.018 0-3.323 4.254.751 5.384 1.02-.439-.475-3.815-3.451-3.855-3.633-.146-.723 1.9.54 3.39-1.162.678-.758 1.887.17 2.539.881.97 1.045 2.06 1.076 3.589 1.569 1.183.381.97 1.82 2.246 2.165 1.17.317 2.433 0 3.616.04 1.635.053 3.017.986 2.871 2.616-.173 1.964 1.901 1.64 2.553 3.269-.878-.14-1.316.066-.785.872.771 1.199.731 1.287.612 2.615-.186 2.174 5.051 2.814 6.38 2.69 1.622-.149 2.872.435 4.414.771 1.994.433 1.09-1.365 2.432-1.345 3.616.053 5.623 3.748 7.045 6.375 2.06 2.377 3.789 4.89 5.038 7.577 1.503 2.95 6.328 4.784 9.08 6.326 3.456 1.933 8.573 6.025 10.461 6.28 1.928.26 5.557 2.724 9.146 4.856 2.765 1.635 4.52 3.633 7.922 3.54 1.356-.08 3.058.61 4.666 1.554 1.489.872 3.403.908 3.31 1.261.718.85-.133 1.655 0 2.526.133 1.423.226 3.841 1.196 4.703-4.2 1.35-5.835-1.457-6.939-1.813-2.392-.771-2.26 1.223-2.233 1.706 0 1.604-1.103 1.875-2.286 1.844-1.183-.026-2.699-.295-3.749.311-1.33.765-1.276 2.31-1.382 3.665-.146 1.916.239 2.49 0 4.47-.24 1.597-.758 2.461-1.954 3.21-3.084 1.946-7.059 4.42-11.033 3.864.279.781.85 1.44 1.528 1.913-1.515.856.492 1.745-2.233 3.55-1.422 2.04-4.573.879-5.61 2.766-.518-1.564-1.621-2.916-3.323-3.206-2.525-.428-2.02.645-3.522-.213-.599-.347-2.805-2.254-3.75-1.813-.358-.618-.677-2.483-1.315-3.37-.917-1.555-1.01-.134-.545-2.007.319-1.293-.85-3.965-1.09-5.405-.266-1.681-1.648-1.568-3.057-1.496-1.41.08-3.071.531-4.48.186-1.888-.463-2.871-3.01-4.307-4.137-1.728-1.36-4.546-1-5.942-2.935-1.29-1.803-1.874-2.88-4.094-3.73-2.273-.87-4.068-.475-6.42-.613-2.035-.12-3.284-1.779-5.145-2.366-1.728-.546-5.105-.258-5.969-2.116-.757-1.629-1.449-2.41-3.203-2.005-.798.186-8.494-1.545-6.62 1.535-2.326.51-4.626-.747-6.952-.255-2.739.577-4.507 2.334-6.394 4.22-.864.855 0 1.956-.718 2.87-.439.55-1.236.84-1.874 1.056-1.45.493-4.015 1.239-5.397.197-1.104-.823-1.423-3.282-1.742-4.493-.69-2.693-.492-5.458-1.13-8.163-.398-1.658 1.01-4.06-.345-5.319-.784-.723-2.552-1.203-2.353-2.555 0 1.843-1.157-.457-1.994-1.207-.864-.785-2.592-1.988-3.164-.228-1.156-1.399-.997-3.57.572-4.594-2.02 1.943 2.565 1.292 3.35 1.53-.824.014-1.237-1.294-1.41-1.23-1.023.37-.784-1.563-.797-2.128-.133-2.81-4.214-1.088-5.929-2.002 1.223 1.99-.943.423-1.342-.08-.558-.704-.758-1.628-.811-2.504-.133-1.893.372-3.737.412-5.62 0-.809.32-1.992 0-2.755-.186-.494-1.662-2.048-1.05-1.833.146.053-.133-.432 0-.338.478.12 1.103 2.527 2.406 2.571-1.223.04 0 1.918 1.409.493-.24.61 0 1.31 1.037-.24.266 1.136 1.728 2.2 1.848-.753.611.176 1.302 3.136 1.993 3.317.665.167 3.403-.74 2.686-1.206.438.107 1.595-.232 1.728-.21.212.067-.97 1.117 1.502.661.213.14 0-.222-.24-.146 0-.067.187-.08.373-.252-1.462-.026-.824-.478-1.98-1.878.451-.922 2.365-.319 1.953.658 2.02.582 3.27-1.572 1.662-2.834l.797.255c-.624-2.313-7.324-3.884-7.763-5.605-.226-.907-2.406-6.34-3.642-6.761-3.881-1.321-7.524 2.415-8.401 2.994-.479.316-.28 2.395.16 2.35.717-1.775 1.076 1.255.957 2.567 0 .347 1.887 4.398 1.196 3.841-.386-1.155-1.117-2.135-1.994-2.928-1.117-1.005-1.276-2.463-2.645-3.286" fill="#c83737" fill-rule="evenodd" stroke="#000" stroke-width=".144"><title>Turkmenistan</title></path></svg>