<?xml version="1.0" encoding="UTF-8" standalone="no"?>
<!-- Created with Inkscape (http://www.inkscape.org/) -->

<svg
   xmlns:dc="http://purl.org/dc/elements/1.1/"
   xmlns:cc="http://creativecommons.org/ns#"
   xmlns:rdf="http://www.w3.org/1999/02/22-rdf-syntax-ns#"
   xmlns:svg="http://www.w3.org/2000/svg"
   xmlns="http://www.w3.org/2000/svg"
   xmlns:sodipodi="http://sodipodi.sourceforge.net/DTD/sodipodi-0.dtd"
   xmlns:inkscape="http://www.inkscape.org/namespaces/inkscape"
   width="142.99701mm"
   height="87.162369mm"
   viewBox="0 0 142.99701 87.162369"
   version="1.1"
   id="svg34162"
   inkscape:version="0.92.0 r15299"
   sodipodi:docname="turkmenistan.svg">
  <defs
     id="defs34156" />
  <sodipodi:namedview
     id="base"
     pagecolor="#ffffff"
     bordercolor="#666666"
     borderopacity="1.0"
     inkscape:pageopacity="0.0"
     inkscape:pageshadow="2"
     inkscape:zoom="0.35"
     inkscape:cx="270.23056"
     inkscape:cy="164.71628"
     inkscape:document-units="mm"
     inkscape:current-layer="layer1"
     showgrid="false"
     fit-margin-top="0"
     fit-margin-left="0"
     fit-margin-right="0"
     fit-margin-bottom="0"
     inkscape:window-width="1920"
     inkscape:window-height="1017"
     inkscape:window-x="1912"
     inkscape:window-y="-8"
     inkscape:window-maximized="1" />
  <metadata
     id="metadata34159">
    <rdf:RDF>
      <cc:Work
         rdf:about="">
        <dc:format>image/svg+xml</dc:format>
        <dc:type
           rdf:resource="http://purl.org/dc/dcmitype/StillImage" />
        <dc:title></dc:title>
      </cc:Work>
    </rdf:RDF>
  </metadata>
  <g
     inkscape:label="Layer 1"
     inkscape:groupmode="layer"
     id="layer1"
     transform="translate(88.50743,-105.25215)">
    <path
       inkscape:connector-curvature="0"
       id="tm"
       class="landxx tm"
       d="m -88.445839,116.71863 c 4.134112,-6.74217 11.857304,-7.88668 18.80951,-4.64056 3.442866,1.60844 5.07789,4.60069 7.497214,7.16224 3.323232,3.51864 6.433779,2.20929 10.966685,2.56288 1.967346,0.15286 3.748608,0.23129 5.809006,0.30309 2.073688,0.0665 0.877329,-1.69086 0.651351,-2.0817 -2.725039,-4.69107 -1.714788,-5.29722 0.54501,-7.6248 1.714786,-1.78392 5.237417,0.74172 5.263997,-3.01752 0,-3.32323 4.253746,0.75105 5.383657,1.01957 -0.438666,-0.47456 -3.815083,-3.45085 -3.854953,-3.63296 -0.146238,-0.72313 1.900873,0.5397 3.389683,-1.1618 0.677955,-0.75769 1.887606,0.17014 2.538958,0.88132 0.970383,1.04482 2.0604,1.07542 3.589104,1.56858 1.183069,0.38149 0.970383,1.81979 2.246506,2.1654 1.169781,0.31638 2.43259,0 3.615685,0.0399 1.635024,0.0532 3.01749,0.98632 2.871253,2.61604 -0.172794,1.96338 1.900896,1.64035 2.552247,3.26873 -0.877329,-0.13956 -1.315992,0.0665 -0.784275,0.87203 0.770985,1.19901 0.731115,1.28676 0.611481,2.6147 -0.186108,2.17473 5.051311,2.81413 6.380594,2.6905 1.6217605,-0.14889 2.8712785,0.43468 4.4132735,0.77099 1.993926,0.43336 1.090017,-1.36519 2.432589,-1.34525 3.61568505,0.0532 5.622923,3.74863 7.045259,6.37531 2.060424,2.37678 3.788503,4.88913 5.038021,7.57698 1.5021015,2.9497 6.3274635,4.78412 9.0790835,6.32609 3.45618,1.93281 8.57396,6.02438 10.46154,6.27958 1.92748,0.26055 5.55645,2.72373 9.14556,4.85593 2.76493,1.63503 4.51959,3.63295 7.92259,3.53989 1.35588,-0.0797 3.05738,0.61017 4.66583,1.55395 1.48881,0.87202 3.40297,0.90792 3.30994,1.26152 0.7178,0.84941 -0.13295,1.65496 0,2.52564 0.13292,1.42368 0.22598,3.84166 1.19636,4.70305 -4.20059,1.35055 -5.83561,-1.4569 -6.93892,-1.81315 -2.39274,-0.77101 -2.25979,1.22294 -2.23321,1.7068 0,1.60314 -1.10331,1.87432 -2.28638,1.84372 -1.18309,-0.0266 -2.69849,-0.2951 -3.74863,0.31108 -1.32928,0.76433 -1.2761,2.30898 -1.38244,3.66485 -0.14624,1.91552 0.23926,2.48976 0,4.46908 -0.2393,1.59781 -0.75772,2.46185 -1.95408,3.21159 -3.08397,1.94475 -7.05855,4.41989 -11.03314,3.86293 0.27916,0.78162 0.85075,1.44096 1.52868,1.91285 -1.51539,0.85605 0.49185,1.74536 -2.23322,3.55055 -1.42233,2.03912 -4.57275,0.87866 -5.6096,2.76624 -0.51843,-1.56458 -1.62174,-2.91645 -3.32324,-3.20625 -2.52566,-0.42803 -2.02052,0.64471 -3.52263,-0.21269 -0.598189,-0.34694 -2.8048015,-2.25448 -3.7486045,-1.81314 -0.358923,-0.61813 -0.677931,-2.48312 -1.315992,-3.37109 -0.917223,-1.55394 -1.010277,-0.13295 -0.545034,-2.00592 0.319032,-1.29341 -0.850749,-3.96529 -1.090015,-5.40491 -0.265848,-1.68156 -1.648314,-1.56855 -3.057361,-1.49677 -1.40907295,0.0797 -3.070677,0.53172 -4.479724,0.18608 -1.887606,-0.46259 -2.871276,-3.0095 -4.306929,-4.13676 -1.728079,-1.35986 -4.5461715,-0.99962 -5.9419275,-2.93508 -1.289415,-1.80251 -1.874316,-2.88057 -4.094218,-3.72998 -2.273112,-0.87069 -4.067665,-0.47457 -6.420514,-0.61282 -2.033818,-0.11964 -3.283339,-1.77859 -5.144366,-2.36614 -1.728075,-0.54633 -5.104468,-0.25789 -5.968507,-2.11624 -0.757719,-1.62838 -1.448941,-2.41 -3.203599,-2.00456 -0.797589,0.18608 -8.494202,-1.54465 -6.619886,1.53533 -2.326269,0.50912 -4.625962,-0.74706 -6.952207,-0.25524 -2.738353,0.57692 -4.506325,2.33425 -6.393908,4.21918 -0.864039,0.85608 0,1.95673 -0.717825,2.87128 -0.438666,0.549 -1.236255,0.8388 -1.874293,1.05545 -1.44894,0.49319 -4.014477,1.23891 -5.396944,0.19675 -1.103307,-0.82283 -1.422338,-3.28203 -1.741369,-4.49302 -0.691245,-2.69315 -0.491848,-5.45808 -1.12991,-8.16319 -0.398794,-1.65764 1.010277,-4.05966 -0.345611,-5.3185 -0.784275,-0.72313 -2.552247,-1.20303 -2.352849,-2.5549 0,1.84238 -1.156491,-0.45728 -1.99395,-1.20699 -0.864039,-0.78562 -2.592117,-1.98865 -3.163705,-0.22866 -1.15649,-1.39841 -0.996987,-3.57048 0.571588,-4.59402 -2.020529,1.94341 2.565537,1.29206 3.349813,1.53133 -0.824146,0.0134 -1.23623,-1.29472 -1.409048,-1.23092 -1.023542,0.36953 -0.784275,-1.56325 -0.797565,-2.12819 -0.132948,-2.81014 -4.213876,-1.08736 -5.928664,-2.00194 1.222964,1.98996 -0.943803,0.42273 -1.342574,-0.0798 -0.558322,-0.70451 -0.757695,-1.62838 -0.810879,-2.50437 -0.132923,-1.89291 0.372215,-3.73665 0.412085,-5.61893 0,-0.80954 0.319031,-1.99261 0,-2.75564 -0.186108,-0.4945 -1.661629,-2.04842 -1.050147,-1.83308 0.146214,0.0532 -0.132923,-0.43202 0,-0.33765 0.478559,0.11963 1.103306,2.52698 2.406034,2.57087 -1.222964,0.0399 0,1.91815 1.409047,0.49316 -0.239267,0.61014 0,1.30935 1.036857,-0.2406 0.265847,1.13655 1.728079,2.19999 1.847712,-0.75239 0.611482,0.17547 1.302704,3.13581 1.993925,3.31658 0.664666,0.16752 3.402997,-0.74041 2.685195,-1.20565 0.438665,0.10634 1.595131,-0.23263 1.728078,-0.21004 0.212688,0.0665 -0.970383,1.11662 1.502101,0.66068 0.212687,0.14088 0,-0.22201 -0.239267,-0.14624 0,-0.0665 0.186083,-0.0798 0.372191,-0.25124 -1.462232,-0.0266 -0.82417,-0.47854 -1.980636,-1.87829 0.451955,-0.92253 2.36614,-0.31903 1.954056,0.658 2.020529,0.58222 3.270048,-1.57254 1.661604,-2.83406 l 0.797589,0.25523 c -0.624772,-2.31298 -7.324421,-3.88418 -7.763085,-5.60564 -0.225977,-0.90656 -2.40601,-6.33938 -3.642264,-6.76077 -3.881531,-1.32132 -7.523795,2.41531 -8.401148,2.99357 -0.478534,0.31638 -0.279137,2.39537 0.159528,2.35019 0.717825,-1.77461 1.076726,1.25485 0.957093,2.56686 0,0.34695 1.887605,4.39864 1.196359,3.84166 -0.38548,-1.15515 -1.116596,-2.13484 -1.993949,-2.92843 -1.116596,-1.00495 -1.276099,-2.46319 -2.645277,-3.28602"
       style="fill:#c83737;fill-opacity:1;fill-rule:evenodd;stroke:#000000;stroke-width:0.14449541;stroke-miterlimit:4;stroke-dasharray:none;stroke-opacity:1">
      <title
         id="title2054">Turkmenistan</title>
    </path>
  </g>
</svg>
