<svg xmlns="http://www.w3.org/2000/svg" width="178.94" height="149.542" viewBox="0 0 47.344471 39.566219"><g class="landxx coastxx ae" transform="matrix(1.3293 0 0 1.3293 -2201.86 -709.833)" fill="#c83737" fill-rule="evenodd" stroke="#000" stroke-width=".109"><title>United Arab Emirates</title><path d="M1673.14 550.82c.5.03.88-.159 1.15-.576-.66-.54-1.48-.413-1.87.36.24.07.47.144.72.216"/><path class="landxx ae" d="M1656.51 549.524c.49-.323.68-.131.57.576.23-.222.47-.438.72-.648.46.682 0 1.668.58 2.304.51.615 1.69.473 2.38.433.89-.05 1.65-.195 2.34-.816.32-.282.68-1.107 1.11-1.2.46-.103 1.61.594 2.18.606.94.02 1.86.129 2.8.1 2.53-.09 4.28 1.076 6.76-.414-.23-.347-.47-.683-.72-1.008.78-.295.67.645 1.29.576.9-.1 1.66-1.183 2.02-1.901 1-1.958 1.13-3.073 2.87-4.528 1.7-1.417 2.39-3.972 3.99-5.295 1.78-1.464 2.84-1.855 3.36-4.26 1.29.07.73 1.938.74 2.728 0 1.494 1.64.737 1.84 2.397.19 1.665 1.33 3.842 0 5.131-2.8 2.749-1.9.825-2.33-.355-.43-1.151-1.31.958-1.17 1.668.1.538-.15.544-.1 1.121.1.618.49 1.535.5 2.26 0 2.016 2.04 1.107 1.23 2.453-.65 1.07-2.76.129-3.58 1.102 1.88 1.048-.91 5.964-1.27 8.987.13 1.978-.88 2.43-2.6 2.026-2.12-.497-4.32-.697-6.47-1.016-2.25-.334-4.51-.665-6.77-.947-1.67-.208-3.66.122-4.78-1.358-1.13-1.503-2.21-3.027-3.4-4.491-.83-1.023-1.68-2.028-2.52-3.045-.84-1.029-.97-2.092-1.62-3.182"/></g></svg>