<?xml version="1.0" encoding="UTF-8" standalone="no"?>
<!-- Created with Inkscape (http://www.inkscape.org/) -->

<svg
   xmlns:dc="http://purl.org/dc/elements/1.1/"
   xmlns:cc="http://creativecommons.org/ns#"
   xmlns:rdf="http://www.w3.org/1999/02/22-rdf-syntax-ns#"
   xmlns:svg="http://www.w3.org/2000/svg"
   xmlns="http://www.w3.org/2000/svg"
   xmlns:sodipodi="http://sodipodi.sourceforge.net/DTD/sodipodi-0.dtd"
   xmlns:inkscape="http://www.inkscape.org/namespaces/inkscape"
   width="169.81258mm"
   height="96.409882mm"
   viewBox="0 0 169.81258 96.409882"
   version="1.1"
   id="svg35312"
   inkscape:version="0.92.0 r15299"
   sodipodi:docname="uzbekistan.svg">
  <defs
     id="defs35306" />
  <sodipodi:namedview
     id="base"
     pagecolor="#ffffff"
     bordercolor="#666666"
     borderopacity="1.0"
     inkscape:pageopacity="0.0"
     inkscape:pageshadow="2"
     inkscape:zoom="0.35"
     inkscape:cx="142.33423"
     inkscape:cy="85.048956"
     inkscape:document-units="mm"
     inkscape:current-layer="layer1"
     showgrid="false"
     fit-margin-top="0"
     fit-margin-left="0"
     fit-margin-right="0"
     fit-margin-bottom="0"
     inkscape:window-width="1920"
     inkscape:window-height="1017"
     inkscape:window-x="1912"
     inkscape:window-y="-8"
     inkscape:window-maximized="1" />
  <metadata
     id="metadata35309">
    <rdf:RDF>
      <cc:Work
         rdf:about="">
        <dc:format>image/svg+xml</dc:format>
        <dc:type
           rdf:resource="http://purl.org/dc/dcmitype/StillImage" />
        <dc:title></dc:title>
      </cc:Work>
    </rdf:RDF>
  </metadata>
  <g
     inkscape:label="Layer 1"
     inkscape:groupmode="layer"
     id="layer1"
     transform="translate(54.668193,-74.925989)">
    <path
       inkscape:connector-curvature="0"
       id="uz"
       class="landxx uz"
       d="m -54.557696,81.408622 21.733948,-6.360683 c 1.967345,-0.701859 -2.645301,6.226421 0.172793,9.939126 0.132948,0.142246 0.372215,2.289054 0.890643,3.242155 0.505139,0.951762 1.262834,0.824169 1.488811,0.816185 l 1.302704,-1.312001 c -0.199398,-0.05318 -0.917223,-2.726404 -0.917223,-3.056048 -1.010253,-2.418009 -0.146214,-3.165068 -0.412085,-3.683496 0.358925,-0.792259 1.395782,-0.711156 0.677956,-1.83043 -0.545008,-0.841451 -1.462231,-2.425969 -0.837459,-3.484074 l 6.805993,3.735317 c -1.236255,2.242514 -0.970384,0.18876 -2.459194,5.216144 -0.890643,-1.698845 1.422337,2.421978 1.887583,1.486159 1.076724,-3.820388 3.85495,-1.964693 2.764932,-6.17723 l 10.248861,5.374334 c 2.5921169,0.279137 6.4736709,5.064601 11.41863793,9.750366 1.24954297,1.187062 2.65859197,2.561545 4.34679997,3.106553 1.980634,0.643393 4.77215,-0.643368 6.7528071,-1.000954 5.197526,-0.935819 10.740684,1.649653 15.765415,0.389496 1.289415,-0.325676 2.512378,-2.39805 3.974584,-1.592501 1.834446,1.018236 3.004228,2.842021 4.958281,3.815081 1.900897,0.953099 2.512354,2.311639 3.89482,3.831029 1.435653,1.58451 2.060425,0.93182 3.934717,0.763 0.412083,2.91248 0,8.82652 2.671878,10.73537 1.35589,0.94247 3.16373,-0.18608 4.18727,1.56592 1.19636,2.02185 1.63505,4.43319 2.67188,6.53083 2.04711,4.12479 8.08212,1.23757 11.61804,1.35852 2.08698,0.0665 3.42958,1.74669 3.21689,3.63165 -0.30574,2.81809 4.08093,2.56154 5.78243,3.07198 -0.14622,-1.07538 -1.99395,-2.69714 -0.9172,-3.76588 0.99696,-0.98367 1.01025,-2.15214 2.47248,-2.73836 1.22294,-0.48917 0,-1.79852 0.69122,-2.5695 0.87733,-0.9837 3.05739,-2.10828 4.20056,-2.9085 1.35589,-0.94648 3.03081,-0.93316 3.97461,-2.4273 0.43867,-0.70186 1.07673,-2.21594 1.99393,-2.42729 1.40905,-0.32701 1.44894,0.64205 2.77822,-0.72578 1.46223,-1.51542 2.83141,-1.54731 4.61265,-0.62346 -2.0604,1.93546 -7.59027,4.67778 -8.04222,7.75245 1.19636,0.0266 1.78126,0.97702 2.92446,1.10199 1.32928,0.14488 2.27308,-1.15515 3.0042,0.67659 1.24952,3.08531 4.6791,0.98635 6.51354,2.71974 0.25256,-0.54102 0.25256,-1.08337 0,-1.62838 0.51841,0 0.93049,-0.19806 1.20965,-0.62344 0.41209,-0.78296 0,-1.83575 -0.15953,-2.62933 0.837463,1.53533 2.140173,1.75997 3.429583,3.24481 1.30273,1.51006 3.28336,0.63672 3.37642,3.07199 2.35285,-1.41304 3.42957,1.16712 5.42352,1.37183 1.316,-0.0665 2.43262,-0.10634 3.38971,0.52639 0.94378,0.57292 -1.35589,1.38779 -1.56858,1.73341 -0.9438,1.57387 -1.38246,2.04445 -3.90813,0.96108 -0.13292,0.8534 0.30574,1.47683 0.67796,2.19997 -0.57162,-0.0399 -6.12807,0.29113 -3.25679,1.81848 -0.79756,0 -1.64831,0.87068 -2.49906,0.69389 -0.73112,0.22732 -0.43866,-1.23226 -1.3426,-0.18876 -0.71783,0.32434 -1.47552,-0.80555 -2.07369,-1.00494 -1.674923,-0.5583 -2.764933,0.11963 -3.868243,0.6394 -0.95709,0.44796 -1.1432,0.2233 -1.80784,0.38149 -2.20664,0.52507 -1.88761,-1.38778 -4.36009,-2.48178 -0.89062,-0.39481 1.91419,-1.64966 2.31298,-2.55624 0.22598,-0.52374 0,-1.15915 -0.42537,-1.41703 -1.27613,-0.74307 -1.83445,-2.17605 -2.97762,-3.0627 -0.45198,1.37583 -4.5462,5.06329 -6.18123,3.952 -1.1033,-0.74706 -3.16373,-2.05775 -3.64226,0.36557 -0.13292,0.51444 0.15951,1.70016 0.81086,2.6599 0.63806,1.16845 0,1.85436 0.7843,2.49642 -2.03382,0.84011 -4.73231,-1.28808 -6.50026,0.57426 1.03686,0.83612 2.67188,-0.48386 3.34982,0.95709 -0.45196,-0.0665 -0.89062,-0.0931 -1.34258,-0.0931 0.34561,0.89861 0.31903,1.04616 0.57159,1.29207 -0.13292,0.0399 0,0.3948 -0.26585,0.70853 -0.23929,0.25521 -1.11662,0.1954 -0.99698,1.02887 0.21268,1.4662 0.50514,2.63199 -1.5021,3.1225 -1.62174,0.3948 -5.47669,-0.98767 -6.79268,-0.85474 -0.43867,0.0399 -1.3426,0.31372 -1.5021,0.75372 -0.91723,2.44323 -0.3988,2.53894 -0.90394,2.99223 0.47856,1.21364 1.82114,1.07008 2.59212,1.51408 1.54199,0.87599 0.33232,1.46488 2.37945,1.81049 1.06344,0.17813 1.7015,-0.21402 3.07065,0.42803 0.9837,0.45329 0.93052,4.11815 1.40908,5.67343 0.39877,1.30536 1.88758,1.76264 2.56554,2.98826 1.06341,1.92482 -0.47856,4.09555 -1.38247,5.12842 -1.542,1.73338 -2.31298,4.07294 -0.46527,7.39618 -2.23322,-1.78791 -1.95406,-1.3519 -2.89786,-1.26016 -2.67188,0.26319 -2.99091,0.52639 -3.92142,-0.46792 -0.58488,-0.62477 -1.4755,-1.02753 -2.32625,-1.22827 -1.01028,-0.23795 -2.47248,0.24725 -3.46947,0.0798 -1.27612,-1.10599 -0.89062,-2.43395 -1.27612,-3.51465 -0.46525,-1.26283 1.47552,-3.53195 -0.63807,-4.10354 -1.32928,-0.36024 -2.35285,-0.53172 -3.54921,-1.30935 -2.03382,-1.32665 -3.52263,-0.87735 -5.74255,-1.28411 -2.33954,-0.42537 -4.20056,-2.35151 -6.11475,-3.57578 -1.834423,-1.16847 -3.788476,-1.76664 -5.529869,-3.12119 -1.648314,-1.28145 -3.642264,-1.10464 -5.277289,-2.24385 -2.033817,-1.43032 -4.200559,-2.70114 -6.26096,-4.12348 -3.190308,-2.2013 -9.929828,-4.47042 -11.564876,-8.19242 -1.528681,-3.49739 -4.227142,-5.51924 -5.955221,-8.98471 -0.930513,-1.87429 -2.0737111,-3.09726 -4.0277681,-3.94932 -0.518427,-0.226 -1.422336,-0.71783 -2.007237,-0.57427 -0.837459,0.20604 -0.265848,1.29207 -1.249545,1.38778 -1.91416,0.18479 -3.37639297,-1.1073 -6.181196,-0.78294 -1.661628,0.19273 -3.137149,-0.4945 -4.612672,-1.17377 -0.279135,-0.13293 -0.770985,-0.49317 -1.050121,-1.0023 -0.265871,-0.5091 0.199396,-1.27877 0,-1.88361 -0.159527,-0.60481 -0.943803,-1.51804 -0.864039,-1.93147 0,-0.41206 0.584878,-0.32699 0.996961,-0.26054 -0.611481,-1.60445 -2.5256679,-1.10065 -2.6320089,-3.11585 -0.132924,-2.02851 -1.369179,-2.74366 -3.363103,-2.71309 -0.943803,0.0134 -3.85495,0.31769 -4.227166,-0.92786 -0.571587,-1.88359 -2.512354,-1.30136 -3.86824,-2.16275 -0.638064,-0.41075 -2.246508,-2.41268 -3.137125,-1.71345 -1.090017,0.85472 -1.316019,1.20167 -2.911173,1.01159 -2.299666,-0.27385 2.990911,3.1677 3.190309,3.87754 -1.276123,-0.30041 -1.608445,-1.06344 -2.964307,-1.73073 -0.45198,-0.22466 -2.246507,-1.36119 -2.339561,0.62609 -0.186107,4.07827 -3.894845,1.35987 -5.516579,3.32057 -2.246507,2.69981 -2.33956,3.06404 -1.036857,6.21579 0.425375,0.99562 1.821132,2.03647 1.050147,2.99622 -0.491825,0.63407 -3.230179,0.15819 -3.961295,0.13292 -2.964332,-0.10634 -5.224128,-0.24722 -6.061587,-0.17544 L -54.59759,81.419234"
       style="fill:#c83737;fill-opacity:1;fill-rule:evenodd;stroke:#000000;stroke-width:0.14449541;stroke-miterlimit:4;stroke-dasharray:none;stroke-opacity:1">
      <title
         id="title2485">Uzbekistan</title>
    </path>
  </g>
</svg>
