<svg xmlns="http://www.w3.org/2000/svg" width="641.811" height="364.384" viewBox="0 0 169.81258 96.409882"><path class="landxx uz" d="M.11 6.483L21.844.122c1.968-.702-2.645 6.226.173 9.94.133.141.372 2.288.89 3.241.506.952 1.264.824 1.49.816l1.302-1.312c-.199-.053-.917-2.726-.917-3.056-1.01-2.418-.146-3.165-.412-3.683.359-.792 1.396-.711.678-1.83-.545-.842-1.462-2.427-.837-3.485l6.806 3.736c-1.237 2.242-.97.188-2.46 5.216-.89-1.699 1.423 2.422 1.888 1.486 1.077-3.82 3.855-1.965 2.765-6.177l10.249 5.374c2.592.28 6.473 5.065 11.418 9.75 1.25 1.188 2.659 2.562 4.347 3.107 1.98.643 4.772-.643 6.753-1 5.198-.937 10.74 1.649 15.765.389 1.29-.326 2.513-2.398 3.975-1.593 1.834 1.018 3.004 2.842 4.958 3.815 1.901.953 2.513 2.312 3.895 3.831 1.436 1.585 2.06.932 3.935.763.412 2.913 0 8.827 2.672 10.736 1.356.942 3.163-.187 4.187 1.565 1.196 2.022 1.635 4.434 2.672 6.531 2.047 4.125 8.082 1.238 11.618 1.359 2.087.066 3.43 1.746 3.217 3.631-.306 2.819 4.08 2.562 5.782 3.072-.146-1.075-1.994-2.697-.917-3.765.997-.984 1.01-2.153 2.472-2.739 1.223-.489 0-1.798.692-2.57.877-.983 3.057-2.108 4.2-2.908 1.356-.946 3.031-.933 3.975-2.427.439-.702 1.077-2.216 1.994-2.427 1.409-.327 1.449.642 2.778-.726 1.462-1.516 2.831-1.547 4.613-.624-2.06 1.936-7.59 4.678-8.043 7.753 1.197.026 1.782.977 2.925 1.102 1.33.145 2.273-1.155 3.004.676 1.25 3.086 4.68.987 6.514 2.72a1.845 1.845 0 0 0 0-1.628c.518 0 .93-.198 1.21-.624.411-.783 0-1.835-.16-2.629.837 1.535 2.14 1.76 3.43 3.245 1.302 1.51 3.283.637 3.376 3.072 2.353-1.413 3.43 1.167 5.423 1.372 1.316-.067 2.433-.107 3.39.526.944.573-1.356 1.388-1.569 1.733-.943 1.574-1.382 2.045-3.908.961-.133.854.306 1.477.678 2.2-.571-.04-6.128.292-3.257 1.819-.797 0-1.648.87-2.499.694-.73.227-.438-1.232-1.342-.189-.718.324-1.476-.805-2.074-1.005-1.675-.558-2.765.12-3.868.64-.957.447-1.143.223-1.808.381-2.207.525-1.888-1.388-4.36-2.482-.89-.395 1.914-1.65 2.313-2.556.226-.524 0-1.16-.425-1.417-1.277-.743-1.835-2.176-2.978-3.063-.452 1.376-4.546 5.064-6.181 3.952-1.104-.747-3.164-2.057-3.643.366-.132.514.16 1.7.811 2.66.638 1.168 0 1.854.785 2.496-2.034.84-4.733-1.288-6.5.574 1.036.837 2.671-.483 3.35.958a9.113 9.113 0 0 0-1.343-.094c.345.899.319 1.047.571 1.292-.133.04 0 .395-.266.709-.239.255-1.116.195-.997 1.029.213 1.466.505 2.632-1.502 3.122-1.621.395-5.476-.987-6.792-.854-.44.04-1.343.313-1.503.753-.917 2.444-.398 2.54-.903 2.993.478 1.213 1.82 1.07 2.592 1.514 1.542.876.332 1.465 2.38 1.81 1.063.178 1.7-.214 3.07.428.983.453.93 4.118 1.409 5.674.399 1.305 1.887 1.762 2.565 2.988 1.064 1.925-.478 4.095-1.382 5.128-1.542 1.734-2.313 4.073-.465 7.396-2.234-1.787-1.954-1.351-2.898-1.26-2.672.264-2.991.527-3.922-.468-.585-.624-1.475-1.027-2.326-1.228-1.01-.238-2.472.247-3.47.08-1.275-1.106-.89-2.434-1.275-3.515-.466-1.263 1.475-3.532-.639-4.103-1.329-.36-2.352-.532-3.549-1.31-2.034-1.326-3.522-.877-5.742-1.284-2.34-.425-4.2-2.351-6.115-3.575-1.834-1.169-3.789-1.767-5.53-3.122-1.648-1.281-3.642-1.104-5.277-2.244-2.034-1.43-4.2-2.7-6.261-4.123-3.19-2.201-9.93-4.47-11.565-8.192-1.529-3.498-4.227-5.52-5.955-8.985-.93-1.874-2.074-3.097-4.028-3.95-.518-.225-1.422-.717-2.007-.574-.838.206-.266 1.292-1.25 1.388-1.914.185-3.376-1.107-6.181-.783-1.662.193-3.137-.494-4.613-1.174a2.588 2.588 0 0 1-1.05-1.002c-.266-.51.2-1.279 0-1.884-.16-.604-.944-1.518-.864-1.931 0-.412.585-.327.997-.26-.611-1.605-2.526-1.101-2.632-3.116-.133-2.029-1.37-2.744-3.363-2.714-.944.014-3.855.318-4.227-.927-.572-1.884-2.513-1.302-3.868-2.163-.638-.41-2.247-2.413-3.138-1.714-1.09.855-1.316 1.202-2.91 1.012-2.3-.274 2.99 3.168 3.19 3.878-1.277-.3-1.609-1.064-2.965-1.731-.452-.225-2.246-1.361-2.34.626-.185 4.078-3.894 1.36-5.516 3.32-2.246 2.7-2.34 3.065-1.037 6.216.426.996 1.821 2.037 1.05 2.996-.491.635-3.23.159-3.96.133-2.965-.106-5.225-.247-6.062-.175L.07 6.493" fill="#c83737" fill-rule="evenodd" stroke="#000" stroke-width=".144"><title>Uzbekistan</title></path></svg>