<svg xmlns="http://www.w3.org/2000/svg" width="471.384" height="591.878" viewBox="0 0 124.72047 156.60117"><g class="landxx ao" transform="matrix(1.3293 0 0 1.3293 -1807.942 -1060.2)" fill="#cbe6a3" fill-rule="evenodd" stroke="#000" stroke-width=".109"><title>Angola</title><path d="M1360.14 908.85c-.11-3.509.84-7.05.44-10.57-.1-.544-.46-1.068-.23-1.625.32-.796 1.2-1.259 1.55-2.087.28-.664.31-1.381.4-2.085.1-.634.92-1.41.71-1.947-.44-1.146 1.12-4.228 1.37-5.515.36-1.837 0-3.832.99-5.444.69-1.074.25-3.32 1.04-4.014.82-.713 2.13-2.26 2.64-3.221.76-1.419.3-3.665 2.59-3.875 1.62-.147 1.76-1.387 2.56-2.783 1.9-3.314 2.43-8.451 1.56-12.122-.41-1.695-1.07-2.902-2.03-4.335-.99-1.492-1.02-2.651-1.57-4.212-.25-.712-.88-1.249-.98-2.01-.12-.931 0-1.793-.39-2.669-.61-1.3-1.83-2.981 0-3.913-.49.353-.84.897-.79 1.52.39-.731.81-1.479 1.41-2.064.47-.468 1.24-.439 1.33-1.188.21-1.952-.19-3.743-1.12-5.449-1.05-1.919-1.6-3.93-2.42-5.951-.36-.896-.33-1.893-.59-2.815-.39-1.371-1.66-2.297-2.36-3.491-.58-.977-2.59-4.384-.84-4.926.81-.25 1.65-.255 2.48-.363 1.15-.151 1.72-1.188 3-1.311 5.89-.566 11.84.106 17.76-.03 2.25-.05 4.56-.23 6.8-.149 2.11.08 1.66 1.516 2.64 2.87.41.564 0 2.271.22 3.023.34 1.354 1 2.588 1.5 3.881.39 1.002-.21 1.879.63 2.777.9.958 1.14 1.655 1.68 2.821.33.717 1.88 4.091 2.9 3.809.61-.169 3.72.07 3.72.06-.16-.393 3.35-1.408 3.99-1.266 1.8.399 3.45.61 5.58.61-.26-1.258.49-2.494.1-3.74 1.06.228 1.16-.79 1.02-1.565-.18-1.073.65-2.394.28-3.335 1.85 0 3.71.04 5.56.02.55 0 .22-.649.68-.802.64-.219 1.38 0 2.04 0-.41 2.063-1.54 3.24 1.08 3.24 2.3 0 4.61-.121 6.9-.07 1.9.04 1.55 1.943 1.11 3.224-.25.719-.57 1.453-.64 2.219-.1 1.214.95 2.44 1.17 3.653.45 2.548-.49 5.367-.69 7.928-.21 2.671.74 3.721 2.27 5.721 1.08 1.412 1.62 5.067 1.3 6.795-.12.609-.69.996-.9 1.575-.4 1.076.69 2.109.35 3.225.93.02 1.76-1.304 2.52-1.712.65-.35 2.61.176 3.33.375 1.28.353 2.79-1.085 4.16-1.032 1.3.05 2.76.86 3.31-.87.61.881.68 3.681.5 4.677-.25 1.379-.23 2.754-.57 4.118-.41 1.642.64 3.141.21 4.745-.43 1.618-1.59 2.937-.21 4.46-2.84 1.197-6.81.621-9.84.604-1.52 0-3.29-.374-4.8-.173-1.33.178-.67 5.114-.73 6.694-.16 4.203.1 7.169-.1 10.385-.16 3.204 0 6.469-.1 9.68-.1 3.282 2.19 4.159 4.08 6.501 2.02 2.498 4.05 5.005 6.78 6.778-4.46.867-8.94 1.625-13.34 2.765-1.75.455-2.43.01-4.09-.175-.74-.08-1.37.273-2.05.497-1.1.364-2.14-.171-3.19-.459-3.74-1.021-7.73-.61-11.53-1.203-1.63-.254-2.46-1.663-3.23-2.93-.69-1.127-2.9-.662-4.05-.608-9.31.436-18.88.02-28.2.02-1.92 0-2.13-.119-3.78-1.418-1.67-1.306-2.98-2.93-5.22-1.936-1.66.733-3.37 2.731-5.26 1.829-2.32-1.106-2.65.04-4.4.358M1362.37 802.94c1.29-1.013 2.75-3.61 4.45-3.951.75-.151.68-1.373 1.52-1.369.94 0 1.54 1.493 2.16 2.011-1.52 1.037-2.88 1.959-4.19 3.267-.64.639-.46.64-.16 1.377.41 1.039.18 2.267.1 3.341-.13 1.458-2.87 2.643-2.89.734 0-1.053.56-1.3.24-2.464-.24-.856-1.54-2.296-.49-3.085-.24.04-.48.09-.72.139"/></g></svg>