<svg xmlns="http://www.w3.org/2000/svg" width="302.353" height="247.902" viewBox="0 0 79.997551 65.59079"><path class="landxx bf" d="M.067 53.535c.705-1.839 1.343-3.968.918-5.934-.466-2.15.837-.866 1.661-2.477.505-.997 1.622-4.03.439-4.94-.784-.613.784-1.997-1.582-2.631 1.103.053 1.808-.81 2.645-1.326 1.37-.84 3.337-.151 4.76-1.017 1.727-1.059 3.828-5.173 2.299-6.98-.731-.864.332-1.44 1.29-1.328 1.448.168 1.329-1.143 1.116-2.286-.146-.747-1.622-1.857-.332-2.305.983-.346 2.34-3.141 2.964-3.997-.133 1.683 3.895 3.693 5.264 3.83-.32-1.597.718-1.386 2.007-1.34-.173-1.46.558-3.445-.2-4.787 1.078.206 2.194.282 3.165.861 1.448-2.177 1.276-6.957 5.038-7.347 1.86-.191 4.16 2.753 4.532-.538.187-1.765 2.14-1.538 3.35-2.166 1.569-.812 2.765-1.998 4.4-2.772 1.954-.931 5.53-5.756 8.268-3.288.519.468 1.795-.62 2.632-.367 1.144.347 2.3.745 3.377 1.266 1.661.797-1.396 5.014 1.156 6.398 1.569.853.333 3.514 1.502 4.699.665.668 2.021 2.057 1.795 2.94 1.25.496 4.533 2.703 6.633 4.334-.944.464-1.808.44-2.672-.193-1.302 3.307 3.058 7.143 5.69 8.394 2.113 1.004 3.296-1.512 4.798-1.075 1.237.359 1.476 2.314 1.954 3.305-3.363 1.156-.558 3.082.678 5.395 1.33 2.463-1.86 6.04-4.28 6.197-.598.04-2.911.71-3.35.365-1.183-.95-1.449-.466-2.446.425-1.954 1.757-3.057 4.065-5.556 4.424-3.855.55-4.546-.671-6.82-1.095-1.103-.204-2.126-.567-3.27-.583-.996-.013-3.615 2.583-4.36 2.259-1.794-.787 2.18-.858-11.392-.814-4.506.014-7.164.32-10.793-.013.438 2.074-1.556 3.144-.997 4.402.77 1.71 1.143 3.064 1.449 4.851.265 1.518.412 3.414.226 5.12-.16 1.496 1.01 3.298 0 4.099-1.675-1.25-3.27-4.251-4.4-6.029-.958 1.427-4.826-.281-6.315.287-1.635.623-5.05 1.124-5.077 3.446-1.037-.177-4.653-1.694-5.291-2.478-.585-.73-1.21-1.104-1.33-1.693-.212-1.14-1.262-3.324-2.086-3.773-1.396-.758-2.938.35-3.443-1.723" fill="#cbe6a3" fill-rule="evenodd" stroke="#000" stroke-width=".144"><title>Burkina Faso</title></path></svg>