<svg xmlns="http://www.w3.org/2000/svg" width="70.736" height="93.379" viewBox="0 0 18.715635 24.70644"><path class="landxx bi" d="M.07 5.132c1.25-4.037 3.443.376 3.748.413 4.467.519 5.357-.94 5.73-5.398 2.445 2.106 1.674-.942 7.204.979-.93.454-3.31 3.037-1.462 2.956-1.555 4.077 1.529 4.236 3.257 3.722-1.05 1.602 1.303 2.274-.944 3.879-1.382.991-1.343.434-1.648 2.22-.133.438-1.702.22-1.968.788-.305.631.97 2.078.825 2.478-.133.26-.798 1.64-1.954 2.495-1.835 1.34-2.087 2.919-4.028 4.17-.957.617-1.941.799-2.792.8-.345-1.162-2.42-5.534-2.818-6.968-.585-2.07.24-4.213-1.143-6.01.16-1.014.665-2.252-.146-3.376C1.213 7.285.402 6.35.07 5.132" fill="#cbe6a3" fill-rule="evenodd" stroke="#000" stroke-width=".144"><title>Burundi</title></path></svg>