<svg xmlns="http://www.w3.org/2000/svg" width="500.852" height="383.22" viewBox="0 0 132.51721 101.39352"><path class="landxx cf" d="M93.847 18.305c-.147 2.727-2.526 3.096-2.167 5.102.345-.12.704-.254 1.05-.382.28 1.065-.306 2.021-.665 2.966 2.127.387 4.626-.162 6.594.92.505.168.744.517.744 1.16-.572 2.535-.133 3.38 1.888 3.72 1.329.323 3.177.08 4.32.945 1.33 1.005 2.007 2.116 3.443 3.185 2.246 1.666.518 2.954.492 3.791 0 1.41 1.954 2.422 3.044 3.065 1.17.694 2.446 1.463 3.655 2.083 2.366 1.209 1.648 1.861 2.513 3.239.611.973 3.243 1.466 2.525 2.91-.97 1.922-.173 2.254 1.01 3.357 1.077 1.01-.132 1.857 1.715 3.074 1.183.775 2.366 1.168 3.656 1.834 2.087 1.071 2.871 2.336 2.778 4.607-.133 2.122 1.356 3.286 2.007 5.082-1.675-1.82-3.908-2.56-5.397-1.014-.624.657-1.927.494-2.698.416a1.304 1.304 0 0 0-1.09.08c-.864.436-1.17-.378-1.835-.637-1.329-.518-2.419-1.595-3.828-1.192-2.831.804-2.924-1.073-4.719-1.35-1.156-.178-1.954.561-1.728 1.7.359 1.866-1.834 2.151-3.137 2.56-1.303.408-3.084 1-4.28.12-.652-.471-2.06-2.503-2.446-1.233-.519 1.741-4.081 2.898-5.597 3.172-2.751.5-4.52 3.09-5.69 1.817-1.315-1.44-2.79-3.52-4.984-.963-.665.778-.598 1.95-1.103 2.801-.705 1.162-.851 2.739-2.1 3.59-1.729 1.189-5.823-1.408-7.976-1.327-1.263.04-1.516.418-2.991-.067-1.516-.504-2.034.231-3.084-1.069-1.05-1.305-3.257-.196-4.746-.462-1.847-.334-1.887-2.891-2.924-3.898-1.795-1.752-4.52-2.964-6.248-4.015-2.432-1.483-5.902 1.581-7.138 3.707-.705 1.21-1.702 2.418-2.194 3.73-.372 1.025-1.847.85-2.233 1.433-.611.934.944 2.855.838 3.939-.173 1.57-.32 2.254-.253 5.787-1.316-2.198-4.666-.297-6.925-.634-1.024-.15-2.765-.97-3.696-1.402-1.808-.832-3.297.865-5.131 1.228-2.698.534-4.865-.397-5.463 2.951-.32 1.808-.133 3.777-.466 5.527-.438 2.35-2.02 4.618-2.831 6.878-.598-2.632-1.077-4.977-1.276-7.653-.186-2.686-3.03-2.545-4.44-4.114-.691-.772-7.91-9.204-4.613-9.288-1.701-1.205-1.356-3.856-3.11-5.225-2.273-1.775-1.941-4.324-2.034-6.992 0-.997-1.33-1.679-1.29-2.348 0-.986.625-1.994.692-3.033 0-1.135 0-2.36-.253-3.466-.292-1.038-1.568-.554-1.954-1.91.652-1.058 1.635-1.761 2.566-2.536 1.462-1.202 1.608-2.583 2.539-4.093C6.79 47.91 7.88 44.064 9.689 41.62c2.22-3.032 2.579-.959 5.437-1.792 1.502-.435 2.672-.749 4.12-1.213 1.436-.458 1.05-2.019 2.566-2.562.412 1.607 1.675 2.524 2.579 3.828.798-1.594 3.257-2.37 4.014-2.942 2.367-1.802 6.089-2.528 8.92-2.535 2.486 0 4.918.698 6.141-1.596.851-1.62 4.334-4.492 4.161-6.037-.133-.958-2.246-.712-2.34-1.94-.146-1.888 5.637-1.937 7.152-1.912 4.732.08 9.93-1.778 13.014-5.61 1.635-2.017 2.632-4.183 4.732-5.74 1.064-.789 4.028-3.474 3.443-4.708-.744-1.554.479-3.108 2.34-3.558 2.126-.51 3.761-3.17 6.234-3.23 2.978-.066 3.669 1.867 4.985 3.465 2.074 2.512 4.32 4.383 5.543 7.07 1.236 2.752 1.396 5.001 1.117 7.71z" fill="#cbe6a3" fill-rule="evenodd" stroke="#000" stroke-width=".144"><title>Central African Republic</title></path></svg>