<?xml version="1.0" encoding="UTF-8" standalone="no"?>
<!-- Created with Inkscape (http://www.inkscape.org/) -->

<svg
   xmlns:dc="http://purl.org/dc/elements/1.1/"
   xmlns:cc="http://creativecommons.org/ns#"
   xmlns:rdf="http://www.w3.org/1999/02/22-rdf-syntax-ns#"
   xmlns:svg="http://www.w3.org/2000/svg"
   xmlns="http://www.w3.org/2000/svg"
   xmlns:sodipodi="http://sodipodi.sourceforge.net/DTD/sodipodi-0.dtd"
   xmlns:inkscape="http://www.inkscape.org/namespaces/inkscape"
   width="62.218567mm"
   height="73.41568mm"
   viewBox="0 0 62.218567 73.41568"
   version="1.1"
   id="svg10123"
   inkscape:version="0.92.0 r15299"
   sodipodi:docname="cotedeivoire.svg">
  <defs
     id="defs10117" />
  <sodipodi:namedview
     id="base"
     pagecolor="#ffffff"
     bordercolor="#666666"
     borderopacity="1.0"
     inkscape:pageopacity="0.0"
     inkscape:pageshadow="2"
     inkscape:zoom="0.35"
     inkscape:cx="117.5784"
     inkscape:cy="138.73836"
     inkscape:document-units="mm"
     inkscape:current-layer="layer1"
     showgrid="false"
     fit-margin-top="0"
     fit-margin-left="0"
     fit-margin-right="0"
     fit-margin-bottom="0"
     inkscape:window-width="1920"
     inkscape:window-height="1017"
     inkscape:window-x="1912"
     inkscape:window-y="-8"
     inkscape:window-maximized="1" />
  <metadata
     id="metadata10120">
    <rdf:RDF>
      <cc:Work
         rdf:about="">
        <dc:format>image/svg+xml</dc:format>
        <dc:type
           rdf:resource="http://purl.org/dc/dcmitype/StillImage" />
        <dc:title></dc:title>
      </cc:Work>
    </rdf:RDF>
  </metadata>
  <g
     inkscape:label="Layer 1"
     inkscape:groupmode="layer"
     id="layer1"
     transform="translate(48.118213,-112.12551)">
    <path
       inkscape:connector-curvature="0"
       id="ci"
       class="landxx ci"
       d="m -48.052698,160.83991 c 0.571612,-1.22961 2.047133,-1.49811 2.565537,-2.81943 0.345635,-0.87602 0.611482,-2.27443 0.664666,-3.20893 0.132923,-1.69483 -0.571612,-4.77481 -1.794552,-6.031 0.784275,-0.82947 1.874292,-0.40278 2.671881,0.0931 0.172793,-1.00495 1.781238,-2.10029 1.1432,-3.20625 -0.505138,-0.89464 0.332321,-2.7995 1.541971,-2.15348 -0.917223,-1.35854 -2.512378,-2.20131 -2.924438,-3.87754 -0.77101,-3.15441 5.11776,-0.67396 6.074853,-0.23795 -0.691222,-2.09497 -0.425375,-4.43187 -3.150415,-4.88117 0.491848,-1.39841 0.505138,-2.88854 2.299666,-3.1584 -1.488787,-1.76929 -1.781238,-1.38646 -1.24952,-4.01979 -3.243493,2.091 -3.110545,-5.10447 -2.68517,-6.69962 0.412084,-1.53667 1.502101,-1.92748 2.857964,-2.32627 0.731115,-0.21668 0.784299,-1.58985 1.355887,-2.07637 0.837459,-0.71515 1.834421,-0.25255 2.778224,-0.66995 -0.199397,1.86631 3.575814,3.72999 5.077915,3.0627 -1.023566,-1.68422 0.704511,-1.77993 1.940765,-1.75999 1.648315,0.0266 1.063437,-2.70245 1.116597,-3.79116 0.651351,0.36024 1.315993,1.58053 2.206636,1.33992 0.850749,-0.23262 1.023542,-1.83176 1.914186,-2.2013 0.731115,1.32663 -0.305741,5.79041 1.595154,6.26629 1.741369,0.42803 0.345611,-3.33387 5.583029,-3.17568 0.50514,0.0134 -1.116621,1.51008 3.070675,1.77462 1.967346,0.11963 2.379429,4.01844 2.645277,4.33747 1.3824673,1.64965 3.9612943,3.38706 6.5268323,3.90945 0,-2.32228 3.44289096,-2.82342 5.07791496,-3.44552 1.48881104,-0.56893 5.35705104,1.13921 6.31414404,-0.28712 1.595154,1.90221 2.246508,3.97325 4.3999597,6.02834 0.239268,-0.30708 0.465267,-0.62611 0.677931,-0.95709 0.624771,1.89955 -0.850725,3.71404 -0.571587,4.67379 0.451953,1.59649 1.395756,2.36747 1.608444,4.21387 0.186108,1.52868 1.129909,4.10885 0.571611,5.54847 -0.638061,1.62042 -1.44894,2.48845 -2.246505,3.95995 -1.050147,1.95939 -2.8446997,3.0986 -2.7915397,5.27067 0.132948,2.82739 -1.315992,4.88782 -1.88758,6.98412 -0.611483,2.21859 -0.332322,5.79437 1.036831,7.59423 1.342599,1.77197 1.96737,4.16337 1.448943,6.06824 3.4029937,-0.94247 1.4090467,4.22716 1.9673437,5.8396 -0.691221,0 -1.355863,0.0797 -2.0072137,0.28712 0.199395,-0.36557 0.412059,-0.71783 0.6646407,-1.0528 -1.5951537,2.40335 -2.9244627,-0.62078 -3.2567817,-1.81848 -0.86404,0.95709 -1.196362,2.28372 -2.671882,2.39272 -0.957093,0.0665 -2.180032,-0.38283 -2.871253,-1.0528 -0.53172004,0.97437 -1.74139204,0.0532 -2.20663804,-0.38283 0.837459,-0.18345 1.754658,0.63142 2.39271904,-0.28712 -0.279135,-0.31107 -0.59816704,-0.56628 -0.95709304,-0.76568 0.398796,1.91153 -0.385479,0.13293 -1.71478796,0.47854 0.27916196,0.56762 -3.150415,0.24326 -3.987874,0.33499 -0.425373,0.0532 -4.665829,0.80687 -4.333507,0.99166 2.140161,1.1525 6.314143,-2.53365 8.028955,-0.36956 -2.645301,0.1449 -5.184259,0.58091 -7.789666,1.04216 -0.584901,0.10635 -1.7945503,0.3536 -2.1667663,-0.33629 -0.531717,-0.97172 -3.097255,-0.52906 -4.014454,0.34693 1.502101,-0.6035 2.33956,-0.44266 3.82837,0.093 -3.256783,0.37353 -6.726229,0.19541 -9.810194,1.52204 -2.645301,1.14453 -5.024731,3.29665 -7.989063,3.5984 -1.515391,0.1542 -4.745569,1.86102 -5.8489,2.92977 -2.499063,2.40204 -2.937727,-2.03514 -2.552223,-3.86294 0.465245,-2.17472 1.22294,-4.57543 1.821132,-6.37395 0.797565,-2.38476 0.132924,-4.98751 -1.767972,-6.57203 -1.1432,-0.96108 -2.818094,-1.3931 -2.618697,-3.40698 0.212688,-2.31031 -6.832572,-0.30042 -5.410235,-2.95635 -0.85075,0.19275 -1.608445,-0.18343 -2.193347,-0.76568"
       style="fill:#cbe6a3;fill-opacity:1;fill-rule:evenodd;stroke:#000000;stroke-width:0.14449541;stroke-miterlimit:4;stroke-dasharray:none;stroke-opacity:1">
      <title
         id="title269">Cote d'Ivoire</title>
    </path>
  </g>
</svg>
