<svg xmlns="http://www.w3.org/2000/svg" width="235.157" height="277.477" viewBox="0 0 62.218567 73.41568"><path class="landxx ci" d="M.066 48.714c.571-1.23 2.047-1.498 2.565-2.819.346-.876.612-2.274.665-3.209.133-1.695-.572-4.775-1.795-6.031.784-.83 1.874-.403 2.672.093.173-1.005 1.781-2.1 1.143-3.206-.505-.895.333-2.8 1.542-2.154-.917-1.358-2.512-2.2-2.924-3.877-.771-3.155 5.118-.674 6.075-.238-.692-2.095-.426-4.432-3.15-4.881.491-1.399.504-2.889 2.299-3.159-1.489-1.769-1.781-1.386-1.25-4.02-3.243 2.092-3.11-5.104-2.685-6.7.412-1.536 1.502-1.927 2.858-2.325.731-.217.784-1.59 1.356-2.077.838-.715 1.834-.252 2.778-.67-.2 1.867 3.576 3.73 5.078 3.063-1.023-1.684.705-1.78 1.94-1.76 1.65.027 1.064-2.702 1.118-3.791.65.36 1.316 1.58 2.206 1.34.85-.233 1.024-1.832 1.914-2.201.731 1.326-.305 5.79 1.596 6.266 1.74.428.345-3.334 5.583-3.176.505.014-1.117 1.51 3.07 1.775 1.968.12 2.38 4.018 2.646 4.337 1.382 1.65 3.96 3.387 6.526 3.91 0-2.323 3.443-2.824 5.078-3.446 1.49-.569 5.357 1.14 6.314-.287 1.596 1.902 2.247 3.973 4.4 6.028.24-.307.466-.626.678-.957.625 1.9-.85 3.714-.571 4.674.452 1.597 1.395 2.368 1.608 4.214.186 1.529 1.13 4.109.572 5.548-.638 1.62-1.45 2.489-2.247 3.96-1.05 1.96-2.844 3.099-2.791 5.271.133 2.827-1.316 4.888-1.888 6.984-.611 2.219-.332 5.795 1.037 7.594 1.343 1.772 1.967 4.164 1.449 6.069 3.403-.943 1.409 4.227 1.967 5.84-.691 0-1.356.079-2.007.286.2-.365.412-.717.665-1.052-1.595 2.403-2.925-.621-3.257-1.819-.864.957-1.196 2.284-2.672 2.393-.957.066-2.18-.383-2.871-1.053-.532.974-1.742.053-2.207-.383.838-.183 1.755.632 2.393-.287a3.68 3.68 0 0 0-.957-.766c.399 1.912-.386.133-1.715.479.28.568-3.15.243-3.988.335-.425.053-4.666.807-4.333.992 2.14 1.152 6.314-2.534 8.029-.37-2.646.145-5.185.58-7.79 1.042-.585.106-1.795.354-2.167-.336-.532-.972-3.097-.53-4.014.347 1.502-.604 2.34-.443 3.828.093-3.257.373-6.726.195-9.81 1.522-2.645 1.144-5.025 3.296-7.99 3.598-1.515.154-4.745 1.861-5.848 2.93-2.5 2.402-2.938-2.035-2.552-3.863.465-2.175 1.223-4.575 1.82-6.374.798-2.385.134-4.987-1.767-6.572-1.143-.961-2.818-1.393-2.619-3.407.213-2.31-6.832-.3-5.41-2.956-.85.192-1.609-.184-2.193-.766" fill="#cbe6a3" fill-rule="evenodd" stroke="#000" stroke-width=".144"><title>Cote d&apos;Ivoire</title></path></svg>