<?xml version="1.0" encoding="UTF-8" standalone="no"?>
<!-- Created with Inkscape (http://www.inkscape.org/) -->

<svg
   xmlns:dc="http://purl.org/dc/elements/1.1/"
   xmlns:cc="http://creativecommons.org/ns#"
   xmlns:rdf="http://www.w3.org/1999/02/22-rdf-syntax-ns#"
   xmlns:svg="http://www.w3.org/2000/svg"
   xmlns="http://www.w3.org/2000/svg"
   xmlns:sodipodi="http://sodipodi.sourceforge.net/DTD/sodipodi-0.dtd"
   xmlns:inkscape="http://www.inkscape.org/namespaces/inkscape"
   width="194.03482mm"
   height="216.27505mm"
   viewBox="0 0 194.03482 216.27505"
   version="1.1"
   id="svg25588"
   inkscape:version="0.92.0 r15299"
   sodipodi:docname="democraticrepublicofthecongo.svg">
  <defs
     id="defs25582" />
  <sodipodi:namedview
     id="base"
     pagecolor="#ffffff"
     bordercolor="#666666"
     borderopacity="1.0"
     inkscape:pageopacity="0.0"
     inkscape:pageshadow="2"
     inkscape:zoom="0.35"
     inkscape:cx="376.67998"
     inkscape:cy="360.13734"
     inkscape:document-units="mm"
     inkscape:current-layer="layer1"
     showgrid="false"
     fit-margin-top="0"
     fit-margin-left="0"
     fit-margin-right="0"
     fit-margin-bottom="0"
     inkscape:window-width="1920"
     inkscape:window-height="1017"
     inkscape:window-x="1912"
     inkscape:window-y="-8"
     inkscape:window-maximized="1" />
  <metadata
     id="metadata25585">
    <rdf:RDF>
      <cc:Work
         rdf:about="">
        <dc:format>image/svg+xml</dc:format>
        <dc:type
           rdf:resource="http://purl.org/dc/dcmitype/StillImage" />
        <dc:title></dc:title>
      </cc:Work>
    </rdf:RDF>
  </metadata>
  <g
     inkscape:label="Layer 1"
     inkscape:groupmode="layer"
     id="layer1"
     transform="translate(116.67217,-27.844614)">
    <path
       inkscape:connector-curvature="0"
       id="cd"
       class="landxx cd"
       d="m -116.56503,155.82964 c 0.9172,-0.69256 2.03382,-0.10635 2.39272,-1.34525 0.29245,-1.00361 1.11662,-4.94631 0.41209,-5.7532 -1.83442,-2.1109 5.31718,-5.30121 6.65975,-6.50156 0.35893,1.52469 2.59214,1.7467 2.68517,3.35115 0.71783,-0.74309 1.66163,-1.18307 2.4592,-1.82247 1.07672,-0.87203 0.62477,-2.45255 1.56857,-3.44153 1.595158,2.1149 3.987877,-1.93147 5.862193,-0.989 1.794552,0.8986 0.146213,1.29871 -0.132924,2.42463 -0.305741,1.26414 0.491825,2.64929 0.491825,3.92008 0.797589,-1.02622 2.552247,0.26853 3.628973,-0.47722 1.581864,-1.10196 2.565537,-3.19561 3.775212,-4.67379 0.624747,-0.76568 3.176995,-1.99526 3.309943,-2.6905 0.358899,-1.83707 1.887579,-2.27708 3.402973,-2.92444 3.535918,-1.50743 4.160692,-8.1592 4.080951,-11.33622 0,-2.41799 0.159502,-4.60335 -0.146237,-7.01734 -0.292452,-2.31563 2.618721,-2.90983 3.602392,-4.74158 2.299668,-4.31623 2.126874,-7.0466 6.805993,-10.22493 1.967346,-1.3386 3.163705,-2.909833 4.4797,-4.754891 1.302726,-1.837076 0.358923,-4.519594 0.890643,-6.626532 0.465244,-1.850387 1.369177,-9.794227 1.448917,-11.877239 0.132948,-2.354188 1.44894,-4.418578 1.834446,-6.712939 0.385479,-2.221241 -0.265872,-4.570098 0.225975,-6.768751 0.94378,-4.139443 3.416287,-7.526472 4.825336,-11.462501 0.824143,-2.2864 0.438664,-4.696402 0.37219,-7.027978 0,-1.075412 0.465269,-2.202645 0.292451,-3.25413 -0.146214,-0.937134 -0.704537,-1.71878 -0.957093,-2.620036 -0.412086,-1.432974 2.087002,-1.394418 2.658592,-2.701114 0.797565,-1.80385 1.635024,-3.388368 2.990911,-4.847946 1.315992,-1.39841 2.951017,-2.59477 4.958257,-2.580166 1.688208,0 2.36614,1.478175 3.456181,1.718781 2.512353,0.556983 4.851913,3.278056 5.782426,5.591012 0.770985,1.888945 3.482734,0.478559 5.011441,0.939811 0.837433,0.249904 1.249519,1.37317 2.206612,1.327969 0.837459,-0.03987 1.023567,-0.192752 1.887606,0.253896 1.315993,0.672625 1.581865,0 2.884567,-0.07976 0.864039,-0.05316 1.807843,0.401448 2.605408,0.693899 1.422358,0.529065 3.376418,1.559252 4.931678,1.010253 2.79151,-0.98102 1.94079,-7.64209 5.6494999,-7.816246 2.11358,-0.106344 2.67188,4.17666 5.43682,1.564583 1.16978002,-1.104645 9.22529,-2.170735 8.73347,-4.818689 1.67489,-0.06647 2.23321,2.218588 3.8283701,2.057746 1.92747,-0.194067 5.2241,-0.483865 6.02169,-2.53628 0.30574,-0.765679 -0.46525,-1.530019 0.54501,-2.037811 1.23625,-0.619465 2.25979,-0.249904 3.21689,0.701858 1.55528,1.524714 2.99091,-0.269838 4.7057,0.542355 0.85074,0.401448 1.55528,1.03951 2.37943,1.468877 0.9704,0.499807 1.66163,0.07974 2.68519,0.22863 2.43259,0.365545 3.37639,-2.33423 5.94193,-0.879982 0.97038,0.552967 4.36009,2.686485 4.36009,3.948004 0,0.618103 0.79757,2.142816 1.39576,2.38739 2.52566,1.027558 4.93167,4.741602 7.61685,2.205322 1.5287,-1.438305 2.65859,-1.725425 4.67912,-0.73776 2.07368,1.016897 2.89785,0.604812 4.13411,-1.811835 1.60844,-3.186317 5.74253,4.794763 5.95522,5.317183 0.9438,2.331576 7.24465,2.638632 5.31718,6.278242 1.22296,-0.28712 2.71177,-0.362893 3.01749,1.19636 0.14624,0.416076 0.35893,0.801581 0.63806,1.152498 0.15953,0.800243 -0.93049,2.295699 -0.81085,3.130505 0.38548,2.674533 0,5.337117 -0.45196,7.886687 -0.19939,1.343911 0.79757,1.167127 2.31296,0.901256 0.69125,-0.119634 3.32323,1.721455 2.8447,3.185001 -1.1432,3.494712 -5.49,6.961505 -7.97577,9.550969 -0.82417,0.85608 -2.48578,3.133158 -3.48274,3.974584 -0.99699,0.840113 -1.10333,0.119634 -1.67492,1.220311 -0.71783,1.374484 0.1595,3.053371 -0.70454,4.459764 -0.97038,1.560592 -1.92747,3.912126 -2.14016,5.749202 -0.18608,1.645661 -0.1595,3.308604 -0.26585,4.959596 -0.14623,1.931467 -0.39879,3.618336 -0.59819,5.452762 -0.14621,1.34125 0.1994,3.22353 -0.41208,4.4518 -0.70451,1.3971 -1.83442,1.92083 -2.85797,3.05205 -1.58186,1.75069 -1.44894,2.31564 -1.51541,4.36942 0,1.35321 -1.4755,2.87524 -2.2199,3.84163 -1.60845,2.13087 0.63806,4.35744 1.88758,6.38727 0.9438,1.53002 1.62176,2.60409 0.93051,4.71103 -2.53896,2.22523 0.53172,9.21465 -1.861,11.51035 1.74137,1.00626 1.42234,-3.50535 2.03382,-2.74235 0.59817,3.5532 -1.62176,6.12938 -1.63505,9.6108 0,4.52227 3.7885,6.60525 2.18006,9.73311 -0.93052,1.80516 -1.9009,2.20262 -1.11662,3.36575 1.19638,1.78127 1.70149,4.71634 4.06763,9.3476 1.58187,3.09461 6.10146,2.51504 6.36733,9.9697 0.13293,2.92578 2.39272,1.31999 3.27008,5.80901 -6.2477,1.42635 -10.86034,1.58985 -17.13462,2.93245 2.59212,4.28563 -4.1474,6.06689 -5.35705,9.27713 3.60239,1.11394 2.40603,6.69298 2.16674,9.41936 -0.18608,1.98465 0.57161,3.85894 0.45198,5.82364 0,1.03021 -0.27916,2.00858 -0.69125,2.89788 -0.59817,1.28673 -1.01025,2.25714 -1.34257,3.61566 -0.65138,2.66657 -1.55528,4.19126 0.13292,6.77011 1.18307,1.79453 3.34982,4.05167 4.9051,5.5232 0.70451,0.66068 4.39996,2.92578 4.6791,1.5513 0.51843,-2.44191 1.15649,-1.98597 3.56252,-2.67454 0,3.85096 -0.13292,7.71655 -0.23927,11.56619 0,0.59418 0.42538,3.1318 -0.57161,3.2315 -1.16978,0.11963 -1.42233,-1.23358 -0.61146,-1.87829 -1.7281,-2.11757 -5.59634,4.48771 -7.41747,0.52109 -0.61148,-1.32133 -1.18307,-2.99622 -2.07369,-4.19392 -0.50514,-0.68061 -1.86102,-1.5566 -2.02053,-2.36083 -0.30574,-1.57255 -0.61148,-3.39636 -2.59212,-3.45217 -1.66162,-0.0399 -2.37945,-1.78126 -3.96129,-1.97267 -1.3426,-0.16085 -2.15348,0.8441 -3.07067,-0.61947 -0.71783,-1.13522 -0.74441,-2.78884 -1.78127,-3.72069 -1.47552,-1.32928 -2.53895,-5.94991 -3.82837,-1.80516 -1.32928,4.27499 -3.66884,2.02714 -7.00536,2.14547 -2.24651,0.0798 -2.77823,-0.63407 -4.66583,-1.49412 -0.13293,-0.0532 -2.12688,-0.53306 -2.18004,-0.52376 -3.0308,0.53172 -3.93471,-4.07029 -2.85799,-6.16925 -1.861,0.10635 -3.73531,0.4985 -5.46339,1.15649 -2.1401601,0.80821 -2.5921201,1.86101 -4.9715701,0.86404 0.91722,-1.64566 0.97038,-3.81773 0.17281,-3.77918 -1.03685,0.0532 -1.47552,-0.83346 -2.19334,-1.51539 -1.66161,-1.5832 -1.43563,0.28579 -1.83442,0.4227 -1.47551998,0.51178 -2.12686998,0.43601 -3.45616,0.0931 -1.60844,-0.41607 -2.60541,0.70454 -4.02777,1.207 -1.82113,0.64471 -2.97762,-0.58089 -4.16069,-0.37618 -0.4253699,0.0665 -2.1135599,-0.10634 -2.1667399,-0.0798 -1.1432,0.61547 -1.72808,2.34089 -3.29665,2.30234 0.35892,-1.18176 -0.35891,-2.10959 -0.5583,-3.21954 -0.29245,-1.52472 0.77098,-1.79855 1.1033,-2.97098 0.77101,-2.71842 -0.29242,-7.43607 -1.940761,-9.62277 -2.00724,-2.66789 -2.87128,-4.33748 -2.618698,-7.79098 0.252556,-3.56915 1.502101,-7.31379 0.571588,-10.86565 -0.3589,-1.3572 -1.315993,-2.53497 -1.302703,-3.97458 0,-1.62707 0.930513,-3.15044 1.050145,-4.76553 0.199398,-2.66125 -1.515415,-2.36614 -3.682156,-2.38608 -2.047111,-0.0134 -4.080928,-0.0532 -6.128039,0.0266 -4.213876,0.17813 -3.575812,-0.74041 -2.379429,-4.29895 -0.943804,0 -1.874314,-0.23926 -2.791513,0.11966 -0.611484,0.24192 -0.159528,0.51176 -0.50514,0.80954 -1.116619,0.9531 -6.22109,0.11964 -7.7099,0.11964 0.491823,1.2575 -0.425376,2.72903 -0.212688,4.07294 0.172794,1.08602 0.212688,2.81014 -1.515415,2.4406 0.558322,1.6563 -0.438666,3.29931 -0.132924,4.97155 -0.704511,0 -5.277289,0.15154 -6.021694,-0.27783 -2.193346,-1.26948 -6.048296,1.10066 -6.792704,1.16713 -1.741365,-0.28315 -3.37639,-0.20074 -5.277286,-0.19141 -2.419324,-0.50514 -3.469447,-5.53386 -4.679119,-7.30714 -0.425376,-0.62477 -0.757696,-1.07274 -1.209651,-1.69352 -0.81088,-1.14851 -0.438664,-1.97267 -0.611482,-3.19695 -0.292452,-2.17872 -2.578827,-3.61036 -2.246505,-5.92333 0.292449,-2.08036 0,-3.8164 -0.983674,-5.03138 -1.355889,-1.69751 -1.329282,-2.32228 -3.456156,-2.21993 -5.822321,0.27916 -11.604747,0.50779 -17.427043,0.17547 -4.7057,-0.26718 -10.208991,0.51045 -14.821631,-0.37886 -3.69545,-0.71249 -6.75281,4.78681 -8.93287,-0.76699"
       style="fill:#cbe6a3;fill-opacity:1;fill-rule:evenodd;stroke:#000000;stroke-width:0.14449541;stroke-miterlimit:4;stroke-dasharray:none;stroke-opacity:1">
      <title
         id="title376">Congo, the Democratic Republic of the</title>
    </path>
  </g>
</svg>
