<svg xmlns="http://www.w3.org/2000/svg" width="733.36" height="817.418" viewBox="0 0 194.03482 216.27505"><path class="landxx cd" d="M.107 127.985c.917-.693 2.034-.106 2.393-1.345.292-1.004 1.116-4.947.412-5.753-1.834-2.111 5.317-5.302 6.66-6.502.359 1.525 2.592 1.747 2.685 3.351.718-.743 1.662-1.183 2.46-1.822 1.076-.872.624-2.453 1.568-3.442 1.595 2.115 3.988-1.931 5.862-.989 1.794.899.146 1.299-.133 2.425-.306 1.264.492 2.65.492 3.92.797-1.026 2.552.268 3.629-.477 1.582-1.102 2.565-3.196 3.775-4.674.625-.766 3.177-1.995 3.31-2.69.359-1.838 1.887-2.278 3.403-2.925 3.536-1.508 4.16-8.16 4.08-11.336 0-2.418.16-4.604-.145-7.018-.293-2.315 2.618-2.91 3.602-4.741 2.3-4.316 2.127-7.047 6.806-10.225 1.967-1.339 3.164-2.91 4.48-4.755 1.302-1.837.359-4.52.89-6.627.466-1.85 1.37-9.794 1.45-11.877.132-2.354 1.448-4.418 1.834-6.713.385-2.221-.266-4.57.226-6.768.943-4.14 3.416-7.527 4.825-11.463.824-2.286.439-4.696.372-7.028 0-1.075.465-2.203.293-3.254-.147-.937-.705-1.719-.958-2.62-.412-1.433 2.088-1.395 2.66-2.701.797-1.804 1.634-3.389 2.99-4.848 1.316-1.399 2.951-2.595 4.958-2.58 1.688 0 2.366 1.478 3.456 1.718 2.513.557 4.852 3.278 5.783 5.591.77 1.89 3.483.479 5.011.94.838.25 1.25 1.373 2.207 1.328.837-.04 1.023-.193 1.888.254 1.316.673 1.581 0 2.884-.08.864-.053 1.808.402 2.606.694 1.422.53 3.376 1.56 4.931 1.01 2.792-.98 1.941-7.642 5.65-7.816 2.113-.106 2.672 4.177 5.436 1.565 1.17-1.105 9.226-2.17 8.734-4.819 1.675-.066 2.233 2.219 3.828 2.058 1.928-.194 5.224-.484 6.022-2.536.306-.766-.465-1.53.545-2.038 1.236-.62 2.26-.25 3.217.702 1.555 1.524 2.99-.27 4.706.542.85.401 1.555 1.04 2.38 1.469.97.5 1.66.08 2.684.229 2.433.365 3.377-2.335 5.942-.88.97.553 4.36 2.686 4.36 3.948 0 .618.798 2.142 1.396 2.387 2.526 1.027 4.932 4.742 7.617 2.205 1.529-1.438 2.658-1.725 4.679-.738 2.074 1.017 2.898.605 4.134-1.811 1.609-3.187 5.743 4.794 5.955 5.317.944 2.331 7.245 2.638 5.318 6.278 1.222-.287 2.711-.363 3.017 1.196.146.417.359.802.638 1.153.16.8-.93 2.296-.81 3.13.385 2.675 0 5.338-.453 7.887-.2 1.344.798 1.167 2.313.901.691-.12 3.323 1.722 2.845 3.185-1.143 3.495-5.49 6.962-7.976 9.551-.824.856-2.486 3.134-3.483 3.975-.997.84-1.103.12-1.675 1.22-.717 1.375.16 3.054-.704 4.46-.97 1.56-1.928 3.912-2.14 5.75-.186 1.645-.16 3.308-.266 4.959-.146 1.931-.399 3.618-.598 5.453-.146 1.34.2 3.223-.412 4.451-.705 1.397-1.835 1.921-2.858 3.052-1.582 1.751-1.45 2.316-1.516 4.37 0 1.353-1.475 2.875-2.22 3.841-1.608 2.131.638 4.358 1.888 6.388.944 1.53 1.622 2.604.93 4.71-2.538 2.226.532 9.215-1.86 11.511 1.74 1.006 1.422-3.505 2.033-2.742.598 3.553-1.621 6.13-1.635 9.61 0 4.523 3.789 6.606 2.18 9.734-.93 1.805-1.9 2.202-1.116 3.365 1.196 1.782 1.701 4.717 4.067 9.348 1.582 3.095 6.102 2.515 6.368 9.97.133 2.926 2.392 1.32 3.27 5.809-6.248 1.426-10.86 1.59-17.135 2.932 2.592 4.286-4.147 6.067-5.357 9.277 3.602 1.114 2.406 6.693 2.167 9.42-.186 1.984.571 3.859.452 5.823 0 1.03-.28 2.009-.691 2.898-.599 1.287-1.01 2.257-1.343 3.616-.651 2.666-1.555 4.191.133 6.77 1.183 1.795 3.35 4.052 4.905 5.523.704.66 4.4 2.926 4.68 1.551.517-2.441 1.156-1.985 3.562-2.674 0 3.85-.133 7.716-.24 11.566 0 .594.426 3.132-.571 3.232-1.17.12-1.423-1.234-.612-1.879-1.728-2.117-5.596 4.488-7.417.521-.612-1.32-1.183-2.996-2.074-4.193-.505-.681-1.86-1.557-2.02-2.361-.306-1.573-.612-3.397-2.593-3.452-1.661-.04-2.379-1.782-3.96-1.973-1.343-.161-2.154.844-3.072-.62-.717-1.135-.744-2.788-1.78-3.72-1.476-1.33-2.54-5.95-3.83-1.805-1.328 4.275-3.668 2.027-7.005 2.145-2.246.08-2.778-.634-4.665-1.494-.133-.053-2.127-.533-2.18-.524-3.031.532-3.935-4.07-2.858-6.17a18.434 18.434 0 0 0-5.464 1.157c-2.14.809-2.592 1.861-4.971.864.917-1.645.97-3.817.172-3.779-1.036.053-1.475-.833-2.193-1.515-1.661-1.583-1.436.286-1.834.423-1.476.511-2.127.436-3.456.093-1.609-.416-2.606.704-4.028 1.207-1.821.644-2.978-.581-4.16-.377-.426.067-2.114-.106-2.168-.08-1.143.616-1.728 2.342-3.296 2.303.359-1.182-.36-2.11-.559-3.22-.292-1.524.771-1.798 1.104-2.97.77-2.719-.293-7.437-1.941-9.623-2.007-2.668-2.871-4.338-2.619-7.791.253-3.57 1.502-7.314.572-10.866-.36-1.357-1.316-2.535-1.303-3.975 0-1.627.93-3.15 1.05-4.765.2-2.661-1.515-2.366-3.682-2.386-2.047-.014-4.08-.053-6.128.026-4.214.179-3.576-.74-2.38-4.298-.943 0-1.874-.24-2.79.12-.612.241-.16.51-.506.809-1.117.953-6.221.12-7.71.12.492 1.257-.425 2.728-.213 4.072.173 1.086.213 2.81-1.515 2.44.558 1.657-.439 3.3-.133 4.972-.704 0-5.277.152-6.022-.277-2.193-1.27-6.048 1.1-6.792 1.167-1.742-.283-3.377-.201-5.278-.192-2.419-.505-3.47-5.534-4.679-7.307-.425-.625-.757-1.073-1.21-1.693-.81-1.149-.438-1.973-.61-3.197-.293-2.179-2.58-3.61-2.247-5.924.292-2.08 0-3.816-.984-5.031-1.356-1.697-1.33-2.322-3.456-2.22-5.823.28-11.605.508-17.427.176-4.706-.268-10.21.51-14.822-.38-3.695-.712-6.753 4.788-8.933-.766" fill="#cbe6a3" fill-rule="evenodd" stroke="#000" stroke-width=".144"><title>Congo, the Democratic Republic of the</title></path></svg>