<?xml version="1.0" encoding="UTF-8" standalone="no"?>
<!-- Created with Inkscape (http://www.inkscape.org/) -->

<svg
   xmlns:dc="http://purl.org/dc/elements/1.1/"
   xmlns:cc="http://creativecommons.org/ns#"
   xmlns:rdf="http://www.w3.org/1999/02/22-rdf-syntax-ns#"
   xmlns:svg="http://www.w3.org/2000/svg"
   xmlns="http://www.w3.org/2000/svg"
   xmlns:sodipodi="http://sodipodi.sourceforge.net/DTD/sodipodi-0.dtd"
   xmlns:inkscape="http://www.inkscape.org/namespaces/inkscape"
   width="68.513123mm"
   height="64.856865mm"
   viewBox="0 0 68.513123 64.856865"
   version="1.1"
   id="svg15255"
   inkscape:version="0.92.0 r15299"
   sodipodi:docname="eritrea.svg">
  <defs
     id="defs15249" />
  <sodipodi:namedview
     id="base"
     pagecolor="#ffffff"
     bordercolor="#666666"
     borderopacity="1.0"
     inkscape:pageopacity="0.0"
     inkscape:pageshadow="2"
     inkscape:zoom="0.35"
     inkscape:cx="129.47379"
     inkscape:cy="122.56415"
     inkscape:document-units="mm"
     inkscape:current-layer="layer1"
     showgrid="false"
     fit-margin-top="0"
     fit-margin-left="0"
     fit-margin-right="0"
     fit-margin-bottom="0"
     inkscape:window-width="1920"
     inkscape:window-height="1017"
     inkscape:window-x="1912"
     inkscape:window-y="-8"
     inkscape:window-maximized="1" />
  <metadata
     id="metadata15252">
    <rdf:RDF>
      <cc:Work
         rdf:about="">
        <dc:format>image/svg+xml</dc:format>
        <dc:type
           rdf:resource="http://purl.org/dc/dcmitype/StillImage" />
        <dc:title></dc:title>
      </cc:Work>
    </rdf:RDF>
  </metadata>
  <g
     inkscape:label="Layer 1"
     inkscape:groupmode="layer"
     id="layer1"
     transform="translate(51.265534,-116.4049)">
    <g
       id="er"
       class="landxx coastxx er"
       style="fill:#cbe6a3;fill-opacity:1;fill-rule:evenodd;stroke:#000000;stroke-width:0.10870087;stroke-miterlimit:4;stroke-dasharray:none;stroke-opacity:1"
       transform="matrix(1.3292939,0,0,1.3292939,-2107.5179,-686.19462)">
      <title
         id="title2192">Eritrea</title>
      <path
         inkscape:connector-curvature="0"
         id="path6816"
         d="m 1573.62,622.29 c 0,0.565 0.64,2.264 -0.37,1.439 0.43,1.274 2.64,1.157 3.68,1.08 -0.51,-1.101 -1.95,-0.03 -2.33,-1.169 -0.15,-0.44 -0.16,-1.849 -0.98,-1.35"
         style="fill:#cbe6a3;fill-opacity:1;stroke:#000000;stroke-width:0.10870087;stroke-miterlimit:4;stroke-dasharray:none;stroke-opacity:1" />
      <path
         inkscape:connector-curvature="0"
         id="path6830"
         class="landxx er"
         d="m 1546.98,628.49 c 1.2,-1.081 1.14,-2.777 1.57,-4.211 0.47,-1.556 1.12,-3.069 1.68,-4.597 0.51,-1.405 -0.94,-7.236 1.31,-7.549 0.45,-0.06 2.12,0.276 2.39,-0.173 0.73,-1.215 0.17,-2.148 1.61,-2.604 1.16,-0.367 2.5,-1.278 3.71,-1.756 1.79,-0.706 1.85,-2.542 3.13,-3.732 2.24,4.467 3.88,8.765 4.98,13.642 0.26,1.163 0.24,2.313 0.77,3.41 0.57,1.186 1.12,2.127 1.35,3.43 0.16,0.888 1.28,0.963 1.53,1.906 0.22,0.87 0.4,2.361 1.17,2.956 0.96,-0.681 -0.61,-3.266 0.39,-3.431 0.98,-0.162 1.56,1.07 1.63,1.8 0.1,0.855 0.69,2.313 1.51,2.692 1.16,0.536 1.89,-1.037 3.07,0.283 0.98,1.091 1.1,1.899 2.68,2.116 1.82,0.251 2.51,1.65 3.48,3.098 0.94,1.396 1.76,2.816 3.22,3.737 0.69,0.435 1.3,0.969 1.88,1.539 0.29,0.286 1.7,2.223 1,0.477 0.97,0.617 0.96,1.982 1.27,2.948 0.26,0.842 1.2,0.612 1.74,1.182 0.53,0.551 2.61,4.446 3.4,2.494 0.79,0.738 1.17,1.078 0.72,1.62 -1.15,0.542 -2.07,1.286 -2.09,1.928 -0.1,2.224 -1.82,-0.959 -3.8,0.606 0.25,-0.57 -0.33,-2.337 -2.48,-3.813 -1.9,-2.857 -3.12,-4.839 -4.28,-5.148 -2.06,-0.552 -2.72,-3.093 -3.96,-4.795 -1.34,-1.843 -3.33,-1.933 -5.03,-3.242 -1.59,-1.226 -2.54,-0.207 -4.01,-0.648 -1.16,-0.344 -3.16,-1.426 -4.3,0.03 0,-0.896 -1.83,-2.677 -1.43,-2.056 0.18,0.295 -1.29,1.904 -2.37,1.967 -0.7,0.04 -2.21,0.251 -2.94,-0.854 -1.34,-2.02 -1.78,-0.368 -3.35,-2.945 -0.6,2.317 -1.48,4.552 -2.37,6.768 -0.48,-0.686 -1.74,-3.248 -2.91,-2.614 -0.74,0.396 -0.65,1.134 -1.69,1.055 -2.85,-0.218 -2.8,-0.338 -3.54,1.453 -0.54,-2.548 -0.68,-6.427 -0.69,-8.787"
         style="fill:#cbe6a3;fill-opacity:1;fill-rule:evenodd;stroke:#000000;stroke-width:0.10870087;stroke-miterlimit:4;stroke-dasharray:none;stroke-opacity:1" />
    </g>
  </g>
</svg>
