<svg xmlns="http://www.w3.org/2000/svg" width="258.947" height="245.128" viewBox="0 0 68.513123 64.856865"><g class="landxx coastxx er" transform="matrix(1.3293 0 0 1.3293 -2056.252 -802.6)" fill="#cbe6a3" fill-rule="evenodd" stroke="#000" stroke-width=".109"><title>Eritrea</title><path d="M1573.62 622.29c0 .565.64 2.264-.37 1.439.43 1.274 2.64 1.157 3.68 1.08-.51-1.101-1.95-.03-2.33-1.169-.15-.44-.16-1.849-.98-1.35"/><path class="landxx er" d="M1546.98 628.49c1.2-1.081 1.14-2.777 1.57-4.211.47-1.556 1.12-3.069 1.68-4.597.51-1.405-.94-7.236 1.31-7.549.45-.06 2.12.276 2.39-.173.73-1.215.17-2.148 1.61-2.604 1.16-.367 2.5-1.278 3.71-1.756 1.79-.706 1.85-2.542 3.13-3.732 2.24 4.467 3.88 8.765 4.98 13.642.26 1.163.24 2.313.77 3.41.57 1.186 1.12 2.127 1.35 3.43.16.888 1.28.963 1.53 1.906.22.87.4 2.361 1.17 2.956.96-.681-.61-3.266.39-3.431.98-.162 1.56 1.07 1.63 1.8.1.855.69 2.313 1.51 2.692 1.16.536 1.89-1.037 3.07.283.98 1.091 1.1 1.899 2.68 2.116 1.82.251 2.51 1.65 3.48 3.098.94 1.396 1.76 2.816 3.22 3.737.69.435 1.3.969 1.88 1.539.29.286 1.7 2.223 1 .477.97.617.96 1.982 1.27 2.948.26.842 1.2.612 1.74 1.182.53.551 2.61 4.446 3.4 2.494.79.738 1.17 1.078.72 1.62-1.15.542-2.07 1.286-2.09 1.928-.1 2.224-1.82-.959-3.8.606.25-.57-.33-2.337-2.48-3.813-1.9-2.857-3.12-4.839-4.28-5.148-2.06-.552-2.72-3.093-3.96-4.795-1.34-1.843-3.33-1.933-5.03-3.242-1.59-1.226-2.54-.207-4.01-.648-1.16-.344-3.16-1.426-4.3.03 0-.896-1.83-2.677-1.43-2.056.18.295-1.29 1.904-2.37 1.967-.7.04-2.21.251-2.94-.854-1.34-2.02-1.78-.368-3.35-2.945-.6 2.317-1.48 4.552-2.37 6.768-.48-.686-1.74-3.248-2.91-2.614-.74.396-.65 1.134-1.69 1.055-2.85-.218-2.8-.338-3.54 1.453-.54-2.548-.68-6.427-.69-8.787"/></g></svg>