<svg xmlns="http://www.w3.org/2000/svg" width="574.734" height="499.933" viewBox="0 0 152.06497 132.274"><path class="landxx et" d="M.157 80.67c.187-1.55 1.662-2.37 1.675-3.946 0-2.696 1.901-2.95 4.174-2.564 2.02.343 3.762.983 5.251-1.245 1.037-1.538.359-4.21.16-5.9-.346-2.82-.758-5.86.305-8.577.412-1.063.957-2.068 1.343-3.144.572-1.579 0-2.637-.133-4.2 0-1.563.824-3.136 1.834-4.31 1.157-1.35 2.898.262 2.858 1.724.678-.739 3.35-4.836 2.02-6.124-.757-.73.453-2.46.679-3.197.452-1.45-.532-3.283.758-4.465 2.073-1.894 2.897-4.388 4.174-6.94.545-1.08.877-2.205 2.193-2.268.545-.026 3.137.255 3.376-.397.718-1.988.545-4.46.864-6.542.173-1.184.652-2.107 1.143-3.198.891-1.955.665-3.783 1.064-5.82.744-3.845 2.366-2.436 5.277-2.467 1.13 0 1.356-2.302 2.938-1.388 1.236.713 1.914 2.356 2.698 3.473 1.184-2.946 2.353-5.916 3.15-8.997.453.702.971 1.591 1.729 2.01.824.456 1.768.093 2.273 1.091.984 1.97 2.193 2.203 4.254 1.83.757-.139 1.555-.345 2.153-.865.36-.31.678-1.489 1.05-1.595.692-.197 1.822 2.18 1.954 2.697 1.968-2.462 5.278.398 7.285-.138 2.765-.735 5.596 2.21 7.95 3.207 3.163 1.335 4.067 5.415 6.646 7.467 1.542 1.234 3.562 2.221 4.52 4.039.877 1.661 1.289 3.054 2.844 4.244 2.605 2 3.735 3.537 2.007 6.57-2.034 3.586-4.825 5.626-4.174 10.005.32 2.175-.532 4.824 2.579 4.611 1.821-.12 3.629-.997 5.384-1.445 1.435-.363 1.98.894 3.323.45-.146 2.275-2.778 4.19-1.516 6.833 1.516 3.176 2.912 3.987 4.879 6.816.651.94 1.821 4.075 2.566 4.94.744.862 1.382.592 2.246 1.297 1.343 1.086 3.39 3.398 5.078 4.005 6.793 2.445 12.894 4.993 19.66 7.49 3.204 1.182 5.81 2.589 9.132 3.372 3.071.725 7.02.22 10.13.22l-28.42 33.74c-1.742 2.033-3.124 2.226-5.584 1.893-4.054-.546-9.717-.777-14.994 4.079-1.41 1.284-1.888 2.88-3.922 3.284-1.874.374-3.854.307-5.596 1.258-1.874 1.027-1.741 2.786-4.214 2.221-2.06-.474-4.958 1.228-6.78-.79-.77-.86-1.395-2.19-2.684-2.342-1.25-.146-2.925.762-4.001 1.256-1.689.78-4.52 2.278-5.597 3.874a109.87 109.87 0 0 0-2.818 4.357c-1.276-1.233-4.187-1.422-5.849-1.269-1.29.12-2.206-.913-3.35-1.16-1.21-.253-2.552.304-3.748.192-4.892-.457-.771-1.086-13.652-8.837-2.207-1.321-5.397.185-8.095-.768-1.25-.443-3.138-2.895-3.696-4.025-.784-1.576.558-3.66 0-5.39-.452-1.557-3.655-2.502-4.719-1.138-.651-.63-1.555-2.498-2.1-3.33-1.236-1.921-1.675-4.501-2.513-6.63-.624-1.597-.93-3.4-1.794-4.898-.399-.691-.877-.937-1.542-1.275-.744-.372-.771-1.112-1.316-1.604-.346-.22-.479-.412-.89-.462-1.05-.293-1.157-1.426-1.716-2.188-1.249-1.698-2.1-3.772-3.761-5.135-1.223-.997-2.686-1.678-4.254-1.869-1.45-.174-3.47-.186-4.24-1.704" fill="#cbe6a3" fill-rule="evenodd" stroke="#000" stroke-width=".144"><title>Ethiopia</title></path></svg>