<svg xmlns="http://www.w3.org/2000/svg" width="115.25" height="60.966" viewBox="0 0 30.49321 16.130663"><g transform="matrix(1.3293 0 0 1.3293 -1520.087 -847.31)" fill="#cbe6a3" stroke="#000" stroke-width=".109"><title>Gambia</title><path class="landxx gm" d="M1143.63 643.894c1.41-1.109 1.21-1.047 1.92.515.54 1.183 2.21-.407 3.05.206-1.8-.925 3.69-1.469 4.03-1.656-1.42-.09-3.12-.03-4.44.547-1.14.498-1.79.828-2.5-.486-.64-1.171.64-1.188 1.45-1.126 2.14.161 4.31.06 6.45.06.55 0 .32-1.731 1.59-1.371 1.02.29 2.01-.961 3.06-.41.53.279.66.966 1.18 1.278.51.301.98-.245 1.51 0 .56.266.39 1.111 1.01 1.374.66.279 1.49-.246 2.1-.43.73-.218 2.48-.07 2.37 1.05-.11 1.029-1.76 1.395-2.57 1.512-3.41.492-7.03-3.443-7.52-2.504-.58 1.089-.72 1.455-2.84 1.423-.75-.01-2.81.44-2.36 1.578.1.222-6.68-.54-6.96 1.065-.41-.796-.69-1.745-.53-2.629" fill-rule="evenodd"/></g></svg>