<svg xmlns="http://www.w3.org/2000/svg" width="116.864" height="76.488" viewBox="0 0 30.920292 20.2374"><g class="landxx coastxx gw" transform="matrix(1.3293 0 0 1.3293 -1520.87 -863.757)" fill="#cbe6a3" fill-rule="evenodd" stroke="#000" stroke-width=".109"><title>Guinea-Bissau</title><path d="M1147.02 660.259c0-.191 0-.384-.1-.575-.27.154-.51.346-.72.575h.79M1147.46 657.163c.66-.328.56-.568-.29-.72.1.24.19.48.29.72M1148.11 664.219c.26-.207.55-.375.86-.505-.58-1.215-2.04-.406-.86.505M1149.33 656.731c-.36.02-.72.07-1.08.144.1 1.054 1.38.885 1.08-.144M1149.26 659.899c-.1.24-.2.479-.29.72.6.304.98-.05 1.08-.647-.27-.01-.53-.04-.79-.07M1151.13 662.995c.4-.32.66-.728.79-1.224-.52.201-.87.642-.79 1.224M1154.66 663.139c.21-.695 0-.887-.72-.576l.72.576"/><path class="landxx gw" d="M1144.15 652.987c.7-.484 1.61-.117 2.36-.454.8-.361 1.55-.818 2.46-.842 1.93-.05 3.68.458 5.29-.936 1.42-1.228 3.2-.864 4.91-.864h7.8c-.22 1.01.9 2.182 0 3.068-.49.481-1.83.371-2.02 1.107-.28 1.044 3.44 1.855 1.59 3.937-.95 1.072-2.35.497-3.54.7-1.13.19-2.47 1.081-3.63 1.428-1.98.596-1.03 4.076-3.06 4.808-.49-1.875-.75-2.121-2.44-2.952.15-.274.31-.538.5-.792-1.45 1.083-.1-3.351 2.01-1.729-.5-1.411-1.78-.47-2.51.145-.71-1.263-.84-2.113.72-2.664 1.32-.469 1.79.949 3.02.864-.66-.265-1.05-1.106-.43-1.656a1.492 1.492 0 0 0-1.37.184c-.7.385-1.29-.09-2.02.03-.71.118-1.16.659-1.69 1.08-.69.546-1.61.461-2.41.648 0-1.307 1.14-1.728 2.02-2.448-1.25-.122-2.23 1.172-3.46.904-2.4-.522-.86-2.65.29-3.425-.46.05-.92.121-1.37.216-.24.289-.5.553-.79.793-.89.04-1.39-1.015-2.23-1.152"/></g></svg>