<svg xmlns="http://www.w3.org/2000/svg" width="304.68" height="405.084" viewBox="0 0 80.613174 107.17838"><path class="landxx ke" d="M.941 65.34c2.02-1.47-3.03-7.592 3.961-6.155 0-.382.412-1.171 0-1.894l4.161-.54c-2.752-4.18-3.948-.9-5.25.247-1.13.981-3.869-3.359-3.736-6.004 1.063-1.92.359-2.792 2.34-4.59 1.475-1.336 2.645-5.739 5.038-6.814 1.13-.51.97-.685.903-1.687-.132-1.547 1.702-2.292 2.1-3.669.466-1.636.599-3.24.772-4.881.133-1.477-1.343-2.523-1.662-4.178-.691-3.715-2.977-4.522-3.323-6.159-.266-1.298-.984-2.4-1.422-3.637a4.189 4.189 0 0 1-.492-1.737c0-.828.93-1.299.678-2.188-.226-.784-1.077-.99-1.742-1.238-1.502-.56-.399-1.7-1.994-1.538C1.925 7.188.063 5.755.25 4.714.423 3.67 1.699 2.854 2.403 2.11 4.89-.49 7.92.256 11.163.256c1.875 0 3.736-.154 5.597-.174.917 0 1.86-.053 2.778.093.784.12 1.023 1.498 1.967 1.862 2.898 1.126 6.128-.248 9.093 1.125 3.084 1.437 6.393 4.082 8.813 6.446 1.223 1.204 2.206 2.05 3.974 2.243 1.157.133 3.776-.588 4.693 0 2.525 1.62 6.407.181 8.614 2.299.305-1.506 2.379-3.698 3.31-4.996 1.661-2.307 5.21-3.231 7.656-4.374 2.619-1.22 3.07 1.65 5.025 2.792 1.343.785 2.792.273 4.187.014 1.13-.206 2.486.54 3.55-.04-1.636 2.793-3.138 5.845-5.118 8.404-2.087 2.7-3.975 4.204-3.962 7.833 0 8.573.133 17.144.133 25.718 0 6.425-1.29 12.517 3.031 17.766 1.462 1.78 3.656 4.078 2.087 6.411-.917 1.376-3.669 3.889-5.397 2.3-.146.346-.266.695-.385 1.05a8.837 8.837 0 0 1-.758-1.05c.452 1.045 1.608 2.971.572 4.026-.187-2.602-1.263.38-1.516.979-.545 1.23-1.568 1.467-2.751 1.633-2.606.367-3.656 2.671-2.819 4.868.373 1.007-1.462 3.918-2.22 4.533-1.289 1.05-2.379 8.106-3.815 7.503.625 2.733-2.113 4.675-2.578 7.177-1.117-.81-.984.606-1.915.386-1.17-.276-2.671-2.322-3.575-3.01-4.002-3.046-9.013-6.358-11.485-9.646-.652-.87-1.835-1.007-.479-2.512 1.927-2.127-1.449-4.691-3.177-5.776L.968 65.296" fill="#cbe6a3" fill-rule="evenodd" stroke="#000" stroke-width=".144"><title>Kenya</title></path></svg>