<svg xmlns="http://www.w3.org/2000/svg" width="157.341" height="181.329" viewBox="0 0 41.629845 47.976677"><path class="landxx lr" d="M.077 18.59c1.382-.51 1.422-2.697 2.406-3.697 1.807-1.832 3.987-3.4 5.702-5.325 1.117-1.262.333-2.946 1.21-4.064 1.303-1.653 2.127-.714 2.99-3.16.36-.986 0-1.132.24-1.343-1.808-.605 1.821-.57 2.738-.252.904.31 1.423-.725 2.274-.675 1.183.067 2.073 1.474 2.91 2.15-.558.715-.265 1.413 0 2.145.213.54-.132 1.8.466 1.206.638 2.81.332 5.333-.585 8.04 1.808-.675 3.629-.318 3.735 1.912 2.167-.868 3.071-1.513 3.776-3.758.199-.662.385-1.954 1.276-2.084.97-.145 1.847 1.946 2.193 2.7 1.236 2.72 1.236 4.183.784 7.1-.2 1.294-1.01 2.408-1.595 2.572-.77.272-1.21 1.086-1.342 1.195.132.315.638.854 2.18.89-.771 2.802 4.865.52 5.436 2.606.2.743-.186 1.77 1.356 2.787 1.223.802 2.433 1.828 2.885 3.1 1.037 2.952 0 4.631-.412 6.165-.93 3.423-2.194 5.801-.638 9.03-1.582.298-2.832-.348-4.108-1.076-1.688-.96-3.735-1.094-5.264-2.355-2.791-2.29-6.42-3.334-9.012-5.902-2.885-2.868-5.185-6.289-8.122-9.1-.93-.884-7.75-3.245-6.142-4.778-1.236.12-2.765-1.787-3.828-2.297-2.127-1.02-1.94-2.205-3.536-3.732" fill="#cbe6a3" fill-rule="evenodd" stroke="#000" stroke-width=".144"><title>Liberia</title></path></svg>