<svg xmlns="http://www.w3.org/2000/svg" width="290.805" height="592.015" viewBox="0 0 76.942284 156.63739"><g class="landxx coastxx mg" transform="matrix(1.3293 0 0 1.3293 -2120.473 -1147.388)" fill="#cbe6a3" fill-rule="evenodd" stroke="#000" stroke-width=".109"><title>Madagascar</title><path d="M1595.35 950.388c.57 2.403-.64 5.333 1.06 7.432.84 1.027.82 2.18 1.25 3.368.39 1.094 1.49 1.266.41 2.508-1.07 1.218-.9 5.173-.21 6.615.64 1.311 1.27 2.284 1.62 3.737.45 1.888 1.68 2.417 3.07 3.56-1.75-1.016-.24.343.2.479.64.2 1.32.132 1.97.297 1.57.401 2.43 2.137 3.99 2.483 2.71.599 5.54-2.861 8.03-3.593.92-.269 1.88.277 2.73-.03.66-.246 1.24-.69 1.95-.826 1-.19 1.6-1.375 1.98-2.198.52-1.108.87-2.287 1.19-3.464.44-1.63 1.44-2.953 1.95-4.518.93-2.89 1.93-5.683 2.72-8.648 1.13-4.221 2.83-7.991 4.29-12.081 1.19-3.315 1.86-6.705 3.33-9.914.43-.937 1.24-2.42.81-3.486.5 0 1.08-2.029 1.2-2.365.85-2.244 1.3-4.616 2.22-6.828 1.34-3.232 2.55-5.983 3.25-9.448.52-2.585-1.25-6.358 1.9-8.055.61-.333 1.29-2.285 1.37-3.055.1-.719-.1-1.427 0-2.146.17-.971-1.03-.859-1.01-1.789 0-.706-.72-6.181 1.04-5.435 1.5.64.99 3.759 2.44 4.27 1.63.571 2.69-3.823 2.87-4.787.26-1.391-.67-2.085-1.05-3.32-.69-2.267-.63-4.47-.71-6.805-.16-4.288-1.18-8.833-2.91-12.668a8.63 8.63 0 0 0-.71.51c.19-.583-.1-.699-.41-1.056-.58-.581.32-.947-.2-1.582-.49-.605-.81-2.883-2.06-2.122-.1-.259-.1-.522-.1-.79 2.17.208-.99-3.076-.63-.322.14 1.083-2.09 3.083-3.12 3.061 1.93.969.68 3.823.29 5.11-.57 1.897-.54 3.109-2.88 3.17.28 1.373-.15.287-.81 1.079-.47.575-.49 1.399-.7 2.081-.59-.02-2.73-4.402-3.04-1.302-.11 1.108.27 1.83.67 2.823.35.893-.28 3.338-.44 1.579-.16.859-2.82.961-1.77 2.938.55 1.049 2.68.638 1.84 2.322.29-1.31-1.07-1.43-1.88-.805-1.13.876-1.03 2.844-2.58 3.324-.2-1.109.87-1.96.65-3.1-1.11.244-.85 1.009-1.3 1.8-.43.767-1.69 1.183-1.87 2.09-.13.629.53 1.334.8 1.847.51 1.002-1.3 1.213-1.88 1.684.12-.692 1.38-2.702-.4-2.657-1.02.03-1.84 1.298-2.61 1.829-.52.354-1.92 1.089-1.77 1.893.1.408-.27.922-.12 1.306.21.534.93.436 1.09 1.079-.8-.05-1.63.111-1.77-1.013-.18-1.415-1.57-1.391-1.62.08-.33-.552-1.93-.711-2.49-.438-.7.345-.43 1.527-.96 2.018 0-1.494-1.71-.318-1.81.58a7.585 7.585 0 0 0-.86-1.3c-.86.597-1.52 1.627-2.52 2-.94.35-2.61-.41-3.37.303-.38.349-.1 3.195-.37 2.887.27 1.152-.55 2.48-1.11 3.417-.93 1.565-3.93 4.483-2.78 6.372.8 1.303.11 3.654.23 5.172.15 1.725 1.39 3.162 1.38 4.858 0 1.579-.11 2.58.75 3.981.91 1.504.39 2.181-.1 3.646-.32 1.053 1 1.379.38 2.51-.67 1.205-1.54 2.353-2.26 3.532-.78 1.267-1.74 2.533-2.3 3.917-.42 1.071-.1 2.857-1.43 3.332-1.63.57-2.02.602-2.18 2.477-.13 1.56-1.54 2.99-1.93 4.589"/><path d="M1637.4 875.508c.36-.626-.1-1.292-.5-1.73-.71.583-.54 1.746.5 1.73M1648.71 904.378v-.43c-.44.802-1.54 1.704-1.08 2.74.46-.725.66-1.568 1.08-2.31"/></g></svg>