<svg xmlns="http://www.w3.org/2000/svg" width="121.016" height="338.209" viewBox="0 0 32.018902 89.484512"><path class="landxx mw" d="M.101 49.818c.333-.653 2.127-3.538 2.765-5.44.625-1.911.505-2.432.133-4.931-.359-2.292 4.812-3.742 5.876-4.875-3.749-1.14-2.18-7.295-2.194-10.006 0-2.26 1.463-3.216.226-5.499-1.422-2.664.705-2.066 2.127-3.124 1.675-1.243 2.087-3.825-.718-7.077-2.246-2.612.572-3.403-1.568-4.821-1.755-1.17-2.446-1.12-2.858-1.554-.226-.238.425-1.686-.2-2.434.306.24 2.513 1.074 3.576 1.214 1.316.175.957 1.173 2.06 1.327 1.09.153 3.47-.04 4.148 1.254 0 1.739.133 3.79 2.233 6.353 1.915 2.309.133 2.778.386 4.624.24 1.57.81 8.944.837 9.801.133 3.395-4.293 6.766-3.124 8.784 4.507 7.773 3.071 7.66 2.819 9.222-1.05 6.504 3.363 5.035 2.698 7.973-1.648 7.256 2.712 6.076 2.512 2.622l3.616 4.642c.838.432.346-5.952-2.074-7.855-2.193.333-1.25-1.729-1.528-2.318 1.728.843 1.927.963 3.961 4.052 1.356 2.044 2.552 4.187 4.373 6.311 2.02 2.358 2.074 4.622 1.316 7.612-.664 2.627.32 5.199-.133 7.924-.186 1.176-.545 2.575-1.555 3.328-1.116.84-2.725.57-3.788 1.486-1.05.9-.718 2.838-2.26 4.08.345.428 1.489 2.693 1.568 3.955 0 .518 0 2.117-.478 2.652-.479.534-2.366.41-2.1-.577.571-2.085 1.555-1.505-.638-3.61-1.49-1.427-5.57-5.435-5.77-7.031-.359-2.782-1.103-2.142-.545-4.32.266-.992.864-3.122 1.582-4.068 1.143-1.502.944-1.918 1.13-3.802.213-2.218.213-5.163-1.303-7.367-.598-.864-2.392.327-4 .515-1.303.152-3.258-.221-3.31 1-.758-.824-5.81-6.723-6.115-6.6-1.316.526-4.015-2.37-3.683-3.422z" fill="#cbe6a3" fill-rule="evenodd" stroke="#000" stroke-width=".144"><title>Malawi</title></path></svg>