<svg xmlns="http://www.w3.org/2000/svg" width="630.277" height="645.502" viewBox="0 0 166.76074 170.78903"><path class="landxx ml" d="M.054 117.797c1.794-.432 2.592.54 4.054-1.333 1.236-1.58.678-4.984 1.29-6.954 1.355-4.5 7.616 2.955 8.254 4.363 1.197-3.273 3.177-5.066 6.94-3.538 2.472 1.003 7.722.825 8.268-2.589 1.409 3.414 8.347 1.888 11.073 1.68 6.646-.507 13.465-.147 20.138-.147 2.34 0 5.238-.274 7.564-.04 1.702.174 1.21-2.661 1.37-4.118.185-1.651 1.794-4.83.132-5.926-2.978-1.894-2.18-3.566-2.153-5.971L60.03.072h17.614c18.198 13.643 35.28 27.227 52.507 40.758 2.073 1.495 5.955 2.995 5.676 6.11-.133.975-.24 1.844 1.515 2.545.85.34 1.795.578 2.513 1.06 1.196.802.997 2.246 1.967 3.207.904.914 1.86 1.04 3.044 1.244.85.148.226-.788 1.755-.027 1.103.547 1.582 2.004 2.844 2.4 1.954.62 4.573.784 6.394 1.857 1.33.783.944 4.462.372 5.744-.784 1.782-1.927 3.473.918 3.879 2.99.43 6.394-1.168 9.358-1.536-.386 8.166.784 16.84-.28 24.927-.132.93.16 1.563-.531 5.99-.226 1.446.28-.399-1.741 3.856-.625 1.307-.599 2.887-1.157 4.235-.545 1.3-1.821 1.695-2.858 2.495-1.263.983-.399 2.278-2.14 1.98-.399-.067-3.895-.999-4.054-.395-.412 1.58-11.313 1.045-12.961 1.176-4.041.322-3.961-.174-6.82 2.954-.89.982-2.658 1.33-3.92 1.053-.732-.133-2.393-.149-3.138-.133-1.316-.027-1.223-1.037-1.223.61-.957-.36-1.874-.817-2.805-1.212-2.273-.95-2.818.642-3.668 0-.838-.617-2.273-1.427-4.148.248-1.954 1.746-4.799 3.201-5.915 3.951-1.888 1.258-3.257 2.25-5.184 2.733-1.582.398-.293 3.743-2.632 2.718-1.436-.63-2.752-1.504-4.28-.448-1.303.9-1.995 2.554-2.473 3.975-.266.812-.638 2.116-1.024 2.886-.332-.229-2.446-.744-3.283-.884.744 1.343 0 3.327.2 4.787-1.303-.04-2.34-.257-2.008 1.34-1.382-.137-5.344-2.147-5.264-3.83-2.526 6.036-4.387 3.19-3.11 5.341.704 1.191.73 2.092.438 3.119-.133.418-3.137-.107-2.406 1.156 1.356 2.337.758 4.853-1.86 7.07-1.224 1.03-2.686.612-4.162.88-1.369.25-2.153 1.749-3.642 1.674 2.659.667.731 2.053 1.529 2.52 1.369.795.213 4.313-.545 5.569-.253.415-1.675.589-1.595.988.438 2.012.704 4.5-.692 6.311-.558.727-2.18.7-2.964.919-1.648.457-.784 2.641-2.871 2.45-2.3-.21-.784-4.8-1.569-6.22-.89.37-1.063 1.968-1.914 2.201-.89.242-1.555-.98-2.207-1.34 0 1.088.532 3.815-1.116 3.791-1.236-.013-2.964.08-1.94 1.76-1.503.668-5.278-1.195-5.079-3.062-.77.344-2.034-.054-2.619.656-.93 1.114-.81 2.44-2.645 2.598 1.356-2.53-3.124-2.903-3.137-5.056 0-1.375.346-2.981 0-4.32-.465-1.909-3.004.323-3.881.282.332-1.226 1.316-4.462 3.163-3.828.665-1.847-3.124-2.529-3.35-4.307-1.21.686-1.103-.672-.983-1.444.239-1.744-.452-2.415-1.197-3.876-.585-1.151.147-2.782-1.196-3.456-.532-.263-2.366-1.282-2.911-.769-.598.564 1.33 1.982 0 2.595-1.462.694-2.632 1.872-4.108 2.614-1.036.514-2.193-.968-3.03-1.312-1.822-.744-3.23-.61-4.52.927-3.244 3.869-1.462-.739-4.28-1.692-1.835-.618-3.762 5.235-5.557.72-.571-1.444 1.808-2.766.652-4.395-.665-.939-.147-3.176.226-4.158.412-1.16-3.111-7.765-3.842-4.896-.824-.235-2.154-2.805-2.513-3.585-.332-.702.732-2.108.692-3.498 0-2.087.173-2.975-1.303-4.616-.505-.57-1.05-1.251-.704-2.073.584-1.407.172-1.406-.386-2.79" fill="#cbe6a3" fill-rule="evenodd" stroke="#000" stroke-width=".144"><title>Mali</title></path></svg>