<svg xmlns="http://www.w3.org/2000/svg" width="455.806" height="359.158" viewBox="0 0 120.59857 95.02713"><path class="landxx ma" d="M.053 94.612c.465-.507 1.954-2.875 2.473-3.067 1.887-.684 3.948-.772 5.888-1.2 3.603-.795 7.272-1.936 9.997-4.546 2.672-2.56 5.45-4.572 8.241-6.945 2.672-2.271 4.72-5.302 6.873-8.06 1.449-1.872 4.785-7.26 1.967-9.303-1.09-.79-1.848-.816-1.156-2.28.69-1.452.624-2.905.704-4.49.213-4.412 1.808-6.38 4.507-9.668 1.542-1.88 1.116-3.792 1.767-5.954.466-1.564 1.755-2.777 2.925-3.841 2.499-2.277 4.48-5.08 7.617-6.498 3.416-1.543 7.045-2.749 10.302-4.606 6.46-3.675 9.557-12.628 12.003-19.218.24-.636 1.09-3.885 2.074-3.785 1.21.12 2.433-.366 3.456-.918 1.303-.696 1.555 1.028 1.928 1.956.73 1.792 1.701 3.01 3.283 4.131 3.297 2.342 6.035 1.687 9.81 1.235 3.124-.373 7.099 1.528 9-2.145 0 1.196.292 1.494.465 2.402.173.973 1.94 1.465.399-.107.837 1.16 2.326 1.751 3.668 1.082 1.37-.682 2.194.724 3.031 1.502.904.837 2.513 1.31 3.058 2.489.611 1.348-.718 2.583 1.156 3.35-1.01.796-.691 2.258-.492 3.33.306 1.696-.266 3.187 0 4.824.16 1.314 1.01 2.153.678 3.565-.492 2.123-.252 2.876.758 4.744.518.95 0 1.797.571 2.668.758 1.295 1.955 1.81 3.084 2.701 2.087 1.644-4.147 4.375-.81 5.636-3.443.883-15.487-3.25-17.255 1.416-.917 2.437-3.323 3.364-5.928 3.146-1.968-.166-4.387 2.646-1.702 3.382-2.273 2.077 1.901 3.614.904 4.6-1.143 1.125-3.124.719-4.36 1.613-1.276.939-2.685 2.345-4.214 2.87-1.143.396-2.446.362-3.522.965-2.087 1.169-2.938 3.619-4.467 5.333-1.755 1.966-5.011 2.735-7.564 2.836-1.914.08-3.987-.73-4.758 1.558-.825 2.44-3.23.613-5.145.755-1.356.093-2.153.776-3.017 1.717-.89.957-1.928.755-3.031 1.197-1.276.509-2.06 1.769-3.084 2.617-1.077.901-2.42 1.462-3.523 2.357-2.153 1.745-4.04 2-3.828 5.02.213 3.003-.133 6.333-.439 9.32-.146 1.266-40.144.313-44.225.313" fill="#cbe6a3" fill-rule="evenodd" stroke="#000" stroke-width=".144"><title>Morocco</title></path></svg>