<svg xmlns="http://www.w3.org/2000/svg" width="510.926" height="520.253" viewBox="0 0 135.18242 137.65018"><path class="landxx na" d="M.245 3.427c1.409-.22 2.512-1.458 4.014-1.19 1.29.226 2.446 1.198 3.802.939 2.818-.54 4.759-3.834 7.976-2.956 2.565.699 3.921 3.578 6.5 4.431 1.449.486 5.942.297 8.335.318 10.913.093 21.853.311 32.767-.133 2.884-.12 3.855-.328 5.224 2.22 1.728 3.242 4.32 2.526 7.444 2.869 4.08.448 8.428.262 12.256 1.604 1.476.516 2.792.702 4.094-.08 1.143-.696 2.247-.446 3.908-.04 1.675.41 2.672.133 3.789-.132 6.806-1.581 14.516-3.18 21.747-4.547 1.396-.266 2.818-.906 4.267-.684.864.133 2.154.958 3.004.533 2.725-1.356 3.975 1.513 5.77 2.743-1.303-.34-2.832.423-4.068.906-1.542.6-1.994 2.9-3.47 1.54-2.379-2.188-7.032 4.981-8.786 5.824-.85-1.643-1.768-5.301-4.2-5.531-3.138-.297-7.046 1.285-10.09 1.933-3.602.761-7.843.908-11.419 1.575L91.78 57.972l-9.04-.133-1.953 72.284c.226 3.297-2.606 1.915-4.174 3.403-.785.745-.718 1.463-2.273 1.994-1.064.373-1.556.811-.692 1.795-2.379.704-2.273-.186-4.493-.519-2.326-.345-4.32.918-7.071.32-4.374-.931-6.966-2.553-7.165-3.35-.545-2.234 0-1.316 0-3.084-.133-.705-.851-.519-1.383-1.064-.757-.797-1.409-2.472-2.22-1.967-2.525 1.608-1.82 3.988-2.711 4.679-1.25.97-2.819 2.26-4.135.611-1.728-2.18-4.04-3.908-5.583-6.234-1.369-2.074-2.472-4.29-3.575-6.507-.585-1.176-.638-2.442-.851-3.711-.2-1.31-1.103-1.994-1.356-3.188-.465-2.19.505-2.993-1.117-5.011-.638-.806-.425-1.326-.398-2.354 0-1.663-.545-3.103-.718-4.725-.133-1.155 0-2.325-.36-3.455-.478-1.597.333-3.143 0-4.741-.53-2.754-1.847-5.268-2.844-7.867-1.13-2.934-.279-5.41-.571-8.38-.2-2.015-.506-4.538-.32-5.579.133-.488 1.317-5.382.772-5.264-.133-2.636-1.45-5.217-2.952-7.332-.837-1.19-1.807-2.299-2.512-3.58-.651-1.178-.784-2.619-1.635-3.691-3.908-4.944-4.746-10.946-7.643-16.303-2.646-4.91-3.536-11.655-7.843-15.518C.324 15.347-.22 9.28.178 3.42" fill="#cbe6a3" fill-rule="evenodd" stroke="#000" stroke-width=".144"><title>Namibia</title></path></svg>