<?xml version="1.0" encoding="UTF-8" standalone="no"?>
<!-- Created with Inkscape (http://www.inkscape.org/) -->

<svg
   xmlns:dc="http://purl.org/dc/elements/1.1/"
   xmlns:cc="http://creativecommons.org/ns#"
   xmlns:rdf="http://www.w3.org/1999/02/22-rdf-syntax-ns#"
   xmlns:svg="http://www.w3.org/2000/svg"
   xmlns="http://www.w3.org/2000/svg"
   xmlns:sodipodi="http://sodipodi.sourceforge.net/DTD/sodipodi-0.dtd"
   xmlns:inkscape="http://www.inkscape.org/namespaces/inkscape"
   width="135.18242mm"
   height="137.65018mm"
   viewBox="0 0 135.18242 137.65018"
   version="1.1"
   id="svg30158"
   inkscape:version="0.92.0 r15299"
   sodipodi:docname="namibia.svg">
  <defs
     id="defs30152" />
  <sodipodi:namedview
     id="base"
     pagecolor="#ffffff"
     bordercolor="#666666"
     borderopacity="1.0"
     inkscape:pageopacity="0.0"
     inkscape:pageshadow="2"
     inkscape:zoom="0.35"
     inkscape:cx="1296.8914"
     inkscape:cy="577.26903"
     inkscape:document-units="mm"
     inkscape:current-layer="layer1"
     showgrid="false"
     fit-margin-top="0"
     fit-margin-left="0"
     fit-margin-right="0"
     fit-margin-bottom="0"
     inkscape:window-width="1920"
     inkscape:window-height="1017"
     inkscape:window-x="1912"
     inkscape:window-y="-8"
     inkscape:window-maximized="1" />
  <metadata
     id="metadata30155">
    <rdf:RDF>
      <cc:Work
         rdf:about="">
        <dc:format>image/svg+xml</dc:format>
        <dc:type
           rdf:resource="http://purl.org/dc/dcmitype/StillImage" />
        <dc:title></dc:title>
      </cc:Work>
    </rdf:RDF>
  </metadata>
  <g
     inkscape:label="Layer 1"
     inkscape:groupmode="layer"
     id="layer1"
     transform="translate(360.14478,-163.91893)">
    <path
       inkscape:connector-curvature="0"
       id="na"
       class="landxx na"
       d="m -359.89998,167.34604 c 1.40904,-0.21933 2.51237,-1.45824 4.01448,-1.19103 1.28941,0.2273 2.4459,1.19902 3.80176,0.93979 2.81812,-0.53968 4.75889,-3.83368 7.97578,-2.95635 2.56553,0.69923 3.92142,3.57847 6.50025,4.43187 1.44891,0.48521 5.94193,0.29645 8.33467,0.31772 10.9135,0.0931 21.85358,0.31105 32.76708,-0.13295 2.88457,-0.11963 3.85495,-0.32833 5.22413,2.21993 1.72808,3.24215 4.3202,2.52567 7.44406,2.86862 4.08092,0.44797 8.42772,0.26186 12.25607,1.60446 1.47552,0.51577 2.79152,0.70185 4.09424,-0.0798 1.14318,-0.69656 2.24651,-0.44663 3.90811,-0.0399 1.67492,0.40943 2.67188,0.13292 3.78851,-0.13293 6.80597,-1.58055 14.51587,-3.17967 21.74724,-4.54619 1.39575,-0.26585 2.81809,-0.90659 4.26703,-0.68458 0.86404,0.13292 2.15345,0.95841 3.0042,0.53303 2.72507,-1.35586 3.97459,1.51274 5.76914,2.74366 -1.3027,-0.34028 -2.83138,0.42272 -4.06764,0.90525 -1.54197,0.59953 -1.99395,2.90054 -3.46944,1.54066 -2.37946,-2.18802 -7.03197,4.98087 -8.78666,5.82363 -0.85075,-1.64301 -1.76795,-5.30121 -4.20056,-5.53118 -3.13712,-0.29645 -7.04526,1.28542 -10.08933,1.93278 -3.60239,0.76169 -7.84285,0.90792 -11.41864,1.57522 l -1.32931,42.40314 -9.03919,-0.13292 -1.95405,72.28434 c 0.22597,3.29665 -2.60543,1.91419 -4.17398,3.403 -0.7843,0.7444 -0.71783,1.46223 -2.27311,1.99395 -1.06344,0.37219 -1.55527,0.81085 -0.69123,1.79453 -2.37943,0.70453 -2.27308,-0.18609 -4.49301,-0.51841 -2.32627,-0.34563 -4.32022,0.9172 -7.07184,0.31903 -4.37338,-0.93051 -6.96552,-2.55224 -7.16489,-3.34983 -0.54503,-2.23322 0,-1.316 0,-3.08397 -0.13295,-0.70451 -0.85075,-0.5184 -1.38247,-1.06344 -0.75769,-0.79756 -1.40907,-2.47248 -2.21993,-1.96734 -2.52566,1.60844 -1.82113,3.98787 -2.71175,4.67912 -1.24954,0.97038 -2.81811,2.2598 -4.13411,0.61146 -1.72808,-2.18003 -4.04106,-3.90811 -5.58303,-6.23438 -1.36917,-2.07369 -2.47251,-4.29097 -3.57581,-6.5069 -0.58488,-1.17643 -0.63806,-2.44191 -0.85075,-3.71139 -0.1994,-1.31066 -1.10331,-1.99393 -1.35586,-3.18763 -0.46527,-2.18936 0.50511,-2.99357 -1.11662,-5.01144 -0.63806,-0.80555 -0.42538,-1.32532 -0.3988,-2.35419 0,-1.66294 -0.54501,-3.10256 -0.7178,-4.7243 -0.13295,-1.15517 0,-2.32493 -0.35892,-3.45484 -0.47854,-1.59781 0.33232,-3.14377 0,-4.7416 -0.53172,-2.7543 -1.84772,-5.26799 -2.84468,-7.86675 -1.12991,-2.93376 -0.27916,-5.41024 -0.57161,-8.37988 -0.1994,-2.0152 -0.50511,-4.53821 -0.31903,-5.57903 0.13295,-0.48786 1.31602,-5.38232 0.77101,-5.264 -0.13295,-2.63601 -1.44894,-5.21749 -2.95104,-7.33241 -0.83746,-1.18971 -1.80785,-2.29835 -2.51238,-3.57978 -0.65135,-1.17777 -0.78428,-2.6187 -1.63503,-3.69146 -3.90811,-4.94363 -4.74557,-10.94538 -7.64342,-16.30246 -2.6453,-4.9104 -3.53592,-11.65523 -7.84285,-15.51816 -4.63923,-4.15405 -5.18424,-10.21963 -4.78547,-16.08048"
       style="fill:#cbe6a3;fill-opacity:1;fill-rule:evenodd;stroke:#000000;stroke-width:0.14449541;stroke-miterlimit:4;stroke-dasharray:none;stroke-opacity:1">
      <title
         id="title1028">Namibia</title>
    </path>
  </g>
</svg>
