<svg xmlns="http://www.w3.org/2000/svg" width="458.797" height="418.269" viewBox="0 0 121.38991 110.667"><g class="landxx coastxx ng" transform="matrix(1.3293 0 0 1.3293 -1716.262 -849.87)" fill="#cbe6a3" fill-rule="evenodd" stroke="#000" stroke-width=".109"><title>Nigeria</title><path d="M1325.36 721.65c.91-.06 1.24-.624.5-1.224-.31.349-.48.756-.5 1.224M1327.3 721.22l.72-.432c-.51 0-.99.127-1.44.359.24.03.48.05.72.07"/><path class="landxx ng" d="M1291.16 691.27c.9-3.12-.4-6.833.97-9.781.34-.721 1.61-.08 2.21-.776 1.03-1.187.1-2.625 1.15-3.813.69-.778.65-2.009 1.49-2.5.89-.516 2.21-1.616 1.78-2.872-.34-.975-.78-1.783.52-2.05 1.82-.374.35-2.985.16-3.768-.19-.798.1-1.5-.34-2.272-.35-.663-.91-1.19-1.26-1.862-.7-1.378.32-2.544.73-3.825.49-1.543.15-3.188.26-4.789.13-1.934.65-2.333 2.01-3.664 1.16-1.146 1.67-2.875 1.62-4.469 0-1.345.9-2.146 1.86-2.948 1.14-.944 2.54-1.204 3.97-1.261 1.88-.07 2.89-.753 4.62-1.189 1-.256 2.32.902 3.15 1.32 1.44.721 2.94.3 4.18 1.507 1.1 1.066 1.63 2.338 2.37 3.627.29.489.67 1.008 1.23 1.192 1.19.387 1.36-.946 2.31-1.05 3.15-.349 4.19-3.179 7.49-.836.46.323.96.704 1.26 1.188.14.235 1.01.117 1.26.252 1.38.737 1.92 1.764 3.7 1.831 1.04.04 3.21.61 4.12.208 1.28-.569 1.72-2.227 2.81-3.054 2.64-1.99 6.63-2.161 9.78-1.862 1.65.157 3.13.601 4.6 1.374 1.23.648 2.77 1.602 4.22 1.072 1.38-.509 2.1-2.094 3.24-2.953.63-.471 1.23-.911 2.04-.955 1.23-.07.38-.32 1.06-.774 2.62-1.749 3.46.731 4.42 2.51.81 1.512 2.44 1.635 2.05 5.826 0 .463.68 2.31 1.09 2.64.5.407.89.03 1.51.256 3.25 1.173.29 4.374 1.28 5.897 1.25 1.942-2.77 3.435-4.23 3.282-2.19-.23-2.98 4.558-3.55 6.29-.33.984-.51 2.024-.81 3.006-.33 1.097-1.56.93-1.59 2.169 0 1.109.24 2.518-.61 3.502-.72.832-1.76 1.205-2.73 1.701 1.08.212 0 2.976-.1 3.601-.22 1.791-1.38 2.813-3.17 2.88.17.937-.56 1.144-1.05 1.739-.63.742-.12 1.841-.29 2.725-.4 2.051-1.42 4.208-2.71 5.898-1.11 1.454.94 2.345-1.62 4.011-1.08.702-.43 1.466-.81 2.475-.25.665-1.12 1.297-1.46 1.922-.33.605-1.42.247-1.88.06-.56-.225-.43-1.891-.47-2.39 0-.578-2.02-1.102-2.3-1.768-.43-1.06-.95-.704-1.24-1.933-.22.757-.28 2.097-1.24 2.308-1.22.266-1.74-1.042-2.72-.724-1.77.572-2.15 3.332-3.3 4.088-1.49.982-6.26 5.86-5.63 6.507 1.02 1.036-.81 3.701-.81 4.448 0 1.271-.49 2.319-2.03 4.78-.62-.157-1.19-1.028-.9-1.606-.66.425-1.16-.224-1.44-.721.63 2.367 1.23 2.903-1.52 3.302-1.09.158-4.67.873-3.66-1.358-.47.906-.49 1.148-1.58 1.08-1.21-.08-1-.387-2.17-1.152.55.401 1.21 2.469-.1 1.947-.87-.349.42-2.448-1.12-1.659.43.868.8 1.692.43 2.664-.72-.303-1.54-2.884-1.29-3.672-.83.713.54 2.794.11 3.768-.59 1.358-.59-1.829-.55-2.112-.14.397-.36 2.579-.43.647 0 .57-.1 1.211-.5 1.656 0-.517-.17-.997-.43-1.44.3.619.28 1.616-.67 1.531-1.71-.153-1.24.239-1.71-1.387 0 1.537-1.18 2.872-1.44.648 0 1.443-.36.497-1.41-.02-1.04-.507-1.74-1.518-2.26-2.503-.5-.925-1.12-1.934-.86-3.011.18-.72.27-1.38-.73-1.094-.19-.782-.11-1.221.69-1.382 1.55-.312.1-.87 1.26-1.569-.83.06-1.55 1.179-2.36.996-2.58-.584.95-1.485 1.57-1.572-.42-.505-.9-.577-1.44-.216 0-.313 0-.625.1-.937-.16.899-1.3 1.548-1.73.432-.4-1.01.81-1.456 1.37-2.016-.66.266-1.25.721-1.73 1.225-.99-2.247-3.18-4.733-5.63-5.358-1.19-.304-2.62-.46-3.85-.385-.96.06-2.37.477-3.19-.233 1.04.205 2.58-.491 3.17-1.368-1.07-.05-1.83 1.21-2.88.36-.38.452-.48.956-.29 1.512-1.73.226-3.49-.104-5.19.288-.1-1.08.55-2.031.58-3.096 0-1.102-.47-1.911-.19-3.05.45-1.855.49-5.42-.6-7.1"/></g></svg>