<svg xmlns="http://www.w3.org/2000/svg" width="598.957" height="512.653" viewBox="0 0 158.47411 135.63943"><path class="landxx ne" d="M.645 104.201c-1.409-1.664.24-4.698.133-6.604 1.688.594 3.789.425 5.557.445 2.1.027 2.632-1.05 3.881-2.49 1.489-1.733 3.23-1.3 5.37-1.467 2.712-.213 5.437-.461 8.162-.516 1.29-.026 2.553-.026 3.842.12 2.526.295.146-.774 1.33-1.075 1.887-.486 4.373 2.068 5.197-.094.718-1.898 2.95-2.161 3.695-3.878.771-1.762.745-3.65 1.715-5.367 2.034-3.582 1.582-7.549 1.781-11.643.293-5.836.2-11.68.173-17.522 0-3.63.292-4.575 3.895-5.414 3.19-.743 6.5-.918 9.677-1.701 3.762-.924 6.235-4.617 8.893-7.205 3.868-3.76 7.577-7.856 11.844-11.174 8.68-6.762 18.318-12.886 27.596-18.806 4.374-2.788 8.574-5.842 12.948-8.632 4.094-2.612 9.584.067 13.93 1.258 3.816 1.04 6.873 3.518 9.478 6.415 1.117 1.248 1.463 1.306 2.832.364 1.954-1.335 4.04-2.406 6.075-3.6.957 5.075 1.754 10.043 2.153 15.182.16 2.043 1.356 3.45 2.406 5.117.598.95 1.157 1.946 1.555 2.997.386.985-.69 1.783.16 2.757 1.09 1.254 2.924 2.321 3.39 4.016.571 2.074-1.795 4.215-1.98 6.29-.573 6.19-1.556 12.357-1.556 18.588 0 2.685-.28 5.358-.36 8.04 0 2.158.24 4.795-.491 6.864-.611 1.782-2.393 3.302-3.55 4.757-1.86 2.361-3.894 4.584-5.782 6.923-3.11 3.847-5.742 8.254-7.47 12.873-.426 1.114-.917 2.199-1.675 3.127-.372.442-1.13.319-1.41.858-.863 1.688 1.224 6.473 1.503 8.33-.917 0-2.1-.23-2.925.307-.877.57-.73 1.183-1.714 1.621-2.22.976-3.829 1.877-5.504 3.647-2.592 2.725-4.12 1.539-7.27.263-3.67-1.493-6.98-1.692-10.901-1.796-3.363-.093-6.248.525-8.8 2.833-.877.785-1.515 1.687-2.18 2.638-1.143 1.647-1.834.601-3.483.753-3.868.355-5.53-1.6-8.76-2.891-2.353-.946-5.064-4.274-7.91-2.768-1.076.569-1.887 1.513-2.937 2.123-.81.47-2.087-.24-2.446.543-1.489 3.219-4.094-.77-4.705-2.11-1.423-3.159-3.63-4.368-6.833-4.947-1.821-.328-3.204-1.871-5.065-2.042-1.661-.151-2.313 1.562-4.067 1.527-3.177-.067-6.075-.329-8.388 2.307-.758.866-1.555 1.288-1.662 2.477-.173 1.97-.239 3.626-1.422 5.285-1.582 2.24-3.523 3.72-3.416 6.696 0 .626-.32 6.981-.705 6.763-1.888-1.065-5.955-8.243-7.936-8.002-.625.08-.877.833-1.422 1.043-.731.28-2.366.08-2.858.823-.253.384.85 3.565.133 3.541-.665-.026-2.22-2.851-2.54-3.372-1.023-1.7-.225-2.05 1.197-2.618-.465-.946-.545-2.262-1.435-2.945-1.609-1.233-2.606 1.333-4.28 1.038-3.098-.55-8.176-5.46-6.727-8.716.864.631 1.715.655 2.672.192-.465-.39-6.5-4.624-6.7-4.215.439-.9-1.794-2.588-2.087-3.594-.492-1.73-.133-3.34-1.741-4.541" fill="#cbe6a3" fill-rule="evenodd" stroke="#000" stroke-width=".144"><title>Niger</title></path></svg>