<svg xmlns="http://www.w3.org/2000/svg" width="77.432" height="76.582" viewBox="0 0 20.487217 20.262377"><path class="landxx rw" d="M.162 16.587c-.704-1.45 2.951-3.93 2.912-5.863 0-3.397 1.462-4.87 4.36-6.554.359-.21 2.1-1.306 2.552-.954.611.474.837 2.113 1.821 1.025.771-.855 3.31-4.618 4.719-4.124-.665 1.948 1.01 4.406 1.9 5.85 1.104 1.803 2.234 4.906 1.942 6.977-.373 2.605-1.861 2.944-4.055 2.108-2.499-.95-3.11 1.315-5.25-.58-.306 2.352-.133 4.917-2.951 5.508-1.45.3-2.805.489-3.51-.962-.784-1.595-2.858-1.467-3.017.44-.904-.844-1.343-1.623-1.423-2.87" fill="#cbe6a3" fill-rule="evenodd" stroke="#000" stroke-width=".144"><title>Rwanda</title></path></svg>