<svg xmlns="http://www.w3.org/2000/svg" width="116.246" height="134.856" viewBox="0 0 30.756847 35.680527"><g class="landxx coastxx sl" transform="matrix(1.3293 0 0 1.3293 -1554.596 -894.37)" fill="#cbe6a3" fill-rule="evenodd" stroke="#000" stroke-width=".109"><title>Sierra Leone</title><path d="M1172.52 693.667c-.1.168-.14.336-.21.504.97.304 1.93.721 2.95.864.17-.384.3-.916-.13-1.191-.74-.473-1.8-.127-2.61-.177"/><path class="landxx sl" d="M1169.57 681.426c.61-.565 1.4-.07 2.09-.504.66-.419.48-1.563 1.29-1.8 1.33-.391 2.23-2.965 2.65-4.127.7-1.941 2.75-.512 4.2-1.481 1.24-.83 4.71-.894 5.95.02 1.19.88 1.77 2.383 2.54 3.602.41.636.85 1.286 1.12 1.995.19.519-.39 1.15 0 1.521.45.458.94.352.99 1.124 0 .604-.19 1.652.27 2.138.65.683-1.54 2.894-1.41 4.063.16-.362 1.78-1.212 2.16-1.44 1.48-.89 1.24.33.88 1.446-.41 1.275-2.28.927-2.45 2.777-.16 1.772-.22 1.687-1.2 2.721-.78.824-1.54 1.642-2.65 2.451-1.5 1.09-2.17 3.861-2.83 3.661-.7-.214-6.52-3.345-7.45-4.128 1.62.461.35-.306-.1-.575.69-.484 1.59-.487 2.23-1.08-1.34.166-3.28.371-2.16-1.584-.88 2.015-1.97-.25-2.73-.146-.53.07-.99-3.461-1.01-3.887-1.1.256-2.83-.659-2.02-2.088.47.376.98.712 1.51 1.008-1.26-.633.59-1.711 1.3-1.656-.29-.479-.16-.356-.1-.936-.65 1.307-1.29.636-2.09.144-.11.259-.21.522-.29.792-.94-1.586-.16-2.195 1.22-2.52-.53-.702-1.58-.64-1.94-1.513"/></g></svg>