<svg xmlns="http://www.w3.org/2000/svg" width="393.619" height="594.025" viewBox="0 0 104.14494 157.16919"><g class="landxx coastxx so" transform="matrix(1.3293 0 0 1.3293 -2104.974 -871.967)" fill="#cbe6a3" fill-rule="evenodd" stroke="#000" stroke-width=".109"><title>Somalia</title><path class="landxx so so-" d="M1583.7 739.51c0-1.407-.37-3.353.24-4.67.58-1.254 1.76-2.223 2.55-3.353 1.59-2.258 2.97-6.299 5.37-7.752 2.2-1.327 4.77-.469 6.69-2.534 2.19-2.345 4.26-3.877 7.56-4.355 2.47-.357 6.82 1.401 8.53-.863l21.69-25.648c-2.63 0-5.35.446-7.92-.216-2.93-.75-5.72-2.158-8.54-3.21-2.91-1.084-5.81-2.209-8.71-3.309-2.69-1.018-5.05-1.729-7.12-3.798-.69-.693-.91-1.057-1.87-1.311-.97-.259-1.35-1.769-1.8-2.568-.78-1.356-1.29-2.453-2.38-3.649-1.31-1.427-2.84-3.257-2.25-5.38.65-2.33 2.69-4.376 3.6-6.673 2.41 1.34 3.73 4.542 5.37 6.615 2.05 2.588 5.18 3.306 8.35 2.26 1.22-.4 2.79-1.484 3.83-2.25 1.83-1.354 2.35-1.126 4.61-.755 2.33.384 3.38.872 5.55-.486 1.1-.686 3.63-3.244 5.04-2.74 1.56.554 2.64.623 4.31.05 1.02-.348 1.97-.86 3.02-1.093 1.21-.268 2.01.255 3.16.369 1.87.188 3.31-.926 4.94-1.587 1.69-.689 3.61-.384 5.32-1.251 1.42-.722 1.57-2.578 2.77-3.172 1.18-.577 4.96.426 4.49 2.116-.6 2.189-1.01 3.524-.6 5.845.28 1.617.7 3.935-.72 5.175.94.353 1.72.134 1.51-.864.47.311.98.527 1.52.648-.31 1.551-3.82-.574-3.84 2.149 0 2.224.18 4.5-.44 6.68-.53 1.862-1.65 3.287-2.7 4.85-1.23 1.824-1.08 4.526-2.59 6.283-.58.682-1.38.856-1.79 1.756-.4.895 0 1.905-.39 2.852-.76 2.16-2.31 3.875-3.38 5.865-1.44 2.648-1.55 5.563-2.67 8.301-1.14 2.783-2.91 5.242-4.54 7.747-1.58 2.431-2.63 5.247-4.45 7.517a528.674 528.674 0 0 1-6.08 7.524c-4.12 5.004-8.31 9.071-13.77 12.587-2.29 1.474-4.57 3.005-6.48 4.961-2.16 2.201-4.62 4.374-6.56 6.752-1.93 2.354-3.96 4.645-5.86 7.008-.93 1.151-1.74 2.388-2.64 3.559-.56.724-2.23 3.337-2.52 1.813 0 2.476-1.62 4.855-3.11 6.724.12-1.942-1.75-3.548-3.08-5.466-1.53-2.189-1.28-3.697-1.31-6.233-.1-7.667.1-15.152.1-22.816"/><path class="limitxx so xs" d="M1636.33 690.335c-2.63 0-5.35.446-7.92-.216-2.93-.75-5.72-2.158-8.54-3.21-2.91-1.084-5.81-2.209-8.71-3.309-2.69-1.018-5.05-1.729-7.12-3.798-.69-.693-.91-1.057-1.87-1.311-.97-.259-1.35-1.769-1.8-2.568-.78-1.356-1.29-2.453-2.38-3.649-1.31-1.427-2.84-3.257-2.25-5.38.65-2.33 2.69-4.376 3.6-6.673 2.41 1.34 3.73 4.542 5.37 6.615 2.05 2.588 5.18 3.306 8.35 2.26 1.22-.4 2.79-1.484 3.83-2.25 1.83-1.354 2.35-1.126 4.61-.755 2.33.384 3.38.872 5.55-.486 1.1-.686 3.63-3.244 5.04-2.74 1.56.554 2.64.623 4.31.05 1.02-.348 1.97-.86 3.02-1.093.35-.08.67-.09.97-.06l.1 23.567-4.14 5.013z"/></g></svg>