<svg xmlns="http://www.w3.org/2000/svg" width="609.984" height="550.094" viewBox="0 0 161.39159 145.54575"><path class="landxx za" d="M102.574 86.339c1.263 1.25 1.156 3.057 2.18 4.346.89 1.13.585 2.606 1.515 3.536 1.17 1.157 4.227 5.065 6.248 3.417.89-.718 1.635-3.111 2.26-4.148.983-1.648 2.645-1.316 4.24-1.768 1.17-.319 3.656-1.302 4.148-2.525.638-1.569.704-2.46 1.82-3.842.426-.519 1.755-1.94 1.53-2.712-.692-2.42-1.702-2.565-3.31-4.24-1.25-1.316-2.593-2.54-3.829-3.855-1.063-1.143-2.911.651-3.881 1.076-1.077.466-1.596.97-2.659 1.556-1.236.678-2.539.438-3.523 1.701-1.063 1.37-1.595 3.07-2.552 4.52-1.09 1.648-2.685 1.834-4.187 2.938M.072 74.096c.997-.944 2.512-.745 2.698-2.233.173-1.25 1.05-3.43 2.38-3.842 1.741-.572 1.529 1.874 2.725 2.22 2.06.598 0 2.658.957 3.908 1.755 2.207 4.466 2.406 7.059 3.23 2.352.745 4.253-.306 6.553-.252 2.06 0 2.871 1.223 4.998.598-1.276-1.45.306-1.675 1.17-2.02 1.183-.466 1.263-1.995 2.765-2.433.957-.28 2.964-.412 3.084-1.755l.917-41.356c1.13 1.595 3.084 2.35 4.134 4.012 1.196 1.897 1.94 4.419 2.725 6.52.784 2.122 1.489 4.428.465 6.615-1.329 2.798-2.286 4.328-.997 7.447 2.274-2.632 7.923 1.367 10.409-1.04.399-.399.133-1.42.691-1.594.678-.195 1.263-.053 1.928-.432 1.714-.98 2.073-3.234 3.854-4.296 1.968-1.167 3.23-2.451 3.67-4.793.398-2.04.332-3.735 2.007-5.258 1.462-1.327 3.363-1.594 5.144-.788 1.475.664 3.602 3.791 4.998 3.752 3.15-.08 6.846 3.71 9.824 1.352 1.329-1.055 3.336.412 4.998-.825 1.768-1.323 2.419-3.532 3.177-5.527.412-1.057.77-2.146.944-3.268.279-1.824-.599-1.69 1.262-2.214 1.064-.305 4.214-.84 4.8-1.847 1.05-1.8 3.15-2.61 4.027-4.514.957-2.075.545-4.22 1.967-6.175 1.21-1.673 2.566-1.822 4.148-2.917 1.608-1.124 3.655-2.853 4.891-4.402 1.037-1.32 1.742-3.344 3.31-4.144 1.582-.8 3.443-.874 5.092-1.475 1.568-.575 1.528-1.273 2.3-2.495.65-1.037 2.432-1.373 3.522-1.6 4.44-.93 7.151 1.992 11.472 2.023 3.855.027 7.35-1.456 8.614 3.265.704 2.633 1.302 5.318 1.382 8.055 0 2.491 1.582 4.63 2.486 6.867 1.927 4.791 1.462 9.34 1.21 14.398-.134 1.945 0 4.327-.692 6.382-.345 1.002-.492.941-.133 3.828.16.08-1.17-1.43-2.499-1.885-1.25-.432-2.38-.27-3.403-.258-.837 1.653-2.127 1.314-3.097 3.407-1.157 2.525-2.207 6.404-2.566 6.123 1.875 1.691 2.513 3.043 3.67 4.374 1.887 2.165 4.612 3.316 6.686 1.266.558-.56-.293-.862 1.768-3.73l1.714.039 6.022.209c-1.13 5.039-2.579 9.484-3.921 14.48-.692 2.578-2.06 7.83-5.61 7.577.558 1.262-1.09 1.223-1.861 1.369-.944.2-1.755 1.396-2.366 2.06-2.14 2.393-4.32 5.224-5.304 8.255-.558 1.702-2.06 2.778-2.911 4.307-1.33 2.353-2.712 4.68-4.254 6.886-2.778 3.974-5.756 6.66-9.465 9.704-3.083 2.552-4.918 6.26-8.002 8.8-3.921 3.23-7.776 6.566-11.817 9.637-3.19 2.42-6.833 5.317-10.94 5.862-1.968.28-3.922-.81-5.863-.213-1.409.426-3.376 2.127-1.435 3.35-2.313 1.024-4.865-1.914-7.032-.438-2.526 1.728-3.058 2.751-6.514 1.435-2.605-.983-5.928-2.047-8.667-.997-1.236.466-.611 1.263-2.472.598-1.103-.398-3.004.28-3.563-.983v.478c-2.818-.452-7.31.838-8.76 3.456-1.25 2.287-7.537-.132-9.53.785-1.197.518-2.46.173-3.59.704-1.356.638-2.871 1.954-4.068 2.885-1.515 1.17-.917.944-2.658.492-.758-.2-1.622.239-2.3-.32-.77-.637-1.502-1.395-2.486-1.688 1.742-2.392-3.615-2.485-4.785-2.685.718-1.86 0-3.522-2.247-3.11-1.502.279-.957 2.047-.917 3.11-2.738-1.063-.571-4.307-.305-5.968.226-1.436-.559-2.925-1.29-4.108-.412-.678-3.815-5.397-1.555-3.217-.97-.97-.545-2.033-1.98-2.02-1.21 0 .132-3.018.252-3.443 3.097 1.821 3.881-1.741 3.948-4.12.133-4.082-1.037-7.525-3.15-11.02-3.138-5.212-5.916-10.356-7.724-16.205-.837-2.738-1.382-5.543-2.393-8.228C2.757 79.4.325 77.02.072 74.095" fill="#cbe6a3" fill-rule="evenodd" stroke="#000" stroke-width=".144"><title>South Africa</title></path></svg>