<?xml version="1.0" encoding="UTF-8" standalone="no"?>
<!-- Created with Inkscape (http://www.inkscape.org/) -->

<svg
   xmlns:dc="http://purl.org/dc/elements/1.1/"
   xmlns:cc="http://creativecommons.org/ns#"
   xmlns:rdf="http://www.w3.org/1999/02/22-rdf-syntax-ns#"
   xmlns:svg="http://www.w3.org/2000/svg"
   xmlns="http://www.w3.org/2000/svg"
   xmlns:sodipodi="http://sodipodi.sourceforge.net/DTD/sodipodi-0.dtd"
   xmlns:inkscape="http://www.inkscape.org/namespaces/inkscape"
   width="167.24544mm"
   height="158.83058mm"
   viewBox="0 0 167.24544 158.83058"
   version="1.1"
   id="svg14684"
   inkscape:version="0.92.0 r15299"
   sodipodi:docname="sudan.svg">
  <defs
     id="defs14678" />
  <sodipodi:namedview
     id="base"
     pagecolor="#ffffff"
     bordercolor="#666666"
     borderopacity="1.0"
     inkscape:pageopacity="0.0"
     inkscape:pageshadow="2"
     inkscape:zoom="0.35"
     inkscape:cx="316.05435"
     inkscape:cy="300.15229"
     inkscape:document-units="mm"
     inkscape:current-layer="layer1"
     showgrid="false"
     fit-margin-top="0"
     fit-margin-left="0"
     fit-margin-right="0"
     fit-margin-bottom="0"
     inkscape:window-width="1920"
     inkscape:window-height="1017"
     inkscape:window-x="1912"
     inkscape:window-y="-8"
     inkscape:window-maximized="1" />
  <metadata
     id="metadata14681">
    <rdf:RDF>
      <cc:Work
         rdf:about="">
        <dc:format>image/svg+xml</dc:format>
        <dc:type
           rdf:resource="http://purl.org/dc/dcmitype/StillImage" />
        <dc:title></dc:title>
      </cc:Work>
    </rdf:RDF>
  </metadata>
  <g
     inkscape:label="Layer 1"
     inkscape:groupmode="layer"
     id="layer1"
     transform="translate(100.63164,-69.418045)">
    <path
       inkscape:connector-curvature="0"
       id="sd"
       class="landxx sd"
       d="m -70.512082,223.8621 c 0.412086,-0.41605 0.47856,-1.21895 0.83746,-1.58053 0.57159,-0.56759 1.409049,-1.07273 1.980636,-1.63901 0.890643,-0.88531 0,-2.77823 0.903933,-3.67018 0.638061,-0.63938 2.632012,0.30973 3.389707,-0.45196 0.518427,-0.52373 3.575788,-1.45558 4.067638,-0.96108 0.664641,0.66997 0.571587,2.8952 0.903909,3.21954 0.279159,0.28181 1.289413,0.10634 1.528681,0.33899 0.425373,0.43733 0.465267,1.27213 0.731115,1.80784 0.172818,0.35491 0.598191,0.7723 0.784299,0.95975 0.677931,0.67927 0.305742,2.51104 0.903909,3.10655 0.398796,0.39081 1.648338,0.97968 2.087004,1.12991 1.169779,0.38813 5.848874,-1.15118 6.500225,-1.80784 0.146238,-0.14358 0.890644,0.093 1.023568,0.11963 1.847712,0.37219 4.639228,0.40277 6.034984,0.17014 0.704535,0.98767 1.090041,2.44457 1.807842,3.16239 0.784299,0.78162 6.074876,0.29776 7.125023,-0.22597 0.345612,-0.17679 0.159528,-1.00629 0.332322,-1.35589 0.478557,-0.9438 1.927474,-2.17604 2.990911,-2.71041 1.236255,-0.61548 4.107532,-0.0931 4.798753,-0.79095 0.47856,-0.47853 -0.451953,-3.10256 0.225978,-3.78448 0.917223,-0.91323 2.592118,-1.65099 3.509341,-2.20265 2.605405,0.61545 3.695446,2.57484 5.30389,4.17929 0.90391,0.89994 2.180032,1.32663 2.9377297,2.091 0.225975,0.21799 0.505137,-0.33101 0.571587,-0.39615 0.186108,-0.19141 1.96737,-0.0532 2.366164,-0.0532 0.491823,0 1.807818,0.10635 2.153451,-0.226 1.741369,-1.75066 3.150418,-4.39996 5.02472697,-6.27026 0.86404003,-0.87071 0.97039003,-3.00687 1.80785003,-3.84034 1.54197,-1.54862 3.78847,-2.96699 4.45312,-4.97024 -2.00722,-1.57388 0.545,-6.12803 -0.78428,-7.45466 -0.17282,-0.17547 -2.79151,-2.4592 -2.71175,-2.54161 0.89062,-0.88532 5.75582,0.52108 6.38059,-0.73511 0.41209,-0.81884 -0.13292,-1.9155 0,-2.54161 0.51843,-0.27249 5.3039003,-0.0399 5.3039003,0 0,1.00628 -0.89062,4.56613 -1.40905,5.59235 -0.50514,1.02488 1.1033,7.22204 1.40905,8.47159 0.1595,0.59817 -0.38551,2.82873 -0.15953,3.0494 0.46527,0.47058 1.64834,0.68059 2.25982,1.12989 2.39272,1.79988 3.73529,5.26134 5.47668,7.00405 0.5583,0.56229 0,3.68481 -1.02356,2.88058 0.19939,5.67476 -0.34561,1.91817 3.04409,3.04674 0.13293,-0.84941 0.26585,-1.69086 0.53172,-2.52432 v 0 c 0.62477,-1.92748 1.55526,-3.31525 1.4755,-5.39296 -0.13292,-2.33557 -0.30572,-3.92008 1.20967,-5.83159 1.14318,-1.45028 3.11055,-0.23796 3.07068,1.37847 0.81085,-0.8893 1.18307,-1.60844 1.80782,-2.90983 1.58186,-3.28733 -0.74441,-3.24215 0,-4.12479 1.82113,-2.15479 0.45198,-5.89675 2.43261,-7.20345 1.91419,-1.2575 2.68517,-5.46739 3.88153,-7.38023 1.23625,-1.95141 2.83141,-1.05414 4.7323,-1.31867 1.26284,-0.17679 1.02355,-3.96661 1.05015,-4.85591 0,-2.5097 1.52868,-4.35079 2.03382,-6.73818 0.73109,-3.45219 0.18608,-7.25795 0,-9.67462 -0.13295,-2.59346 -0.93051,-5.76116 0,-7.52248 1.31599,-2.46849 1.71479,-5.82096 2.84467,-8.8624 0.42538,-1.18307 1.05015,-2.48045 1.31602,-3.71536 0.29243,-1.34525 -0.42537,-2.39805 -0.17282,-3.72337 0.23927,-1.34924 0,-4.11948 1.28942,-4.85191 0.89062,-0.53172 3.40299,0.47323 3.74861,-0.7444 0.66464,-2.36614 0.31903,-2.61873 2.92443,-3.60639 1.44894,-0.54632 4.73231,-1.72143 5.51658,-3.00819 0.61148,-0.97968 2.12687,-3.617 2.48578,-4.0065 -0.21269,-1.79187 -3.25676,-1.59248 -3.33653,-3.23018 -1.24954,1.11662 -4.73228,-4.70436 -6.60659,-5.02207 -3.23018,-0.549 -4.18727,-6.80466 -4.3202,-9.51507 -0.1994,-3.86028 -1.36917,-7.34037 -0.86404,-11.135513 0.22598,-1.680224 -0.34561,-3.597064 -1.01027,-5.120437 -0.9172,-2.108253 0.9438,-3.061353 1.40904,-0.982334 -0.13292,-2.73171 -3.27004,-4.451829 -4.01445,-6.98677 -0.91722,-3.062716 0.39879,-4.240456 -2.43262,-6.211792 -2.12687,-1.487497 -3.48273,-4.302938 -5.70266,-5.464734 -2.48577,-1.298712 -4.49301,-2.314295 -5.17096,-5.263998 -0.90391,0.906562 -3.27005,4.482375 -4.70571,3.732639 -1.87429,-0.983672 -2.47248,1.499448 -2.87125,2.64131 -0.7843,2.199991 -1.43565,3.453503 -3.82837,3.864273 -2.37946,0.408093 -2.99091,0.906562 -3.48276,3.292661 -1.09002,5.217459 -6.18122,1.236229 -8.65371,-0.106344 -2.1401603,-1.167127 -5.9020603,-0.276508 -8.2416203,-0.179462 -3.05736003,0.132923 -6.154612,0.200711 -9.172129,-0.32037 0.996987,-0.922529 0.47856,-4.180626 -0.99696,-1.815801 -1.462234,2.336882 -3.3631027,1.911508 -5.8222967,1.911508 -6.300854,0 -12.60171,0 -18.902564,0 -12.840975,0 -25.854771,-0.119634 -38.695746,-0.119634 0.265848,7.654089 0.531717,15.433118 0.664641,23.091178 -3.323233,0 -6.633174,0 -9.943117,0 l 0.957092,49.48163 c -1.648338,-0.51045 -3.363126,-1.13921 -5.011441,-0.28182 -1.342597,0.70984 -2.645301,-0.0797 -4.027768,0.60218 -3.216889,1.59251 0.172818,4.00385 -1.834422,6.56671 -1.621734,2.05244 -1.900896,4.28565 -4.240456,5.52587 -1.462206,0.77897 0,4.42789 0.943803,5.29192 -3.349812,2.67853 -5.516555,3.58777 -3.110545,8.11269 0.903933,1.72278 -0.225977,2.44856 -1.635024,3.44022 -1.502101,1.05944 -1.767973,2.42329 -2.432612,4.04902 1.302701,3.51732 3.761895,0.20871 5.955242,1.47819 1.302703,0.75502 -0.664642,1.99527 0,3.01216 0.731115,1.24157 1.116596,2.8899 0.717825,4.3109 0.345611,-0.17413 0.691222,-0.33363 1.050122,-0.47853 1.036857,1.67492 -0.917198,3.52927 0,5.22544 0.837459,1.68821 3.004202,1.91419 3.735318,3.14114 1.076726,1.80251 -1.18307,3.4575 -0.38548,5.2095 0.824144,1.81449 2.273086,3.17967 3.655553,4.56346 2.472483,2.47647 4.639226,6.14266 4.652516,9.6879 0,0.65931 0.159528,1.30536 0.159528,1.91285 0,0.0134 5.928639,0 5.928639,0 0.677956,0.25124 0.890643,-0.31372 1.40907,-0.80555 0.9172,-0.0798 1.116598,1.19502 1.648315,-0.55698 0.691221,-0.42669 1.090017,-0.50779 1.568577,-1.16579 z"
       style="fill:#cbe6a3;fill-opacity:1;fill-rule:evenodd;stroke:#000000;stroke-width:0.14449541;stroke-miterlimit:4;stroke-dasharray:none;stroke-opacity:1">
      <title
         id="title6">Sudan</title>
    </path>
  </g>
</svg>
