<svg xmlns="http://www.w3.org/2000/svg" width="632.109" height="600.305" viewBox="0 0 167.24544 158.83058"><path class="landxx sd" d="M30.12 154.444c.412-.416.478-1.219.837-1.58.572-.568 1.41-1.073 1.98-1.64.891-.885 0-2.778.905-3.67.638-.639 2.632.31 3.39-.452.518-.523 3.575-1.455 4.067-.96.665.67.572 2.894.904 3.219.279.282 1.29.106 1.529.339.425.437.465 1.272.73 1.808.173.355.599.772.785.96.678.679.306 2.51.904 3.106.399.39 1.648.98 2.087 1.13 1.17.388 5.849-1.151 6.5-1.808.146-.144.89.093 1.024.12 1.847.372 4.639.402 6.035.17.704.987 1.09 2.444 1.807 3.162.785.782 6.075.298 7.125-.226.346-.177.16-1.006.333-1.356.478-.943 1.927-2.176 2.99-2.71 1.237-.616 4.108-.093 4.8-.791.478-.479-.452-3.103.225-3.785.918-.913 2.593-1.65 3.51-2.202 2.605.615 3.695 2.575 5.304 4.18.904.9 2.18 1.326 2.937 2.09.226.218.506-.33.572-.396.186-.191 1.967-.053 2.366-.053.492 0 1.808.106 2.154-.226 1.741-1.75 3.15-4.4 5.024-6.27.864-.871.97-3.007 1.808-3.84 1.542-1.55 3.789-2.968 4.453-4.971-2.007-1.574.545-6.128-.784-7.455-.173-.175-2.791-2.459-2.712-2.541.89-.886 5.756.52 6.38-.735.413-.82-.132-1.916 0-2.542.52-.273 5.305-.04 5.305 0 0 1.006-.89 4.566-1.41 5.592-.504 1.025 1.104 7.222 1.41 8.472.16.598-.386 2.829-.16 3.05.466.47 1.649.68 2.26 1.13 2.393 1.8 3.735 5.26 5.477 7.003.558.563 0 3.685-1.024 2.88.2 5.676-.345 1.919 3.044 3.048.133-.85.266-1.691.532-2.525.625-1.927 1.555-3.315 1.475-5.393-.132-2.335-.305-3.92 1.21-5.831 1.143-1.45 3.11-.238 3.07 1.378.812-.89 1.184-1.608 1.809-2.91 1.582-3.287-.745-3.242 0-4.124 1.82-2.155.452-5.897 2.432-7.204 1.914-1.257 2.685-5.467 3.882-7.38 1.236-1.952 2.831-1.054 4.732-1.319 1.263-.177 1.024-3.966 1.05-4.856 0-2.51 1.529-4.35 2.034-6.738.731-3.452.186-7.258 0-9.675-.133-2.593-.93-5.76 0-7.522 1.316-2.468 1.715-5.821 2.845-8.862.425-1.183 1.05-2.48 1.316-3.716.292-1.345-.426-2.398-.173-3.723.24-1.35 0-4.12 1.29-4.852.89-.532 3.402.473 3.748-.744.665-2.367.319-2.62 2.924-3.607 1.45-.546 4.733-1.721 5.517-3.008.611-.98 2.127-3.617 2.486-4.007-.213-1.791-3.257-1.592-3.337-3.23-1.25 1.117-4.732-4.704-6.606-5.022-3.23-.549-4.188-6.804-4.32-9.515-.2-3.86-1.37-7.34-.865-11.135.226-1.68-.345-3.597-1.01-5.12-.917-2.109.944-3.062 1.41-.983-.134-2.732-3.27-4.452-4.015-6.987-.917-3.063.399-4.24-2.433-6.212-2.127-1.487-3.483-4.303-5.703-5.464-2.485-1.3-4.493-2.315-5.17-5.264-.904.906-3.27 4.482-4.706 3.732-1.875-.983-2.473 1.5-2.871 2.642-.785 2.2-1.436 3.453-3.829 3.864-2.38.408-2.99.906-3.483 3.292-1.09 5.218-6.18 1.237-8.653-.106-2.14-1.167-5.902-.276-8.242-.18-3.057.134-6.155.201-9.172-.32.997-.922.478-4.18-.997-1.816-1.462 2.337-3.363 1.912-5.822 1.912H68.443c-12.84 0-25.855-.12-38.696-.12.266 7.654.532 15.433.665 23.092h-9.943l.957 49.481c-1.648-.51-3.363-1.139-5.011-.282-1.343.71-2.646-.08-4.028.603-3.217 1.592.173 4.003-1.835 6.566-1.621 2.053-1.9 4.286-4.24 5.526-1.462.78 0 4.428.944 5.292-3.35 2.679-5.517 3.588-3.11 8.113.903 1.722-.227 2.448-1.636 3.44-1.502 1.06-1.768 2.423-2.432 4.049 1.302 3.517 3.761.209 5.955 1.478 1.302.755-.665 1.995 0 3.012.73 1.242 1.116 2.89.718 4.311.345-.174.69-.333 1.05-.478 1.037 1.675-.917 3.529 0 5.225.837 1.688 3.004 1.914 3.735 3.141 1.077 1.803-1.183 3.458-.385 5.21.824 1.814 2.273 3.18 3.655 4.563 2.473 2.477 4.64 6.143 4.653 9.688 0 .66.16 1.305.16 1.913 0 .013 5.928 0 5.928 0 .678.251.89-.314 1.409-.806.917-.08 1.116 1.195 1.648-.557.691-.426 1.09-.507 1.569-1.165z" fill="#cbe6a3" fill-rule="evenodd" stroke="#000" stroke-width=".144"><title>Sudan</title></path></svg>