<svg xmlns="http://www.w3.org/2000/svg" width="149.029" height="308.931" viewBox="0 0 39.430698 81.738014"><g class="landxx coastxx tn" transform="matrix(1.3293 0 0 1.3293 -1766.176 -580.28)" fill="#cbe6a3" fill-rule="evenodd" stroke="#000" stroke-width=".109"><title>Tunisia</title><path class="landxx tn" d="M1328.96 464.902c.17-.848.96-1.171 1.58-1.64.96-.73 1.04-1.384 2.1-2.189.85-.643 1.48-1.846 1.81-2.913.66-2.14.48-3.805.58-5.858.1-1.293-.75-2.417-.57-3.714.19-1.473 1.83-4.273-.53-4.782.85-.979 2.23-1.482 2.88-2.643.24-.429.1-1.164.68-1.333.65-.185 1.05 0 1.56-.546 1.12-1.184 2.29-1.709 3.86-2.158.73-.208 1.73-.756 2.5-.446.92.369 0 .815.11 1.509.76 0 .95-.382.5-1.008 1.4.306 1.81.09 2.38 1.368.25.561-.53.615.22 1.149.58.409.68 1.12.14 1.587 0-.05.64.663 1.26.41.84-.345 1.54-1.027 2.22-1.602.27-.224 1.19-1.216 1.62-1.02 1.03.47.9 1.486.43 2.332-.9 1.623-3.96 3.18-4.06 5.026-.1 1.386.74 3.056 1.99 3.732 1.9 1.021 1.83 1.069 2.28 3.243.57 2.738-1.34 5.584-3.44 7.245-2.09 1.651-5.29 2.581-3.22 5.787.46.705 1.06 1.369 1.84 1.723.87.394 1.22-.148 2.02-.04.26.04.42 1.319.58 1.59.4.661 1.49-1.288 2.09-1.071.81.297.26.96.51 1.512.34.767 1.51 1.462.29 1.584.64.689 2.05-.07 2.65.723.5.663-.33 3.24-.15 4.208.27 1.451 1.33 2.069-.26 3.021-1.57.942-4.79 1.987-5.72 3.283-.54.426-.35 1.653-1.1 1.956-1.59.644-3.1 1.169-2.47 3.591.5 1.936 1.25 3.458.13 5.357-1.31 2.215-2.46 3.062-4.75 4.069-.55-3.614-1.59-7.095-2.3-10.67-.73-3.702-1.11-5.837-4.23-7.572-1.46-.811-2.11-1.792-2.48-3.412-.32-1.425-.97-2.434-2.26-3.195-.65-.381-1.27-.69-1.7-1.37-.44-.697-.29-1.642-.73-2.347-.92-1.464-1.42-3.017-.84-4.479"/><path d="M1353.22 468.502c-.12-.958-.78-.18-1-.648-.54-1.145 0-1.512.95-1.499 2.12.03.8 1.291 0 2.147"/></g></svg>