<svg xmlns="http://www.w3.org/2000/svg" width="120mm" height="301.645" viewBox="0 0 120 79.810219"><path class="landxx eh" d="M33.418 79.775c-1.57-2.773.757-7.478 1.236-10.353.332-1.966.837-3.81 1.887-5.524 1.276-2.08 3.616-2.083 4.387-4.682.412-1.332.386-3.383 1.702-4.178.757-.45.305-1.958.903-2.818.93-1.376 4.706-6.074 3.656-7.86a5.261 5.261 0 0 0-1.715 1.82c1.649-3.63 5.823-6.3 8.574-9.1 3.656-3.732 2.938-7.589 4.72-12.165 1.461-3.742 2.591-7.872 6.22-9.945 4.015-2.283 6.195-4.146 7.856-8.562 1.05-2.807 3.044-6.792 2.353-5.975l44.532-.36-.625 19.402-33.046.382-1.516 29.022c-1.967 1.419-4.772 1.574-6.82 2.852-3.096 1.92-4.333 3.975-4.093 7.626.146 2.121 1.768 13.174-.479 13.812H36.395c-2.818.002-3.27 4.61-2.977 6.606" fill="#cbe6a3" fill-rule="evenodd" stroke="#000" stroke-width=".144"><title>Western Sahara</title></path></svg>