<svg xmlns="http://www.w3.org/2000/svg" width="448.973" height="428.34" viewBox="0 0 118.79073 113.33153"><path class="landxx zm" d="M.072 91.487c0-10.879 0-21.792.173-32.67 0-1.166-.399-3.565 1.223-3.92 1.422-.31 3.164.093 4.613.133 4.838.133 9.97.964 14.662-.588-1.529-1.679-.745-3.182 0-4.998.877-2.207-.293-3.932-.173-6.133.213-4.075 1.954-8.743.306-12.796 1.528.027 1.369 1.687 2.964 2.014 1.755.361.97 2.968.292 4.021 2.114.464 1.915.41 3.975-.484a19.239 19.239 0 0 1 6.46-1.537c-.784 1.537-.398 4.335.825 5.557.957.958 2.512.368 3.695.912 1.728.79 2.978 1.546 4.945 1.572 3.164.04 6.101 2.133 7.218-1.898 1.223-4.392 2.526.517 4.054 1.85 1.037.911.891 2.373 1.649 3.48 1.21 1.769 2.539.094 3.589.785 1.595 1.046 2.206 2 3.935 1.971 2.033-.04 1.555 3.289 2.91 4.542 1.981 1.84 2.367 3.385 3.483 5.739 1.436 2.97 5.583-2.786 7.152-.86-.691.545-.718 1.454.16 1.802 1.528.613 1.01-2.492 1.023-3.157.133-3.85.24-7.715.24-11.566-.692.262-1.463.332-2.167.553-1.223.378-.864 1.425-1.383 2.252-.917 1.436-4.945-1.856-5.875-2.82-2.792-2.917-5.995-5.305-4.347-10.143.89-2.618 1.648-4.782 2.38-7.007.504-1.537-.52-4.096-.373-5.826.226-2.821 1.622-8.772-2.153-9.937 1.223-3.211 8.002-4.991 5.41-9.277C76.52 1.858 81.49 1.508 87.872.09c0 1.078-1.33 2.45-1.29 2.722.134.576 1.888-.235.984 1.269.186.359.878-1.565 3.244.795 2.446 2.437 3.35.824 3.11-.39 2.725.027 3.417.992 4.547 2.992.491.874 1.05.517 1.794.249.97-.348 1.316 1.264 2.1 1.598 1.609.675 4.573.45 5.092 2.351.16.568 1.236.358 1.9.565 1.104.344 2.074.7 2.473 1.17.412.47.385 1.053.186 1.663-.518 1.603 3.164.996 3.815 3.387.213.799-.412 1.265-.292 2.007.186 1.149 1.05 1.56 1.847 2.265.692.614.944 2.69 1.237 3.548.558 1.605-1.33 3.13-2.872 3.603-1.688.514-.717 1.814-.292 3.103.638 2.017-.545 3.088-.612 5.032-.132 2.791-1.369 8.767 2.127 9.82-1.422 1.528-5.782 2.25-5.756 4.814 0 1.676.44 2.297.133 4.193-.505 2.758-2.286 4.378-2.937 6.307-.386 1.111.877 2.003 1.714 2.602 1.237.865 1.808.228 2.287 1.076-9.465 4.415-19.607 7.096-29.245 11.025-1.236.866 2.114 5.255 1.49 7.463-.918.106-3.47.492-4.374.133-1.755-.703-3.829.383-5.477.939-2.366.792-5.397 2.186-5.902 4.92-.226 1.165 0 2.434-.465 3.538-.745 1.567-2.818 1.757-4.254 2.322-2.499.98-5.862 3.015-7.231 5.365-1.396 2.384-6.886 12.817-11.007 10.35-.904-.538-1.86-1.042-2.871-1.36-1.462-.465-2.911 1.469-4.068.83-.904-.503-1.263-2.192-2.406-1.917-.252.066-3.19.796-4.652-.578-1.649-1.558-2.393-2.635-3.709-2.987-1.396-.293-2.34 1.172-4.879-.337-2.02-.31-3.416.76-5.41.914-1.023.08-2.977.865-3.642.615-3.443-1.323-5.756-5.28-8.188-7.994-1.33-1.488-2.367-2.692-3.802-4.07C.963 94.71.59 93.418.139 91.492" fill="#cbe6a3" fill-rule="evenodd" stroke="#000" stroke-width=".144"><title>Zambia</title></path></svg>