<svg xmlns="http://www.w3.org/2000/svg" width="295.258" height="297.608" viewBox="0 0 78.120308 78.742188"><path class="landxx zw" d="M.234 25.199c1.29.3 2.552.574 3.855.106 1.25-.46 1.86 1.412 2.672 1.932.877.573 2.419-.832 3.27-.965 1.116-.172 2.778 1.08 3.735 1.491 2.792 1.197 4.467-1.352 5.969-3.379 2.007-2.708 4-5.244 5.436-7.655.692-1.163 1.635-1.626 2.672-2.438 1.396-1.1 2.938-1.79 4.626-2.49 3.27-1.364 3.869-1.755 4.068-5.473.133-1.822 3.137-4.075 4.785-4.73C42.878.987 44.765.144 46.427.08c2.02-.08 4.067.561 6.061.054 0 3.805-.319 4.172 3.895 4.172 2.632 0 4.094.648 6.687 1.69 1.449.58 4.772 2.517 6.128 3.245 1.967 1.051 5.25.603 6.035 2.26.571 1.224 1.568 1.314 2.725.97-.293 1.768-1.33 2.782-.505 4.606.97 2.143-.226 3.714.425 5.722.651 1.95-.81 4.117-.399 6.235.293 1.467 1.183 2.674-.133 3.84-.957.852-.133 2.846-.638 3.164-1.382.773-1.728.656-2.26 2.375-.226.763 1.037 1.04 1.41 1.38.318.29 0 1.418 0 1.745-.134.782-.758 1.203-.984 1.925-.16.561.704 2.65.877 3.278.32-.133.625-.258.957-.385-.133 2.088.718 2.912-.545 5.034-1.01 1.705-1.661 4.537-3.562 5.426-2.06.972-.479 2.289-.864 3.897-.479 1.966-2.008 3.107-.479 5.078-1.595-1.155-8.787 9.473-10.116 10.322-1.25.8-1.887 2.57-2.42 2.558-1.13-2.334-5.569-1.367-7.815-1.36-1.968 0-3.762-.754-5.583-1.381-4.161-1.437-5.437-.412-5.663-.682-1.09-1.316-1.237-.669-2.486-1.359-1.396-.767 0-2-.452-2.578-1.994-2.593-9.425-.932-10.541-3.664-1.09-2.668-3.217-5.216-2.313-7.877 1.25-3.66-.545-4.497-4.2-3.748.65-3.46-.253-4.87-3.457-5.822-2.539-.752-5.929-3.588-7.351-5.801-2.18-3.374-2.207-7.593-4.799-10.868C2.92 32.1-.697 27.113.221 25.206" fill="#cbe6a3" fill-rule="evenodd" stroke="#000" stroke-width=".144"><title>Zimbabwe</title></path></svg>