<svg xmlns="http://www.w3.org/2000/svg" width="200.156" height="262.157" viewBox="0 0 52.957821 69.362343"><g transform="matrix(1.3293 0 0 1.3293 -914.887 -699.821)" fill="#c83737" stroke="#000" stroke-width=".109"><title>Bahamas</title><g class="landxx coastxx bs" fill-rule="evenodd"><path d="M708.819 557.062c-.24-.1-.48-.192-.72-.288.267.03.506.129.72.288M691.251 541.51c.938.813 1.575-.101 1.648 1.525.05 1.19 1.271 2.221 1.051 3.432-.271 1.49-3.508 3.908-3.131 1.307-.888.273-1.663-.366-2.088-1.08.529-.592 1.068-.472 1.296.288.688-.818-.372-1.306.332-2.071.949-1.033.792-2.11.892-3.401M691.755 550.654c-.237-.536 0-.704.72-.504l-.72.504M689.595 530.35a2.633 2.633 0 0 1-1.296-1.224c1.074 1.167 1.65-.136 2.547-.686 1.336-.817 3.427.56 5.084-.539.227 1.328-5.436 2.095-6.335 2.449M693.339 554.325c-.264-.07-.528-.144-.792-.216a2.026 2.026 0 0 0 1.512-.72c-1.192.842-1.496-.491-1.747-1.401-.09-.311-.188-.78-.485-.975.731-.537 1.282-1.331 2.16-1.656-.03.829-1.012 1.28-.72 2.16.458-.385.771-.864.937-1.439 1.199 1.151.505 3.533-.865 4.247M696.434 543.382c-.05-1.034 1.042-.828 1.656-.576a6.921 6.921 0 0 1-1.656.576M699.675 535.678a1.665 1.665 0 0 0-1.152-1.152c.817-.653 1.396-1.559 1.809-2.509.214-.498.39-1.008.528-1.532.349-1.305-.125-.527-.809-1.332-1.104-1.299-1.788-3.062-4.048-2.259 2.212-1.303 3.936 1.037 5.112 2.521.868 1.095.744 1.908-.168 2.922-.849.943-.612 2.308-1.272 3.341M703.635 539.71c-.584-.02-.965-.438-1.008-1.008 1.17.895 2.76 1.554 3.528 2.88.899 1.554-.654 2.885-.432 4.464-1.066-.859.541-2.569.63-3.539.12-1.323-2.003-1.999-2.718-2.797M705.507 554.686c.992.121 1.238 1.215 1.872 1.8-.705-.392-1.737-.892-1.872-1.8M710.259 550.87c-.339-.86.91-.789.198-1.596-.595-.675-1.074-2.265-1.063-3.156.356.858 2.965 4.473.865 4.752M710.835 554.758c.957 1.355.643 2.791 1.173 4.187.342.9 2.009 1.308 1.059 2.438-.166-1.337-1.618-1.408-2.088-2.52 1.654 1.306-.315-3.272-.144-4.105M714.434 555.046c-.24-.07-.48-.144-.72-.216.666-.679.905-.607.72.216M717.027 567.43c1.107-.834 1.942-1.98 3.168-2.664-1.481-.863-.249-1.933.203-1.157 1.043 1.795-2.35 3.155-3.371 3.821M717.098 551.23c.264-.05.528-.1.792-.144-.122.584-.542 1.055-1.08 1.296.165-.367.262-.751.288-1.152M718.682 563.542c-.761-.116-1.64-.689-1.44-1.584.603.339 1.596.694 1.44 1.584M719.907 578.59c-.67-1.133.968-2.188 1.861-2.432.615-.168.784.236 1.312.344.885.181 1.562-1.005 2.155-1.44-.166.925-.447 2.088-1.176 2.744-1.018.915-2.929.301-4.152.784M725.163 574.126c-.156-.604.08-.941.72-.792a6.514 6.514 0 0 1-.72.792M727.971 566.782c-.523-.905-2.402-.197-2.448-1.297.527-.07 2.943.32 2.448 1.297"/></g></g></svg>