<svg xmlns="http://www.w3.org/2000/svg" width="62.731" height="113.634" viewBox="0 0 16.597523 30.065672"><g class="landxx coastxx bz" transform="matrix(1.3293 0 0 1.3293 -793.646 -796.977)" fill="#c83737" fill-rule="evenodd" stroke="#000" stroke-width=".109"><title>Belize</title><path d="M608.689 609.139c.569-.172.946-.61.72-1.225-.247.405-.487.813-.72 1.225"/><path class="landxx bz" d="M597.097 622.099c.575-3.73 1.558-7.252 1.916-11.022.145-1.521.451-9.184 3.196-6.186.76-1.428 2.711-5.697 4.824-5.256a1.93 1.93 0 0 0-.648 1.512c3.185-1.614.403 4.603.1 5.655-.374 1.277-.601 2.875-.823 4.22-.16.968.212 1.688-.119 2.677-.327.978-.831 1.884-1.169 2.855.555-1.992-.498.549-.726.834-.64.8-1.467 1.097-2.236 1.724-.652.531-1.241 1.211-1.633 1.958a2.183 2.183 0 0 0-.301 1.028c-.786-.194-1.587-.08-2.376 0"/></g></svg>