<?xml version="1.0" encoding="UTF-8" standalone="no"?>
<!-- Created with Inkscape (http://www.inkscape.org/) -->

<svg
   xmlns:dc="http://purl.org/dc/elements/1.1/"
   xmlns:cc="http://creativecommons.org/ns#"
   xmlns:rdf="http://www.w3.org/1999/02/22-rdf-syntax-ns#"
   xmlns:svg="http://www.w3.org/2000/svg"
   xmlns="http://www.w3.org/2000/svg"
   xmlns:sodipodi="http://sodipodi.sourceforge.net/DTD/sodipodi-0.dtd"
   xmlns:inkscape="http://www.inkscape.org/namespaces/inkscape"
   width="32.846371mm"
   height="36.5177mm"
   viewBox="0 0 32.846371 36.5177"
   version="1.1"
   id="svg23787"
   inkscape:version="0.92.0 r15299"
   sodipodi:docname="costarica.svg">
  <defs
     id="defs23781" />
  <sodipodi:namedview
     id="base"
     pagecolor="#ffffff"
     bordercolor="#666666"
     borderopacity="1.0"
     inkscape:pageopacity="0.0"
     inkscape:pageshadow="2"
     inkscape:zoom="0.35"
     inkscape:cx="62.071882"
     inkscape:cy="69.009818"
     inkscape:document-units="mm"
     inkscape:current-layer="layer1"
     showgrid="false"
     fit-margin-top="0"
     fit-margin-left="0"
     fit-margin-right="0"
     fit-margin-bottom="0"
     inkscape:window-width="1920"
     inkscape:window-height="1017"
     inkscape:window-x="1912"
     inkscape:window-y="-8"
     inkscape:window-maximized="1" />
  <metadata
     id="metadata23784">
    <rdf:RDF>
      <cc:Work
         rdf:about="">
        <dc:format>image/svg+xml</dc:format>
        <dc:type
           rdf:resource="http://purl.org/dc/dcmitype/StillImage" />
        <dc:title></dc:title>
      </cc:Work>
    </rdf:RDF>
  </metadata>
  <g
     inkscape:label="Layer 1"
     inkscape:groupmode="layer"
     id="layer1"
     transform="translate(33.432114,-130.57448)">
    <path
       inkscape:connector-curvature="0"
       id="cr"
       class="landxx cr"
       d="m -33.281154,140.18011 c 0.567621,-0.46127 2.098954,-2.60543 2.203984,-3.31792 0.17014,-1.1525 -2.412679,-2.55889 -1.434313,-3.13713 1.163135,-0.68591 1.463546,-1.67092 2.253151,-2.98692 0.311047,-0.51976 4.126129,1.33459 4.676443,1.60711 2.677211,1.32797 2.322278,0.46128 4.805398,-0.22732 1.092694,-0.30175 1.571228,1.39311 3.380409,1.07142 0.814847,1.0621 1.088677,2.07768 2.497749,2.34355 1.770601,0.33233 4.333485,0.39878 4.253721,-1.48216 0.7816223,1.32797 0.01339,1.5566 0.7763163,2.71574 0.636723,0.97172 1.02622,2.10959 1.451594,3.18367 0.898603,2.26909 1.794553,3.06269 3.304612,4.57009 1.367864,1.36388 2.077706,3.54924 3.823065,4.45049 0.95974698,0.49451 0.81618598,1.54731 -0.377521,1.18838 -0.910577,-0.27383 -1.132562,-1.37183 -2.270432,-0.55964 0.511781,0.89464 -0.600847,3.05873 -0.646046,4.53291 -0.03987,1.51673 3.61967398,2.01654 1.121926,3.31659 -2.015199,1.04881 0.688567,3.30461 -1.060784,4.84261 -1.931466,1.69617 -0.119634,2.6998 -0.526386,4.78678 0.119632,-1.05411 -0.341643,-1.86765 -1.022228,-2.62403 -0.432019,-0.29376 -0.825508,-0.63141 -1.180417,-1.01424 0.119633,-0.39746 0.221985,-0.7989 0.308393,-1.20434 -0.378859,-1.26814 -1.833107,-4.06499 -3.5624993,-3.00686 0.330982,1.54197 2.3235923,2.11224 1.7227473,3.92408 -1.4249903,-0.44531 -3.6555533,-0.94646 -4.0038173,-2.71574 -0.227316,-1.15119 1.315993,-2.03781 1.420998,-3.21823 0.259227,-2.91514 -2.921784,-4.02378 -4.801407,-5.48866 -1.144514,-0.89196 -1.427643,-1.52204 -3.013499,-1.56325 -1.56193,-0.0399 -2.480467,-0.80289 -2.413994,-2.43526 0.158189,-3.87224 -4.453142,-3.86294 -5.945945,-6.59197 0.296443,0.74041 0.360239,1.53267 0.63407,2.27708 0.433358,1.17908 1.488811,1.03418 2.304996,1.74137 1.136556,0.98501 -0.214001,2.98692 -1.273446,3.40165 -1.284107,0.50249 -2.375462,-2.20661 -3.765889,-2.51634 -2.33956,-0.52639 -4.120822,-3.44153 -3.640949,-5.86351"
       style="fill:#c83737;fill-opacity:1;fill-rule:evenodd;stroke:#000000;stroke-width:0.14449541;stroke-miterlimit:4;stroke-dasharray:none;stroke-opacity:1">
      <title
         id="title997">Costa Rica</title>
    </path>
  </g>
</svg>
