<svg xmlns="http://www.w3.org/2000/svg" width="396.537" height="146.725" viewBox="0 0 104.91698 38.821053"><g class="landxx coastxx cu" transform="matrix(1.3293 0 0 1.3293 -846.225 -742.825)" fill="#c83737" fill-rule="evenodd" stroke="#000" stroke-width=".109"><title>Cuba</title><path d="M636.96 570.24c1.386-.501 2.853-1.799 4.392-1.008.505-1.136-.906-2.096.1-3.21.813-.904 2.109-2.264 3.108-2.93 1.183-.788 2.714-1.084 4.047-1.521 1.147-.376 2.185-1.131 3.424-1.104 2.576.06 4.725-1.256 7.273-1.445 1.182-.09 2.607-.173 3.726.301.257.108.568.299.574.62.931-.44 1.97-.587 2.88-1.079-1.494.393.137 1.232.947.938.747-.271 2.998-.296 3.26.13.411.667 1.513 1.659 2.388 1.396 1.022-.307 2.384.876 3.27.128a8 8 0 0 0-.576.792c1.65.432 1.329 1.207 2.47 2.331 1.495 1.473 2.174 1.108 4.144 1.288 1.881.172 2.611 1.018 4.115 1.926.57.344 1.381.262 1.768.906.357.595.824 1.663 1.616.821-.296.882.421 1.491 1.235 1.565.951.09 1.248.926 2.077 1.242-.345-.689-.583-1.582-1.44-1.8.775.171 3.286 1.147 2.88 2.305a7.85 7.85 0 0 1-1.512-.36c.353.455.49.961.792 1.439 1.102-1.889 1.438.27 2.736.289-.178.251-.37.491-.576.72a1.938 1.938 0 0 1 1.512-.216c-.1.263-.195.526-.288.791a2.967 2.967 0 0 1 1.44.721c-.103-1.956 2.665.312 3.228.711.737.522 1.411-.104 2.199-.177 1.28-.119 1.736 1.655.333 1.842l.792.432a3.056 3.056 0 0 0-1.512 1.08c2.055.438 5.536-.305 7.171 1.105 1.383 1.194 1.756 2.446 3.682 2.715 2.279.317-.729 1.907-1.665 2.016-.284.03-5.173 1.337-5.273 1.176.03-.255.168-.457.405-.604-.905 0-.855 1.153-2.398 1.003-1.648-.161-3.189-.749-4.861-.822-4.189-.182-8.411 1.396-12.613 1.26.06-2.222 2.817-2.754 4.265-3.833.853-.636 1.375-1.236.541-1.922-.624-.514.253-2.153-1.254-1.783-2.823.695-5.669.175-7.283-2.431-.579-.935-.476-2.174-.64-3.221-.08-.479-.194-.997-.513-1.381-.379-.457-1.213-.271-.372-.694-1.289-.616-2.568.345-3.816.468-1.297.128-2.4-1.082-3.59-1.297-1.164-.211-1.879-.02-2.51-.784-1.004-1.213-2.336-1.145-2.54-3.067-.222 1.608-5.1 1.13-5.184-1.008a2.877 2.877 0 0 0-.433 1.512 1.21 1.21 0 0 1-1.017-.548c-.618-.623-1.598-.387-2.366-.387-1.265 0-2.359-.749-3.24-1.586.67-.737 1.96-.354 2.821-.498 1.281-.215 1.197-1.513.08-1.887-2.197-.738-6.335-.809-8.316.494-1.227.808-2.624 1.703-3.61 2.799-.922 1.023-1.576.257-2.666.71-.624.259-1.291-.135-1.889.223-.632.379-.417.994-.894 1.472-1.001 1.004-2.626.91-3.672 1.872.307-2.918-3.114.754-3.456-1.152.09.07.19.143.286.216"/><path d="M651.29 574.13c-.771-.179-1.624-.484-1.8-1.368 1.546 1.656.896-1.283.909-1.751.03-1.011 1.57-1.417 2.331-1.057.796.378 1.399 1.829 1.38 2.658-.02 1.126-2.036 1.292-2.82 1.518M673.18 560.95c-.264-.05-.528-.1-.792-.145.245-.163.509-.283.792-.36v.505M684.41 582.12a10.399 10.399 0 0 1-.792-.721c.654-.02.621.217.792.721M686 565.63a10.687 10.687 0 0 1-1.44-.648c.816-.369 2.291-.95 2.592.36-.388.08-.772.179-1.152.288M688.8 566.93c-.645-.381-1.611-.403-1.8-1.296 1.137-.658 1.4.522 1.8 1.296M689.81 568.37c-.832-.126-1.319-1.009-.792-1.729.237.426 1.078 1.145.792 1.729M690.75 570.02l-1.44-1.151c1.025-.934 3.052.09 1.44 1.151"/></g></svg>