<svg xmlns="http://www.w3.org/2000/svg" width="138.842" height="100.846" viewBox="0 0 36.735298 26.682121"><g class="landxx coastxx do" transform="matrix(1.3293 0 0 1.3293 -970.064 -780.697)" fill="#c83737" fill-rule="evenodd" stroke="#000" stroke-width=".109"><title>Dominican Republic</title><path class="landxx do" d="M731.053 603.523c.322-.662.677-1.929.254-2.622-.365-.597-.929-1.809-1.407-2.274.968.05 3.2-1.504 2.108-2.581-1.053-1.039 2.059-1.662.793-3.064-.414-.458.125-1.503.255-1.972.248-.892-.563-1.835-.133-2.678.997-1.954 2.997-.09 4.204-.573.994-.397 1.991-.623 2.985-.09.989.528 1.981.604 2.925 1.076.868.433 1.328.862 2.346.885 1.036.02 1.192-.177 1.311.997.214 2.103 1.136 2.356 3.038 1.866.687-.177 1.586-.423 2.202.09-.291.961-1.144.967-1.975.828-.822-.137-2.635.45-1.068.894.658.187 3.314 1.206 3.908.931 1.718-.797 2.768 1.385 3.841 2.363 2.127 1.939-1.237 2.882-1.646 3.674-.702 1.36-.982.04-1.589-.572-.58-.581-1.228-.204-1.944-.353a7.124 7.124 0 0 0-1.546-.349c-.622 0-1.201.543-1.804.167-2.56-1.597-3.232 1.389-5.188 1.746-.471.09-2.024.395-2.438.06-.576-.466.06-1.5-.79-1.9-.364.815-1.305.72-1.852 1.325-.458.507-1.132-.293-1.359.377-.745 2.204-1.69 3.677-3.2 5.498-.298-.67-1.139-.982-1.295-1.729-.153-.729-.216-1.585-.936-2.017"/><path d="M755.173 602.947a3.455 3.455 0 0 1-1.44-.504c.483-.117 1.282-.138 1.44.504"/></g></svg>