<?xml version="1.0" encoding="UTF-8" standalone="no"?>
<!-- Created with Inkscape (http://www.inkscape.org/) -->

<svg
   xmlns:dc="http://purl.org/dc/elements/1.1/"
   xmlns:cc="http://creativecommons.org/ns#"
   xmlns:rdf="http://www.w3.org/1999/02/22-rdf-syntax-ns#"
   xmlns:svg="http://www.w3.org/2000/svg"
   xmlns="http://www.w3.org/2000/svg"
   xmlns:sodipodi="http://sodipodi.sourceforge.net/DTD/sodipodi-0.dtd"
   xmlns:inkscape="http://www.inkscape.org/namespaces/inkscape"
   width="29.361761mm"
   height="23.461037mm"
   viewBox="0 0 29.361761 23.461037"
   version="1.1"
   id="svg26741"
   inkscape:version="0.92.0 r15299"
   sodipodi:docname="haiti.svg">
  <defs
     id="defs26735" />
  <sodipodi:namedview
     id="base"
     pagecolor="#ffffff"
     bordercolor="#666666"
     borderopacity="1.0"
     inkscape:pageopacity="0.0"
     inkscape:pageshadow="2"
     inkscape:zoom="0.35"
     inkscape:cx="55.486788"
     inkscape:cy="44.335815"
     inkscape:document-units="mm"
     inkscape:current-layer="layer1"
     showgrid="false"
     fit-margin-top="0"
     fit-margin-left="0"
     fit-margin-right="0"
     fit-margin-bottom="0"
     inkscape:window-width="1920"
     inkscape:window-height="1017"
     inkscape:window-x="1912"
     inkscape:window-y="-8"
     inkscape:window-maximized="1" />
  <metadata
     id="metadata26738">
    <rdf:RDF>
      <cc:Work
         rdf:about="">
        <dc:format>image/svg+xml</dc:format>
        <dc:type
           rdf:resource="http://purl.org/dc/dcmitype/StillImage" />
        <dc:title></dc:title>
      </cc:Work>
    </rdf:RDF>
  </metadata>
  <g
     inkscape:label="Layer 1"
     inkscape:groupmode="layer"
     id="layer1"
     transform="translate(31.689808,-137.10281)">
    <g
       id="ht"
       class="landxx coastxx ht"
       style="fill:#c83737;fill-opacity:1;fill-rule:evenodd;stroke:#000000;stroke-width:0.10870087;stroke-miterlimit:4;stroke-dasharray:none;stroke-opacity:1"
       transform="matrix(1.3292939,0,0,1.3292939,-976.86239,-641.79898)">
      <title
         id="title1247">Haiti</title>
      <path
         inkscape:connector-curvature="0"
         id="path5512"
         class="landxx ht"
         d="m 714,598.32 c 1.718,0.713 2.299,0.453 3.96,0.504 -1.983,0.243 0.894,0.741 1.367,0.799 1.117,0.136 2.201,0.168 3.32,0.354 1.527,0.252 1.234,-0.363 2.458,-0.773 0.778,-0.26 2.022,0.313 2.143,-0.667 0.214,-1.74 -3.061,-2.293 -2.611,-4.546 0.444,-2.222 0.783,-3.658 -2.069,-4.238 -1.119,-0.227 -3.795,-0.111 -1.55,-1.69 2.596,-1.825 4.572,-0.618 7.154,0.136 1.704,0.498 4.755,-0.232 4.893,2.204 0.05,0.797 -0.708,1.921 -0.145,2.827 0.611,0.984 -0.992,1.652 -1.158,2.236 -0.117,0.411 0.57,0.485 0.472,1.306 -0.132,1.113 -1.293,1.895 -2.395,1.837 1.273,1.113 2.245,3.26 1.153,4.896 -1.531,-2.153 -4.225,-1.868 -6.481,-1.296 -2.166,0.549 -7.211,-2.064 -8.559,0.424 -1.027,1.896 -2.272,-1.257 -3.827,-1.521 -2.5,-0.425 0.08,-3.968 1.875,-2.792"
         style="fill:#c83737;fill-opacity:1;fill-rule:evenodd;stroke:#000000;stroke-width:0.10870087;stroke-miterlimit:4;stroke-dasharray:none;stroke-opacity:1" />
      <path
         inkscape:connector-curvature="0"
         id="path5514"
         d="m 717.31,603.36 c -0.264,-0.07 -0.528,-0.144 -0.792,-0.216 0.556,-0.214 0.43,0.02 0.792,0.216"
         style="fill:#c83737;fill-opacity:1;stroke:#000000;stroke-width:0.10870087;stroke-miterlimit:4;stroke-dasharray:none;stroke-opacity:1" />
      <path
         inkscape:connector-curvature="0"
         id="path5516"
         d="m 723.72,597.81 c -0.195,-0.145 -4.381,-1.925 -2.905,-2.228 0.941,-0.193 3.663,0.903 2.905,2.228"
         style="fill:#c83737;fill-opacity:1;stroke:#000000;stroke-width:0.10870087;stroke-miterlimit:4;stroke-dasharray:none;stroke-opacity:1" />
      <path
         inkscape:connector-curvature="0"
         id="path5518"
         d="m 725.67,586.51 c -0.24,-0.07 -0.48,-0.144 -0.72,-0.216 0.554,-0.487 1.287,-0.318 1.728,0.216 -0.336,0 -0.672,0 -1.008,0"
         style="fill:#c83737;fill-opacity:1;stroke:#000000;stroke-width:0.10870087;stroke-miterlimit:4;stroke-dasharray:none;stroke-opacity:1" />
    </g>
  </g>
</svg>
