<svg xmlns="http://www.w3.org/2000/svg" width="110.974" height="88.672" viewBox="0 0 29.361761 23.461037"><g class="landxx coastxx ht" transform="matrix(1.3293 0 0 1.3293 -945.173 -778.902)" fill="#c83737" fill-rule="evenodd" stroke="#000" stroke-width=".109"><title>Haiti</title><path class="landxx ht" d="M714 598.32c1.718.713 2.299.453 3.96.504-1.983.243.894.741 1.367.799 1.117.136 2.201.168 3.32.354 1.527.252 1.234-.363 2.458-.773.778-.26 2.022.313 2.143-.667.214-1.74-3.061-2.293-2.611-4.546.444-2.222.783-3.658-2.069-4.238-1.119-.227-3.795-.111-1.55-1.69 2.596-1.825 4.572-.618 7.154.136 1.704.498 4.755-.232 4.893 2.204.05.797-.708 1.921-.145 2.827.611.984-.992 1.652-1.158 2.236-.117.411.57.485.472 1.306-.132 1.113-1.293 1.895-2.395 1.837 1.273 1.113 2.245 3.26 1.153 4.896-1.531-2.153-4.225-1.868-6.481-1.296-2.166.549-7.211-2.064-8.559.424-1.027 1.896-2.272-1.257-3.827-1.521-2.5-.425.08-3.968 1.875-2.792"/><path d="M717.31 603.36c-.264-.07-.528-.144-.792-.216.556-.214.43.02.792.216M723.72 597.81c-.195-.145-4.381-1.925-2.905-2.228.941-.193 3.663.903 2.905 2.228M725.67 586.51c-.24-.07-.48-.144-.72-.216.554-.487 1.287-.318 1.728.216h-1.008"/></g></svg>