<svg xmlns="http://www.w3.org/2000/svg" width="240.398" height="150.368" viewBox="0 0 63.605347 39.784973"><g class="landxx coastxx hn" transform="matrix(1.3293 0 0 1.3293 -790.371 -820.636)" fill="#c83737" fill-rule="evenodd" stroke="#000" stroke-width=".109"><title>Honduras</title><path class="landxx hn" d="M594.63 634.68c.542-1.348 2.303-1.653 1.461-3.342-.472-.945.844-2.392 1.577-2.724 1.694-.766 3.023-2.23 4.396-3.474.539-.489 1.264-.92 1.896-1.299.732-.439 1.146.165 1.739-.534.817-.963 2.679-1.82 3.647-.833.704.719 4.192.8 5.239.704 1.461-.133 3.688.222 4.945-.582.45-.288 3.791-1.028 1.956-1.596 1.641-.05 3.052.979 4.681 1.008 1.68.03 3.635-1.201 5.138.13 1.278 1.132 2.007.01 3.286.662 1.489.759 2.262 2.513 3.384 3.672-.519-.264-1.008-1.08-1.645-1.08-.621 0-1.164.108-1.667-.36.482.271.506.823.629 1.288.09.342 1.039 1.064 1.315 1.376.197-.577-.07-.96-.647-1.079.699-.755 1.802 1.411 3.168.72.09.473.244.655-.07 1.08 1.452-.366.126-1.34-.576-1.584 2.335.329 1.896 2.304 3.744 3.023-1.315.225-2.538 0-3.701.806-1.016.712-3.098 1.391-4.334 1.358-.981-.02-1.88 1.025-2.722.772a8.297 8.297 0 0 1-1.699-.704c-.252-.142-.275-.649-.525-.7-1.37-.278-1.51 1.463-1.995 2.212-.313.483-.865.713-1.152 1.224-.157.279.208.768-.06.963-.998.724-4.139 2.494-4.619 4.149-2.18-1.391-2.615-2.608-4.021-.24-.977 1.645-3.947.132-3.792 1.572.154 1.429.781 3.092-.902 3.374-.886.148-.744 1.105-.979 1.742-.408 1.105-1.953.706-2.835.824.652-1.06-2.595-2.526-.288-3.385-.712.236-1.668.225-1.8-.72-.21.799-.865 1.026-1.512.504.855-.279.701-1.172.746-1.874.07-1.138 1.111-2.411-.895-2.427-.658.52-1.013.423-1.067-.29a.781.781 0 0 0-.792-.299c-.934.106-1.724.849-2.672.858.712-1.601-5.25-4.155-5.977-4.895"/><path d="M617.09 618.77c.871-.577 1.834-.998 2.808-1.368-1.009.01-2.305.409-2.808 1.368"/></g></svg>