<svg xmlns="http://www.w3.org/2000/svg" width="1102.238" height="790.42" viewBox="0 0 291.63388 209.13205"><g class="landxx coastxx mx" transform="matrix(1.3293 0 0 1.3293 -535.007 -633.353)" fill="#c83737" fill-rule="evenodd" stroke="#000" stroke-width=".109"><title>Mexico</title><path d="M467.685 543.261c.104.538.296 1.042.576 1.513.01-.905-.481-1.73-1.152-2.305l.576.792M403.244 506.973c-.914.459-.857 1.485-.36 2.231.492-.729-.131-1.501.36-2.231M423.62 514.029c-.494.579-2.017 2.484-.72 3.023.431-.898 1.106-1.983.72-3.023M437.085 544.701c-.132.569.173.807.72.72-.321.573-.141 1.189.359 1.584-1.404-1.782.808-4.232.72-6.048-.06 1.375-1.01 2.682-1.799 3.744M440.54 508.485c.185-.865-.391-4.546-1.519-4.602-1.721-.08 1.232 4.353 1.519 4.602M438.525 547.221c.571.571 1.065 1.287 1.944 1.367-.271-.83-1.036-1.473-1.944-1.367M446.085 510.789c1.155-1.222.946-2.806 1.584-4.248-2.022.288-1.939 2.125-3.096 3.384.493.306.997.594 1.512.864M448.677 533.973c-.999.134-1.367 1.046-1.368 1.943.312-.752 1.407-1.022 1.368-1.943M449.253 542.253c-.146.756.03 1.512.432 2.16.948-.665.343-1.703-.432-2.16M454.365 550.821c.123-.581-.115-1.151-.576-1.512 0 .58.184 1.084.576 1.512M468.332 542.829c-.277.576-.157 1.056.36 1.44.146-.546.03-1.026-.36-1.44M473.589 571.917c-.07.618.315 1.025.936 1.008 0-.577-.347-.994-.936-1.008"/><path class="landxx mx" d="M422.036 478.101c6.017-.595 12.023-1.393 18.072-1.585-.454.607-1.094 1.065-1.368 1.801l23.642 9.952 20.221.11.06-3.827 12.951-.02c1.771.02 1.981.791 2.392 2.199.344 1.18 1.828 1.443 2.409 2.624.504 1.025 1.43 2.764 2.373 3.424.89.623 2.188 1.106 2.43 2.304.35 1.733.322 3.223.1 4.932-.493 3.788 2.85 5.462 5.492 7.248.922.623 2.351 1.947 3.508 1.236.834-.513 1.827-1.394 2.273-2.286.574-1.149 1.727-2.975 2.756-3.769.648-.5 2.031-.686 2.792-1.042 2.051-.05 4.153.438 6.22.689.589.118 1.324 1.667 1.894 2.197.934.867 2.143 2.86 2.388 4.079.331 1.651.745 3.336.839 5.024.1 1.774 1.234 2.841 1.811 4.455.265.738.52 1.48.896 2.171.295.542.825.523 1.098.984.671 1.13-.278 2.952-.285 4.154 0 1.512 1.367 2.586 1.178 4.232.601 2.522 2.466 1.99 1.692 2.072 1.012.1 1.659.879 2.764 1.557.717.44.972.958 1.748.983 1.792.06 3.172-.228 4.41 1.311 1.022 1.27 1.779-.689 3.058-.702-3.619 5.824-5.729 12.228-8.155 18.553-.882 4.558.606-5.181 4.145-11.28.667-1.149.907-2.648.11-2.462.09.01-.512 1.866-1.458.586-.02.613-.768 1.433-.751 1.532.561 3.174-.08 2.705-.09 3.644-.001.07-1.012 2.566-1.051 2.674-.04.107-.696-.539-.77-.461.06 1.408.466 1.262.435 1.864-.03.603-.662 1.686-.78 3.833-.03.504-.03.22-.488.684 1.056 1.637-.37 3.985-.54 5.688-.211 2.119-1.559 3.833-1.667 6.009-.111 2.23.136 4.247 1.459 6.1 1.423 1.993.773 1.909-.04 3.947-.09-.804.912-1.937.417-2.603-.937-1.26-1.144-2.73-1.857-4.093.323 1.254-.194 2.588.288 3.816.435 1.106.989 1.22 1.074 2.563.177 2.804 1.301 5.712 2.71 8.063 1.621 2.703 2.188 4.882 2.9 7.89.298 1.26 1.227 2.196 1.643 3.399.359 1.04.485 1.992 1.609 2.492-.602-.05-1.026-.773-1.44-.359 1.294.346-.01 1.995-.432 2.52 1.215-.06.13-1.354 1.18-1.553.378.02.609-.155.692-.535.674.379 1.465.427 2.217.458 2.438.1 4.471 1.361 5.594 3.449.955 1.774 1.954 1.63 3.954 1.13 1.257-.315 3.419-.74 4.364-1.725-.767.185-1.531.425-2.232.793 1.005-.602 8.829-2.401 9.072-1.297-.453-2.016 5.483-3.104 6.265-1.512-1.581-.284 0 1.091-.216 1.8.534-.455.964-.237 1.584-.288.38.08.764.129 1.152.145.1-.283.231-.548.402-.795.88-.351 2.897-2.291.678-2.445a22.82 22.82 0 0 1 1.512-1.152c-.709.426-1.407.876-2.16 1.225.88-1.481 2.857-2.042 4.262-2.865 1.958-1.146 1.934-2.815 2.825-4.651.463-.956 1.302-1.404 1.93-2.208.633-.811.472-1.921.577-2.875.251-2.282 1.454-3.935 1.999-6.048-.16.288-.352.552-.576.792 1.156-3.225 5.736-3.841 8.643-4.174 2.097-.24 3.773-.802 5.75-1.53 2.582-.951 4.783.133 7.352.376a3.85 3.85 0 0 0-1.368-.288c1.166-.299 2.305.42 3.384.721-1.826-.375 1.325-1.55 2.579-.979 1.872.853 1.292 3.258.696 4.776-.79 2.014-2.459 3.12-3.908 4.618-.759.786-1.661 1.772-2.031 2.817-.208.586.185 2.964-.432 1.656.292 1.169-1.731 2.205-1.872 3.384 3.584-.443-1.021 1.812-.216 2.952.221-.54.69-.941 1.296-.936-.991 1.403-1.279 3.134-2.038 4.65-.62 1.239-2.012 3.678-2.067 5.069-1.682-1.868-.405-3.288-.792-5.328-1.116.777-1.049.806-1.624 1.861-.464.851-1.19.82-1.942 1.239-1.597.889-2.738 3.417-3.562 4.964-.495-.541-1.548-1.251-1.965.05-.321 1.003-.881.453-2.291.453h-9.29c-.703 0-2.682-.295-2.828.78-.119.875-.08 1.616-.157 2.498-.216 2.349-1.929 1.618-3.773 1.618 1.307 1.325 2.264 2.978 3.834 3.816 1.475.787 1.314 2.482 2.771 3.188.301.146-.363 3.402-.45 3.183-2.442.934-6.333-.168-9.768-.07-4.621 8.608-3.973 7.344-3.711 8.375.351.569-1.214 4.274-1.747 4.909-.697-.872-1.483-1.668-2.182-2.539-.405-.505-2.258-4.05-.986-2.142-.266-1.049-1.552-1.463-2.25-2.157-1.024-1.019-1.741-2.274-2.838-3.274-2.2-2.006-3.381-3.877-6.359-4.864-.194 1.136 2.62 1.649 3.168 2.448-1.737-.904-3.533-1.791-5.544-1.728a2.008 2.008 0 0 0 1.152-1.152c-.59-.09-1.07.106-1.44.576.142-1.757-1.497-1.204-1.728.07a2.65 2.65 0 0 1 1.512.289c-2.68.18-3.977 1.796-6.41 2.527-2.197.66-4.022 1.657-6.256 2.095-1.686.331-2.406.123-4.063-.771-1.841-.994-3-1.129-5.045-1.452-1.068-.168-1.717-.721-2.502-1.415-1-.884-1.978-1.072-3.186-1.514-.979-.358-1.195-1.188-1.93-1.814-.896-.763-2.471-.914-3.573-1.195-1.088-.278-2.337-.387-3.354-.883-1.065-.521-1.857-1.398-2.967-1.889-2.564-1.134-5.146-1.775-7.41-3.517-1.868-1.438-2.883-3.453-4.541-4.972-.649-.595-1.49-.357-2.254-.208-1.151.226-3.098-.592-4.18-.976-1.798-.638-4.269-1.505-5.431-3.108-.576-.794-.973-1.679-1.459-2.524-.827-1.438-2.016-1.491-3.262-2.359-.266-1.335-3.61-2.018-4.782-3.072-.615-.553-.432-1.435-1.034-2.032-.677-.671-1.305-2.223-1.695-3.106-.458-1.035-1.343-3.879-.05-4.677.899-.555 1.943-.255 2.712-1.109.719-.799-.895-1.465-1.488-1.339.333-1.077 4.163-4.688 3.09-6.019-.987-1.234-1.355-1.952-1.874-3.464-.559-1.626.13-2.876-.05-4.501-.379-3.488-3.707-6.402-5.264-9.449-1.797-3.517-3.734-6.115-6.85-8.607.849.368 1.542 1.417 1.944.07-1.358.154-3.688-1.13-3.145-2.623.391-1.075.494-4.175-1.463-3.354 0-1.274-.19-.31-1.086-.783-.611-.324-1.127-.868-1.793-1.088.879.176.954.115.223-.183-.392-.448-.293-1.095-.727-1.546a4.064 4.064 0 0 1-1.512.864c-.208-.911.886-.989 1.008-1.801-1.091 1.004-1.649.396-3.024.07.268-.162.532-.33.792-.504-.638-.533-.95-.389-.936.432-.04-1.042.118-2.073.609-3.003.183-.346 1.523-2.712 1.335-1.388.28-.555.927-1.602 1.368-.72.146-.753.04-1.394-.864-.792.378-.928.242-2.119-.691-2.684-.739-.447-1.523.353-2.322-.366-.866-.78.164-3.172-.902-3.459-.74-.199-3.128-.458-3.189-1.51-.07-1.116-.152-4.888 1.272-4.869-.683-.08-2.317-.327-2.088-.937-.31.274-.526.61-.647 1.008-.04-1.064-1.504-1.125-2.053-1.821-.469-.598-.619-1.615-.897-2.312-.287-.716-1.107-.751-1.515-1.339-.629-.908-.442-2.563-1.128-3.326-1.189-1.322-.276-2.577-.672-4.09-1.269.981-.851-1.759-1.008-2.376-.52-2.046-.525-3.22-.386-5.271.114-1.676-1.07-3.197-.673-4.871.185-.776 1.515-2.729 1.262-3.322-.415-.973-2.015-.961-2.857-1.258-1.366-.481.408-2.308-1.747-2.461-.734-.05-1.031.801-1.855.739-.788-.06-1.433-.687-1.916-1.246-1.017-1.181-2.363-1.541-3.419-2.757.09.912 1.123 1.757.747 2.699-.466 1.164-1.304 2.444-1.877 3.595-.581 1.163.29 2.308.05 3.498-.262 1.307-.363 2.669-.861 3.918-1.217 3.043.13 4.238 2.039 6.48 1.734 2.037 2.197 3.475 2.063 6.09 1.231-.935 1.811 1.282 1.984 2.079.09.419.04 1.264.388 1.582.277.257 1.394.51 1.134 1.08-.597 1.314-.958 4.912.211 6.012 1.578 1.486 1.386 4.145 3.267 5.23-1.082.807-.154 3.4-.07 4.536.731-.634.296-2.168.144-2.952 3.661.62.86 12.374 3.312 11.809-.188 1.192-.286 2.573.07 3.744.378 1.237 1.358 1.905.445 3.21-1.186 1.696-.371 4.892 2.075 4.638-1.627.165-.191.218.03-.104.272-.392.302-.892.615-1.265.379.936 1.891 2.25 2.657 2.876.421.345.318 2.499.583 3.1.602 1.364 2.562 2.325.787 3.976-.704.654-3.269 2.709-4.224 2.283-1.254-.561-.606-3.353-1.121-4.418-.377-.781-1.06-1.359-1.706-1.912-1.043-.892-1.599-2.192-2.5-3.206-1.314-1.478-3.377-2.122-4.471-3.839-.917-1.44-3.146-2.279-2.605-4.331-.132.492-.3.972-.504 1.439.213-4.155 3.638-6.804 1.585-11.108-.792-1.661-2.589-1.873-3.646-3.414-.482-.703-1.221-1.799-1.251-2.685-.02-.637.729-.786.504-1.513-.446.551-.502 1.635-1.224 1.944-.735.315-1.342-.339-2.098.21-.612.445-.988-.511-1.157-.914-.405-.967-1.173-1.137-1.929-1.745a3.657 3.657 0 0 0-.547-.813c-.421-.1-.839-.212-1.253-.339-.762-.561-.401-.868-.545-1.614-.342-1.775-3.077-2.079-3.199-4.074 1.72.172 3.893 1.098 5.399-.216-.06 1.87 3.256 1.377 2.304 3.312.875-.684 1.319-3.04.36-3.815 0 .443-.378 2.239-1.248 1.812-.512-.252.195-1.72.24-2.1-.269.161-.532.329-.792.504.849-1.845 3.513-3.611 2.448-5.904-1.106-2.384-2.372-5.48-4.54-7.083-1.783-1.318-3.219-2.373-3.645-4.673-.16-.863.436-1.483.621-2.303.243-1.076-.783-1.54-.284-2.14a6.443 6.443 0 0 1-.72.576c-.467-1.934 1.519-2.786-.1-4.578-.74-.821.168-1.453.168-2.334 0-1.184-.949-1.962-1.125-3.051-.131-.813.319-1.477.864-1.987.477-.447-.167-1.157-.366-1.597a5.702 5.702 0 0 1-.597-.925c.105-.479.201-.958.288-1.44-.183-1.039-.332-.689.241-1.807"/><path d="M580.365 598.269c1.015.226 1.699-.835 2.592-1.08-.943-.137-1.831.665-2.592 1.08M618.956 584.302c.961-.759 1.88-1.747 2.376-2.881-.906.826-3.072.894-2.376 2.881"/></g></svg>