<?xml version="1.0" encoding="UTF-8" standalone="no"?>
<!-- Created with Inkscape (http://www.inkscape.org/) -->

<svg
   xmlns:dc="http://purl.org/dc/elements/1.1/"
   xmlns:cc="http://creativecommons.org/ns#"
   xmlns:rdf="http://www.w3.org/1999/02/22-rdf-syntax-ns#"
   xmlns:svg="http://www.w3.org/2000/svg"
   xmlns="http://www.w3.org/2000/svg"
   xmlns:sodipodi="http://sodipodi.sourceforge.net/DTD/sodipodi-0.dtd"
   xmlns:inkscape="http://www.inkscape.org/namespaces/inkscape"
   width="47.691971mm"
   height="49.110317mm"
   viewBox="0 0 47.691971 49.110317"
   version="1.1"
   id="svg23218"
   inkscape:version="0.92.0 r15299"
   sodipodi:docname="nicaragua.svg">
  <defs
     id="defs23212" />
  <sodipodi:namedview
     id="base"
     pagecolor="#ffffff"
     bordercolor="#666666"
     borderopacity="1.0"
     inkscape:pageopacity="0.0"
     inkscape:pageshadow="2"
     inkscape:zoom="0.35"
     inkscape:cx="248.69799"
     inkscape:cy="321.37825"
     inkscape:document-units="mm"
     inkscape:current-layer="layer1"
     showgrid="false"
     fit-margin-top="0"
     fit-margin-left="0"
     fit-margin-right="0"
     fit-margin-bottom="0"
     inkscape:window-width="1920"
     inkscape:window-height="1017"
     inkscape:window-x="1912"
     inkscape:window-y="-8"
     inkscape:window-maximized="1" />
  <metadata
     id="metadata23215">
    <rdf:RDF>
      <cc:Work
         rdf:about="">
        <dc:format>image/svg+xml</dc:format>
        <dc:type
           rdf:resource="http://purl.org/dc/dcmitype/StillImage" />
        <dc:title></dc:title>
      </cc:Work>
    </rdf:RDF>
  </metadata>
  <g
     inkscape:label="Layer 1"
     inkscape:groupmode="layer"
     id="layer1"
     transform="translate(82.810272,-184.75434)">
    <path
       inkscape:connector-curvature="0"
       id="ni"
       class="landxx ni"
       d="m -82.24229,207.10162 c 1.205658,0.50645 1.242875,1.77727 2.775547,1.62838 0.214026,-0.3589 -0.451954,-0.72579 0.167487,-0.8215 0.630103,-0.0798 2.35285,-0.17547 2.93376,-0.34962 1.261495,-0.3775 0.46393,-2.10957 1.357202,-2.73702 0.66732,-0.4679 1.710821,-0.10634 1.872977,-1.05545 0.206043,-1.20566 -0.8627,-3.65025 -0.106343,-4.60866 0.695237,-0.88665 2.293045,-0.17281 3.163729,-0.0532 1.101992,0.14225 1.545962,-0.82947 2.169395,-1.56855 2.336907,-2.76758 2.649293,-0.79759 5.099189,0.76566 0.406754,-2.32359 3.543879,-3.88552 5.480677,-5.50857 1.319986,-0.0931 -0.06647,-1.03155 1.43962,-2.29969 1.143198,-0.95843 1.115279,-2.51503 2.342211,-3.43888 1.390451,-1.04749 1.918178,0.70052 3.053394,1.32398 1.647,0.90525 2.413995,-0.0798 3.96928,-0.61413 1.68952,-0.58491 4.635232,-0.75904 6.206461,-1.61643 0.713835,-0.38948 1.284107,-1.05679 2.105599,-1.24555 1.023567,-0.23397 2.035159,0.17547 3.062692,0 -0.871998,0.41607 -1.349219,2.26777 -2.488427,1.24555 -1.076725,1.87297 1.693515,4.97154 0.76568,7.36959 -0.897289,2.32228 -2.758289,3.65025 -3.519977,6.18123 -0.947796,3.15175 -0.563629,6.3035 -1.08471,9.48717 -0.252558,1.54596 0.412084,5.62956 -1.42499,5.86618 0.05316,-1.80918 1.084686,-3.13051 0.765654,-5.07259 -1.218949,0.30441 -0.03987,2.52034 -2.297012,3.25411 1.532673,1.97667 0.408093,4.03841 0.478533,6.22109 -0.35357,-0.5995 -0.449302,-1.23757 -0.28712,-1.91418 -0.220647,1.30937 -1.058106,2.47382 -1.052798,3.8297 2.467176,-0.88531 0.525073,2.41531 0.03989,3.22089 -1.164473,1.91815 -2.001932,4.15935 -0.510468,6.28887 0.664665,0.9478 1.918176,1.81848 -0.106344,2.62269 -1.181733,0.47058 -3.210245,0.39215 -4.228481,-0.41605 -0.305742,-0.26322 -0.564944,-0.56628 -0.777632,-0.91058 -0.860046,-1.2668 -0.566279,-0.81219 -1.724085,-1.01293 -0.889305,-0.15419 -1.442297,-1.22693 -2.414016,-1.02488 -0.78693,0.16218 -1.503416,0.42671 -2.18534,0.79891 -0.429366,0.23396 -1.543309,-0.14356 -2.109591,-0.39481 -2.90185,-1.28807 -4.209884,-1.90087 -4.60734,-1.93809 -0.198059,-0.0134 -0.965076,-0.0798 0.303088,-0.29644 0.808202,0.13293 9.402077,4.66315 7.154257,-1.29206 -0.459938,-0.50514 -2.512378,-4.24844 -2.966985,-4.70838 -0.437351,-0.44263 -3.083966,-2.23852 -3.348499,-2.95501 -0.281814,-0.76699 -2.441911,-1.26415 -2.873931,-1.18972 -1.782576,0.30706 -0.627425,5.36769 -0.977027,4.80007 0.424035,0.43735 1.420998,4.59539 3.001548,5.3491 -0.212687,-0.0134 0.05316,0.42272 -0.37886,0.28312 -1.148506,-0.37087 -0.8627,3.52132 -2.440573,0.10635 -0.88531,-1.9195 -2.746335,-3.24214 -4.213873,-4.65121 -2.908494,-2.79283 -4.120797,-6.60526 -7.23402,-9.31036 -1.999256,-1.7374 -6.306161,-5.16033 -4.346775,-7.63148"
       style="fill:#c83737;fill-opacity:1;fill-rule:evenodd;stroke:#000000;stroke-width:0.14449541;stroke-miterlimit:4;stroke-dasharray:none;stroke-opacity:1">
      <title
         id="title1804">Nicaragua</title>
    </path>
  </g>
</svg>
