<?xml version="1.0" encoding="UTF-8" standalone="no"?>
<!-- Created with Inkscape (http://www.inkscape.org/) -->

<svg
   xmlns:dc="http://purl.org/dc/elements/1.1/"
   xmlns:cc="http://creativecommons.org/ns#"
   xmlns:rdf="http://www.w3.org/1999/02/22-rdf-syntax-ns#"
   xmlns:svg="http://www.w3.org/2000/svg"
   xmlns="http://www.w3.org/2000/svg"
   xmlns:sodipodi="http://sodipodi.sourceforge.net/DTD/sodipodi-0.dtd"
   xmlns:inkscape="http://www.inkscape.org/namespaces/inkscape"
   width="58.534622mm"
   height="27.723579mm"
   viewBox="0 0 58.534622 27.723579"
   version="1.1"
   id="svg24361"
   inkscape:version="0.92.0 r15299"
   sodipodi:docname="panama.svg">
  <defs
     id="defs24355" />
  <sodipodi:namedview
     id="base"
     pagecolor="#ffffff"
     bordercolor="#666666"
     borderopacity="1.0"
     inkscape:pageopacity="0.0"
     inkscape:pageshadow="2"
     inkscape:zoom="0.35"
     inkscape:cx="826.33102"
     inkscape:cy="360.96245"
     inkscape:document-units="mm"
     inkscape:current-layer="layer1"
     showgrid="false"
     fit-margin-top="0"
     fit-margin-left="0"
     fit-margin-right="0"
     fit-margin-bottom="0"
     inkscape:window-width="1920"
     inkscape:window-height="1017"
     inkscape:window-x="1912"
     inkscape:window-y="-8"
     inkscape:window-maximized="1" />
  <metadata
     id="metadata24358">
    <rdf:RDF>
      <cc:Work
         rdf:about="">
        <dc:format>image/svg+xml</dc:format>
        <dc:type
           rdf:resource="http://purl.org/dc/dcmitype/StillImage" />
        <dc:title></dc:title>
      </cc:Work>
    </rdf:RDF>
  </metadata>
  <g
     inkscape:label="Layer 1"
     inkscape:groupmode="layer"
     id="layer1"
     transform="translate(235.64234,-216.6144)">
    <g
       id="pa"
       class="landxx coastxx pa"
       style="fill:#c83737;fill-opacity:1;fill-rule:evenodd;stroke:#000000;stroke-width:0.10870087;stroke-miterlimit:4;stroke-dasharray:none;stroke-opacity:1"
       transform="matrix(1.3292939,0,0,1.3292939,-1084.3657,-682.58183)">
      <title
         id="title953">Panama</title>
      <path
         inkscape:connector-curvature="0"
         id="path2682"
         class="landxx pa"
         d="m 638.69,687.96 c -0.691,-0.667 1.063,-1.496 1.188,-2.125 0.237,-1.18 -0.982,-2.469 0.654,-3.176 1.334,-0.577 -1.122,-1.405 -1.122,-1.899 0,-1.023 0.801,-3.437 0.571,-3.838 0.954,-0.949 1.868,1.242 2.524,-0.122 0.498,0.442 1.225,0.997 1.44,1.656 -0.001,0.481 -0.02,0.961 -0.07,1.439 0.09,0.377 0.752,-0.04 0.697,0.513 -0.235,2.354 2.08,1.505 3.551,1.792 -0.282,-0.5 -0.594,-0.979 -0.937,-1.44 1.245,-0.38 2.459,2.649 3.9,2.848 3.034,0.418 4.737,-1.944 7.297,-2.9 1.755,-0.655 3.805,-1.177 5.135,-2.521 0.727,-0.735 1.135,-1.676 2.306,-1.686 1.311,-0.01 2.583,0.571 3.897,0.443 -0.236,0.298 -0.452,0.61 -0.648,0.937 2.561,-0.286 6.049,0.312 7.928,2.277 0.894,0.935 2.9,4.84 4.528,4.347 -1.209,1.862 0.167,2.693 0.799,4.618 0.681,2.072 -1.483,4.162 -3.031,5.246 -0.167,-0.533 -0.431,-1.014 -0.792,-1.44 -0.527,0.768 -0.226,0.892 -0.278,1.489 -0.05,0.616 -0.75,1.167 -1.205,2.538 -1.952,-1.408 -3.749,-4.813 -3.845,-7.195 1.637,0.609 1.072,-1.361 1.77,-2.105 0.774,-0.827 2.814,1.22 3.486,1.601 -0.45,-0.55 -1.081,-0.866 -1.626,-1.302 -0.775,-0.62 -0.634,-1.654 -1.11,-2.442 0.201,0.607 -0.13,1.141 -0.648,1.44 0.323,-1.45 -0.903,0.06 -1.44,-1.297 0.168,0.585 0.144,1.161 -0.07,1.729 -0.833,-1.533 -0.883,-3.083 -2.241,-3.868 -0.613,-0.354 -1.194,-0.771 -1.744,-1.216 -0.979,-0.793 -0.492,-0.754 -1.621,-0.688 -1.557,0.09 -4.202,0.423 -4.647,2.401 -0.339,1.509 -2.509,4.095 -4.365,3.794 -2.926,-0.474 0.223,3.855 0.88,4.575 0.504,0.552 1.58,1.684 0.966,2.504 -0.542,0.725 -1.795,0.246 -2.468,0.845 -0.88,0.783 -2.909,2.001 -4.157,1.312 -0.296,-0.163 -0.19,-2.157 -0.383,-2.64 -0.379,-0.949 -0.09,-2.402 -0.667,-3.202 -0.389,0.453 -0.797,0.477 -1.224,0.07 1.236,2.388 -1.468,2.985 -2.592,0.976 -0.954,-1.704 -0.921,-2.955 -2.942,-3.676 -0.66,-0.235 -1.338,0.347 -1.788,-0.371 -0.562,-0.894 -1.31,-0.186 -1.75,-0.889 -0.711,1.014 -1.757,-0.05 -2.664,0.432 -1.008,0.539 -0.29,1.718 -1.008,2.377 0.08,-0.885 -0.1,-1.654 -0.43,-2.162"
         style="fill:#c83737;fill-opacity:1;fill-rule:evenodd;stroke:#000000;stroke-width:0.10870087;stroke-miterlimit:4;stroke-dasharray:none;stroke-opacity:1" />
      <path
         inkscape:connector-curvature="0"
         id="path4792"
         d="m 643.01,688.17 c 10e-4,0.526 0.169,0.503 0.504,-0.07 -0.194,-0.127 -0.362,-0.103 -0.504,0.07"
         style="fill:#c83737;fill-opacity:1;stroke:#000000;stroke-width:0.10870087;stroke-miterlimit:4;stroke-dasharray:none;stroke-opacity:1" />
      <path
         inkscape:connector-curvature="0"
         id="path4794"
         d="m 647.76,693.43 c -0.453,0.462 -1.233,0.809 -0.992,1.613 0.199,0.664 0.866,1.084 1.496,0.619 -0.471,-0.669 -0.32,-1.485 -0.504,-2.232"
         style="fill:#c83737;fill-opacity:1;stroke:#000000;stroke-width:0.10870087;stroke-miterlimit:4;stroke-dasharray:none;stroke-opacity:1" />
      <path
         inkscape:connector-curvature="0"
         id="path4796"
         d="m 651.43,694.87 c 0.554,-0.165 1.034,-0.453 1.44,-0.864 -0.553,0.165 -1.033,0.453 -1.44,0.864"
         style="fill:#c83737;fill-opacity:1;stroke:#000000;stroke-width:0.10870087;stroke-miterlimit:4;stroke-dasharray:none;stroke-opacity:1" />
      <path
         inkscape:connector-curvature="0"
         id="path4802"
         d="m 670.01,686.37 c -0.72,0.117 -0.801,0.96 -0.648,1.512 1.009,0.149 0.829,-0.908 0.648,-1.512"
         style="fill:#c83737;fill-opacity:1;stroke:#000000;stroke-width:0.10870087;stroke-miterlimit:4;stroke-dasharray:none;stroke-opacity:1" />
    </g>
  </g>
</svg>
