<?xml version="1.0" encoding="UTF-8" standalone="no"?>
<!-- Created with Inkscape (http://www.inkscape.org/) -->

<svg
   xmlns:dc="http://purl.org/dc/elements/1.1/"
   xmlns:cc="http://creativecommons.org/ns#"
   xmlns:rdf="http://www.w3.org/1999/02/22-rdf-syntax-ns#"
   xmlns:svg="http://www.w3.org/2000/svg"
   xmlns="http://www.w3.org/2000/svg"
   xmlns:sodipodi="http://sodipodi.sourceforge.net/DTD/sodipodi-0.dtd"
   xmlns:inkscape="http://www.inkscape.org/namespaces/inkscape"
   width="47.52644mm"
   height="37.677135mm"
   viewBox="0 0 47.52644 37.677135"
   version="1.1"
   id="svg19735"
   inkscape:version="0.92.0 r15299"
   sodipodi:docname="us_hawaii.svg">
  <defs
     id="defs19729" />
  <sodipodi:namedview
     id="base"
     pagecolor="#ffffff"
     bordercolor="#666666"
     borderopacity="1.0"
     inkscape:pageopacity="0.0"
     inkscape:pageshadow="2"
     inkscape:zoom="0.35"
     inkscape:cx="-68.75762"
     inkscape:cy="188.34374"
     inkscape:document-units="mm"
     inkscape:current-layer="layer1"
     showgrid="false"
     fit-margin-top="0"
     fit-margin-left="0"
     fit-margin-right="0"
     fit-margin-bottom="0"
     inkscape:window-width="1920"
     inkscape:window-height="1017"
     inkscape:window-x="1912"
     inkscape:window-y="-8"
     inkscape:window-maximized="1" />
  <metadata
     id="metadata19732">
    <rdf:RDF>
      <cc:Work
         rdf:about="">
        <dc:format>image/svg+xml</dc:format>
        <dc:type
           rdf:resource="http://purl.org/dc/dcmitype/StillImage" />
        <dc:title></dc:title>
      </cc:Work>
    </rdf:RDF>
  </metadata>
  <g
     inkscape:label="Layer 1"
     inkscape:groupmode="layer"
     id="layer1"
     transform="translate(-1.1831918,-160.98881)">
    <g
       transform="translate(1895.7737,-303.27177)"
       id="g19711">
      <path
         inkscape:connector-curvature="0"
         id="path3630"
         d="m -1894.4406,469.54988 c 0.4453,-1.03154 1.946,-1.41304 1.9141,-2.67986 -0.7882,0.61945 -2.3595,1.39443 -1.9141,2.67986"
         style="fill:#c83737;fill-opacity:1;fill-rule:evenodd;stroke:#000000;stroke-width:0.14449541;stroke-miterlimit:4;stroke-dasharray:none;stroke-opacity:1" />
      <path
         inkscape:connector-curvature="0"
         id="path3632"
         d="m -1886.6909,468.49973 c 1.0741,-0.64204 3.6303,-4.29627 0.8029,-4.16334 -3.3232,0.15685 -5.0141,3.56915 -0.8029,4.16334"
         style="fill:#c83737;fill-opacity:1;fill-rule:evenodd;stroke:#000000;stroke-width:0.14449541;stroke-miterlimit:4;stroke-dasharray:none;stroke-opacity:1" />
      <path
         inkscape:connector-curvature="0"
         id="path3634"
         d="m -1872.2414,475.58487 c 2.6532,0.45063 -0.133,-4.7828 -0.6128,-4.7602 -0.6594,0.0266 -3.0003,1.09534 -2.9949,1.87962 0.013,1.86633 2.6798,1.80518 3.6077,2.88058"
         style="fill:#c83737;fill-opacity:1;fill-rule:evenodd;stroke:#000000;stroke-width:0.14449541;stroke-miterlimit:4;stroke-dasharray:none;stroke-opacity:1" />
      <path
         inkscape:connector-curvature="0"
         id="path3636"
         d="m -1863.5346,477.9776 c 0.8641,0.0266 1.5234,-0.53039 1.4357,-1.43564 -1.538,0.36822 -4.844,-1.49545 -5.3597,0.95842 1.3651,-0.11963 2.6134,0.11964 3.924,0.47722"
         style="fill:#c83737;fill-opacity:1;fill-rule:evenodd;stroke:#000000;stroke-width:0.14449541;stroke-miterlimit:4;stroke-dasharray:none;stroke-opacity:1" />
      <path
         inkscape:connector-curvature="0"
         id="path3638"
         d="m -1864.7708,481.51352 c 1.9049,-0.55431 0.4546,-2.56819 -1.0528,-1.91285 0.3071,0.66066 0.658,1.29872 1.0528,1.91285"
         style="fill:#c83737;fill-opacity:1;fill-rule:evenodd;stroke:#000000;stroke-width:0.14449541;stroke-miterlimit:4;stroke-dasharray:none;stroke-opacity:1" />
      <path
         inkscape:connector-curvature="0"
         id="path3642"
         d="m -1859.9853,483.33465 c 1.0514,-0.41474 4.6512,-0.37486 3.9958,-2.41001 -0.5875,-1.82512 -2.1189,-1.21896 -3.4216,-1.46222 -0.7338,-0.13825 -1.7719,-1.85436 -2.3808,-0.71782 -0.5224,0.9757 -0.307,1.51274 0.5849,2.10693 1.2203,0.81353 0.4254,1.45558 1.2217,2.48312"
         style="fill:#c83737;fill-opacity:1;fill-rule:evenodd;stroke:#000000;stroke-width:0.14449541;stroke-miterlimit:4;stroke-dasharray:none;stroke-opacity:1" />
      <path
         inkscape:connector-curvature="0"
         id="path3644"
         d="m -1857.4065,501.81184 c 1.1551,0.3948 2.7995,-1.49811 3.5266,-2.14415 1.7573,-1.56059 4.0318,-1.55129 5.8914,-2.85134 2.0538,-1.43563 -0.1821,-2.45254 -0.7098,-4.0025 -0.2951,-0.86537 0.3868,-1.49014 -0.4387,-2.23321 -0.9345,-0.84145 -1.9394,-1.2748 -2.9935,-1.91286 -0.8707,-0.52773 -2.8487,-2.31164 -3.5546,-0.63806 -0.3044,0.72314 0.2566,1.18174 0.1529,1.86766 -0.1343,0.87999 -1.7361,1.57654 -2.3117,2.11623 -1.5313,1.43564 0.1064,3.75659 -0.1369,5.49132 -0.2725,1.96602 -1.534,2.9271 0.5743,4.30691"
         style="fill:#c83737;fill-opacity:1;fill-rule:evenodd;stroke:#000000;stroke-width:0.14449541;stroke-miterlimit:4;stroke-dasharray:none;stroke-opacity:1" />
    </g>
  </g>
</svg>
