<svg xmlns="http://www.w3.org/2000/svg" width="2110.832" height="1047.962" viewBox="0 0 558.49097 277.27325"><path d="M2.258 125.992c.853-2.6-2.761-4.832-2.106-7.752.743-3.31 3.575-6.293 3.728-9.664.053-1.308-2.158-4.195-1.69-5.132 1.315-2.628 2.798-4.981 5.62-6.164-1.296.643-1.4.518-.313-.378.741-.746 1.627-1.602 1.843-2.685.36-1.796 2.558-2.994 3.346-4.654.61-1.288 0-3.153.815-4.126 1.34-1.62.521-2.083.835-3.912.222-1.295 1.219-2.31 1.963-3.331.919-1.26.682-2.41 1.253-3.71.644-1.468 1.84-2.744 2.948-3.874.458-.468 3.012-3.146 2.335-1.565.322-.75.82-.699 1.476-.878.439-.12 1.428-1.93-.423-.366 1.005-1.318 2.224-3.468 4.116-3.541-2.097.518-.107-1.232.41-1.94.757-1.04 1.581-2.027 2.396-3.021 1.23-1.502 2.01-3.37 3.479-4.676 2.141-1.905 4.182-5.134 5.745-7.604.574-.905 1.71-3.192 3.092-2.954-.501-1.491 1.235-3.47 2.128-4.462 1.148-1.275 1.523-3.298 3.444-3.4 1.441-.079 4.292 1.183 5.433.206-.76.33-1.767-.545-2.38-.86-1.181-.603-1.815-.252-3.013-.066-1.806.283.312-3.05.608-3.575-.26.681-.547 1.353-.862 2.01 1.626-.348 2.29-4.043 4.211-3.158-.611-.522-1.313-.713-2.105-.575.31-2.199 2.185-2.171 3.924-2.68-.795.053-1.52-.356-2.01-.957-.285.296-.54.614-.766.957.976-3.121 3.293-6.3 3.072-9.648-.106-1.595 1.817-6.636 3.426-6.216 2.565.67 4.39 2.123 7.1 2.588 1.635.28 5.817-.133 5.831 1.502a1.947 1.947 0 0 1 1.532-1.435c-.435.739-.12 1.688-.36 2.476-.278.95-2.497 2.026-3.279 2.596 2.148-2.206-.853-.133-1.274.158-1.338.907-2.538 1.993-3.797 3 .941.828 2.013.08 2.871-.382-.654.177-1.292.4-1.913.67 0-1.448 1.729-2.299 2.861-2.741 1.945-.757 3.237-2.027 4.986-3.097.556 1.499-3.203 2.51-3.732 4.115 1.877-1.025 0 2.598-1.627 2.776.287-.32.574-.637.86-.957-1.246.151-1.924 1.363-2.68 2.2-.066-.805.392-1.5 1.053-1.913-1.436.488-2.39 1.959-3.924 2.201 1.294-.304 1.294-.08 0 .67.998-.815 1.253-.655.765.478.371-1.05 1.275-1.575 2.312-1.01.655.358 2-.956 2.464-1.267 1.714-1.15 4.107-1.845 4.366-4.422.188-1.882 4.127-3.002 3.702-4.43-.358-1.201.974-2.182.557-3.515-.314-1.003-1.586.27-.862-1.435 2.242 1.153 2.587-1.62 3.733-2.777-1.46.214-.52-1.936.106-2.625L326.01 4.91l.466-4.416c.08-.794 2.203-.505 2.52 1.204.418 2.247-2.945 5.933-.119 6.337.9.133 5.049.347 4.917 1.617-.14 1.356 4.24-.487 5.033-.804 1.74-.692 3.784.85 5.427 1.218-.488.776-.093 1.305.749 1.358-.371.406-.233 2.062.476 1.775.365-.148.527-1 .978-1.008 1.095-.013 1.569.668 2.382 1.26.658.478 1.044.495 1.303.582-.08.534-.027 1.176.762 1.181 2.651.014 4.963-1.754 7.5-1.781-1.018 1.85 2.272 1.473 3.174 1.402.85-.066 1.808-.106 2.62.326 1.962 1.03 2.557.795 4.032.624-5.538 1.722-11.333 3.642-16.47 6.385-2.137 1.141-4.065 2.626-6.182 3.8-2.362 1.314-5.064 2.092-7.178 3.83 1.868 2.844 10.411-1.825 12.825-2.01-.284 1.32-1.728 2.884-2.871 3.54.64.188 1.81-.65 2.217-.312.72.6.533.757 1.676.757 1.986 0 3.978-1.251 5.74-2.02 2.087-.91 4.31-.347 6.297-1.312 2.622-1.273 5.216-2.258 7.71-3.812-.41.956.303 1.608.479 2.488.184.926-.858 1.658-1.053 2.489.477-.402 4.534-3.038 2.105-.766 2.514-1.938 4.483-.248 5.762 2.082 1.2 2.19 2.548 1.334 4.571 2.084 2.802 1.038 5.454-1.554 8.06-2.206 1.559-.39 3.134-.054 4.716-.17 1.987-.15 3.923-.653 5.893-.928-.621 1.034-1.274 2.055-1.532 3.254 1.875.436 3.584.25 5.339 0 1.582-.218 1.111 2.871-.17 3.151 1.236.08 1.378 1.483 2.105 2.2-1.825 1.723-4.852-.991-6.955.23-.08.039-1.375 1.483-1.33 1.48-1.245.08-1.27-1.704-2.388-2.14-3.298-1.288-5.306 1.114-8.532.946-3.418-.178-4.86 2.98-7.88 3.791.507-1.159 1.666-1.782 2.488-2.68-2.047.334-2.92 1.606-4.786 2.106.133-.739.414-1.41.862-2.011-3.318 1.23-6.13 5.386-8.863 7.569-.696.555-.96 1.458-1.665 2.002-.783.605-1.884.551-2.696 1.164-1.238.933-2.972 2.475-3.238 4.1 2.363-.47 4.699-4.459 7.324-3.411.955.381-2.238 3.29-2.577 3.685-1.12 1.301-1.694 3.06-2.934 4.24-2.52 2.4-3.572 5.305-5.957 7.846-1.21 1.289-2.27 2.963-2.746 4.677-.442 1.597-.133 3.252-1.237 4.633-1.806 2.256-2.792 7.356-1.91 10.164.733 2.335 4.13.914 5.58.272 3.343-1.477 5.902-4.004 8.244-6.754 1.266-1.485 2.415-3.037 3.248-4.812.708-1.51.715-5.089 2.249-5.895-2.478-1.488-.373-4.246.77-5.85.738-1.035.564-2.117 1.083-3.2.54-1.13 2.31-1.992 3.155-2.949.959-1.086 1.3-2.148 1.877-3.44.52-1.158 1.602-1.25 2.492-1.966 1.115-.896 1.197-1.457 2.678-1.778 1.745-.38 2.594-2.204 4.214-2.833-1.025 1.297-1.345 3.07-2.584 4.211a4.647 4.647 0 0 0 1.818-1.531c-.133.803-.607 1.52-1.244 2.01 2.01-.842 2.853-2.83 3.762-4.65 1.127-2.257 3.588-1.373 5.427-2.432-3.084-.506 1.433-4.02 2.79-4.27.823-.15 2.669.98 3.432 1.4 1.803.993 3.292 2.238 5.213 3.051 1.593.675 2.309 2.868.828 3.585-1.424.69-.928 2.838-1.194 4.085-.327 1.524-1.552 4.098-3.129 4.605-1.73.557-2.2 2.345-3.81 3.077-1.523.693-3.502 1.493-3.823 3.406-.414 2.471 2.897.525 3.579.32 1.41-.422 6.6-5.978 8.22-3.64 1.26 1.816-.569 6.312-.768 8.208-.26 2.47-1.717 8.27-5.02 8.523 1.13-1.158-.455-1.798-1.25-.804-.676.845-.976 1.998-1.812 2.72-.89.767-1.985 1.208-2.882 1.955-.961.798-1.502 1.897-2.496 2.685-.732.581-4.237 2.75-2.251 3.463.711.255 1.48.4 2.175.7.308.208.558.471.748.789.472.37 1.508 0 2.123.36-.993.211-2.042.194-2.967.67.981.568 1.954-.246 2.967-.093.673.106 1.327.44 2.009.461 2.216.067 4.281-.932 6.562-.864 2.206.067 4.21-1.89 6.089-2.798 2.18-1.055 4.663-1.632 6.972-2.349 4.804-1.491 9.678-3.24 13.979-5.893 1.82-1.122 3.83-2.165 5.56-3.407 1.005-.721 2.603-1.599.674-1.656-1.63-1.118 0-2.706.322-4.037.756-.974 3.718-1.067 5.28-1.277 1.688-.226 3.567-.222 5.245.066 1.337.23 2.365 1.74 3.723 1.397 1.723-.435 3.268-.167 5.009-.37 1.913-.223 3.515-1.455 5.261-2.153 1.33-.53 2.917-.496 3.395-2.139.49-1.684 1.58-2.842 2.943-3.884-.776.344-2.05.65-1.05-.766-1.104.765-1.298.176-.77-.517.543-.712 1.476-1.86 2.267-2.206 5.263-2.584 10.44-6.362 16.506-7.852l29.79.08c.607-.871 1.167-2.444 2.122-2.984 1.068-.6 2.4-.273 3.588-.974.162.318.322.637.479.957 1.184-.506.735-1.677 2.096-1.52-.614-.232 3.05-3.514 4.012-3.967 1.158-.544 2.12-1.7 2.692-3.416.352-1.059 1.9-2.6 3.32-3.532 1.428-.938 1.505-2.6 2.53-3.837 1.423-1.716 3.51-2.937 5.225-4.34 1.458-1.19 6.707-7.057 6.221-2.393-.259 2.496 5.428-.12 6.167-.324 4.407-1.191 3.772 4.388 2.825 6.764-.852 2.125-1.856 4.31-2.626 6.465-.4 1.122-2.411 4.14-1.648 5.321.808 1.253 2.475.218 1.663 2.087-.576 1.323-1.508 2.682-.507 4.033.798-.806 1.614-.467 1.868.573.3 1.227-.952 1.578-1.11 2.68 1.312-.886 1.271.133.713.788-.6.712-1.702.936-2.562 1.106-1.047.207-1.929.362-2.85.966-.662.433-3.064 2.204-2.187.013-.878.29-1.499 1.34-2.485 1.34-.74 0-.576 1.4-1.436 1.628 0-.594.013-2.153-1.022-1.91-1.174.276-1.868 2.051-2.05.187-.027.86-.311.758-.93.72-.73-.039-.673 1.783-.692 2.152-1.53-.988-1.349-2.235-1.05-3.83-.365 1.109-1.658 1.256-2.393 2.01-.84.86-1.23 2.063-2.02 2.967-1.847 2.116-3.533 1.035-5.25 3.351-.216-.62-.377-.756-.107-1.436-.315.291-.636.579-.957.86.62-2.452-1.195.229-1.33.862.067-1.057.205-2.12 1.05-2.871a2.881 2.881 0 0 0-1.342 1.244c.992-.24-.346 2.475-.864 2.871-.053-.416-.106-.83-.186-1.244-.475.392-2.035 1.764-.293-.193-1.613 2.195-.679.234-.385-.383-1.045.677-3.212 1.344-3.313 2.81-.026.423-2.15 2.287-2.613 2.565-1.82 1.096-8.381 6.682-5.454 8.886-.923.544-4.602 1.927-4.444 3.347.08.671 1.623.912 1.99 1.511.926 1.513-.476 3.362 1.192 4.871 1.408 1.272 4.189.027 4.505-1.785-1.17 0-.192-1.158-1.329-1.913 2.03-.093 1.717 2.886 1.057 4.021-.777 1.339-5.828 2.19-7.291 2.009.295-.685.618-1.355.97-2.012-2.003 1.039-4.126 2.527-6.327 2.682.418-1.004.663-2.134 1.542-2.872-.948.475-2.009 1.747-2.207 0-1.752 2.174-1.85 4.165-5.012 4.665-.622.093-5.797.922-5.704-.262-.053 1.256-1.948 1.261-2.808 1.25-1.876-.026-2.854 0-4.649.721-3.584 1.432-7.077 2.623-10.156 4.92 1.504-1.872 2.907-3.674 2.58-6.223-1.244 2.106-.402 6.095-3.626 7.063-2.519.756-2.712 2.705-.013 2.988-.481 2.493-2.14 4.68-3.443 6.796.32-.638.638-1.276.957-1.915-2.116-.053-2.665 5.801-5.064 5.594-.767-.066-2.699 3.084-3.2 3.628-1.127 1.219-2.673 2.835-4.457 2.934.234-.607 1.781-2.12.884-2.732-1.496-1.021-2.507-1.082-3.563-2.81-1.897-3.103 3.05-4.113 4.594-5.465-2.347.99-6.437 2.492-5.261 5.824.68 1.927-.04 3.853.783 5.88.657 1.626.3 2.824-.787 3.418 1.434.294.756 1.646.186 2.393.997-2.186-.227-.201-.41.274-.293.76-1.43 1.297-2.006 1.82-1.558 1.412-2.617 2.957-3.9 4.605-1.148 1.477-2.751 2.574-3.862 4.028-.657.859-1.39 3.188-2.744 3.152-.468-2.147 1.497-4.396 2.786-5.856.648-.732 2.335-3.167 3.156-3.332-.784-.311-1.52-.216-2.207.287.256-.925 2.721-2.778.28-2.776a6.873 6.873 0 0 0 1.063-2.01c-.97 1.59-1.553-.767-1.821 1.435-.176-.517-1.61-1.442-1.456-1.97.274-.941 1.683-1.427.886-2.527.675 0 1.313.17 1.912.478-.187-.797-1.13-2.456-2.206-1.818.462-1.348 1.202-.448 2.076-.985 1.472-.905-.844-1.514-1.69-.834.474-1.572 2.623-.995 2.964-2.775-.307.271-.626.526-.957.765-.811-2.606 3.018-3.323 4.785-3.54a17.076 17.076 0 0 1-.957-.766 4.685 4.685 0 0 0 1.821-1.532c-.655.408-1.324.791-2.007 1.149.306-.337.594-.689.864-1.053-.997-.12-1.476.452-1.958 1.21-.334.525-2.213 2.112-1.02.133a3.192 3.192 0 0 0-1.143 1.53c-.377-1.82-2.136.292-2.007 1.15a25.745 25.745 0 0 1-1.05-.48 3.88 3.88 0 0 0 .943 1.915c-1.205.12-1.059.314-.279 1.053-2.73-1.69-1.984 6.823-2.685 7.657-1.422-.955-1.679-2.368-1.143-3.925-.45 1.274-.784 2.403.162 3.556.737.898 1.718 2.242.503 3.241-.375-1.487-3.846-1.51-3.257-3.254-.497-.093-.622.226-.372.957a3.093 3.093 0 0 1-1.44-1.723c-1.562 1.395-2.3-.4-.954-1.664 1.027-.965 3.395-1.918 2.578-3.694.067 1.824-5.293 5.182-4.143 6.202.697.62 1.841-.184 2.4.774.94 1.613 1.23 1.162 2.944 1.613.7.184 1.178 1.702 1.79 2.21 1.025.846.867 1.31-.053 2.333-2.44 2.7-3.957-1.422-4.846-3.37-.093 1.788 1.336 4.48 2.876 5.356 1.895 1.077 1.481 2.69-.87 2.301.14.347.268.698.385 1.053-1.47.859-2.204-1.191-2.966-2.01 1.013 1.817 4.846 4.534 1.34 5.741-1.187-3.433-3.424-3.162-6.508-4.305.325.648 2.404.799 3.197 1.365 1.094.781 3.369 2.708 2.067 4.184.602-.644 1.373-.582 1.914.094-.154-1.544 1.445-1.032 2.332-.778 1.118.322.861 1.21.859 2.286 0 1.425-.14 2.81-.265 4.229-.16 1.82.899 3.782.33 5.556-.093-1.542-.157-3.14-.593-4.634-.423-1.447.727-2.945-.364-4.267-.067.513-.297 1.546-.864.574-.027 1.875 1.225 3.818.293 5.647a2.56 2.56 0 0 0-.572-2.01c-.385 1.032-1.144 1.153-1.826.288.188.337.347.69.479 1.052-.748.475-1.418.38-2.01-.287.954 1.946-.977.448-1.628.093.276.303.531.621.765.957-.94.241-1.74 1.296-2.775.67-1.1-.664-.596-2.165 0-2.967-.51.44-1.827 3.539-.993 4.055.742.458 1.762-.59 2.51-.318.608.222 3.587-.8 3.456.56-.093.93-.612 2.274-1.24 2.977.86-.283 1.193-.997 1.414-1.804.288-1.06 1.46-.757 2.124-1.45.72 1.486-.657 2.534-.863 3.924-1.34-.969-2.252 1.256-2.955 2-1.302 1.378-3.73.592-5.08-.277.2-.336.422-.655.67-.958-.753.178-1.264.719-1.053 1.531-1.256-.618-2.778-.457-3.924-1.34.695.734 5.41 2.576 3.423 3.349-.76.295-.278 1.256-.973 1.742-1.54 1.08-2.372.968-3.886-.208.12 1.327 1.025 1.805 2.261 1.652.838-.107 3.506-1.252 3.1-.027.427-.238.874-.43 1.34-.575-.518.846-1.406 1.92-2.297 2.392-.505.268-3.399.04-2.68.766-1.514-.247-3.595-.478-4.725.526-.771.689-2.378 1.867-1.879-.143-.489.433-.458 1.222-.624 1.792-.18.611-1.492.859-1.99 1.132-2.176 1.191-3.407 3.261-4.66 5.308a5.96 5.96 0 0 0 .192-1.914c-.854 3.713-4.306 2.519-7.331 3.424-3.434 1.03-5.62 4.11-7.695 6.817-.516-.691-.293-1.446.382-1.914-1.134.636-.247 2.709-1.531 2.967-.693.138-.404.611-.847 1.014-.787.715-1.017-.013-1.737.421-.766.47-4.231 4.72-4.689 2.106.424 2.157-1.378 2.454-2.85 3.231-.92.488-1.664.963-2.757.76-.465-.094-3.352 0-.9.412-2.908.58 2.078.222-.958 1.435 2.316-.226-1.533 1.688-1.148-.574-.256 2.585-1.055-.386-1.149-.957.027.853.334 1.664.352 2.516.027 1.06-2.258 2.684-.926.738-1.509 2.277-1.684 3.11-4.403 3.924.133.318.257.637.383.958-.607.377-1.245.44-1.914.192-.04.357 0 .707.093 1.053.356-.12.707-.24 1.053-.383-.237 1.182-1.39 1.68-2.489 1.63 1.189.652.606 2.418-.287 1.528.312 1.571-.528.95-1.723.67.733.243 1.307.69 1.723 1.34-.896.872-1.998.766-2.482 2.102-.344.952-1.887 3.354-1.106 4.304.342.334.318.634-.08.897-.938.634-.276.848-.106 1.896.323 2.04-.182 4.428-.194 6.497-.027 4.459 1.105 8.959 2.62 13.127.747 2.051.609 2.5.027 4.445-.576 1.92.067 3.68.266 5.59-.788-1.973-1.135-4.078-.297-6.095.963-2.31-1.332-1.772-1.426-3.667 0 3.504.459 6.847 1.393 10.22.508 1.831 1.793 5.588.424 7.295 3.135-.44-.797 12.868-1.443 14.319-1.057 2.371-2.56 7.347-4.874 8.65-.772.437-.462-1.418-1.431-.053-.691.972-1.744 0-2.67.345-1.55.562-3.884-.177-2.217-2.013a2.649 2.649 0 0 0 1.627 1.436c.403-1.045-1.382-2.107-1.804-2.891-.926-1.724-.247-3.605-2.254-4.81-1.187-.71-2.409-.812-2.546-2.446-.135-1.61.883-3.868-1.053-4.785 1.142-.387 1.717-1.558 2.682-2.201-.992.3-1.6 1.476-2.586 1.845-.827.308.04-4.225.575-4.811-.662.45-1.3.417-1.913-.093 1.378 1.57-.809 1.906-1.532 0-.664-1.752.12-4.776-1.722-5.934 1.494-.106 4.41-3.57 3.54-5.073-.324.217-.641.44-.956.67.093-.827-.436-1.482-1.149-1.818-.461.682-.482 1.243.23 1.741.63.441-.738 1.876-.997 2.184-.445-.719-.835-1.66-.67 0-1.213-3.91 2.643-7.62 3.545-11.232.322-1.287.314-2.44.053-3.744-.438-2.216-1.313-1.511-2.691-2.82-2.004-1.9-2.671-4.66-3.809-7.039-.552-1.154-1.801-2.418-3.036-2.825-1.801-.594-2.974 1.236-4.69 1.053.295 1.465-1.042 1.118-2.249 1.866-.47.291-2.596 1.687-2.345.43-1.353 1.02-3.129 1.341-4.785 1.341.997-1.293.178-2.99-1.149-3.637.637.08.541-.267-.287-1.053 1.3 1 1.715-.25.435-.38-1.932-.197-.559-1.547.522-1.821-.925.04-1.85.08-2.775.093.259.316.514.635.765.957-1.873.476-4.987-1.693-6.604-2.488.217.04 3.52.492 3.285-.12-.227-.593-1.31-.98-1.857-1.095-.98-.208-1.906.659-2.763.986-1.463.557-3.532.561-5.076.52a6.714 6.714 0 0 0 2.489-.765c-.811-.264-1.128-.907-.575-1.628a15.252 15.252 0 0 0-1.34 1.723c.583-2.647-1.059-.138-1.59.421-.793.839-1.737 1.27-2.908 1.207.722-.185 2.51-1.05 1.436-2.01-.804 2.176-3.72 3.34-5.838 2.487 2.125.798 1.13-4.423.765-5.455-.522 1.117-1.16 2.387-1.816 3.428-.5.794-1.88.331-2.66.763-.42.233-2.537.3-2.32-.026-.803 1.21-1.795-.798-2.679-.431.403.137-2.59.784-3.22.856-1.593.182-1.8 1.091-3.332 1.616-2.758.944-3.634-2.225-6.095-2.174-.87.013-3.799 2.501-2.334 3.308.964.53 2.636.458 3.63.067.814-.32 2.575-.141 3.12-.609-.338.441-2.411 1.325-2.155 2.011.652 1.734 1.385.755 2.19-.12 1.059-1.145 2.589.337 1.825 1.61-.65 1.084-2.83.197-2.436 2.05-1.296-.476-1.442.448-1.124 1.448.514 1.614 1.697 1.762 3.178 2.201.722.214 1.016 1.236 1.548 1.803.532.569-1.346 1.552-1.304 2.3-1.006-1.513-2.08-.04-2.967.67.54-.724 1.077-1.462 1.435-2.298-.904-.106-.653-.597-1.02-1.152-.224-.343-2.49-1.138-2.904-1.143.76-1.231-2.914-3.033-3.36-2.64-.249.223.699 1.65.611 2.158-.252 1.484-.726 2.793-2.325 3.161-.04-1.385.177-1.8-1.34-2.105-2.428-.488-1.365 1.348-3.092 1.713-2.711.573-5.628-2.567-4.086-5.157-.62 1.159-2.119.627-2.846-.094-.473-.465-.817-1.15-.6-1.826-.973-.153-2.787.68-1.53-.958-1.201.013-4.082 1.143-2.872 2.775-1.816-.304-3.4.612-5.345.107-2.287-.593-4.27-1.993-6.523-2.691 1.047-.921 1.507-1.787.957-3.158-.388 1.005-.598 3.461-1.868 3.756-1.187.275-3.41.544-4.543-.026.582-.856 1.733-1.49 1.627-2.68-1.328.666-2.596 2.05-1.531 3.541-3.527.464-7.155 1.618-10.05 3.733.85-1.108 2.256-1.83 3.541-2.297-1.011-.197-2.01.093-2.967.382.654-.826 1.384-1.833 1.053-2.967-.859.185-.989 1.004-1.723 1.34-.699.32-.756-.985-1.435-.191-.586.686.12 3.269 1.053 3.541-1.655 1.634-3.5 2.713-5.088 4.445-2.17 2.37-6.245 1.933-8.12 4.17l1.913-.575c-1.557.864-3.19 1.64-4.882 2.201.766-.704 1.787-1.033 2.489-1.818-.656.175-1.294.398-1.914.67 1.476-.915-1.766-.669-2.106-1.724.157.662 0 1.236-.478 1.724.324-2.846-3.512 1.668 0 1.53-1.19 1.128-3 1.62-3.829-.192.12 1.58-2.615 5.044-2.201 2.966-.702 1.502-2.489-.053-3.063 1.723.787.222 1.457.026 2.01-.575-.385 2.963-3.3 2.437-5.455 3.064.381.054.764.08 1.148.093-.316.717.231 1.186.448 1.796.262.74-1.163 2.35-1.518 2.909-.953 1.497-3.023 1.592-3.811-.106.448.692.416 1.36-.093 2.01.954.223 1.963.44 2.871-.094-.267 1.044-.803 2.794-1.857 3.32-.878.44-.053 2.673-.053 3.38 0 2.122-1.284 6.512.383 8.23.331-.274.65-.56.957-.86.251 1.015-2.22 1.968-2.911 2.065-1.365.192-2.242-2.16-3.807-2.16-1.28 0-2.98.294-4.16-.38-1.472-.84-3.145-2.76-4.675-3.016-3.03-.508-2.138-2.737-3.345-5.337-.884-1.906-1.01-3.548-.603-5.512.172-.829.647-1.664.42-2.488-.219-.783-1.688-1.418-2.113-2.672-1.14-3.027-2.986-5.508-3.8-9.536-.314-1.65-.139-3.334-.534-4.978-.196-.818-.712-1.433-.938-2.219-.275-.957-1.224-1.659-1.624-2.431-.835-1.611-2-2.376-2.876-3.91-.093-.163-2.78-.388-3.064-.43-3.136-.463-6.403-.786-9.163.947-2.876 1.807-3.122 6.336-6.934 8.092-1.513.696-3.313-1.077-4.427-1.83-1.005-.679-2.083-1.244-3.077-1.94-3.002-2.17-4.448-4.3-4.536-7.116.758-1.954.306-4.171.22-6.137.21-1.938-1.152-2.862-2.807-3.47-1.628-.6-2.944-3.877-4.158-5.955-4.733-2.573-1.655-5.223-5.458-5.53l-17.392.014-.238 5.074-26.875-.143L51.018 192.6c.365-.977 1.282-1.586 1.885-2.394-8.04.255-16.09 1.383-24.09 2.174-.092-2.25.72-4.422.75-6.646.04-2.713-1.867-3.748-3.39-5.677-1.561-1.98-1.568-.835-3.455-1.533-1.288-.474 1.495-3.859-2.23-3.727-2.283.08-3.165-.578-4.348-2.455-1.25-1.982-3.833-1.647-5.837-2.08-1.313-.282-5.47.523-4.954-2.126.324-1.666 2.116-3.212 2.188-4.92.066-1.637-2.05-1.357-.95-3.193.69-1.147-.789-2.539-1.617-3.433-.815-.883-.728-2.025-.788-3.203-.093-1.717-2.393-3.42-1.93-4.964.724-2.421 1.029-2.407 2.708-4.061 1.963-1.936.227-2.383-1.34-3.482-2.328-1.63-.338-3.172-.758-5.196-.249-1.196 1.107-3.888 2.474-3.956 0 .643-.693 1.283-.574 1.913.148.793 1.141 1.425 1.627 2.011.804-2.597-.743-5.52 2.392-6.892-2.848-3.026-2.473 2.747-4.245 2.37-1.136-.242-2.464-3.354-3.699-1.605.641-.777 1.53-3.149 2.202-1.053-.053-.887-.12-1.802-.76-2.492" class="landxx us" fill="#c83737" fill-rule="evenodd" stroke="#000" stroke-width=".144"/></svg>