<svg xmlns="http://www.w3.org/2000/svg" width="767.798" height="785.732" viewBox="0 0 203.14664 207.89146"><path class="landxx dz" d="M.072 112.607L.75 98.155c-.625-3.886 5.33-5.168 7.47-7.122 1.064-.969 2.806-2.948 4.44-2.847 1.436.093 1.755-2.057 3.63-2.42 3.057-.591 4.612 2.365 6.447-1.675.571-1.25 2.472-.727 3.562-.87 1.968-.26 3.948-.528 5.796-1.214 3.722-1.377 3.881-5.378 7.058-7.056 1.303-.692 3.018-.768 4.4-1.279 1.702-.63 2.818-2.536 4.573-2.888.638-.133 4.094-.41 2.685-2.232-.917-1.176-2.366-1.604-.492-3.318-2.685-.736-.265-3.546 1.702-3.382 2.605.218 5.011-.71 5.929-3.146 1.768-4.667 13.811-.533 17.254-1.416-3.948-1.778 2.871-3.95.731-5.6-1.01-.78-2.14-1.468-2.964-2.465-.944-1.152-.452-2.804-1.383-4.216-.983-1.476-.438-2.69-.16-4.16.267-1.377-.797-1.393-.65-2.728.146-1.249.132-2.753.132-3.996 0-1.669-1.076-3.007.572-4.302-1.715-.702-1.024-1.66-1.276-2.946-.333-1.712-3.297-2.267-3.948-4.029 3.19 0 4.546-.78 7.244-2.163 1.183-.602 1.928-.603 2.632-1.845.638-1.099 1.104-2.021 2.273-2.646.665-.354 1.941-1.38 2.632-.83.904.714 2.048-.526 2.646-1.076 1.568-1.427 3.708 2.164 5.304-1.117 2.14-4.396 9.504-6.298 13.824-6.795 3.071-.354 6.182-1.2 9.279-.99 2.313.155 3.895-2.79 5.902-1.657.877.493.678.217 1.01-.332 0-.12 3.536-.067 4.054-.274 2.991-1.187 6.009-.74 9.16-.827 2.631-.066 3.243.47 5.25 1.977 2.552 1.923 3.43-.922 5.65-1.193.704-.08 5.117-.278 4.878-1.584-.439-2.353 2.778-.904 3.536-.391 1.595 1.07 4.001 1.611 5.636.303.904-.72.32-1.655 2.02-1.228 1.224.303 2.167 1.196 3.497 1.126-1.117 1.849 1.648 1.201 2.525.973 1.755-.456 3.643-.027 5.33-.592.134 2.385-2.897 3.553-4.213 5.073 3.59.773.146 5.818.864 8.13 1.263 4.016.744 7.05-.133 11.012-.704 3.26-4.32 5.798-6.753 7.937-1.409 1.247-.718 4.503.133 5.885 1.33 2.234.718 4.67 3.47 5.714 3.762 1.425 2.658 6.183 5.689 8.448 1.396 1.051 3.057 1.812 4.24 3.132 1.609 1.785 1.848 4.71 2.22 6.976.771 4.679 2.991 9.878 2.991 14.596 0 1.273-2.685.785-.957 3.087 1.675 2.232 3.058 4.856 3.616 7.603 1.9 9.451-.904 9.393.532 14.24.678 2.31.704 4-.186 6.25-1.01 2.541-.133 4.917.465 7.451.824 3.833-.878 3.894-3.603 5.952-3.097 2.347 2.06 6.907 3.403 8.978 2.526 3.87 1.01 8.466 4.36 12.08 1.277 1.388 2.752-.276 4.135-.172 1.728.133 3.615 1.44 5.25 2.032 3.709 1.35 4.959 4.472 6.341 8.005.651 1.674 1.303 1.876-.505 2.905-18.876 12.032-37.912 24.073-53.983 39.726-.93 1.345-3.921 4.71-6.234 5.995-1.768.974-4.36 1.063-6.301 1.466-2.645.546-5.29 1.065-7.936 1.624-1.316.28-12.92 4.267-12.429.161.173-1.448 1.21-2.008 1.077-3.612 0-.615.133-3.848-.518-4.168-1.955-.976-4.387-1.423-6.54-1.836-1.064-.205-2.486-2.903-3.297-2.704-4.64 1.14-5.37-3.492-6.208-4.184-.997-.82-2.699-.894-3.602-1.58-1.01-.773-.133-2.693-.745-3.73-.77-1.304-2.1-2.438-3.363-3.178-2.14-1.268-4.147-2.774-6.101-4.299-4.879-3.787-9.678-7.687-14.53-11.504-18.73-14.723-37.433-29.392-57.026-42.957-4.68-3.244-9.372-6.44-14.09-9.614" fill="#c83737" fill-rule="evenodd" stroke="#000" stroke-width=".144"><title>Algeria</title></path></svg>