<svg xmlns="http://www.w3.org/2000/svg" width="118.052" height="269.03" viewBox="0 0 31.234472 71.18084"><path class="landxx bj" d="M.166 19.4c.452-1.046.558-2.616 1.289-3.416.691-.75.904-.625 1.542-1.28 1.316-1.357 3.403-5.184 5.158-3.38.531.558 5.955-.786 7.005-2.628.678-1.182 1.582-2.77 1.555-4.18 0-.852-1.09-2.828.28-3.118.877-.182 2.086.053 2.472-.504 1.37-2.031 3.124.2 4.147 1.359.731.825 1.183 1.516 1.888 2.359.85.992 2.02 1.98 2.858 3.157.465.655-.572 2.29-.718 2.94-.345 1.493 1.064 2.727 1.808 3.851.85 1.309.16 2.675.718 3.886.664 1.452 1.515 2.547.585 4.109-.492.828-1.569.053-1.901 1.002-.505 1.444 1.515 2.469-.253 4.453-.797.894-1.887 1.137-2.472 2.175-.545.968-.731 1.934-1.529 2.92-1.529 1.89.81 4.486-2.446 5.288-1.09.269-1.741-.223-1.94 1.039-.187 1.173-.825 2.3-.758 3.484.16 2.903.133 5.806-.133 8.685-.133 1.272 1.196 3.807.983 5.61-.186 1.587-.212 2.977-.452 4.367-.358 2.059.413 2.893.266 3.985-.172 1.223-.943 3.044-.797 3.888-1.33.027-3.616.315-4.919.574-2.033.404-4.067.774-6.114 1.053a2.497 2.497 0 0 1 1.714-.67c-.133-1.033-.81-2.136-1.316-3.01-.784-1.362-.983-3.627-1.21-5.152.2-.013 1.29-.332 1.144-3.12-.253-5.074 0-10.234 0-15.349 0-2.893-.133-5.092-1.741-7.553-1.53-2.332-1.05-5.046-1.13-7.64 0-2.032-3.11-3.008-4.613-4.413-1.41-1.313-1.05-3.12-.944-4.772" fill="#c83737" fill-rule="evenodd" stroke="#000" stroke-width=".144"><title>Benin</title></path></svg>