<svg xmlns="http://www.w3.org/2000/svg" width="353.756" height="398.114" viewBox="0 0 93.597923 105.33424"><path class="landxx bw" d="M.072 80.642l1.13-31.877h9.066l1.276-42.33C14.748 5.66 22.909 5.18 27.562 3.57c1.449-.501 4.998-1.253 6.447-.421 1.967 1.126 2.34 3.47 3.297 5.314 2.552-2.016 4.56-6.145 7.577-6.216 1.13-.026 1.01.635 1.834.749 1.077.147 1.702-1.319 2.5-1.796 2.591-1.545 5.29-1.327 4.838-.39-.133.264 0 1.74.133 2.054a20.449 20.449 0 0 0 2.805 4.893c1.116 1.455 2.02 2.235 2.844 4.74.598 1.789.824 2.167 1.343 3.866 1.077 3.567 3.669 6.615 6.912 8.286 3.443 1.769 6.58 1.406 5.41 6.875 3.138-.733 5.583-.366 4.228 3.798-.466 1.433-.306 2.521.518 3.768.89 1.353 1.515 4.576 2.951 5.02 2.858.89 5.344.741 8.414 1.786 2.274.775.306 1.845 1.01 3.012.532.902 2.566.616 2.885 1.908-3.576.443-3.004 1.202-4.333 3.05-1.476 2.064-5.504 1.036-7.258 2.918-1.569 1.697-2.885 4.536-5.012 6.208-.239.186-1.063.952-1.927 1.56-1.436 1.01-3.018 1.38-4.12 2.618-1.45 1.653-1.742 2.136-1.995 4.62-.306 3.049-2.087 3.741-4.254 6.319-1.262 1.514-3.363 1.934-5.49 2.281-1.542.25-.624.844-.93 2.333-.386 1.958-1.33 3.733-1.967 5.61-.944 2.786-2.42 3.757-5.278 3.51-2.579-.223-2.273 1.631-5.596.901-1.33-.29-4.48-1.766-5.61-1.842-1.648-.106-2.725-1.136-3.669-2.325-1.422-1.768-5.264-3.063-7.257-.496-1.822 2.348-1.01 4.967-2.699 7.38-.824 1.19-2.007 2.008-3.124 2.776-1.382.948-1.781 2.478-2.964 3.576-.877.819-1.622.464-2.606.863-.319.279-.358.603-.279 1.067-.385 1.06-1.98 1.353-2.91 1.293-1.476-.093-2.3-.462-3.723-.574-1.29-.106-2.446-.609-4.094.76-2.406-4.595 2.619-6.675.864-12.92-.665-2.369-1.608-4.998-2.831-7.138-1.064-1.87-3.138-2.8-4.36-4.533" fill="#c83737" fill-rule="evenodd" stroke="#000" stroke-width=".144"><title>Botswana</title></path></svg>