<?xml version="1.0" encoding="UTF-8" standalone="no"?>
<!-- Created with Inkscape (http://www.inkscape.org/) -->

<svg
   xmlns:dc="http://purl.org/dc/elements/1.1/"
   xmlns:cc="http://creativecommons.org/ns#"
   xmlns:rdf="http://www.w3.org/1999/02/22-rdf-syntax-ns#"
   xmlns:svg="http://www.w3.org/2000/svg"
   xmlns="http://www.w3.org/2000/svg"
   xmlns:sodipodi="http://sodipodi.sourceforge.net/DTD/sodipodi-0.dtd"
   xmlns:inkscape="http://www.inkscape.org/namespaces/inkscape"
   width="79.997551mm"
   height="65.59079mm"
   viewBox="0 0 79.997551 65.59079"
   version="1.1"
   id="svg10692"
   inkscape:version="0.92.0 r15299"
   sodipodi:docname="burkinafaso.svg">
  <defs
     id="defs10686" />
  <sodipodi:namedview
     id="base"
     pagecolor="#ffffff"
     bordercolor="#666666"
     borderopacity="1.0"
     inkscape:pageopacity="0.0"
     inkscape:pageshadow="2"
     inkscape:zoom="0.35"
     inkscape:cx="151.17648"
     inkscape:cy="123.95107"
     inkscape:document-units="mm"
     inkscape:current-layer="layer1"
     showgrid="false"
     fit-margin-top="0"
     fit-margin-left="0"
     fit-margin-right="0"
     fit-margin-bottom="0"
     inkscape:window-width="1920"
     inkscape:window-height="1017"
     inkscape:window-x="1912"
     inkscape:window-y="-8"
     inkscape:window-maximized="1" />
  <metadata
     id="metadata10689">
    <rdf:RDF>
      <cc:Work
         rdf:about="">
        <dc:format>image/svg+xml</dc:format>
        <dc:type
           rdf:resource="http://purl.org/dc/dcmitype/StillImage" />
        <dc:title></dc:title>
      </cc:Work>
    </rdf:RDF>
  </metadata>
  <g
     inkscape:label="Layer 1"
     inkscape:groupmode="layer"
     id="layer1"
     transform="translate(57.007706,-116.03793)">
    <path
       inkscape:connector-curvature="0"
       id="bf"
       class="landxx bf"
       d="m -56.940242,169.57275 c 0.704511,-1.83841 1.342573,-3.96794 0.917198,-5.93397 -0.465244,-2.14946 0.83746,-0.86537 1.661629,-2.47647 0.505138,-0.99696 1.621734,-4.03042 0.438664,-4.94098 -0.784275,-0.61282 0.784275,-1.9966 -1.581864,-2.63067 1.10333,0.0532 1.807841,-0.80954 2.645301,-1.32532 1.369177,-0.84011 3.336522,-0.15154 4.758859,-1.01692 1.728103,-1.05944 3.828371,-5.17359 2.299691,-6.98144 -0.731116,-0.86272 0.33232,-1.4383 1.289413,-1.32663 1.448941,0.16749 1.329284,-1.1432 1.116596,-2.2864 -0.146213,-0.74706 -1.621734,-1.85701 -0.33232,-2.30499 0.983696,-0.34561 2.339559,-3.14112 2.964331,-3.99718 -0.132923,1.68288 3.894845,3.69277 5.263998,3.82969 -0.319031,-1.59647 0.717826,-1.38512 2.007239,-1.33992 -0.172793,-1.45958 0.558299,-3.44421 -0.199397,-4.7868 1.076726,0.20604 2.193347,0.28181 3.16373,0.86138 1.448916,-2.17738 1.276122,-6.95751 5.038021,-7.34701 1.861,-0.19141 4.160692,2.75299 4.532881,-0.53836 0.186108,-1.76529 2.140165,-1.53798 3.349837,-2.1654 1.568551,-0.81222 2.764936,-1.99794 4.39996,-2.77292 1.954054,-0.93051 5.5298681,-5.75585 8.2682001,-3.28733 0.518427,0.4679 1.79455,-0.62078 2.632012,-0.36689 1.143198,0.34693 2.29966497,0.74441 3.37639,1.26549 1.661628,0.79757 -1.39575703,5.01409 1.156491,6.39788 1.568574,0.8534 0.332319,3.51467 1.5021,4.69905 0.664666,0.66864 2.020531,2.05775 1.794553,2.94041 1.249542,0.49581 4.5329079,2.70245 6.6331749,4.33348 -0.943803,0.46393 -1.807842,0.44001 -2.6718809,-0.19273 -1.302703,3.30727 3.0573849,7.14362 5.6893719,8.39448 2.113585,1.00363 3.296653,-1.51274 4.798753,-1.07539 1.236256,0.3589 1.475524,2.3143 1.954081,3.30462 -3.363127,1.15649 -0.558321,3.08262 0.677931,5.3956 1.329283,2.46319 -1.861,6.04032 -4.280326,6.19717 -0.598191,0.0399 -2.911147,0.70984 -3.34981,0.36423 -1.183095,-0.94911 -1.448943,-0.46524 -2.445906,0.42537 -1.954078,1.75734 -3.0573849,4.06499 -5.5564489,4.42389 -3.85495,0.55034 -4.546195,-0.67129 -6.81928103,-1.09532 -1.103307,-0.20339 -2.12687397,-0.56628 -3.27007497,-0.58225 -0.996961,-0.0134 -3.615682,2.58282 -4.360087,2.25848 -1.794529,-0.78695 2.180055,-0.85739 -11.3920351,-0.81353 -4.506304,0.0134 -7.164896,0.32037 -10.793868,-0.0134 0.438663,2.07368 -1.555285,3.14376 -0.996963,4.40261 0.770985,1.70948 1.143177,3.06403 1.448916,4.8506 0.265872,1.51806 0.412086,3.41363 0.225978,5.12043 -0.159504,1.49546 1.010277,3.298 0,4.09821 -1.674894,-1.24952 -3.270049,-4.25107 -4.399959,-6.02834 -0.957092,1.42633 -4.825333,-0.28181 -6.314144,0.28713 -1.635024,0.62212 -5.051311,1.12326 -5.077891,3.44554 -1.036856,-0.17681 -4.65254,-1.69354 -5.290602,-2.47782 -0.584878,-0.73111 -1.20965,-1.10464 -1.329283,-1.69351 -0.212687,-1.14054 -1.262834,-3.32323 -2.087003,-3.77253 -1.395757,-0.7577 -2.937728,0.3496 -3.442866,-1.72277"
       style="fill:#c83737;fill-opacity:1;fill-rule:evenodd;stroke:#000000;stroke-width:0.14449541;stroke-miterlimit:4;stroke-dasharray:none;stroke-opacity:1">
      <title
         id="title25">Burkina Faso</title>
    </path>
  </g>
</svg>
