<?xml version="1.0" encoding="UTF-8" standalone="no"?>
<!-- Created with Inkscape (http://www.inkscape.org/) -->

<svg
   xmlns:dc="http://purl.org/dc/elements/1.1/"
   xmlns:cc="http://creativecommons.org/ns#"
   xmlns:rdf="http://www.w3.org/1999/02/22-rdf-syntax-ns#"
   xmlns:svg="http://www.w3.org/2000/svg"
   xmlns="http://www.w3.org/2000/svg"
   xmlns:sodipodi="http://sodipodi.sourceforge.net/DTD/sodipodi-0.dtd"
   xmlns:inkscape="http://www.inkscape.org/namespaces/inkscape"
   width="78.084076mm"
   height="131.67621mm"
   viewBox="0 0 78.084076 131.67621"
   version="1.1"
   id="svg19248"
   inkscape:version="0.92.0 r15299"
   sodipodi:docname="cameroon.svg">
  <defs
     id="defs19242" />
  <sodipodi:namedview
     id="base"
     pagecolor="#ffffff"
     bordercolor="#666666"
     borderopacity="1.0"
     inkscape:pageopacity="0.0"
     inkscape:pageshadow="2"
     inkscape:zoom="0.35"
     inkscape:cx="-479.58241"
     inkscape:cy="171.69408"
     inkscape:document-units="mm"
     inkscape:current-layer="layer1"
     showgrid="false"
     fit-margin-top="0"
     fit-margin-left="0"
     fit-margin-right="0"
     fit-margin-bottom="0"
     inkscape:window-width="1920"
     inkscape:window-height="1017"
     inkscape:window-x="1912"
     inkscape:window-y="-8"
     inkscape:window-maximized="1" />
  <metadata
     id="metadata19245">
    <rdf:RDF>
      <cc:Work
         rdf:about="">
        <dc:format>image/svg+xml</dc:format>
        <dc:type
           rdf:resource="http://purl.org/dc/dcmitype/StillImage" />
        <dc:title></dc:title>
      </cc:Work>
    </rdf:RDF>
  </metadata>
  <g
     inkscape:label="Layer 1"
     inkscape:groupmode="layer"
     id="layer1"
     transform="translate(-109.88058,-62.584516)">
    <path
       inkscape:connector-curvature="0"
       id="cm"
       class="landxx cm"
       d="m 110.52941,157.79367 c 1.24955,-1.07008 2.03382,-2.6493 2.08698,-4.23781 0,-1.48482 1.99395,-4.35741 1.44894,-5.37964 -0.5583,-1.04084 -0.78427,-1.4569 0.7577,-3.18765 1.52868,-1.71878 3.03078,-3.46813 4.71899,-5.03802 0.97038,-0.9026 2.19334,-1.28808 2.69846,-2.53896 0.42537,-1.07804 2.11358,-3.93737 3.30994,-4.27633 1.31602,-0.37353 2.087,1.37716 3.70874,1.02356 1.27612,-0.2805 1.35589,-2.06174 1.64834,-3.06802 0.23926,1.02357 2.99091,3.81907 3.96129,4.07961 0.98367,0.2592 1.24952,1.63637 0.86404,2.68252 -0.27916,0.75502 1.10331,1.88758 2.59212,1.53798 0.45195,-0.77364 2.92444,-3.06534 2.31298,-4.44647 -0.42538,-0.95977 1.58184,-2.23855 2.27309,-2.7942 1.15648,-0.92252 0,-2.32627 0.62477,-3.56782 1.22293,-2.43659 2.95101,-4.6645 3.78847,-7.71655 0.34561,-1.29472 -0.13292,-2.65725 0.25256,-3.87888 0.27916,-0.94645 1.78126,-1.27213 1.71481,-2.84601 -0.45198,-0.13293 3.33653,0.37618 4.10751,-3.34052 0.17282,-0.8388 1.62174,-4.98617 0.1994,-5.26399 1.63502,-0.83216 4.04106,-1.89026 4.32019,-3.75526 0.17282,-1.21632 0.13293,-2.223914 0.13293,-3.441548 0,-1.26814 1.27612,-1.15783 1.84773,-2.027174 0.69122,-1.05813 0.61146,-2.55624 1.05015,-3.884208 0.43866,-1.38512 0.85075,-2.715744 1.02354,-3.554517 0.34561,-1.632371 1.27613,-4.691095 2.97762,-5.380978 0.89062,-0.360239 6.23438,-0.32037 6.91234,-3.343192 0.1994,-0.850749 -0.69125,-1.512738 -0.55832,-2.503055 0.21269,-1.714788 0.33234,-2.694469 0.62477,-3.994519 0.33232,-1.522036 -2.4592,-2.834062 -3.34981,-2.550933 -0.74441,0.272516 -1.7015,-1.296059 -2.04711,-3.258098 -0.27916,-3.11719 -0.13293,-4.285632 -0.5583,-5.182895 1.15647,0 2.95102,-0.106344 3.85495,0.899916 1.32928,1.488811 0,2.978961 2.89786,3.793808 1.52868,0.41873 1.7015,3.961295 1.79455,5.185573 0.13292,1.222964 -0.14624,0.196744 1.1166,1.39841 2.53895,2.415332 -0.1994,9.547001 0.1595,12.710731 0.49185,4.394629 2.56554,9.411399 6.54015,11.61536 -1.60845,1.379812 -3.62898,0.728461 -4.93168,0.07976 -1.3426,0.119631 -1.63505,0.334973 -3.05739,0.388157 -2.95104,0.119634 -5.96853,-1.805189 -7.47063,0.636722 -1.82113,2.96299 -1.59516,3.47609 0.82417,6.24901 2.43261,2.77822 5.09118,5.18956 7.76306,7.72584 0.81088,0.76568 1.87432,1.93946 2.40603,2.94041 1.05015,1.94741 1.91419,5.92467 3.07068,7.82024 1.15646,1.92747 -1.18307,3.2807 -1.76797,4.06233 -0.93052,1.24421 -2.20664,4.12479 -3.04408,6.14132 -0.27915,0.66864 -0.9438,1.70416 -1.20967,2.38343 -0.50511,1.25485 -1.27612,2.25449 -1.861,3.47743 -0.81088,1.69753 -4.95828,3.36712 -2.57883,4.32686 1.75466,0.70186 1.60845,2.48577 1.36918,4.8054 -0.13295,1.04881 -0.17282,1.99127 -0.75772,2.89121 0.13295,-0.10634 1.27612,1.5566 1.28944,1.67624 0.30571,1.95673 -0.17282,4.95295 1.12988,6.52417 0.81088,0.97039 1.88761,1.33462 2.24651,2.84337 0.27916,1.12458 0.7577,2.63598 1.79455,3.3671 -3.28336,0.0798 4.10751,8.78531 4.73228,9.28777 1.59516,1.27481 3.82837,2.02851 4.10753,3.18235 0.21269,0.86535 0.38548,1.33992 0.42538,2.18137 0.13292,2.12953 0.58488,4.34278 1.06344,6.40321 -2.49909,1.1671 0.26584,5.32115 -1.32931,6.50821 -1.42234,-1.39975 -3.0042,-2.65859 -4.93168,-3.27538 -0.83746,-0.26852 -3.33652,-1.28277 -4.01448,-0.82814 -0.87733,0.58488 -2.6054,0.48387 -3.15041,-0.82283 0,-0.0665 -2.92444,-0.61681 -3.21689,-0.72846 -0.89062,-0.35359 -3.44287,-0.0798 -4.62594,-0.1542 -2.14016,-0.11963 -4.32022,-0.0931 -6.46038,-0.39879 -0.3589,-0.0532 -1.42234,0.28712 -1.83442,0.0798 -0.81088,-0.3948 0.3589,-1.20568 -1.1432,-1.05679 -1.96735,0.19541 -3.69543,0.51578 -5.70267,0.0798 -2.36614,-0.50648 -4.3069,-0.10635 -6.67307,-0.18212 -1.55526,-0.0532 -4.32019,-0.92786 -5.79571,-0.11963 -0.41208,0.23128 -0.25256,1.46619 -0.70451,1.46619 -1.46223,0 -2.92446,0 -4.39996,0 -2.03384,0 -4.06766,0.0798 -6.10148,0.11964 -4.37336,0.0931 -5.31716,-2.30631 -4.39996,-6.36599 0.53172,-2.31296 1.32931,-4.82134 0.13295,-7.05987 -0.58491,-1.05547 -2.61872,-2.84204 -0.47856,-3.54125 -1.20965,0.69125 -3.53592,-0.44665 -2.14016,-1.83972 0.7444,-0.73377 2.37943,-2.00724 0.22597,-2.08436 0.41209,-0.46258 0.63806,-1.00494 0.66464,-1.62703 -0.67793,1.63767 -1.39575,0.33497 -2.48577,0.38282 0.3988,0.54236 0.69125,0.93051 0,0.57427 0,0.52373 0,1.03418 -0.18611,1.53133 -0.87733,-0.0266 -1.3027,-0.71249 -1.05012,-1.53133 -0.75772,1.38378 -2.93775,-0.35094 -3.21691,-1.36918 -0.43867,-1.60978 -0.53172,-4.36275 -1.6749,-5.6176 -1.31601,1.61908 -1.06343,-0.28714 -1.91418,-0.28714 0.14621,0.6301 0.25255,1.26682 0.29245,1.91286 -2.72507,0.34029 -1.23625,-2.20663 -0.95709,-3.63695"
       style="fill:#c83737;fill-opacity:1;fill-rule:evenodd;stroke:#000000;stroke-width:0.14449541;stroke-miterlimit:4;stroke-dasharray:none;stroke-opacity:1">
      <title
         id="title278">Cameroon</title>
    </path>
  </g>
</svg>
