<svg xmlns="http://www.w3.org/2000/svg" width="295.121" height="497.674" viewBox="0 0 78.084076 131.67621"><path class="landxx cm" d="M.649 95.21c1.25-1.07 2.034-2.65 2.087-4.239 0-1.484 1.994-4.357 1.449-5.38-.559-1.04-.785-1.456.757-3.187 1.53-1.719 3.031-3.468 4.72-5.038.97-.903 2.193-1.288 2.698-2.539.425-1.078 2.113-3.937 3.31-4.276 1.316-.374 2.087 1.377 3.709 1.023 1.276-.28 1.355-2.061 1.648-3.068.24 1.024 2.99 3.82 3.961 4.08.984.26 1.25 1.636.864 2.682-.279.755 1.104 1.888 2.592 1.538.452-.773 2.925-3.065 2.313-4.446-.425-.96 1.582-2.239 2.273-2.794 1.157-.923 0-2.327.625-3.568 1.223-2.437 2.951-4.665 3.789-7.717.345-1.294-.133-2.657.252-3.879.28-.946 1.781-1.272 1.715-2.846-.452-.132 3.337.377 4.108-3.34.172-.839 1.621-4.986.199-5.264 1.635-.832 4.041-1.89 4.32-3.755.173-1.217.133-2.224.133-3.442 0-1.268 1.276-1.158 1.848-2.027.691-1.058.611-2.556 1.05-3.884.439-1.385.85-2.716 1.023-3.555.346-1.632 1.277-4.69 2.978-5.38.89-.361 6.234-.321 6.912-3.344.2-.85-.69-1.513-.558-2.503.213-1.715.332-2.694.625-3.994.332-1.523-2.46-2.835-3.35-2.551-.744.272-1.701-1.296-2.047-3.259-.28-3.117-.133-4.285-.558-5.182 1.156 0 2.95-.107 3.855.9 1.329 1.488 0 2.978 2.897 3.793 1.53.419 1.702 3.962 1.795 5.186.133 1.223-.146.197 1.117 1.398 2.539 2.416-.2 9.547.16 12.711.491 4.395 2.565 9.411 6.54 11.615-1.61 1.38-3.63.729-4.932.08-1.343.12-1.635.335-3.058.388-2.95.12-5.968-1.805-7.47.637-1.822 2.963-1.596 3.476.824 6.249 2.432 2.778 5.09 5.19 7.763 7.726.81.766 1.874 1.94 2.406 2.94 1.05 1.948 1.914 5.925 3.07 7.82 1.157 1.928-1.183 3.281-1.767 4.063-.931 1.244-2.207 4.125-3.045 6.141-.279.669-.943 1.704-1.21 2.384-.504 1.254-1.275 2.254-1.86 3.477-.811 1.698-4.958 3.367-2.579 4.327 1.755.702 1.608 2.486 1.37 4.805-.134 1.05-.174 1.992-.759 2.891.133-.106 1.277 1.557 1.29 1.677.306 1.956-.173 4.953 1.13 6.524.81.97 1.887 1.335 2.246 2.843.28 1.125.758 2.636 1.795 3.367-3.284.08 4.107 8.786 4.732 9.288 1.595 1.275 3.828 2.029 4.108 3.182.212.866.385 1.34.425 2.182.133 2.13.585 4.343 1.063 6.403-2.499 1.167.266 5.321-1.329 6.508-1.422-1.4-3.004-2.658-4.932-3.275-.837-.269-3.336-1.283-4.014-.828-.877.585-2.605.484-3.15-.823 0-.067-2.925-.617-3.217-.729-.89-.353-3.443-.08-4.626-.154-2.14-.12-4.32-.093-6.46-.399-.36-.053-1.423.288-1.835.08-.81-.395.359-1.205-1.143-1.057-1.968.196-3.696.516-5.703.08-2.366-.506-4.307-.106-6.673-.182-1.555-.053-4.32-.928-5.796-.12-.412.232-.252 1.467-.704 1.467h-4.4c-2.034 0-4.068.08-6.102.12-4.373.092-5.317-2.307-4.4-6.367.532-2.313 1.33-4.821.133-7.06-.585-1.055-2.618-2.842-.478-3.54-1.21.69-3.536-.447-2.14-1.84.744-.734 2.379-2.008.226-2.085a2.546 2.546 0 0 0 .664-1.627c-.678 1.638-1.396.335-2.486.383.4.542.692.93 0 .574 0 .524 0 1.034-.186 1.532-.877-.027-1.302-.713-1.05-1.532-.757 1.384-2.938-.35-3.217-1.369-.438-1.61-.531-4.363-1.675-5.618-1.316 1.62-1.063-.287-1.914-.287.146.63.253 1.267.293 1.913-2.725.34-1.237-2.206-.957-3.637" fill="#c83737" fill-rule="evenodd" stroke="#000" stroke-width=".144"><title>Cameroon</title></path></svg>