<?xml version="1.0" encoding="UTF-8" standalone="no"?>
<!-- Created with Inkscape (http://www.inkscape.org/) -->

<svg
   xmlns:dc="http://purl.org/dc/elements/1.1/"
   xmlns:cc="http://creativecommons.org/ns#"
   xmlns:rdf="http://www.w3.org/1999/02/22-rdf-syntax-ns#"
   xmlns:svg="http://www.w3.org/2000/svg"
   xmlns="http://www.w3.org/2000/svg"
   xmlns:sodipodi="http://sodipodi.sourceforge.net/DTD/sodipodi-0.dtd"
   xmlns:inkscape="http://www.inkscape.org/namespaces/inkscape"
   width="132.51721mm"
   height="101.39352mm"
   viewBox="0 0 132.51721 101.39352"
   version="1.1"
   id="svg18110"
   inkscape:version="0.92.0 r15299"
   sodipodi:docname="car.svg">
  <defs
     id="defs18104" />
  <sodipodi:namedview
     id="base"
     pagecolor="#ffffff"
     bordercolor="#666666"
     borderopacity="1.0"
     inkscape:pageopacity="0.0"
     inkscape:pageshadow="2"
     inkscape:zoom="0.35"
     inkscape:cx="250.42622"
     inkscape:cy="191.60975"
     inkscape:document-units="mm"
     inkscape:current-layer="layer1"
     showgrid="false"
     fit-margin-top="0"
     fit-margin-left="0"
     fit-margin-right="0"
     fit-margin-bottom="0"
     inkscape:window-width="1920"
     inkscape:window-height="1017"
     inkscape:window-x="1912"
     inkscape:window-y="-8"
     inkscape:window-maximized="1" />
  <metadata
     id="metadata18107">
    <rdf:RDF>
      <cc:Work
         rdf:about="">
        <dc:format>image/svg+xml</dc:format>
        <dc:type
           rdf:resource="http://purl.org/dc/dcmitype/StillImage" />
        <dc:title></dc:title>
      </cc:Work>
    </rdf:RDF>
  </metadata>
  <g
     inkscape:label="Layer 1"
     inkscape:groupmode="layer"
     id="layer1"
     transform="translate(83.267533,-98.136564)">
    <path
       inkscape:connector-curvature="0"
       id="cf"
       class="landxx cf"
       d="m 10.579064,116.44175 c -0.146238,2.72638 -2.5256668,3.09591 -2.1667648,5.10181 0.345609,-0.11963 0.704535,-0.25389 1.050144,-0.38151 0.279162,1.06478 -0.305739,2.02053 -0.664641,2.96567 2.1268738,0.38682 4.6259348,-0.16218 6.5933048,0.91988 0.505114,0.16748 0.744406,0.51709 0.744406,1.16046 -0.571612,2.53496 -0.132948,3.3804 1.887584,3.71937 1.3293,0.32302 3.17702,0.0798 4.32022,0.94512 1.32928,1.00494 2.00721,2.11623 3.44286,3.185 2.24651,1.6656 0.51843,2.9537 0.49183,3.79113 0,1.40907 1.95408,2.42198 3.04409,3.06537 1.16978,0.69387 2.44591,1.46221 3.65556,2.08299 2.36614,1.20833 1.64831,1.86102 2.51238,3.23816 0.61145,0.97306 3.24346,1.46622 2.52564,2.90983 -0.97038,1.92215 -0.1728,2.25449 1.01027,3.3578 1.07673,1.01025 -0.13294,1.85701 1.71479,3.07333 1.18307,0.77498 2.36614,1.16844 3.65556,1.83442 2.08697,1.07142 2.87127,2.33557 2.77822,4.60734 -0.13292,2.12154 1.35589,3.28602 2.00724,5.08188 -1.67492,-1.82113 -3.90813,-2.56023 -5.39694,-1.01424 -0.62478,0.65666 -1.92748,0.4945 -2.69847,0.41605 -0.37221,-0.13292 -0.7444,-0.10634 -1.09001,0.0798 -0.86404,0.43601 -1.16978,-0.37752 -1.83443,-0.63672 -1.3293,-0.51843 -2.41932,-1.59516 -3.82837,-1.19239 -2.83141,0.80423 -2.92446,-1.07274 -4.71899,-1.35056 -1.15649,-0.17679 -1.95408,0.56229 -1.7281,1.7015 0.35893,1.86499 -1.83442,2.1508 -3.13712,2.56023 -1.30271,0.40675 -3.08397,0.9983 -4.28033,0.11963 -0.65135,-0.47191 -2.0604,-2.50305 -2.4459,-1.2336 -0.51843,1.74139 -4.08093,2.89788 -5.596321,3.17171 -2.7516448,0.50115 -4.5195928,3.09061 -5.6893718,1.81714 -1.316019,-1.43962 -2.791539,-3.51997 -4.984861,-0.9624 -0.664641,0.77763 -0.598194,1.95007 -1.10330699,2.80082 -0.704535,1.16179 -0.850749,2.73835 -2.10029201,3.59041 -1.728078,1.1884 -5.822296,-1.40904 -7.975775,-1.32796 -1.2628082,0.0399 -1.5153902,0.41873 -2.9909102,-0.0665 -1.515391,-0.5038 -2.033821,0.23128 -3.083941,-1.06877 -1.050148,-1.30536 -3.256783,-0.19672 -4.745596,-0.46259 -1.84771,-0.33366 -1.887604,-2.89121 -2.924437,-3.89748 -1.794552,-1.75202 -4.519618,-2.96433 -6.247694,-4.01581 -2.432589,-1.48217 -5.90206,1.58186 -7.138291,3.7074 -0.704535,1.20967 -1.701496,2.41798 -2.193346,3.73001 -0.372189,1.02488 -1.847712,0.84941 -2.233215,1.43297 -0.611484,0.9345 0.943803,2.85533 0.837459,3.93871 -0.172818,1.57122 -0.319032,2.25446 -0.252558,5.78773 -1.316017,-2.19865 -4.66583,-0.29776 -6.925625,-0.63407 -1.023567,-0.15021 -2.764936,-0.97038 -3.695449,-1.4024 -1.807842,-0.83213 -3.296653,0.86538 -5.131075,1.22827 -2.69846,0.53437 -4.865203,-0.39746 -5.463395,2.95104 -0.319031,1.80782 -0.132923,3.77653 -0.465244,5.52719 -0.438664,2.3502 -2.020529,4.61798 -2.831409,6.87778 -0.598167,-2.63201 -1.076726,-4.97688 -1.276123,-7.65275 -0.186083,-2.68651 -3.030782,-2.54561 -4.439829,-4.11415 -0.691246,-0.77233 -7.909299,-9.20405 -4.612646,-9.2878 -1.701498,-1.20566 -1.355888,-3.85627 -3.110545,-5.22545 -2.273111,-1.77461 -1.94079,-4.32418 -2.03382,-6.99207 0,-0.99699 -1.329307,-1.67891 -1.289437,-2.34755 0,-0.98632 0.624772,-1.99395 0.691246,-3.03345 0,-1.13522 0,-2.36081 -0.252557,-3.46546 -0.292452,-1.03819 -1.568575,-0.55433 -1.95408,-1.91019 0.651352,-1.05813 1.635049,-1.76133 2.565537,-2.53631 1.462231,-1.20166 1.608445,-2.58282 2.538957,-4.09288 1.608445,-2.56821 2.698461,-6.41384 4.506303,-8.85843 2.219927,-3.03212 2.578827,-0.95841 5.436815,-1.79187 1.502101,-0.4347 2.671881,-0.7484 4.120823,-1.21233 1.435627,-0.4586 1.050122,-2.01919 2.565537,-2.56288 0.41206,1.60712 1.674894,2.52432 2.578827,3.82837 0.797565,-1.59382 3.25676,-2.37013 4.014455,-2.94172 2.36614,-1.80254 6.088166,-2.52832 8.919575,-2.53497 2.485774,0 4.918387,0.69787 6.141326,-1.59649 0.850749,-1.61908 4.33351,-4.49168 4.160692,-6.03632 -0.132924,-0.95841 -2.246506,-0.7125 -2.33956,-1.94077 -0.146214,-1.88758 5.636213,-1.93677 7.151603,-1.91153 4.732282,0.0798 9.929829,-1.77859 13.013796,-5.61095 1.635025,-2.01654 2.632009,-4.18194 4.732279,-5.73988 1.063435,-0.78827 4.0277682,-3.47344 3.4428672,-4.70704 -0.7444082,-1.55394 0.478557,-3.10789 2.33956,-3.5585 2.126871,-0.51045 3.761896,-3.170379 6.234403,-3.228869 2.977597,-0.06645 3.668845,1.866329 4.984838,3.464139 2.073714,2.51238 4.320219,4.38268 5.543158,7.07053 1.2362548,2.75162 1.3957588,5.0008 1.1166208,7.70856 z"
       style="fill:#c83737;fill-opacity:1;fill-rule:evenodd;stroke:#000000;stroke-width:0.14449541;stroke-miterlimit:4;stroke-dasharray:none;stroke-opacity:1">
      <title
         id="title1988">Central African Republic</title>
    </path>
  </g>
</svg>
