<svg xmlns="http://www.w3.org/2000/svg" width="400.316" height="690.956" viewBox="0 0 105.91685 182.81546"><path class="landxx td" d="M.11 103.492c.36-.895 1.237-.693 1.702-1.42.399-.641.519-1.544 1.17-2.024.81-.603.957-2.892 1.303-3.802 1.86-4.915 6.075-9.408 9.411-13.364 3.07-3.624 6.554-6.69 6.793-11.586.292-6.136.412-12.286.837-18.415.346-4.735.133-10.965 2.446-15.162 1.356-2.417.465-3.545-1.17-5.433-.465-.536-1.05-.957-1.528-1.487-.811-.918.252-1.74-.133-2.685-.851-2.186-2.632-3.878-3.642-5.957-.865-1.759-.306-3.896-.506-5.782-.319-3.119-1.25-6.129-1.728-9.22 0-.36-.664-1.633-.16-1.88L25.846.08l79.187 44.827.81 43.847c-2.618-.813-2.857-.488-5.596-.054-1.807.286-4.16 0-4.745 1.698-.425 1.239.77 3.594-.133 4.792-.85 1.129-2.14 4.991-3.935 5.616-2.047.709-1.223 4.257.24 5.658-3.31 2.653-5.464 4.316-2.898 8.015 1.741 2.502-2.313 3.56-3.43 5.664-.758 1.445-1.063 1.945.133 3.108.984.99 2.685-.066 3.749-.066 1.342 0 2.459.633 1.595 1.679-1.25 1.523 1.29 3.334.306 6.004.345-.174.69-.333 1.05-.478.77 1.235-.133 2.632-.133 3.924 0 1.477.186 1.495 1.13 2.52.837.93 2.87.423 3.017 2.95 0 1.124-1.037 3.166-.704 4.448-.572-.973-3.337-1.907-4.547-1.275-.73.373-1.728.691-2.206 1.396-.585.866-.705.316-1.356 1.043-1.05 1.166-3.576.877-3.948 2.701-.146.751.452 1.385.213 2.162-.811 2.594-3.15 3.666-5.038 5.38-1.503 1.364-2.26 3.29-3.616 4.786-2.38 2.65-4.041 3.248-7.418 4.502-1.914.713-6.7 1.024-8.72.831-.691-.066-4.918.93-3.403 2.067.652.496 2.406.828 2.007 2.003-.451 1.352-2.033 3.26-3.07 4.229-.824.759-1.555 2.657-2.592 2.914-1.968.488-4.347.106-6.38.292-2.673.238-4.667.901-6.966 2.32-1.263.779-3.616 1.462-4.214 2.967-.904-1.303-2.167-2.221-2.58-3.829-.837.302-1.235 1.404-1.634 2.106-.28.497-1.914.631-2.473.875-2.751 1.208-3.695.994-6.62 1.038 1.542-1.936-.186-2.644-.73-4.459-.758-2.465-1.41-5.23-3.045-7.295-1.382-1.76-3.296-2.988-5.011-4.384-1.715-1.389-2.659-3.08-4.041-4.728-.944-1.122-3.323-3.243-2.194-4.873 1.144-1.651 1.702-2.824 3.842-2.724 2.393.106 4.746 1.085 7.125.277 1.037-.355 1.967.168 2.898.543.864.346 2.087-.452 2.885-.687-4.746-2.641-6.966-9.011-6.727-14.211 0-1.189.665-2.14.785-3.27.133-1.172-.173-2.352-.213-3.522 0-.884.16-2.334-.359-3.116-.399-.614-1.529-.158-1.462-1.195.133-1.368-.452-3.206-.731-4.547-.2-.968-1.582-1.117-2.273-1.545-2.207-1.366.598-3.433-3.762-4.087-1.037-.157-.731.66-1.861-.201-1.556-1.84-3.63-5.428-4.174-6.415-1.45-2.656-1.237-5.932-1.808-8.81" fill="#c83737" fill-rule="evenodd" stroke="#000" stroke-width=".144"><title>Chad</title></path></svg>