<svg xmlns="http://www.w3.org/2000/svg" width="62.592" height="77.301" viewBox="0 0 16.560684 20.452454"><path class="landxx dj" d="M.448 19.434c0-3.085-1.196-6.151.678-8.94 1.41-2.098 2.699-4.002 3.908-6.204 1.436-2.572 2.154-1.195 4.188-.648 1.037.277.983-1.343 1.382-1.88C11.23.934 12.32.606 13.183.103c.89 1.952 4.626 5.589 2.818 7.869-.917 1.17-3.788 2.504-5.17 3.046-1.41.557-1.596 2.227-3.204 2.486 1.05 1.361 4.213-.881 5.742-.288 2.765 1.072 0 3.782-.731 5.304-1.117 2.297-2.885-.093-4.613.356-1.768.464-6.394 2.775-7.577.56" fill="#c83737" fill-rule="evenodd" stroke="#000" stroke-width=".144"><title>Djibouti</title></path></svg>