<svg xmlns="http://www.w3.org/2000/svg" width="424.406" height="432.598" viewBox="0 0 112.29082 114.45831"><path class="landxx eg" d="M.597 19.097c-1.9-3.032 2.007-6.21 1.529-9.318-.519-3.34-3.563-5.67 1.25-9.632.132 2.432 2.937 1.561 4.4 1.124 2.684-.799 4.891.093 7.563.36 2.924.293 5.716.943 8.547 1.697 1.197.319 1.383 1.619 2.606 1.994 1.076.332 1.887.198 2.964.08.718-.08 1.05 1.044 1.861 1.212.877.183 1.781.187 2.685.276 2.872.285 4.786 2.088 7.484 2.539 2.619.436 5.105-1.32 6.979-2.915.97-.827 1.874-1.726 2.765-2.639.758.594 1.33 1.206 2.3 1.053-.559-.276-.44-.435-1.157-.383.944-.5 1.874-1.408 2.114-2.488 1.621.973 3.15-.775 4.785-.763-1.09.502-2.14 1.127-2.977 2.008.292-.17 6.885-2.164 3.735-2.392 2.326-.771 3.842 1.896 6.075 1.579 1.076-.152 2.087-1.209 3.217-.812 1.05.366 1.555 1.894 2.485 2.487-.943-.662-1.914-2.117-3.163-2.2.372.991-.997 2.867.611 3.253 1.755.418.93.853 2.074 1.914 0-.391 3.124-1.712.864-2.776 2.406.561 3.217 2.786 6.035 2.54.917-.08 3.629-1.774 3.15.236 1.755-1.114 3.722-.464 5.597-1.032 1.661-.498 3.323-1.148 4.652-2.304L99.71 25.13c-2.047 2.6-1.582 7.406-2.884 10.484-.758 1.8-.731 2.922-.705 4.824 0 1.628-2.06 3.201-1.542 4.787-.997-.913-2.313-1.325-3.403-2.088-1.382-.97-2.353-2.38-3.296-3.746-1.197-1.73-4.72-2.86-4.201-5.46.505-2.618-2.02-4.434-3.31-6.279-1.781-2.548-3.057-5.517-3.775-8.555-1.197 1.288-2.473 4.098-1.223 5.568 2.14 2.52 1.914 5.611 3.709 8.214 1.555 2.254 3.123 5.014 5.064 6.937.864.851 1.835 1.584 2.619 2.51.412.485 2.1 3.266.133 1.75 1.648 1.284.279 2.919 1.33 3.977 1.395 1.42 2.14 2.924 2.87 4.713.36.88.958 1.634 1.476 2.425.385.605-.386 1.376-.425 1.967 0 .791 1.25 1.965 1.595 2.647.81 1.56 1.688 3.084 2.512 4.642 2.685 5.118 5.397 10.145 7.936 15.341.997 2.033 2.446 3.488 3.695 5.315 1.17 1.7 3.204 2.226 4.28 3.956-1.023.053-2.046-.12-2.964-.575-.664 2.777-.345 7.016 1.077 8.654 1.343 1.558-1.768 4.687-3.669 4.78-.943.04-1.302-.64-2.246.418-.745.833-1.143 2.263-1.489 3.332-.386 1.235-.97 2.327-2.326 2.644-1.104.257-3.098.027-3.682 1.296-1.064 2.317-.413 5.021-3.683 4.762-3.801-.303-5.742-3.387-7.75-3.303-6.593.276-10.394.878-15.565 0 .146-.52.744-1.62.372-2.154-.93-1.352-1.648 1.1-1.954 1.542-1.236 1.773-7.444.707-9.425.707l-53.291-.12-1.901-72.027c-.2-3.367-.133-6.9-.585-10.234-.399-2.87-1.13-7.112-2.42-9.698" fill="#c83737" fill-rule="evenodd" stroke="#000" stroke-width=".144"><title>Egypt</title></path></svg>