<?xml version="1.0" encoding="UTF-8" standalone="no"?>
<!-- Created with Inkscape (http://www.inkscape.org/) -->

<svg
   xmlns:dc="http://purl.org/dc/elements/1.1/"
   xmlns:cc="http://creativecommons.org/ns#"
   xmlns:rdf="http://www.w3.org/1999/02/22-rdf-syntax-ns#"
   xmlns:svg="http://www.w3.org/2000/svg"
   xmlns="http://www.w3.org/2000/svg"
   xmlns:sodipodi="http://sodipodi.sourceforge.net/DTD/sodipodi-0.dtd"
   xmlns:inkscape="http://www.inkscape.org/namespaces/inkscape"
   width="112.29082mm"
   height="114.45831mm"
   viewBox="0 0 112.29082 114.45831"
   version="1.1"
   id="svg45009"
   inkscape:version="0.92.0 r15299"
   sodipodi:docname="egypt.svg">
  <defs
     id="defs45003" />
  <sodipodi:namedview
     id="base"
     pagecolor="#ffffff"
     bordercolor="#666666"
     borderopacity="1.0"
     inkscape:pageopacity="0.0"
     inkscape:pageshadow="2"
     inkscape:zoom="0.35"
     inkscape:cx="212.20312"
     inkscape:cy="216.29916"
     inkscape:document-units="mm"
     inkscape:current-layer="layer1"
     showgrid="false"
     fit-margin-top="0"
     fit-margin-left="0"
     fit-margin-right="0"
     fit-margin-bottom="0"
     inkscape:window-width="1920"
     inkscape:window-height="1017"
     inkscape:window-x="1912"
     inkscape:window-y="-8"
     inkscape:window-maximized="1" />
  <metadata
     id="metadata45006">
    <rdf:RDF>
      <cc:Work
         rdf:about="">
        <dc:format>image/svg+xml</dc:format>
        <dc:type
           rdf:resource="http://purl.org/dc/dcmitype/StillImage" />
        <dc:title></dc:title>
      </cc:Work>
    </rdf:RDF>
  </metadata>
  <g
     inkscape:label="Layer 1"
     inkscape:groupmode="layer"
     id="layer1"
     transform="translate(73.154338,-91.604173)">
    <path
       inkscape:connector-curvature="0"
       id="eg"
       class="landxx eg"
       d="m -72.55721,110.70117 c -1.900896,-3.03212 2.007214,-6.20914 1.52868,-9.31837 -0.518428,-3.339177 -3.562499,-5.669439 1.249544,-9.632048 0.132924,2.43259 2.937728,1.561906 4.399959,1.12458 2.685171,-0.798904 4.891808,0.09305 7.563689,0.36024 2.924438,0.292451 5.715952,0.942464 8.547361,1.696167 1.19636,0.319031 1.382443,1.619082 2.605408,1.99395 1.076724,0.33232 1.887603,0.198058 2.964331,0.07976 0.717801,-0.07976 1.050123,1.044816 1.861002,1.212302 0.877329,0.183455 1.781262,0.187447 2.685169,0.276509 2.871279,0.284467 4.785466,2.08832 7.483925,2.53894 2.618721,0.43601 5.104495,-1.319993 6.978787,-2.915147 0.970407,-0.826823 1.874317,-1.725426 2.764933,-2.638632 0.757695,0.594176 1.329309,1.205658 2.299692,1.052799 -0.5583,-0.276508 -0.438666,-0.434697 -1.156491,-0.382851 0.943803,-0.499808 1.874317,-1.407709 2.113585,-2.488427 1.621734,0.973036 3.150414,-0.774977 4.785463,-0.763026 -1.090041,0.502485 -2.140165,1.127257 -2.977624,2.008578 0.292428,-0.170164 6.8857335,-2.164089 3.735319,-2.392744 2.326246,-0.770985 3.8416595,1.896904 6.0748515,1.579212 1.076751,-0.151544 2.087004,-1.208336 3.216915,-0.812194 1.050121,0.366884 1.555261,1.894226 2.485771,2.487088 -0.9438,-0.661989 -1.914184,-2.116236 -3.163729,-2.199968 0.372216,0.991657 -0.996963,2.867287 0.611484,3.252792 1.754656,0.418705 0.930511,0.853402 2.073688,1.914161 0,-0.390811 3.123859,-1.712111 0.86403904,-2.775547 2.40603396,0.560951 3.21691296,2.786184 6.03500796,2.538933 0.917197,-0.07974 3.628972,-1.773279 3.150415,0.236614 1.754683,-1.113943 3.7220265,-0.463906 5.5963435,-1.031526 1.661604,-0.498469 3.323232,-1.148507 4.652515,-2.303658 l 8.082116,21.333843 c -2.047108,2.59876 -1.581864,7.4055 -2.884567,10.48413 -0.757695,1.79986 -0.731115,2.92179 -0.704535,4.82402 0,1.62704 -2.0604,3.20092 -1.541971,4.78678 -0.996963,-0.91323 -2.312982,-1.32531 -3.402996,-2.08832 -1.382469,-0.96907 -2.35285,-2.38077 -3.296653,-3.74595 -1.196361,-1.73073 -4.718989,-2.86064 -4.200562,-5.4594 0.505137,-2.61873 -2.0205305,-4.43453 -3.3099435,-6.27959 -1.781262,-2.54825 -3.057385,-5.51657 -3.775186,-8.55534 -1.196385,1.28808 -2.47250996,4.09821 -1.222965,5.5684 2.140162,2.51902 1.914186,5.61097 3.708739,8.21373 1.55526,2.25446 3.123834,5.01409 5.0645985,6.93757 0.864039,0.85075 1.834423,1.58318 2.618722,2.5097 0.412086,0.48521 2.10027,3.26609 0.132924,1.74936 1.648314,1.2841 0.279162,2.91913 1.329282,3.97726 1.395759,1.41968 2.140165,2.92444 2.87128,4.71366 0.358926,0.88 0.957093,1.63371 1.47552,2.42463 0.385506,0.60484 -0.385506,1.37582 -0.425373,1.96737 0,0.79092 1.249542,1.96469 1.595154,2.64661 0.810879,1.56059 1.688209,3.08397 2.512378,4.6419 2.685169,5.11779 5.396917,10.14517 7.935877,15.34138 0.99696,2.03248 2.4459,3.48807 3.69542,5.31451 1.16978,1.70018 3.2036,2.22657 4.28033,3.95599 -1.02354,0.0532 -2.04711,-0.11964 -2.96431,-0.57424 -0.66466,2.77688 -0.34563,7.016 1.07673,8.65368 1.34257,1.55793 -1.76797,4.6871 -3.66887,4.78015 -0.94378,0.0399 -1.3027,-0.6394 -2.24651,0.41739 -0.7444,0.83347 -1.14317,2.26379 -1.48881,3.33253 -0.38548,1.23492 -0.97038,2.32627 -2.32624,2.64399 -1.103332,0.25655 -3.097259,0.0266 -3.68216,1.29606 -1.063437,2.31694 -0.412086,5.02074 -3.682135,4.76151 -3.80179,-0.30306 -5.742556,-3.38703 -7.749794,-3.30327 -6.5932815,0.27648 -10.3950745,0.87864 -15.5660175,0 0.146214,-0.51977 0.744406,-1.61909 0.37219,-2.15348 -0.930513,-1.35187 -1.648315,1.09934 -1.954054,1.54199 -1.236255,1.77328 -7.4440545,0.70719 -9.4246905,0.70719 l -53.291405,-0.11963 -1.900895,-72.02779 c -0.199398,-3.36712 -0.132924,-6.89905 -0.584878,-10.23423 -0.398795,-2.86863 -1.12991,-7.11174 -2.419324,-9.69721"
       style="fill:#c83737;fill-opacity:1;fill-rule:evenodd;stroke:#000000;stroke-width:0.14449541;stroke-miterlimit:4;stroke-dasharray:none;stroke-opacity:1">
      <title
         id="title1034">Egypt</title>
    </path>
  </g>
</svg>
