<svg xmlns="http://www.w3.org/2000/svg" width="112.915" height="120.791" viewBox="0 0 29.875317 31.959162"><g class="landxx coastxx gq" transform="matrix(1.3293 0 0 1.3293 -1774.142 -966.345)" fill="#c83737" fill-rule="evenodd" stroke="#000" stroke-width=".109"><title>Equatorial Guinea</title><path d="M1336.95 731.88c.53-.625 2.99-5.283.81-4.834-.84.172-1.22.685-1.49 1.449-.33.909-.91 1.026-1.46 1.698-.63.777 1.74 1.474 2.14 1.687"/><path class="landxx gq" d="M1344.08 745.85c.28.07.54.02.79-.144-1.58.765-.14-1.554.13-1.999.81-1.281.16-3.141.74-4.68 1.06 2.073 1.75 1.562 3.13 1.853l8.2-.09v10.012l-9.06-.199c-.58.08-3.37.925-2.32-.362-.93-.478-3.11.535-3.68-.647-.52-1.085 1.55-2.888 2.02-3.743"/></g></svg>