<?xml version="1.0" encoding="UTF-8" standalone="no"?>
<!-- Created with Inkscape (http://www.inkscape.org/) -->

<svg
   xmlns:dc="http://purl.org/dc/elements/1.1/"
   xmlns:cc="http://creativecommons.org/ns#"
   xmlns:rdf="http://www.w3.org/1999/02/22-rdf-syntax-ns#"
   xmlns:svg="http://www.w3.org/2000/svg"
   xmlns="http://www.w3.org/2000/svg"
   xmlns:sodipodi="http://sodipodi.sourceforge.net/DTD/sodipodi-0.dtd"
   xmlns:inkscape="http://www.inkscape.org/namespaces/inkscape"
   width="152.06497mm"
   height="132.274mm"
   viewBox="0 0 152.06497 132.274"
   version="1.1"
   id="svg16397"
   inkscape:version="0.92.0 r15299"
   sodipodi:docname="ethiopia.svg">
  <defs
     id="defs16391" />
  <sodipodi:namedview
     id="base"
     pagecolor="#ffffff"
     bordercolor="#666666"
     borderopacity="1.0"
     inkscape:pageopacity="0.0"
     inkscape:pageshadow="2"
     inkscape:zoom="0.35"
     inkscape:cx="-431.20456"
     inkscape:cy="-112.89053"
     inkscape:document-units="mm"
     inkscape:current-layer="layer1"
     showgrid="false"
     fit-margin-top="0"
     fit-margin-left="0"
     fit-margin-right="0"
     fit-margin-bottom="0"
     inkscape:window-width="1920"
     inkscape:window-height="1017"
     inkscape:window-x="1912"
     inkscape:window-y="-8"
     inkscape:window-maximized="1" />
  <metadata
     id="metadata16394">
    <rdf:RDF>
      <cc:Work
         rdf:about="">
        <dc:format>image/svg+xml</dc:format>
        <dc:type
           rdf:resource="http://purl.org/dc/dcmitype/StillImage" />
        <dc:title></dc:title>
      </cc:Work>
    </rdf:RDF>
  </metadata>
  <g
     inkscape:label="Layer 1"
     inkscape:groupmode="layer"
     id="layer1"
     transform="translate(-97.080611,13.309616)">
    <path
       inkscape:connector-curvature="0"
       id="et"
       class="landxx et"
       d="m 97.238081,67.359634 c 0.186083,-1.549953 1.661604,-2.370132 1.674894,-3.94535 0,-2.695808 1.900895,-2.949705 4.173985,-2.564199 2.02053,0.342958 3.76192,0.983673 5.2507,-1.244214 1.03686,-1.538001 0.35893,-4.211198 0.15953,-5.900745 -0.34561,-2.819432 -0.75769,-5.859513 0.30574,-8.576593 0.41209,-1.063437 0.9571,-2.068383 1.34258,-3.143795 0.57161,-1.579187 0,-2.637317 -0.13293,-4.200562 0,-1.563243 0.82417,-3.13581 1.83442,-4.309557 1.15649,-1.350582 2.89786,0.261855 2.85799,1.724085 0.67793,-0.7391 3.34982,-4.835969 2.02053,-6.124069 -0.75769,-0.731092 0.45196,-2.460509 0.67793,-3.196955 0.45196,-1.450256 -0.53171,-3.283339 0.7577,-4.465093 2.07371,-1.894226 2.89786,-4.387985 4.17398,-6.940232 0.54501,-1.079402 0.87735,-2.205297 2.19335,-2.267779 0.545,-0.02658 3.13712,0.255234 3.37641,-0.397456 0.71781,-1.9873048 0.54501,-4.4597878 0.86404,-6.5414608 0.17279,-1.184408 0.65135,-2.106938 1.14318,-3.198293 0.89064,-1.955369 0.66467,-3.783146 1.06344,-5.8196423 0.7444,-3.8456529 2.36613,-2.4365815 5.27731,-2.4671531 1.12988,0 1.35586,-2.3023435 2.93773,-1.3877978 1.23625,0.7124949 1.91418,2.3555029 2.69846,3.4721234 1.18307,-2.9457115 2.35285,-5.9153494 3.15044,-8.9966624 0.45195,0.701859 0.97038,1.591163 1.72807,2.009893 0.82417,0.455946 1.76798,0.09305 2.27309,1.091355 0.98367,1.9699979 2.19335,2.2026444 4.25375,1.8290906 0.75769,-0.1382297 1.55528,-0.3442719 2.15345,-0.864039 0.35892,-0.3110473 0.67795,-1.4888106 1.05014,-1.5951546 0.69123,-0.19672 1.82114,2.1800568 1.95406,2.6971463 1.96737,-2.4618463 5.27731,0.3974561 7.28453,-0.138254 2.76493,-0.7350829 5.59634,2.2106284 7.94919,3.2075911 3.1637,1.3346139 4.06764,5.4142278 6.64647,7.4666428 1.54197,1.233601 3.5625,2.221265 4.51959,4.038405 0.87733,1.661604 1.28941,3.054708 2.8447,4.2444228 2.6054,2.000595 3.73531,3.537258 2.00724,6.570719 -2.03382,3.585086 -4.82534,5.62555 -4.17399,10.004261 0.31903,2.174727 -0.53172,4.823994 2.57883,4.611306 1.82113,-0.119634 3.62897,-0.996963 5.38363,-1.444924 1.43565,-0.362918 1.98066,0.893271 3.32324,0.450615 -0.14622,2.274424 -2.77823,4.188611 -1.5154,6.832573 1.5154,3.17568 2.91115,3.98656 4.87852,6.815291 0.65135,0.94115 1.82113,4.075621 2.56554,4.93966 0.7444,0.862701 1.38247,0.592863 2.2465,1.297398 1.34258,1.086024 3.38969,3.397665 5.0779,4.005156 6.7927,2.444565 12.89416,4.99282 19.66025,7.48923 3.2036,1.183071 5.80901,2.589464 9.13227,3.372427 3.07065,0.725807 7.01865,0.22067 10.1292,0.22067 l -28.42031,33.74014 c -1.74137,2.032485 -3.12383,2.225235 -5.58303,1.892915 -4.05434,-0.54634 -9.71714,-0.77765 -14.99443,4.07828 -1.40904,1.28408 -1.8876,2.88058 -3.92142,3.28468 -1.87429,0.37352 -3.85495,0.30708 -5.59632,1.2575 -1.87431,1.02756 -1.74137,2.78621 -4.21387,2.22126 -2.0604,-0.47456 -4.95826,1.22827 -6.77939,-0.79094 -0.77099,-0.85871 -1.39576,-2.18933 -2.68518,-2.34088 -1.24954,-0.14621 -2.92443,0.76169 -4.00118,1.25619 -1.68819,0.77897 -4.51959,2.27708 -5.59632,3.87355 -1.16978,1.72808 -2.00724,3.03477 -2.8181,4.35744 -1.27612,-1.2336 -4.18727,-1.42234 -5.8489,-1.26948 -1.28941,0.11963 -2.20663,-0.91323 -3.34981,-1.15914 -1.20967,-0.2539 -2.55225,0.30308 -3.74861,0.19141 -4.8918,-0.45729 -0.77101,-1.08603 -13.65185,-8.83713 -2.20664,-1.32133 -5.39695,0.18476 -8.09541,-0.76834 -1.24954,-0.44265 -3.13712,-2.8952 -3.69542,-4.02511 -0.7843,-1.57522 0.5583,-3.659555 0,-5.388965 -0.45198,-1.55792 -3.65558,-2.50306 -4.71902,-1.13919 -0.65135,-0.6301 -1.55526,-2.49775 -2.10026,-3.3299 -1.23626,-1.92083 -1.67492,-4.50097 -2.51238,-6.629186 -0.62477,-1.597805 -0.93049,-3.400316 -1.79453,-4.898451 -0.39879,-0.691221 -0.87735,-0.937133 -1.54199,-1.274786 -0.74441,-0.372189 -0.77099,-1.112628 -1.316,-1.604452 -0.34561,-0.219331 -0.47856,-0.412083 -0.89064,-0.461277 -1.05012,-0.293764 -1.15647,-1.426329 -1.71479,-2.188014 -1.24952,-1.698821 -2.10027,-3.772535 -3.7619,-5.135068 -1.22294,-0.996963 -2.68517,-1.678884 -4.25374,-1.868985 -1.448919,-0.174133 -3.469448,-0.186084 -4.240433,-1.704152"
       style="fill:#c83737;fill-opacity:1;fill-rule:evenodd;stroke:#000000;stroke-width:0.14449541;stroke-miterlimit:4;stroke-dasharray:none;stroke-opacity:1">
      <title
         id="title871">Ethiopia</title>
    </path>
  </g>
</svg>
