<svg xmlns="http://www.w3.org/2000/svg" width="222.023" height="273.42" viewBox="0 0 58.743557 72.342506"><g class="landxx coastxx ga" transform="matrix(1.3293 0 0 1.3293 -1777.762 -982.679)" fill="#c83737" fill-rule="evenodd" stroke="#000" stroke-width=".109"><title>Gabon</title><path d="M1339.04 765.65c.1.19.19.38.29.57.28-.486.2-.916-.22-1.29 0 .24 0 .48-.1.72"/><path class="landxx ga" d="M1338.03 767.23c-.47-.634-.83-1.454-.43-2.229 0 .586.24 1.089.65 1.51.16-1.633 1.13-.284 1.08.65.16-1.995 2.19-3.13 2.41-5.08.15-1.348-.71-3.969.47-5 .1.657.54 1.13.86 1.66.22-1.082 1.81-.481 2.3.43-.13-.921.86-1.26 1.59-1.23-1.82 0-3.23-.378-4.27-1.989-.41-.642-1.75-1.458-.27-1.754.63-.126 1.48.194 1.51.944.53-1.195-.37-2.785 0-4.06.19-.699 1.04-.629 1.56-.347.93.507 1.59-.114 2.61-.114l8.97.144v-9.892c.4-2.303 1.35-1.414 3.07-1.338 1.46.07 3.26.266 4.8.181 1.47-.08 2.97.413 3.96.362 2.33-.12 4.19-1.347 2.6 2.365-.98 2.311.62 4.505-.17 6.574 1.72-.295 3.28-1.213 4.98-1.584 3.2-.693 2.81 1.201 3.77 2.804.9 1.511 1.68 3.717-1.37 4.423-1.67.388-1.76 3.24-1.6 4.564.1.629-1.26 2.358.23 2.437.73.04 1.45.597 1.37 1.128-.12.758 1.61.62 2.24 1.254 1.4 1.395-.3 3.167 0 4.675.16.959 1.29 3.819-.42 4.704 1.09.726.33 2.614-.68 3.024-.28.114-.68 2.511-.6 2.607.63.735-1.08 2.526-1.91 2.441-.87-.09-1.17-3.107-1.56-3.823-.27.929-1.36 2.844-2.43 2.973-1.08.13-2.34-1.202-3.4-.593.73-2.828-4.69-7.296-3.92-2.581.45 2.759-.63 2.795-3.21 3.038-.82.08-.59-.613-1.4-.554-1.06.08-1.29-.02-2.35-.264.39 1.426.66 2.964-.28 4.25 1.04-.37 1.75.214 1.7 1.254 0 .897-.22 1.657-.1 2.12.44.431.98.432 1.26.852.62.944-.1 1.075 0 1.884.1.659.49 1.572-.69 1.636-1.24.07-1.27-.994-2.17-1.541-.9-.549-2.86 2.809-3.08 3.436-1.66-1.301-3.1-4.01-4.25-5.76-1.68-2.572-4.23-4.632-6.41-6.761 1.21-.75 1.61 2.026 2.74.64-.81.08-1.97-.927-2.85-1.144-1.41-.349-2.44-3.604-3.34-4.755.91.08 1.24 1.081 2.09 1.3-.78-1.25-.92-.954-2.03-1.601-.5-.293-.35-1.183-.47-1.625-.3-1.085-1.08-1.94-1.61-2.904.69.58 2.08 1.849 1.87 2.89.72-.248 1.47-.41 2.24-.359a3.634 3.634 0 0 1-1.01-1.16c-.17.572-.59.867-1.16.58.1-.754.69-1.438.37-2.23-1.13 3.291-3.21-3.06-3.75-3.462"/></g></svg>