<?xml version="1.0" encoding="UTF-8" standalone="no"?>
<!-- Created with Inkscape (http://www.inkscape.org/) -->

<svg
   xmlns:dc="http://purl.org/dc/elements/1.1/"
   xmlns:cc="http://creativecommons.org/ns#"
   xmlns:rdf="http://www.w3.org/1999/02/22-rdf-syntax-ns#"
   xmlns:svg="http://www.w3.org/2000/svg"
   xmlns="http://www.w3.org/2000/svg"
   xmlns:sodipodi="http://sodipodi.sourceforge.net/DTD/sodipodi-0.dtd"
   xmlns:inkscape="http://www.inkscape.org/namespaces/inkscape"
   width="30.49321mm"
   height="16.130663mm"
   viewBox="0 0 30.49321 16.130663"
   version="1.1"
   id="svg7238"
   inkscape:version="0.92.0 r15299"
   sodipodi:docname="gambia.svg">
  <defs
     id="defs7232" />
  <sodipodi:namedview
     id="base"
     pagecolor="#ffffff"
     bordercolor="#666666"
     borderopacity="1.0"
     inkscape:pageopacity="0.0"
     inkscape:pageshadow="2"
     inkscape:zoom="0.35"
     inkscape:cx="57.624892"
     inkscape:cy="30.483139"
     inkscape:document-units="mm"
     inkscape:current-layer="layer1"
     showgrid="false"
     fit-margin-top="0"
     fit-margin-left="0"
     fit-margin-right="0"
     fit-margin-bottom="0"
     inkscape:window-width="1920"
     inkscape:window-height="1017"
     inkscape:window-x="1912"
     inkscape:window-y="-8"
     inkscape:window-maximized="1" />
  <metadata
     id="metadata7235">
    <rdf:RDF>
      <cc:Work
         rdf:about="">
        <dc:format>image/svg+xml</dc:format>
        <dc:type
           rdf:resource="http://purl.org/dc/dcmitype/StillImage" />
        <dc:title></dc:title>
      </cc:Work>
    </rdf:RDF>
  </metadata>
  <g
     inkscape:label="Layer 1"
     inkscape:groupmode="layer"
     id="layer1"
     transform="translate(32.255515,-140.768)">
    <g
       id="gm"
       style="fill:#c83737;fill-opacity:1;stroke:#000000;stroke-width:0.10870087;stroke-miterlimit:4;stroke-dasharray:none;stroke-opacity:1"
       transform="matrix(1.3292939,0,0,1.3292939,-1552.3427,-706.54206)">
      <title
         id="title2593">Gambia</title>
      <path
         inkscape:connector-curvature="0"
         id="gm-"
         class="landxx gm"
         d="m 1143.63,643.894 c 1.41,-1.109 1.21,-1.047 1.92,0.515 0.54,1.183 2.21,-0.407 3.05,0.206 -1.8,-0.925 3.69,-1.469 4.03,-1.656 -1.42,-0.09 -3.12,-0.03 -4.44,0.547 -1.14,0.498 -1.79,0.828 -2.5,-0.486 -0.64,-1.171 0.64,-1.188 1.45,-1.126 2.14,0.161 4.31,0.06 6.45,0.06 0.55,0 0.32,-1.731 1.59,-1.371 1.02,0.29 2.01,-0.961 3.06,-0.41 0.53,0.279 0.66,0.966 1.18,1.278 0.51,0.301 0.98,-0.245 1.51,0 0.56,0.266 0.39,1.111 1.01,1.374 0.66,0.279 1.49,-0.246 2.1,-0.43 0.73,-0.218 2.48,-0.07 2.37,1.05 -0.11,1.029 -1.76,1.395 -2.57,1.512 -3.41,0.492 -7.03,-3.443 -7.52,-2.504 -0.58,1.089 -0.72,1.455 -2.84,1.423 -0.75,-0.01 -2.81,0.44 -2.36,1.578 0.1,0.222 -6.68,-0.54 -6.96,1.065 -0.41,-0.796 -0.69,-1.745 -0.53,-2.629"
         style="fill:#c83737;fill-opacity:1;fill-rule:evenodd;stroke:#000000;stroke-width:0.10870087;stroke-miterlimit:4;stroke-dasharray:none;stroke-opacity:1" />
      <circle
         id="gm."
         class="circlexx gm"
         r="6.0130301"
         cy="643.48102"
         cx="1154.42"
         style="opacity:0;fill:#c83737;fill-opacity:1;stroke:#000000;stroke-width:0.10870087;stroke-miterlimit:4;stroke-dasharray:none;stroke-opacity:1" />
    </g>
  </g>
</svg>
