<svg xmlns="http://www.w3.org/2000/svg" width="169.551" height="278.039" viewBox="0 0 44.860268 73.564514"><path class="landxx gh" d="M.547 56.115c-.612-3.26-.838-5.873.598-8.949 1.223-2.645.478-3.57 1.462-6.222.731-1.964 3.363-4.69 4.147-6.395 1.077-2.319.226-5.759-.478-8.141-.28-.95-.678-1.555-1.064-2.442-.425-.95.2-1.951.266-2.926.16-2.237-.917-3.812-.465-5.967.492-2.304-.452-4.776-.877-7.017-.2-1.065-1.33-2.261-.678-3.383.518-.883 1.236-2.136.917-3.207 5.57.499 10.714-.358 16.643.04 1.196.08 4.732-.228 5.024.464.519 1.282 2.606-.76 3.696-1.55 1.103-.804 4.28-.134 3.589 1.29-1.063 2.17-1.316 4.325 1.808 6.669 2.579 1.94 1.13 1.147 1.568 3.154.213.972.333.895.24 2.011-.133 1.13-.133 2.96-.412 4.391-1.41-.218-.811.79-1.436 1.629.864.146 1.475-.829 2.273-.605 1.17.325 1.143 2.006.877 2.863-.531 1.647.599 5.895-1.621 5.494.558 1.418 2.06 2.292 2.924 3.504 1.024 1.452.133 1.89-.465 3.238-.718 1.638.664 3.793-.253 5.336-1.103 1.845-1.21 2.758.306 4.33.718.744-.133 2.606-.425 3.46-.811 2.063-1.01 2.985.16 5.04.744 1.299 2.325 2.444 3.508 3.362.32.251 2.34 1.444 2.38 1.59.28 1.094-1.502 1.623-1.795 2.544-.385 1.254-1.25 2.318-2.751 2.148-.838-.093-1.104-1.972-1.556-2.532-.983-1.206-2.645-.744-3.948-1.3 1.05.845 2.765.324 3.882 1.146 2.207 1.623-1.17 2.652-2.273 2.844-4.174.733-6.806 3.102-10.276 5.167-1.98 1.185-4.187 1.157-6.314 2.022-1.276.525-2.738.81-3.828 1.693-.917.733-1.662 1.709-2.725 2.26-1.077.568-1.94.377-2.752-.469-1.103-1.147-2.3-1.297-3.748-1.732-1.529-.456-2.752-.093-3.696-1.65 1.25-.04.625-.213 1.875-.177-.559-1.613 1.316-6.741-2.087-5.799 1.143-2.038-.997-5.535-2.22-7.22" fill="#c83737" fill-rule="evenodd" stroke="#000" stroke-width=".144"><title>Ghana</title></path></svg>