<?xml version="1.0" encoding="UTF-8" standalone="no"?>
<!-- Created with Inkscape (http://www.inkscape.org/) -->

<svg
   xmlns:dc="http://purl.org/dc/elements/1.1/"
   xmlns:cc="http://creativecommons.org/ns#"
   xmlns:rdf="http://www.w3.org/1999/02/22-rdf-syntax-ns#"
   xmlns:svg="http://www.w3.org/2000/svg"
   xmlns="http://www.w3.org/2000/svg"
   xmlns:sodipodi="http://sodipodi.sourceforge.net/DTD/sodipodi-0.dtd"
   xmlns:inkscape="http://www.inkscape.org/namespaces/inkscape"
   width="44.860268mm"
   height="73.564514mm"
   viewBox="0 0 44.860268 73.564514"
   version="1.1"
   id="svg11261"
   inkscape:version="0.92.0 r15299"
   sodipodi:docname="ghana.svg">
  <defs
     id="defs11255" />
  <sodipodi:namedview
     id="base"
     pagecolor="#ffffff"
     bordercolor="#666666"
     borderopacity="1.0"
     inkscape:pageopacity="0.0"
     inkscape:pageshadow="2"
     inkscape:zoom="0.35"
     inkscape:cx="84.775312"
     inkscape:cy="139.01966"
     inkscape:document-units="mm"
     inkscape:current-layer="layer1"
     showgrid="false"
     fit-margin-top="0"
     fit-margin-left="0"
     fit-margin-right="0"
     fit-margin-bottom="0"
     inkscape:window-width="1920"
     inkscape:window-height="1017"
     inkscape:window-x="1912"
     inkscape:window-y="-8"
     inkscape:window-maximized="1" />
  <metadata
     id="metadata11258">
    <rdf:RDF>
      <cc:Work
         rdf:about="">
        <dc:format>image/svg+xml</dc:format>
        <dc:type
           rdf:resource="http://purl.org/dc/dcmitype/StillImage" />
        <dc:title></dc:title>
      </cc:Work>
    </rdf:RDF>
  </metadata>
  <g
     inkscape:label="Layer 1"
     inkscape:groupmode="layer"
     id="layer1"
     transform="translate(39.439063,-112.05111)">
    <path
       inkscape:connector-curvature="0"
       id="gh"
       class="landxx gh"
       d="m -38.892458,168.1662 c -0.611482,-3.26075 -0.837459,-5.87283 0.598192,-8.94881 1.22294,-2.6453 0.478535,-3.57048 1.462207,-6.22243 0.731116,-1.96336 3.363127,-4.68976 4.147402,-6.39523 1.076726,-2.31828 0.225977,-5.7585 -0.478534,-8.1406 -0.279161,-0.94911 -0.677956,-1.55526 -1.063437,-2.44191 -0.425374,-0.95045 0.199398,-1.95141 0.265847,-2.92578 0.159528,-2.23721 -0.917198,-3.8124 -0.465244,-5.96719 0.491849,-2.30366 -0.451954,-4.77617 -0.877329,-7.01735 -0.199397,-1.06477 -1.329308,-2.26113 -0.677956,-3.38306 0.518429,-0.88263 1.236254,-2.13617 0.917223,-3.20625 5.569739,0.49849 10.714104,-0.3589 16.642768,0.0399 1.196359,0.0798 4.732279,-0.22863 5.02473,0.46393 0.518404,1.28143 2.605408,-0.76035 3.6954231,-1.54995 1.103331,-0.80424 4.280326,-0.13427 3.589104,1.28941 -1.063437,2.17073 -1.316016,4.32552 1.807843,6.66908 2.578827,1.93942 1.129884,1.14716 1.56855,3.1544 0.212688,0.97172 0.33232,0.89461 0.239292,2.01123 -0.132948,1.12989 -0.132948,2.95901 -0.412086,4.39064 -1.409046,-0.21799 -0.810879,0.78961 -1.43565,1.6284 0.864039,0.14622 1.47552,-0.82816 2.273109,-0.60483 1.16978102,0.32567 1.14317802,2.0059 0.87733,2.86329 -0.531718,1.647 0.59816702,5.89542 -1.621735,5.49397 0.558297,1.41837 2.06040002,2.29171 2.92443702,3.50403 1.02356698,1.4516 0.132924,1.89026 -0.465243,3.23817 -0.71782502,1.63767 0.664641,3.79247 -0.252582,5.33577 -1.10330502,1.84506 -1.20964902,2.75829 0.305742,4.33084 0.717825,0.74309 -0.132924,2.60543 -0.425376,3.45883 -0.81085302,2.06305 -1.01025102,2.98558 0.159528,5.04067 0.744405,1.29874 2.32624598,2.44325 3.50931698,3.36179 0.319032,0.25124 2.339559,1.44361 2.379453,1.58985 0.279138,1.09401 -1.5021,1.62305 -1.794552,2.54426 -0.385503,1.25351 -1.249543,2.31829 -2.75164298,2.14813 -0.837459,-0.093 -1.103307,-1.97266 -1.555261,-2.53229 -0.98369702,-1.20569 -2.64530102,-0.74441 -3.94800602,-1.30005 1.050147,0.84542 2.764935,0.32433 3.88153302,1.14585 2.20663498,1.62307 -1.16978202,2.65194 -2.27308902,2.84468 -4.173979,0.73245 -6.805991,3.10124 -10.2754381,5.16697 -1.980659,1.18441 -4.187296,1.15649 -6.314144,2.02184 -1.276124,0.52508 -2.738355,0.80954 -3.828371,1.69221 -0.917223,0.73376 -1.661629,1.70948 -2.725065,2.25979 -1.076726,0.56893 -1.940765,0.37752 -2.75162,-0.4679 -1.103331,-1.14719 -2.299691,-1.29739 -3.748632,-1.73207 -1.52868,-0.45594 -2.75162,-0.0931 -3.695423,-1.64965 1.249544,-0.0399 0.624772,-0.21402 1.874291,-0.17815 -0.558298,-1.61241 1.316018,-6.74083 -2.086978,-5.79837 1.1432,-2.03781 -0.996963,-5.53517 -2.219927,-7.21939"
       style="fill:#c83737;fill-opacity:1;fill-rule:evenodd;stroke:#000000;stroke-width:0.14449541;stroke-miterlimit:4;stroke-dasharray:none;stroke-opacity:1">
      <title
         id="title425">Ghana</title>
    </path>
  </g>
</svg>
