<?xml version="1.0" encoding="UTF-8" standalone="no"?>
<!-- Created with Inkscape (http://www.inkscape.org/) -->

<svg
   xmlns:dc="http://purl.org/dc/elements/1.1/"
   xmlns:cc="http://creativecommons.org/ns#"
   xmlns:rdf="http://www.w3.org/1999/02/22-rdf-syntax-ns#"
   xmlns:svg="http://www.w3.org/2000/svg"
   xmlns="http://www.w3.org/2000/svg"
   xmlns:sodipodi="http://sodipodi.sourceforge.net/DTD/sodipodi-0.dtd"
   xmlns:inkscape="http://www.inkscape.org/namespaces/inkscape"
   width="30.920292mm"
   height="20.2374mm"
   viewBox="0 0 30.920292 20.2374"
   version="1.1"
   id="svg7819"
   inkscape:version="0.92.0 r15299"
   sodipodi:docname="guineabissau.svg">
  <defs
     id="defs7813" />
  <sodipodi:namedview
     id="base"
     pagecolor="#ffffff"
     bordercolor="#666666"
     borderopacity="1.0"
     inkscape:pageopacity="0.0"
     inkscape:pageshadow="2"
     inkscape:zoom="0.35"
     inkscape:cx="58.432042"
     inkscape:cy="38.243899"
     inkscape:document-units="mm"
     inkscape:current-layer="layer1"
     showgrid="false"
     fit-margin-top="0"
     fit-margin-left="0"
     fit-margin-right="0"
     fit-margin-bottom="0"
     inkscape:window-width="1920"
     inkscape:window-height="1017"
     inkscape:window-x="1912"
     inkscape:window-y="-8"
     inkscape:window-maximized="1" />
  <metadata
     id="metadata7816">
    <rdf:RDF>
      <cc:Work
         rdf:about="">
        <dc:format>image/svg+xml</dc:format>
        <dc:type
           rdf:resource="http://purl.org/dc/dcmitype/StillImage" />
        <dc:title></dc:title>
      </cc:Work>
    </rdf:RDF>
  </metadata>
  <g
     inkscape:label="Layer 1"
     inkscape:groupmode="layer"
     id="layer1"
     transform="translate(32.469073,-138.71463)">
    <g
       id="gw"
       class="landxx coastxx gw"
       style="fill:#c83737;fill-opacity:1;fill-rule:evenodd;stroke:#000000;stroke-width:0.10870087;stroke-miterlimit:4;stroke-dasharray:none;stroke-opacity:1"
       transform="matrix(1.3292939,0,0,1.3292939,-1553.3396,-725.04212)">
      <title
         id="title414">Guinea-Bissau</title>
      <path
         inkscape:connector-curvature="0"
         id="path3430"
         d="m 1147.02,660.259 c 0,-0.191 0,-0.384 -0.1,-0.575 -0.27,0.154 -0.51,0.346 -0.72,0.575 0.26,0 0.53,0 0.79,0"
         style="fill:#c83737;fill-opacity:1;stroke:#000000;stroke-width:0.10870087;stroke-miterlimit:4;stroke-dasharray:none;stroke-opacity:1" />
      <path
         inkscape:connector-curvature="0"
         id="path3432"
         d="m 1147.46,657.163 c 0.66,-0.328 0.56,-0.568 -0.29,-0.72 0.1,0.24 0.19,0.48 0.29,0.72"
         style="fill:#c83737;fill-opacity:1;stroke:#000000;stroke-width:0.10870087;stroke-miterlimit:4;stroke-dasharray:none;stroke-opacity:1" />
      <path
         inkscape:connector-curvature="0"
         id="path3434"
         d="m 1148.11,664.219 c 0.26,-0.207 0.55,-0.375 0.86,-0.505 -0.58,-1.215 -2.04,-0.406 -0.86,0.505"
         style="fill:#c83737;fill-opacity:1;stroke:#000000;stroke-width:0.10870087;stroke-miterlimit:4;stroke-dasharray:none;stroke-opacity:1" />
      <path
         inkscape:connector-curvature="0"
         id="path3436"
         d="m 1149.33,656.731 c -0.36,0.02 -0.72,0.07 -1.08,0.144 0.1,1.054 1.38,0.885 1.08,-0.144"
         style="fill:#c83737;fill-opacity:1;stroke:#000000;stroke-width:0.10870087;stroke-miterlimit:4;stroke-dasharray:none;stroke-opacity:1" />
      <path
         inkscape:connector-curvature="0"
         id="path3438"
         d="m 1149.26,659.899 c -0.1,0.24 -0.2,0.479 -0.29,0.72 0.6,0.304 0.98,-0.05 1.08,-0.647 -0.27,-0.01 -0.53,-0.04 -0.79,-0.07"
         style="fill:#c83737;fill-opacity:1;stroke:#000000;stroke-width:0.10870087;stroke-miterlimit:4;stroke-dasharray:none;stroke-opacity:1" />
      <path
         inkscape:connector-curvature="0"
         id="path3440"
         d="m 1151.13,662.995 c 0.4,-0.32 0.66,-0.728 0.79,-1.224 -0.52,0.201 -0.87,0.642 -0.79,1.224"
         style="fill:#c83737;fill-opacity:1;stroke:#000000;stroke-width:0.10870087;stroke-miterlimit:4;stroke-dasharray:none;stroke-opacity:1" />
      <path
         inkscape:connector-curvature="0"
         id="path3442"
         d="m 1154.66,663.139 c 0.21,-0.695 0,-0.887 -0.72,-0.576 0.24,0.193 0.48,0.384 0.72,0.576"
         style="fill:#c83737;fill-opacity:1;stroke:#000000;stroke-width:0.10870087;stroke-miterlimit:4;stroke-dasharray:none;stroke-opacity:1" />
      <path
         inkscape:connector-curvature="0"
         id="path3444"
         class="landxx gw"
         d="m 1144.15,652.987 c 0.7,-0.484 1.61,-0.117 2.36,-0.454 0.8,-0.361 1.55,-0.818 2.46,-0.842 1.93,-0.05 3.68,0.458 5.29,-0.936 1.42,-1.228 3.2,-0.864 4.91,-0.864 2.6,0 5.2,0 7.8,0 -0.22,1.01 0.9,2.182 0,3.068 -0.49,0.481 -1.83,0.371 -2.02,1.107 -0.28,1.044 3.44,1.855 1.59,3.937 -0.95,1.072 -2.35,0.497 -3.54,0.7 -1.13,0.19 -2.47,1.081 -3.63,1.428 -1.98,0.596 -1.03,4.076 -3.06,4.808 -0.49,-1.875 -0.75,-2.121 -2.44,-2.952 0.15,-0.274 0.31,-0.538 0.5,-0.792 -1.45,1.083 -0.1,-3.351 2.01,-1.729 -0.5,-1.411 -1.78,-0.47 -2.51,0.145 -0.71,-1.263 -0.84,-2.113 0.72,-2.664 1.32,-0.469 1.79,0.949 3.02,0.864 -0.66,-0.265 -1.05,-1.106 -0.43,-1.656 -0.48,-0.164 -0.94,-0.102 -1.37,0.184 -0.7,0.385 -1.29,-0.09 -2.02,0.03 -0.71,0.118 -1.16,0.659 -1.69,1.08 -0.69,0.546 -1.61,0.461 -2.41,0.648 0,-1.307 1.14,-1.728 2.02,-2.448 -1.25,-0.122 -2.23,1.172 -3.46,0.904 -2.4,-0.522 -0.86,-2.65 0.29,-3.425 -0.46,0.05 -0.92,0.121 -1.37,0.216 -0.24,0.289 -0.5,0.553 -0.79,0.793 -0.89,0.04 -1.39,-1.015 -2.23,-1.152"
         style="fill:#c83737;fill-opacity:1;fill-rule:evenodd;stroke:#000000;stroke-width:0.10870087;stroke-miterlimit:4;stroke-dasharray:none;stroke-opacity:1" />
    </g>
  </g>
</svg>
