<svg xmlns="http://www.w3.org/2000/svg" width="282.357" height="239.045" viewBox="0 0 74.706932 63.247437"><g class="landxx coastxx gn" transform="matrix(1.3293 0 0 1.3293 -1537.215 -863.807)" fill="#c83737" fill-rule="evenodd" stroke="#000" stroke-width=".109"><title>Guinea</title><path d="M1156.74 664.77c-.43.548-.39 1.45.43 1.584-.22-.583-.1-1.087.36-1.512-.26-.02-.53-.05-.79-.07"/><path class="landxx gn" d="M1156.88 664.63c1-1.242.9-3.277 2.16-4.336.86-.717 2.51-.863 3.54-1.397 1.02-.533 2.07.113 3.12-.443.69-.366 1.27-1.024 1.17-1.841-.15-1.217-2.3-1.7-1.95-2.643.32-.846 2.03-.596 2.26-1.45.26-.958-.46-2.335-.2-2.632l3.61-.01c.53.135 1.11.533 1.49.562.28.09-.35 1.718.75 1.047.76-.46 2.33.597 2.75.929 0 .05 1.67.54 1.63.544 1.05-.101 1.8-.903 2.94-.779 1.66.182 3.32-.538 4.52 0-.58 1.163-1.45 2.022.12 3.337.89.747 2.21-2.106 3.25-1.712 2.5.949.88 3.943 3.07 1.45 2.81-3.195 4.53.464 5.59.195.63-.16 1.05-.76 1.63-1.243.47-.394 1.62-.505 1.85-.881.43-.726-1.34-2.442 1.11-1.813.52.135 1.78.733 1.69 1.718 0 .327.41 2 .64 2.218 1.16 1.099-.22 3.985 1.21 3.211.18 1.437 2.85 1.504 2.57 3.215-.64.03-.89-.01-1.3.483-.56.683-.9 1.582-1.13 2.422.75-.122 1.18-.736 2.03-.829 1.39-.149.98 1.629.94 2.617 0 .727-.34 1.919 1 2.665.25.14 1.37.875 1.55 1.533.23.885-.62 1.311-1.3 1.817-.44.327-.45 1.82-.44 2.498 0 1.259.45 4.065 2.2 2.947-.39 1.981-.18 1.693.94 3.024-1.35.203-1.35 1.324-1.73 2.376 2.05.337 1.86 2.096 2.37 3.672-1.05-.365-4.14-1.574-4.53-.546-.5 1.347 1.52 2.688 2.16 3.642-.76-.393-1.3 1.071-1.29 1.123.16.798.44.537.28 1.029-.16.499-1.03 1.774-1.02 1.88-.21-.184-1.3-.717-1.9-.188-.33.283.1-.563-.89-1.044-.94-.332-1.24 1.672-1.47 2.131-.67 1.33-1.16 1.607-2.64 2.197-.1-1.679-1.45-1.946-2.81-1.439.38-1.099.61-2.228.65-3.395 0-.445-.13-2.877-.27-2.651-.1.168-.27.61-.29-.842 0-.223-.52-1.025 0-1.656-2.31-2.651-2.48-1.225-2.85-1.413-.78.624-1.02.225-2.09.115-.74-.08-1.54.111-2.16.481-.38.229-1.99 1.078-2.16 1.44-.15-1.452 1.83-3.328 1.51-3.766-1.27-1.717.67-2.237-1.3-3.502-.6-.38.2-1.032-.1-1.57-2.1-3.868-2.9-6.868-7.64-6.155-1.27.192-1.58.591-2.71.847-1.97.451-2.59-.561-3.44 1.373-.67 1.549-1.23 3.344-2.21 3.781-.88.395-.94.716-1.34 1.589-.49 1.037-1.73.199-2.44.851-.1-.671.35-1.159 1.01-1.224a2.293 2.293 0 0 0-.58-.72c-.18.232-.34.472-.5.72-.1-.479-.1-.958-.1-1.44-.26.02-.52.05-.79.07.23-.891-1.07-1.06-.51-1.943-1.32 1.333-.67-2.117-1.15-2.448.1.578-.25.789-.79.647.23-.508.4-1.036.5-1.584-.31 1.06-1.01.692-1.66.217-.92-.676-.44-1.155-.79-2.088-.49.177-.82.513-1 1.008-.11-1.814-3.94-1.66-2.88-3.96-.32.118-.66.19-1.01.216.57-1.057.96-2.235 1.29-3.385-.43.437-.77.94-1 1.513-.12-1.171-.58-.57-.94 0-.17-.79-.28-2.463.72-2.808-.8.444-1.64.422-2.52.43"/></g></svg>