<?xml version="1.0" encoding="UTF-8" standalone="no"?>
<!-- Created with Inkscape (http://www.inkscape.org/) -->

<svg
   xmlns:dc="http://purl.org/dc/elements/1.1/"
   xmlns:cc="http://creativecommons.org/ns#"
   xmlns:rdf="http://www.w3.org/1999/02/22-rdf-syntax-ns#"
   xmlns:svg="http://www.w3.org/2000/svg"
   xmlns="http://www.w3.org/2000/svg"
   xmlns:sodipodi="http://sodipodi.sourceforge.net/DTD/sodipodi-0.dtd"
   xmlns:inkscape="http://www.inkscape.org/namespaces/inkscape"
   width="80.613174mm"
   height="107.17838mm"
   viewBox="0 0 80.613174 107.17838"
   version="1.1"
   id="svg26726"
   inkscape:version="0.92.0 r15299"
   sodipodi:docname="kenya.svg">
  <defs
     id="defs26720" />
  <sodipodi:namedview
     id="base"
     pagecolor="#ffffff"
     bordercolor="#666666"
     borderopacity="1.0"
     inkscape:pageopacity="0.0"
     inkscape:pageshadow="2"
     inkscape:zoom="0.35"
     inkscape:cx="1610.9113"
     inkscape:cy="365.39903"
     inkscape:document-units="mm"
     inkscape:current-layer="layer1"
     showgrid="false"
     fit-margin-top="0"
     fit-margin-left="0"
     fit-margin-right="0"
     fit-margin-bottom="0"
     inkscape:window-width="1920"
     inkscape:window-height="1017"
     inkscape:window-x="1912"
     inkscape:window-y="-8"
     inkscape:window-maximized="1" />
  <metadata
     id="metadata26723">
    <rdf:RDF>
      <cc:Work
         rdf:about="">
        <dc:format>image/svg+xml</dc:format>
        <dc:type
           rdf:resource="http://purl.org/dc/dcmitype/StillImage" />
        <dc:title></dc:title>
      </cc:Work>
    </rdf:RDF>
  </metadata>
  <g
     inkscape:label="Layer 1"
     inkscape:groupmode="layer"
     id="layer1"
     transform="translate(443.2292,-138.33344)">
    <path
       inkscape:connector-curvature="0"
       id="ke"
       class="landxx ke"
       d="m -442.28819,203.6743 c 2.02053,-1.47019 -3.03078,-7.59292 3.96129,-6.15596 0,-0.38151 0.41209,-1.17112 0,-1.89425 l 4.16069,-0.53967 c -2.75164,-4.18065 -3.948,-0.89995 -5.25071,0.24722 -1.12991,0.98102 -3.86824,-3.35911 -3.73531,-6.00441 1.06343,-1.91949 0.3589,-2.79151 2.33956,-4.59006 1.47552,-1.33593 2.64527,-5.73856 5.03802,-6.81395 1.12988,-0.51044 0.97038,-0.68458 0.90391,-1.68687 -0.13293,-1.5473 1.7015,-2.29171 2.10029,-3.66887 0.46524,-1.63633 0.59819,-3.23947 0.77099,-4.88114 0.13292,-1.47686 -1.34258,-2.52302 -1.66161,-4.17798 -0.69124,-3.71538 -2.97762,-4.52227 -3.32323,-6.15863 -0.26587,-1.29871 -0.9837,-2.4007 -1.42236,-3.63693 -0.29243,-0.5437 -0.45196,-1.12193 -0.49183,-1.7374 0,-0.82814 0.93049,-1.29872 0.67793,-2.18802 -0.22597,-0.78427 -1.07672,-0.99032 -1.74136,-1.23757 -1.5021,-0.55964 -0.3988,-1.70016 -1.99395,-1.538 0.65135,-1.49013 -1.20965,-2.9231 -1.02357,-3.96395 0.17282,-1.04481 1.44894,-1.861 2.15348,-2.60541 2.48577,-2.59878 5.51655,-1.85304 8.76005,-1.85304 1.87429,0 3.73531,-0.1542 5.59631,-0.17413 0.91723,0 1.86101,-0.0532 2.77823,0.0931 0.78427,0.11964 1.02354,1.49811 1.96734,1.86234 2.89786,1.1259 6.12806,-0.24859 9.09237,1.12458 3.08397,1.43697 6.39391,4.08227 8.81324,6.44573 1.22293,1.20435 2.20661,2.04979 3.97458,2.24386 1.15649,0.13294 3.77519,-0.58887 4.69241,0 2.52567,1.61908 6.4072,0.1808 8.61381,2.29835 0.30574,-1.50609 2.37945,-3.6981 3.30994,-4.99548 1.66163,-2.30767 5.21084,-3.23151 7.65674,-4.37471 2.61873,-1.21895 3.07068,1.65099 5.02474,2.79285 1.34259,0.78427 2.79151,0.27249 4.18727,0.0134 1.12991,-0.20605 2.48579,0.5397 3.54921,-0.0399 -1.63503,2.79283 -3.13713,5.84488 -5.11776,8.40377 -2.08701,2.70114 -3.97461,4.20458 -3.9613,7.83356 0,8.5726 0.13293,17.14388 0.13293,25.71783 0,6.42448 -1.28942,12.51663 3.03078,17.76603 1.46223,1.77992 3.65555,4.07825 2.087,6.41116 -0.91722,1.37583 -3.66887,3.8882 -5.39695,2.29969 -0.14621,0.34562 -0.26584,0.69522 -0.38547,1.05015 -0.27917,-0.33232 -0.53172,-0.68326 -0.75773,-1.05015 0.45198,1.04482 1.60847,2.97098 0.57162,4.02643 -0.18611,-2.60275 -1.26284,0.37884 -1.51539,0.97837 -0.54501,1.23092 -1.56858,1.46754 -2.75165,1.63368 -2.60541,0.36689 -3.65555,2.67057 -2.81809,4.86789 0.37219,1.00628 -1.46223,3.91743 -2.21993,4.53288 -1.28941,1.04883 -2.37943,8.10604 -3.81508,7.50254 0.62477,2.73303 -2.11358,4.67513 -2.57883,7.17687 -1.11659,-0.80954 -0.98367,0.60615 -1.91418,0.38682 -1.16978,-0.27651 -2.67189,-2.32228 -3.57579,-3.01085 -4.00119,-3.04541 -9.01263,-6.35803 -11.48511,-9.64535 -0.65136,-0.86938 -1.83443,-1.0076 -0.47854,-2.51238 1.92748,-2.12688 -1.44894,-4.69108 -3.17702,-5.77579 l -33.3254,-20.84332"
       style="fill:#c83737;fill-opacity:1;fill-rule:evenodd;stroke:#000000;stroke-width:0.14449541;stroke-miterlimit:4;stroke-dasharray:none;stroke-opacity:1">
      <title
         id="title287">Kenya</title>
    </path>
  </g>
</svg>
