<?xml version="1.0" encoding="UTF-8" standalone="no"?>
<!-- Created with Inkscape (http://www.inkscape.org/) -->

<svg
   xmlns:dc="http://purl.org/dc/elements/1.1/"
   xmlns:cc="http://creativecommons.org/ns#"
   xmlns:rdf="http://www.w3.org/1999/02/22-rdf-syntax-ns#"
   xmlns:svg="http://www.w3.org/2000/svg"
   xmlns="http://www.w3.org/2000/svg"
   xmlns:sodipodi="http://sodipodi.sourceforge.net/DTD/sodipodi-0.dtd"
   xmlns:inkscape="http://www.inkscape.org/namespaces/inkscape"
   width="41.629845mm"
   height="47.976677mm"
   viewBox="0 0 41.629845 47.976677"
   version="1.1"
   id="svg9554"
   inkscape:version="0.92.0 r15299"
   sodipodi:docname="liberia.svg">
  <defs
     id="defs9548" />
  <sodipodi:namedview
     id="base"
     pagecolor="#ffffff"
     bordercolor="#666666"
     borderopacity="1.0"
     inkscape:pageopacity="0.0"
     inkscape:pageshadow="2"
     inkscape:zoom="0.35"
     inkscape:cx="78.670569"
     inkscape:cy="90.664589"
     inkscape:document-units="mm"
     inkscape:current-layer="layer1"
     showgrid="false"
     fit-margin-top="0"
     fit-margin-left="0"
     fit-margin-right="0"
     fit-margin-bottom="0"
     inkscape:window-width="1920"
     inkscape:window-height="1017"
     inkscape:window-x="1912"
     inkscape:window-y="-8"
     inkscape:window-maximized="1" />
  <metadata
     id="metadata9551">
    <rdf:RDF>
      <cc:Work
         rdf:about="">
        <dc:format>image/svg+xml</dc:format>
        <dc:type
           rdf:resource="http://purl.org/dc/dcmitype/StillImage" />
        <dc:title></dc:title>
      </cc:Work>
    </rdf:RDF>
  </metadata>
  <g
     inkscape:label="Layer 1"
     inkscape:groupmode="layer"
     id="layer1"
     transform="translate(37.82385,-124.845)">
    <path
       inkscape:connector-curvature="0"
       id="lr"
       class="landxx lr"
       d="m -37.747305,143.4348 c 1.382468,-0.5091 1.422362,-2.69714 2.406034,-3.69676 1.807842,-1.83177 3.987875,-3.40034 5.702663,-5.32516 1.11662,-1.2615 0.332321,-2.94571 1.20965,-4.06365 1.302728,-1.65364 2.126873,-0.71383 2.990912,-3.15971 0.358925,-0.98635 0,-1.13257 0.239291,-1.34394 -1.807842,-0.60481 1.821132,-0.57025 2.738331,-0.25122 0.903933,0.30971 1.422361,-0.72581 2.27311,-0.6753 1.18307,0.0665 2.073689,1.47421 2.911148,2.14949 -0.558298,0.71514 -0.265871,1.41303 0,2.14546 0.212687,0.53971 -0.132923,1.79986 0.465244,1.20569 0.638062,2.81011 0.332321,5.33312 -0.584877,8.03957 1.807842,-0.67397 3.628973,-0.31772 3.735317,1.91284 2.166742,-0.86803 3.070652,-1.51273 3.7751866,-3.7579 0.199398,-0.66199 0.385504,-1.95408 1.276123,-2.08435 0.970383,-0.14488 1.847712,1.94609 2.193324,2.6998 1.236253,2.71973 1.236253,4.1833 0.784299,7.10109 -0.199398,1.29341 -1.010277,2.40735 -1.595154,2.57085 -0.770985,0.27251 -1.209651,1.08605 -1.342599,1.19504 0.132948,0.31504 0.638061,0.85474 2.180058,0.89062 -0.771012,2.80215 4.865203,0.51977 5.43681505,2.60543 0.199374,0.74307 -0.18610805,1.7706 1.355862,2.78753 1.22296495,0.80155 2.43261395,1.82777 2.88456995,3.09991 1.036857,2.95235 0,4.63126 -0.412086,6.16527 -0.930487,3.42293 -2.19332195,5.80103 -0.638062,9.02989 -1.58183995,0.29776 -2.83138195,-0.34829 -4.107508,-1.07673 -1.688208,-0.95974 -3.735316,-1.094 -5.263996,-2.35419 -2.791516,-2.29036 -6.4204886,-3.33387 -9.0126306,-5.90206 -2.884568,-2.86862 -5.184234,-6.28888 -8.121986,-9.10035 -0.930489,-0.88397 -7.749772,-3.24481 -6.141328,-4.77748 -1.236253,0.11964 -2.764934,-1.78791 -3.82837,-2.29701 -2.126873,-1.02091 -1.940766,-2.2053 -3.53592,-3.73267"
       style="fill:#c83737;fill-opacity:1;fill-rule:evenodd;stroke:#000000;stroke-width:0.14449541;stroke-miterlimit:4;stroke-dasharray:none;stroke-opacity:1">
      <title
         id="title1968">Liberia</title>
    </path>
  </g>
</svg>
