<?xml version="1.0" encoding="UTF-8" standalone="no"?>
<!-- Created with Inkscape (http://www.inkscape.org/) -->

<svg
   xmlns:dc="http://purl.org/dc/elements/1.1/"
   xmlns:cc="http://creativecommons.org/ns#"
   xmlns:rdf="http://www.w3.org/1999/02/22-rdf-syntax-ns#"
   xmlns:svg="http://www.w3.org/2000/svg"
   xmlns="http://www.w3.org/2000/svg"
   xmlns:sodipodi="http://sodipodi.sourceforge.net/DTD/sodipodi-0.dtd"
   xmlns:inkscape="http://www.inkscape.org/namespaces/inkscape"
   width="156.09949mm"
   height="157.51012mm"
   viewBox="0 0 156.09949 157.51012"
   version="1.1"
   id="svg45578"
   inkscape:version="0.92.0 r15299"
   sodipodi:docname="libya.svg">
  <defs
     id="defs45572" />
  <sodipodi:namedview
     id="base"
     pagecolor="#ffffff"
     bordercolor="#666666"
     borderopacity="1.0"
     inkscape:pageopacity="0.0"
     inkscape:pageshadow="2"
     inkscape:zoom="0.35"
     inkscape:cx="1296.4197"
     inkscape:cy="377.6569"
     inkscape:document-units="mm"
     inkscape:current-layer="layer1"
     showgrid="false"
     fit-margin-top="0"
     fit-margin-left="0"
     fit-margin-right="0"
     fit-margin-bottom="0"
     inkscape:window-width="1920"
     inkscape:window-height="1017"
     inkscape:window-x="1912"
     inkscape:window-y="-8"
     inkscape:window-maximized="1" />
  <metadata
     id="metadata45575">
    <rdf:RDF>
      <cc:Work
         rdf:about="">
        <dc:format>image/svg+xml</dc:format>
        <dc:type
           rdf:resource="http://purl.org/dc/dcmitype/StillImage" />
        <dc:title></dc:title>
      </cc:Work>
    </rdf:RDF>
  </metadata>
  <g
     inkscape:label="Layer 1"
     inkscape:groupmode="layer"
     id="layer1"
     transform="translate(360.01998,-91.244944)">
    <path
       inkscape:connector-curvature="0"
       id="ly"
       class="landxx ly"
       d="m -359.61491,127.45725 c -1.27613,-1.10199 1.4622,-2.39936 2.16674,-2.72772 2.14016,-0.99032 3.28336,-1.55791 4.57278,-3.65287 1.03683,-1.68422 2.08698,-2.50574 1.67489,-4.67513 -0.34561,-1.87033 -1.23623,-3.75528 -1.03683,-5.70668 0.25256,-2.67585 3.50934,-1.99127 4.02774,-3.90945 0.55832,-2.06704 2.24651,-3.13313 3.97461,-3.95465 1.31599,-0.63142 5.6229,-1.80516 5.66279,-3.636933 0,-0.917223 -0.89064,-1.484843 -0.7843,-2.459193 0.17282,-1.783916 0.23927,-3.575814 0.41209,-5.359729 1.71479,1.196359 4.02777,1.801196 5.87548,2.936413 1.94076,1.191054 4.13411,1.596493 6.39391,1.349243 2.27308,-0.249904 3.96129,-1.694854 6.30085,-0.846758 2.08698,0.756357 4.30691,0.834782 6.34073,1.701499 1.80784,0.772299 3.27007,2.166742 5.0912,2.88189 1.59515,0.626108 3.7619,-0.02658 5.18424,0.955778 1.67491,1.16046 1.99394,3.15175 2.31297,5.01541 0.41209,2.38476 1.35589,4.28566 3.2036,5.88745 3.36311,2.89253 7.51051,2.2146 11.55157,2.94706 4.04105,0.73642 9.81019,2.57748 13.06695,5.20684 2.59212,2.10292 4.98486,5.65347 8.70689,5.31981 4.28032,-0.38682 8.86639,-4.166 9.82349,-8.47025 0.43866,-1.9873 -0.90394,-3.53326 -1.51542,-5.32382 -0.66464,-1.974 -1.15647,-4.24311 -0.47853,-6.28623 1.23622,-3.74861 7.40416,-8.398471 11.32558,-8.53008 2.02053,-0.06647 3.2036,-1.534011 5.07789,-1.677572 1.91419,-0.146213 3.94801,-0.180777 5.82232,0.276508 2.18003,0.533033 4.08093,1.588486 6.15462,2.399365 2.45919,0.961085 1.80784,1.29472 1.92747,3.442869 0.13295,1.74005 2.89789,2.10825 4.1607,2.2013 2.43261,0.18346 4.00118,1.28545 6.24769,1.9368 2.23322,0.64736 4.57278,-0.10634 6.84586,0.3137 1.27613,0.23396 3.21689,2.79419 2.75165,4.13942 -0.47856,1.41968 -2.20664,1.78126 -2.44591,3.37907 -0.33232,2.20664 1.07673,3.843 1.46221,5.89542 0.43869,2.30898 -1.05012,4.35344 -1.83442,6.36068 -0.83746,2.12953 1.3426,4.65916 1.71479,6.86314 0.61148,3.75659 1.27612,7.30846 1.51539,11.16076 l 2.36616,100.07057 c -3.30994,0 -6.61988,0 -9.94312,0 0.13293,1.91285 0,3.83234 0.18609,5.74253 l -79.29237,-44.87828 -17.98536,8.61649 c -1.51539,0.41605 -3.38968,-2.06972 -4.26704,-2.9537 -3.722,-3.69943 -7.74977,-4.45579 -12.69474,-5.57906 -1.75468,-0.40142 -4.06764,-0.60615 -5.63621,-1.58184 -1.24954,-0.77366 -1.83442,-2.95634 -2.35285,-4.21918 -1.51539,-3.71005 -3.36313,-4.71899 -6.9921,-6.08551 -1.20965,-0.4533 -2.35285,-1.47683 -3.68213,-1.44227 -1.28942,0.0266 -2.68517,1.46753 -3.89482,0.15685 -0.9837,-1.06344 -2.6852,-3.79646 -2.71178,-5.26799 0,-3.07866 -0.34561,-4.20324 -2.04711,-6.82459 -1.3027,-2.02053 -5.63621,-5.60963 -3.77518,-8.29879 2.15345,-3.10257 5.4501,-1.91551 4.04105,-7.00406 -0.70453,-2.5456 -1.20967,-4.50099 -0.34563,-7.08381 0.7444,-2.21326 1.19636,-4.03972 0.37221,-6.32744 -0.85075,-2.40601 -0.1861,-4.81469 0,-7.25926 0.25256,-2.89786 -0.17281,-5.82098 -1.1432,-8.558 -0.82417,-2.34754 -2.03382,-4.55814 -3.48276,-6.57602"
       style="fill:#c83737;fill-opacity:1;fill-rule:evenodd;stroke:#000000;stroke-width:0.14449541;stroke-miterlimit:4;stroke-dasharray:none;stroke-opacity:1">
      <title
         id="title64">Libya</title>
    </path>
  </g>
</svg>
