<svg xmlns="http://www.w3.org/2000/svg" width="589.982" height="595.314" viewBox="0 0 156.09949 157.51012"><path class="landxx ly" d="M.405 36.212c-1.276-1.102 1.462-2.4 2.167-2.727 2.14-.99 3.283-1.558 4.573-3.653 1.036-1.685 2.087-2.506 1.674-4.675-.345-1.87-1.236-3.756-1.036-5.707.252-2.676 3.509-1.991 4.027-3.91.559-2.067 2.247-3.133 3.975-3.954 1.316-.632 5.623-1.805 5.663-3.637 0-.917-.89-1.485-.785-2.46.173-1.783.24-3.575.413-5.359 1.714 1.196 4.027 1.801 5.875 2.936 1.94 1.191 4.134 1.597 6.394 1.35 2.273-.25 3.961-1.695 6.3-.847 2.088.756 4.308.835 6.342 1.701 1.807.773 3.27 2.167 5.09 2.882 1.596.626 3.763-.026 5.185.956 1.675 1.16 1.994 3.152 2.313 5.015.412 2.385 1.356 4.286 3.204 5.888 3.363 2.892 7.51 2.214 11.551 2.947 4.041.736 9.81 2.577 13.067 5.207 2.592 2.103 4.985 5.653 8.707 5.32 4.28-.387 8.866-4.166 9.823-8.47.44-1.988-.903-3.534-1.515-5.324-.665-1.974-1.156-4.244-.478-6.287 1.236-3.748 7.404-8.398 11.325-8.53 2.02-.066 3.204-1.534 5.078-1.677 1.914-.147 3.948-.181 5.822.276 2.18.533 4.081 1.589 6.155 2.4 2.46.96 1.808 1.294 1.927 3.442.133 1.74 2.898 2.109 4.161 2.202 2.433.183 4.001 1.285 6.248 1.936 2.233.648 4.573-.106 6.846.314 1.276.234 3.217 2.794 2.751 4.14-.478 1.42-2.206 1.78-2.446 3.379-.332 2.206 1.077 3.843 1.463 5.895.438 2.31-1.05 4.354-1.835 6.36-.837 2.13 1.343 4.66 1.715 6.864.611 3.756 1.276 7.308 1.515 11.16l2.367 100.071h-9.944c.133 1.913 0 3.833.186 5.743L66.976 112.5l-17.985 8.617c-1.516.416-3.39-2.07-4.267-2.954-3.722-3.7-7.75-4.456-12.695-5.579-1.755-.401-4.068-.606-5.636-1.582-1.25-.773-1.835-2.956-2.353-4.219-1.515-3.71-3.363-4.719-6.992-6.085-1.21-.454-2.353-1.477-3.682-1.443-1.29.027-2.685 1.468-3.895.157-.984-1.063-2.685-3.796-2.712-5.268 0-3.078-.346-4.203-2.047-6.824-1.303-2.02-5.636-5.61-3.775-8.3 2.153-3.102 5.45-1.915 4.04-7.003-.704-2.546-1.209-4.501-.345-7.084.745-2.213 1.197-4.04.372-6.327-.85-2.406-.186-4.815 0-7.26.253-2.898-.172-5.82-1.143-8.558-.824-2.347-2.034-4.558-3.483-6.576" fill="#c83737" fill-rule="evenodd" stroke="#000" stroke-width=".144"><title>Libya</title></path></svg>