<?xml version="1.0" encoding="UTF-8" standalone="no"?>
<!-- Created with Inkscape (http://www.inkscape.org/) -->

<svg
   xmlns:dc="http://purl.org/dc/elements/1.1/"
   xmlns:cc="http://creativecommons.org/ns#"
   xmlns:rdf="http://www.w3.org/1999/02/22-rdf-syntax-ns#"
   xmlns:svg="http://www.w3.org/2000/svg"
   xmlns="http://www.w3.org/2000/svg"
   xmlns:sodipodi="http://sodipodi.sourceforge.net/DTD/sodipodi-0.dtd"
   xmlns:inkscape="http://www.inkscape.org/namespaces/inkscape"
   width="166.76074mm"
   height="170.78903mm"
   viewBox="0 0 166.76074 170.78903"
   version="1.1"
   id="svg49004"
   inkscape:version="0.92.0 r15299"
   sodipodi:docname="mali.svg">
  <defs
     id="defs48998" />
  <sodipodi:namedview
     id="base"
     pagecolor="#ffffff"
     bordercolor="#666666"
     borderopacity="1.0"
     inkscape:pageopacity="0.0"
     inkscape:pageshadow="2"
     inkscape:zoom="0.35"
     inkscape:cx="315.13841"
     inkscape:cy="322.75089"
     inkscape:document-units="mm"
     inkscape:current-layer="layer1"
     showgrid="false"
     fit-margin-top="0"
     fit-margin-left="0"
     fit-margin-right="0"
     fit-margin-bottom="0"
     inkscape:window-width="1920"
     inkscape:window-height="1017"
     inkscape:window-x="1912"
     inkscape:window-y="-8"
     inkscape:window-maximized="1" />
  <metadata
     id="metadata49001">
    <rdf:RDF>
      <cc:Work
         rdf:about="">
        <dc:format>image/svg+xml</dc:format>
        <dc:type
           rdf:resource="http://purl.org/dc/dcmitype/StillImage" />
        <dc:title></dc:title>
      </cc:Work>
    </rdf:RDF>
  </metadata>
  <g
     inkscape:label="Layer 1"
     inkscape:groupmode="layer"
     id="layer1"
     transform="translate(100.3893,-63.438803)">
    <path
       inkscape:connector-curvature="0"
       id="ml"
       class="landxx ml"
       d="m -100.33559,181.23596 c 1.794553,-0.43202 2.592118,0.5397 4.054349,-1.33327 1.23623,-1.58053 0.677932,-4.98352 1.289414,-6.95355 1.355887,-4.49965 7.616848,2.95504 8.25491,4.36275 1.19636,-3.27271 3.177019,-5.06594 6.938916,-3.53858 2.472484,1.00361 7.723191,0.82549 8.268201,-2.58812 1.40907,3.41361 8.347964,1.88758 11.073026,1.68022 6.646466,-0.50779 13.465749,-0.14755 20.138795,-0.14755 2.33956,0 5.237417,-0.27383 7.563689,-0.0399 1.701498,0.17415 1.209648,-2.66125 1.369176,-4.11815 0.186108,-1.65099 1.794553,-4.83066 0.132924,-5.92598 -2.977623,-1.89425 -2.180031,-3.56649 -2.153454,-5.97119 l -6.952205,-93.151589 h 17.613151 c 18.1980256,13.642534 35.279459,27.226601 52.507109,40.757489 2.07368,1.49545 5.95524,2.99487 5.67608,6.11075 -0.13293,0.97438 -0.23927,1.84372 1.51539,2.54426 0.85075,0.34031 1.79455,0.57826 2.51238,1.05945 1.19635,0.80289 0.99696,2.2465 1.96734,3.20759 0.90393,0.91455 1.86103,1.03951 3.0441,1.24421 0.85075,0.14755 0.22597,-0.78826 1.75465,-0.0266 1.10331,0.54635 1.58187,2.00325 2.8447,2.39939 1.95406,0.61944 4.57275,0.78428 6.39389,1.85701 1.32931,0.78296 0.9438,4.46244 0.37221,5.74387 -0.78427,1.7826 -1.92747,3.47347 0.91723,3.87891 2.99091,0.43068 6.39388,-1.16713 9.35821,-1.53536 -0.3855,8.16585 0.78428,16.83949 -0.27916,24.92694 -0.13292,0.93049 0.15953,1.56324 -0.53172,5.98978 -0.22598,1.44629 0.27916,-0.39879 -1.74137,3.85629 -0.62477,1.30669 -0.59816,2.88722 -1.15649,4.23512 -0.54501,1.29872 -1.82113,1.69486 -2.85796,2.4951 -1.26283,0.98233 -0.39879,2.27708 -2.14016,1.97932 -0.3988,-0.0665 -3.89485,-0.9983 -4.05435,-0.3948 -0.41209,1.57918 -11.3123,1.04481 -12.96064,1.17642 -4.04103,0.32169 -3.96129,-0.17416 -6.81925,2.95367 -0.89065,0.98236 -2.6586,1.33065 -3.92143,1.05283 -0.73111,-0.13295 -2.39272,-0.1489 -3.13712,-0.13295 -1.31602,-0.0266 -1.22297,-1.03683 -1.22297,0.61014 -0.95709,-0.36024 -1.87429,-0.8175 -2.8048,-1.2123 -2.27309,-0.94911 -2.8181,0.64205 -3.66885,0 -0.83745,-0.61679 -2.27311,-1.42633 -4.1474,0.24856 -1.95405,1.74539 -4.7987504,3.20095 -5.9153704,3.95069 -1.88758,1.2575 -3.25676,2.24916 -5.18424,2.73302 -1.58186,0.39746 -0.29245,3.74328 -2.63200997,2.7184 -1.435625,-0.63008 -2.75161803,-1.50476 -4.28032203,-0.44797 -1.302705,0.89992 -1.993926,2.55356 -2.472483,3.97459 -0.265849,0.81219 -0.638062,2.11623 -1.023544,2.8859 -0.332346,-0.22865 -2.445903,-0.7444 -3.2833616,-0.88399 0.7444046,1.34259 0,3.32722 0.1993966,4.7868 -1.3027016,-0.0399 -2.3395586,-0.25657 -2.0072396,1.33992 -1.382466,-0.13692 -5.34376,-2.14681 -5.263996,-3.82969 -2.525668,6.03633 -4.38667,3.19029 -3.110545,5.34109 0.704511,1.19105 0.731091,2.09231 0.438663,3.11853 -0.132948,0.41873 -3.137149,-0.10635 -2.406033,1.15649 1.355886,2.3369 0.757695,4.85325 -1.861003,7.06919 -1.222962,1.03152 -2.685171,0.61279 -4.160692,0.88131 -1.369176,0.24991 -2.153452,1.74802 -3.642262,1.67358 2.658589,0.6673 0.731115,2.05244 1.52868,2.52034 1.369177,0.79491 0.212688,4.31224 -0.545009,5.56843 -0.252556,0.41473 -1.674919,0.58887 -1.595155,0.98766 0.438666,2.01254 0.704538,4.49966 -0.691221,6.31149 -0.558321,0.72712 -2.180056,0.70052 -2.964331,0.91854 -1.648338,0.45726 -0.784275,2.64131 -2.871279,2.45121 -2.299666,-0.21135 -0.784276,-4.80141 -1.568575,-6.22109 -0.890619,0.36954 -1.063437,1.96868 -1.914186,2.20131 -0.890617,0.24191 -1.555258,-0.97969 -2.206612,-1.33993 0,1.08737 0.53172,3.81506 -1.116618,3.79113 -1.236232,-0.0134 -2.96431,0.0798 -1.940767,1.75999 -1.5021,0.66732 -5.277289,-1.19502 -5.077891,-3.06269 -0.771009,0.3443 -2.033818,-0.0532 -2.618721,0.65668 -0.930514,1.11394 -0.810856,2.44058 -2.645299,2.59743 1.355886,-2.52964 -3.123838,-2.90317 -3.137128,-5.05531 0,-1.37582 0.345612,-2.98159 0,-4.32019 -0.465243,-1.90888 -3.004201,0.32302 -3.88153,0.28181 0.332322,-1.22561 1.315995,-4.46244 3.163705,-3.82837 0.664668,-1.8464 -3.123835,-2.52832 -3.349813,-4.3069 -1.209648,0.68591 -1.103304,-0.67132 -0.98367,-1.44361 0.239265,-1.74405 -0.451956,-2.41534 -1.196362,-3.87623 -0.584901,-1.15118 0.146214,-2.78222 -1.196385,-3.45618 -0.531717,-0.26319 -2.366139,-1.28143 -2.911146,-0.76833 -0.598168,0.56363 1.329306,1.98197 0,2.59479 -1.462207,0.6939 -2.631987,1.87164 -4.107508,2.6134 -1.036857,0.51443 -2.193347,-0.96773 -3.030806,-1.31203 -1.821132,-0.74307 -3.230179,-0.61015 -4.519593,0.92786 -3.243469,3.86824 -1.462231,-0.7391 -4.280325,-1.6922 -1.834422,-0.61813 -3.761898,5.23476 -5.55645,0.71916 -0.571588,-1.44363 1.807842,-2.76493 0.651352,-4.39465 -0.664642,-0.9385 -0.146213,-3.17568 0.225977,-4.15804 0.412085,-1.15914 -3.110545,-7.7644 -3.841661,-4.89578 -0.824144,-0.23529 -2.153452,-2.80482 -2.512353,-3.58511 -0.332321,-0.70188 0.731116,-2.10827 0.691222,-3.49738 0,-2.08698 0.172817,-2.97495 -1.302704,-4.61662 -0.505138,-0.57027 -1.050147,-1.25088 -0.704511,-2.07237 0.584878,-1.40774 0.172793,-1.4064 -0.385506,-2.7902"
       style="fill:#c83737;fill-opacity:1;fill-rule:evenodd;stroke:#000000;stroke-width:0.14449541;stroke-miterlimit:4;stroke-dasharray:none;stroke-opacity:1">
      <title
         id="title373">Mali</title>
    </path>
  </g>
</svg>
