<svg xmlns="http://www.w3.org/2000/svg" width="467.272" height="545.284" viewBox="0 0 123.63248 144.27301"><g class="landxx coastxx mr" transform="matrix(1.3293 0 0 1.3293 -1520.695 -695.703)" fill="#c83737" fill-rule="evenodd" stroke="#000" stroke-width=".109"><title>Mauritania</title><path d="M1148.38 589.97c.51-.641.61-1.447.65-2.232-.58.553-1.08 1.421-.65 2.232"/><path class="landxx mr" d="M1144.14 579.89c-.21-1.377-.1-2.328.46-3.653.16-.371.67-1.265 1.64-1.315l27.88-.03c1.42-.747.44-6.909.35-9.281-.17-2.384-.41-3.937 1.5-5.746 1.6-1.514 1.54-1.128 6.63-3.207l1.12-21.833 24.87-.291.34-11.071c9.47 6.373 18.77 12.937 27.9 19.782h-13.21l5.42 72.911c.45 1.192 1.68 1.706 1.79 1.985.72 1.855-.23 2.415-.3 3.844-.1 1.675-.25 3.183-.74 3.363l-15.88.02c-9.03.312-12.89 1.548-13.69-1.121-.39 2.416-3.97 2.811-5.73 2.11-2.79-1.107-4.57-.64-5.71 2.498-.65-1.071-1.59-1.985-2.56-2.918-1.15-1.106-2.25-1.698-2.86-1.361-2.29 1.269.9 7.651-4.72 7.248 0 .102-1.51-1.093-1.92-1.876-.51-.967-1.09-.659-2.06-1.487-1.05-.897-.98-2.361-1.84-2.934-2.31-1.535-1.4-1.554-1.61-2.594-.27-1.282-1.57-2.914-2.22-2.923-3.4-.05-3.64-2.805-5.84-3.866-1.12-.536-2.08-.818-3.58-.867-2.33-.08-3.14 2.203-8.49 1.803-1.13-.08-.98-.838-1.94-.565-.93.342-2.03 3.346-2.4 4.133 0-5.202 3.42-9.445 3.92-14.544.29-3.07-.13-5.666-.52-8.672-.14-1.084-.1-2.273-.79-3.192-.6-.802-1.65-1.372-1.76-2.464.8.25 1.69-.345 1.59-1.224-.54.145-.97.552-1.16 1.08.2-1.044 1.04-1.777 1.5-2.694.29-.593-.14-1.541.21-1.938 1.57-1.792-.83-4.97-1.42-6.744-.24.428-.41.884-.5 1.368-1.59-1.202-1.21-3.688-2.81-4.896-.25 1.062-.64 2.092-.86 3.165"/></g></svg>