<svg xmlns="http://www.w3.org/2000/svg" width="404.384" height="712.001" viewBox="0 0 106.99333 188.38348"><g class="landxx coastxx mz" transform="matrix(1.3293 0 0 1.3293 -1993.796 -1130.668)" fill="#c83737" fill-rule="evenodd" stroke="#000" stroke-width=".109"><title>Mozambique</title><path d="M1537.42 948.12c.25-.717.4-1.477.36-2.24-.31.686-.66 1.476-.36 2.24M1544.98 922.99c.6-.574.46-.814-.43-.72.14.24.29.48.43.72"/><path class="landxx mz" d="M1499.91 889.36c5.54-2.081 11.09-4.114 16.66-6.104 1.25-.445 2.42-1.037 3.65-1.514.42-.161 1.48-.848 1.95-.702l4.16 4.651c0-.933 2.04-.607 2.98-.873.81-.228 2.03-.987 2.7-.125 1.23 1.594 1.24 5.456.6 7.223-.81 2.239-2.7 4.252-1.5 6.556.28.547.12 1.199.45 1.719.37.588 1.04.908 1.41 1.495.73 1.149 1.85 2.224 2.88 3.107.99.842.94.996.26 2.102-.72 1.181 1.62 1.626 1.77.04.15-1.546-.29-2.913-1.18-4.169 1.4-1.024.67-3.147 2.74-3.576 2.8-.581 3.05-1.803 3.06-4.626 0-1.027-.18-2.075-.12-3.1.1-1.67.98-3.514.26-5.152-.72-1.641-2.22-3.187-3.18-4.715-.9-1.421-1.77-2.95-2.91-4.201-.83-.918-.52-.08-1.27-.921-.22-.718.16-2.128-.3-3.522-.6-1.825.47-2.928.24-3.737-1.39-4.678-.55-3.533-.62-4.121.54-1.231 2.35-1 1.91-5.362 1.5.141 2.86.472 4.62-.04.99-.287 1.92-1.51 3.01-.807.75.486 1.12 1.415 1.91 1.84.61.326 2.64.438 3.32.265 1.12-.288 1.92-2.168 3.18-.797 2.35 2.544 5.16-.469 6.3-2.338.62-1.032 1.74-1.06 2.72-.441 1.59 1.009 1.97 1 3.48-.06 1.27-.885 2.26-1.508 3.9-1.185.95.187 2.77-1.628 3.66-2.03 1.74-.792 3.19-1.906 4.7-3.065 1.83-1.417 3.03.954 1.43 1.715.25.114.49.234.72.36-.72.938-.31 1.994-.72 3.02-.21.552-1.6 1.267-.78 1.85.68.482.52 3.061.61 4.059.1.748.14 1.51.1 2.261-.1 1.139-.46.853-.14 1.862.1.376 0 .746-.1 1.107-.15.698.29.91.47 1.514.27.878-.1 2.138-.66 2.827 2.01.285-.6 4.684.19 4.935 1.37.439 0 5.016.46 6.085 1.51-.895-.21 2.024.23 2.73.12-1.273 1.4-1.054 1.18.208-.24 1.368.1 2.338-1.33 3.112.25.202.52.392.8.57-1.65-.393-.23.208-.7.775-.3.358-.77.493-.96.955 1.59-.566.21 1.958 0 2.457-.8 1.685-2.5 2.619-3.32 4.293-.81 1.662-2.14 2.628-3.04 4.203-.69 1.208-5.39 2.839-5.22 4.153.1.608-3.54 1.23-4.24 1.664-.63.384-1.34.691-2.04.896-1.13.331-.94-.102-1.76.659-1.18 1.095-2.84 1.613-4.25 2.345-1.4.729-3.63 4.137-5.2 2.8 2.93 3.221-4.2 4.458-3.53 7.71-.61.08-1.02-.313-1.15-.87.14 1.143-.95 2.592-.79 1.01-1.38 1.189-3.03 2.005-4.15 3.473-.99 1.299-1.88 2.532-3.07 3.666-.48.459-2.4 2.476-3.08 1.641-.45-.538-1.01-2.383-2.01-1.799 1.72-.104 1.12 2.072 1.46 2.6.32.497.3 1.304.1 1.826-.1.275-.3.434-.59.474.22.414.29.854.22 1.32-.19 2.273.56 1.645 1.73 3.141.65.839.84 1.832.83 2.872 0 .403-.33 3.538.25 1.598-.44 1.693.68 3.523.86 5.25.1 1.035.47 2.118.3 3.163-.15.881-.53 1.86.42 2.458.17-1.109.12-2.108.87-3.03 0 .339 0 2.768.36.729-.21 1.171-.5 2.329-.6 3.516-.1 1.065.66 2.012.52 3.048-.37 2.827-2.4 5.553-1.94 8.556-.27-1.642.94.05 1.01-1.37 1.08 1.826-1.02 4.556-2.15 5.844-1.85 2.129-4.67 3.102-7.27 4.017-2.94 1.036-5.89 2.114-8.51 3.819-1.19.77-2.42 1.447-3.08 2.763-.57 1.129-.85 2.442-2.32 2.636.98-.01 2.55 3.49 3.38 1.37-.18 1.795.76 6.445-1.1 6.317l-4.47-.173c.1-1.472-.85-3.138-.61-4.278.19-.958-.27-1.885-.92-2.742-.48-.631-.37-2.158.13-3.362.28-.685.25-3.14.28-3.844.1-1.724.1-3.447.18-5.167.12-1.552-.23-2.587-.48-4.069-.38-2.22-1.89-4.035-2.35-6.196-.23-1.043-.1-2.143-.24-3.219a46.377 46.377 0 0 0-.96-4.388c-.27-.944-.69-.664-.16-1.361.53-.418 2.01-2.351 2.64-2.99.93-.951 5.26-7.046 6.4-6.217-1.14-1.483 0-2.342.36-3.82.23-.909-.66-2.178.34-2.774 1.39-.829 1.76-1.958 2.52-3.387.33-.611.51-1.128.75-1.788.37-1.041.1-1.841.14-2.851-.24.1-.48.193-.72.29-.53-1.048-.9-1.99-.7-2.571.25-.705 1.15-1.288.81-2.232-.29-.81-1.46-.522-1.13-1.824.25-.972 1.95-1.13 1.81-2.314-.24-2.035 1.03-1.272.91-2.606-.11-1.102-.72-2.15-.51-3.261.14-.781.65-1.649.46-2.428-.38-1.551-.25-2.602-.22-4.266 0-.541-.28-.933-.43-1.459-.22-.763.53-2.06.66-2.819-1.06.297-1.6.287-2.16-.751-.53-.982-3.56-1.065-4.35-1.519-2.43-1.399-4.75-2.857-7.36-3.596-.84-.236-3.46-.16-4.37-.378-1.48-.352-.88-2.754-1.02-3.856-.2-1.602-1.4-3.029-1.26-4.662"/><path d="M1572.12 900.88l.72-.5c0 .42-.1.827-.21 1.221l-.51-.721"/></g></svg>