<?xml version="1.0" encoding="UTF-8" standalone="no"?>
<!-- Created with Inkscape (http://www.inkscape.org/) -->

<svg
   xmlns:dc="http://purl.org/dc/elements/1.1/"
   xmlns:cc="http://creativecommons.org/ns#"
   xmlns:rdf="http://www.w3.org/1999/02/22-rdf-syntax-ns#"
   xmlns:svg="http://www.w3.org/2000/svg"
   xmlns="http://www.w3.org/2000/svg"
   xmlns:sodipodi="http://sodipodi.sourceforge.net/DTD/sodipodi-0.dtd"
   xmlns:inkscape="http://www.inkscape.org/namespaces/inkscape"
   width="158.47411mm"
   height="135.63943mm"
   viewBox="0 0 158.47411 135.63943"
   version="1.1"
   id="svg12968"
   inkscape:version="0.92.0 r15299"
   sodipodi:docname="niger.svg">
  <defs
     id="defs12962" />
  <sodipodi:namedview
     id="base"
     pagecolor="#ffffff"
     bordercolor="#666666"
     borderopacity="1.0"
     inkscape:pageopacity="0.0"
     inkscape:pageshadow="2"
     inkscape:zoom="0.35"
     inkscape:cx="299.47862"
     inkscape:cy="256.32649"
     inkscape:document-units="mm"
     inkscape:current-layer="layer1"
     showgrid="false"
     fit-margin-top="0"
     fit-margin-left="0"
     fit-margin-right="0"
     fit-margin-bottom="0"
     inkscape:window-width="1920"
     inkscape:window-height="1017"
     inkscape:window-x="1912"
     inkscape:window-y="-8"
     inkscape:window-maximized="1" />
  <metadata
     id="metadata12965">
    <rdf:RDF>
      <cc:Work
         rdf:about="">
        <dc:format>image/svg+xml</dc:format>
        <dc:type
           rdf:resource="http://purl.org/dc/dcmitype/StillImage" />
        <dc:title></dc:title>
      </cc:Work>
    </rdf:RDF>
  </metadata>
  <g
     inkscape:label="Layer 1"
     inkscape:groupmode="layer"
     id="layer1"
     transform="translate(96.24598,-81.013618)">
    <path
       inkscape:connector-curvature="0"
       id="ne"
       class="landxx ne"
       d="m -95.60082,185.2146 c -1.409072,-1.66429 0.239267,-4.69772 0.132923,-6.60393 1.688208,0.59418 3.788477,0.42538 5.556449,0.44531 2.100293,0.0266 2.632011,-1.05014 3.881531,-2.48976 1.488811,-1.73341 3.230179,-1.30139 5.370342,-1.46754 2.711775,-0.21269 5.436815,-0.46128 8.16188,-0.51578 1.289414,-0.0266 2.552248,-0.0266 3.841661,0.11964 2.525643,0.2951 0.146214,-0.77364 1.329282,-1.07539 1.887606,-0.4852 4.37338,2.06836 5.197549,-0.0931 0.717825,-1.89824 2.95102,-2.16144 3.695425,-3.87888 0.771009,-1.76132 0.744405,-3.64893 1.714789,-5.36637 2.033817,-3.58244 1.581864,-7.54906 1.781259,-11.64328 0.292452,-5.83561 0.199398,-11.68052 0.172818,-17.52143 0,-3.63029 0.292428,-4.57544 3.89482,-5.41421 3.190312,-0.74306 6.500254,-0.91854 9.677273,-1.7015 3.761896,-0.92387 6.23438,-4.61663 8.892971,-7.20476 3.868241,-3.76058 7.576979,-7.85614 11.844015,-11.17406 C -11.77555,102.8675 -2.1381734,96.743427 7.1402996,90.824086 11.51368,88.035225 15.71424,84.981855 20.08762,82.191655 c 4.09422,-2.612052 9.58422,0.06647 13.931,1.257528 3.81508,1.040824 6.87246,3.518638 9.47787,6.415157 1.1166,1.248205 1.46223,1.306695 2.83138,0.364231 1.95408,-1.334614 4.04106,-2.406034 6.07488,-3.59974 0.9571,5.075261 1.75468,10.042816 2.15345,15.181879 0.15953,2.04311 1.35589,3.45085 2.40604,5.11644 0.59819,0.95045 1.15649,1.9461 1.55528,2.99756 0.38548,0.98501 -0.69124,1.7826 0.15951,2.75697 1.09001,1.25352 2.92443,2.32094 3.3897,4.0158 0.57159,2.07369 -1.79455,4.21519 -1.98066,6.29022 -0.57159,6.18917 -1.55526,12.35711 -1.55526,18.5875 0,2.68519 -0.27916,5.35838 -0.35892,8.0409 0,2.15745 0.23929,4.79476 -0.49183,6.86315 -0.61148,1.78257 -2.39274,3.30196 -3.54923,4.75754 -1.861,2.36084 -3.89482,4.58341 -5.78243,6.92297 -3.11054,3.84697 -5.74253,8.25358 -7.47063,12.87287 -0.42535,1.11397 -0.9172,2.19865 -1.6749,3.12651 -0.37221,0.44266 -1.12991,0.31903 -1.40904,0.85874 -0.86404,1.68818 1.22294,6.4723 1.5021,8.33068 -0.91722,0 -2.1003,-0.23131 -2.92446,0.30574 -0.87733,0.57025 -0.73112,1.18307 -1.71479,1.62173 -2.2199,0.97569 -3.82837,1.87695 -5.50327,3.64626 -2.59212,2.72504 -4.12082,1.53931 -7.27123,0.26319 -3.66887,-1.4928 -6.97882,-1.6922 -10.90022,-1.79589 -3.3631204,-0.093 -6.2476904,0.52507 -8.7999374,2.83275 -0.877329,0.78561 -1.51539002,1.68687 -2.18003202,2.63863 -1.14320098,1.647 -1.83442198,0.60085 -3.48275998,0.75239 -3.868243,0.35491 -5.529845,-1.60046 -8.7600236,-2.89121 -2.352852,-0.94515 -5.064625,-4.27368 -7.909301,-2.76759 -1.076751,0.56893 -1.887606,1.51274 -2.93775,2.12288 -0.810879,0.46923 -2.086981,-0.23927 -2.445904,0.54367 -1.488813,3.21823 -4.094218,-0.76965 -4.705702,-2.10959 -1.422336,-3.15972 -3.628972,-4.36939 -6.832571,-4.94762 -1.821132,-0.32833 -3.203598,-1.87164 -5.064601,-2.04181 -1.661628,-0.15154 -2.312979,1.56193 -4.067638,1.52603 -3.177019,-0.0664 -6.074878,-0.32833 -8.387858,2.30765 -0.757695,0.86538 -1.55526,1.2881 -1.661604,2.47648 -0.172818,1.97002 -0.239268,3.62632 -1.422361,5.28527 -1.58184,2.23986 -3.522607,3.71937 -3.416263,6.69566 0,0.62611 -0.319032,6.98146 -0.704535,6.76344 -1.887606,-1.06475 -5.955244,-8.24293 -7.935878,-8.00235 -0.624773,0.0798 -0.877354,0.83347 -1.422363,1.0435 -0.731091,0.27916 -2.366139,0.0798 -2.857964,0.82283 -0.252581,0.38417 0.85075,3.56518 0.132924,3.54125 -0.664642,-0.0266 -2.219927,-2.85134 -2.538957,-3.37242 -1.023543,-1.70016 -0.225978,-2.04977 1.196359,-2.61739 -0.465244,-0.94645 -0.545008,-2.26245 -1.435627,-2.94571 -1.608444,-1.23226 -2.605406,1.33328 -4.280325,1.03817 -3.097255,-0.55031 -8.175171,-5.4594 -6.72623,-8.71616 0.864039,0.63142 1.714789,0.65534 2.671882,0.19273 -0.465244,-0.39081 -6.500253,-4.6246 -6.69965,-4.21519 0.438665,-0.89992 -1.794552,-2.58813 -2.086979,-3.59441 -0.491848,-1.73073 -0.132947,-3.34052 -1.741392,-4.54087"
       style="fill:#c83737;fill-opacity:1;fill-rule:evenodd;stroke:#000000;stroke-width:0.14449541;stroke-miterlimit:4;stroke-dasharray:none;stroke-opacity:1">
      <title
         id="title818">Niger</title>
    </path>
  </g>
</svg>
