<svg xmlns="http://www.w3.org/2000/svg" width="288.609" height="378.032" viewBox="0 0 76.361145 100.02096"><path class="landxx cg" d="M.069 87.62c.77-2.344 1.236-3.038 3.177-4.508 1.714-1.301 2.313 3.02 4.56 1.647.318-.196-.134-2.135.252-2.855.757-1.549-.851-1.896-1.782-2.482-.81-.518 1.49-5.61-2.087-4.616 1.25-1.71.891-3.754.373-5.65 1.449.34 2.047.187 3.443.209.624 0 .917.946 1.488.805 1.728-.42 4.772.027 4.374-2.567-.266-1.772-.864-5.539 2.525-3.715 1.237.666 3.43 4.36 2.632 5.748 1.582-.907 3.071 1.053 4.68.665 1.382-.334 2.711-2.567 3.07-3.829.425.775 1.183 5.111 2.154 5.029.717-.066 2.605-1.94 2.485-2.757-.133-.832.133-3.697.918-4.187 1.116-.653 2.18-2.785.757-3.734 1.928-.682.984-4.387.572-5.734-.638-2.059 1.489-4.34.505-6.16-.585-1.082-2.087-1.4-3.177-1.4-.598-.446 0-1.944-1.343-2.068-3.31-.32-.73-2.064-1.143-4.11-.279-1.408.213-4.18 1.516-5.122 1.369-.987 2.565-.486 3.442-2.35.678-1.447-.412-2.535-.943-3.792-.97-2.276-1.29-4.408-4.24-3.939-2.553.405-4.813 1.797-7.352 2.232.718-1.888 0-3.945-.239-5.853-.2-2.094 1.13-4.074 1.196-5.136 0-.856 10.223.27 11.113.175 1.715-.185 2.313.27 3.948.392 1.37.107 1.569 1.944 3.417 1.441 3.615-.989 7.39 1.577 9.863 4.005 1.17-1.663 0-2.896.133-4.65 0-1.451 1.502-2.315 2.02-3.58.745-1.782 1.635-3.517 2.074-5.407.346-1.517-.2-2.915.133-4.38.253-1.111.545-2.765 1.662-3.375 1.422-.782 3.216 0 4.732-.657C62.625.651 63.9-.478 65.749.38c1.795.84 3.03 1.594 5.078 1.263 2.499-.406 5.782-1.34 5.437 2.176-.306 3.006-2.42 7.175-3.855 9.751-1.688 3.026-1.675 5.018-1.702 8.524 0 1.943-.359 3.916-.943 5.783-.639 2.046-1.13 3.16-1.157 5.39 0 1.44-.133 2.843-.213 4.308-.133 1.446-.518 3.279-.864 4.687-.917 3.582.811 5.903-2.18 9.185-2.672 2.938-5.503 3.77-7.298 7.059-.864 1.562-1.581 3.253-2.273 4.967-1.276 3.184-4.346 3.663-4.147 5.605.306 3.19 0 6.307 0 9.846 0 3.44-1.529 8.737-4.799 9.311-1.196.21-2.432 1.468-2.818 2.728-.2.675-2.353 1.597-2.99 2.362-1.144 1.377-1.968 2.996-3.297 4.358-1.675 1.728-3.35-.326-4.334.945 0-1.232-1.117-3.458-.266-4.47.691-.807 1.024-1.533-.372-1.968-1.728-.538-4.094 3.059-5.583 1.082-.744.78-.612 1.759-.997 2.679-.518 1.223-2.154 1.675-3.03 2.585-.134-1.603-2.327-1.826-2.686-3.351-1.196 2.192-2.406-4.348-4.466-1.142-.705 1.1-1.875 1.006-2.739 1.755-.864.748-2.353 2.479-3.243 3.473-2.114 2.336-2.752-2.014-3.084-3.27-.89-3.275-4.44-6.128-6.846-8.381" fill="#c83737" fill-rule="evenodd" stroke="#000" stroke-width=".144"><title>Congo</title></path></svg>