<svg xmlns="http://www.w3.org/2000/svg" width="231.243" height="190.678" viewBox="0 0 61.18306 50.450123"><path class="landxx sn" d="M1.608 22.58a2.12 2.12 0 0 0-1.529.575c-.173-1.631 2.885-2.143 3.829-3.083 2.06-2.05 3.708-4.807 4.905-7.427.585-1.254 3.363-13.213 6.287-10.468 1.316 1.235 8.295 0 9.425-1.312 1.728-2.015 8.507.246 9.943 1.957 1.927 2.31 2.18 3.247 5.344 3.57 1.728.176 3.642 3.548 3.27 5.217-.16.772 2.353 2.133 2.791 2.95.545 1.019.825 2.205 1.622 3.077.784.854 2.38.958 2.898 2.01.77 1.536 3.07 2.388 3.283 4.181.133.803-1.236 1.744-.305 2.567.757.684 1.302 1.129 1.422 2.303.133 1.241 1.21 4.247.2 5.185-1.05.229-1.144.74-.28 1.533.2.585.545 1.077.997 1.473.917.513 0 1.507 1.316 1.87.691-2.717 2.871 2.002 3.257 2.748.558 1.112.877 1.951.558 3.242-.359 1.462.612 3.34.133 4.537-1.648-.711-3.456.401-5.197.093-1.835-.318-2.885.747-4.6.982-1.768.24-4.586-2.887-6.061-1.907-1.157.765-.731-1.395-.984-1.468-1.555-.461-1.037-.734-2.34-.736l-16.815-.027c-2.193 0-3.11.133-4.772 1.437-1.45 1.147-3.443 1.04-5.61.965-1.874-.066-3.177 1.05-4.932 1.33-.864.142-1.794-.15-2.565.385-.173-.433-1.103-1.375-.612-1.901 1.197-1.324 1.888-1.98 3.483-.968 1.196.765 2.699-.421 3.975-.446.93-.014 1.395.701 2.353.398.744-.235 1.09-.08 1.78.145 1.224.398 1.13-2.682 2.513-3.162-2.047.147-.864 1.886-2.113 2.775-1.077.766-3.962-.255-4.307-1.53-.745 3.212-7.165.874-5.743-.767-.598.863-.558 2.305-1.808 2.585-.212-.789 0-1.425.665-1.913-1.715.376-.758-2.19-.386-3.335.559-1.714 2.5-1.818 4.028-1.822l5.477-.013c1.01.562-1.157-.36.625-1.533 1.555-1.025 3.163-.324 4.692-.757 1.702-.483.798-2.905 3.057-1.501 3.15 1.963 6.301 4.014 9.957 2.8 1.396-.465 2.95-1.826 1.17-2.78-2.234-1.193-2.699.512-4.44.43-1.781-.08-1.316-2.736-3.363-1.922-.771.309-1.476-.763-1.728-1.278-.519-1.067-2.167-.696-3.164-.08-1.422.872-1.728-.501-2.473.272-.545.565-.345 1.284-1.05 1.671l-9.97-.053c.413-.822-.385-1.377-1.382-1.484.16-.793.678-1.113 1.436-.765-.173-.816-.133-1.614.186-2.393-.585 1.097-1.29 1.916-2.579 2.106-.346-1.065 2.752-3.798 3.828-3.924-1.17-.496-4.32 2.338-4.307 3.445 0-3.145-1.927-8.841-5.264-10.056" fill="#c83737" fill-rule="evenodd" stroke="#000" stroke-width=".144"><title>Senegal</title></path></svg>