<?xml version="1.0" encoding="UTF-8" standalone="no"?>
<!-- Created with Inkscape (http://www.inkscape.org/) -->

<svg
   xmlns:dc="http://purl.org/dc/elements/1.1/"
   xmlns:cc="http://creativecommons.org/ns#"
   xmlns:rdf="http://www.w3.org/1999/02/22-rdf-syntax-ns#"
   xmlns:svg="http://www.w3.org/2000/svg"
   xmlns="http://www.w3.org/2000/svg"
   xmlns:sodipodi="http://sodipodi.sourceforge.net/DTD/sodipodi-0.dtd"
   xmlns:inkscape="http://www.inkscape.org/namespaces/inkscape"
   width="30.756847mm"
   height="35.680527mm"
   viewBox="0 0 30.756847 35.680527"
   version="1.1"
   id="svg8981"
   inkscape:version="0.92.0 r15299"
   sodipodi:docname="sierraleone.svg">
  <defs
     id="defs8975" />
  <sodipodi:namedview
     id="base"
     pagecolor="#ffffff"
     bordercolor="#666666"
     borderopacity="1.0"
     inkscape:pageopacity="0.0"
     inkscape:pageshadow="2"
     inkscape:zoom="0.35"
     inkscape:cx="58.122993"
     inkscape:cy="67.427755"
     inkscape:document-units="mm"
     inkscape:current-layer="layer1"
     showgrid="false"
     fit-margin-top="0"
     fit-margin-left="0"
     fit-margin-right="0"
     fit-margin-bottom="0"
     inkscape:window-width="1920"
     inkscape:window-height="1017"
     inkscape:window-x="1912"
     inkscape:window-y="-8"
     inkscape:window-maximized="1" />
  <metadata
     id="metadata8978">
    <rdf:RDF>
      <cc:Work
         rdf:about="">
        <dc:format>image/svg+xml</dc:format>
        <dc:type
           rdf:resource="http://purl.org/dc/dcmitype/StillImage" />
        <dc:title></dc:title>
      </cc:Work>
    </rdf:RDF>
  </metadata>
  <g
     inkscape:label="Layer 1"
     inkscape:groupmode="layer"
     id="layer1"
     transform="translate(32.387304,-130.99307)">
    <g
       id="sl"
       class="landxx coastxx sl"
       style="fill:#c83737;fill-opacity:1;fill-rule:evenodd;stroke:#000000;stroke-width:0.10870087;stroke-miterlimit:4;stroke-dasharray:none;stroke-opacity:1"
       transform="matrix(1.3292939,0,0,1.3292939,-1586.9829,-763.37653)">
      <title
         id="title368">Sierra Leone</title>
      <path
         inkscape:connector-curvature="0"
         id="path2896"
         d="m 1172.52,693.667 c -0.1,0.168 -0.14,0.336 -0.21,0.504 0.97,0.304 1.93,0.721 2.95,0.864 0.17,-0.384 0.3,-0.916 -0.13,-1.191 -0.74,-0.473 -1.8,-0.127 -2.61,-0.177"
         style="fill:#c83737;fill-opacity:1;stroke:#000000;stroke-width:0.10870087;stroke-miterlimit:4;stroke-dasharray:none;stroke-opacity:1" />
      <path
         inkscape:connector-curvature="0"
         id="path2902"
         class="landxx sl"
         d="m 1169.57,681.426 c 0.61,-0.565 1.4,-0.07 2.09,-0.504 0.66,-0.419 0.48,-1.563 1.29,-1.8 1.33,-0.391 2.23,-2.965 2.65,-4.127 0.7,-1.941 2.75,-0.512 4.2,-1.481 1.24,-0.83 4.71,-0.894 5.95,0.02 1.19,0.88 1.77,2.383 2.54,3.602 0.41,0.636 0.85,1.286 1.12,1.995 0.19,0.519 -0.39,1.15 0,1.521 0.45,0.458 0.94,0.352 0.99,1.124 0,0.604 -0.19,1.652 0.27,2.138 0.65,0.683 -1.54,2.894 -1.41,4.063 0.16,-0.362 1.78,-1.212 2.16,-1.44 1.48,-0.89 1.24,0.33 0.88,1.446 -0.41,1.275 -2.28,0.927 -2.45,2.777 -0.16,1.772 -0.22,1.687 -1.2,2.721 -0.78,0.824 -1.54,1.642 -2.65,2.451 -1.5,1.09 -2.17,3.861 -2.83,3.661 -0.7,-0.214 -6.52,-3.345 -7.45,-4.128 1.62,0.461 0.35,-0.306 -0.1,-0.575 0.69,-0.484 1.59,-0.487 2.23,-1.08 -1.34,0.166 -3.28,0.371 -2.16,-1.584 -0.88,2.015 -1.97,-0.25 -2.73,-0.146 -0.53,0.07 -0.99,-3.461 -1.01,-3.887 -1.1,0.256 -2.83,-0.659 -2.02,-2.088 0.47,0.376 0.98,0.712 1.51,1.008 -1.26,-0.633 0.59,-1.711 1.3,-1.656 -0.29,-0.479 -0.16,-0.356 -0.1,-0.936 -0.65,1.307 -1.29,0.636 -2.09,0.144 -0.11,0.259 -0.21,0.522 -0.29,0.792 -0.94,-1.586 -0.16,-2.195 1.22,-2.52 -0.53,-0.702 -1.58,-0.64 -1.94,-1.513"
         style="fill:#c83737;fill-opacity:1;fill-rule:evenodd;stroke:#000000;stroke-width:0.10870087;stroke-miterlimit:4;stroke-dasharray:none;stroke-opacity:1" />
    </g>
  </g>
</svg>
