<?xml version="1.0" encoding="UTF-8" standalone="no"?>
<!-- Created with Inkscape (http://www.inkscape.org/) -->

<svg
   xmlns:dc="http://purl.org/dc/elements/1.1/"
   xmlns:cc="http://creativecommons.org/ns#"
   xmlns:rdf="http://www.w3.org/1999/02/22-rdf-syntax-ns#"
   xmlns:svg="http://www.w3.org/2000/svg"
   xmlns="http://www.w3.org/2000/svg"
   xmlns:sodipodi="http://sodipodi.sourceforge.net/DTD/sodipodi-0.dtd"
   xmlns:inkscape="http://www.inkscape.org/namespaces/inkscape"
   width="161.39159mm"
   height="145.54575mm"
   viewBox="0 0 161.39159 145.54575"
   version="1.1"
   id="svg33593"
   inkscape:version="0.92.0 r15299"
   sodipodi:docname="southafrica.svg">
  <defs
     id="defs33587" />
  <sodipodi:namedview
     id="base"
     pagecolor="#ffffff"
     bordercolor="#666666"
     borderopacity="1.0"
     inkscape:pageopacity="0.0"
     inkscape:pageshadow="2"
     inkscape:zoom="0.35"
     inkscape:cx="97.849112"
     inkscape:cy="960.76144"
     inkscape:document-units="mm"
     inkscape:current-layer="layer1"
     showgrid="false"
     fit-margin-top="0"
     fit-margin-left="0"
     fit-margin-right="0"
     fit-margin-bottom="0"
     inkscape:window-width="1920"
     inkscape:window-height="1017"
     inkscape:window-x="1912"
     inkscape:window-y="-8"
     inkscape:window-maximized="1" />
  <metadata
     id="metadata33590">
    <rdf:RDF>
      <cc:Work
         rdf:about="">
        <dc:format>image/svg+xml</dc:format>
        <dc:type
           rdf:resource="http://purl.org/dc/dcmitype/StillImage" />
        <dc:title></dc:title>
      </cc:Work>
    </rdf:RDF>
  </metadata>
  <g
     inkscape:label="Layer 1"
     inkscape:groupmode="layer"
     id="layer1"
     transform="translate(42.898173,-257.48905)">
    <path
       inkscape:connector-curvature="0"
       id="za"
       class="landxx za"
       d="m 59.675667,343.82762 c 1.26283,1.24954 1.15649,3.05739 2.18003,4.3468 0.89062,1.12989 0.5849,2.60541 1.51539,3.53592 1.16978,1.15649 4.22716,5.0646 6.24769,3.41629 0.89062,-0.71783 1.63503,-3.11055 2.2598,-4.14741 0.98367,-1.64831 2.6453,-1.31599 4.24046,-1.76797 1.16975,-0.319 3.65555,-1.3027 4.14737,-2.52564 0.63807,-1.56858 0.70454,-2.4592 1.82114,-3.84166 0.42537,-0.51843 1.75468,-1.94077 1.5287,-2.71175 -0.69124,-2.41933 -1.7015,-2.56554 -3.30994,-4.24046 -1.24955,-1.31599 -2.59214,-2.53896 -3.82837,-3.85495 -1.06344,-1.1432 -2.91115,0.65135 -3.88153,1.07673 -1.07673,0.46524 -1.59516,0.97038 -2.65859,1.55526 -1.23626,0.67795 -2.53896,0.43869 -3.52263,1.7015 -1.06344,1.36917 -1.59516,3.07067 -2.55225,4.51961 -1.09002,1.64832 -2.68517,1.83442 -4.18727,2.93773 m -102.50186,-12.24278 c 0.996962,-0.94381 2.512353,-0.74441 2.69846,-2.23322 0.172818,-1.24954 1.050147,-3.42958 2.37943,-3.84166 1.741393,-0.57161 1.528706,1.87429 2.725065,2.21993 2.060399,0.59816 0,2.65856 0.957093,3.90811 1.754658,2.20663 4.466408,2.40603 7.05855,3.23018 2.35285,0.7444 4.253746,-0.30575 6.553412,-0.25256 2.060398,0 2.871278,1.22294 4.998151,0.59819 -1.276124,-1.44894 0.30574,-1.67492 1.169779,-2.02053 1.183071,-0.46527 1.262835,-1.99395 2.764935,-2.43261 0.957094,-0.27916 2.964307,-0.41209 3.083941,-1.75469 l 0.917224,-41.35565 c 1.129911,1.59516 3.083964,2.3502 4.134112,4.01181 1.196358,1.8969 1.940766,4.41857 2.72504105,6.52018 0.784299,2.12157 1.488811,4.42788 0.465267,6.61458 -1.32930605,2.79816 -2.28639905,4.32818 -0.99698705,7.44671 2.273112,-2.63201 7.922588,1.36784 10.408388,-1.03951 0.39877,-0.3988 0.132922,-1.41969 0.691222,-1.59384 0.677931,-0.19541 1.262832,-0.0532 1.927473,-0.43202 1.714789,-0.98102 2.073715,-3.23417 3.854953,-4.29627 1.967368,-1.16713 3.230179,-2.45121 3.668866,-4.79342 0.398772,-2.03915 0.332322,-3.73401 2.007217,-5.25738 1.46223,-1.32663 3.363126,-1.59382 5.144362,-0.78827 1.475523,0.66464 3.602395,3.79116 4.998151,3.7526 3.150442,-0.0798 6.845864,3.70874 9.823485,1.3519 1.329309,-1.05546 3.336523,0.41208 4.998151,-0.82549 1.767948,-1.32266 2.4193,-3.53195 3.177021,-5.52721 0.41206,-1.05679 0.770986,-2.14547 0.943777,-3.2674 0.279162,-1.82381 -0.598167,-1.68955 1.262835,-2.21462 1.063435,-0.3044 4.213876,-0.83877 4.798753,-1.84637 1.050143,-1.8012 3.150443,-2.6094 4.027773,-4.51429 0.95709,-2.07502 0.545,-4.21918 1.96734,-6.17457 1.20967,-1.67358 2.56554,-1.82247 4.1474,-2.9178 1.60845,-1.12326 3.65556,-2.85265 4.89181,-4.40129 1.03683,-1.31999 1.74137,-3.34451 3.30994,-4.14475 1.58187,-0.80022 3.44287,-0.87334 5.09118,-1.47419 1.56858,-0.57558 1.52871,-1.27344 2.29969,-2.49507 0.65136,-1.03685 2.43262,-1.37317 3.52263,-1.60048 4.43983,-0.93049 7.15161,1.99261 11.4718,2.0232 3.854953,0.0266 7.351003,-1.45558 8.613843,3.26475 0.70451,2.63332 1.3027,5.31849 1.38246,8.05551 0,2.4911 1.58184,4.62993 2.48578,6.86714 1.92747,4.79077 1.46223,9.33962 1.20965,14.39757 -0.13293,1.94476 0,4.32686 -0.69122,6.38193 -0.34561,1.0023 -0.49185,0.94115 -0.13293,3.82837 0.1595,0.0798 -1.16978,-1.43032 -2.49908,-1.88492 -1.24955,-0.43202 -2.37943,-0.26984 -3.403,-0.25789 -0.83746,1.65231 -2.12688,1.31334 -3.09726,3.40699 -1.156463,2.52433 -2.206613,6.4032 -2.565533,6.12273 1.874313,1.69086 2.512373,3.04273 3.668863,4.37335 1.88758,2.16543 4.61265,3.31662 6.68634,1.26683 0.5583,-0.56095 -0.29245,-0.8627 1.76797,-3.73133 l 1.71479,0.0399 6.02169,0.20872 c -1.12988,5.03934 -2.57882,9.4845 -3.92142,14.48 -0.69122,2.57882 -2.0604,7.82953 -5.60961,7.57697 0.5583,1.26284 -1.09002,1.22294 -1.861,1.36918 -0.9438,0.19937 -1.75468,1.39576 -2.36617,2.0604 -2.14016,2.39272 -4.32019,5.22413 -5.303863,8.25491 -0.5583,1.7015 -2.0604,2.77822 -2.91115,4.3069 -1.32931,2.35285 -2.71178,4.67912 -4.25375,6.88576 -2.77822,3.97459 -5.75584,6.65976 -9.46458,9.70386 -3.08397,2.55222 -4.91839,6.26096 -8.00235,8.79991 -3.9214,3.23018 -7.77636,6.5667 -11.81742,9.63738 -3.1903,2.41933 -6.832566,5.31718 -10.940101,5.86219 -1.967343,0.27914 -3.9214,-0.81088 -5.862164,-0.21269 -1.409072,0.42538 -3.376416,2.12688 -1.435652,3.34981 -2.312956,1.02357 -4.865204,-1.91418 -7.031969,-0.43866 -2.525644,1.72808 -3.057361,2.75165 -6.513542,1.43565 -2.605408,-0.9837 -5.92864,-2.04713 -8.666996,-0.99699 -1.236228,0.46527 -0.611457,1.26284 -2.472483,0.5982 -1.103305,-0.3988 -3.004201,0.27913 -3.562499,-0.98367 0,0.1595 0,0.31903 0,0.47853 -2.818095,-0.45195 -7.311107,0.83746 -8.76005,3.45616 -1.249542,2.28639 -7.53710595,-0.13293 -9.531032,0.78429 -1.196359,0.51843 -2.459194,0.1728 -3.589105,0.70452 -1.355862,0.63806 -2.871277,1.95408 -4.067638,2.88457 -1.51539,1.16977 -0.917196,0.9438 -2.658589,0.49184 -0.757698,-0.19939 -1.621734,0.23927 -2.299668,-0.31903 -0.770985,-0.63806 -1.5021,-1.39576 -2.485772,-1.68821 1.741367,-2.39271 -3.615684,-2.48577 -4.785464,-2.68517 0.717801,-1.861 0,-3.52263 -2.246506,-3.11054 -1.502101,0.27916 -0.957093,2.04711 -0.917223,3.11054 -2.738331,-1.06343 -0.571588,-4.3069 -0.305741,-5.96853 0.225977,-1.43563 -0.558298,-2.92444 -1.289414,-4.10751 -0.412085,-0.67795 -3.815057,-5.39694 -1.555261,-3.21689 -0.970382,-0.97038 -0.545008,-2.03382 -1.980659,-2.02053 -1.20965,0 0.132924,-3.01749 0.252582,-3.44286 3.097231,1.82113 3.88153,-1.74139 3.94798,-4.12082 0.132948,-4.08093 -1.036832,-7.5238 -3.150415,-11.01985 -3.137126,-5.21084 -5.91535,-10.35521 -7.723192,-16.20411 -0.837459,-2.73833 -1.382467,-5.54315 -2.392744,-8.22833 -1.010252,-2.68517 -3.442866,-5.0646 -3.695423,-7.98903"
       style="fill:#c83737;fill-opacity:1;fill-rule:evenodd;stroke:#000000;stroke-width:0.14449541;stroke-miterlimit:4;stroke-dasharray:none;stroke-opacity:1">
      <title
         id="title1031">South Africa</title>
    </path>
  </g>
</svg>
