<svg xmlns="http://www.w3.org/2000/svg" width="480.811" height="384.213" viewBox="0 0 127.21467 101.65627"><path class="landxx ss" d="M7.953 43.68c0 .595-.173 1.207-.173 1.533 0 2.173 2.845 1.992 4.307 2.222 1.01.158 2.14.388 2.898 1.135.81.798 1.13 1.585 2.206 2.27 1.064.679 1.635 1.208 1.635 2.16 0 .874-1.342 1.826-.611 2.645 2.074 2.325 4.692 3.398 7.378 4.94 1.382.796.983 1.581 1.82 2.734.612.836 2.128 1.131 2.5 2.092.425 1.085-1.037 1.942-.24 3.07.44.628 1.556 1.11 1.556 1.987 0 2.063 2.18 2.43 3.815 3.613 1.435 1.038 3.695 1.446 3.881 3.55.133 1.384-.292 2.89.692 4.07.717.86 1.076 2.331 2.02 2.885 1.303.771 1.768 1.276 1.994 2.825.226 1.626 2.366 1.808 3.164 2.842.385.505 1.449.867 1.994 1.202 2.034 1.284 2.486.424 4.4-.804 2.898-1.864 3.31.132 5.822.337 2.512.209 1.795-4.874 4.812-2.272.997.855 1.143 1.96 1.861 2.905.665.883 1.196 2.04 1.954 2.855 1.662 1.817 6.46 2.485 4.972 5.72 1.342-.314 2.858-.255 3.057 1.433.585-1.445 2.433-3.674 4.307-3.25 1.143.258 1.648 1.755 2.964 1.165.745-.34 2.074-1.876 2.818-.849.984 1.364 1.702 2.006 3.483 2.647-1.143-2.72 4.72-2.347 7.364-3.729 1.476-.77 3.071 1.041 4.999 1.068.717 0 3.03-1.691 3.376-2.106 1.9-2.245 4.36-6.976 7.298-7.419 4.56-.69 10.102-.265 14.795-.52-.85-1.068-1.728-1.855-1.728-3.321 0-1.165.744-2.551.292-3.692-.385-1.007 0-.614-1.17-1.592-1.183-1.008-2.472-1.255-3.602.198-.731-.7-.399-1.783-1.263-2.267-.73-.409-.983-1.454-1.342-2.15-.984-1.88-1.05-3.987-2.008-5.844-.797-1.563-.717-4.109-2.3-5.31-1.462-1.102-2.193-2.256-3.336-2.785-.944-.431-2.193-3.426-3.456-4.945-1.13-1.362-2.047-2.495-3.948-3.48-1.715-.887-3.682-.51-5.317-1.46-2.486-1.448.452-2.484.718-4.002.319-1.872 0-3.197 2.22-3.296 1.488-.066 3.216.556 4.626.406 4.599-.494 2.738-5.9 2.499-8.919-.147-1.615-.187-3.215 0-4.796-3.39-1.132-2.858 2.624-3.045-3.05.958.804 1.57-2.319 1.01-2.881-1.74-1.743-3.083-5.204-5.476-7.004-.598-.45-1.794-.66-2.26-1.13-.212-.22.32-2.451.173-3.05-.319-1.249-1.927-7.446-1.409-8.47.505-1.027 1.41-4.587 1.41-5.593 0-.04-4.8-.273-5.318 0-.133.626.412 1.723 0 2.541-.625 1.257-5.49-.15-6.38.735-.134.08 2.538 2.367 2.711 2.542 1.33 1.327-1.223 5.88.798 7.455-.665 2.003-2.912 3.421-4.467 4.97-.837.833-.93 2.97-1.808 3.84-1.874 1.87-3.27 4.52-5.024 6.27-.346.34-1.662.227-2.14.227-.413 0-2.18-.136-2.38.053 0 .066-.346.614-.558.396-.771-.764-2.047-1.191-2.938-2.091-1.608-1.605-2.712-3.564-5.317-4.18-.917.552-2.579 1.29-3.496 2.203-.691.682.252 3.306-.226 3.785-.705.696-3.576.175-4.799.79-1.077.535-2.526 1.767-3.004 2.711-.173.35 0 1.18-.332 1.356-1.05.524-6.341 1.008-7.112.226-.718-.718-1.104-2.175-1.808-3.162-1.41.232-4.187.202-6.048-.17-.133-.027-.878-.257-1.01-.12-.665.656-5.344 2.196-6.5 1.808-.453-.15-1.702-.74-2.088-1.13-.598-.596-.226-2.428-.904-3.107-.186-.187-.625-.605-.797-.96-.266-.535-.293-1.37-.731-1.807-.24-.237-1.25-.054-1.53-.34-.318-.324-.225-2.549-.903-3.219-.492-.494-3.536.437-4.068.961-.757.762-2.751-.187-3.39.452-.903.892 0 2.785-.903 3.67-.559.567-1.41 1.072-1.968 1.64-.372.36-.438 1.164-.85 1.58-.386.384-.585.662-1.569 1.167-.598 1.866-.864.106-1.648.557-.2.338-.785.804-1.41.804H2.517c-.133 1.655-.492 2.534-1.05 2.946-.811 1.107-1.635 1.433-1.33 3.015.36-.133.705-.254 1.05-.382.28 1.064-.305 2.02-.664 2.966 1.741.318 5.73-.198 7.032 1.202.386.176.492.624.399 1.268z" fill="#c83737" fill-rule="evenodd" stroke="#000" stroke-width=".144"><title>South Sudan</title></path></svg>