<?xml version="1.0" encoding="UTF-8" standalone="no"?>
<!-- Created with Inkscape (http://www.inkscape.org/) -->

<svg
   xmlns:dc="http://purl.org/dc/elements/1.1/"
   xmlns:cc="http://creativecommons.org/ns#"
   xmlns:rdf="http://www.w3.org/1999/02/22-rdf-syntax-ns#"
   xmlns:svg="http://www.w3.org/2000/svg"
   xmlns="http://www.w3.org/2000/svg"
   xmlns:sodipodi="http://sodipodi.sourceforge.net/DTD/sodipodi-0.dtd"
   xmlns:inkscape="http://www.inkscape.org/namespaces/inkscape"
   width="127.21467mm"
   height="101.65627mm"
   viewBox="0 0 127.21467 101.65627"
   version="1.1"
   id="svg17541"
   inkscape:version="0.92.0 r15299"
   sodipodi:docname="southsudan.svg">
  <defs
     id="defs17535" />
  <sodipodi:namedview
     id="base"
     pagecolor="#ffffff"
     bordercolor="#666666"
     borderopacity="1.0"
     inkscape:pageopacity="0.0"
     inkscape:pageshadow="2"
     inkscape:zoom="0.35"
     inkscape:cx="240.40567"
     inkscape:cy="192.10634"
     inkscape:document-units="mm"
     inkscape:current-layer="layer1"
     showgrid="false"
     fit-margin-top="0"
     fit-margin-left="0"
     fit-margin-right="0"
     fit-margin-bottom="0"
     inkscape:window-width="1920"
     inkscape:window-height="1017"
     inkscape:window-x="1912"
     inkscape:window-y="-8"
     inkscape:window-maximized="1" />
  <metadata
     id="metadata17538">
    <rdf:RDF>
      <cc:Work
         rdf:about="">
        <dc:format>image/svg+xml</dc:format>
        <dc:type
           rdf:resource="http://purl.org/dc/dcmitype/StillImage" />
        <dc:title></dc:title>
      </cc:Work>
    </rdf:RDF>
  </metadata>
  <g
     inkscape:label="Layer 1"
     inkscape:groupmode="layer"
     id="layer1"
     transform="translate(80.616263,-98.005194)">
    <path
       inkscape:connector-curvature="0"
       id="ss"
       class="landxx ss"
       d="m -72.663458,141.68514 c 0,0.59552 -0.172793,1.207 -0.172793,1.53267 0,2.17339 2.844673,1.99262 4.306905,2.22258 1.010252,0.15819 2.140162,0.38816 2.897858,1.13522 0.810879,0.79759 1.12991,1.58452 2.206636,2.26909 1.063437,0.67927 1.635025,1.20834 1.635025,2.16144 0,0.87336 -1.342598,1.82512 -0.611482,2.64396 2.073713,2.32496 4.69241,3.39769 7.37758,4.93966 1.382469,0.79625 0.983673,1.58187 1.821132,2.73437 0.611481,0.83612 2.126872,1.13122 2.499087,2.09231 0.425376,1.08471 -1.036857,1.9421 -0.239291,3.06933 0.438689,0.62877 1.555284,1.11129 1.555284,1.98731 0,2.06305 2.180034,2.42993 3.815083,3.613 1.435626,1.0382 3.695422,1.44629 3.88153,3.55055 0.132924,1.38381 -0.292452,2.8899 0.691221,4.07029 0.717825,0.85874 1.076751,2.33027 2.02053,2.88457 1.302727,0.77101 1.767973,1.27613 1.993948,2.82476 0.225978,1.62573 2.36614,1.80785 3.163731,2.84203 0.38548,0.50514 1.448917,0.86671 1.993924,1.20169 2.033821,1.28408 2.485798,0.42403 4.39996,-0.80424 2.897881,-1.86365 3.309943,0.13295 5.82232,0.33765 2.512354,0.2087 1.794553,-4.87452 4.812044,-2.27177 0.996963,0.85474 1.143198,1.95939 1.861,2.9045 0.664667,0.88266 1.196384,2.04047 1.95408,2.85534 1.661604,1.81714 6.4603573,2.48446 4.9715473,5.71994 1.342599,-0.3137 2.857989,-0.2552 3.057385,1.43297 0.58488,-1.44492 2.432616,-3.67414 4.30690604,-3.25011 1.143201,0.25789 1.64831396,1.75466 2.96433296,1.16448 0.744405,-0.33899 2.073688,-1.87566 2.818093,-0.8481 0.983673,1.36384 1.701499,2.0059 3.482761,2.64661 -1.143201,-2.71973 4.7189887,-2.34751 7.3642907,-3.72867 1.475496,-0.77098 3.070651,1.04085 4.998126,1.06743 0.71783,0 3.03081,-1.69086 3.37642,-2.10559 1.90089,-2.24517 4.36009,-6.97614 7.29781,-7.41879 4.55949,-0.68991 10.10265,-0.26588 14.79506,-0.52109 -0.85075,-1.06743 -1.7281,-1.85435 -1.7281,-3.32057 0,-1.16445 0.7444,-2.55091 0.29245,-3.69146 -0.38548,-1.0076 0,-0.61414 -1.16978,-1.59248 -1.18307,-1.00762 -2.47248,-1.25487 -3.60237,0.19806 -0.73112,-0.6992 -0.3988,-1.78258 -1.26283,-2.26644 -0.73112,-0.40943 -0.98368,-1.45425 -1.3426,-2.1508 -0.98367,-1.87962 -1.05015,-3.98656 -2.00724,-5.84359 -0.79757,-1.56325 -0.7178,-4.10885 -2.29967,-5.31052 -1.46223,-1.10199 -2.19335,-2.25583 -3.33652,-2.78487 -0.9438,-0.4307 -2.19335,-3.42561 -3.45618,-4.94499 -1.12989,-1.36119 -2.04711,-2.49507 -3.948,-3.47874 -1.71479,-0.88797 -3.682139,-0.51178 -5.317164,-1.4609 -2.485797,-1.4476 0.451956,-2.48445 0.717802,-4.0025 0.319031,-1.87166 0,-3.19695 2.219932,-3.29534 1.48881,-0.0665 3.21688,0.55565 4.62593,0.40544 4.59936,-0.49316 2.73836,-5.8994 2.49909,-8.91823 -0.14624,-1.61509 -0.18611,-3.21555 0,-4.79608 -3.38971,-1.13256 -2.85799,2.62403 -3.0441,-3.05074 0.9571,0.80423 1.56858,-2.31829 1.01028,-2.88058 -1.74139,-1.7427 -3.08397,-5.20419 -5.47669,-7.00405 -0.598187,-0.4493 -1.794549,-0.65933 -2.259816,-1.12991 -0.212688,-0.22064 0.31903,-2.45121 0.172818,-3.04938 -0.319032,-1.24954 -1.927476,-7.4467 -1.409049,-8.47161 0.50514,-1.02619 1.409049,-4.586042 1.409049,-5.592326 0,-0.03987 -4.798753,-0.272517 -5.317183,0 -0.132924,0.626086 0.412086,1.722771 0,2.541606 -0.624771,1.25619 -5.4899737,-0.1502 -6.3805937,0.73511 -0.132948,0.0797 2.538934,2.36614 2.711752,2.54161 1.3292817,1.32663 -1.222941,5.88079 0.797565,7.45467 -0.664644,2.00325 -2.911149,3.42162 -4.46641,4.97023 -0.837459,0.83347 -0.930513,2.96964 -1.807842,3.84032 -1.874314,1.87033 -3.27007296,4.51962 -5.024729,6.27029 -0.345636,0.33896 -1.661631,0.22597 -2.140164,0.22597 -0.412083,0 -2.180056,-0.13557 -2.379454,0.0532 0,0.0665 -0.345612,0.61414 -0.558297,0.39612 -0.770985,-0.76434 -2.04711,-1.19103 -2.937729,-2.09097 -1.6084453,-1.60445 -2.7117763,-3.56384 -5.3171813,-4.17931 -0.917223,0.55168 -2.578827,1.28944 -3.496051,2.20264 -0.691221,0.68193 0.252582,3.30595 -0.225978,3.78451 -0.704511,0.69655 -3.575788,0.17547 -4.798753,0.79092 -1.076727,0.53437 -2.525643,1.76664 -3.004201,2.71044 -0.172794,0.3496 0,1.17908 -0.332322,1.35589 -1.050147,0.52373 -6.340723,1.0076 -7.111709,0.22597 -0.717825,-0.71782 -1.103331,-2.17472 -1.807842,-3.16239 -1.40907,0.23263 -4.187296,0.20205 -6.048298,-0.17016 -0.132922,-0.0266 -0.877329,-0.25655 -1.010251,-0.11963 -0.664668,0.65668 -5.343763,2.196 -6.500251,1.80784 -0.451956,-0.15021 -1.701499,-0.73908 -2.087005,-1.12989 -0.598167,-0.59554 -0.225978,-2.42731 -0.903909,-3.10658 -0.186108,-0.18742 -0.624771,-0.60481 -0.797589,-0.95974 -0.265848,-0.53571 -0.292425,-1.37049 -0.731115,-1.80784 -0.239267,-0.23662 -1.24952,-0.0532 -1.528681,-0.33897 -0.319031,-0.32434 -0.225977,-2.54959 -0.903909,-3.21954 -0.491848,-0.4945 -3.53592,0.43732 -4.067638,0.96108 -0.757695,0.76169 -2.751645,-0.18744 -3.389706,0.45196 -0.903933,0.89195 0,2.78487 -0.903933,3.67018 -0.558299,0.56628 -1.409048,1.0714 -1.967346,1.63901 -0.37219,0.36158 -0.438664,1.16445 -0.850749,1.58053 -0.38548,0.38417 -0.584878,0.66199 -1.568575,1.16713 -0.598167,1.86633 -0.864039,0.10634 -1.648314,0.55696 -0.199397,0.33765 -0.784275,0.80423 -1.409047,0.80423 h -5.928664 c -0.132923,1.65496 -0.491824,2.53363 -1.050122,2.94571 -0.810879,1.1073 -1.635048,1.43298 -1.329307,3.01484 0.3589,-0.13292 0.704535,-0.25389 1.050146,-0.38151 0.279161,1.06343 -0.305741,2.02053 -0.664642,2.96567 1.741368,0.31769 5.729243,-0.19808 7.03197,1.20167 0.385481,0.17681 0.491825,0.62477 0.398771,1.26816 z"
       style="fill:#c83737;fill-opacity:1;fill-rule:evenodd;stroke:#000000;stroke-width:0.14449541;stroke-miterlimit:4;stroke-dasharray:none;stroke-opacity:1">
      <title
         id="title9">South Sudan</title>
    </path>
  </g>
</svg>
