<svg xmlns="http://www.w3.org/2000/svg" width="410.929" height="468.425" viewBox="0 0 108.72509 123.93752"><g class="landxx coastxx tz" transform="matrix(1.3293 0 0 1.3293 -1989.245 -1020.855)" fill="#c83737" fill-rule="evenodd" stroke="#000" stroke-width=".109"><title>Tanzania, United Republic of</title><path d="M1569.66 811.66c.28 1.799.54 2.441 1.96 3.677.99.857 1.27-3.488-.31-2.167.26-1.105-.1-2.917-.65-3.891-.24.776-1.24 1.488-1 2.381M1572.9 828.72c.77-.697 2.06-1.152 1.58-2.45-.44 1.044-1.75 1.096-1.58 2.45M1573.4 802.8c.12.917.91 1.686-.15 1.8.25.156.49.322.73.5-1.49.845-.15 2.136.47.774.74-1.615.53-3.185-.98-3.793 0 .239 0 .479-.1.719"/><path class="landxx tz" d="M1497.66 806.27c.58-4.235.74-1.288-1.05-5.089-.34-.724.45-2.019.1-3.23 1.75-.185 2.04-.332 3.18-1.631.9-1.039 2.38-2.46 3.3-3.584.66-.815-.74-1.609-.46-2.206.35-.718 1.78-.138 1.53-.989-.17-.563 1.26-1.374 1.56-1.663.85-.826-.38-1.797.37-2.581-2.3.647-3.74-.736-2.45-2.8-1.25.12-.37-.797.1-1.524.59-.923 1.71-.558 2.2-1.5.91-1.756-.49-4.906-1.28-6.595-.55-1.181-2.47-3.884-.64-4.483 2.25-.737 7.27-.166 9.7-.09 1 3.783-.75 3.862-.62 4.301.46 1.515-.86 3.315-.81 3.687.79 1.06-.1 2.075.1 2.622.55 1.834 1 .38 1.22 4.853.12-.948.82-1.456 1.38-.425-.22-1.836 0-2.013 1.17-1.866-.87-.469-.3-1.525 1.05-2.276.26.264 1.57 3.073 2.95 1.278-.18.43.83.579 1 1.15.34 1.125.33 3.154-.65 2.708l.58.756c.49-.57-.39-.774 1.55-.931-1.17.211-2.93-6.385 3.14-2.609.26-1.617 4.37-3.452 3.12-3.578-1.5-.153-1.32.48-2.15.369-2.5-.335-2.39-.824-2.53-.714.6-.68 0-.679 2.66-.863-.23-.955-2.59-.435-2.03-.593.26-.233-.8-.633 2.09-1.021.32-.04.76-.555.62-1.135-.1-.353.35-.06.49-.244-1.14-1.199-.34-1.343-.1-1.497.27-.152.56.152 1.83.404-.25.03-.97-1.077-.39-1.723.35-.464 0 .508.33.08-.39-.286-.26-.953 0-1.303.29-.377.72-.79 1.01-1.169l22.84 14.321c1.93 1.227 4.34 2.11 4.92 4.465.25 1.01-.55.974-.76 1.84-.16.639.95 1.361 1.31 1.893 1.25 1.833 3.73 3.058 5.36 4.532.98.878 5.58 3.846 5.41 5.126-.28 2.054-1.02 4.363-1.87 6.255-.44.963-.9 1.917-1.21 2.929-.15.478-.25.966-.29 1.466 0 .684.59 1.309.48 1.916-.46 2.591 3.73 2.791 3.21 5.555 2.26-.717 1.96 1.962 1.11 3.036-1.35 1.708-.56 3.727-1.47 5.384 1.57-1.428 1.47 1.534 1.1 2.292-.54 1.113-.97 2.459-.8 3.71.15 1.158 1.84 3.108.57 3.358.96.184.4 1.979 1.15 1.905 1.21-.119.59 1.228.32 1.815-.48 1.086.78 1.485 1.01 2.477.12.552-.3.879 0 1.435.38.728.56 1.169-.18 1.798 1.26-.235 1.76.843 2.01 1.87-.12-1.794 4.28.793 2.88 2.777-3.03 2.336-5.69 3.707-8.49 5.429-1.01.355-1.16-.286-2.18.07-1.08.368-2.7 1.66-3.8 2.019-1.08.354-2.38-1.756-3.6-1.144-1.42.708-2.02 2.852-3.53 3.517-2.51 1.111-3 .261-3.79-.421-1.56-1.337-2.13 1.119-3.84.92-1.97-.229-2.64.04-3.73-1.327-.84-1.063-1.81-1.554-3.04-.416-.87.804-3.88.661-5.43.34-.15-.14-.22-.943-.42-1.239-.55-.813-1.1-1.631-1.56-2.532-.63-1.253-.2-2.616-.46-3.945-.35-1.774 0-3.415-.49-5.16-.46-1.819-1.6-3.504-3.04-4.628-1.41-1.095-1.69 1.029-1.56 1.355-1.43-1.546-2.78-.102-4.13-1.578-.42-.464-2.02-.584-2.64-.942-1.04-.608-1.98-1.106-3.55-1.336-.25-.04-.47-.422-.58-.643-.5-.615-.91-.467-1.55-.786-.59-.298-1.39-.197-1.98-.51-.54-.289-.67-.967-1.17-1.213-.41-.202-.88.288-1.31.162-.71-.206-.8-.955-1.18-1.475-.73-1.022-1.66-1.211-2.66-1.141-.47-1.054-2.95-6.113-4.09-9.162-1.06-2.813-.27-8.039-4.21-9.53-.59-.225-.11.452-.79.137-1.44-.667-2.89-2.294-.33-4.816.99-.972-.69-2.823-1.14-4.475"/></g></svg>