<svg xmlns="http://www.w3.org/2000/svg" width="74.049" height="219.537" viewBox="0 0 19.592175 58.085793"><path class="landxx tg" d="M.04.07C2.007.588 4.028.782 5.902 1.62c1.515.68 3.895.269 5.025-.263-.785 2.204-2.446 5.96-.665 8.09.997 1.207 4.68 2.574 4.839 4.211.239 2.449-.306 5.287.943 7.523 1.396 2.505 2.074 4.216 2.02 7.191-.132 5.18 0 10.329.134 15.512 0 .81.266 3.892-1.17 3.848.479 1.5.213 3.201.93 4.633.585 1.165 1.436 2.246 1.556 3.597-2.114.196-4.214 1.147-6.128 2.01 0-.983-2.46-2.219-3.124-2.807-1.396-1.26-2.486-2.122-3.363-3.746-1.21-2.206 1.13-4.37 1.063-6.618 0-1.498-1.715-1.654-1.409-3.099.36-1.742 1.343-2.718 1.117-4.636-.133-1.016-.332-2.069 0-3.075.2-.63 1.09-1.21.877-1.914-.585-1.971-2.579-2.831-3.283-4.634 2.22-.214.744-3.37 1.409-4.8.372-.786.452-2.106 0-2.897-.758-1.523-1.888.135-2.991-.053.611-.837 0-1.846 1.436-1.628-.306-1.578.81-4.288.279-5.608-.917-2.272.718-2.517-1.635-3.849C2.552 7.915.837 5.544.997 4.092c.133-1.14 1.183-1.855.73-3.088C1.543.512.439.49.054.072" fill="#c83737" fill-rule="evenodd" stroke="#000" stroke-width=".144"><title>Togo</title></path></svg>