<svg xmlns="http://www.w3.org/2000/svg" width="213.596" height="247.62" viewBox="0 0 56.513863 65.516045"><path class="landxx ug" d="M.506 62.047c.65-1.8.438-4.224.704-6.133.346-2.402.558-4.785.877-7.2.386-2.945 2.087-4.626 2.367-6.16.186-.936-.187-1.885 0-2.829.292-1.485 1.688-1.103 2.366-2.177 2.073-3.268 5.37-5.595 8.162-8.484 1.09-1.122 2.552-3.072 3.004-4.585.372-1.244-1.941-2.548-2.832-3.026-.717-.385-1.807.784-2.34-.395-.425-.935-.132-2.215.134-3.161.585-2.9-.492-5.244.97-7.907.426-.776-.625-.982-.359-1.801.28-.867 1.064-1.594 1.742-2.15.664-.545 1.449-1.042 2.352-.878.732.134 2.127 1.673 2.858 1.342.931-.422 2.313-2.147 3.31-.832 1.064 1.407 1.356 1.91 3.217 2.583-1.05-1.741 1.848-2.405 3.204-2.595 1.688-.236 3.602-1.587 5.25-1.396 2.247.262 2.938 2.252 5.398.547 1.767-1.222 2.99-3.058 4.333-4.693.784 1.057 1.622 2.562 1.143 3.924 1.595-.16.532.995 2.034 1.445 1.542.464 2.14.762 1.489 2.743-.838 2.576 1.741 5.345 3.07 8.4.266.598 1.822 2.614 1.782 3.135 0 1.102 1.236 2.737 1.515 3.81.465 1.905 0 4.5-.824 6.402-.705 1.623-2.06 1.862-1.715 3.751.173.98-1.409 1.594-2.127 1.958-1.422.717-1.488 2.628-2.34 4.043-.624 1.056-1.687 1.625-2.126 2.718-.598 1.48-1.143 2.564-1.821 4-.665-.04-3.097.766-2.712-1.359-1.542.584-1.05 1.027-1.688 1.125-1.888.29-1.914-.843-.505-.754-.36-.759-1.622-1.707-1.197-2.25-1.05.385-.359.106-1.808.648l.466.765c-1.263.336-.293 1.568-1.888 1.485.213 2.473-3.51 1.199-3.935 1.285-.132.04.2-2.221-.132-1.844-1.808 4.194-2.46 1.968-2.792 2.188 0 .891-.611.947-2.167 1.101-.718 1.034-2.446 1.009-2.3 1.374 1.356 3.471-1.502 4.046-1.954 6.483-.385 2.109.386 2.222.625 3.613-9.544 0 2.087.415-7.444-.296-3.296-.246-7.165.427-9.092 2.811-.665.829-1.609 3.15-2.778 2.384-.306-.203-.479-1.321-1.024-1.278-.93.067-2.42 1.102-2.858 1.415.226-.867 1.449-2.37.346-3.295" fill="#c83737" fill-rule="evenodd" stroke="#000" stroke-width=".144"><title>Uganda</title></path></svg>