<?xml version="1.0" encoding="UTF-8" standalone="no"?>
<!-- Created with Inkscape (http://www.inkscape.org/) -->

<svg
   xmlns:dc="http://purl.org/dc/elements/1.1/"
   xmlns:cc="http://creativecommons.org/ns#"
   xmlns:rdf="http://www.w3.org/1999/02/22-rdf-syntax-ns#"
   xmlns:svg="http://www.w3.org/2000/svg"
   xmlns="http://www.w3.org/2000/svg"
   xmlns:sodipodi="http://sodipodi.sourceforge.net/DTD/sodipodi-0.dtd"
   xmlns:inkscape="http://www.inkscape.org/namespaces/inkscape"
   width="118.79073mm"
   height="113.33153mm"
   viewBox="0 0 118.79073 113.33153"
   version="1.1"
   id="svg29014"
   inkscape:version="0.92.0 r15299"
   sodipodi:docname="zambia.svg">
  <defs
     id="defs29008" />
  <sodipodi:namedview
     id="base"
     pagecolor="#ffffff"
     bordercolor="#666666"
     borderopacity="1.0"
     inkscape:pageopacity="0.0"
     inkscape:pageshadow="2"
     inkscape:zoom="0.35"
     inkscape:cx="597.34356"
     inkscape:cy="611.31267"
     inkscape:document-units="mm"
     inkscape:current-layer="layer1"
     showgrid="false"
     fit-margin-top="0"
     fit-margin-left="0"
     fit-margin-right="0"
     fit-margin-bottom="0"
     inkscape:window-width="1920"
     inkscape:window-height="1017"
     inkscape:window-x="1912"
     inkscape:window-y="-8"
     inkscape:window-maximized="1" />
  <metadata
     id="metadata29011">
    <rdf:RDF>
      <cc:Work
         rdf:about="">
        <dc:format>image/svg+xml</dc:format>
        <dc:type
           rdf:resource="http://purl.org/dc/dcmitype/StillImage" />
        <dc:title></dc:title>
      </cc:Work>
    </rdf:RDF>
  </metadata>
  <g
     inkscape:label="Layer 1"
     inkscape:groupmode="layer"
     id="layer1"
     transform="translate(175.05608,-197.24495)">
    <path
       inkscape:connector-curvature="0"
       id="zm"
       class="landxx zm"
       d="m -174.98383,288.73196 c 0,-10.87893 0,-21.79243 0.17279,-32.67006 0,-1.16578 -0.3988,-3.56515 1.22296,-3.92008 1.42234,-0.30973 3.16371,0.0931 4.61265,0.13292 4.83862,0.13295 9.9697,0.96374 14.66211,-0.58753 -1.52868,-1.67891 -0.74441,-3.18235 0,-4.99815 0.87733,-2.20664 -0.29245,-3.93206 -0.17282,-6.13337 0.21269,-4.07428 1.95408,-8.74277 0.30574,-12.79577 1.52868,0.0266 1.36918,1.68686 2.96433,2.01388 1.75466,0.36155 0.97038,2.9683 0.29245,4.0211 2.11356,0.46393 1.91419,0.41074 3.97459,-0.48387 1.99392,-0.86934 4.28032,-1.41435 6.46036,-1.53666 -0.78428,1.53666 -0.39877,4.33482 0.82416,5.55645 0.9571,0.95843 2.51236,0.36822 3.69545,0.91189 1.72808,0.79094 2.9776,1.54599 4.94497,1.57257 3.16371,0.0399 6.10146,2.13218 7.21805,-1.89825 1.22297,-4.39197 2.52567,0.51712 4.05435,1.85039 1.03686,0.91056 0.89064,2.37279 1.64834,3.48009 1.20965,1.76797 2.53893,0.0931 3.58908,0.7843 1.59515,1.04615 2.20664,2.00057 3.93471,1.97133 2.03382,-0.0399 1.55529,3.28867 2.91115,4.54221 1.98066,1.83972 2.36614,3.38437 3.48276,5.73854 1.43563,2.97097 5.583031,-2.78619 7.151605,-0.86005 -0.691245,0.54501 -0.717825,1.45425 0.159504,1.80254 1.528705,0.61279 1.010277,-2.49245 1.023567,-3.15709 0.132924,-3.84964 0.239266,-7.7152 0.239266,-11.56619 -0.691222,0.26188 -1.462231,0.33232 -2.166742,0.55299 -1.222962,0.37752 -0.864039,1.42502 -1.382466,2.25184 -0.917224,1.43563 -4.944964,-1.8557 -5.875484,-2.82077 -2.79151,-2.91648 -5.99511,-5.30389 -4.3468,-10.14252 0.89065,-2.61738 1.64834,-4.78147 2.37943,-7.0067 0.50514,-1.53667 -0.5184,-4.09556 -0.37219,-5.82629 0.22598,-2.82077 1.62174,-8.77202 -2.15345,-9.93647 1.22294,-3.21159 8.00235,-4.99151 5.41021,-9.27716 5.583055,-1.19503 10.554602,-1.54463 16.93522,-2.963 0,1.07807 -1.329307,2.4499 -1.289413,2.72241 0.132924,0.57558 1.887606,-0.2353 0.983673,1.26814 0.186106,0.3589 0.877327,-1.56458 3.243469,0.79492 2.445904,2.43792 3.349837,0.82417 3.110545,-0.38948 2.725066,0.0266 3.416287,0.99166 4.546195,2.99223 0.49185,0.87336 1.050147,0.51709 1.794549,0.24859 0.97039,-0.34829 1.316,1.26415 2.10027,1.59781 1.60847,0.67528 4.57278,0.45064 5.09121,2.35151 0.15952,0.56762 1.23625,0.35758 1.90089,0.56497 1.10331,0.34427 2.07369,0.70051 2.47249,1.16978 0.41208,0.47055 0.3855,1.0528 0.1861,1.66294 -0.51843,1.60311 3.16371,0.99562 3.81506,3.38703 0.21269,0.7989 -0.41206,1.26548 -0.29242,2.00724 0.18608,1.1485 1.05014,1.56059 1.8477,2.26512 0.69123,0.61414 0.94381,2.69048 1.23626,3.54787 0.5583,1.60446 -1.32931,3.12917 -2.87128,3.6024 -1.68821,0.51443 -0.71782,1.81449 -0.29245,3.1039 0.63806,2.01654 -0.54501,3.08796 -0.61148,5.03137 -0.13292,2.79152 -1.36918,8.7667 2.12687,9.82084 -1.42233,1.52734 -5.78242,2.24916 -5.75584,4.81336 0,1.67625 0.43866,2.29703 0.13294,4.1926 -0.50514,2.75829 -2.2864,4.37868 -2.93775,6.3075 -0.3855,1.11129 0.87733,2.00324 1.71479,2.60141 1.23625,0.86538 1.80784,0.22866 2.28637,1.07675 -9.46455,4.41456 -19.607071,7.09577 -29.244448,11.02515 -1.236255,0.86538 2.113582,5.2547 1.488811,7.46265 -0.917223,0.10635 -3.469471,0.49185 -4.37338,0.13295 -1.754682,-0.7032 -3.82837,0.38283 -5.476681,0.93847 -2.36614,0.79226 -5.39695,2.18668 -5.90209,4.92104 -0.22597,1.16448 0,2.43393 -0.46524,3.53726 -0.74441,1.56724 -2.8181,1.75731 -4.25375,2.32228 -2.49906,0.97968 -5.86219,3.01484 -7.23134,5.36503 -1.39576,2.38343 -6.88576,12.81706 -11.00656,10.34988 -0.90393,-0.53837 -1.86102,-1.04216 -2.87127,-1.35988 -1.46223,-0.46525 -2.91115,1.46888 -4.06764,0.83081 -0.90393,-0.5038 -1.26284,-2.19332 -2.40603,-1.91818 -0.25256,0.0665 -3.19032,0.79626 -4.65252,-0.57823 -1.64834,-1.55794 -2.39275,-2.63466 -3.70874,-2.98692 -1.39575,-0.29245 -2.33956,1.17244 -4.87852,-0.33631 -2.02053,-0.31105 -3.41628,0.75903 -5.41021,0.91323 -1.02356,0.0797 -2.97762,0.86535 -3.64226,0.61545 -3.44289,-1.32264 -5.75585,-5.27994 -8.18846,-7.99437 -1.32928,-1.48747 -2.36614,-2.69182 -3.80177,-4.06897 -1.35589,-1.29339 -1.7281,-2.58548 -2.18005,-4.51161"
       style="fill:#c83737;fill-opacity:1;fill-rule:evenodd;stroke:#000000;stroke-width:0.14449541;stroke-miterlimit:4;stroke-dasharray:none;stroke-opacity:1">
      <title
         id="title845">Zambia</title>
    </path>
  </g>
</svg>
