<?xml version="1.0" encoding="UTF-8" standalone="no"?>
<!-- Created with Inkscape (http://www.inkscape.org/) -->

<svg
   xmlns:dc="http://purl.org/dc/elements/1.1/"
   xmlns:cc="http://creativecommons.org/ns#"
   xmlns:rdf="http://www.w3.org/1999/02/22-rdf-syntax-ns#"
   xmlns:svg="http://www.w3.org/2000/svg"
   xmlns="http://www.w3.org/2000/svg"
   xmlns:sodipodi="http://sodipodi.sourceforge.net/DTD/sodipodi-0.dtd"
   xmlns:inkscape="http://www.inkscape.org/namespaces/inkscape"
   width="78.120308mm"
   height="78.742188mm"
   viewBox="0 0 78.120308 78.742188"
   version="1.1"
   id="svg31296"
   inkscape:version="0.92.0 r15299"
   sodipodi:docname="zimbabwe.svg">
  <defs
     id="defs31290" />
  <sodipodi:namedview
     id="base"
     pagecolor="#ffffff"
     bordercolor="#666666"
     borderopacity="1.0"
     inkscape:pageopacity="0.0"
     inkscape:pageshadow="2"
     inkscape:zoom="0.35"
     inkscape:cx="731.91463"
     inkscape:cy="231.66127"
     inkscape:document-units="mm"
     inkscape:current-layer="layer1"
     showgrid="false"
     fit-margin-top="0"
     fit-margin-left="0"
     fit-margin-right="0"
     fit-margin-bottom="0"
     inkscape:window-width="1920"
     inkscape:window-height="1017"
     inkscape:window-x="1912"
     inkscape:window-y="-8"
     inkscape:window-maximized="1" />
  <metadata
     id="metadata31293">
    <rdf:RDF>
      <cc:Work
         rdf:about="">
        <dc:format>image/svg+xml</dc:format>
        <dc:type
           rdf:resource="http://purl.org/dc/dcmitype/StillImage" />
        <dc:title></dc:title>
      </cc:Work>
    </rdf:RDF>
  </metadata>
  <g
     inkscape:label="Layer 1"
     inkscape:groupmode="layer"
     id="layer1"
     transform="translate(210.66134,-131.38486)">
    <path
       inkscape:connector-curvature="0"
       id="zw"
       class="landxx zw"
       d="m -210.42746,156.58385 c 1.28941,0.30044 2.55224,0.57427 3.85495,0.10635 1.24954,-0.46126 1.86102,1.41172 2.67188,1.93147 0.87733,0.57292 2.41932,-0.83213 3.27007,-0.96506 1.1166,-0.17148 2.77823,1.07938 3.73532,1.49147 2.79151,1.19636 4.46641,-1.3519 5.96853,-3.37907 2.00722,-2.70779 4.00117,-5.24407 5.43679,-7.65541 0.69125,-1.16313 1.63505,-1.62572 2.67189,-2.43792 1.39575,-1.10065 2.93775,-1.79056 4.62595,-2.48976 3.27005,-1.36387 3.86825,-1.75468 4.06764,-5.47272 0.13293,-1.82245 3.13713,-4.07562 4.78544,-4.72963 1.55529,-0.61279 3.44289,-1.45556 5.1045,-1.51938 2.02053,-0.0798 4.06764,0.56098 6.06159,0.0532 0,3.80575 -0.31904,4.17264 3.89482,4.17264 2.63201,0 4.09424,0.64736 6.68636,1.68952 1.44891,0.57957 4.77217,2.51768 6.12803,3.24481 1.96737,1.05148 5.25071,0.6035 6.03501,2.26113 0.57159,1.22297 1.56855,1.31334 2.72504,0.96907 -0.29245,1.76795 -1.32928,2.78219 -0.50514,4.606 0.97041,2.14282 -0.22597,3.71405 0.42538,5.7226 0.65137,1.94875 -0.81086,4.11683 -0.39877,6.2344 0.29242,1.46754 1.18307,2.67454 -0.13295,3.84033 -0.95707,0.85206 -0.13292,2.84601 -0.63804,3.16373 -1.38247,0.77364 -1.7281,0.65666 -2.25982,2.37543 -0.22598,0.76301 1.03686,1.03951 1.40907,1.37982 0.31903,0.28977 0,1.41834 0,1.74536 -0.13294,0.78162 -0.75772,1.203 -0.98369,1.92482 -0.15951,0.56095 0.70453,2.65061 0.87735,3.27803 0.31903,-0.13292 0.62475,-0.25789 0.95709,-0.3855 -0.13295,2.08832 0.7178,2.91248 -0.54503,5.03405 -1.01025,1.70547 -1.66161,4.53687 -3.5625,5.42616 -2.0604,0.97172 -0.47854,2.28905 -0.86404,3.89749 -0.47853,1.96603 -2.00724,3.10656 -0.47853,5.07792 -1.59516,-1.15518 -8.78666,9.47254 -10.11594,10.32195 -1.24954,0.80025 -1.8876,2.56953 -2.41932,2.55758 -1.12989,-2.33425 -5.56974,-1.36652 -7.81625,-1.35988 -1.96735,0 -3.7619,-0.7537 -5.58303,-1.38113 -4.16069,-1.43696 -5.43681,-0.41208 -5.66279,-0.68192 -1.09002,-1.31602 -1.23625,-0.66866 -2.48577,-1.35854 -1.39576,-0.76702 0,-2.0006 -0.45198,-2.57885 -1.99393,-2.59212 -9.42469,-0.93183 -10.54129,-3.66351 -1.09002,-2.66792 -3.21689,-5.21617 -2.31298,-7.87742 1.24954,-3.65954 -0.54501,-4.497 -4.20056,-3.74727 0.65135,-3.46014 -0.25256,-4.87053 -3.45616,-5.82232 -2.53895,-0.75236 -5.92866,-3.58776 -7.351,-5.80102 -2.18006,-3.37376 -2.20663,-7.59295 -4.79875,-10.86833 -1.1432,-1.42898 -4.75889,-6.41649 -3.84166,-8.32403"
       style="fill:#c83737;fill-opacity:1;fill-rule:evenodd;stroke:#000000;stroke-width:0.14449541;stroke-miterlimit:4;stroke-dasharray:none;stroke-opacity:1">
      <title
         id="title1997">Zimbabwe</title>
    </path>
  </g>
</svg>
