<?xml version="1.0" encoding="UTF-8" standalone="no"?>
<!-- Created with Inkscape (http://www.inkscape.org/) -->

<svg
   xmlns:dc="http://purl.org/dc/elements/1.1/"
   xmlns:cc="http://creativecommons.org/ns#"
   xmlns:rdf="http://www.w3.org/1999/02/22-rdf-syntax-ns#"
   xmlns:svg="http://www.w3.org/2000/svg"
   xmlns="http://www.w3.org/2000/svg"
   xmlns:sodipodi="http://sodipodi.sourceforge.net/DTD/sodipodi-0.dtd"
   xmlns:inkscape="http://www.inkscape.org/namespaces/inkscape"
   width="93.597923mm"
   height="105.33424mm"
   viewBox="0 0 93.597923 105.33424"
   version="1.1"
   id="svg30727"
   inkscape:version="0.92.0 r15299"
   sodipodi:docname="botswana.svg">
  <defs
     id="defs30721" />
  <sodipodi:namedview
     id="base"
     pagecolor="#ffffff"
     bordercolor="#666666"
     borderopacity="1.0"
     inkscape:pageopacity="0.0"
     inkscape:pageshadow="2"
     inkscape:zoom="0.35"
     inkscape:cx="176.87796"
     inkscape:cy="199.05683"
     inkscape:document-units="mm"
     inkscape:current-layer="layer1"
     showgrid="false"
     fit-margin-top="0"
     fit-margin-left="0"
     fit-margin-right="0"
     fit-margin-bottom="0"
     inkscape:window-width="1920"
     inkscape:window-height="1017"
     inkscape:window-x="1912"
     inkscape:window-y="-8"
     inkscape:window-maximized="1" />
  <metadata
     id="metadata30724">
    <rdf:RDF>
      <cc:Work
         rdf:about="">
        <dc:format>image/svg+xml</dc:format>
        <dc:type
           rdf:resource="http://purl.org/dc/dcmitype/StillImage" />
        <dc:title></dc:title>
      </cc:Work>
    </rdf:RDF>
  </metadata>
  <g
     inkscape:label="Layer 1"
     inkscape:groupmode="layer"
     id="layer1"
     transform="translate(63.807889,-96.166211)">
    <path
       inkscape:connector-curvature="0"
       id="bw"
       class="landxx bw"
       d="m -63.735687,176.80781 1.12991,-31.87647 h 9.065766 l 1.276123,-42.33005 c 3.203599,-0.77629 11.36548,-1.25616 16.017997,-2.865946 1.44894,-0.501146 4.998151,-1.253536 6.447091,-0.421383 1.967344,1.125919 2.339536,3.469449 3.296629,5.314509 2.552248,-2.01654 4.559485,-6.145323 7.576976,-6.215764 1.129911,-0.0266 1.010277,0.63407 1.834423,0.748373 1.076751,0.147552 1.701498,-1.318647 2.499087,-1.795867 2.592118,-1.544648 5.2905788,-1.32663 4.8386228,-0.390811 -0.132921,0.264533 0,1.740054 0.132924,2.055093 0.691246,1.744026 1.661629,3.408306 2.80483,4.893126 1.116594,1.45424 2.020504,2.23455 2.844673,4.73892 0.598194,1.78925 0.824169,2.16808 1.342599,3.86693 1.076724,3.56649 3.668842,6.61455 6.912311,8.28548 3.442891,1.76928 6.5800152,1.40639 5.410237,6.87512 3.1371252,-0.73246 5.5830282,-0.36557 4.2271662,3.7978 -0.46527,1.43297 -0.305742,2.52165 0.518403,3.76854 0.890643,1.35321 1.515415,4.57543 2.951041,5.0194 2.85799,0.89064 5.343763,0.74175 8.414438,1.78657 2.273086,0.775 0.305742,1.84508 1.010253,3.01218 0.531717,0.90128 2.565538,0.61548 2.884567,1.90754 -3.575788,0.44266 -3.004201,1.20169 -4.333483,3.04941 -1.475523,2.06439 -5.503291,1.03685 -7.25795,2.91913 -1.568574,1.69617 -2.884567,4.53556 -5.011438,6.2078 -0.239268,0.18611 -1.063437,0.95178 -1.927477,1.55925 -1.4356502,1.01028 -3.0174912,1.37981 -4.1208222,2.61872 -1.448916,1.65231 -1.741368,2.13617 -1.993926,4.61929 -0.305739,3.0494 -2.087002,3.74196 -4.25374301,6.31948 -1.262835,1.51405 -3.36312699,1.93412 -5.49000099,2.28107 -1.541971,0.2499 -0.624748,0.84408 -0.93049,2.33289 -0.385503,1.95807 -1.329306,3.73266 -1.967367,5.60963 -0.94378,2.78621 -2.4192998,3.75791 -5.2772888,3.51066 -2.578828,-0.22333 -2.273086,1.63105 -5.596319,0.90128 -1.329306,-0.2898 -4.479724,-1.76664 -5.609632,-1.84241 -1.648315,-0.10634 -2.725042,-1.13655 -3.668845,-2.32493 -1.422337,-1.76797 -5.263997,-3.06269 -7.257947,-0.49584 -1.821132,2.34754 -1.010277,4.96624 -2.69846,7.37892 -0.82417,1.19105 -2.00724,2.00855 -3.12386,2.77689 -1.382443,0.94779 -1.781238,2.47781 -2.964307,3.57581 -0.877329,0.81884 -1.621735,0.4639 -2.605432,0.8627 -0.319031,0.27916 -0.358901,0.6035 -0.279137,1.06743 -0.385504,1.05944 -1.980659,1.35321 -2.911148,1.2934 -1.475521,-0.0931 -2.29969,-0.46259 -3.722027,-0.57426 -1.289414,-0.10635 -2.445904,-0.60881 -4.094243,0.76037 -2.406009,-4.59539 2.618722,-6.67572 0.864039,-12.92074 -0.664641,-2.36882 -1.608444,-4.99815 -2.831384,-7.13831 -1.063436,-1.86899 -3.137125,-2.7995 -4.360089,-4.53291"
       style="fill:#cbe6a3;fill-opacity:1;fill-rule:evenodd;stroke:#000000;stroke-width:0.14449541;stroke-miterlimit:4;stroke-dasharray:none;stroke-opacity:1">
      <title
         id="title284">Botswana</title>
    </path>
  </g>
</svg>
