<?xml version="1.0" encoding="UTF-8" standalone="no"?>
<!-- Created with Inkscape (http://www.inkscape.org/) -->

<svg
   xmlns:dc="http://purl.org/dc/elements/1.1/"
   xmlns:cc="http://creativecommons.org/ns#"
   xmlns:rdf="http://www.w3.org/1999/02/22-rdf-syntax-ns#"
   xmlns:svg="http://www.w3.org/2000/svg"
   xmlns="http://www.w3.org/2000/svg"
   xmlns:sodipodi="http://sodipodi.sourceforge.net/DTD/sodipodi-0.dtd"
   xmlns:inkscape="http://www.inkscape.org/namespaces/inkscape"
   width="18.715635mm"
   height="24.70644mm"
   viewBox="0 0 18.715635 24.70644"
   version="1.1"
   id="svg27864"
   inkscape:version="0.92.0 r15299"
   sodipodi:docname="burundi.svg">
  <defs
     id="defs27858" />
  <sodipodi:namedview
     id="base"
     pagecolor="#ffffff"
     bordercolor="#666666"
     borderopacity="1.0"
     inkscape:pageopacity="0.0"
     inkscape:pageshadow="2"
     inkscape:zoom="0.35"
     inkscape:cx="-417.48902"
     inkscape:cy="598.11791"
     inkscape:document-units="mm"
     inkscape:current-layer="layer1"
     showgrid="false"
     fit-margin-top="0"
     fit-margin-left="0"
     fit-margin-right="0"
     fit-margin-bottom="0"
     inkscape:window-width="1920"
     inkscape:window-height="1017"
     inkscape:window-x="1912"
     inkscape:window-y="-8"
     inkscape:window-maximized="1" />
  <metadata
     id="metadata27861">
    <rdf:RDF>
      <cc:Work
         rdf:about="">
        <dc:format>image/svg+xml</dc:format>
        <dc:type
           rdf:resource="http://purl.org/dc/dcmitype/StillImage" />
        <dc:title></dc:title>
      </cc:Work>
    </rdf:RDF>
  </metadata>
  <g
     inkscape:label="Layer 1"
     inkscape:groupmode="layer"
     id="layer1"
     transform="translate(-93.451708,-282.37892)">
    <path
       inkscape:connector-curvature="0"
       id="bi"
       class="landxx bi"
       d="m 93.521406,287.51096 c 1.249544,-4.03707 3.442867,0.37618 3.748608,0.41339 4.466436,0.51843 5.357056,-0.93981 5.729266,-5.39826 2.4459,2.1056 1.67489,-0.94246 7.20476,0.97837 -0.93051,0.45461 -3.30994,3.03743 -1.46223,2.95635 -1.55526,4.07693 1.52871,4.23646 3.25679,3.72203 -1.05015,1.6018 1.3027,2.27442 -0.94381,3.87887 -1.38246,0.99166 -1.3426,0.43468 -1.64831,2.21993 -0.13295,0.43866 -1.7015,0.22065 -1.96737,0.78827 -0.30574,0.63141 0.97038,2.07768 0.82417,2.47779 -0.13293,0.26054 -0.79759,1.64035 -1.95406,2.49509 -1.83444,1.33992 -2.087,2.91913 -4.02777,4.16999 -0.95709,0.61679 -1.94076,0.79891 -2.79151,0.80025 -0.345611,-1.1618 -2.419324,-5.53387 -2.818119,-6.96818 -0.584877,-2.0697 0.239292,-4.21251 -1.143175,-6.00972 0.159503,-1.01427 0.664641,-2.25183 -0.146238,-3.37641 -0.717801,-0.99431 -1.528681,-1.93013 -1.861002,-3.14776"
       style="fill:#cbe6a3;fill-opacity:1;fill-rule:evenodd;stroke:#000000;stroke-width:0.14449541;stroke-miterlimit:4;stroke-dasharray:none;stroke-opacity:1">
      <title
         id="title1617">Burundi</title>
    </path>
  </g>
</svg>
