<?xml version="1.0" encoding="UTF-8" standalone="no"?>
<!-- Created with Inkscape (http://www.inkscape.org/) -->

<svg
   xmlns:dc="http://purl.org/dc/elements/1.1/"
   xmlns:cc="http://creativecommons.org/ns#"
   xmlns:rdf="http://www.w3.org/1999/02/22-rdf-syntax-ns#"
   xmlns:svg="http://www.w3.org/2000/svg"
   xmlns="http://www.w3.org/2000/svg"
   xmlns:sodipodi="http://sodipodi.sourceforge.net/DTD/sodipodi-0.dtd"
   xmlns:inkscape="http://www.inkscape.org/namespaces/inkscape"
   width="105.91685mm"
   height="182.81546mm"
   viewBox="0 0 105.91685 182.81546"
   version="1.1"
   id="svg14115"
   inkscape:version="0.92.0 r15299"
   sodipodi:docname="chad.svg">
  <defs
     id="defs14109" />
  <sodipodi:namedview
     id="base"
     pagecolor="#ffffff"
     bordercolor="#666666"
     borderopacity="1.0"
     inkscape:pageopacity="0.0"
     inkscape:pageshadow="2"
     inkscape:zoom="0.35"
     inkscape:cx="200.15784"
     inkscape:cy="345.47795"
     inkscape:document-units="mm"
     inkscape:current-layer="layer1"
     showgrid="false"
     fit-margin-top="0"
     fit-margin-left="0"
     fit-margin-right="0"
     fit-margin-bottom="0"
     inkscape:window-width="1920"
     inkscape:window-height="1017"
     inkscape:window-x="1912"
     inkscape:window-y="-8"
     inkscape:window-maximized="1" />
  <metadata
     id="metadata14112">
    <rdf:RDF>
      <cc:Work
         rdf:about="">
        <dc:format>image/svg+xml</dc:format>
        <dc:type
           rdf:resource="http://purl.org/dc/dcmitype/StillImage" />
        <dc:title></dc:title>
      </cc:Work>
    </rdf:RDF>
  </metadata>
  <g
     inkscape:label="Layer 1"
     inkscape:groupmode="layer"
     id="layer1"
     transform="translate(69.967356,-57.425583)">
    <path
       inkscape:connector-curvature="0"
       id="td"
       class="landxx td"
       d="m -69.856621,160.91804 c 0.358901,-0.89595 1.236254,-0.69387 1.701498,-1.41968 0.398795,-0.64206 0.518429,-1.54463 1.16978,-2.02452 0.81088,-0.6035 0.957093,-2.89253 1.302704,-3.80177 1.861026,-4.91573 6.074878,-9.40875 9.4114,-13.36473 3.070676,-3.62365 6.553436,-6.68899 6.792703,-11.58613 0.292451,-6.13602 0.412085,-12.28533 0.837459,-18.41471 0.345611,-4.73493 0.132924,-10.965343 2.445904,-15.161913 1.355863,-2.416646 0.465244,-3.545218 -1.16978,-5.432824 -0.465269,-0.53571 -1.050146,-0.957093 -1.528705,-1.487472 -0.810855,-0.917223 0.252581,-1.740053 -0.132923,-2.685195 -0.85075,-2.185339 -2.632012,-3.877539 -3.642264,-5.956558 -0.864039,-1.75865 -0.305741,-3.89616 -0.505138,-5.782427 -0.319031,-3.118529 -1.24952,-6.128037 -1.728078,-9.219985 0,-0.358901 -0.664642,-1.632372 -0.159504,-1.879623 l 10.940081,-5.193556 79.186049,44.826463 0.81085,43.84675 c -2.6187,-0.81219 -2.85796,-0.48785 -5.59632,-0.0532 -1.80784,0.28578 -4.160689,0 -4.745569,1.69751 -0.425374,1.23891 0.770985,3.59441 -0.132948,4.79211 -0.850749,1.12857 -2.140162,4.99148 -3.934714,5.61625 -2.047108,0.70853 -1.222939,4.2564 0.239292,5.65749 -3.309943,2.65326 -5.463395,4.3162 -2.897857,8.01564 1.741365,2.50171 -2.312983,3.55985 -3.429577,5.66411 -0.757722,1.44494 -1.063437,1.94475 0.132924,3.10789 0.98367,0.99031 2.685169,-0.0665 3.748606,-0.0665 1.342573,0 2.459194,0.63276 1.595154,1.67891 -1.249545,1.52338 1.289413,3.33387 0.305742,6.00442 0.34561,-0.17414 0.691222,-0.33364 1.050121,-0.47854 0.771009,1.23492 -0.132924,2.63201 -0.132924,3.92408 0,1.47683 0.186108,1.49546 1.129911,2.52034 0.837459,0.92917 2.871279,0.42272 3.017491,2.9497 0,1.12458 -1.036855,3.16638 -0.704535,4.44781 -0.571588,-0.97303 -3.336523,-1.9062 -4.546172,-1.27478 -0.731115,0.37353 -1.728078,0.69122 -2.206638,1.39575 -0.584877,0.8667 -0.704511,0.31638 -1.355862,1.04351 -1.050145,1.16578 -3.575812,0.87732 -3.948004,2.70111 -0.146238,0.75105 0.451953,1.38512 0.212687,2.16144 -0.810879,2.59477 -3.150438,3.66619 -5.0380455,5.37964 -1.5021,1.36518 -2.259795,3.29 -3.61566,4.7868 -2.379454,2.65061 -4.04105798,3.24746 -7.417475,4.50231 -1.914184,0.7125 -6.699623,1.02357 -8.7201535,0.83081 -0.691245,-0.0665 -4.918387,0.92918 -3.402996,2.06705 0.651351,0.49584 2.406009,0.82816 2.00724,2.00324 -0.45198,1.3519 -2.03382,3.25944 -3.070677,4.22848 -0.82417,0.75904 -1.555285,2.65728 -2.592115,2.91383 -1.967371,0.48786 -4.3468,0.10634 -6.380621,0.29245 -2.671879,0.23793 -4.665829,0.90126 -6.965495,2.3196 -1.262835,0.77897 -3.615684,1.46223 -4.213875,2.96699 -0.90391,-1.30271 -2.166742,-2.22124 -2.578828,-3.82837 -0.837459,0.30174 -1.236229,1.40374 -1.635024,2.10562 -0.279162,0.49716 -1.914187,0.63139 -2.472484,0.87468 -2.751645,1.20831 -3.695447,0.99431 -6.619885,1.03817 1.54197,-1.93546 -0.186108,-2.64396 -0.731116,-4.45845 -0.757695,-2.46584 -1.409047,-5.23078 -3.044071,-7.29517 -1.382468,-1.75998 -3.296653,-2.98826 -5.011441,-4.38401 -1.714788,-1.38912 -2.658592,-3.07998 -4.041059,-4.72832 -0.943803,-1.1219 -3.323233,-3.24346 -2.193347,-4.87318 1.1432,-1.65097 1.701499,-2.82343 3.841661,-2.72373 2.392745,0.10635 4.745595,1.08471 7.125024,0.27651 1.036857,-0.35493 1.967346,0.16882 2.897859,0.54367 0.864038,0.34561 2.087002,-0.45196 2.884568,-0.68723 -4.74557,-2.64131 -6.965496,-9.01129 -6.726229,-14.21149 0,-1.18838 0.664641,-2.13883 0.784275,-3.26874 0.132948,-1.17243 -0.172793,-2.35285 -0.212687,-3.52263 0,-0.88397 0.159527,-2.33423 -0.358901,-3.11585 -0.398795,-0.61413 -1.528681,-0.15819 -1.462231,-1.19504 0.132948,-1.36784 -0.451955,-3.20626 -0.731091,-4.54751 -0.199398,-0.96773 -1.581865,-1.11663 -2.273111,-1.54465 -2.206613,-1.3665 0.598192,-3.43357 -3.761898,-4.08758 -1.036856,-0.15684 -0.731115,0.66065 -1.861001,-0.20073 -1.555285,-1.83973 -3.628974,-5.42749 -4.173982,-6.41516 -1.448941,-2.65594 -1.236254,-5.93132 -1.807842,-8.81055"
       style="fill:#cbe6a3;fill-opacity:1;fill-rule:evenodd;stroke:#000000;stroke-width:0.14449541;stroke-miterlimit:4;stroke-dasharray:none;stroke-opacity:1">
      <title
         id="title886">Chad</title>
    </path>
  </g>
</svg>
