<?xml version="1.0" encoding="UTF-8" standalone="no"?>
<!-- Created with Inkscape (http://www.inkscape.org/) -->

<svg
   xmlns:dc="http://purl.org/dc/elements/1.1/"
   xmlns:cc="http://creativecommons.org/ns#"
   xmlns:rdf="http://www.w3.org/1999/02/22-rdf-syntax-ns#"
   xmlns:svg="http://www.w3.org/2000/svg"
   xmlns="http://www.w3.org/2000/svg"
   xmlns:sodipodi="http://sodipodi.sourceforge.net/DTD/sodipodi-0.dtd"
   xmlns:inkscape="http://www.inkscape.org/namespaces/inkscape"
   width="29.875317mm"
   height="31.959162mm"
   viewBox="0 0 29.875317 31.959162"
   version="1.1"
   id="svg23871"
   inkscape:version="0.92.0 r15299"
   sodipodi:docname="equatorialguinea.svg">
  <defs
     id="defs23865" />
  <sodipodi:namedview
     id="base"
     pagecolor="#ffffff"
     bordercolor="#666666"
     borderopacity="1.0"
     inkscape:pageopacity="0.0"
     inkscape:pageshadow="2"
     inkscape:zoom="0.35"
     inkscape:cx="49.314395"
     inkscape:cy="343.25239"
     inkscape:document-units="mm"
     inkscape:current-layer="layer1"
     showgrid="false"
     fit-margin-top="0"
     fit-margin-left="0"
     fit-margin-right="0"
     fit-margin-bottom="0"
     inkscape:window-width="1920"
     inkscape:window-height="1017"
     inkscape:window-x="1912"
     inkscape:window-y="-8"
     inkscape:window-maximized="1" />
  <metadata
     id="metadata23868">
    <rdf:RDF>
      <cc:Work
         rdf:about="">
        <dc:format>image/svg+xml</dc:format>
        <dc:type
           rdf:resource="http://purl.org/dc/dcmitype/StillImage" />
        <dc:title></dc:title>
      </cc:Work>
    </rdf:RDF>
  </metadata>
  <g
     inkscape:label="Layer 1"
     inkscape:groupmode="layer"
     id="layer1"
     transform="translate(30.056696,-207.69303)">
    <g
       id="gq"
       class="landxx coastxx gq"
       style="fill:#cbe6a3;fill-opacity:1;fill-rule:evenodd;stroke:#000000;stroke-width:0.10870087;stroke-miterlimit:4;stroke-dasharray:none;stroke-opacity:1"
       transform="matrix(1.3292939,0,0,1.3292939,-1804.1985,-758.65208)">
      <title
         id="title1606">Equatorial Guinea</title>
      <path
         inkscape:connector-curvature="0"
         id="path5778"
         d="m 1336.95,731.88 c 0.53,-0.625 2.99,-5.283 0.81,-4.834 -0.84,0.172 -1.22,0.685 -1.49,1.449 -0.33,0.909 -0.91,1.026 -1.46,1.698 -0.63,0.777 1.74,1.474 2.14,1.687"
         style="fill:#cbe6a3;fill-opacity:1;stroke:#000000;stroke-width:0.10870087;stroke-miterlimit:4;stroke-dasharray:none;stroke-opacity:1" />
      <path
         inkscape:connector-curvature="0"
         id="path5784"
         class="landxx gq"
         d="m 1344.08,745.85 c 0.28,0.07 0.54,0.02 0.79,-0.144 -1.58,0.765 -0.14,-1.554 0.13,-1.999 0.81,-1.281 0.16,-3.141 0.74,-4.68 1.06,2.073 1.75,1.562 3.13,1.853 l 8.2,-0.09 v 10.012 l -9.06,-0.199 c -0.58,0.08 -3.37,0.925 -2.32,-0.362 -0.93,-0.478 -3.11,0.535 -3.68,-0.647 -0.52,-1.085 1.55,-2.888 2.02,-3.743"
         style="fill:#cbe6a3;fill-opacity:1;fill-rule:evenodd;stroke:#000000;stroke-width:0.10870087;stroke-miterlimit:4;stroke-dasharray:none;stroke-opacity:1" />
    </g>
  </g>
</svg>
