<?xml version="1.0" encoding="UTF-8" standalone="no"?>
<!-- Created with Inkscape (http://www.inkscape.org/) -->

<svg
   xmlns:dc="http://purl.org/dc/elements/1.1/"
   xmlns:cc="http://creativecommons.org/ns#"
   xmlns:rdf="http://www.w3.org/1999/02/22-rdf-syntax-ns#"
   xmlns:svg="http://www.w3.org/2000/svg"
   xmlns="http://www.w3.org/2000/svg"
   xmlns:sodipodi="http://sodipodi.sourceforge.net/DTD/sodipodi-0.dtd"
   xmlns:inkscape="http://www.inkscape.org/namespaces/inkscape"
   width="32.018902mm"
   height="89.484512mm"
   viewBox="0 0 32.018902 89.484512"
   version="1.1"
   id="svg31865"
   inkscape:version="0.92.0 r15299"
   sodipodi:docname="malawi.svg">
  <defs
     id="defs31859" />
  <sodipodi:namedview
     id="base"
     pagecolor="#ffffff"
     bordercolor="#666666"
     borderopacity="1.0"
     inkscape:pageopacity="0.0"
     inkscape:pageshadow="2"
     inkscape:zoom="0.35"
     inkscape:cx="656.22245"
     inkscape:cy="-513.75255"
     inkscape:document-units="mm"
     inkscape:current-layer="layer1"
     showgrid="false"
     fit-margin-top="0"
     fit-margin-left="0"
     fit-margin-right="0"
     fit-margin-bottom="0"
     inkscape:window-width="1920"
     inkscape:window-height="1017"
     inkscape:window-x="1912"
     inkscape:window-y="-8"
     inkscape:window-maximized="1" />
  <metadata
     id="metadata31862">
    <rdf:RDF>
      <cc:Work
         rdf:about="">
        <dc:format>image/svg+xml</dc:format>
        <dc:type
           rdf:resource="http://purl.org/dc/dcmitype/StillImage" />
        <dc:title></dc:title>
      </cc:Work>
    </rdf:RDF>
  </metadata>
  <g
     inkscape:label="Layer 1"
     inkscape:groupmode="layer"
     id="layer1"
     transform="translate(190.63445,197.53392)">
    <path
       inkscape:connector-curvature="0"
       id="mw"
       class="landxx mw"
       d="m -190.53303,-147.71624 c 0.33232,-0.65266 2.12688,-3.53723 2.76494,-5.43947 0.62477,-1.91153 0.50514,-2.43261 0.13292,-4.93167 -0.3589,-2.29171 4.81204,-3.74196 5.87548,-4.87453 -3.74861,-1.14052 -2.18003,-7.29516 -2.19335,-10.0056 0,-2.26111 1.46223,-3.21689 0.22601,-5.49927 -1.42237,-2.66392 0.70451,-2.06573 2.12687,-3.12384 1.67489,-1.2429 2.08698,-3.82572 -0.71783,-7.07717 -2.2465,-2.61207 0.57159,-3.40299 -1.56857,-4.82134 -1.75466,-1.16978 -2.44591,-1.12061 -2.85799,-1.55395 -0.22598,-0.23795 0.42537,-1.68555 -0.19937,-2.43395 0.30571,0.23929 2.51235,1.07407 3.57579,1.21364 1.31599,0.17547 0.95709,1.17378 2.06039,1.32797 1.09002,0.15288 3.46948,-0.0399 4.14741,1.25354 0,1.73871 0.13292,3.78981 2.23321,6.3527 1.91419,2.30896 0.13293,2.77822 0.38551,4.6246 0.23927,1.56991 0.81085,8.9435 0.83743,9.80089 0.13295,3.39502 -4.29361,6.7661 -3.12383,8.78398 4.5063,7.77238 3.07067,7.65939 2.81812,9.2213 -1.05015,6.50424 3.3631,5.03537 2.69846,7.97312 -1.64834,7.2566 2.71175,6.07619 2.51235,2.62269 l 3.61568,4.6419 c 0.83746,0.43202 0.34562,-5.95259 -2.07368,-7.8548 -2.19335,0.33232 -1.24955,-1.72942 -1.52871,-2.31829 1.7281,0.84277 1.92748,0.9624 3.9613,4.05167 1.35588,2.04446 2.55224,4.18728 4.37337,6.31149 2.02053,2.35818 2.07372,4.62197 1.31602,7.61154 -0.66466,2.62669 0.31903,5.19887 -0.13295,7.92393 -0.18608,1.17643 -0.545,2.57484 -1.55526,3.32854 -1.11662,0.8388 -2.72506,0.57028 -3.7885,1.48616 -1.05012,0.8986 -0.7178,2.83803 -2.25979,4.07961 0.34563,0.42803 1.48881,2.69313 1.56857,3.95463 0,0.51843 0,2.11758 -0.47856,2.65195 -0.47853,0.53439 -2.36614,0.40943 -2.10027,-0.5769 0.57159,-2.08435 1.55526,-1.50478 -0.63806,-3.60904 -1.48881,-1.42766 -5.56974,-5.4355 -5.76913,-7.03197 -0.35891,-2.78221 -1.10331,-2.1415 -0.54501,-4.32019 0.26584,-0.99166 0.86404,-3.12119 1.58186,-4.06767 1.14318,-1.5021 0.94378,-1.91815 1.12989,-3.80176 0.21269,-2.21859 0.21269,-5.16299 -1.30271,-7.36695 -0.59819,-0.86404 -2.39272,0.32699 -4.00116,0.51444 -1.30273,0.15286 -3.25678,-0.22067 -3.30994,1.00095 -0.7577,-0.82417 -5.80903,-6.72357 -6.11477,-6.60126 -1.316,0.52639 -4.01446,-2.36882 -3.68214,-3.42162 z"
       style="fill:#cbe6a3;fill-opacity:1;fill-rule:evenodd;stroke:#000000;stroke-width:0.14449541;stroke-miterlimit:4;stroke-dasharray:none;stroke-opacity:1">
      <title
         id="title1771">Malawi</title>
    </path>
  </g>
</svg>
