<?xml version="1.0" encoding="UTF-8" standalone="no"?>
<!-- Created with Inkscape (http://www.inkscape.org/) -->

<svg
   xmlns:dc="http://purl.org/dc/elements/1.1/"
   xmlns:cc="http://creativecommons.org/ns#"
   xmlns:rdf="http://www.w3.org/1999/02/22-rdf-syntax-ns#"
   xmlns:svg="http://www.w3.org/2000/svg"
   xmlns="http://www.w3.org/2000/svg"
   xmlns:sodipodi="http://sodipodi.sourceforge.net/DTD/sodipodi-0.dtd"
   xmlns:inkscape="http://www.inkscape.org/namespaces/inkscape"
   width="76.361145mm"
   height="100.02096mm"
   viewBox="0 0 76.361145 100.02096"
   version="1.1"
   id="svg25019"
   inkscape:version="0.92.0 r15299"
   sodipodi:docname="republicofthecongo.svg">
  <defs
     id="defs25013" />
  <sodipodi:namedview
     id="base"
     pagecolor="#ffffff"
     bordercolor="#666666"
     borderopacity="1.0"
     inkscape:pageopacity="0.0"
     inkscape:pageshadow="2"
     inkscape:zoom="0.35"
     inkscape:cx="1182.8759"
     inkscape:cy="774.73027"
     inkscape:document-units="mm"
     inkscape:current-layer="layer1"
     showgrid="false"
     fit-margin-top="0"
     fit-margin-left="0"
     fit-margin-right="0"
     fit-margin-bottom="0"
     inkscape:window-width="1920"
     inkscape:window-height="1017"
     inkscape:window-x="1912"
     inkscape:window-y="-8"
     inkscape:window-maximized="1" />
  <metadata
     id="metadata25016">
    <rdf:RDF>
      <cc:Work
         rdf:about="">
        <dc:format>image/svg+xml</dc:format>
        <dc:type
           rdf:resource="http://purl.org/dc/dcmitype/StillImage" />
        <dc:title></dc:title>
      </cc:Work>
    </rdf:RDF>
  </metadata>
  <g
     inkscape:label="Layer 1"
     inkscape:groupmode="layer"
     id="layer1"
     transform="translate(329.97819,-253.79309)">
    <path
       inkscape:connector-curvature="0"
       id="cg"
       class="landxx cg"
       d="m -329.90956,341.41303 c 0.77098,-2.34355 1.23623,-3.03745 3.17699,-4.50764 1.71479,-1.30139 2.31298,3.02014 4.55949,1.647 0.31903,-0.19675 -0.13292,-2.13486 0.25256,-2.85534 0.75769,-1.54861 -0.85075,-1.89556 -1.78124,-2.48178 -0.81088,-0.51843 1.48881,-5.61095 -2.087,-4.61664 1.24954,-1.70948 0.89064,-3.75394 0.37221,-5.6495 1.44892,0.3403 2.04711,0.18742 3.44287,0.20869 0.62477,0 0.9172,0.94646 1.48881,0.80555 1.72808,-0.42004 4.77215,0.0266 4.37338,-2.56685 -0.26587,-1.77196 -0.86404,-5.53917 2.52564,-3.71538 1.23625,0.66598 3.42958,4.36009 2.63201,5.74786 1.58187,-0.90658 3.07068,1.0528 4.67912,0.66464 1.38247,-0.33363 2.71175,-2.56685 3.07065,-3.82834 0.42538,0.77497 1.1831,5.11111 2.15348,5.0287 0.7178,-0.0664 2.60541,-1.93943 2.48577,-2.75695 -0.13292,-0.83214 0.13293,-3.69677 0.9172,-4.18728 1.11662,-0.65269 2.18006,-2.78487 0.75772,-3.73398 1.92748,-0.68194 0.98367,-4.38666 0.57159,-5.73326 -0.63806,-2.05905 1.48881,-4.34013 0.50514,-6.16126 -0.5849,-1.08071 -2.087,-1.39974 -3.17702,-1.39974 -0.59819,-0.44531 0,-1.94345 -1.3426,-2.06707 -3.30994,-0.32035 -0.73109,-2.06439 -1.14318,-4.11016 -0.27916,-1.40774 0.21269,-4.18063 1.5154,-5.12178 1.36917,-0.98766 2.56553,-0.48652 3.44286,-2.3502 0.67793,-1.4476 -0.41208,-2.53496 -0.9438,-3.79247 -0.97038,-2.27576 -1.28941,-4.40794 -4.24043,-3.9387 -2.55225,0.40544 -4.81205,1.7972 -7.351,2.2319 0.7178,-1.88761 0,-3.94535 -0.23927,-5.85289 -0.1994,-2.09365 1.12989,-4.07429 1.19636,-5.13638 0,-0.85608 10.22225,0.27115 11.1129,0.17544 1.71478,-0.18477 2.31295,0.26987 3.948,0.39215 1.36916,0.10635 1.56855,1.94342 3.41629,1.44096 3.61566,-0.989 7.39087,1.57653 9.86335,4.00516 1.16978,-1.66295 0,-2.89652 0.13293,-4.65121 0,-1.45025 1.5021,-2.31429 2.02053,-3.57978 0.7444,-1.78126 1.63502,-3.51598 2.07368,-5.40624 0.34564,-1.51673 -0.19937,-2.91514 0.13295,-4.38003 0.25256,-1.11129 0.54501,-2.76493 1.66161,-3.37507 1.42233,-0.78163 3.21688,0 4.73228,-0.65666 1.64833,-0.70454 2.92446,-1.83311 4.77217,-0.97571 1.79455,0.84011 3.03078,1.59381 5.07791,1.26283 2.49907,-0.40544 5.78243,-1.33992 5.4368,2.17606 -0.30572,3.00686 -2.4193,7.17551 -3.85496,9.75168 -1.68818,3.02548 -1.67489,5.01809 -1.70149,8.52344 0,1.94344 -0.3589,3.91612 -0.94378,5.78376 -0.63806,2.0458 -1.12991,3.15974 -1.15649,5.38897 0,1.43962 -0.13293,2.84335 -0.21269,4.30824 -0.13292,1.44626 -0.51843,3.27937 -0.86404,4.68708 -0.91722,3.58246 0.81086,5.9034 -2.18005,9.18542 -2.67189,2.93775 -5.50327,3.76988 -7.29782,7.05855 -0.86404,1.56193 -1.58187,3.25279 -2.27309,4.96758 -1.27612,3.18366 -4.3468,3.6622 -4.1474,5.6043 0.30574,3.19031 0,6.3075 0,9.84608 0,3.44021 -1.52868,8.73746 -4.79875,9.3117 -1.19636,0.21003 -2.43262,1.46753 -2.8181,2.72772 -0.1994,0.67527 -2.35285,1.59649 -2.99091,2.36214 -1.1432,1.37716 -1.96737,2.99625 -3.29665,4.35744 -1.67492,1.72808 -3.34981,-0.32568 -4.33351,0.94512 0,-1.23224 -1.1166,-3.4575 -0.26585,-4.4704 0.69122,-0.80689 1.02357,-1.53268 -0.37221,-1.96737 -1.72808,-0.53837 -4.09422,3.05872 -5.58303,1.08205 -0.74441,0.78029 -0.61149,1.75865 -0.99697,2.67853 -0.51842,1.22294 -2.15345,1.67492 -3.03078,2.58547 -0.13294,-1.60314 -2.32627,-1.82644 -2.68519,-3.35115 -1.19636,2.19201 -2.40601,-4.34811 -4.46641,-1.14186 -0.70454,1.09934 -1.87432,1.00628 -2.73836,1.75466 -0.86403,0.74839 -2.35285,2.47915 -3.24346,3.47346 -2.11359,2.33556 -2.75165,-2.01388 -3.08397,-3.27007 -0.89064,-3.27538 -4.43985,-6.12804 -6.84586,-8.38119"
       style="fill:#cbe6a3;fill-opacity:1;fill-rule:evenodd;stroke:#000000;stroke-width:0.14449541;stroke-miterlimit:4;stroke-dasharray:none;stroke-opacity:1">
      <title
         id="title1720">Congo</title>
    </path>
  </g>
</svg>
