<?xml version="1.0" encoding="UTF-8" standalone="no"?>
<!-- Created with Inkscape (http://www.inkscape.org/) -->

<svg
   xmlns:dc="http://purl.org/dc/elements/1.1/"
   xmlns:cc="http://creativecommons.org/ns#"
   xmlns:rdf="http://www.w3.org/1999/02/22-rdf-syntax-ns#"
   xmlns:svg="http://www.w3.org/2000/svg"
   xmlns="http://www.w3.org/2000/svg"
   xmlns:sodipodi="http://sodipodi.sourceforge.net/DTD/sodipodi-0.dtd"
   xmlns:inkscape="http://www.inkscape.org/namespaces/inkscape"
   width="56.513863mm"
   height="65.516045mm"
   viewBox="0 0 56.513863 65.516045"
   version="1.1"
   id="svg26157"
   inkscape:version="0.92.0 r15299"
   sodipodi:docname="uganda.svg">
  <defs
     id="defs26151" />
  <sodipodi:namedview
     id="base"
     pagecolor="#ffffff"
     bordercolor="#666666"
     borderopacity="1.0"
     inkscape:pageopacity="0.0"
     inkscape:pageshadow="2"
     inkscape:zoom="0.35"
     inkscape:cx="505.36927"
     inkscape:cy="249.52415"
     inkscape:document-units="mm"
     inkscape:current-layer="layer1"
     showgrid="false"
     fit-margin-top="0"
     fit-margin-left="0"
     fit-margin-right="0"
     fit-margin-bottom="0"
     inkscape:window-width="1920"
     inkscape:window-height="1017"
     inkscape:window-x="1912"
     inkscape:window-y="-8"
     inkscape:window-maximized="1" />
  <metadata
     id="metadata26154">
    <rdf:RDF>
      <cc:Work
         rdf:about="">
        <dc:format>image/svg+xml</dc:format>
        <dc:type
           rdf:resource="http://purl.org/dc/dcmitype/StillImage" />
        <dc:title></dc:title>
      </cc:Work>
    </rdf:RDF>
  </metadata>
  <g
     inkscape:label="Layer 1"
     inkscape:groupmode="layer"
     id="layer1"
     transform="translate(150.72122,-149.33722)">
    <path
       inkscape:connector-curvature="0"
       id="ug"
       class="landxx ug"
       d="m -150.21563,211.38373 c 0.65135,-1.79988 0.43866,-4.22317 0.70451,-6.13205 0.34564,-2.40202 0.55832,-4.78544 0.87736,-7.20077 0.38548,-2.9444 2.08697,-4.62594 2.36614,-6.15995 0.1861,-0.93582 -0.18611,-1.88495 0,-2.82873 0.29245,-1.48482 1.6882,-1.10333 2.36614,-2.1774 2.07368,-3.2674 5.37034,-5.59498 8.16185,-8.48354 1.09002,-1.12193 2.55225,-3.07199 3.0042,-4.58473 0.37222,-1.24424 -1.94076,-2.54826 -2.83138,-3.02681 -0.71783,-0.38417 -1.80784,0.78427 -2.33956,-0.39481 -0.42538,-0.93448 -0.13292,-2.21459 0.13292,-3.16105 0.5849,-2.90054 -0.49182,-5.24406 0.97038,-7.90665 0.42538,-0.77631 -0.62474,-0.98235 -0.3589,-1.80119 0.27917,-0.86669 1.06344,-1.59382 1.74137,-2.14946 0.66467,-0.54501 1.44894,-1.04217 2.35285,-0.87867 0.73112,0.13426 2.12687,1.67358 2.85799,1.3426 0.93051,-0.42273 2.31298,-2.14681 3.30994,-0.83216 1.06344,1.4064 1.35589,1.9102 3.21689,2.58282 -1.05014,-1.74137 1.84771,-2.40469 3.2036,-2.59477 1.68821,-0.23661 3.6024,-1.58719 5.25071,-1.39576 2.24651,0.26186 2.93775,2.25182 5.39694,0.54633 1.76795,-1.2216 2.99092,-3.05736 4.33349,-4.69241 0.7843,1.05679 1.62173,2.56157 1.1432,3.92408 1.59516,-0.16085 0.53172,0.99433 2.03382,1.44494 1.54197,0.46393 2.14016,0.76169 1.48881,2.74235 -0.83746,2.57615 1.741367,5.34508 3.070676,8.39981 0.265845,0.59817 1.821132,2.61471 1.781236,3.13579 0,1.10199 1.236255,2.73701 1.515393,3.80977 0.465267,1.90486 0,4.49966 -0.824145,6.40187 -0.704538,1.62307 -2.060424,1.86234 -1.714789,3.75126 0.172792,0.97971 -1.409046,1.59384 -2.126874,1.95805 -1.422357,0.71651 -1.488807,2.62802 -2.339557,4.04239 -0.62477,1.0568 -1.68821,1.62573 -2.12687,2.7184 -0.5982,1.47951 -1.1432,2.56422 -1.82114,3.99985 -0.66464,-0.0399 -3.09725,0.76568 -2.71175,-1.35854 -1.54199,0.58356 -1.05014,1.02622 -1.68821,1.12458 -1.8876,0.2898 -1.91418,-0.84277 -0.50513,-0.7537 -0.35891,-0.75904 -1.62174,-1.70681 -1.19636,-2.2505 -1.05015,0.3855 -0.3589,0.10634 -1.80784,0.6487 l 0.46524,0.76434 c -1.26281,0.33631 -0.29243,1.56857 -1.88758,1.48481 0.21268,2.47383 -3.50934,1.19904 -3.93472,1.28545 -0.13292,0.0399 0.1994,-2.22126 -0.13292,-1.84374 -1.80784,4.19391 -2.45919,1.96736 -2.79154,2.18801 0,0.89065 -0.61146,0.94646 -2.16674,1.10065 -0.7178,1.03421 -2.44591,1.00894 -2.29967,1.37451 1.35587,3.47079 -1.5021,4.04503 -1.95408,6.48295 -0.38548,2.10828 0.38551,2.22126 0.62477,3.61303 -9.54432,0 2.08701,0.41474 -7.44403,-0.29644 -3.29665,-0.24591 -7.16489,0.42671 -9.09236,2.81147 -0.66467,0.82814 -1.60845,3.15041 -2.77823,2.38342 -0.30574,-0.20339 -0.47856,-1.32132 -1.02357,-1.27746 -0.93051,0.0665 -2.41932,1.10199 -2.85798,1.41438 0.22597,-0.86669 1.44894,-2.37013 0.34563,-3.29532"
       style="fill:#cbe6a3;fill-opacity:1;fill-rule:evenodd;stroke:#000000;stroke-width:0.14449541;stroke-miterlimit:4;stroke-dasharray:none;stroke-opacity:1">
      <title
         id="title452">Uganda</title>
    </path>
  </g>
</svg>
