<?xml version="1.0" encoding="UTF-8" standalone="no"?>
<!-- Created with Inkscape (http://www.inkscape.org/) -->

<svg
   xmlns:dc="http://purl.org/dc/elements/1.1/"
   xmlns:cc="http://creativecommons.org/ns#"
   xmlns:rdf="http://www.w3.org/1999/02/22-rdf-syntax-ns#"
   xmlns:svg="http://www.w3.org/2000/svg"
   xmlns="http://www.w3.org/2000/svg"
   xmlns:sodipodi="http://sodipodi.sourceforge.net/DTD/sodipodi-0.dtd"
   xmlns:inkscape="http://www.inkscape.org/namespaces/inkscape"
   width="86.99485mm"
   height="79.810219mm"
   viewBox="0 0 86.99485 79.810219"
   version="1.1"
   id="svg47860"
   inkscape:version="0.92.0 r15299"
   sodipodi:docname="westernsahara.svg">
  <defs
     id="defs47854" />
  <sodipodi:namedview
     id="base"
     pagecolor="#ffffff"
     bordercolor="#666666"
     borderopacity="1.0"
     inkscape:pageopacity="0.0"
     inkscape:pageshadow="2"
     inkscape:zoom="0.35"
     inkscape:cx="164.39972"
     inkscape:cy="150.82246"
     inkscape:document-units="mm"
     inkscape:current-layer="layer1"
     showgrid="false"
     fit-margin-top="0"
     fit-margin-left="0"
     fit-margin-right="0"
     fit-margin-bottom="0"
     inkscape:window-width="1920"
     inkscape:window-height="1017"
     inkscape:window-x="1912"
     inkscape:window-y="-8"
     inkscape:window-maximized="1" />
  <metadata
     id="metadata47857">
    <rdf:RDF>
      <cc:Work
         rdf:about="">
        <dc:format>image/svg+xml</dc:format>
        <dc:type
           rdf:resource="http://purl.org/dc/dcmitype/StillImage" />
        <dc:title></dc:title>
      </cc:Work>
    </rdf:RDF>
  </metadata>
  <g
     inkscape:label="Layer 1"
     inkscape:groupmode="layer"
     id="layer1"
     transform="translate(60.506355,-108.92823)">
    <path
       inkscape:connector-curvature="0"
       id="eh"
       class="landxx eh"
       d="m -59.897178,188.70287 c -1.568575,-2.77289 0.757695,-7.47725 1.23623,-10.35252 0.332345,-1.96603 0.837459,-3.80975 1.887605,-5.52454 1.276124,-2.07902 3.615684,-2.08301 4.386669,-4.68178 0.412085,-1.33196 0.385505,-3.38306 1.701499,-4.17797 0.757695,-0.4493 0.30574,-1.95805 0.903932,-2.81812 0.930489,-1.37582 4.7057,-6.07354 3.655554,-7.85876 -0.704536,0.4546 -1.302704,1.08867 -1.714789,1.81845 1.648315,-3.62897 5.822297,-6.29952 8.573941,-9.10033 3.655554,-3.73132 2.937728,-7.58762 4.71899,-12.16438 1.46223,-3.74196 2.592118,-7.87208 6.22109,-9.94444 4.01448,-2.28374 6.194512,-4.14608 7.85614,-8.56198 1.050147,-2.80749 3.044071,-6.79271 2.35285,-5.97518 l 44.531333,-0.36024 -0.624748,19.40237 -33.0462666,0.38151 -1.515391,29.02247 c -1.9673464,1.41837 -4.7721494,1.57388 -6.8192834,2.85134 -3.097255,1.92083 -4.333486,3.97592 -4.094218,7.62615 0.146214,2.12156 1.767972,13.17463 -0.478534,13.81269 h -36.754981 c -2.818119,0.002 -3.270073,4.60868 -2.977622,6.60526"
       style="fill:#cbe6a3;fill-opacity:1;fill-rule:evenodd;stroke:#000000;stroke-width:0.14449541;stroke-miterlimit:4;stroke-dasharray:none;stroke-opacity:1">
      <title
         id="title880">Western Sahara</title>
    </path>
  </g>
</svg>
