<svg xmlns="http://www.w3.org/2000/svg" width="1524.837" height="1456.838" viewBox="0 0 403.44638 385.45493"><g class="landxx coastxx au" transform="matrix(1.3293 0 0 1.3293 -2799.222 -1125.636)" fill="#c83737" fill-rule="evenodd" stroke="#000" stroke-width=".109"><title>Australia</title><path d="M2372.74 919.58c.95-.581.16-1.505-.1-2.23-.83.637-.44 1.545.1 2.23M2389.59 935.5c.68-.277.63-1.002.29-1.521-.1.507-.2 1.013-.29 1.521M2278.49 857.74c.48-.958.34-1.988 0-2.961-.79 1.058-.33 1.845 0 2.961M2284.18 860.54c.14-.144.29-.287.44-.431-.41-.291-.56-.147-.44.431M2305.06 864.14c.28-.319.57-.629.87-.93-.57.02-.89.36-.87.93M2305.35 860.69c.79-.309 1.56-.767 2.02-1.51-.55.704-1.6.664-2.02 1.51M2308.01 858.67c1.21-.701 2.16-2.196 2.24-3.601-.24 1.41-1.53 2.436-2.24 3.601M2262.01 861.98c.38-.05.74-.172 1.08-.36-.2-.75-1.15-.846-1.15-1.664a4.14 4.14 0 0 0-.51-.926c.1-.507 0-1.01-.1-1.51-1.12.416-1.3 1.139-1.41 2.23-.1.81-1.33 1.308-.89 2.161 1.06-.269 1.91-.367 2.95.07"/><path d="M2268.06 858.1c-.23-.969-1.31-.986-1.52 0-.73-.979-1.83.04-2.77-.235-.39-.115-1.61-1.633-1.91-.734-.55 1.704 1.64 5.897 3.77 5.419 1.21-.272 3.64-1.854 4.02-3.113.17-.54 1.14-2.217-.3-2.497-1.01-.198-1.96-.118-1.29 1.16M2317.3 1110.6c.36-.21.65-.49.87-.86-.57 0-.89.29-.87.86M2318.89 1109.81c.4-.1 1.67-1.17.83-1.5-.72-.29-2.6.1-2.35 1.14.59-.24 1.1-.12 1.52.36M2261.07 1071.65c.76-.21 1.34-.78 1.97-1.22 1.01-.71 1.54-.24 2.62-.31.87-.1 1.6-1.1.31-1.27-.17 0-.3.17-.37.33-.5.4-1.41-.35-1.94-.34 1.88-1.77-5.81-.33-6.16-.23-.75.21-2.91 1.43-1.75 2.47 1.52 1.37 3.86-1.07 5.32.57M2299.66 1129.32c.1.79.59 1.68-.43 2.09 1.26.3.94-1.22 1.85-1.49 1.2-.37 1.85 1.33.6 1.78.31-1.6-1.15-.26-1.06.53.1.93.88.77 1.28.11-.36 2.03 1.72-1.46 2.01-1.94-1.3-.12-.38-.77.19-1.44.69-.83 1.52-1.52 2.23-2.33.59-.66.94-1.49 1.64-2.05.6-.49 1.69-1.03 1.85-1.87.36.75.14 1.61-.37 2.22 1.09-.41 1.32-1.73 1.73-2.67.59-1.33 1.56-2.5 2.32-3.74 1.02-1.67 3.86-4.52 2.04-6.17-.92-.83-1.2.92-2.19.74-1.31-.26-1.9.36-3.01.92-.51.26-6.07-.6-4.56 1.49-.8.27-1.04 0-.72-.73-1.87-.1-3.64 1.49-5.4.1-.62-.49-3.76-2-3.38-2.81-1.09.5-3.12.47-3.53-.94-2.01 2-2.62 4.04-3.5 6.62-.7 2.04 1.3 5.19-.82 6.7.25-.17.51-.31.79-.43-.1 1.03.57 2.26-.57 2.94.25-.76 0-1.54-.44-2.15-2.48 2.43-1.11 5.91-1.29 8.79.76-.45 1.45.29 2.23.1.41 1.08-.9 1.35-1.44.58-.28.5-.54 1-.79 1.51 1.04-.19 2.91.57 3.74-.29.12 2.83 2.92-.1 3.49-.56.88-.73 1.05-1.08 1.26-2.04.16-.77 1.04-.1.8.59 1.43.17 3.44-2.87 3.45-4.11M2290.01 1105.49c-.21.36-.4.71-.57 1.08 1.65-.1 3.58-2.3 3.58-3.98 0-1.4-1.21.1-1.39.24-.73.59-1.69 1.65-1.62 2.66M2318.31 1105.49c-.1.45-.51 2.26.33 2.29 1.7.1 1.71-1.71 2.62-2.58-.99-.16-1.02-1.3-1.65-1.87-.81.48-.96 1.37-1.3 2.16"/><path d="M2109.15 1050.77c1.94 0 3.95-2.13 4.75-3.75.91-1.83-.18-4.54 1.73-5.9-.46.37-.69.94-.57 1.51 0-.58.35-.86.93-.72-.49-1.59.77-3.02 1.28-4.33 1.11-2.86.61-5.24.13-8.16-.45-2.71-1.46-5.69-.71-8.44.72-2.62 1.98-6.25 1.55-8.95-.18-1.12-.8-2.12-.84-3.27 0-1.19 0-2.23-.45-3.36-.44-1.09-1.44-2.06-1.5-3.25-.1-1.37.59-2.68.64-4.05.11-2.65-.73-5.43-2.16-7.64-.61-.93-1.33-1.92-1.55-3.04-.21-1.02.67-1.52.59-2.46.23.73 0 1.45-.15 2.16.56-.6.78-1.42.8-2.23-.14 1.01.47 1.94.28 2.95.35-1.96.23 1.12.15 1.51 1-1.63.46 0 .57.72 1.9-1.02 2.79-1.94 1.2-3.79-1.08-1.26-1.87-4.33-.48-5.64.65.58 1.1 1.56 1.3 2.39.27 1.14-.73 1.91-.65 3.01.91.1 1.38-.8 1.51-1.58.15 1.15-.23 2.43.4 3.49.35.58 1.34-.37 1.47-.66.83-1.92 1.52-3.63.5-5.55-.87-1.64-.79-3.54-1.89-5.03-.42-.57-.19-1.05-.19-1.69 0-1.39-.7-2.64-.88-4-.28-2.13.99-4.6 2.17-6.3 1.39-1.98 2.37-3.44 2.89-5.9.24-1.13-.58-1.99-.58-3.08 0-1.152 1-2.083 1.47-3.059.7-1.439 1.34-3.89 3.07-4.437.2.881-.2 1.694-.51 2.486-.44 1.114-.15 2.349-.43 3.493 2.35-.812 2.39-2.038 3.53-3.96 1.17-1.982 3.12-2.848 5.21-3.518 2.97-.945 5.08-2.979 7.45-4.907.62-.502 1.35-1.809 2.13-1.91 1.75-.225 3.11-.909 4.29-2.276-.32 1.979 1.81.234 2.61.343.76.103 1.08.888 1.93.888 1.1 0 2.14-.379 3.07-.93 2.03-1.193 3-2.545 5.49-2.54 1.03 0 2.13-.02 2.96-.711.94-.784 1.29-2.204 2.73-2.204 2.21 0 3.56.368 5.75-.212 2.54-.671 4.84-1.269 7.16-2.519 1.87-1.007 8.78-5.17 7.4-8.305.78.08 1-.32 1.2-.978.31-1.022 1.25-1.373 2.09-1.898 1.22-.766 3.95-1.973 2.68-3.502-1.07-1.302-.39-4.969.31-6.314.4-.768 2.34-3.65 3.43-2.357-.68-1.34.33-1.19 1.2-1.648 1.06-.561 1.09-2.635 2.55-3.323.6.808-1.31 2.656.65 2.59-1.37 1.901 2.39 5.658 2.16 7.711 1.11-1.444.16-3.775 1.08-5.19.82.409 1.15 1.298 1.73 1.95-.11-1.266-.3-2.178.93-2.96-.97.331-3-1.605-2.16-2.521-.57-.02-.89-.358-.86-.93 1.06.833.37-.195 1.32-.372 1.14-.213-.1-1.481-.31-1.938.99-.624 2.82.119 1.29.44.57.208.94.676.65 1.29.66-.178.77-1.121 1.44-1.185.87-.08.9.51 1.44.954.68.555 1.09-.444 1.82-.02.81.479 1.75-.126 2.57.388-.7-.862-1.35-.412-2.23-.72-1.24-.427-.32-1.336-.22-2.23.16.247.33.487.51.721 1.03-.702.57-2.255 1.8-2.801-.62-.233-1.06.149-1.23.721-.89-.936-1.51-2.907 0-3.609.69-.321 2.78-.964 1.68-2.011.78.04 1.36.598 1.97 1.02.19.281.37.564.55.851.38.104.76.201 1.15.29-1.12-.661-.29-1.933-1.94-1.95.3-.517.73-.876 1.29-1.08-.55.11-1.03.35-1.44.72-.1-.967 2.29-2.837 2.16-1.22.1-1.644 1.21.432 2.23.22-.38-.678-1.24-1.392-.64-2.229-2.17-.116.38-2.042.5-2.811.82.877 1.12-.633 2.02-.07.23-.827.17-1.688.28-2.53 1.07.223.63 2.203 0 3.1 1.34-1.537.76-1.645 1.95.15 0-.778.87-.754 1.01-1.44.1-.421.4-1.522.57-1.88.27-.58 1.31-.538.72-1.4a.637.637 0 0 0-.68-.135c-.26.01-.98-1.397.39-.334-.31-.875 1.26-1.535.29-.141 1.59-1.455-.38 1.909 1.51 1.44-.39-.88.47-1.646 1.3-1.66-.48.646 0 1.239.43 1.729.68-.772 2.11-1.082 2.52-2.09.32-.794-.96-1.154.5-1.755.83-.34 1.21 1.74 2.51 1.776 1.11.03 1.24.591 2.01 1.398.98 1.026 1.51 2.372 2.47 3.41.57.622 1.45 1.384 1.37 2.327-.1 1.044-.72 1.987-.9 3.028-.16.972-.17 2.419-.97 3.135.91-.45.29-1.553.93-2.021.86-.63 1.13.747 1.23 1.3.41-1.003-.83-1.97-.36-2.949.57-1.202 1.2.08 2.09-.29-.86-3.462 5.99-2.24 5.25 1.149 1.16-.443.69-1.809.72-2.729 1.61.138 2.12 3.335 3.46 3.02-.31-.757-1.11-2.159-.17-2.834.66-.473 1.54-.08 2.18-.695-1.26.17-2.02-.212-2.44-1.44.56-.03 1.07-.221 1.51-.57-1.12.343-3.61-.539-2.7-2.066.37-.623.55-1.556 1.11-2.043.5-.429 1.61-.134 1.88-.855.42-1.171.63-2.63 1.22-3.716.54-1.005.98.124 1.69-.448.46-.371 1.62-1.696 2.27-1.311-.6-.623-1.33-1.755-1.16-2.667.29-1.544.92-.312 1.6-1.42.46-.739.27-1.482 1.15-1.994.63-.368 1.05.7 1.79.531-.78-.313-1.03-2.487-.14-2.8.94-.331 1.59 1.875 2.45 2.079-.91-.681-1.06-3.17.64-2.37.21-.609-.23-1.345.53-1.654.79-.316 1.07.838 1.56-.365 1.19 2.767 8.43-.1 8.57 1.58 0-1.191 1.24-2.052 2.3-1.36-1.12-1.184.17-2.972-.14-4.319-.47-2.057-2.45-1.766-3.96-1.08.1-.98-1.18-1.422-1.73-1.872-.36-.292 1.2-1.252 1.3-1.519.71.556.86 1.428 1.08 2.24.45-.683.54-1.509.14-2.24.42.839.97.903 1.44.07.25 1.084 1.92 2.325 2.52 3.32.45-.585 1.85-.647 1.44-1.66.92.638 1.3 3.418 2.38 3.409.96 0 2.27-.125 2.16.98 1.08.04 1.85-1.3 2.95-.93-1.86 1.394 2.33 1.084 1.73 3.02.71-1.302.87-.366 1.86-.181 1.11.209 1.72-.669 2.75-.829.26 2.291 2.46 1.969 3.96 2.45-1.14-1.812 3.84-.928 2.23-2.45.93-.233 2.38-.473 2.38-1.72.66.922-.62 1.542-1.23 1.939 1.37 0 .31.456-.19 1.026-.48.546-.65 1.121-.24 1.784.5-.702 1.14-1.509 2.09-1.521-.96 1.015.23.441.19 1.601 0 .36.1.905.48 1.025.91.254 1.82-1.027 2.13-1.686-2.59-.04 1.55-2.616 2.02-3.09-1.25.656-.25 2.969.79 3.31-.65-1.179.77-.982 1.13-.482.31.423 0 1.083-.16 1.486-.67 1.414-2.01 3.38-3.49 3.966.47.43.83.933 1.08 1.511a8.386 8.386 0 0 0-.79-.511c-.25 1.119-.33 2.138-1.51 2.67 0-.481 0-.961.1-1.439-.54.331-1.02.738-1.44 1.22-.1-1.729-1.15-.05-1.15.58-.21-1.559-1.83.316-.86 1.22-2.15-.411-.61 3.707.57 1.73-1.07 2.23-2.11 4.229-3.54 6.243-.61.858-1.22 1.752-1.99 2.472-.89.827-1.38.512-.64 1.963 1 1.97 3.3 2.656 4.6 4.358.76.996 1.25 1.918 2.34 2.603.76.48 1.5 1.085 1.17 2.092.83-.317 1.67.356 2.24-.58.79 1.235 2.16 1.838 3.39 2.517 1.58.87 2.3 2.093 3.39 3.465 1.87 2.369 4.59 1.526 6.89 3.18 1.23.882.3 2.687 1.41 3.583.61.491 1.43.451 2 1.038.6.614 1.33 1.016 2.03 1.512 2.13 1.514 6.77.06 8.02-2.226 1.81-3.278 4.14-6.526 5.47-10.053.77-2.026 1.34-4.117 2.09-6.147.8-2.159 1.73-3.796 1.58-6.173-.12-1.859 0-2.976.66-4.662.68-1.707-.88-3.212 0-5.083.72-1.517 2.2-2.728 1.74-4.524-.53-2.06 1.23-2.159 1.63-3.856.44.41.66.913.65 1.511 0-.577.35-1.014.86-1.221-.29-.04-1.8-1.679-1.95-2.02-.24.21-.48.426-.71.649-.16-.819.4-1.926.95-2.498.2-.247.46-.375.77-.382-.4-.793.1-1.569.58-2.16.16.56.57.845 1.15.721-.1-3.025 1.73-5.297 2.09-8.21.12-.944.12-1.567 1.15-1.984.97-.392 1.43-2.107 2.66-1.256-.36.474-.67.977-.93 1.51.25-.161.52-.305.79-.43.3.915 1.21 1.352 1.04 2.385-.1.423 0 .835.13 1.237.29.939-.16.934-.16 1.772 0 .89-.18 1.806 0 2.691.2 1.148 1.98 1.019 2.77 1.424-1.44 1.062-1.9 2.174-.77 3.427 1.2 1.333 1 2.454.62 4.133 1.6-.314.81 6.454.47 7.263-.42.983.17 1.731.48 2.645.35 1.069-.2 2.209.28 3.263.86 1.867 3.21.695 3.45-.939 1.46 1.817 2.15-2.344 2.82 1.577.15.905 1.99 1.993 2.6 2.846.1.108 2.17 1.467 2.36 1.487-.46.744-1.84 2.199-.36 2.729-1.98 2.401.42 5.023-.51 7.625-.57 1.61-.9 2.432-.1 3.905.43.743 1.69 2.157 1.14 3.09a2.75 2.75 0 0 1 1.52-.649c-.38 1.52-.63 2.132-.22 3.717.3 1.182.28 2.425.1 3.627-.19 1.332-.89 2.194-1.42 3.381-.63 1.436.99 1.756.89 2.905-.1.906 1.18.218.78 1.371-.34 1.003-1.42 1.8-.8 2.946.37.673 1.58 2.109 2.46 2.028.82-.08 1.53 1.951 2.38.334-.1 1.889 2.99 2.191 2.67.93.49 1.064.19 3.982 1.58 4.4 0-.565.37-.906.93-.939-.43 1.491 1.23 1.602 2.27 1.986.85.315-.16 2.175 1.51 1.671.37-.11.1-.741.43-.883.73-.299.64.848.72 1.154.16.657.91.289 1.21.886.34.679.3 1.483.63 2.166-.37-.75-1.38-.881-1.74-.04-.47 1.064.94 2.213.23 3.211 3.9-1.4 1.06 5.593 3.74 5.54-.92 1.069-.88 2.794-.75 4.11.1 1.105 1.18 3.026.32 4.03 1.41-.577 1.6-.152 2.24 1.087.65-1.284-.13-2.704.86-3.897 1.18 1.053 1.76 2.647 3.17 3.46.21-.401 0-1.196.36-1.51.63-.595 1.11-.138 1.17.564.16 1.873 0 3.033-.64 4.783-.36 1.04-.1 2.1-.42 3.18-.68 2.16.81.78 1.47 2.12-.19-.52-.12-1 .22-1.43 1.6.51 1.49 4.34-.1 1.73.18 1.14 3.46 4.95 3.46 2.94 1.64 1.33 1.24 3.26 2.09 4.97.4.82 1.28.99 1.8 1.66.62.8.2 1.77.34 2.68.31 1.99 2.28 1.23 2.04 3.16-.1.72-.79 1.23-.94 1.94-.2.97.74 1.53.29 2.67.23-.26.46-.5.72-.72 1.09.89-.64 2.11-.94 2.95-.54 1.48-1.01 3.29-1.27 4.85-.19 1.19.12 2.25-.89 3.04-1.1.87-1.01 1.7-.24 2.77.52.73.4 2.76.22 3.63-.12.58-.37 1.19-.34 1.79 0 .66.52 1.06.36 1.77-.78 3.45-2.4 5.66-4.38 8.51-2.13 3.06-3.31 6.58-5.66 9.56-1.99 2.51-2.13 5.51-4.07 8.01-.94 1.21-1.74 2.56-2.74 3.73-.99 1.14-2.55 1.76-3.33 3.08-.5.85-.74 2.43-1.42 3.12-.4.41-1.09.37-1.56.7-.84.6-1.68 1.5-2.76 1.67 1.86.17-1.15.89-1.63 1.04-1.28.4-2.44 1.57-3.26 2.59-.58.72-1.56 1.01-2.17 1.72-.83.98-.64 2.04-2.37 1.85-.12.64 0 .86.5.65-.54.77-.95 1.65-1.49 2.41-.43.61-1.06.4-1.49 1.12-.89 1.47-2.61 1.94-3.39 3.51-.4.79-.27.54-.91.67 0 0-.43 1.4-.64 1.63-.36.4-2.49 2.28-1.29 2.75-.35.57-.82 1.22-.94 0-.5.45-.29 1.41-1.06 1.53-.97.14-1.45.42-2.12 1.17-1.67 1.9-3.49 3.72-5.03 5.73-1.31 1.71-2.23 3.78-3.56 5.51-.75.98-2.25 3.66-3.35 4.14 1.04.23.1 1.81-.2 2.25-.27.42-.57.83-.93 1.16-.56.52-1.16.1-1.7.36-1.68.87-2.51 1.95-4.63 2.2-2.25.27-4.52 0-6.77.27-4.55.43-8.36 3.2-12 5.72-1.67 1.15-3.41 1.72-5.44 1.89-1.98.17-1.45-.22-1.81 1.7.44-.38.95-.64 1.51-.79-.25.97-1.14 2.3-2.08 2.73-.1-.64.2-1.67-.24-2.22-.69-.84-1.11.1-1.93.14.2-.74.13-1.5.22-2.24-.93.2-1.58.71-1.75-.51-.18-1.32.98-1.35 1.41-2.43.61-1.56-2.93.7-3.11.86-1.46 1.23-2.03.75-2.81-.65.97 1.08 2.19-.14 2.95-.79 1.25-1.07.66-1.76.72-3.17-1.89.32-3.56 1.64-5.18 2.59.73.23 1.49-.16 2.16.36-.66.93-2.02.67-2.96 1.01-1.35.49-2.9 1.29-4.03 2.18-1.13.9-2.33 1.37-3.6 2.01-1.06.53-1.27-.35-2.38-.92-1.91-.97-3.12-3.05-5.38-2.73-1.26.17-1.82-1.27-3.11-1.02-.72.14-.89.66-1.49.94-.45.21-1.05-.1-1.53 0 1.94-2.23-3.78-2.79-4.47-3.76-.68-.98-1.03-2.27-1.04-3.45 0-.75-1.13-1.22-.94-2.55.33-2.35 2.49-3.45 2.99-5.57.8-3.4-.42-6.29-2.52-8.93 1.8 1.21 2.74 3.42 2.88 5.54.32-1.43-.14-2.65-.96-3.81-.55-.78-1.62-2.3.17-2.16 0 .5-.1 1-.15 1.51.88-.16.74-.66.81-1.35.1-.83 1.47-.63 1.06-1.46-.46-.95-3.53.16-2.8 1.3-.36-.11-2.78-.39-.72.28-1.72-.18-4.93 2.13-6.41.58.74-1.03 2.09-1.58 3.14-2.21.94-.56 1.52-1.77 1.99-2.72 1.26-2.5 1.09-5.24.48-7.97-.65.4-.68 1.13-1.18 1.63-.57.57-1.21 1.05-1.69 1.7-.97 1.33-1.83 2.8-2.69 4.2-.94 1.54-1.16 1.26-2.79 1.1-1.55-.15-3.18 1.45-4.89 1.39.27-.95 1.29-2.03 2.01-2.66 1.22-1.07 2.8.32 3.99-.8 2.07-1.95 1.94-5.41 3.87-7.57 1.07-1.2 1.71-2.02 3.12-2.83 1.66-.95 1.04-2.1 1.56-3.61.29-.85 1.23-.99 1.88-1.46.2-.15 0-1.29 0-1.48 0-.5.8-2.83 0-3.18-.32-.14-.76 2.22-.88 2.45-.62 1.22-2.5 2.01-3.45 3.05-.93 1.02-1.75 2.13-2.72 3.11-.42.42-.84 1.11-1.44 1.3-.52.16-1.01-.3-1.51-.14-.93.29-1.97 1.47-3.03 1.86-1.56.57-2.73 1.81-3.85 2.97-.41.43-1.94 2.47-2.48 2.36-1.53-.32-1.8 1.92-2.67 2.6.5-.21 1.01-.41 1.52-.58-.62.64-.71 1.61-1.37 2.23-.48-1.48-1.84-.51-2.42-1.69-.42-.83-.87-2.68-2.19-1.91.33-.56.78-1.05 1.3-1.44-.18.95 1.02 1.74 1.21.45.21-1.47.59-2.95.59-4.45 0-1.41-1.92-2.3-1.31-3.77.24-.58.63-1.19.31-1.82-.26-.5-.57-.79-.16-1.35-.69.57-1.2-.13-1.96.1-1.1.29-.63-.48-.84-.94-.11-.24-.66-1.49-.5-1.7.22-.28 1.65-2.39 1.22-.6.68-.5 1.38-1.59.8-2.42-.67-.97-1.77-.14-2.6 0 .16-.49.91-1.15.86-1.68-.1-.69-.8-1.05-.87-1.77 0-.37-2.38.66-2.47.65-1.48-.17-2.62-1.45-3.94-2.04-1.47-.65-1.57.94-2.7.74-2.87-.51-4.04-4.47-7.07-4.8-1.02-.11-1.8.48-2.7.81-1.1.39-2.34-.1-3.47-.1-2.83 0-6.17.11-8.94.71-5.13 1.12-9.67 4.07-14.89 5.12-2.51.5-4.77.41-7.29.18-3.08-.28-4.71 1.01-7.32 2.34-2.14 1.08-4.62 2.52-6.94 3.14-2.48.67-4.13.82-5.73 3.04-1.22 1.7-2.43 3.32-4.11 4.61-.31.23-1.65 1.4-2.05 1.21-1.11-.54-1.69.53-2.82.73.69-1.78-4.72-1.11-5.5-.8-1.3.51-1.52 1.33-2.07-.46 0 0-3.62-.27-4.08-.33-1.97-.24-4.31.34-6.26.71-1.46.27-2.73.14-4.17.37-1.84.29-5.99 1.18-5.49 3.83-.42-.22-1.72.57-2.19.85-.67.4-1.34-.5-2.08-.39-.74.11-1.27.76-1.8 1.23-.56.51-1.07.68-1.79.95-1.05.39-1.25.99-2.06 1.62-1.08.84-2.67 1.25-4.05 1.21 1.77.77-1.99.42-2.67.35-2.41-.24-4.78-.1-7.19-.57.1-.25.19-.48.28-.72-2.09.35-3.06-1.44-3.93-2.85-.71-1.16-2.6-3.51-4.06-1.98-1.26-1.34.35-7.62 2.81-6.12"/><path d="M2277.85 860.97c-.1-.237-.2-.473-.29-.71.84.08.88.17.29.71M2351.86 852.77c.65-.345.83-.93.22-1.439-.59.353-.75.933-.22 1.439M2352.08 847.73c.28-.22.45-.51.5-.87-.8-.08-.97.207-.5.87M2353.09 848.38c.21-.33.3-.69.28-1.08-.75.147-.82.558-.28 1.08"/></g></svg>