<?xml version="1.0" encoding="UTF-8" standalone="no"?>
<!-- Created with Inkscape (http://www.inkscape.org/) -->

<svg
   xmlns:dc="http://purl.org/dc/elements/1.1/"
   xmlns:cc="http://creativecommons.org/ns#"
   xmlns:rdf="http://www.w3.org/1999/02/22-rdf-syntax-ns#"
   xmlns:svg="http://www.w3.org/2000/svg"
   xmlns="http://www.w3.org/2000/svg"
   xmlns:sodipodi="http://sodipodi.sourceforge.net/DTD/sodipodi-0.dtd"
   xmlns:inkscape="http://www.inkscape.org/namespaces/inkscape"
   width="21.508427mm"
   height="16.130663mm"
   viewBox="0 0 21.508427 16.130663"
   version="1.1"
   id="svg26164"
   inkscape:version="0.92.0 r15299"
   sodipodi:docname="jamaica.svg">
  <defs
     id="defs26158" />
  <sodipodi:namedview
     id="base"
     pagecolor="#ffffff"
     bordercolor="#666666"
     borderopacity="1.0"
     inkscape:pageopacity="0.0"
     inkscape:pageshadow="2"
     inkscape:zoom="0.35"
     inkscape:cx="40.645846"
     inkscape:cy="30.483134"
     inkscape:document-units="mm"
     inkscape:current-layer="layer1"
     showgrid="false"
     fit-margin-top="0"
     fit-margin-left="0"
     fit-margin-right="0"
     fit-margin-bottom="0"
     inkscape:window-width="1920"
     inkscape:window-height="1017"
     inkscape:window-x="1912"
     inkscape:window-y="-8"
     inkscape:window-maximized="1" />
  <metadata
     id="metadata26161">
    <rdf:RDF>
      <cc:Work
         rdf:about="">
        <dc:format>image/svg+xml</dc:format>
        <dc:type
           rdf:resource="http://purl.org/dc/dcmitype/StillImage" />
        <dc:title></dc:title>
      </cc:Work>
    </rdf:RDF>
  </metadata>
  <g
     inkscape:label="Layer 1"
     inkscape:groupmode="layer"
     id="layer1"
     transform="translate(27.763142,-140.768)">
    <g
       id="jm"
       style="fill:#cbe6a3;fill-opacity:1;stroke:#000000;stroke-width:0.10870087;stroke-miterlimit:4;stroke-dasharray:none;stroke-opacity:1"
       transform="matrix(1.3292939,0,0,1.3292939,-933.55948,-652.02373)">
      <title
         id="title2603">Jamaica</title>
      <path
         inkscape:connector-curvature="0"
         id="jm-"
         class="landxx coastxx jm"
         d="m 681.459,601.558 c 2.002,-2.64 5.708,-2.221 8.568,-1.656 1.76,0.348 3.123,1.409 4.791,1.915 1.728,0.524 1.831,1.294 2.697,2.766 -0.766,0.363 -1.585,0.432 -2.42,0.432 -0.772,0 -1.151,-0.796 -1.972,-0.647 1.063,-0.18 -0.258,-0.39 -0.555,-0.126 -0.313,0.278 -0.588,0.83 -1.061,0.85 -0.926,0.04 -2.135,-0.132 -1.336,1.22 -0.957,0 -1.083,-1.154 -1.988,-1.071 -0.874,0.08 -2.392,-0.01 -2.868,-0.884 -0.294,-0.54 -0.788,-1.049 -1.195,-1.504 -0.701,-0.784 -2.112,-0.32 -2.661,-1.295"
         style="fill:#cbe6a3;fill-opacity:1;fill-rule:evenodd;stroke:#000000;stroke-width:0.10870087;stroke-miterlimit:4;stroke-dasharray:none;stroke-opacity:1" />
      <circle
         id="jm."
         class="circlexx jm"
         r="6.0130301"
         cy="602.46802"
         cx="690.414"
         style="opacity:0;fill:#cbe6a3;fill-opacity:1;stroke:#000000;stroke-width:0.10870087;stroke-miterlimit:4;stroke-dasharray:none;stroke-opacity:1" />
    </g>
  </g>
</svg>
