<?xml version="1.0" encoding="UTF-8" standalone="no"?>
<!-- Created with Inkscape (http://www.inkscape.org/) -->

<svg
   xmlns:dc="http://purl.org/dc/elements/1.1/"
   xmlns:cc="http://creativecommons.org/ns#"
   xmlns:rdf="http://www.w3.org/1999/02/22-rdf-syntax-ns#"
   xmlns:svg="http://www.w3.org/2000/svg"
   xmlns="http://www.w3.org/2000/svg"
   xmlns:sodipodi="http://sodipodi.sourceforge.net/DTD/sodipodi-0.dtd"
   xmlns:inkscape="http://www.inkscape.org/namespaces/inkscape"
   width="365.80823mm"
   height="170.79601mm"
   viewBox="0 0 365.80823 170.79601"
   version="1.1"
   id="svg19153"
   inkscape:version="0.92.0 r15299"
   sodipodi:docname="us_alaska.svg">
  <defs
     id="defs19147" />
  <sodipodi:namedview
     id="base"
     pagecolor="#ffffff"
     bordercolor="#666666"
     borderopacity="1.0"
     inkscape:pageopacity="0.0"
     inkscape:pageshadow="2"
     inkscape:zoom="0.35"
     inkscape:cx="1144.1483"
     inkscape:cy="185.62125"
     inkscape:document-units="mm"
     inkscape:current-layer="layer1"
     showgrid="false"
     fit-margin-top="0"
     fit-margin-left="0"
     fit-margin-right="0"
     fit-margin-bottom="0"
     inkscape:window-width="1920"
     inkscape:window-height="1017"
     inkscape:window-x="1912"
     inkscape:window-y="-8"
     inkscape:window-maximized="1" />
  <metadata
     id="metadata19150">
    <rdf:RDF>
      <cc:Work
         rdf:about="">
        <dc:format>image/svg+xml</dc:format>
        <dc:type
           rdf:resource="http://purl.org/dc/dcmitype/StillImage" />
        <dc:title></dc:title>
      </cc:Work>
    </rdf:RDF>
  </metadata>
  <g
     inkscape:label="Layer 1"
     inkscape:groupmode="layer"
     id="layer1"
     transform="translate(319.7315,-27.149618)">
    <path
       style="fill:#cbe6a3;fill-opacity:1;fill-rule:evenodd;stroke:#000000;stroke-width:0.14449541;stroke-miterlimit:4;stroke-dasharray:none;stroke-opacity:1"
       d="m -311.98989,195.08541 c -0.5902,0.46525 -1.2602,0.72048 -2.0099,0.76567 0.7351,-1.19902 -1.3519,-2.45653 -1.4782,-1.09799 -0.1475,1.58186 -2.6652,2.1827 -4.0729,2.34221 2.091,-2.33158 4.8692,-3.54522 7.7524,-4.59404 -2.4884,0.76966 -0.013,0.70453 0.5411,0.41873 0.9238,-0.47456 1.5379,-0.95178 2.604,-1.18972 2.5377,-0.56628 3.7154,-1.74536 6.0084,-2.76626 4.832,-2.14814 9.4566,-3.59175 14.6781,-4.50365 -2.4818,0.53704 2.38881,0.17547 3.0627,0 -1.4263,0.89196 -2.0298,1.25087 -2.3927,2.96699 1.24691,0.29776 4.2604,-4.01314 4.7854,-0.6713 0.3589,-0.13292 0.678,-0.31637 0.9571,-0.57425 -3.3245,-2.6998 13.9749,-7.82954 14.9812,-8.13927 2.3342,-0.71649 4.5967,-1.63902 6.92161,-2.3688 1.12329,-0.35226 1.78129,0.0399 2.88059,0.11964 1.3785,0.093 2.0338,-1.22694 2.8659,-2.0418 1.6843,-1.64699 4.5608,-2.38342 6.65321,-3.32589 2.68379,-1.20966 5.4434,-2.48578 8.38509,-2.90717 -1.5645,1.97666 1.9368,0.76036 2.48851,0.19275 -0.6647,0.45196 -1.3984,0.64338 -2.20131,0.57426 1.12721,-0.50913 1.28941,-1.87298 2.10561,-2.67986 0.93449,-0.92386 2.19729,-1.39576 3.21419,-2.20929 1.526,-1.22029 4.71101,-3.98256 6.73821,-2.29037 -0.48391,-0.67661 -1.27081,-0.90259 -2.00991,-0.47722 0.1622,-2.59345 4.7017,-3.84565 6.6438,-4.48238 3.99851,-1.31201 7.00011,-3.85894 10.77531,-5.56708 -2.095,0.58888 -3.7992,2.03116 -5.8436,2.73303 -1.6802,0.57558 -3.44691,0.87202 -5.1391,1.42367 -1.7546,0.57293 -6.28351,2.62137 -7.96771,1.1073 0.6992,-0.43069 0.8587,-0.96905 0.65001,-1.73738 -0.14891,-0.54634 1.60439,-1.27878 1.98199,-1.48483 0.77631,-0.42404 3.50001,-1.54862 2.8247,0.44665 0.52241,-0.0399 0.8401,-0.32834 0.95711,-0.86005 -0.81751,-0.18212 -1.6842,-0.87335 -1.53141,-1.81848 -0.44789,0.98235 -1.49939,1.6018 -2.42859,2.04844 -0.7165,0.34429 -4.5475,2.14282 -2.2611,0.15287 -1.3891,1.14851 -3.936,2.16675 -4.7615,3.71538 -0.5783,1.08337 -2.1482,2.74233 -3.59981,2.15212 -1.36779,-0.55431 1.974,-4.41192 -0.3482,-4.43186 0.34961,-0.22598 0.7005,-0.4493 1.0528,-0.66997 -1.42369,-0.60615 -2.858,0.94912 -4.1155,1.33993 0.22461,-0.3815 0.4479,-0.76434 0.6699,-1.14718 -0.77359,0.28979 -1.3665,-0.13957 -1.62699,-0.86138 0.34429,-0.17547 0.69389,-0.33365 1.05279,-0.47722 -2.2093,-1.38911 -7.9253,1.89824 -10.3778,2.14814 -1.7374,0.17813 -3.1026,1.43165 -4.8054,1.84772 -0.63139,0.13293 -1.2535,0.29909 -1.86769,0.49849 -0.8294,0.30042 -1.4688,-0.75105 -2.37941,-0.47456 1.4835,-1.27347 4.3149,-0.40145 5.4355,-2.14548 1.5579,-2.42197 2.1667,-1.96869 4.7097,-3.02282 -0.993,-0.13293 -2.0113,-0.16616 -2.967,0.19142 0.9145,-3.03743 4.6312,-2.83006 6.81791,-4.30292 0.85209,-0.57426 1.4024,-3.07067 2.05909,-4.01048 0.9677,-1.38513 2.2093,-2.58681 3.6609,-3.4575 -0.69519,0 -1.3333,0.19009 -1.91289,0.57426 2.76889,-3.32191 7.044,-4.16335 10.81519,-5.83826 -0.97569,0.17414 -2.18809,1.18706 -1.8185,-0.28713 -0.6554,1.03287 -10.2276,4.76951 -10.04549,5.22413 1.42899,3.57048 -15.8638,4.64322 -17.7102,4.24975 0.214,-1.1844 1.3453,-1.28941 2.20129,-1.81714 -1.4276,-0.41607 -1.0528,-2.92711 0.093,-3.44554 -2.1987,1.3293 -3.4987,-0.81086 -0.67,-1.72143 -0.6699,-0.21269 -1.3399,-0.21269 -2.0099,0 1.2376,-1.75068 3.8204,-1.65364 5.5884,-2.54693 0.5649,-0.28447 1.3054,-0.59818 1.7427,-1.07805 0.8468,-0.93051 1.6802,-0.30175 2.7184,-0.68592 -1.6018,1.61243 0.4147,0.59951 1.2163,1.5699 0.5291,0.63939 -3.2036,1.80385 -3.7047,1.97134 2.4179,-0.34296 4.4757,-1.85835 6.891,-2.19998 -0.2273,0.78561 -0.7524,1.4702 -1.4356,1.91418 1.1897,0.24459 3.4801,-0.29776 4.3547,-1.19237 0.8601,-0.88 -0.2578,-1.53534 -1.1006,-1.39178 0.9611,-0.35492 2.0046,-0.31371 2.9656,-0.67129 -1.2814,-0.0266 -1.2814,-0.28713 0,-0.76434 -2.281,0.0133 -4.2537,1.56457 -6.5813,1.1618 -1.5938,-0.27649 -3.847,-1.41836 -5.3823,-0.39613 0.3376,-1.46488 3.3033,-1.92216 4.4983,-2.00989 -0.751,-0.29776 -1.421,-0.16882 -2.0099,0.38283 0.08,-0.76035 0.5916,-1.3572 1.34,-1.53001 -0.6088,0.28712 -1.2469,0.47854 -1.9142,0.57425 0.3562,-1.2296 2.0657,-1.52869 2.967,-2.20131 -2.2718,0.28447 -3.6981,3.41629 -6.1254,2.96698 -0.1436,-1.16313 1.429,-1.41437 0.5835,-2.40735 -0.7098,-0.83347 2.4553,-1.65763 2.8607,-1.90089 -0.557,-0.53703 -1.1951,-0.66465 -1.9142,-0.38284 0.5304,-2.17206 2.8992,-1.3479 4.4983,-1.62705 -2.176,0.10634 0.331,-1.60313 1.6444,-1.51673 1.9354,0.13293 4.4292,-2.68916 6.2796,-3.49205 2.5456,-1.10597 5.1044,-2.20264 7.7072,-3.16239 0.7736,-0.28447 1.7813,-0.73377 2.632,-0.55432 1.2894,0.27251 0.3616,1.32664 -0.3656,1.5473 0.7351,-0.1635 1.437,-0.41873 2.1056,-0.76567 -2.6612,-0.45994 4.0198,-2.74898 4.8812,-3.0627 -1.433,0.39215 -2.7782,1.04084 -4.2112,1.43564 1.5938,-2.28904 6.2557,-5.07923 9.0924,-4.11549 -1.5845,-1.7653 3.84301,-2.41666 4.69901,-2.47382 0.8229,-0.0532 1.772,0.18211 2.4699,0.62477 1.3306,0.8441 -2.9684,1.81715 -3.4363,2.13485 3.3047,-1.40773 7.0347,-0.54236 10.3233,-2.03914 3.1784,-1.44627 6.4764,-2.77025 9.8714,-3.6077 -0.3603,0.30839 -0.7112,0.62742 -1.0528,0.95709 5.0127,0.17679 9.761,-0.47057 14.1742,-2.96566 1.7481,-0.98766 3.0069,-2.36481 4.4877,-3.683471 0.9186,-0.818846 3.1039,-4.636577 0,-3.301966 0.8601,-0.398787 12.6416,-2.29436 9.7624,-4.976876 0.5078,-0.138247 1.0182,-0.265861 1.5313,-0.382838 -1.7746,0.132932 -3.3259,0.955765 -4.9769,1.530019 -1.6603,0.578241 -3.4734,-0.276495 -5.0726,0.575582 2.7012,-0.538363 -1.0222,0.49184 -1.2575,0.550328 -1.2003,0.293775 -2.4233,0.483865 -3.6343,0.727126 -2.5269,0.507788 -4.5927,2.072367 -7.0718,2.647952 1.2615,-1.413039 1.6629,-3.553203 -0.9571,-2.584148 0.3536,0.283141 0.7045,0.570267 1.0528,0.860055 -1.1073,0.445312 -1.5779,1.421013 -2.3608,0.461264 -0.4533,-0.555644 -1.1326,-0.862711 -1.8105,-1.03685 -1.5393,-0.392141 -3.1943,-0.24326 -4.7536,-0.06646 -3.6449,0.402775 -6.3128,1.375818 -9.9776,0.705853 -0.5716,-0.106341 -5.817,-0.922528 -4.5755,-2.164091 0.6142,-0.614132 2.6134,-0.808209 2.2545,-1.910193 -0.6075,-1.86367 1.0435,-3.453506 2.753,-3.736645 -0.7059,0.283139 -1.3758,0.635402 -2.0099,1.054129 1.1299,1.066094 2.6719,0.329666 3.7712,-0.330993 1.191,-0.715161 2.5057,-0.384167 3.7898,-0.244592 -1.5978,-2.075026 -5.2932,-1.584518 -7.5756,-1.794547 -0.7724,-0.06646 -1.8238,-1.314669 -2.1389,-1.944756 -0.5663,-1.12857 2.9404,-1.531348 3.5891,-1.62174 -0.997,0.389485 -2.0285,0.685917 -3.0627,0.958421 2.4512,0.551659 4.6459,-1.030202 6.9057,-1.649653 2.0112,-0.550328 4.2537,-0.07976 6.0549,-1.335939 3.9321,-2.758287 9.1788,-0.915885 13.4565,-1.799865 -0.3603,-0.210027 -0.7112,-0.433351 -1.0528,-0.669962 1.9447,-2.207959 5.6641,-1.983309 8.3227,-2.203972 4.259,-0.352261 8.2908,-2.310312 12.6376,-1.624396 -1.0781,-0.148881 -2.7304,1.249537 -3.5625,1.802522 -1.6523,1.096669 -3.2874,1.593823 -5.147,2.215933 0.9278,-0.24592 0.8308,0.106344 1.1312,0.720476 0.3296,0.669965 1.6829,0.430691 2.2265,0.385495 1.1552,-0.09305 2.3263,-0.07976 3.4841,-0.07976 0.7511,0 4.053,-0.494499 1.5806,0.887968 2.5482,-1.357209 5.5205,0.378849 8.1352,-0.669965 1.1459,0 4.2777,-3.235499 6.604,-1.530016 -0.327,0.345614 -0.678,0.664646 -1.0528,0.95709 1.0714,-0.374859 2.2638,-0.67528 2.7755,-1.818473 -1.7134,-1.438296 -4.1381,-0.926518 -6.0296,-0.192747 0.9517,-0.75371 3.1584,-1.269476 3.0214,-2.774238 -0.1196,-1.26283 -1.6682,-1.007605 -0.7829,-2.238531 1.6164,-2.247836 4.384,0.170151 2.2332,1.349235 -4.4146,2.420644 3.5718,2.040466 3.5293,1.997927 1.9979,1.997929 7.2034,1.605788 8.3652,-1.301377 -0.7085,0.09305 -1.4104,0.218003 -2.1056,0.382836 -0.9903,-0.05317 -1.7639,-0.80954 -2.7888,-0.624769 -1.5912,0.288457 -3.3406,1.700168 -5.0141,1.05413 -2.7703,-1.070081 3.7114,-4.204555 5.0287,-4.067638 -0.5317,-2.106933 -3.7327,0.182112 -3.7327,-1.148512 -0.5968,0.546341 -1.2987,0.801566 -2.1056,0.765675 0.8867,-0.719148 1.9661,-1.108633 2.967,-1.627055 -1.1605,-0.119636 -2.1893,0.837454 -3.1969,1.240229 -1.3812,0.552987 -4.1421,0.01328 -5.5352,-0.29909 -3.1544,-0.705855 -0.4865,-1.67491 0.5809,-3.198281 1.4024,-2.007235 0.3363,-5.414216 -2.1428,-6.486956 -0.8069,-0.349602 -2.2226,-0.156856 -2.4699,-1.240229 -0.3722,-1.633702 -1.3013,-1.581862 -2.7396,-1.692193 3.4309,-0.332322 6.3978,-1.97267 9.3662,-3.59441 3.3684,-1.839742 6.12,-1.347904 9.8819,-1.61908 8.223,-0.594194 15.3108,-2.495084 23.0553,-5.314517 -0.6593,0.341629 -1.3293,0.660659 -2.0099,0.957092 3.8071,-0.727124 7.1848,-3.823049 10.9919,-4.975547 4.5967,-1.390442 8.9808,-4.033078 13.795497,-4.595369 -0.8189,0.418727 -0.8481,1.153827 -1.8185,1.341257 3.3764,-0.596853 6.8419,-0.749721 10.1452,-1.724094 3.0334,-0.894615 6.1559,-2.29569 9.3795,-2.199981 -0.8481,0.711172 -1.9435,1.171108 -3.0627,1.14851 3.2394,-0.486522 -0.5889,0.885309 -1.2456,1.14718 1.0781,-0.369543 1.2057,-0.05317 0.3828,0.958421 1.0675,-0.737758 2.1482,-1.456906 3.3113,-2.039137 1.4303,-0.71516 3.1305,-0.144893 4.6326,-0.54501 -0.9916,0 -1.9939,-0.05317 -2.967,0.191418 0.3882,-1.120595 -0.5609,-1.418356 -1.4356,-1.052801 3.1185,-1.285427 6.5029,-1.625726 9.7623,-2.392729 -0.6646,0.354922 -1.3678,0.610146 -2.1056,0.765674 4.38,1.079386 10.5892,-0.309726 14.9014,-1.322648 5.26,-1.233584 10.3087,-3.243477 15.53411,-4.61132 -0.76962,0.216675 -1.47021,0.567608 -2.10561,1.052801 0.5437,0.200723 4.88921,0.631414 3.88419,1.761314 -1.4356,1.616421 -4.85849,1.791888 -6.8512,1.779924 0.3324,0.774979 -0.27508,1.330624 -0.957,1.530018 2.0152,-0.556974 4.053,-1.03685 6.02962,-1.722765 1.20298,-0.416069 2.38739,-0.886639 3.59839,-1.28011 0.58621,-0.190089 4.05569,-1.611104 1.4742,0.227309 0.4613,-0.315043 2.05111,-0.814857 2.32889,0 0.44,1.284098 -2.36209,1.545969 -3.09589,1.631044 1.93551,1.831767 5.07389,0.358909 7.28059,0 3.10521,-0.506461 6.887,-0.563621 9.94712,0.194077 -1.0196,1.160473 -2.69581,1.443613 -4.01981,2.105601 0.60081,0.308396 1.23891,0.469241 1.9142,0.478546 -1.36919,0.158186 -2.761,-0.02659 -4.11551,0.287127 2.03642,0.261871 4.0849,0 6.12542,0 -0.70191,0.255225 -1.4038,0.510449 -2.10561,0.765674 1.75059,0.88398 3.6834,0.773649 5.55771,0.45196 1.13519,-0.194077 2.2638,-0.445314 3.4123,-0.559633 0.62749,-0.06647 3.423,-0.67794 1.558,0.48918 3.02808,0 6.14789,-0.891956 9.19599,-0.515766 0.94779,0.119636 2.37410998,0.404105 3.13578998,1.027544 1.18581002,0.969055 2.84742002,0.190089 4.05702002,0.902591 2.98429,1.761314 6.15069,0.751051 9.4407,1.16712 0.9983,0.119636 3.31258,-0.478546 3.66879,0.711172 0.15949,0.530388 3.06541,0.09305 1.41441,0.918542 1.8092,-0.03988 3.61969,0.05317 5.4288,-0.01329 0.9039,-0.02659 1.80118,-0.119636 2.6932,-0.2632 1.44089,-0.606158 1.73339,-0.513107 0.87468,0.279152 1.87561,-2.121553 7.03191,-1.24289 9.36482,-0.58356 1.58319,0.446642 2.01258,2.060405 3.61299,2.413997 1.22431,0.269847 1.17121,0.418728 1.83449,1.284098 0.78822,1.028874 2.01782,-0.336311 2.98961,0.330995 l -113.9923,94.560647 c 1.1232,0.29378 2.0989,0.68061 3.2395,0.16351 1.1698,-0.53039 2.0258,0.49981 3.1291,0.6261 1.336,0.1542 2.9909,-0.88265 4.2843,-1.1844 1.5327,-0.35758 3.11719,-0.44399 4.65921,-0.0798 -1.08072,0.82416 -2.63061,1.29872 -3.37771,2.50704 -0.7683,1.24156 1.15119,1.52337 1.00889,2.89122 -0.19009,1.82379 0.89332,3.46946 1.5035,5.14437 0.58481,1.60711 -1.07148,3.15973 -1.81449,4.388 3.30719,-1.15516 6.8139,-1.72809 10.0189,-3.17835 1.40499,-0.6354 2.73029,-1.45026 3.87091,-2.49508 0.4758,-0.14091 0.96239,-0.21402 1.45949,-0.21801 0.68329,-0.31504 0.70059,-1.04482 1.3054,-1.38246 1.0395,-0.5809 2.3023,-0.42006 3.43221,-0.62477 1.24028,-0.22465 4.22719,-1.70149 5.36368,-1.17111 3.88022,1.8105 -2.2465,3.63695 -0.4572,5.42219 0.48511,0.48387 1.6855,0.95709 1.23492,1.85437 -0.40812,0.81486 -1.00902,2.37146 -0.20741,3.05737 2.39541,2.0511 0.91321,3.2355 0.48781,5.61627 -0.38811,2.17738 -1.0687,4.31223 -1.28672,6.51753 -0.14089,1.40772 0.013,3.47876 -0.9385,4.63658 -0.61939,0.74839 -1.87828,1.79188 -0.2353,2.35019 -1.65229,0.7218 -1.78519,2.91248 -2.1295,4.40262 1.70281,-0.25788 4.53422,1.7334 5.81571,2.76227 1.33461,1.07407 1.0461,2.95369 3.2767,2.69315 -0.654,1.67624 -2.20001,2.23056 -3.59579,3.12783 -1.8278,1.17377 -2.21062,3.29665 -3.65691,4.73893 -2.92569,2.91514 -7.91459,5.17361 -11.31491,6.58666 0.48252,-0.69124 0.99301,-1.35987 1.5313,-2.0099 -0.83738,0.83081 -1.79448,1.61642 -2.96558,1.91286 0.6527,-3.18632 6.21308,-4.66184 8.8052,-5.93397 -0.71911,0.23395 -6.81791,3.18632 -6.41252,1.43563 0.27522,-1.19636 4.27371,-1.29872 5.07262,-1.24554 -0.66731,-0.0798 -1.33731,-0.11964 -2.00991,-0.0931 1.1525,-1.50609 3.76989,-3.38306 3.92009,-5.41156 0.17151,-2.32493 1.20571,-2.01787 2.87661,-3.29665 -2.19599,0.72048 -4.3189,2.04047 -6.6997,2.0099 0.5996,-0.24327 1.2057,-0.46659 1.8185,-0.66997 -0.6274,0.218 -5.252,0.88265 -5.1191,1.61243 0.20471,1.12592 -0.4985,0.87202 -1.2123,1.538 -1.11259,1.04083 -1.09,-0.0532 -2.01919,1.18839 -0.5783,0.77364 -2.38741,0.74972 -1.71611,-0.30441 0.80819,-1.27214 2.20929,-1.95938 3.46281,-2.69448 1.3426,-0.78561 2.55889,-1.65231 3.605,-2.81412 1.0183,-1.1299 2.84739,-0.51177 4.1474,-0.72712 -1.0913,-0.30574 -2.39541,-0.0665 -2.58411,-1.53135 -0.08,0.9212 -1.81049,2.63865 -2.78889,1.96204 -1.40772,-0.97171 1.03018,-3.02148 1.73609,-3.58909 -0.13301,0.6806 0.10631,1.20301 0.86,1.24555 -0.4386,-0.80423 -0.37481,-1.5699 0.1928,-2.29835 -0.3456,-0.14357 -0.69519,-0.27118 -1.0528,-0.38284 1.1458,-0.42272 1.6682,-1.6882 2.8712,-2.00989 -0.90119,0.33365 -1.7785,0.63141 -2.3395,-0.39746 -0.7471,-1.3705 1.14049,-1.19769 1.47821,-2.28107 -0.97171,0.70585 -2.2678,-0.0399 -2.10561,-1.24688 -1.21899,1.35322 -2.72381,-0.11964 -0.9425,-1.09534 1.26421,-0.68857 2.858,-0.27649 4.19791,-0.72313 -0.99301,0.0665 -1.9753,0.40676 -2.96702,0.0931 1.60711,-0.54767 0.45461,-2.46053 2.58422,-2.58415 -1.1153,0.26054 -1.49421,-0.91455 -0.44001,-1.33594 0.80291,-0.32036 1.8437,1.03552 2.25841,1.52869 0.40018,-1.11262 -1.19232,-1.56591 -0.85072,-2.51768 0.64201,-1.79189 2.94312,-1.15649 4.20061,-0.73643 -1.768,-1.13921 -3.42699,-0.45329 -4.97689,0.66996 -0.70991,-1.18174 2.0139,-3.10656 3.06268,-3.54124 -0.69128,0.1768 -2.91118,1.9873 -3.19699,1.14718 -0.28979,-0.8534 0.5995,-1.70415 1.16049,-2.19599 1.52871,-1.34525 3.68081,-2.65061 5.67341,-3.16239 -1.9168,-0.17148 -3.90811,1.23093 -5.24941,2.44989 -1.85169,1.68288 -2.46849,-0.69256 -4.3215,-0.91722 0.81352,-0.69389 0.79362,-1.68687 1.07411,-2.62402 0.25249,-0.84277 1.3957,-1.21099 1.89291,-1.8743 -2.13882,1.79587 0.21399,-2.62669 0.60618,-3.15043 1.02481,-1.37183 2.21721,-2.81279 3.605,-3.83634 -0.78959,0.42005 -1.4197,1.09932 -2.25049,1.45026 -1.3811,0.58223 -0.3855,0.93848 -1.38509,2.08965 -0.39751,-1.99262 -1.73871,0.82815 -2.3223,1.74669 -0.75772,1.19503 -2.33162,2.72638 -2.7304,4.05301 -0.4785,1.59649 -1.69611,3.33919 -3.4349,3.68481 -1.57382,0.31238 -0.64471,-1.55262 -0.22201,-2.11491 -0.88921,1.0209 -2.87121,0.41607 -4.01841,0.47855 1.89161,-2.31298 3.21291,-4.71767 6.22112,-5.26401 -0.71382,-0.49051 -1.53932,-0.34428 -2.10561,0.28713 1.54199,-2.5549 -2.19599,0.93848 -2.69449,1.0754 -1.6138,0.44 -0.63672,-2.02186 -1.1339,-2.70113 -0.29771,1.44495 -1.6842,0.83214 -2.0099,-0.19274 -0.55431,1.36651 -2.4951,1.51672 -3.63691,2.1056 1.38509,-0.53837 2.60011,-0.16218 4.01981,-0.19142 -0.33242,0.75105 -0.85881,2.85931 0.7656,1.33993 -0.56092,0.57425 -1.23092,0.95709 -2.00991,1.14851 0.9053,-0.0399 2.2279,-0.84942 2.48849,0.57425 -0.96909,0.0931 -0.7551,0.45728 -0.84148,1.15516 -0.1329,1.08071 -2.19861,1.3838 -2.98691,1.5247 1.42499,-1.69751 -0.8786,-1.06742 -1.5313,-0.66997 2.3342,-0.2273 -0.18079,0.32967 -0.68591,0.30441 -0.91059,-0.0532 -1.04489,1.316 -2.18539,1.32398 1.1525,-1.49811 -5.1736,-3.08662 -2.2013,-4.49966 -1.4423,0.42537 -1.5274,-1.13655 -1.2801,-2.11092 0.3881,-1.53134 -0.2712,-2.58813 -1.9727,-2.86463 0.4892,-0.36821 1.0315,-0.62344 1.6271,-0.76567 -1.5527,-0.17679 -4.3136,0.27516 -4.2112,-2.1056 -1.1353,0.87201 -1.7401,-0.80556 -2.5842,-1.24555 0.9863,-1.06742 2.5669,-1.17642 3.6064,-2.17473 0.9225,-0.88663 1.4117,-2.02185 2.6705,-2.53496 3.1225,-1.26947 -1.1432,3.26741 -1.2043,3.46547 1.1033,-1.38379 3.1052,-3.29133 4.9769,-2.00989 -0.9119,-0.55565 -1.8012,-2.4366 -3.0641,-2.07636 -1.6483,0.47057 -3.157,1.54331 -4.8665,2.02585 -3.9653,1.12325 -7.4653,1.40373 -11.2126,-0.61946 0.9757,-0.70053 2.5456,-0.94379 2.6812,-2.39405 -1.5114,-0.13293 -2.426,1.46887 -4.1434,1.15249 -2.2638,-0.41739 -4.517,-0.88398 -6.7821,-1.29473 -4.0237,-0.72845 -8.2017,2.42197 -12.1417,0.81087 2.5057,-0.24459 -2.1668,-2.93375 -3.158397,-2.77557 1.795797,-2.33557 4.991497,-2.60807 7.178097,-4.40262 -2.822,0.43734 -5.0114,2.0418 -7.582297,3.0853 -0.6766,0.27516 -1.9195,0.9212 -2.6865,0.65002 -0.9012,-0.31903 -1.4515,-1.41836 -2.5575,-1.05546 1.1605,-0.98235 2.64,-1.52337 4.0198,-2.1056 -0.5198,0.0931 -4.7908,0.86005 -2.1056,-0.28713 -1.0236,0.18079 -2.0392,0.3948 -3.0627,0.57426 0.8707,-0.65668 1.954,-0.83347 2.967,-1.14718 -1.6723,-0.10635 -3.306,0.74972 -4.9769,0.38283 1.4423,-0.92784 3.8363,-1.61908 5.5511,-1.34126 -1.0953,-0.72978 -2.7769,0.67529 -3.7991,-0.15419 -1.2469,-1.01027 4.2949,-2.60808 5.4262,-2.42862 -1.3346,-1.25885 -3.7447,-0.11964 -5.0766,0.54767 -1.7307,0.86271 -3.9919,0.69389 -5.93,1.36518 0.2845,-0.32036 0.5729,-0.63939 0.8614,-0.95709 -0.6992,0.21933 -1.3692,0.50646 -2.0099,0.86005 0.7803,-1.09268 2.0644,-1.61775 2.967,-2.58282 -1.655,0.84676 -3.0454,2.93243 -4.9769,3.15841 0.3204,-0.31771 0.6381,-0.63673 0.9571,-0.95709 -0.8228,0.0797 -1.5539,0.56362 -2.0099,1.24421 -1.764,-1.69618 4.9835,-4.01313 5.8383,-4.68842 -1.6816,0.50248 -3.2661,1.30936 -4.7988,2.14681 -1.3957,0.76169 -2.9869,-0.62343 -4.2923,0.72314 1.0502,-0.14888 2.0073,-0.64205 3.0627,-0.76434 -2.1973,1.88626 -4.711,1.68554 -7.0825,2.77556 2.6174,-0.21402 -1.3479,0.81752 -1.9141,1.24422 1.0873,-0.0798 1.9766,-0.78295 3.0627,-0.86138 -0.2832,0.32169 -0.5703,0.64072 -0.8614,0.95842 0.7005,-0.17547 1.3705,-0.43069 2.0099,-0.76567 -1.2416,2.4459 -4.521,2.00058 -6.6997,2.87127 2.1309,-0.35226 3.8988,-0.62743 5.934,-1.14851 0.8747,2.33823 -5.8954,2.69581 -6.8911,3.92408 0.6753,0 1.3134,-0.17015 1.9142,-0.47855 -0.4174,0.38815 -2.0311,1.78524 0,0.57558 -1.1565,0.93317 -2.854,1.64301 -4.279,2.02186 -0.8095,0.21535 -1.4848,0.32568 -2.2624,0.67661 -1.4224,0.64338 -2.5722,-0.23528 -3.9866,-0.30573 0.4254,-0.26587 0.872,-0.48918 1.3399,-0.66997 -1.4808,0.0399 -2.6798,0.8893 -3.8283,1.72276 0.6885,-0.72313 1.3013,-1.5114 1.9142,-2.29834 -1.2602,0.10634 -5.6509,2.42994 -5.7426,3.82969 -0.2114,-0.79492 0.1981,-1.46089 0.9571,-1.72409 -0.6567,0.25389 -1.4915,0 -2.1056,0.38283 -0.7351,0.44532 -0.7949,1.52736 -1.5314,2.01123 0.1675,-1.88228 -1.3558,-0.60749 -2.1375,-0.0798 -1.4476,0.96374 -3.6701,1.67359 -5.3278,2.19068 1.1459,-1.02754 2.5988,-1.64433 3.9241,-2.39406 -1.8371,0.5171 -3.2966,1.82911 -5.0726,2.48977 0.2991,-0.34163 0.5862,-0.69256 0.8614,-1.05413 -1.6084,-0.18211 -2.834,1.59249 -4.2923,1.98862 -2.2385,0.61015 -2.422,1.15782 -4.703,0.59553 0.8972,1.62572 -0.4826,0.85872 -1.2815,0.67262 -1.0674,-0.24858 -2.3276,0.51311 -3.3259,0.78561 -0.7789,0.21136 -1.6749,-0.52507 -1.3266,-1.36119 0.1901,-0.45595 1.2748,-0.63408 1.651,-0.74972 3.843,-1.18707 7.6846,-2.85001 11.5569,-3.94003 -1.9926,-0.51577 -4.5023,2.26246 -6.2889,0.72712 -1.5367,-1.31999 6.8645,-4.83198 8.1499,-5.41953 1.651,-0.75504 3.2887,-1.5792 4.7429,-2.6772 0.9265,-0.69788 1.3865,-2.50306 2.5456,-2.85 3.8722,-1.16181 7.8854,-2.2053 11.8108,-3.27671 -0.053,1.70681 1.5526,1.2482 2.64,0.94911 1.8743,-0.51709 4.5594,0.24858 6.3566,0.86936 -1.3851,-1.61376 -6.7342,-2.13352 -2.4924,-4.27235 2.4419,-1.23093 5.264,-1.74537 7.9479,-2.13884 -2.5483,-1.1299 -5.1737,0.92386 -7.4547,1.75866 -0.8135,0.29776 -5.0979,1.67358 -4.1261,-0.61147 -1.1738,1.18041 -3.1292,1.45956 -4.7031,1.60312 -1.8743,0.17015 -3.2754,1.56591 -5.0619,1.96869 -1.9129,0.43069 -3.6303,0.37486 -5.3279,1.51672 -1.2163,0.81752 -2.2491,1.41437 -3.6728,1.76132 -2.8753,0.70186 -4.6618,1.21763 -6.8804,3.07598 -1.199,1.00495 -2.9351,1.36519 -4.3907,1.82247 -1.5233,0.47721 -2.3714,-1.13123 -3.6529,-0.55166 1.97,-0.33631 1.5978,2.27974 0.3137,2.9271 -2.4219,1.21897 -4.9077,1.02356 -7.3962,1.85969 2.0791,-0.14224 0.553,1.3386 -0.2658,1.56192 -1.0502,0.28712 -2.3063,-0.0399 -3.2754,0.54368 2.7836,-1.69751 -0.6101,-0.22864 -1.1086,0 -1.0422,0.49051 -2.6985,0.51975 -3.5851,1.08869 -0.4214,0.27117 -0.4626,0.8215 -0.9265,1.0621 -0.8309,0.4307 -2.6281,0.60483 -3.5679,0.71384 2.5204,0.0133 -0.747,0.66996 -1.3426,0.90524 -1.2615,0.49583 -2.7742,1.18175 -3.4428,2.44458 1.433,-0.11964 3.4136,-0.6035 4.7176,0.22598 2.2984,1.46089 -2.2119,3.11586 -3.0361,3.39767 -1.958,0.66997 -4.17,0.68858 -5.8994,1.81848 -0.9066,0.59153 -1.8397,0.45063 -2.6785,1.21497 -1.2283,1.12059 -2.8527,0.75371 -4.1102,1.7653 0.6368,-0.30972 1.3054,-0.50114 2.0099,-0.57425 -1.0342,0.57558 -4.1354,3.57048 -3.9241,1.43563 -0.9531,1.32398 -3.7978,1.35323 -5.3198,1.57921 -1.6271,0.24193 -2.6612,0.94778 -4.1487,1.65231 -1.6616,0.78827 -3.4588,0.69921 -5.0673,1.32796 -1.96731,0.76701 -3.74201,2.23322 -5.8329,2.22657 -1.1645,0 -1.61511,1.24688 -2.54561,0.87468 -1.2469,-0.49849 -4.1129,1.38512 -5.3199,1.71877 2.095,-0.29244 0.066,1.15117 -0.6247,1.65231 -1.05819,0.76302 -2.6041,0.74574 -3.7221,1.52338 -0.9265,0.64471 -2.164,0.68857 -3.2434,0.80954 -1.64969,0.18743 -2.3715,1.08071 -3.78189,1.56059 -0.66991,0.22864 -0.7005,-0.91057 -1.32001,-0.66199 -0.7045,0.28181 -2.5602,0.75903 -2.79279,1.60844 -0.2858,1.05015 -1.4649,1.11794 -2.3329,0.88265 -1.60451,-0.436 -2.43661,0 -4.00521,0.4719 2.5961,0.26453 -1.2695,1.03154 -2.0099,1.04084 -2.20529,0.0266 -4.4518,1.09933 -6.3168,2.21328 1.005,-0.11964 1.9142,-0.91589 2.967,-0.47722 -0.8561,0.6487 -1.2482,0.91588 0.093,1.0528 -0.91989,0.55166 -2.0153,0.49849 -2.96699,0.95709 -0.80431,0.38683 -1.33731,1.45558 -2.29711,1.53135 0.32841,-1.09268 1.3692,-1.69751 2.39281,-2.00989 -1.2535,-0.73111 -2.65861,1.0847 -3.5147,1.71877 -1.1405,0.84543 -3.0108,1.14719 -4.3893,1.25619 -1.8291,0.14356 -3.387,0 -5.08851,0.95443 -1.5766,0.87866 -2.88989,2.77158 -4.9051,2.67454 1.13781,-0.55166 2.1601,-1.32132 3.0627,-2.20131 -1.12329,-1.18307 -3.7699,0.10634 -4.8852,0.69522 -0.8029,0.42139 -1.36389,0.47323 -2.2664,0.52108 -1.09009,0.0532 -2.53099,1.316 -3.47219,1.84639 1.20969,-1.97134 -0.60741,-0.45462 -1.08071,-0.10634 -0.7298,0.53969 -1.5007,0.48785 -2.28239,0.13293 -0.3815,-0.17414 -2.17741,0.65667 -2.4698,0.74307 -1.2362,0.3629 -2.68921,0.14756 -3.8337,0.56761 1.50339,-1.46754 2.89649,-1.93013 4.9769,-1.81714 -2.20131,-2.83273 -6.13741,0.93715 -8.14461,2.1694 -0.868,0.53305 -1.8716,0.55565 -2.7663,0.989 -0.7989,0.38682 -1.2109,1.24422 -2.0098,1.62705 -0.8056,0.38284 -0.5344,-1.25618 -1.4317,0.0266 -0.5171,0.73909 -1.7055,0.83879 -2.4924,0.54767 1.2415,-0.40144 1.0647,-1.58585 1.4356,-2.58281 -2.02049,-0.37752 -2.04309,3.39501 -4.11809,2.86728 m 86.4267,-32.73247 c -2.94971,1.23225 1.38509,2.41533 2.20129,3.34982 -0.327,0.3177 -0.6766,0.60483 -1.0528,0.86138 0.61281,-0.29244 1.97,-0.45728 2.05771,-1.33993 0.08,-0.86404 2.01519,-0.82283 2.44059,-1.62705 -1.9182,-0.8893 -3.4588,-1.8969 -5.64679,-1.24422 m 24.1187,-13.68641 c 2.4087,0.72579 4.6033,-0.89594 6.9602,-0.98634 1.8264,-0.0665 4.3614,0.64072 5.9605,-0.54501 -1.3306,0.36556 -1.2854,0.2313 0.1369,-0.40676 1.0542,-0.51444 2.1681,-0.88132 3.2967,-1.18839 1.8995,-0.51577 3.8337,-0.90392 5.6588,-1.66029 -2.2186,-0.0798 -4.7257,-0.17281 -6.919,0.19408 -1.8238,0.30441 -3.4987,1.08071 -5.3504,1.29872 -3.508,0.41474 -7.3151,0.25256 -9.7437,3.29399"
       class="landxx us"
       id="path3790"
       inkscape:connector-curvature="0" />
  </g>
</svg>
