<?xml version="1.0" encoding="UTF-8" standalone="no"?>
<!-- Created with Inkscape (http://www.inkscape.org/) -->

<svg
   xmlns:dc="http://purl.org/dc/elements/1.1/"
   xmlns:cc="http://creativecommons.org/ns#"
   xmlns:rdf="http://www.w3.org/1999/02/22-rdf-syntax-ns#"
   xmlns:svg="http://www.w3.org/2000/svg"
   xmlns="http://www.w3.org/2000/svg"
   xmlns:sodipodi="http://sodipodi.sourceforge.net/DTD/sodipodi-0.dtd"
   xmlns:inkscape="http://www.inkscape.org/namespaces/inkscape"
   width="558.49097mm"
   height="277.27325mm"
   viewBox="0 0 558.49097 277.27325"
   version="1.1"
   id="svg18587"
   inkscape:version="0.92.0 r15299"
   sodipodi:docname="us_main.svg">
  <defs
     id="defs18581" />
  <sodipodi:namedview
     id="base"
     pagecolor="#ffffff"
     bordercolor="#666666"
     borderopacity="1.0"
     inkscape:pageopacity="0.0"
     inkscape:pageshadow="2"
     inkscape:zoom="0.35"
     inkscape:cx="1228.2731"
     inkscape:cy="889.69525"
     inkscape:document-units="mm"
     inkscape:current-layer="layer1"
     showgrid="false"
     fit-margin-top="0"
     fit-margin-left="0"
     fit-margin-right="0"
     fit-margin-bottom="0"
     inkscape:window-width="1920"
     inkscape:window-height="1017"
     inkscape:window-x="1912"
     inkscape:window-y="-8"
     inkscape:window-maximized="1" />
  <metadata
     id="metadata18584">
    <rdf:RDF>
      <cc:Work
         rdf:about="">
        <dc:format>image/svg+xml</dc:format>
        <dc:type
           rdf:resource="http://purl.org/dc/dcmitype/StillImage" />
        <dc:title></dc:title>
      </cc:Work>
    </rdf:RDF>
  </metadata>
  <g
     inkscape:label="Layer 1"
     inkscape:groupmode="layer"
     id="layer1"
     transform="translate(462.9419,-167.43479)">
    <path
       style="fill:#cbe6a3;fill-opacity:1;fill-rule:evenodd;stroke:#000000;stroke-width:0.14449541;stroke-miterlimit:4;stroke-dasharray:none;stroke-opacity:1"
       d="m -460.68399,293.42711 c 0.8534,-2.6001 -2.7609,-4.83198 -2.1056,-7.75244 0.7431,-3.30994 3.5745,-6.29288 3.7274,-9.66397 0.053,-1.30802 -2.1575,-4.19525 -1.6896,-5.1324 1.3147,-2.62801 2.7982,-4.98085 5.619,-6.16393 -1.2948,0.64338 -1.3985,0.51843 -0.3124,-0.37752 0.7417,-0.74573 1.627,-1.60179 1.8437,-2.68517 0.3602,-1.79588 2.5576,-2.99357 3.3458,-4.65386 0.6102,-1.28808 0,-3.15308 0.8149,-4.12613 1.3399,-1.61908 0.5211,-2.083 0.8348,-3.91211 0.222,-1.29473 1.219,-2.31031 1.9634,-3.33121 0.9185,-1.25884 0.6819,-2.41001 1.2522,-3.71006 0.6447,-1.46754 1.8397,-2.74366 2.9483,-3.87356 0.4586,-0.46791 3.0122,-3.14644 2.3356,-1.56458 0.3217,-0.74972 0.8202,-0.69921 1.4755,-0.87866 0.4387,-0.11964 1.4277,-1.92881 -0.4227,-0.36556 1.0049,-1.31866 2.2239,-3.46813 4.1155,-3.54125 -2.0963,0.51844 -0.1064,-1.23224 0.4094,-1.94076 0.7577,-1.0395 1.58191,-2.02584 2.3967,-3.02015 1.2296,-1.5021 2.0099,-3.36976 3.47881,-4.67646 2.14149,-1.90489 4.18199,-5.13373 5.74519,-7.60356 0.5743,-0.90525 1.7095,-3.19163 3.0919,-2.95369 -0.5011,-1.49147 1.23501,-3.47079 2.1282,-4.46244 1.14851,-1.2748 1.5234,-3.29798 3.4442,-3.39901 1.44101,-0.0798 4.2923,1.18175 5.4329,0.20472 -0.7604,0.33099 -1.7667,-0.54501 -2.3808,-0.85873 -1.1804,-0.6035 -1.8145,-0.25256 -3.0122,-0.0665 -1.8065,0.28313 0.31241,-3.05073 0.6075,-3.57581 -0.2592,0.68194 -0.5463,1.35323 -0.8614,2.01123 1.62571,-0.34827 2.28911,-4.04371 4.21121,-3.1584 -0.61141,-0.52241 -1.31331,-0.71383 -2.10561,-0.57559 0.3111,-2.19865 2.1854,-2.17074 3.92411,-2.67985 -0.79491,0.0532 -1.51941,-0.35626 -2.00991,-0.95709 -0.2845,0.29643 -0.5397,0.61412 -0.7657,0.95709 0.97571,-3.12119 3.2927,-6.30086 3.072,-9.64802 -0.1063,-1.59515 1.81721,-6.63583 3.4256,-6.21578 2.5656,0.66997 4.38941,2.12289 7.1011,2.58814 1.63371,0.28048 5.8157,-0.13293 5.8303,1.5021 0.18881,-0.74706 0.7816,-1.28543 1.5313,-1.43564 -0.4346,0.73909 -0.1196,1.68821 -0.3589,2.47648 -0.2791,0.94911 -2.4977,2.02584 -3.27929,2.59611 2.1481,-2.20663 -0.8534,-0.13293 -1.27481,0.15819 -1.3373,0.90657 -2.53769,1.99261 -3.79649,3.00021 0.94109,0.82682 2.01259,0.0798 2.87129,-0.38284 -0.654,0.1768 -1.29209,0.40012 -1.91289,0.66997 0,-1.4476 1.7281,-2.29835 2.86069,-2.74101 1.94471,-0.75636 3.23681,-2.02717 4.9861,-3.09725 0.55571,1.49944 -3.20349,2.51104 -3.7326,4.11549 1.877,-1.02488 0,2.59744 -1.6271,2.77557 0.2872,-0.31903 0.5743,-0.63673 0.8601,-0.95709 -1.2456,0.15154 -1.9235,1.36385 -2.6799,2.20131 -0.066,-0.80555 0.39221,-1.50077 1.0528,-1.91418 -1.4356,0.48785 -2.3887,1.95937 -3.92399,2.20131 1.29469,-0.30441 1.29469,-0.0798 0,0.66996 0.9983,-0.81486 1.25349,-0.65534 0.76559,0.47855 0.3709,-1.05015 1.2748,-1.57522 2.31171,-1.01027 0.65529,0.35758 2.00059,-0.95576 2.46449,-1.26681 1.7134,-1.15117 4.10621,-1.84506 4.3654,-4.42257 0.18871,-1.88228 4.1274,-3.00154 3.7021,-4.43053 -0.3576,-1.20035 0.9743,-2.18137 0.5569,-3.51465 -0.3137,-1.00229 -1.5858,0.26984 -0.8613,-1.43431 2.2412,1.15249 2.5868,-1.62041 3.73261,-2.7769 -1.4595,0.21402 -0.5197,-1.93678 0.1064,-2.62535 l 246.12139,-0.15553 0.4666,-4.41591 c 0.08,-0.79359 2.2026,-0.50514 2.52031,1.20434 0.41738,2.2465 -2.94571,5.93263 -0.11962,6.33674 0.89991,0.13293 5.04862,0.34695 4.91702,1.61775 -0.13951,1.35588 4.2405,-0.48785 5.03269,-0.80422 1.74012,-0.69256 3.7845,0.84942 5.42751,1.21763 -0.48782,0.77631 -0.093,1.30537 0.7484,1.35854 -0.37082,0.40543 -0.2326,2.06173 0.4759,1.77461 0.3656,-0.14756 0.52779,-1.00096 0.97838,-1.00761 1.09532,-0.0133 1.56861,0.66731 2.38212,1.25884 0.658,0.47855 1.04349,0.49583 1.30271,0.58223 -0.08,0.53438 -0.027,1.17643 0.76168,1.18175 2.65189,0.0133 4.96361,-1.75467 7.4998,-1.78126 -1.0169,1.85038 2.27311,1.47286 3.17442,1.40241 0.85079,-0.0665 1.807795,-0.10635 2.619985,0.32567 1.9621,1.03021 2.55759,0.79492 4.0318,0.62344 -5.537815,1.72277 -11.332185,3.64227 -16.470005,6.38593 -2.13611,1.14053 -4.0649,2.62536 -6.18119,3.80045 -2.3621,1.31334 -5.0646,2.09097 -7.1782,3.82837 1.86769,2.84469 10.41109,-1.82379 12.82509,-2.00989 -0.2845,1.32131 -1.72809,2.88456 -2.87131,3.54123 0.63942,0.18743 1.80922,-0.65136 2.21721,-0.31238 0.72052,0.5995 0.53311,0.75637 1.6763,0.75637 1.98601,0 3.97721,-1.25088 5.73989,-2.0192 2.08701,-0.91056 4.30962,-0.34694 6.296825,-1.31201 2.62139,-1.27347 5.21618,-2.25847 7.70999,-3.81242 -0.4095,0.95577 0.303,1.60845 0.4785,2.48844 0.18481,0.92518 -0.85739,1.65763 -1.05281,2.48844 0.4772,-0.40145 4.53422,-3.03744 2.10561,-0.76567 2.5137,-1.93811 4.48241,-0.24859 5.7612,2.08167 1.2003,2.18935 2.5482,1.3346 4.57141,2.08433 2.8021,1.03818 5.4541,-1.55394 8.0595,-2.20662 1.5593,-0.38949 3.1345,-0.0532 4.71628,-0.17016 1.98731,-0.1502 3.92282,-0.65269 5.8928,-0.92784 -0.62079,1.03419 -1.27349,2.05509 -1.53128,3.25411 1.87429,0.43601 3.58371,0.24991 5.3384,0 1.58189,-0.218 1.1113,2.87128 -0.17021,3.15176 1.23629,0.0798 1.37851,1.48216 2.10571,2.19865 -1.8252,1.72409 -4.85201,-0.99033 -6.95491,0.22997 -0.08,0.0399 -1.37578,1.48349 -1.33059,1.48083 -1.24431,0.0798 -1.2695,-1.70415 -2.38742,-2.14016 -3.29798,-1.28809 -5.30659,1.11394 -8.53278,0.94645 -3.4176,-0.17812 -4.8586,2.97895 -7.88001,3.79115 0.50771,-1.15914 1.6669,-1.78258 2.48841,-2.67986 -2.04711,0.33365 -2.9191,1.60578 -4.7855,2.10561 0.13298,-0.73909 0.41339,-1.41039 0.86138,-2.01123 -3.31787,1.2296 -6.12939,5.3863 -8.86238,7.569 -0.69651,0.55565 -0.9611,1.45824 -1.6656,2.00191 -0.7829,0.60484 -1.8836,0.55167 -2.69581,1.16447 -1.23759,0.93317 -2.97231,2.47515 -3.23819,4.09954 2.3635,-0.47057 4.69908,-4.45845 7.32449,-3.41096 0.9544,0.3815 -2.23859,3.29 -2.57749,3.6848 -1.1193,1.30138 -1.6936,3.06003 -2.93381,4.24045 -2.520295,2.4007 -3.571795,5.30521 -5.956595,7.84549 -1.21092,1.28941 -2.27041,2.96299 -2.74629,4.67778 -0.44263,1.59649 -0.1329,3.25146 -1.23762,4.63259 -1.80509,2.25581 -2.79149,7.35631 -1.91019,10.16378 0.7338,2.33557 4.1302,0.91456 5.58038,0.27251 3.3432,-1.47685 5.902125,-4.00383 8.244325,-6.75414 1.2655,-1.48482 2.4153,-3.03744 3.24749,-4.81205 0.7085,-1.51008 0.71509,-5.08853 2.24909,-5.89542 -2.47779,-1.48748 -0.37219,-4.24576 0.77102,-5.85022 0.7378,-1.03419 0.56359,-2.11623 1.0821,-3.19962 0.54099,-1.12989 2.31029,-1.99127 3.15568,-2.94836 0.9584,-1.08604 1.29871,-2.14815 1.87701,-3.44022 0.51969,-1.15781 1.60181,-1.25086 2.4911,-1.96602 1.1153,-0.89594 1.19769,-1.45692 2.67851,-1.7786 1.74538,-0.37884 2.5935,-2.20397 4.21389,-2.83273 -1.02489,1.2974 -1.3453,3.06935 -2.58418,4.21121 0.73908,-0.35359 1.3453,-0.86272 1.81848,-1.53134 -0.1329,0.80288 -0.60749,1.51938 -1.24421,2.01122 2.00991,-0.84278 2.85261,-2.8314 3.7619,-4.6512 1.12721,-2.25714 3.58773,-1.37316 5.42751,-2.43128 -3.08399,-0.50646 1.43301,-4.02112 2.79021,-4.26969 0.8228,-0.15021 2.6679,0.97836 3.43088,1.39841 1.80382,0.99432 3.29261,2.23853 5.21351,3.05206 1.5925,0.67527 2.30891,2.86729 0.82809,3.58511 -1.42369,0.6899 -0.92779,2.83804 -1.19369,4.08492 -0.327,1.52336 -1.5526,4.09821 -3.1291,4.60467 -1.7295,0.55698 -2.20001,2.34488 -3.80978,3.07732 -1.52342,0.69256 -3.50272,1.4928 -3.82313,3.40565 -0.41468,2.47116 2.89661,0.52507 3.57852,0.32036 1.41039,-0.42272 6.5999,-5.97785 8.22039,-3.64094 1.26011,1.81715 -0.56899,6.31282 -0.7684,8.20839 -0.25919,2.46983 -1.71739,8.27087 -5.01939,8.52344 1.12858,-1.15782 -0.4559,-1.79854 -1.25089,-0.80423 -0.67522,0.84543 -0.97571,1.99793 -1.81182,2.71974 -0.88929,0.767 -1.98458,1.20833 -2.88189,1.95539 -0.9611,0.79758 -1.50209,1.8969 -2.4964,2.68517 -0.7311,0.5809 -4.23651,2.75031 -2.25052,3.46281 0.7112,0.25523 1.48082,0.40012 2.17472,0.70054 0.3084,0.20737 0.5583,0.47057 0.7484,0.78827 0.47188,0.36955 1.50738,0 2.12288,0.36024 -0.99298,0.21136 -2.04179,0.19408 -2.96698,0.66997 0.98099,0.5676 1.95411,-0.24592 2.96698,-0.0931 0.6726,0.10635 1.32662,0.44 2.00861,0.46127 2.21592,0.0665 4.2816,-0.93184 6.5627,-0.86404 2.2053,0.0665 4.20989,-1.89026 6.0882,-2.79816 2.1813,-1.05546 4.66309,-1.63238 6.97211,-2.34887 4.80409,-1.49146 9.67859,-3.24082 13.97889,-5.89276 1.81981,-1.12192 3.83101,-2.16542 5.56041,-3.40698 1.00488,-0.7218 2.6027,-1.59914 0.67389,-1.6563 -1.6297,-1.11793 0,-2.70644 0.32171,-4.03706 0.75639,-0.97438 3.71811,-1.06743 5.28129,-1.27745 1.68691,-0.22598 3.56651,-0.222 5.2441,0.0665 1.33731,0.22997 2.36482,1.74005 3.7232896,1.39709 1.72281,-0.43468 3.26742,-0.16749 5.0088,-0.37087 1.91289,-0.222 3.51468,-1.45425 5.26137002,-2.15213 1.32929998,-0.53039 2.91647998,-0.49583 3.39502998,-2.13884 0.49051,-1.68421 1.58052,-2.84203 2.94304,-3.88419 -0.77629,0.34428 -2.04978,0.65002 -1.05013,-0.76568 -1.10463,0.76435 -1.29873,0.17547 -0.77099,-0.51709 0.54369,-0.7125 1.47685,-1.85968 2.26777,-2.20663 5.2626604,-2.58415 10.4402704,-6.362 16.5058404,-7.85214 l 29.79081,0.0798 c 0.60617,-0.87069 1.16579,-2.44324 2.12157,-2.98294 1.0674,-0.60084 2.39934,-0.27383 3.58775,-0.97437 0.16216,0.3177 0.32168,0.63673 0.47855,0.95709 1.18441,-0.50646 0.73509,-1.67757 2.09629,-1.52071 -0.61412,-0.2313 3.0494,-3.51332 4.0118,-3.96661 1.15782,-0.54368 2.12024,-1.70017 2.69182,-3.41629 0.35226,-1.05812 1.9009,-2.59877 3.3206,-3.53193 1.42764,-0.93715 1.50474,-2.6001 2.52963,-3.83634 1.42367,-1.71612 3.50932,-2.93774 5.22546,-4.34015 1.45823,-1.19105 6.70629,-7.05722 6.22107,-2.39273 -0.25918,2.49509 5.42753,-0.11963 6.16662,-0.32434 4.40661,-1.19105 3.77253,4.38799 2.82474,6.76344 -0.85209,2.12554 -1.8557,4.3109 -2.62535,6.46569 -0.4001,1.12192 -2.41133,4.13942 -1.64833,5.32116 0.80822,1.2522 2.47515,0.21801 1.66296,2.08699 -0.5756,1.32265 -1.50744,2.68119 -0.50646,4.03308 0.79756,-0.80688 1.61374,-0.46791 1.86764,0.57293 0.30043,1.22693 -0.95176,1.57787 -1.10996,2.67985 1.31202,-0.88664 1.27082,0.13293 0.7125,0.78827 -0.59949,0.71118 -1.70148,0.93583 -2.56154,1.10598 -1.04748,0.20604 -1.92881,0.36156 -2.85001,0.96506 -0.66199,0.43335 -3.06401,2.20397 -2.18668,0.0133 -0.87868,0.28978 -1.49944,1.33993 -2.48578,1.33993 -0.74041,0 -0.57558,1.39974 -1.43566,1.62838 0,-0.59419 0.0132,-2.15346 -1.02222,-1.91019 -1.17377,0.27649 -1.86764,2.0511 -2.04978,0.18743 -0.0266,0.86005 -0.31104,0.75769 -0.92916,0.72047 -0.7311,-0.0399 -0.67395,1.78259 -0.69255,2.1508 -1.53003,-0.98767 -1.34924,-2.23454 -1.05015,-3.8297 -0.36555,1.10864 -1.65764,1.25619 -2.39274,2.0099 -0.8401,0.86005 -1.23092,2.06306 -2.02051,2.96698 -1.8464,2.11624 -3.53328,1.03552 -5.25071,3.35115 -0.21535,-0.62078 -0.37619,-0.75637 -0.10637,-1.43564 -0.31503,0.29112 -0.63539,0.57825 -0.95707,0.86006 0.61944,-2.45255 -1.19505,0.22864 -1.3293,0.86138 0.0665,-1.05679 0.20471,-2.12022 1.05014,-2.87128 -0.58222,0.26852 -1.03019,0.68326 -1.34258,1.24422 0.99166,-0.2406 -0.34563,2.47515 -0.86405,2.87128 -0.0532,-0.41607 -0.10634,-0.83081 -0.18611,-1.24422 -0.47455,0.39214 -2.03515,1.76397 -0.29242,-0.19275 -1.61377,2.19467 -0.67929,0.23396 -0.38549,-0.38284 -1.04484,0.67662 -3.21159,1.34392 -3.31261,2.81013 -0.0266,0.42272 -2.1508,2.28639 -2.6134,2.56421 -1.8198,1.09667 -8.3812,6.68236 -5.45409,8.88633 -0.92253,0.54368 -4.60201,1.92748 -4.44384,3.34716 0.0797,0.6713 1.62306,0.9119 1.98996,1.51141 0.92652,1.51274 -0.47588,3.36178 1.1924,4.87053 1.40771,1.27214 4.18859,0.0266 4.50495,-1.78524 -1.16977,0 -0.19275,-1.15781 -1.32929,-1.91285 2.02983,-0.0931 1.71746,2.88589 1.0568,4.02111 -0.77632,1.3386 -5.82764,2.18935 -7.29118,2.00856 0.29509,-0.68458 0.61812,-1.35455 0.97039,-2.01122 -2.00324,1.03818 -4.12613,2.52699 -6.32743,2.68119 0.4187,-1.00362 0.66331,-2.13352 1.54196,-2.87128 -0.94779,0.47456 -2.00856,1.74669 -2.20662,0 -1.75202,2.1734 -1.85039,4.16468 -5.01145,4.66449 -0.62211,0.0931 -5.79705,0.92253 -5.70399,-0.26187 -0.0532,1.25619 -1.94874,1.2615 -2.80879,1.25087 -1.87563,-0.0266 -2.85401,0 -4.64855,0.72048 -3.58378,1.43165 -7.07718,2.62269 -10.15582,4.91971 1.50344,-1.87164 2.90717,-3.67416 2.57884,-6.22242 -1.24288,2.1056 -0.40145,6.09481 -3.62497,7.06254 -2.5190204,0.75637 -2.7117704,2.70511 -0.0132,2.98825 -0.4812,2.49243 -2.1401604,4.68044 -3.4428704,6.79535 0.31901,-0.63806 0.63805,-1.27612 0.95708,-1.91418 -2.11624,-0.0532 -2.66523,5.80104 -5.0646,5.59367 -0.767,-0.0665 -2.69848998,3.08396 -3.19960998,3.62764 -1.12725002,1.21896 -2.67321002,2.83538 -4.45714002,2.93375 0.234,-0.60616 1.78125,-2.11889 0.884,-2.7317 -1.4954,-1.0209 -2.50701,-1.08204 -3.56251,-2.81013 -1.8969,-3.10257 3.0494,-4.11283 4.59404,-5.46472 -2.34754,0.99032 -6.43774,2.49242 -5.26135,5.82363 0.68062,1.92748 -0.04,3.85363 0.78291,5.8808 0.65669,1.62573 0.30051,2.82342 -0.7869,3.41761 1.4343,0.29378 0.75642,1.64567 0.18611,2.39273 0.997,-2.18536 -0.22731,-0.20072 -0.41072,0.27384 -0.29249,0.76035 -1.42898,1.29739 -2.0058796,1.8198 -1.558,1.41304 -2.6161,2.95768 -3.8989,4.606 -1.14851,1.47685 -2.75162,2.57352 -3.86292,4.02777 -0.65669,0.85872 -1.39038,3.18764 -2.74367,3.15175 -0.46792,-2.14681 1.4968,-4.39597 2.78619,-5.85554 0.64738,-0.73244 2.33429,-3.16771 3.15579,-3.33254 -0.7843,-0.31105 -1.52069,-0.21534 -2.2066,0.28713 0.25519,-0.92519 2.721,-2.77822 0.27911,-2.77557 0.46659,-0.61147 0.82018,-1.28144 1.06339,-2.01122 -0.96898,1.59117 -1.5526,-0.76567 -1.8211,1.43564 -0.1755,-0.5171 -1.60981,-1.44228 -1.45561,-1.97001 0.27393,-0.94114 1.68291,-1.42634 0.88533,-2.52699 0.67529,0 1.31339,0.17015 1.91288,0.47854 -0.1874,-0.79757 -1.1312,-2.45653 -2.2066,-1.81847 0.4626,-1.3479 1.20171,-0.44797 2.07629,-0.98501 1.47161,-0.90525 -0.8441,-1.51406 -1.69079,-0.83346 0.4745,-1.57256 2.624,-0.99565 2.96431,-2.77557 -0.3071,0.27118 -0.62611,0.5264 -0.9571,0.76567 -0.8109,-2.60674 3.01879,-3.32323 4.78549,-3.54124 -0.3284,-0.24459 -0.64741,-0.49848 -0.9571,-0.76567 0.73911,-0.35359 1.34519,-0.86404 1.8211,-1.53135 -0.6553,0.4081 -1.324,0.79093 -2.00719,1.14851 0.3057,-0.33631 0.59421,-0.68857 0.864,-1.0528 -0.997,-0.11963 -1.4755,0.45196 -1.95799,1.20966 -0.33372,0.52507 -2.21332,2.11225 -1.01963,0.13293 -0.537,0.39347 -0.91858,0.90392 -1.14318,1.53135 -0.37751,-1.82114 -2.1362,0.29111 -2.00721,1.14851 -0.35359,-0.15154 -0.70319,-0.31106 -1.05019,-0.47855 0.1356,0.72713 0.45059,1.36386 0.9438,1.91418 -1.20571,0.11964 -1.05939,0.31372 -0.27911,1.05281 -2.7304,-1.68954 -1.98469,6.82326 -2.6852,7.65673 -1.4224,-0.95443 -1.67889,-2.36747 -1.14319,-3.92408 -0.44931,1.27347 -0.7843,2.40204 0.16219,3.55586 0.73641,0.89728 1.71741,2.24119 0.50239,3.24082 -0.37478,-1.48748 -3.84559,-1.51008 -3.25668,-3.25411 -0.4972,-0.0931 -0.62211,0.22598 -0.37221,0.95709 -0.67001,-0.3722 -1.20169,-0.99032 -1.43971,-1.72276 -1.56188,1.39443 -2.2996,-0.40012 -0.95437,-1.66428 1.02758,-0.96507 3.39497,-1.91817 2.57878,-3.69411 0.067,1.8238 -5.2932,5.18159 -4.1434,6.20249 0.6966,0.61945 1.84111,-0.18477 2.3994,0.77365 0.94121,1.61243 1.2309,1.1618 2.94439,1.61243 0.70051,0.18477 1.17782,1.70283 1.79062,2.21062 1.02479,0.84543 0.8667,1.31068 -0.053,2.33291 -2.44063,2.69979 -3.95732,-1.42235 -4.84661,-3.36976 -0.093,1.7879 1.3359,4.47972 2.8766,5.35572 1.8942,1.07673 1.48079,2.68916 -0.87072,2.30101 0.13962,0.34695 0.2685,0.69788 0.38553,1.0528 -1.47021,0.85873 -2.20401,-1.19105 -2.96572,-2.00989 1.01291,1.81714 4.84532,4.53422 1.34001,5.74122 -1.18711,-3.43357 -3.42432,-3.16239 -6.5083,-4.30558 0.32441,0.64869 2.4034,0.7989 3.19699,1.36518 1.094,0.78163 3.36841,2.70777 2.067,4.18462 0.60219,-0.64471 1.37321,-0.58223 1.91421,0.0931 -0.1542,-1.54331 1.44499,-1.03153 2.33159,-0.77764 1.11791,0.32169 0.8614,1.21099 0.8587,2.28639 0,1.425 -0.13959,2.81013 -0.2645,4.22848 -0.15949,1.82113 0.8986,3.78184 0.32969,5.55645 -0.093,-1.54198 -0.15689,-3.14112 -0.59287,-4.63392 -0.42273,-1.4476 0.72707,-2.94571 -0.36423,-4.26703 -0.067,0.51311 -0.29649,1.54597 -0.86408,0.57425 -0.027,1.87431 1.22558,3.81774 0.2938,5.64684 0.093,-0.74972 -0.093,-1.41968 -0.5729,-2.00989 -0.38421,1.03153 -1.14322,1.1525 -1.8251,0.28713 0.1874,0.33764 0.34689,0.6899 0.4785,1.0528 -0.7484,0.47456 -1.41841,0.37885 -2.00991,-0.28713 0.95441,1.94609 -0.977,0.44797 -1.6284,0.0931 0.27651,0.30308 0.5317,0.62078 0.7657,0.95709 -0.9411,0.24061 -1.74008,1.29607 -2.77558,0.66997 -1.09932,-0.66465 -0.59553,-2.16542 0,-2.96699 -0.51041,0.43867 -1.82642,3.53859 -0.99301,4.05435 0.74178,0.45861 1.76271,-0.59021 2.50978,-0.3177 0.60881,0.22199 3.58773,-0.80024 3.45612,0.55963 -0.093,0.93051 -0.6115,2.27442 -1.24021,2.97762 0.86001,-0.28314 1.1937,-0.99697 1.41441,-1.80385 0.2884,-1.06078 1.4595,-0.7577 2.12419,-1.45026 0.71911,1.48615 -0.6567,2.53363 -0.86271,3.92408 -1.33998,-0.96906 -2.25189,1.25618 -2.95507,1.99925 -1.30271,1.37848 -3.73002,0.59287 -5.08051,-0.27649 0.19939,-0.33631 0.4227,-0.65534 0.6699,-0.95842 -0.75231,0.17812 -1.2641,0.71915 -1.0528,1.53135 -1.25611,-0.61813 -2.77821,-0.45728 -3.92401,-1.33993 0.69519,0.73377 5.4102,2.57617 3.42291,3.34849 -0.75901,0.2951 -0.27781,1.25618 -0.973,1.7427 -1.5394,1.07939 -2.37151,0.96773 -3.88562,-0.2087 0.11973,1.32797 1.02492,1.80518 2.26121,1.65232 0.83741,-0.10635 3.50531,-1.2522 3.09991,-0.0266 0.42669,-0.23794 0.87328,-0.42936 1.3399,-0.57558 -0.51839,0.84676 -1.40642,1.92083 -2.297,2.39273 -0.5052,0.26718 -3.399,0.0399 -2.67991,0.76567 -1.514,-0.24725 -3.59569,-0.47855 -4.7256,0.5264 -0.77099,0.68857 -2.3781,1.86633 -1.8783,-0.14357 -0.48919,0.43335 -0.4586,1.22163 -0.62479,1.79189 -0.17941,0.61148 -1.4914,0.85873 -1.9899,1.13256 -2.17612,1.19105 -3.40701,3.26076 -4.65921,5.30787 0.16751,-0.62875 0.2313,-1.26549 0.1914,-1.91418 -0.85338,3.71272 -4.30559,2.51901 -7.33099,3.42426 -3.43361,1.0302 -5.62031,4.10885 -7.6953,6.81662 -0.51581,-0.69123 -0.2925,-1.44627 0.3828,-1.91418 -1.1339,0.63673 -0.2472,2.7091 -1.53131,2.96698 -0.6926,0.13825 -0.40409,0.61148 -0.8468,1.01425 -0.78689,0.71516 -1.0169,-0.0133 -1.73741,0.42139 -0.76568,0.46924 -4.23108,4.72032 -4.68839,2.1056 0.424,2.15744 -1.3785,2.45388 -2.84998,3.23151 -0.9212,0.48785 -1.66431,0.96241 -2.75702,0.75903 -0.46519,-0.0931 -3.3524,0.001 -0.90119,0.41208 -2.90722,0.5809 2.07899,0.22199 -0.95711,1.43564 2.31561,-0.22598 -1.5327,1.6882 -1.1485,-0.57426 -0.2553,2.58548 -1.05421,-0.38549 -1.1485,-0.95709 0.027,0.85341 0.33361,1.66428 0.35221,2.51635 0.027,1.05945 -2.2584,2.68385 -0.92652,0.73776 -1.50868,2.27708 -1.68418,3.11055 -4.40259,3.92408 0.1329,0.3177 0.25649,0.63673 0.3828,0.95842 -0.60751,0.37619 -1.2455,0.44 -1.9142,0.19142 -0.04,0.35758 0,0.70718 0.093,1.0528 0.35621,-0.11964 0.7072,-0.2406 1.0528,-0.38284 -0.23659,1.18174 -1.38909,1.68023 -2.48848,1.62972 1.18837,0.65268 0.60618,2.41798 -0.2871,1.52868 0.31239,1.57123 -0.52772,0.95045 -1.72271,0.66997 0.7324,0.24326 1.3067,0.6899 1.72271,1.33993 -0.89591,0.87201 -1.99793,0.76567 -2.48182,2.10161 -0.3443,0.95177 -1.88759,3.35381 -1.10591,4.30425 0.34161,0.33366 0.31771,0.63408 -0.08,0.89728 -0.9385,0.63407 -0.27652,0.84809 -0.10631,1.89557 0.323,2.04047 -0.18219,4.42788 -0.1941,6.49759 -0.027,4.45845 1.10461,8.95811 2.62001,13.12678 0.7471,2.0511 0.60878,2.49907 0.027,4.44515 -0.5756,1.9195 0.067,3.67949 0.2659,5.58969 -0.7883,-1.97268 -1.1353,-4.07828 -0.29649,-6.09482 0.9624,-2.31031 -1.33191,-1.77195 -1.42631,-3.66752 0,3.50402 0.4586,6.84719 1.39311,10.21961 0.50779,1.83177 1.79318,5.58835 0.42399,7.29517 3.13449,-0.43867 -0.79751,12.86889 -1.44359,14.31915 -1.0568,2.37147 -2.55892,7.34701 -4.8732,8.65103 -0.7723,0.43601 -0.4626,-1.41835 -1.431615,-0.0532 -0.6912,0.97171 -1.744,0 -2.6706,0.34428 -1.5486,0.56229 -3.88279,-0.1768 -2.21591,-2.01256 0.31242,0.68326 0.90532,1.21764 1.62711,1.43566 0.40269,-1.04484 -1.3825,-2.10693 -1.80391,-2.89123 -0.92649,-1.72408 -0.2472,-3.60503 -2.25448,-4.80939 -1.187,-0.71115 -2.40872,-0.81219 -2.54561,-2.44589 -0.1356,-1.60977 0.8827,-3.86824 -1.05281,-4.78545 1.14192,-0.38683 1.71612,-1.55793 2.68121,-2.20131 -0.9916,0.30042 -1.59909,1.47684 -2.58551,1.84506 -0.82679,0.30839 0.04,-4.2245 0.57431,-4.81072 -0.66199,0.44931 -1.30008,0.4174 -1.91289,-0.0931 1.37848,1.5699 -0.80822,1.90621 -1.5313,0 -0.66471,-1.75201 0.11959,-4.77615 -1.72281,-5.93396 1.49421,-0.10635 4.41061,-3.56916 3.54129,-5.07259 -0.32438,0.21667 -0.64209,0.44 -0.95707,0.66996 0.093,-0.82682 -0.43601,-1.48216 -1.14851,-1.81847 -0.4613,0.68193 -0.4826,1.24289 0.2299,1.74138 0.6301,0.44132 -0.73771,1.87563 -0.9969,2.18402 -0.4454,-0.71914 -0.83481,-1.66028 -0.67,0 -1.21362,-3.91078 2.6426,-7.62084 3.5452,-11.23253 0.32168,-1.28676 0.31369,-2.44058 0.053,-3.74329 -0.43871,-2.21593 -1.31331,-1.51141 -2.69182,-2.81943 -2.00329,-1.90089 -2.6706,-4.66184 -3.80849,-7.03994 -0.55161,-1.15383 -1.8011,-2.41799 -3.0361,-2.82475 -1.8012,-0.5942 -2.97359,1.23624 -4.68971,1.0528 0.29512,1.46488 -1.04219,1.11793 -2.2492,1.86633 -0.47048,0.29111 -2.59609,1.68687 -2.34479,0.42936 -1.35329,1.01957 -3.1292,1.34126 -4.78549,1.34126 0.997,-1.29341 0.17809,-2.98959 -1.1485,-3.63695 0.63669,0.0798 0.54099,-0.26719 -0.2871,-1.0528 1.3,0.99963 1.71468,-0.24991 0.4346,-0.38018 -1.9314,-0.19674 -0.55832,-1.5473 0.5224,-1.82113 -0.92512,0.0399 -1.85031,0.0797 -2.77551,0.0931 0.25921,0.31637 0.5144,0.6354 0.76571,0.95709 -1.87302,0.47589 -4.98761,-1.69352 -6.604,-2.48844 0.21669,0.0399 3.51999,0.49184 3.28469,-0.11964 -0.2273,-0.59286 -1.30929,-0.97969 -1.857,-1.09533 -0.981,-0.20737 -1.90619,0.65933 -2.7636,0.98633 -1.4622,0.55698 -3.532,0.56096 -5.07529,0.51976 0.88,-0.0931 1.7095,-0.34695 2.48848,-0.76435 -0.81089,-0.26453 -1.12728,-0.90791 -0.57427,-1.62838 -0.48782,0.54235 -0.93451,1.1166 -1.33991,1.72276 0.58219,-2.64662 -1.0595,-0.13824 -1.5898,0.42139 -0.79362,0.83878 -1.73741,1.26947 -2.90851,1.207 0.72181,-0.18477 2.5097,-1.05015 1.4356,-2.0099 -0.8042,2.17606 -3.71941,3.34052 -5.83829,2.48711 2.12558,0.79758 1.1313,-4.42389 0.7657,-5.45542 -0.52242,1.11661 -1.16052,2.38741 -1.81581,3.42825 -0.4998,0.79359 -1.8796,0.33099 -2.65991,0.76302 -0.42008,0.23262 -2.53759,0.30042 -2.3196,-0.0266 -0.80428,1.21099 -1.79589,-0.79758 -2.67989,-0.43069 0.40281,0.13692 -2.5908,0.78428 -3.2209,0.85606 -1.5925,0.18212 -1.7998,1.09135 -3.33121,1.61642 -2.75828,0.9438 -3.63429,-2.22523 -6.09478,-2.17472 -0.8694,0.0133 -3.7991,2.50173 -2.33421,3.30861 0.96369,0.53039 2.63599,0.45728 3.63029,0.0665 0.81352,-0.32036 2.57482,-0.14091 3.11981,-0.60882 -0.33761,0.44133 -2.4113,1.32531 -2.15479,2.01122 0.6514,1.7334 1.3852,0.75504 2.1907,-0.11963 1.05809,-1.14586 2.5881,0.33631 1.8238,1.60977 -0.65001,1.08338 -2.83012,0.19674 -2.43531,2.04977 -1.29601,-0.47589 -1.44219,0.44797 -1.1245,1.4476 0.5144,1.61377 1.69751,1.76265 3.1783,2.20131 0.72181,0.21402 1.01561,1.23625 1.54731,1.80253 0.53298,0.56893 -1.3453,1.55261 -1.304,2.301 -1.00502,-1.51406 -2.08042,-0.0399 -2.96701,0.66997 0.5397,-0.72447 1.07799,-1.46223 1.43561,-2.29835 -0.9039,-0.10634 -0.65271,-0.59685 -1.0196,-1.1525 -0.22461,-0.34296 -2.48971,-1.13787 -2.90452,-1.14319 0.75912,-1.23093 -2.91378,-3.03212 -3.3591,-2.63865 -0.2499,0.22199 0.69792,1.64832 0.61021,2.15744 -0.2526,1.4835 -0.7258,2.79285 -2.325,3.16106 -0.04,-1.38512 0.1768,-1.80119 -1.3399,-2.1056 -2.42861,-0.48785 -1.3652,1.34791 -3.0919,1.71346 -2.71179,0.57293 -5.62829,-2.56686 -4.0863,-5.15766 -0.61939,1.15915 -2.11889,0.62743 -2.84599,-0.0931 -0.47321,-0.46525 -0.81751,-1.14984 -0.59952,-1.82645 -0.97308,-0.15287 -2.78759,0.6806 -1.53139,-0.95842 -1.2003,0.0133 -4.0809,1.14319 -2.8712,2.77557 -1.8159,-0.30441 -3.4004,0.61147 -5.3451,0.10634 -2.2864,-0.59286 -4.2697,-1.99261 -6.5229,-2.69049 1.0475,-0.9212 1.5074,-1.78657 0.9571,-3.1584 -0.3881,1.00494 -0.5982,3.46148 -1.8676,3.75658 -1.1871,0.27517 -3.411,0.54368 -4.5436,-0.0266 0.5823,-0.85607 1.7334,-1.48881 1.6271,-2.67986 -1.328,0.66598 -2.5961,2.04977 -1.5314,3.54124 -3.5266,0.46392 -7.1542,1.61775 -10.0494,3.73266 0.8507,-1.10731 2.2558,-1.83044 3.5412,-2.29702 -1.0116,-0.19674 -2.0099,0.0931 -2.967,0.38283 0.654,-0.82682 1.3838,-1.83309 1.0528,-2.96698 -0.8587,0.18477 -0.989,1.00362 -1.7227,1.33993 -0.6992,0.32036 -0.7564,-0.98501 -1.4357,-0.19142 -0.5862,0.68591 0.1197,3.26873 1.0528,3.54124 -1.6549,1.6337 -3.5,2.71309 -5.0872,4.44516 -2.1707,2.3688 -6.245,1.93279 -8.1206,4.16866 0.638,-0.19142 1.2748,-0.38283 1.9128,-0.57425 -1.5566,0.86404 -3.189,1.64035 -4.8812,2.20131 0.7657,-0.70453 1.7866,-1.03286 2.4885,-1.81848 -0.6554,0.17547 -1.2934,0.39879 -1.9142,0.66997 1.4768,-0.91456 -1.7653,-0.66864 -2.1056,-1.7241 0.1569,0.66199 0,1.23625 -0.4785,1.7241 0.3243,-2.84602 -3.512,1.66826 0,1.53001 -1.1898,1.12858 -3.0003,1.62041 -3.8284,-0.19141 0.1196,1.5792 -2.6147,5.04334 -2.2013,2.96565 -0.7019,1.5021 -2.4885,-0.0532 -3.0627,1.72277 0.7869,0.22199 1.4569,0.0266 2.0099,-0.57426 -0.3855,2.963 -3.2993,2.4366 -5.4554,3.06402 0.3815,0.0532 0.7643,0.0798 1.1485,0.0931 -0.3164,0.71649 0.2313,1.18573 0.4479,1.79588 0.2619,0.73909 -1.1631,2.35019 -1.518,2.9085 -0.9531,1.49678 -3.0228,1.59249 -3.8111,-0.10635 0.448,0.69256 0.4161,1.3612 -0.093,2.00989 0.9545,0.22333 1.9634,0.44 2.8713,-0.0931 -0.2672,1.0435 -0.8029,2.79418 -1.857,3.32058 -0.8787,0.44 -0.053,2.67188 -0.053,3.37906 0,2.12156 -1.2841,6.51223 0.3829,8.23099 0.331,-0.27517 0.65,-0.56097 0.9571,-0.86006 0.2512,1.01425 -2.22,1.96736 -2.9112,2.06439 -1.3652,0.19142 -2.2425,-2.16009 -3.8071,-2.16009 -1.2801,0 -2.9803,0.29377 -4.1607,-0.38018 -1.4715,-0.8401 -3.1438,-2.75961 -4.6738,-3.01617 -3.0308,-0.50779 -2.1388,-2.73701 -3.3458,-5.33711 -0.884,-1.90621 -1.009,-3.54789 -0.6022,-5.51125 0.1715,-0.82948 0.6461,-1.66428 0.4187,-2.48844 -0.218,-0.78296 -1.6868,-1.41836 -2.1122,-2.67188 -1.1405,-3.0268 -2.9856,-5.5086 -3.8005,-9.53636 -0.3137,-1.64965 -0.1382,-3.33387 -0.533,-4.9782 -0.1967,-0.81752 -0.7125,-1.43298 -0.9385,-2.21859 -0.2752,-0.9571 -1.2243,-1.65896 -1.6244,-2.43128 -0.8348,-1.61111 -1.9992,-2.37545 -2.8752,-3.90946 -0.093,-0.1635 -2.7809,-0.38815 -3.0641,-0.43069 -3.1358,-0.46259 -6.4032,-0.78561 -9.1628,0.94779 -2.8766,1.80651 -3.1225,6.33541 -6.9349,8.09141 -1.5128,0.69655 -3.3126,-1.07673 -4.4266,-1.82911 -1.0049,-0.67927 -2.083,-1.24422 -3.0773,-1.94077 -3.0015,-2.1694 -4.4478,-4.30026 -4.5355,-7.11571 0.7577,-1.95406 0.3057,-4.17132 0.2206,-6.13735 0.2101,-1.93811 -1.1525,-2.86197 -2.8074,-3.47078 -1.6284,-0.59951 -2.9444,-3.87622 -4.1581,-5.95391 -4.7336,-2.57351 -1.6549,-5.2228 -5.4581,-5.52986 l -17.3924,0.0133 -0.238,5.07392 -26.8743,-0.14224 -31.5481,-13.273 c 0.3642,-0.97703 1.2814,-1.58585 1.8849,-2.39406 -8.0409,0.25523 -16.0911,1.38247 -24.0895,2.1734 -0.093,-2.2505 0.7192,-4.42123 0.7498,-6.64514 0.04,-2.71309 -1.8677,-3.74861 -3.3897,-5.67742 -1.562,-1.97931 -1.5686,-0.83479 -3.4562,-1.53267 -1.2881,-0.47456 1.4954,-3.85894 -2.2292,-3.72734 -2.2838,0.0798 -3.1651,-0.57824 -4.3482,-2.45521 -1.2495,-1.98197 -3.8336,-1.64699 -5.8369,-2.07901 -1.3133,-0.28314 -5.47,0.52241 -4.9543,-2.12687 0.3244,-1.66561 2.1163,-3.21158 2.1881,-4.91972 0.066,-1.63769 -2.0498,-1.35721 -0.9492,-3.19296 0.6886,-1.14718 -0.7896,-2.53896 -1.6177,-3.43357 -0.8149,-0.88265 -0.7285,-2.02451 -0.7883,-3.20227 -0.093,-1.71745 -2.3927,-3.42027 -1.9301,-4.96491 0.7244,-2.42065 1.0289,-2.40602 2.7078,-4.06099 1.9633,-1.93546 0.2273,-2.3821 -1.34,-3.48143 -2.3276,-1.63104 -0.3376,-3.17169 -0.7577,-5.19621 -0.2486,-1.19636 1.1073,-3.88818 2.4738,-3.95597 0,0.64337 -0.6925,1.28276 -0.5742,1.91285 0.1489,0.79359 1.1419,1.425 1.627,2.01122 0.8043,-2.59744 -0.743,-5.51923 2.3928,-6.89239 -2.8487,-3.02547 -2.4738,2.74765 -4.2458,2.37013 -1.1352,-0.24193 -2.4632,-3.3538 -3.6981,-1.60445 0.6407,-0.77764 1.53,-3.1491 2.2013,-1.0528 -0.053,-0.88797 -0.1196,-1.80253 -0.7603,-2.49243"
       class="landxx us"
       id="path3804"
       inkscape:connector-curvature="0" />
  </g>
</svg>
