<?xml version="1.0" encoding="UTF-8" standalone="no"?>
<!-- Created with Inkscape (http://www.inkscape.org/) -->

<svg
   xmlns:dc="http://purl.org/dc/elements/1.1/"
   xmlns:cc="http://creativecommons.org/ns#"
   xmlns:rdf="http://www.w3.org/1999/02/22-rdf-syntax-ns#"
   xmlns:svg="http://www.w3.org/2000/svg"
   xmlns="http://www.w3.org/2000/svg"
   xmlns:sodipodi="http://sodipodi.sourceforge.net/DTD/sodipodi-0.dtd"
   xmlns:inkscape="http://www.inkscape.org/namespaces/inkscape"
   width="124.00005mm"
   height="191.89302mm"
   viewBox="0 0 124.00005 191.89302"
   version="1.1"
   id="svg28468"
   inkscape:version="0.92.0 r15299"
   sodipodi:docname="colombia.svg">
  <defs
     id="defs28462" />
  <sodipodi:namedview
     id="base"
     pagecolor="#ffffff"
     bordercolor="#666666"
     borderopacity="1.0"
     inkscape:pageopacity="0.0"
     inkscape:pageshadow="2"
     inkscape:zoom="0.35"
     inkscape:cx="234.33082"
     inkscape:cy="362.63239"
     inkscape:document-units="mm"
     inkscape:current-layer="layer1"
     showgrid="false"
     fit-margin-top="0"
     fit-margin-left="0"
     fit-margin-right="0"
     fit-margin-bottom="0"
     inkscape:window-width="1920"
     inkscape:window-height="1017"
     inkscape:window-x="1912"
     inkscape:window-y="-8"
     inkscape:window-maximized="1" />
  <metadata
     id="metadata28465">
    <rdf:RDF>
      <cc:Work
         rdf:about="">
        <dc:format>image/svg+xml</dc:format>
        <dc:type
           rdf:resource="http://purl.org/dc/dcmitype/StillImage" />
        <dc:title></dc:title>
      </cc:Work>
    </rdf:RDF>
  </metadata>
  <g
     inkscape:label="Layer 1"
     inkscape:groupmode="layer"
     id="layer1"
     transform="translate(79.008957,-52.886803)">
    <path
       inkscape:connector-curvature="0"
       id="co"
       class="landxx co"
       d="m -77.874362,177.55631 c -0.350941,-0.0931 -0.701883,-0.19142 -1.0528,-0.28713 0.37353,-2.28637 2.827393,-3.00819 4.689733,-1.91418 1.008938,-1.9514 -1.500762,-3.79116 -0.506453,-5.78109 1.273471,-2.55359 4.135426,-2.42332 6.53613,-2.83141 0.455946,-0.0798 0.296443,-1.18173 0.917223,-0.8082 0.455946,0.27383 1.491464,0.51444 1.498109,-0.2898 0.01339,-1.60445 2.112244,-3.59972 0.838798,-4.64456 2.282384,-0.0665 2.703767,-2.99887 3.376392,-4.55681 0.531718,-1.23092 1.569889,-2.08301 2.653285,-2.81278 -1.347904,-1.10065 0.251218,-1.26683 0.669948,-2.39272 -0.939811,0.0399 -2.140163,0.81219 -2.488427,-0.57426 0.736422,-0.19142 1.276124,-0.73243 1.244213,-1.53134 -0.72447,-0.2539 -2.194661,1.68422 -2.344866,0.19141 -0.156874,-1.56592 0.736422,-1.87697 1.962039,-2.48976 -1.923508,0.0134 -1.04484,-2.54161 -0.781646,-3.59441 0.514436,-2.06707 0.06647,-4.83731 -0.136916,-6.94291 -0.151519,-1.59381 -0.858708,-3.11454 -0.969044,-4.70305 -0.05318,-0.86934 2.721074,-1.21098 2.24916,-3.24081 -0.281814,-1.21498 -3.077321,-4.00516 -1.221625,-4.70836 1.668273,-0.63141 0.236614,-4.17132 -0.487833,-4.97953 -1.460916,-1.63105 -1.640354,-4.07031 -3.218227,-5.44479 -1.038171,-0.90391 -0.0024,-2.04312 0.602159,-2.86995 0.728463,-0.99564 0.0266,-2.29435 0.899941,-3.1398 0.479873,0.56762 0.830815,1.20568 1.0528,1.91419 2.041803,-1.42898 4.946306,-4.2205 4.002503,-6.99342 -0.96773,-2.840703 -2.772918,-3.442863 -1.035518,-6.120076 0.987665,1.277464 2.061738,3.02151 2.913801,4.441196 0.878668,1.46488 3.036112,1.91151 1.105984,3.69411 2.592117,2.97494 1.319985,-5.556454 0.953101,-6.469685 -0.526388,-1.315992 5.539167,-4.349451 6.314145,-5.412888 0.974373,-1.338607 1.670926,-3.585112 3.299306,-4.290962 0.922528,-0.398796 3.107892,-0.171479 3.626319,-1.206998 0.737761,-1.471528 -0.691245,-2.003247 -0.390811,-2.909832 0.533032,-1.612437 0.755044,-3.638272 1.702813,-5.071246 -1.407707,-0.14356 -1.026194,-0.610143 -0.06645,-1.099339 0.873337,-0.446623 0.53571,-1.648314 0.511784,-2.398026 -0.05318,-1.759988 2.908496,-2.253175 2.908496,-2.868625 0,-0.92119 3.610353,-4.481061 4.451802,-4.458449 1.666936,0.03987 3.074644,1.522036 4.736272,1.540656 -1.403739,-0.186107 -1.204344,1.335928 -2.488451,1.33992 0.975714,3.616999 3.110547,-1.196359 3.599741,-2.500402 1.218948,-3.255444 2.657252,-3.021483 6.08549,-2.449895 4.677807,0.780307 6.166618,-2.261111 9.855396,-4.471739 2.028513,-1.216295 7.929235,-2.663898 6.109441,-6.177229 0.774975,-0.231308 2.96698497,-0.930513 1.722771,0.669972 1.43562597,-0.219332 0.531693,-1.645661 2.10559897,-2.360834 C 2.02683,52.690422 3.692427,52.689083 5.311508,54.042318 c 5.523224,4.616638 -6.367304,6.486937 -8.148566,8.760048 -0.951762,1.213641 -1.312003,2.985581 -2.43926,4.039719 -0.782961,0.73243 -2.056405,0.591523 -2.754297,1.385121 -1.314654,1.494117 -2.693154,3.775187 -3.538574,5.567086 -1.261494,2.670542 -1.314678,5.41155 -2.029826,8.225676 -0.704537,2.763597 -2.71309,6.085491 -4.55019,8.252256 1.524714,0.03987 2.702454,-0.550338 3.828373,-1.531358 0.243258,0.6487 0.338965,1.319985 0.28712,2.011233 2.897881,-0.748398 1.926162,4.391975 3.396351,6.26096 2.098955,2.669228 2.675874,4.237801 1.447604,7.517171 -0.616789,1.64832 -1.607108,5.17494 0.622117,6.01106 2.529637,0.94779 1.189715,3.95996 3.792469,4.57409 1.052801,0.24859 2.060398,-0.42138 3.089272,-0.53172 1.67891097,-0.18078 3.208931,0.94514 4.894461,0.79095 1.500786,-0.13692 2.758289,-1.20301 4.289648,-1.17378 1.361193,0.0266 2.374122,1.34126 3.660859,1.64435 0.945142,0.22199 1.826461,-0.57161 2.689162,0.18477 1.135218,0.99431 1.90355,2.81279 2.741009,4.04503 0.776317,1.1432 1.48881,2.30368 2.188017,3.49205 0.903933,1.53402 1.277461,1.10465 2.642646,1.49945 1.98728,0.57558 3.81506,-1.09401 6.40586,-0.0532 0.79226,0.31769 2.53762,-0.45595 3.3937,-0.47456 1.87563,-0.0399 3.47078,0.10634 5.11644,-0.89196 1.86368,-1.12991 4.94232,1.09267 3.96395,3.05339 -0.55963,1.12059 -1.92214,1.98064 -2.16674,3.23417 -0.30175,1.54331 0.32037,2.35285 -1.14585,3.35115 -1.95274,1.33062 -1.17908,6.67969 -1.37184,8.84911 -0.22996,2.57749 0.83746,5.3185 1.32133,8.03957 0.36423,2.04976 4.29361,4.75754 3.65689,6.84851 -0.7843,2.57219 -5.63222,3.5758 -5.52588,6.65976 1.75732,-1.31998 6.05093,3.51068 6.60658,4.97688 -0.11964,0.39746 -0.093,0.79891 -0.17545,1.20568 0.22729,0.74572 0.80289,1.48348 0.80421,2.28239 0,1.66029 0.96773,3.41497 1.37848,5.05929 0.16217,0.65004 1.02487,3.16904 1.20169,4.17666 0.17812,1.0076 -0.36025,0.35625 -1.1618,0.60615 -1.33729,0.41608 -1.74935,-0.21802 -1.42102,-1.00229 0.5397,-1.28542 -0.22863,-9.69986 -3.57847,-9.57093 -1.30935,0.0532 -4.86121,6.81929 -5.8582,3.08664 -0.37219,-1.38911 -2.15876,-2.02186 -1.96204,0 0.22201,2.26645 -2.65725,1.43697 -4.19922,1.43697 -2.31033,0 -4.62197,0 -6.932272,0 -1.528707,0 -3.179672,-0.89994 -4.683111,-0.23661 -2.246509,0.98898 -0.4586,6.03233 -0.688571,7.89333 1.819794,-1.22959 6.088169,-0.1635 6.907004,1.84506 0.30309,0.74309 0.47457,3.2448 -0.942462,3.11587 -0.876014,-0.0798 -1.406393,-1.24421 -2.350196,-1.07541 -2.083011,0.37221 -5.725274,0.94514 -5.878134,3.37642 -0.186105,2.96165 -0.446646,7.1064 2.110907,9.04317 1.290751,0.97706 2.796844,1.82114 2.73037,3.66887 -0.06645,1.77328 0.838798,2.45255 1.531358,3.94932 1.572543,3.39635 -0.463928,8.04222 -0.943803,11.51569 -1.153837,8.36259 -0.966391,17.45895 -3.549208,25.53174 -0.620781,-1.538 -1.839754,-2.6506 -2.939068,-3.86958 -1.252197,-1.38777 -2.836715,0 -4.285655,-0.82682 -1.343912,-0.76434 2.041803,-6.42314 2.509724,-7.22073 0.913206,-1.55261 3.651562,-4.60201 2.259795,-6.09213 -0.602184,-0.6434 -1.217631,-2.33956 -2.190692,-1.99795 -1.730732,0.60616 -3.699414,-2.15744 -4.134088,-2.51634 -1.661628,-1.37451 -3.066685,0 -4.82002803,0.8627 -1.67224097,0.81618 -2.77822297,-1.38247 -4.31354997,-1.63902 -0.937157,-0.15819 -3.595748,3.96529 -6.712939,3.02149 -1.090015,-0.33098 -1.838413,-0.32169 -3.192963,-0.14622 -1.868985,0.24458 -2.855333,0.0532 -4.325525,-1.09001 -1.147191,-0.89196 0.05316,-3.26343 -0.353594,-4.61932 -0.56229,-1.85036 -3.494712,-0.84676 -3.823041,-2.70376 -0.233961,-1.32267 -0.893295,-2.83141 -1.425014,-4.06499 -0.558298,-1.29606 -2.242514,-0.74041 -3.041418,-1.88228 -0.865378,-1.23759 -1.421024,-1.58719 -2.578827,-1.97666 -1.47287,-0.49451 -2.338245,-2.48446 -2.449896,-3.81375 -0.21135,-2.53362 -4.847945,-6.58797 -7.207441,-7.27922 -0.454607,-0.13426 -0.930489,-0.66198 -1.333275,-0.0266 -0.436012,0.69256 -0.425373,0.7032 -1.354548,0.28048 -1.383781,-0.63008 -3.511994,-1.37582 -4.677783,-2.28771 -0.905248,-0.70851 -5.100502,-6.00177 -5.597657,-2.23322 -0.257887,1.95805 -7.640774,-0.53703 -9.173447,-0.81086 -2.485797,-0.44399 -0.656682,-2.54694 -2.488451,-3.3299 -1.607105,-0.68723 -0.895949,-2.05641 -2.965646,-2.08167 -1.627065,-0.0134 -4.842615,-1.82379 -6.045644,-2.81809 -2.024497,-1.66959 -3.666191,-3.71938 -5.224129,-5.84757"
       style="fill:#cbe6a3;fill-opacity:1;fill-rule:evenodd;stroke:#000000;stroke-width:0.14449541;stroke-miterlimit:4;stroke-dasharray:none;stroke-opacity:1">
      <title
         id="title552">Colombia</title>
    </path>
  </g>
</svg>
