<?xml version="1.0" encoding="UTF-8" standalone="no"?>
<!-- Created with Inkscape (http://www.inkscape.org/) -->

<svg
   xmlns:dc="http://purl.org/dc/elements/1.1/"
   xmlns:cc="http://creativecommons.org/ns#"
   xmlns:rdf="http://www.w3.org/1999/02/22-rdf-syntax-ns#"
   xmlns:svg="http://www.w3.org/2000/svg"
   xmlns="http://www.w3.org/2000/svg"
   xmlns:sodipodi="http://sodipodi.sourceforge.net/DTD/sodipodi-0.dtd"
   xmlns:inkscape="http://www.inkscape.org/namespaces/inkscape"
   width="58.262535mm"
   height="73.803528mm"
   viewBox="0 0 58.262535 73.803528"
   version="1.1"
   id="svg9634"
   inkscape:version="0.92.0 r15299"
   sodipodi:docname="ecuador.svg">
  <defs
     id="defs9628" />
  <sodipodi:namedview
     id="base"
     pagecolor="#ffffff"
     bordercolor="#666666"
     borderopacity="1.0"
     inkscape:pageopacity="0.0"
     inkscape:pageshadow="2"
     inkscape:zoom="0.35"
     inkscape:cx="-95.217834"
     inkscape:cy="139.47125"
     inkscape:document-units="mm"
     inkscape:current-layer="layer1"
     showgrid="false"
     fit-margin-top="0"
     fit-margin-left="0"
     fit-margin-right="0"
     fit-margin-bottom="0"
     inkscape:window-width="1920"
     inkscape:window-height="1057"
     inkscape:window-x="-8"
     inkscape:window-y="-5"
     inkscape:window-maximized="1" />
  <metadata
     id="metadata9631">
    <rdf:RDF>
      <cc:Work
         rdf:about="">
        <dc:format>image/svg+xml</dc:format>
        <dc:type
           rdf:resource="http://purl.org/dc/dcmitype/StillImage" />
        <dc:title></dc:title>
      </cc:Work>
    </rdf:RDF>
  </metadata>
  <g
     inkscape:label="Layer 1"
     inkscape:groupmode="layer"
     id="layer1"
     transform="translate(-8.1841234,-111.93157)">
    <path
       style="fill:#cbe6a3;fill-opacity:1;fill-rule:evenodd;stroke:#000000;stroke-width:0.14449541;stroke-miterlimit:4;stroke-dasharray:none;stroke-opacity:1"
       d="m 19.52926,158.93139 c 0.361568,-0.64736 0.329665,-1.28542 -0.09305,-1.91418 -0.229968,0.65135 -0.198065,1.28942 0.09305,1.91418"
       id="path4798"
       inkscape:connector-curvature="0" />
    <path
       style="fill:#cbe6a3;fill-opacity:1;fill-rule:evenodd;stroke:#000000;stroke-width:0.14449541;stroke-miterlimit:4;stroke-dasharray:none;stroke-opacity:1"
       d="m 18.000572,159.22384 c -1.059447,0.11963 -2.178712,0.8986 -2.572183,1.90488 -0.140905,0.36289 0.186101,2.85 0.955762,2.23055 0.264529,-0.21269 0.778966,-1.52071 0.774978,-1.84639 0,-0.55431 1.527359,-1.09799 1.892915,-1.71878 -0.350934,-0.18875 -0.700538,-0.38017 -1.051472,-0.57026"
       id="path6602"
       inkscape:connector-curvature="0" />
    <path
       style="fill:#cbe6a3;fill-opacity:1;fill-rule:evenodd;stroke:#000000;stroke-width:0.14449541;stroke-miterlimit:4;stroke-dasharray:none;stroke-opacity:1"
       d="m 8.2435552,153.76044 c 2.0484418,0.66066 2.0883208,-2.40203 1.9726718,-3.63695 -0.09305,-0.99298 -0.5197536,-1.73739 -0.856065,-2.65992 -0.5689377,-1.56059 1.177754,-2.72638 0.5556449,-4.23247 -0.6792692,-1.65098 -2.5150241,-3.85495 0.5277301,-4.15271 1.269475,-0.11964 1.762643,-0.63407 2.009892,-1.86766 0.32036,-1.60446 1.173766,-1.23624 2.488438,-1.43564 -2.222579,-0.21534 -2.448559,-3.10124 -1.101985,-4.44914 2.048442,-2.04977 3.425591,-3.49339 3.59707,-6.55076 0.05317,-0.87202 -1.250866,-4.83332 -0.428033,-5.32648 0.919872,-0.55033 4.502319,-3.23816 4.53821,-0.60882 -0.570268,-1.5792 1.389112,-2.29702 2.525658,-2.68517 1.195035,-0.40943 3.755255,-2.00857 3.982564,-0.47988 0.49051,-1.24422 0.994312,-2.5682 1.818475,-3.63695 2.697137,2.46451 6.816619,6.99475 10.797854,6.96816 1.238902,0 1.290744,1.49944 2.477804,1.87431 1.589835,0.50247 0.192747,3.67815 2.956349,3.64492 2.073699,-0.0266 3.699425,0.98235 5.876809,1.01425 0.719148,0 2.293032,0.92918 2.604086,-0.34163 0.09305,-0.40277 -0.638061,-0.80023 -0.09305,-1.06609 2.008563,-0.98634 3.51997,0.73377 4.673797,2.13086 1.783913,2.15877 4.19791,2.21726 6.409855,3.67549 -1.156485,0.27916 -2.298349,0.093 -3.445529,-0.10634 -0.138247,0.79625 2.363484,3.19164 2.840701,3.83235 1.43032,1.91685 0.3948,3.85097 1.370502,6.12406 -0.752381,0.10635 -1.390442,-0.10634 -1.912854,-0.66465 -1.399747,7.62483 -5.85554,14.31517 -12.29331,18.78426 -3.086621,2.14282 -7.067856,2.74898 -10.470848,4.24842 -1.721436,0.75903 -2.702455,1.88228 -3.807098,3.34052 -0.418728,0.41739 -0.781625,0.87866 -1.088692,1.38512 -0.22465,0.80289 0.2632,1.25087 -0.384166,2.0059 -0.651354,-3.09326 -1.996599,2.92711 -2.169407,3.23285 -1.046155,1.84639 -2.069711,4.46111 -1.954062,6.61722 0.138246,2.58548 -1.749351,2.48844 -2.392729,4.51561 -0.65933,2.07503 -0.519754,2.45787 -2.495085,2.4047 -2.388741,-0.0665 -2.978948,-2.71043 -3.731328,-4.45314 -0.970385,-2.24916 -2.049771,-0.49981 -3.527946,-1.31068 -1.034191,-0.56628 -2.174725,-2.70113 -3.484079,-1.39177 -1.777266,1.77992 -3.642266,1.28941 -1.778596,-1.18706 -1.365184,-0.19408 -1.65497,-1.93412 -0.655341,-2.7543 0.595523,-0.48785 1.669593,-0.17945 2.328922,-0.70452 1.047484,-0.83347 -0.474557,-5.98183 -1.673581,-6.49759 1.495456,-0.77631 2.723724,-0.36157 3.638278,-2.07636 0.792259,-1.48349 0.957091,-3.18898 1.440954,-4.77748 0.596853,-1.95539 0.635403,-2.04579 0,-3.8616 -0.615463,-1.74005 -0.833467,-3.44021 0.382837,-4.98485 -2.149468,1.03817 -0.780295,3.4216 -1.099326,5.18823 -0.522412,2.89121 -2.515024,0.31504 -0.432021,0.16882 -1.042166,-0.0665 -1.132558,-0.94247 -0.765673,-1.71479 -0.69522,0.70187 -3.110548,3.6303 -2.584147,4.69241 -1.577872,-1.08205 -2.73037,-2.79418 -4.418573,-3.70208 -1.180413,-0.63541 -2.5216706,-0.99565 -2.7596142,-2.53098"
       class="landxx ec"
       id="path6790"
       inkscape:connector-curvature="0" />
  </g>
</svg>
