<?xml version="1.0" encoding="UTF-8" standalone="no"?>
<!-- Created with Inkscape (http://www.inkscape.org/) -->

<svg
   xmlns:dc="http://purl.org/dc/elements/1.1/"
   xmlns:cc="http://creativecommons.org/ns#"
   xmlns:rdf="http://www.w3.org/1999/02/22-rdf-syntax-ns#"
   xmlns:svg="http://www.w3.org/2000/svg"
   xmlns="http://www.w3.org/2000/svg"
   xmlns:sodipodi="http://sodipodi.sourceforge.net/DTD/sodipodi-0.dtd"
   xmlns:inkscape="http://www.inkscape.org/namespaces/inkscape"
   width="48.88055mm"
   height="84.18203mm"
   viewBox="0 0 48.88055 84.18203"
   version="1.1"
   id="svg7236"
   inkscape:version="0.92.0 r15299"
   sodipodi:docname="guyana.svg">
  <defs
     id="defs7230" />
  <sodipodi:namedview
     id="base"
     pagecolor="#ffffff"
     bordercolor="#666666"
     borderopacity="1.0"
     inkscape:pageopacity="0.0"
     inkscape:pageshadow="2"
     inkscape:zoom="0.35"
     inkscape:cx="842.37269"
     inkscape:cy="356.22697"
     inkscape:document-units="mm"
     inkscape:current-layer="layer1"
     showgrid="false"
     fit-margin-top="0"
     fit-margin-left="0"
     fit-margin-right="0"
     fit-margin-bottom="0"
     inkscape:window-width="1920"
     inkscape:window-height="1057"
     inkscape:window-x="-8"
     inkscape:window-y="-5"
     inkscape:window-maximized="1" />
  <metadata
     id="metadata7233">
    <rdf:RDF>
      <cc:Work
         rdf:about="">
        <dc:format>image/svg+xml</dc:format>
        <dc:type
           rdf:resource="http://purl.org/dc/dcmitype/StillImage" />
        <dc:title></dc:title>
      </cc:Work>
    </rdf:RDF>
  </metadata>
  <g
     inkscape:label="Layer 1"
     inkscape:groupmode="layer"
     id="layer1"
     transform="translate(239.8867,-158.90302)">
    <path
       inkscape:connector-curvature="0"
       id="gy"
       class="landxx gy"
       d="m -239.82113,188.71686 c 0.96904,-1.90621 2.5961,-2.83273 2.31694,-5.76914 -0.18876,-1.98993 0.71518,-2.58679 1.91952,-3.24612 0.27118,-0.14889 0.96374,-1.34391 1.87697,-0.73776 1.16311,0.77098 1.09401,-0.0665 2.10292,-0.76434 0.88799,-0.61813 2.61473,-1.0568 3.07467,-1.91553 0.40145,-0.74971 -0.22863,-1.88227 -1.19106,-1.53798 -2.4007,0.8574 -1.12324,-1.58719 -2.13617,-2.91248 -0.91987,-1.20569 0.23131,-2.59212 1.0023,-3.54257 0.96904,-1.19638 0.77098,-1.12991 2.15875,-1.83841 1.86235,-0.95179 2.87927,-2.84071 4.57278,-3.65955 2.30368,-1.11528 0.46128,-1.95673 -0.58488,-3.843 1.56325,1.82778 3.84962,3.03478 5.65082,4.59405 -0.87068,-1.33461 -2.67054,-1.65099 -3.34981,-3.1584 2.21328,1.00096 4.52889,2.45387 6.16659,4.26835 1.31999,1.46355 2.9949,4.30026 4.63258,5.2547 1.82512,1.06344 2.29835,4.48771 1.65233,6.28757 -0.48386,1.34922 -1.18307,2.27175 -1.35323,3.75525 -0.14755,1.28277 -0.17947,2.68118 -0.94113,3.78848 2.53097,-0.46391 0.61944,-6.65443 4.52091,-5.26931 2.92845,1.03951 6.52683,3.12915 7.242,6.51221 1.90754,-1.71744 3.2581,1.82911 3.52529,3.1943 0.46658,2.37677 -0.44132,5.96186 -1.98332,7.81225 2.56289,0.72579 0.36424,2.55755 -0.21933,3.25411 -0.56095,0.67131 -7.25527,-1.43563 -6.87509,2.96433 0.23128,2.67322 0.19806,4.4159 -0.21668,7.03993 -0.27916,1.76532 1.30669,5.26402 2.59744,6.45904 1.31865,1.22029 0.43733,2.68651 2.41266,2.96567 0.41342,0.0532 1.48616,-0.45329 1.73872,-0.0532 0.81353,1.27479 0.91856,2.85665 1.14319,4.30691 0.41739,2.70644 3.23284,4.91174 3.23284,7.57299 0,2.70379 3.05872,2.62137 4.02776,4.25907 -3.27403,2.0963 -6.45505,-2.12687 -9.58952,0.4493 -0.52507,0.43068 -0.83746,1.01558 -1.30669,1.49278 -0.86271,0.87867 -1.95406,0.49849 -2.9989,0.86139 -1.91684,0.66598 -2.00191,1.61908 -4.26171,1.64834 -0.70185,0 -1.1033,0.55564 -1.55793,1.0036 -0.34695,0.0532 -0.66598,0.18611 -0.9571,0.38285 0.0798,0.39746 0.13692,0.79891 0.15554,1.20566 -0.49715,0.99565 -3.26742,1.43831 -4.27633,1.09267 -0.70189,-0.24058 -0.24859,-1.0528 -1.24556,-1.06076 -0.79359,0 -2.38342,-0.59819 -2.68385,-1.41304 -0.48253,-1.31733 -2.36879,-3.36047 -3.82173,-3.55588 0.13295,-0.31769 0.25923,-0.63672 0.38551,-0.95709 -1.34391,0.0798 -1.18838,-1.11925 -1.02488,-2.03779 0.28312,-1.59783 -0.13427,-2.21328 -1.098,-3.37641 -1.59781,-1.92748 -1.52338,-5.60165 -1.02754,-7.88671 0.38149,-1.7613 1.68687,-3.37773 1.69483,-5.23742 0,-1.60976 0.45463,-1.49013 1.38515,-2.84867 0.58353,-0.85075 1.82777,-2.34486 1.27877,-3.35913 -0.44134,-0.8122 -1.59515,-1.94607 -1.59515,-2.91514 0,-0.93317 0.49182,-1.82513 -0.58357,-2.29302 -0.7444,-0.32302 -2.63731,-0.35226 -3.09326,-1.11928 -0.42937,-0.72047 1.07008,-2.88722 1.21763,-3.72468 0.24592,-1.39575 0.0665,-3.00951 -1.04749,-4.0118 -1.65761,-1.49546 -4.37735,0.85871 -6.38592,-0.13426 -2.38873,-1.17908 -5.19621,-5.89941 -6.27958,-8.24162"
       style="fill:#cbe6a3;fill-opacity:1;fill-rule:evenodd;stroke:#000000;stroke-width:0.14449541;stroke-miterlimit:4;stroke-dasharray:none;stroke-opacity:1">
      <title
         id="title1600">Guyana</title>
    </path>
  </g>
</svg>
