<?xml version="1.0" encoding="UTF-8" standalone="no"?>
<!-- Created with Inkscape (http://www.inkscape.org/) -->

<svg
   xmlns:dc="http://purl.org/dc/elements/1.1/"
   xmlns:cc="http://creativecommons.org/ns#"
   xmlns:rdf="http://www.w3.org/1999/02/22-rdf-syntax-ns#"
   xmlns:svg="http://www.w3.org/2000/svg"
   xmlns="http://www.w3.org/2000/svg"
   xmlns:sodipodi="http://sodipodi.sourceforge.net/DTD/sodipodi-0.dtd"
   xmlns:inkscape="http://www.inkscape.org/namespaces/inkscape"
   width="85.85537mm"
   height="95.829514mm"
   viewBox="0 0 85.85537 95.829514"
   version="1.1"
   id="svg12063"
   inkscape:version="0.92.0 r15299"
   sodipodi:docname="paraguay.svg">
  <defs
     id="defs12057" />
  <sodipodi:namedview
     id="base"
     pagecolor="#ffffff"
     bordercolor="#666666"
     borderopacity="1.0"
     inkscape:pageopacity="0.0"
     inkscape:pageshadow="2"
     inkscape:zoom="0.35"
     inkscape:cx="162.24637"
     inkscape:cy="181.09514"
     inkscape:document-units="mm"
     inkscape:current-layer="layer1"
     showgrid="false"
     fit-margin-top="0"
     fit-margin-left="0"
     fit-margin-right="0"
     fit-margin-bottom="0"
     inkscape:window-width="1920"
     inkscape:window-height="1017"
     inkscape:window-x="1912"
     inkscape:window-y="-8"
     inkscape:window-maximized="1" />
  <metadata
     id="metadata12060">
    <rdf:RDF>
      <cc:Work
         rdf:about="">
        <dc:format>image/svg+xml</dc:format>
        <dc:type
           rdf:resource="http://purl.org/dc/dcmitype/StillImage" />
        <dc:title></dc:title>
      </cc:Work>
    </rdf:RDF>
  </metadata>
  <g
     inkscape:label="Layer 1"
     inkscape:groupmode="layer"
     id="layer1"
     transform="translate(59.936614,-100.91858)">
    <path
       inkscape:connector-curvature="0"
       id="py"
       class="landxx py"
       d="m -59.866431,135.11059 c 0.929174,-3.80313 1.454247,-7.77107 1.90754,-11.65659 0.249904,-2.15212 -0.06647,-4.14607 -0.204728,-6.28224 -0.138229,-2.06706 0.982358,-3.86159 1.827801,-5.66678 1.192368,-2.54826 0.541017,-6.20249 4.391976,-6.68368 4.034413,-0.50514 8.117994,-1.433 12.002202,-2.63467 6.318136,-1.95405 10.769942,-1.5832 16.484579,1.6018 2.273086,1.2668 5.46471,3.02679 5.641517,5.97384 0.106344,1.76797 1.470192,7.18084 3.319243,7.7498 -1.187063,1.40639 0.728462,1.91684 1.050145,2.96299 0.24326,0.79491 0,3.3033 -0.132922,4.20855 -0.210034,0.63538 -0.329668,1.28676 -0.36024,1.95539 0.106344,0.88529 0.74572,1.75997 0.445309,2.68383 -0.356248,1.10066 -0.971722,2.51769 -0.849434,3.65955 0.06647,0.67793 7.1263622,2.74366 8.1592022,2.76359 1.51673,0.0266 3.325911,0.65269 4.804085,0.57958 1.43032102,-0.0797 1.30669502,-3.33653 2.737017,-2.31695 1.401064,0.99696 3.712704,2.17073 5.444773,2.41 1.292092,0.17812 1.440958,0.54501 1.688208,1.96072 0.251243,1.44361 1.277464,2.67719 1.482167,4.38134 0.2631938,2.18537 2.1986528,3.33387 2.4512108,5.50728 0.287144,2.47913 0.88665,7.50786 4.279011,7.17819 1.888918,-0.18346 3.167695,-1.60049 4.970232,-1.95009 1.668248,-0.32434 2.935073,1.67358 4.120798,2.48577 -0.735084,0.53172 -0.80555,1.25354 -0.416052,2.01788 0.761662,1.49546 -0.482552,2.30765 -0.09305,3.74065 0.413399,1.50475 -0.489196,4.17795 -0.763026,5.64682 -0.263195,1.41703 -0.676617,4.40264 -0.455946,5.88081 l 1.379813,9.27449 c 0.119634,0.83213 -0.551651,2.98424 -1.700184,3.20226 -0.563605,0.10634 -2.137484,2.36348 -1.902209,2.90584 0.237954,0.549 -2.257144,0.95575 -2.564198,1.11129 -0.60883,0.30839 -1.488811,0.97703 -1.30139,1.57254 0.272515,0.86139 -1.264148,4.33351 -2.5097,3.25411 -2.601439,-2.25846 -4.018471,-0.35357 -5.178928,2.06838 -0.7563798,-0.28846 -1.7320708,-1.60445 -2.5642228,-1.43297 -1.100653,0.22597 -1.313341,1.20833 -2.375437,-0.15021 -0.744408,-0.9531 -1.692201,0.41075 -2.715744,0.44132 -0.981019,0.0266 -2.13485698,-0.33364 -3.06003898,-0.58223 -3.10124702,-0.83346 -6.12273002,-1.98861 -9.40341602,-1.65364 -1.5539452,0.15953 -2.4950942,1.24954 -3.0361122,-0.62477 -0.106344,-0.35625 1.064752,-3.71006 1.414354,-3.94002 3.3099432,-2.18004 -0.07974,-7.78967 3.0387662,-9.32368 1.446287,-0.71116 1.418368,-4.06496 2.210628,-5.52719 1.418344,-2.61339 -0.195405,-3.8709 -2.391407,-5.53253 -1.7161252,-1.29739 -4.2749952,-1.26548 -5.7890702,-2.54027 -0.898602,-0.75769 -2.043118,-1.03021 -3.167698,-1.24555 -1.381151,-0.26319 -2.617382,-1.18175 -3.787161,-1.85304 -2.618721,-1.5021 -4.587406,-2.99091 -6.985455,-4.91174 -2.626683,-2.10295 -5.059296,-1.61244 -8.005007,-2.79018 -1.826438,-0.7298 -4.346775,-1.01427 -6.004412,-2.73702 -2.399392,-2.49509 -6.167934,-4.78546 -7.874739,-6.31947 -2.049786,-1.84506 -4.23381,-4.22317 -4.770835,-5.7492 -0.905247,-2.56819 -3.317926,-2.92709 -4.891807,-5.0739"
       style="fill:#cbe6a3;fill-opacity:1;fill-rule:evenodd;stroke:#000000;stroke-width:0.14449541;stroke-miterlimit:4;stroke-dasharray:none;stroke-opacity:1">
      <title
         id="title1000">Paraguay</title>
    </path>
  </g>
</svg>
