<?xml version="1.0" encoding="UTF-8" standalone="no"?>
<!-- Created with Inkscape (http://www.inkscape.org/) -->

<svg
   xmlns:dc="http://purl.org/dc/elements/1.1/"
   xmlns:cc="http://creativecommons.org/ns#"
   xmlns:rdf="http://www.w3.org/1999/02/22-rdf-syntax-ns#"
   xmlns:svg="http://www.w3.org/2000/svg"
   xmlns="http://www.w3.org/2000/svg"
   xmlns:sodipodi="http://sodipodi.sourceforge.net/DTD/sodipodi-0.dtd"
   xmlns:inkscape="http://www.inkscape.org/namespaces/inkscape"
   width="180.57433mm"
   height="146.17557mm"
   viewBox="0 0 180.57433 146.17557"
   version="1.1"
   id="svg14398"
   inkscape:version="0.92.0 r15299"
   sodipodi:docname="newzealand.svg">
  <defs
     id="defs14392" />
  <sodipodi:namedview
     id="base"
     pagecolor="#ffffff"
     bordercolor="#666666"
     borderopacity="1.0"
     inkscape:pageopacity="0.0"
     inkscape:pageshadow="2"
     inkscape:zoom="0.35"
     inkscape:cx="1205.7949"
     inkscape:cy="385.18787"
     inkscape:document-units="mm"
     inkscape:current-layer="layer1"
     showgrid="false"
     fit-margin-top="0"
     fit-margin-left="0"
     fit-margin-right="0"
     fit-margin-bottom="0"
     inkscape:window-width="1920"
     inkscape:window-height="1017"
     inkscape:window-x="1912"
     inkscape:window-y="-8"
     inkscape:window-maximized="1" />
  <metadata
     id="metadata14395">
    <rdf:RDF>
      <cc:Work
         rdf:about="">
        <dc:format>image/svg+xml</dc:format>
        <dc:type
           rdf:resource="http://purl.org/dc/dcmitype/StillImage" />
        <dc:title></dc:title>
      </cc:Work>
    </rdf:RDF>
  </metadata>
  <g
     inkscape:label="Layer 1"
     inkscape:groupmode="layer"
     id="layer1"
     transform="translate(458.88442,-104.57206)">
    <g
       id="g4510">
      <path
         inkscape:connector-curvature="0"
         id="path3564"
         d="m -451.7352,247.05038 c 2.49907,1.26283 1.51539,-4.57277 -0.97039,-1.59515 -1.78125,2.14016 -3.21689,4.05434 -6.0217,5.03802 0.87733,0.61148 3.948,-0.49184 4.98485,-0.77099 0.7577,-0.19939 2.14016,0 2.65859,-0.70452 0.85075,-1.22295 -0.7577,-1.67491 -1.60845,-1.19637 0.31903,-0.25256 0.63806,-0.50513 0.9571,-0.77099"
         style="fill:#cbe6a3;fill-opacity:1;fill-rule:evenodd;stroke:#000000;stroke-width:0.14449541;stroke-miterlimit:4;stroke-dasharray:none;stroke-opacity:1" />
      <path
         inkscape:connector-curvature="0"
         id="path3566"
         d="m -457.3847,237.00092 c 1.09002,-0.27915 2.11357,-0.77099 3.07067,-1.34259 -0.14623,1.26283 -1.7015,1.01027 -2.11358,2.11358 1.15648,0 1.78125,-1.24954 2.96432,-1.15649 -1.24953,0.35891 -3.24347,1.316 -3.62897,2.68518 1.60845,0.15951 4.18728,1.34258 5.6495,0.27915 1.7015,-1.23624 3.61568,-0.41208 2.37944,1.82113 0.95709,0 1.98064,-0.69123 2.93774,-0.39879 1.52868,0.46526 -0.13293,1.87431 0,2.79152 0.78428,-0.41208 2.87127,-0.51842 3.7486,-0.38549 0.71782,0.13292 0.15952,1.14319 1.31601,1.15648 3.28335,0 6.2078,-1.48881 9.29176,-2.31297 0.58489,-0.15952 1.60845,-1.39576 2.2598,-1.71479 1.43564,-0.69123 3.08396,-0.99697 4.42655,-1.91418 1.22295,-0.83746 2.15345,-1.96736 3.65556,-2.35285 1.34258,-0.34562 3.04408,-0.13293 3.90812,-1.46223 -0.66465,0.25257 -1.32929,0.47855 -2.00723,0.66465 3.65555,-1.66162 6.22109,-5.13107 9.37152,-7.5238 1.47551,-1.11661 3.2036,-1.86101 4.61265,-3.07067 1.60844,-1.38247 2.64529,-3.28336 4.20057,-4.7057 2.84469,-2.6453 6.48695,-3.7752 9.99629,-5.22413 1.78125,-0.73111 3.92141,-1.10331 5.58303,-1.99394 1.1299,-0.59818 2.95103,-2.57883 4.13411,-1.02355 -0.66465,0.27915 -1.3293,0.53171 -2.00724,0.75769 1.62174,-0.70452 3.53592,0.7577 4.97156,0.1994 3.21689,-1.20966 0.87733,-2.2731 -0.85075,-2.96433 1.64833,-0.39879 1.94077,-2.87127 3.13714,-3.85495 2.07369,-1.7015 5.02473,-2.49907 7.37758,-3.77519 2.10028,-1.1432 3.66885,-2.76494 5.48998,-4.26704 1.55528,-1.27612 3.34982,-1.8876 5.10449,-2.8181 1.34259,-0.71782 2.11358,-1.3293 3.0042,-2.48578 1.1432,-1.5021 3.2036,-1.92748 4.69241,-3.00421 1.71479,-1.23624 1.02356,-3.7486 2.49907,-5.10448 1.52869,-1.39576 4.09423,-1.34259 5.25072,-3.2169 -0.62477,0.7577 -4.17399,2.63201 -4.97156,1.43564 1.40905,-0.26586 4.42654,-0.7444 4.21386,-2.77822 -1.54198,0 -1.5154,1.07673 -2.6453,1.40905 -0.65135,0.1861 -2.59212,1.36917 -0.33232,0.89063 -1.02356,0.13293 -1.96736,0.58489 -2.96433,0.77099 0.87734,-0.51843 3.97459,-2.52566 1.82114,-2.59213 0.85074,-0.1861 1.60844,-0.70452 2.19333,-1.34258 -1.90089,0.33232 -3.45616,1.52869 -5.264,2.11357 -1.71479,0.55831 -3.3897,2.63201 -5.35706,1.91419 0.74441,-1.5021 3.32324,-3.72203 2.96433,-5.55645 -0.50513,0.26586 -2.85798,0.61147 -2.40602,-0.62477 0.62476,-1.78125 2.85798,-2.53895 4.5196,-2.15346 -2.49908,-1.26282 -8.08211,1.76797 -10.04947,3.45617 -1.22295,1.06343 -2.12687,2.41931 -3.11054,3.68214 -1.35588,1.74138 -3.08397,2.84469 -4.79875,4.18728 -1.74138,1.36917 -3.36312,1.71479 -5.42352,2.33956 -1.91419,0.57159 -3.19031,2.31297 -4.46643,3.73531 -3.07067,3.34982 -6.42049,6.2078 -10.32861,8.53407 -1.7015,1.02356 -3.3897,1.6882 -5.2773,2.2598 -2.10029,0.62477 -3.89483,2.00723 -5.87548,2.93774 -4.25374,2.02052 -8.34797,3.88154 -12.73464,5.6362 -4.1341,1.67491 -8.54736,2.57883 -12.49536,4.67912 -1.62174,0.86404 -7.81625,3.28335 -6.97879,5.74255 -0.63806,-2.31297 -3.5758,0.86404 -4.62594,1.23624 -1.11661,0.41208 -4.89181,1.75467 -4.28033,2.97762 -0.95709,-0.35891 -2.15346,0.27915 -2.92445,0.79758 -0.82416,0.54501 -2.36614,1.59515 -0.51842,1.59515 -1.52869,0 -1.11661,1.78125 -2.11358,2.48578 0.93051,-0.99697 0.77099,-1.26283 -0.47855,-0.77099 0.13293,-0.54501 -0.29244,-1.91419 -0.77099,-0.86404 -0.47854,1.03685 -2.08699,1.70149 -3.15042,2.40602 1.07673,0.27915 2.03382,-0.33232 3.07067,-0.49184 -1.01027,0.42537 -2.0737,0.73111 -3.07067,1.15649 0.66464,0.21268 1.32929,0.21268 2.00723,0 -0.67794,0.31903 -1.36917,0.53171 -2.10028,0.66464 2.72505,0.49184 -1.84772,1.23625 -2.52566,1.35588 -1.40905,0.25257 -2.95103,0.73111 -3.12384,2.37944"
         style="fill:#cbe6a3;fill-opacity:1;fill-rule:evenodd;stroke:#000000;stroke-width:0.14449541;stroke-miterlimit:4;stroke-dasharray:none;stroke-opacity:1" />
      <path
         inkscape:connector-curvature="0"
         id="path3568"
         d="m -343.6769,176.6111 c -1.09002,0.53171 -2.4592,1.02355 -2.68518,2.39273 1.24954,-0.25257 2.11358,-1.316 2.68518,-2.39273"
         style="fill:#cbe6a3;fill-opacity:1;fill-rule:evenodd;stroke:#000000;stroke-width:0.14449541;stroke-miterlimit:4;stroke-dasharray:none;stroke-opacity:1" />
      <path
         inkscape:connector-curvature="0"
         id="path3570"
         d="m -340.52648,183.21769 c -0.13293,0.67794 -0.23927,1.34258 -0.3722,2.00723 0.79758,-0.45196 1.75467,-0.34561 2.57883,-0.77099 0.1861,0.81087 0,1.48881 -0.67794,2.02053 1.79455,1.5021 5.47669,-1.27612 6.99209,-2.15346 3.3764,-1.99394 6.19451,-4.12081 9.27847,-6.56671 1.32929,-1.05014 2.91115,-2.57883 4.58606,-3.03079 1.40905,-0.3722 2.04711,-1.8743 3.16372,-2.67188 1.38247,-0.99697 2.87128,-1.5021 4.17398,-2.71176 1.56857,-1.47552 2.91116,-3.17701 4.54619,-4.59936 -2.87128,-0.5583 2.28639,-4.5196 3.05738,-5.03802 1.76796,-1.16978 8.76004,-3.60239 7.47063,0.54501 2.35285,-1.47552 2.33955,-4.85192 4.91838,-6.27427 0.91722,-0.50513 1.98065,-0.66465 2.92445,-1.14319 1.64833,-0.82416 2.39273,-2.14016 3.52263,-3.50934 1.7015,-2.0604 3.16372,-4.58606 5.264,-6.16792 1.07673,-0.81087 0.90392,-1.7015 -0.26585,-2.33956 -1.55528,-0.82416 -3.86825,0.69124 -5.18425,1.42235 -3.28336,1.79454 -6.30085,4.74558 -10.26215,3.03079 -0.97038,-0.41208 -6.34073,-3.0175 -6.47366,-4.05435 -0.13293,-0.7577 4.49301,-9.17213 2.29968,-8.62712 0.63806,-0.59818 1.39576,-1.07673 2.20663,-1.43563 -0.7577,0 -1.48881,0.15951 -2.20663,0.38549 0.22598,-1.02356 0.45196,-2.11358 -0.1861,-3.07067 -0.93051,0.3722 -0.78429,0.5716 -0.55831,1.28942 0.29245,0.86404 -1.02355,1.8743 -1.35588,2.53895 -0.78428,1.55527 -0.7444,4.25374 -2.95103,4.59936 -1.1299,0.1728 -0.13293,-2.20663 -0.13293,-2.68518 0.13293,-1.38246 -3.73531,-1.59515 -4.63923,-1.43564 0,-0.13293 1.47551,-1.03685 1.84771,-1.70149 0.5716,-1.03685 0.86404,-1.79455 1.56857,-2.77823 0.51843,-0.71782 2.16675,-1.1166 1.67491,-2.20662 -0.53172,-1.1432 -1.40905,-3.41629 -0.30574,-4.50631 -0.62476,0 -1.16978,-0.22598 -0.91721,-0.87733 0.39879,-1.02356 1.71479,0.1861 2.2598,0.58488 0.85075,-2.25979 1.28942,-4.63923 1.23624,-7.07184 -0.63806,0.15952 -1.27612,0.22598 -1.91418,0.1861 0.15952,0.34562 0.31903,0.70453 0.47855,1.05014 -0.34562,0.13293 -0.69124,0.13293 -1.05015,0.13293 0.18611,-0.78428 -0.19939,-2.29967 1.1432,-2.10028 -1.30271,-0.17281 -1.52869,-3.23018 -2.96433,-1.14319 0.97039,-1.50211 -4.22715,-1.86101 -1.34259,-2.39273 -1.316,-0.50513 -1.78125,1.16978 -2.67188,1.71479 0.87734,-1.18307 0.35891,-4.67912 -0.19939,-5.92865 0.77099,0.13293 1.35588,-0.35891 1.63503,-1.05015 -0.73111,0.21269 -3.72202,0.15952 -3.73531,0.93051 0,0.93051 0.50513,1.80784 0.70452,2.69847 0.31903,1.5021 1.03685,5.42352 -1.56857,5.264 0.34562,1.27612 0.3855,2.61871 0.47855,3.92142 0.70453,-1.35588 2.99091,-1.07673 3.25677,-2.76493 0.13293,2.08699 -2.93774,1.5021 -3.12384,3.7486 -0.25257,3.04409 1.5021,5.78243 0.73111,8.97274 1.91418,0.35891 1.40905,-1.96736 1.14319,-3.05738 0.74441,0.1994 1.30271,0.79758 1.52869,1.52869 -0.13293,-2.02053 1.09002,0 2.11358,-1.14319 -0.90392,0.38549 -1.7015,0.85075 0,1.23624 -0.54501,0.3722 -1.20966,0.27915 -1.75467,0.59818 -0.5583,0.33233 -0.5716,1.63503 0.79758,0.65136 -0.81087,0.86404 -0.90392,2.11357 -1.72808,2.96432 -0.47855,-0.58489 -0.66465,-1.24953 -0.5716,-2.00723 -1.66162,0.41208 -1.1299,5.05132 -1.63503,6.31415 0.98368,0.14622 2.73834,-1.40906 3.25677,0 0.35891,0.99697 -1.99394,2.2465 -2.29968,0.57159 -0.74441,0.45196 -2.14016,3.08396 -0.46525,3.25677 -1.02356,0.33232 -1.44893,1.5154 -1.71479,2.4459 -0.14623,0.54501 -0.29245,1.09002 -0.42538,1.64833 -0.31903,1.1166 -1.06343,1.05014 -1.58186,1.94077 -0.46525,0.78428 -0.59818,2.20662 -1.15648,2.87127 -0.35891,0 -0.71782,0 -1.06344,0 -0.73111,0.63806 -1.38246,1.35588 -2.02052,2.08699 -1.92748,2.23322 -3.23019,5.2773 -5.72926,6.93892 -2.40602,1.60844 -5.75584,1.27612 -8.33467,2.83139 -1.11661,0.66465 -2.06041,1.66162 -2.19334,3.00421 -0.14622,1.52868 1.7015,1.60844 2.52566,2.40602 1.23624,1.19636 1.36917,2.21992 3.19031,2.84469 1.78125,0.61147 2.08699,2.2598 1.46222,3.89483 -1.24954,3.32323 -4.46643,5.51657 -7.19148,7.56368 -1.10332,0.82416 -2.00724,2.33956 -3.3897,2.75164 -1.34259,0.41208 -2.97762,1.24954 -3.69544,2.52566 0.86404,0.38549 1.59515,0 1.92748,-0.86404"
         style="fill:#cbe6a3;fill-opacity:1;fill-rule:evenodd;stroke:#000000;stroke-width:0.14449541;stroke-miterlimit:4;stroke-dasharray:none;stroke-opacity:1" />
      <path
         inkscape:connector-curvature="0"
         id="path3572"
         d="m -303.1999,131.53474 c -0.59819,0.15952 -1.16978,0.3722 -1.71479,0.66465 0.75769,0.47854 1.44893,0.17281 1.71479,-0.66465"
         style="fill:#cbe6a3;fill-opacity:1;fill-rule:evenodd;stroke:#000000;stroke-width:0.14449541;stroke-miterlimit:4;stroke-dasharray:none;stroke-opacity:1" />
      <path
         inkscape:connector-curvature="0"
         id="path3574"
         d="m -296.40721,123.58556 c -1.27612,0.62477 -1.7015,3.66885 -0.85075,3.21689 0.82416,-0.43866 0.5716,-2.4459 0.85075,-3.21689"
         style="fill:#cbe6a3;fill-opacity:1;fill-rule:evenodd;stroke:#000000;stroke-width:0.14449541;stroke-miterlimit:4;stroke-dasharray:none;stroke-opacity:1" />
      <path
         inkscape:connector-curvature="0"
         id="path3576"
         d="m -285.77286,214.50927 c 0,0.45196 0,0.90392 0,1.34258 0.95709,-0.38549 1.90089,-0.85075 2.96432,-0.86404 -0.9305,-0.97038 -0.23927,-4.01447 1.34259,-2.48578 -0.29244,0.35891 -0.61147,0.67794 -0.95709,0.95709 0.90392,-0.77099 1.8876,-1.47551 2.96432,-2.00723 -1.74137,0.42537 -4.90509,-1.1299 -5.8356,1.14319 0.67794,-0.22598 1.34259,-0.19939 2.00724,0.13293 -0.39879,1.05014 -1.43564,1.62174 -2.48578,1.82113"
         style="fill:#cbe6a3;fill-opacity:1;fill-rule:evenodd;stroke:#000000;stroke-width:0.14449541;stroke-miterlimit:4;stroke-dasharray:none;stroke-opacity:1" />
      <path
         inkscape:connector-curvature="0"
         id="path3578"
         d="m -284.62967,217.95214 c 0.61148,-0.1861 0.90392,-0.1994 1.05014,-0.95709 -0.35891,0.30573 -0.71782,0.62476 -1.05014,0.95709"
         style="fill:#cbe6a3;fill-opacity:1;fill-rule:evenodd;stroke:#000000;stroke-width:0.14449541;stroke-miterlimit:4;stroke-dasharray:none;stroke-opacity:1" />
    </g>
  </g>
</svg>
