<svg xmlns="http://www.w3.org/2000/svg" width="682.486" height="552.475" viewBox="0 0 180.57433 146.17557"><g fill="#cbe6a3" fill-rule="evenodd" stroke="#000" stroke-width=".144"><path d="M7.15 142.478c2.498 1.263 1.515-4.572-.971-1.595-1.781 2.14-3.217 4.055-6.022 5.038.877.612 3.948-.492 4.985-.77.758-.2 2.14 0 2.659-.705.85-1.223-.758-1.675-1.609-1.197.32-.252.638-.505.957-.77M1.5 132.429c1.09-.28 2.113-.771 3.07-1.343-.146 1.263-1.701 1.01-2.113 2.114 1.156 0 1.781-1.25 2.964-1.157-1.25.36-3.243 1.316-3.629 2.686 1.609.16 4.187 1.342 5.65.279 1.701-1.237 3.615-.412 2.38 1.82.956 0 1.98-.69 2.937-.398 1.529.465-.133 1.874 0 2.792.784-.413 2.871-.519 3.748-.386.718.133.16 1.143 1.316 1.157 3.284 0 6.208-1.49 9.292-2.313.585-.16 1.609-1.396 2.26-1.715 1.436-.691 3.084-.997 4.427-1.914 1.223-.838 2.153-1.968 3.655-2.353 1.343-.346 3.044-.133 3.908-1.462-.664.252-1.33.478-2.007.664 3.656-1.661 6.221-5.13 9.372-7.524 1.475-1.116 3.203-1.86 4.612-3.07 1.609-1.383 2.645-3.284 4.2-4.706 2.845-2.645 6.488-3.775 9.997-5.224 1.781-.731 3.921-1.103 5.583-1.994 1.13-.598 2.951-2.579 4.134-1.024-.664.28-1.33.532-2.007.758 1.622-.704 3.536.758 4.971.2 3.217-1.21.878-2.274-.85-2.965 1.648-.399 1.94-2.871 3.137-3.855 2.074-1.701 5.025-2.499 7.377-3.775 2.1-1.143 3.67-2.765 5.49-4.267 1.556-1.276 3.35-1.888 5.105-2.818 1.343-.718 2.114-1.33 3.004-2.486 1.143-1.502 3.204-1.927 4.693-3.004 1.714-1.236 1.023-3.749 2.499-5.105 1.528-1.395 4.094-1.342 5.25-3.217-.624.758-4.174 2.633-4.971 1.436 1.409-.266 4.426-.744 4.214-2.778-1.542 0-1.516 1.077-2.646 1.409-.651.186-2.592 1.37-.332.89-1.024.134-1.967.585-2.964.772.877-.519 3.974-2.526 1.82-2.593.852-.186 1.61-.704 2.194-1.342-1.9.332-3.456 1.529-5.264 2.113-1.715.559-3.39 2.632-5.357 1.915.745-1.502 3.323-3.722 2.964-5.557-.505.266-2.858.612-2.406-.625.625-1.78 2.858-2.539 4.52-2.153-2.5-1.263-8.082 1.768-10.05 3.456-1.222 1.064-2.126 2.42-3.11 3.682-1.356 1.742-3.084 2.845-4.799 4.188-1.741 1.369-3.363 1.714-5.423 2.34-1.914.57-3.19 2.312-4.467 3.734-3.07 3.35-6.42 6.208-10.328 8.534-1.702 1.024-3.39 1.689-5.278 2.26-2.1.625-3.894 2.008-5.875 2.938-4.254 2.02-8.348 3.882-12.735 5.636-4.134 1.675-8.547 2.58-12.495 4.68-1.622.863-7.816 3.283-6.979 5.742-.638-2.313-3.576.864-4.626 1.236-1.116.412-4.892 1.755-4.28 2.978-.957-.36-2.154.279-2.925.797-.824.545-2.366 1.595-.518 1.595-1.529 0-1.117 1.782-2.114 2.486.93-.997.771-1.263-.478-.77.133-.546-.293-1.915-.771-.865-.479 1.037-2.087 1.702-3.15 2.406 1.076.28 2.033-.332 3.07-.492-1.01.426-2.074.732-3.07 1.157.664.213 1.329.213 2.007 0a8.397 8.397 0 0 1-2.1.665c2.724.491-1.848 1.236-2.526 1.355-1.41.253-2.951.732-3.124 2.38"/><path d="M115.208 72.039c-1.09.532-2.46 1.024-2.686 2.393 1.25-.253 2.114-1.316 2.686-2.393M118.358 78.646c-.133.678-.24 1.342-.372 2.007.797-.452 1.754-.346 2.579-.771.186.81 0 1.489-.678 2.02 1.794 1.502 5.476-1.276 6.992-2.153 3.376-1.994 6.194-4.12 9.278-6.567 1.33-1.05 2.911-2.579 4.586-3.03 1.41-.373 2.047-1.875 3.164-2.672 1.382-.997 2.871-1.503 4.174-2.712 1.569-1.476 2.911-3.177 4.546-4.6-2.871-.558 2.287-4.52 3.058-5.038 1.767-1.17 8.76-3.602 7.47.545 2.353-1.475 2.34-4.851 4.919-6.274.917-.505 1.98-.664 2.924-1.143 1.648-.824 2.393-2.14 3.523-3.51 1.701-2.06 3.163-4.585 5.264-6.167 1.076-.811.904-1.702-.266-2.34-1.556-.824-3.868.691-5.184 1.423-3.284 1.794-6.301 4.745-10.263 3.03-.97-.412-6.34-3.017-6.473-4.054-.133-.758 4.493-9.172 2.3-8.627a7.891 7.891 0 0 1 2.206-1.436c-.758 0-1.489.16-2.207.386.226-1.024.452-2.114-.186-3.071-.93.372-.784.572-.558 1.29.292.863-1.024 1.874-1.356 2.538-.784 1.556-.744 4.254-2.95 4.6-1.13.173-.134-2.207-.134-2.685.133-1.383-3.735-1.596-4.64-1.436 0-.133 1.476-1.037 1.849-1.702.571-1.036.864-1.794 1.568-2.778.519-.718 2.167-1.116 1.675-2.206-.532-1.144-1.409-3.417-.306-4.507-.624 0-1.17-.226-.917-.877.399-1.024 1.715.186 2.26.585.85-2.26 1.29-4.64 1.236-7.072a6.25 6.25 0 0 1-1.914.186c.16.346.319.705.479 1.05-.346.133-.692.133-1.05.133.186-.784-.2-2.3 1.143-2.1-1.303-.173-1.53-3.23-2.965-1.143.97-1.502-4.227-1.861-1.342-2.393-1.316-.505-1.782 1.17-2.672 1.715.877-1.183.359-4.68-.2-5.929.771.133 1.356-.359 1.635-1.05-.73.213-3.722.16-3.735.93 0 .931.505 1.808.705 2.699.319 1.502 1.037 5.423-1.569 5.264.346 1.276.386 2.619.479 3.921.704-1.356 2.99-1.076 3.256-2.765.133 2.087-2.937 1.503-3.123 3.749-.253 3.044 1.502 5.782.73 8.973 1.915.359 1.41-1.968 1.144-3.058.744.2 1.303.798 1.529 1.53-.133-2.021 1.09 0 2.113-1.144-.904.385-1.701.85 0 1.236-.545.372-1.21.28-1.755.598-.558.333-.571 1.635.798.652-.81.864-.904 2.113-1.728 2.964-.479-.585-.665-1.25-.572-2.007-1.661.412-1.13 5.051-1.635 6.314.984.146 2.739-1.41 3.257 0 .359.997-1.994 2.246-2.3.571-.744.452-2.14 3.084-.465 3.257-1.023.333-1.449 1.516-1.715 2.446-.146.545-.292 1.09-.425 1.648-.319 1.117-1.063 1.05-1.582 1.941-.465.785-.598 2.207-1.156 2.872h-1.064c-.73.638-1.382 1.355-2.02 2.087-1.928 2.233-3.23 5.277-5.73 6.938-2.406 1.609-5.755 1.277-8.334 2.832-1.117.664-2.06 1.661-2.194 3.004-.146 1.529 1.702 1.608 2.526 2.406 1.236 1.196 1.37 2.22 3.19 2.845 1.782.611 2.087 2.26 1.463 3.895-1.25 3.323-4.467 5.516-7.192 7.563-1.103.824-2.007 2.34-3.39 2.752-1.342.412-2.977 1.25-3.695 2.526.864.385 1.595 0 1.927-.864"/><path d="M155.685 26.963c-.599.16-1.17.372-1.715.664.757.479 1.449.173 1.715-.664M162.477 19.014c-1.276.624-1.701 3.668-.85 3.216.824-.438.571-2.446.85-3.216M173.112 109.937v1.343c.957-.386 1.9-.851 2.964-.864-.93-.97-.24-4.015 1.342-2.486a6.513 6.513 0 0 1-.957.957c.904-.77 1.888-1.475 2.965-2.007-1.742.425-4.905-1.13-5.836 1.143.678-.226 1.343-.2 2.007.133-.398 1.05-1.435 1.622-2.485 1.821M174.255 113.38c.611-.186.904-.2 1.05-.957-.359.306-.718.625-1.05.957"/></g></svg>