<svg xmlns="http://www.w3.org/2000/svg" width="586.066" height="446.838" viewBox="0 0 155.06328 118.226"><g class="landxx coastxx pg" transform="matrix(1.3293 0 0 1.3293 -3116.192 -1025.475)" fill="#cbe6a3" fill-rule="evenodd" stroke="#000" stroke-width=".109"><title>Papua New Guinea</title><path d="M2364.61 835.13c.35-1.458-1.97-2.07-2.95-2.38 1.06.65 2.13 1.438 2.95 2.38M2364.32 833.04c.96-.984-.93-1.15-1.51-.58.47.279.97.472 1.51.58M2365.25 832.61c.11-.581-.27-.775-.79-.72.25.256.51.496.79.72M2365.76 829.66c.12-.507-.12-.581-.72-.221.24.07.48.148.72.221M2367.99 827.28c-.1-.41-.3-.649-.72-.72l.72.72"/><path class="landxx pg" d="M2344.3 838.58l1.44-18.28c-.11-1.25-1.22-1.875-.94-3.244.24-1.149.88-2.537 1.31-3.507l1.7-31.475c1.1.448 3.43 1.184 4.49 1.724 2.95 1.505 5.64 3.639 8.89 4.493 1.6.421 3.26.187 4.8.853 1.78.769 2.93 2.245 4.53 3.24 1.27.787 1.5-.106 2.5.08 1.26.24 1.3 1.632 2.49 1.906 1.39.318 1.65 1.822 2.51 2.671.89.879 2.19.594 3.17 1.542 1.07 1.034 1.92 2.412 2.17 3.89.23 1.29-.81 2.336-.65 3.417.22 1.581 4.06 1.895 5.21 2.321 1.17.43 2.52 1.314 3.61 1.925.53.297.74.851 1.37 1.01.73.186 1.43-.218 2.16 0 1.77.528 4.47 4.458 2.96 6.212-1.19 1.386-4.2.222-5.74.303-2.43.128-.1 5.114.64 6.206.86 1.28 2.25 2.186 3.17 3.466.59.813 2.18 2.292 3.36 1.813-.1 1.188.11 3.169.47 4.306.19.606.58.836 1.08 1.133.7.42.44 1.429.57 2.111.38 2.05 2.04 1.718 3.55 1.128 1.07-.42 2.92-.542 2.17 1.12-1.22 2.694-.14 3.519 2.6 3.657.52.03 2.55-.157 2.63.648.1.884-1.97.99-2.48 1.307.46.539.65 1.276 1.22 1.73.71.572 1.87.656 2.68 1.166 1.24.777 3.1 1.193 4.52.704-.72.317-1.7 1.042-2.53.893-.66-.117-1.37-.531-1.5.477 1.58.41 3.36 1.2 1 1.931-1.58.485-3.74 1.072-4.6-1 .53.146.98.03 1.37-.36-.47-.263-.87-.189-1.22.22-.1-1.488-2.34-1.368-3.37-1.45-1.79-.141-3.58-1.089-5.42-.78.1-.265.14-.528.22-.79-.75.343-1.58.568-2.42.434-.59-.1-1.75-1.126-2.3-.77-1.36.886-2.27-.92-3.13-.104-.23-.922-1.44-1.286-1.44-2.3 0-.782-.58-1.776-1.04-2.379-.51-.685-1.5-.163-2.03-.924-.42-.62-1.43-2.147-.75-2.888-2.45-.316-2.07-1.438-2.72-3.1-.61-1.569-1.97-5.209-3.62-5.888-.54-.222-.97-.664-1.41-1.025-.6-.488-1.53 0-2.23-.1-1.04-.134-2.11-.841-3.19-1.051-1.92-.374-1.11-.73-1.44-2.09 0 1.195-1.21.574-1.52-.07-.14 1.496-.96.189-.86-.431-.36.653-.6 1.289-.94 0 0 .696.1 1.39.15 2.08a2.74 2.74 0 0 0-1.37-1c-.24 3.243-4.09-1.531-4.53-1.729.53 1.626 1.65 3.02 1.87 4.75-.29-.09-.58-.182-.87-.29.39 1.866-2.62-.389-3.53-.5.39.628 2.59 2.289 1.25 2.849-.89.372-1.88.333-2.81.498-.78.138-1.51.489-2.3.193-.62-.232-1.12-.463-1.8-.299-1.05.256-1.72.792-2.18-.581 0 1.012.47 1.367 1.42 1.146 1.34-.308 2.29.05 3.44.783 2.21 1.401 3.93 4.04.92 5.324-1.35.574-2.8 2.121-4.28 2.241-1.4.114-2.6-1.182-4.17-1.04-1.74.159-3.59.6-5.28-.168-1.13-.517-2.1 1.334-3-.297"/><path d="M2384.7 800.78c.88-.362 1.03-1.314.43-2.01-.77.4-1.35 1.379-.43 2.01M2393.33 806.76c1.4-.08.74-2.201-.35-2.18-.8.02.1 1.927.35 2.18M2399.67 810.22c1.09-.839.76-3.036-.79-3.03-1.9 0 .23 2.55.79 3.03M2399.45 779.9c.62.167.74-.07.37-.72-.13.24-.25.48-.37.72M2406.37 811.08c.47.623 1.28.89 1.58 1.66.93-.669 2.32-.958 3.19.01.64.697.59 1.429 1.78 1.313 1.54-.151 3.1.187 4.64-.117 2.02-.4 3.1-2.333 4.83-2.299 1.78.04 4.17-2.462 3.92-4.238 1 .119 5.81.795 5.11-1.689-.12-.426-1.79-3.363-.36-3.066 2.36.489 2.96-2.049 2.96-3.846 0-.664.19-1.423-.51-1.744-.68-.308-1.44-.624-.65-1.395-.66.252-2.13 1.853-2.79.893-.71-1.014-2.56-.972-2.38.567.17 1.465.97 2.709.74 4.27-.23 1.557-2.43.735-3.52 1.61-1.17.948-1.36 2.435-2.27 3.563-.38.473-1.11.441-1.63.583-1.2.324-1-.16-2.13-.36-.86-.152-1.87 1.457-2.55.532-.89-1.23-.85-3.193.62-3.948-1.25-1.341-2.33 2.39-1.98 2.973.64 1.072-4.46 1.59-5 1.557-.71-.04-1.07-.388-1.71-.646-.84-.346-1.2.149-1.98.09-.68-.05-2.42.307-2.79-.249-.58-.895-1.58 1.275-.66 2.224.65.668 1.33.471 2.1.806.57.249.77.843 1.44.941M2412.2 800.42c.15-.654-.1-.724-.72-.21l.72.21M2414.72 773.42c.78-.726-.66-2.431-1.4-1.776-.46.404 1.1 1.626 1.4 1.776M2415.01 841.97c.27-.53.34-3.369-.96-2.636-1.56.88.21 2.157.96 2.636M2418.75 843.62c1.53-1.6-.63-2.385-1.83-2.837-2.15-.809 0 1.452-1.19 2.188.85-.314 2.37.02 3.02.649M2416.59 781.27c.62.57 1.03 1.309 1.94 1.44.94.136 2.06-.453 1.35-1.537-.6-.941-3.13-1.493-3.29.1M2418.1 851.76c1.17-1.917-2.11-.1 0 0M2418.9 846.07h.64c-.93.61.65 1.153 1.07 1.303 1.05.372 1.48-1.293.8-1.873-.37.208-.61.519-.71.93-1.22-.434-1.68-1.862-2.74-2.52.42.663.84 1.363.94 2.16M2418.46 851.97c.19-.337.48-.55.87-.64-.57-.201-.89.04-.87.64M2421.7 835.99c-.47-.934-.19-2.688.22-3.601-.81.134-1.44 1.29-.22 1.37-.3.763-.98 1.628 0 2.231M2422.35 785.38c.49-.09.97-.211 1.44-.37-.54-.316-1.1-.12-1.44.37M2436.46 792.94c-1.05-.148-1.47-1.913-2.1-2.591-.98-1.057-2.77-2.703-4.12-3.244-1.41-.57-2.18-2.086-3.61-2.66-.52-.209-.88.36-1.1-.402-.22-.757-1.76-1.263-2.32-1.832.27.564 0 .908-.57.93.7.616 1.72.546 2.42 1.178.86.777 1.71 1.559 2.62 2.282.99.791 1.92 1.815 3.05 2.409.85.443 1.84.563 2.6 1.18 1.47 1.201 1.98 3.246 2.79 4.877.57 1.129 0 2.307.13 3.483.1 1.144.9 1.963 1.37 2.95.89-.73 2.5-4.147 2.04-5.244-.37-.894-1.2-1.465-1.59-2.302-.49-1.041-.61-.654-1.61-1.014M2432.21 852.26c.24-.19.48-.38.73-.57-.73 0-1.45-.05-2.16-.149.47.241.95.481 1.43.719M2434.23 839.45c2.34-.09-.22-3.523-1.73-1.8.79.413.89 1.437 1.73 1.8M2435.17 857.23c-.11-.517-.1-.767-.72-.649l.72.649M2437.47 860.33c.51-.136.97-.376 1.37-.721-.68-.625-2.7-2.011-3.67-1.439.49.402.47 1.101.93 1.51.59.527.99-.493 1.37.65M2436.53 787.53c.34-.577.1-1.154-.43-1.51-.22.602-.1 1.106.43 1.51M2441.86 858.53c.43-.311.91-.454 1.44-.43-.65-.953-1.41-.05-2.23 0 .26.143.52.286.79.43M2450.58 806.76c1.04-.895 1.1-2.796 0-3.67-.62 1.104-.39 2.534 0 3.67M2452.95 813.38c.55.507 1.34.721 1.45 1.535.15 1.014 0 2.048.76 2.848 1.14 1.167 5.18 1.502 4.75-.737-.18-.941-.44-1.596-1.04-2.39-.36-.473-.75-1.353-1.33-1.589-.53-.218-1.04-.229-1.31-.813-1.1-2.435-2.55-4.726-5.22-5.614.72.794.24 2.022.17 2.938-.1 1.517 1.08 2.604 1.77 3.822M2458.21 821.23c.24-.07.48-.146.72-.22-.15-.948-1.23-1.064-1.44-.07.24.1.48.193.72.29M2460.73 820.01c.15-.48.15-.96 0-1.44v1.44M2390.45 778.9c-.97-1.124.68-2.128 1.61-2.374 1.5-.397 3.2.43 4.66.715-1.28.282-1.37 1.289-2.95 1.289-.64 0-1.24-.582-1.87-.5-.55.07-.97.649-1.45.87"/></g></svg>