<?xml version="1.0" encoding="UTF-8" standalone="no"?>
<!-- Created with Inkscape (http://www.inkscape.org/) -->

<svg
   xmlns:dc="http://purl.org/dc/elements/1.1/"
   xmlns:cc="http://creativecommons.org/ns#"
   xmlns:rdf="http://www.w3.org/1999/02/22-rdf-syntax-ns#"
   xmlns:svg="http://www.w3.org/2000/svg"
   xmlns="http://www.w3.org/2000/svg"
   xmlns:sodipodi="http://sodipodi.sourceforge.net/DTD/sodipodi-0.dtd"
   xmlns:inkscape="http://www.inkscape.org/namespaces/inkscape"
   width="203.14664mm"
   height="207.89146mm"
   viewBox="0 0 203.14664 207.89146"
   version="1.1"
   id="svg46722"
   inkscape:version="0.92.0 r15299"
   sodipodi:docname="algeria.svg">
  <defs
     id="defs46716" />
  <sodipodi:namedview
     id="base"
     pagecolor="#ffffff"
     bordercolor="#666666"
     borderopacity="1.0"
     inkscape:pageopacity="0.0"
     inkscape:pageshadow="2"
     inkscape:zoom="0.35"
     inkscape:cx="383.89916"
     inkscape:cy="392.86576"
     inkscape:document-units="mm"
     inkscape:current-layer="layer1"
     showgrid="false"
     fit-margin-top="0"
     fit-margin-left="0"
     fit-margin-right="0"
     fit-margin-bottom="0"
     inkscape:window-width="1920"
     inkscape:window-height="1017"
     inkscape:window-x="1912"
     inkscape:window-y="-8"
     inkscape:window-maximized="1" />
  <metadata
     id="metadata46719">
    <rdf:RDF>
      <cc:Work
         rdf:about="">
        <dc:format>image/svg+xml</dc:format>
        <dc:type
           rdf:resource="http://purl.org/dc/dcmitype/StillImage" />
        <dc:title></dc:title>
      </cc:Work>
    </rdf:RDF>
  </metadata>
  <g
     inkscape:label="Layer 1"
     inkscape:groupmode="layer"
     id="layer1"
     transform="translate(118.58225,-44.887606)">
    <path
       inkscape:connector-curvature="0"
       id="dz"
       class="landxx dz"
       d="m -118.51008,157.4951 0.67794,-14.4521 c -0.62478,-3.88684 5.33047,-5.16829 7.47063,-7.12235 1.06344,-0.96907 2.80481,-2.94839 4.43985,-2.84735 1.43563,0.0931 1.75466,-2.05641 3.62898,-2.41932 3.057359,-0.59153 4.612643,2.36482 6.447065,-1.6749 0.571588,-1.25088 2.472484,-0.72712 3.5625,-0.87068 1.967369,-0.26054 3.948003,-0.52775 5.795716,-1.21367 3.722028,-1.37713 3.881556,-5.37832 7.058551,-7.05587 1.302727,-0.69256 3.017515,-0.76833 4.399981,-1.2788 1.701475,-0.63008 2.818096,-2.53628 4.572754,-2.88854 0.638062,-0.13294 4.094242,-0.41077 2.685169,-2.2319 -0.917196,-1.17642 -2.366139,-1.60445 -0.491823,-3.3179 -2.685172,-0.73645 -0.265872,-3.54656 1.701498,-3.38172 2.605408,0.21799 5.011442,-0.70985 5.928641,-3.14645 1.767972,-4.667145 13.811358,-0.53306 17.254249,-1.41569 -3.948004,-1.77861 2.871277,-3.950661 0.731115,-5.600312 -1.010277,-0.780309 -2.140188,-1.467562 -2.964333,-2.464525 -0.943801,-1.152499 -0.451954,-2.804806 -1.382467,-4.21653 -0.983673,-1.475496 -0.438663,-2.690476 -0.159528,-4.159353 0.265872,-1.377138 -0.797565,-1.393103 -0.651351,-2.729031 0.146238,-1.248207 0.132924,-2.752985 0.132924,-3.99586 0,-1.668272 -1.076727,-3.006854 0.571611,-4.301598 -1.714788,-0.701858 -1.023567,-1.66029 -1.276122,-2.945712 -0.332322,-1.712135 -3.296653,-2.267779 -3.948004,-4.029082 3.190309,0 4.546195,-0.780308 7.244657,-2.162775 1.183068,-0.60216 1.927473,-0.603499 2.631985,-1.845059 0.638063,-1.099314 1.103331,-2.021843 2.273112,-2.646615 0.664641,-0.353595 1.940763,-1.379814 2.631987,-0.829476 0.903933,0.71381 2.047108,-0.526412 2.645299,-1.07675 1.568577,-1.426329 3.708739,2.164114 5.303893,-1.116596 2.140162,-4.395968 9.504453,-6.298202 13.824647,-6.795357 3.07068,-0.353594 6.1812202,-1.199013 9.2784802,-0.990318 2.31295,0.155536 3.89482,-2.7902 5.90206004,-1.656297 0.87733,0.493162 0.67793,0.216679 1.01025,-0.332321 0,-0.119634 3.53593996,-0.06647 4.05434996,-0.273831 2.99091,-1.187062 6.0084298,-0.739099 9.1588398,-0.826822 2.63201,-0.06647 3.24347,0.47055 5.25071,1.976643 2.55225,1.923508 3.42958,-0.921191 5.6495,-1.192368 0.70454,-0.07976 5.11779,-0.277822 4.87852,-1.584518 -0.43866,-2.35285 2.77823,-0.903909 3.53592,-0.390811 1.59515,1.070081 4.00116,1.611098 5.63619,0.303088 0.90393,-0.719164 0.31903,-1.654984 2.02053,-1.22827 1.22296,0.303063 2.16676,1.19636 3.49605,1.125894 -1.1166,1.84905 1.64831,1.20169 2.52567,0.97306 1.75465,-0.455946 3.64226,-0.0266 5.33047,-0.591547 0.13292,2.38476 -2.89789,3.553202 -4.21388,5.072584 3.5891,0.773663 0.14624,5.818329 0.86404,8.129971 1.26283,4.015793 0.74441,7.050566 -0.13292,11.01186 -0.70454,3.259437 -4.3202,5.798395 -6.75281,7.937218 -1.40905,1.246891 -0.71783,4.50365 0.13292,5.884778 1.32928,2.234554 0.71783,4.669821 3.46947,5.714637 3.7619,1.425014 2.65857,6.182561 5.68938,8.447664 1.39575,1.051484 3.05736,1.811837 4.24042,3.131817 1.60845,1.78526 1.84774,4.71103 2.21993,6.97613 0.77099,4.67912 2.99091,9.87799 2.99091,14.59566 0,1.27347 -2.68517,0.78562 -0.95709,3.08796 1.67492,2.23188 3.05739,4.8559 3.61569,7.60222 1.90089,9.45127 -0.90391,9.3928 0.53171,14.23939 0.67793,2.31164 0.70454,4.00119 -0.1861,6.25169 -1.01026,2.54027 -0.13293,4.91573 0.46526,7.45067 0.82415,3.83237 -0.87735,3.89351 -3.60239,5.95125 -3.09726,2.34755 2.0604,6.90703 3.403,8.97807 2.52564,3.87089 1.01025,8.46626 4.36009,12.08063 1.27609,1.38777 2.75162,-0.27651 4.13408,-0.17282 1.72808,0.13292 3.61569,1.44096 5.25071,2.03248 3.70874,1.35058 4.95828,4.47176 6.34075,8.00501 0.65135,1.67358 1.3027,1.87565 -0.50514,2.90452 -18.87598,12.03275 -37.91147,24.07351 -53.98262,39.72594 -0.93052,1.34525 -3.92143,4.71103 -6.23438,5.99511 -1.76798,0.97437 -4.36009,1.06344 -6.30086,1.46622 -2.6453,0.54635 -5.2906,1.06475 -7.9358998,1.62439 -1.31599,0.28048 -12.92072,4.26704 -12.42889,0.16084 0.17281,-1.4476 1.20965,-2.00855 1.07672,-3.61169 0,-0.61545 0.13293,-3.84831 -0.51843,-4.16865 -1.95405,-0.97571 -4.38666,-1.42236 -6.54012,-1.83576 -1.0634302,-0.2047 -2.4857702,-2.90319 -3.2966502,-2.70379 -4.63923,1.14055 -5.37034,-3.49206 -6.207801,-4.18462 -0.996963,-0.81884 -2.698462,-0.89327 -3.602368,-1.58053 -1.010277,-0.77232 -0.132948,-2.69181 -0.744408,-3.72867 -0.771009,-1.30404 -2.100292,-2.43792 -3.363127,-3.17833 -2.140161,-1.26814 -4.147402,-2.77423 -6.101455,-4.29895 -4.878518,-3.78716 -9.677247,-7.68729 -14.529184,-11.50371 -18.729748,-14.72325 -37.432914,-29.392 -57.026703,-42.95745 -4.67912,-3.24349 -9.37153,-6.44042 -14.09052,-9.61345"
       style="fill:#cbe6a3;fill-opacity:1;fill-rule:evenodd;stroke:#000000;stroke-width:0.14449541;stroke-miterlimit:4;stroke-dasharray:none;stroke-opacity:1">
      <title
         id="title272">Algeria</title>
    </path>
  </g>
</svg>
