<?xml version="1.0" encoding="UTF-8" standalone="no"?>
<!-- Created with Inkscape (http://www.inkscape.org/) -->

<svg
   xmlns:dc="http://purl.org/dc/elements/1.1/"
   xmlns:cc="http://creativecommons.org/ns#"
   xmlns:rdf="http://www.w3.org/1999/02/22-rdf-syntax-ns#"
   xmlns:svg="http://www.w3.org/2000/svg"
   xmlns="http://www.w3.org/2000/svg"
   xmlns:sodipodi="http://sodipodi.sourceforge.net/DTD/sodipodi-0.dtd"
   xmlns:inkscape="http://www.inkscape.org/namespaces/inkscape"
   width="59.435539mm"
   height="48.217567mm"
   viewBox="0 0 59.435539 48.217567"
   version="1.1"
   id="svg7288"
   inkscape:version="0.92.0 r15299"
   sodipodi:docname="belgium.svg">
  <defs
     id="defs7282" />
  <sodipodi:namedview
     id="base"
     pagecolor="#ffffff"
     bordercolor="#666666"
     borderopacity="1.0"
     inkscape:pageopacity="0.0"
     inkscape:pageshadow="2"
     inkscape:zoom="0.35"
     inkscape:cx="-43.395153"
     inkscape:cy="51.118828"
     inkscape:document-units="mm"
     inkscape:current-layer="layer1"
     showgrid="false"
     fit-margin-top="0"
     fit-margin-left="0"
     fit-margin-right="0"
     fit-margin-bottom="0"
     inkscape:window-width="1920"
     inkscape:window-height="1017"
     inkscape:window-x="1912"
     inkscape:window-y="-8"
     inkscape:window-maximized="1" />
  <metadata
     id="metadata7285">
    <rdf:RDF>
      <cc:Work
         rdf:about="">
        <dc:format>image/svg+xml</dc:format>
        <dc:type
           rdf:resource="http://purl.org/dc/dcmitype/StillImage" />
        <dc:title></dc:title>
      </cc:Work>
    </rdf:RDF>
  </metadata>
  <g
     inkscape:label="Layer 1"
     inkscape:groupmode="layer"
     id="layer1"
     transform="translate(5.5272944,-114.14096)">
    <path
       style="fill:#cbe6a3;fill-opacity:1;stroke:#000000;stroke-width:0.52916664;stroke-miterlimit:4;stroke-dasharray:none;stroke-opacity:1"
       inkscape:connector-curvature="0"
       d="m 29.881321,115.92233 0.07064,0.50803 0.420687,0.21291 1.469231,-0.10922 0.74295,-0.92313 0.590021,-0.57902 0.436827,0.39328 0.21299,1.13617 0.404019,1.47479 1.753658,1.6496 1.480079,0.46977 1.824567,-0.32232 0.720989,-0.29506 0.491596,0.24585 0.48604,0.87394 1.043252,0.99412 2.20689,0.71009 0.671777,0.39873 0.469635,0.67186 -0.136525,0.95043 -1.048544,2.37607 -0.136789,0.69921 0.142081,0.235 -0.207433,0.43696 -1.365515,1.58954 -0.119856,0.55716 0.453231,0.91215 0.387879,0.60632 2.092061,-0.68278 0.944827,1.37101 1.551252,0.0492 0.186002,0.44244 1.742281,1.2782 0.535252,1.0105 1.25095,0.97774 -1.03796,1.23447 0.15875,0.55165 0.371475,0.56264 1.409435,0.3279 0.704586,0.80838 0.04366,1.23994 0.322262,2.0101 -2.905918,1.99919 -0.824707,2.22858 -0.07673,0.43699 -0.09842,-0.0657 -0.316706,-0.73737 -0.529696,0.0111 -1.201737,-0.31149 -1.67693,2.01009 -0.759354,1.67145 -0.447675,1.22354 -0.677333,0.98867 -0.136525,1.04331 0.08731,0.44241 -0.229393,0.56263 -0.01058,0.59539 0.961232,1.16343 0.246062,0.63362 1.174221,2.07018 -0.365919,0.74832 -0.289454,0.81392 -0.338667,0.57896 -0.398727,0.36597 -1.212585,-0.0225 -1.540404,0.25664 -1.037961,0.40966 h -0.535252 l -1.11416,-1.0269 -1.245394,-1.54038 -0.786606,-0.73739 -0.360363,-0.63363 -0.9779,-0.26781 -1.392766,-0.75922 -0.966788,-0.83032 -0.830262,-0.5189 -1.16893,-0.25664 -0.966787,0.0259 -0.278606,-1.39833 -0.120121,-1.59498 -0.786606,-1.07606 1.081616,-4.19497 -0.644525,-0.40966 -0.699029,0.33311 -1.016,1.00505 -0.486304,1.19078 -0.289454,1.05963 -1.704181,0.99962 -2.703778,0.36592 -2.95513,-0.36592 -0.404284,-0.26783 -0.191293,-0.30589 v -0.36594 l 0.202141,-0.56809 0.513557,-0.69366 0.130704,-0.98324 -0.529696,-0.85209 -0.344223,-0.33311 0.136525,-0.82482 0.387879,-1.03235 0.08202,-0.59536 -2.004748,-1.78618 -1.447535,-0.34951 -1.403615,-0.0658 -1.065212,-0.20212 -0.62283,0.0874 -0.442383,0.5189 -0.453231,0.3769 -0.338672,-0.44793 -0.622829,-3.17897 -0.480748,-0.48069 -1.8134535,-0.53531 -2.468801,-0.19129 -0.655478,-0.57902 -0.360336,-1.43655 -0.229421,-1.72606 -0.808434,-1.66053 -0.4151313,-0.42058 -0.7373938,-0.73197 -1.2890764,0.3003 -1.54580172,0.96679 -0.9122304,0.26223 -0.3495146,0.10371 -1.22898958,-0.9395 -1.3874221,-1.46937 -1.1087894,-1.56218 -0.2678377,-0.86849 0.3386931,-1.05423 -0.4041775,-0.80839 -0.5953919,-1.48031 -0.1694391,-1.15798 6.6694051,-4.1076 4.0638943,-2.10841 1.917224,-0.63908 0.458814,2.11934 0.349514,0.67188 0.453496,0.43694 0.600604,0.0874 0.693738,-0.52435 0.9723425,-0.55171 1.556809,0.25664 1.130564,0.50803 0.398727,0.5298 0.753798,0.50252 1.092465,0.12002 2.114021,-0.96131 2.032,-1.46391 0.595312,-1.0214 0.223838,-0.92316 1.201737,0.61177 1.059656,0.13086 0.469635,-0.27305 -0.300302,-1.48029 0.863071,-0.79203 0.95594,-0.36031 0.431535,0.63905 0.87921,0.65548 0.693738,0.004 1.862667,-1.70421 0.437091,0.33872 0.404019,0.60632 z"
       class="land"
       title="Belgium"
       id="BE" />
  </g>
</svg>
