<?xml version="1.0" encoding="UTF-8" standalone="no"?>
<!-- Created with Inkscape (http://www.inkscape.org/) -->

<svg
   xmlns:dc="http://purl.org/dc/elements/1.1/"
   xmlns:cc="http://creativecommons.org/ns#"
   xmlns:rdf="http://www.w3.org/1999/02/22-rdf-syntax-ns#"
   xmlns:svg="http://www.w3.org/2000/svg"
   xmlns="http://www.w3.org/2000/svg"
   xmlns:sodipodi="http://sodipodi.sourceforge.net/DTD/sodipodi-0.dtd"
   xmlns:inkscape="http://www.inkscape.org/namespaces/inkscape"
   width="31.234472mm"
   height="71.18084mm"
   viewBox="0 0 31.234472 71.18084"
   version="1.1"
   id="svg12399"
   inkscape:version="0.92.0 r15299"
   sodipodi:docname="benin.svg">
  <defs
     id="defs12393" />
  <sodipodi:namedview
     id="base"
     pagecolor="#ffffff"
     bordercolor="#666666"
     borderopacity="1.0"
     inkscape:pageopacity="0.0"
     inkscape:pageshadow="2"
     inkscape:zoom="0.35"
     inkscape:cx="59.025775"
     inkscape:cy="134.51498"
     inkscape:document-units="mm"
     inkscape:current-layer="layer1"
     showgrid="false"
     fit-margin-top="0"
     fit-margin-left="0"
     fit-margin-right="0"
     fit-margin-bottom="0"
     inkscape:window-width="1920"
     inkscape:window-height="1017"
     inkscape:window-x="1912"
     inkscape:window-y="-8"
     inkscape:window-maximized="1" />
  <metadata
     id="metadata12396">
    <rdf:RDF>
      <cc:Work
         rdf:about="">
        <dc:format>image/svg+xml</dc:format>
        <dc:type
           rdf:resource="http://purl.org/dc/dcmitype/StillImage" />
        <dc:title></dc:title>
      </cc:Work>
    </rdf:RDF>
  </metadata>
  <g
     inkscape:label="Layer 1"
     inkscape:groupmode="layer"
     id="layer1"
     transform="translate(32.626165,-113.24291)">
    <path
       inkscape:connector-curvature="0"
       id="bj"
       class="landxx bj"
       d="m -32.460553,132.64203 c 0.451954,-1.04484 0.558298,-2.61473 1.289413,-3.41498 0.691222,-0.74971 0.903909,-0.62474 1.541971,-1.28009 1.316018,-1.35722 3.402996,-5.18426 5.157679,-3.38041 0.531718,0.5583 5.955219,-0.78561 7.005365,-2.62802 0.677932,-1.18173 1.581865,-2.77024 1.555285,-4.17928 0,-0.85209 -1.09004,-2.82873 0.279137,-3.11853 0.877329,-0.18212 2.087003,0.0532 2.472483,-0.5038 1.369178,-2.03117 3.12386,0.20071 4.1474021,1.35854 0.731116,0.82548 1.183071,1.51673 1.887606,2.35949 0.850749,0.99166 2.020529,1.97932 2.857988,3.15706 0.465244,0.65535 -0.571611,2.28906 -0.717825,2.93909 -0.345612,1.49412 1.063437,2.7277 1.807843,3.85228 0.850749,1.30803 0.159501,2.67456 0.717801,3.88555 0.664665,1.45157 1.51541402,2.54691 0.584901,4.10884 -0.491847,0.82814 -1.568574,0.0532 -1.900896,1.00227 -0.505137,1.44364 1.51539,2.46852 -0.252556,4.45314 -0.797589,0.8933 -1.887606,1.13656 -2.472484,2.17473 -0.545008,0.96773 -0.731115,1.93412 -1.528705,2.91913 -1.528681,1.89026 0.81088,4.48637 -2.4459041,5.28926 -1.090016,0.26853 -1.741368,-0.22332 -1.940765,1.03818 -0.186083,1.17377 -0.824145,2.29969 -0.757695,3.48407 0.159527,2.90319 0.132923,5.80635 -0.132924,8.68561 -0.132923,1.27214 1.19636,3.8071 0.983673,5.60961 -0.186108,1.5872 -0.212687,2.97763 -0.451955,4.36674 -0.3589,2.05908 0.412085,2.89389 0.265847,3.98522 -0.172793,1.22296 -0.943778,3.04409 -0.797565,3.8882 -1.329283,0.0266 -3.615683,0.31504 -4.918387,0.57424 -2.033819,0.40413 -4.067638,0.77366 -6.114747,1.0528 0.478534,-0.43866 1.050146,-0.66199 1.714788,-0.66995 -0.132923,-1.03286 -0.810879,-2.13617 -1.315993,-3.01084 -0.7843,-1.36122 -0.983697,-3.62633 -1.209674,-5.15104 0.199397,-0.0134 1.289413,-0.33232 1.1432,-3.11984 -0.252557,-5.07392 0,-10.23423 0,-15.34936 0,-2.89256 -0.132923,-5.09252 -1.741368,-7.55305 -1.528705,-2.33158 -1.050146,-5.04601 -1.12991,-7.63944 0,-2.03251 -3.110546,-3.00819 -4.612647,-4.41327 -1.409047,-1.31334 -1.050146,-3.11985 -0.943802,-4.77215"
       style="fill:#cbe6a3;fill-opacity:1;fill-rule:evenodd;stroke:#000000;stroke-width:0.14449541;stroke-miterlimit:4;stroke-dasharray:none;stroke-opacity:1">
      <title
         id="title2070">Benin</title>
    </path>
  </g>
</svg>
