<?xml version="1.0" encoding="UTF-8" standalone="no"?>
<!-- Created with Inkscape (http://www.inkscape.org/) -->

<svg
   xmlns:dc="http://purl.org/dc/elements/1.1/"
   xmlns:cc="http://creativecommons.org/ns#"
   xmlns:rdf="http://www.w3.org/1999/02/22-rdf-syntax-ns#"
   xmlns:svg="http://www.w3.org/2000/svg"
   xmlns="http://www.w3.org/2000/svg"
   xmlns:sodipodi="http://sodipodi.sourceforge.net/DTD/sodipodi-0.dtd"
   xmlns:inkscape="http://www.inkscape.org/namespaces/inkscape"
   width="152.22102mm"
   height="294.2706mm"
   viewBox="0 0 152.22103 294.27061"
   version="1.1"
   id="svg5016"
   sodipodi:docname="britain.svg"
   inkscape:version="0.92.0 r15299">
  <defs
     id="defs5010" />
  <sodipodi:namedview
     id="base"
     pagecolor="#ffffff"
     bordercolor="#666666"
     borderopacity="1.0"
     inkscape:pageopacity="0.0"
     inkscape:pageshadow="2"
     inkscape:zoom="0.35"
     inkscape:cx="49.696596"
     inkscape:cy="646.27565"
     inkscape:document-units="mm"
     inkscape:current-layer="layer1"
     showgrid="false"
     inkscape:window-width="1920"
     inkscape:window-height="1057"
     inkscape:window-x="-8"
     inkscape:window-y="-5"
     inkscape:window-maximized="1"
     fit-margin-top="0"
     fit-margin-left="0"
     fit-margin-right="0"
     fit-margin-bottom="0" />
  <metadata
     id="metadata5013">
    <rdf:RDF>
      <cc:Work
         rdf:about="">
        <dc:format>image/svg+xml</dc:format>
        <dc:type
           rdf:resource="http://purl.org/dc/dcmitype/StillImage" />
        <dc:title></dc:title>
      </cc:Work>
    </rdf:RDF>
  </metadata>
  <g
     inkscape:label="Layer 1"
     inkscape:groupmode="layer"
     id="layer1"
     transform="translate(-75.126683,-12.246749)">
    <path
       style="fill:#cbe6a3;fill-opacity:1;stroke:#000000;stroke-width:0.52916664;stroke-miterlimit:4;stroke-dasharray:none;stroke-opacity:1"
       inkscape:connector-curvature="0"
       d="m 183.96366,290.19023 -1.28362,0.83023 -0.40421,0.97774 -0.31149,0.38235 -0.84661,0.25141 -0.84122,0.005 -3.20088,-1.95546 -0.73739,0.0874 0.73194,-0.89578 1.98824,-0.73194 1.1198,-0.96684 2.5836,0.93406 z m -48.00219,-65.38298 0.64455,0.47519 1.61687,-0.0765 -0.53535,1.05968 -1.78068,1.17986 -1.1962,1.1634 -1.44749,0.97229 -0.69918,-1.11975 -0.81386,0.0437 -1.24542,-2.1521 -0.22384,-3.2227 1.62777,-0.84122 2.25041,0.0492 z m -33.39065,-50.31814 2.16307,0.67186 1.61134,-0.0111 1.43113,1.95003 0.76473,3.06975 1.78615,3.0261 2.33783,2.62183 0.0929,1.60049 -0.83574,0.85754 -1.74244,1.06514 0.004,1.14162 1.15255,-0.57354 0.99412,-0.26222 2.39247,0.2514 0.83573,1.15798 0.57897,1.73156 0.30588,1.42018 -0.20741,1.54035 -0.64455,-0.49162 -0.65542,-1.37647 -0.7265,-0.63362 -0.84664,-0.3443 0.38235,1.89539 -0.1529,2.52899 0.36592,0.23501 1.13615,0.0437 -0.74835,2.57816 -1.5567,0.69921 -1.80801,0.26223 -0.43698,0.9122 -0.32787,1.17438 -0.94499,1.74789 -1.24539,0.98867 -1.54033,-0.20209 -1.5076,-0.7811 -1.3164,-0.15841 -0.91763,0.46432 -0.59542,0.43148 -0.57893,-0.0765 -1.6551,0.1637 -1.55676,-0.0335 -0.22381,-0.68281 0.26784,-2.05374 -0.34954,-0.55716 -1.48572,-0.28425 -0.55168,-0.49157 -0.85757,-1.4202 -0.16946,-0.66641 -0.12002,-0.91762 -0.90673,-1.18534 -1.09791,-0.85211 -0.64453,-0.0436 -1.283623,1.38739 -1.059709,1.4038 0.371554,0.70461 0.344303,0.92314 -0.573538,0.6664 -1.74244,1.51847 -0.273076,0.58997 -0.469741,0.32229 -0.830236,-0.42061 -2.07018,0.0984 -0.950436,-0.26784 -1.108816,-1.11977 -2.703803,-0.74835 -0.45339,-1.79705 -0.518928,-0.33869 -3.064324,-3.08618 -0.409655,-1.03233 0.39878,-0.61727 1.141598,-0.93403 3.839951,-1.55128 0.606292,-0.6227 0.125757,-0.55165 -1.130671,-0.62818 -1.015973,-0.69916 -0.344302,-0.45339 -0.02593,-0.39873 0.578988,-0.51892 1.158002,-0.0384 0.917681,0.235 0.726466,-0.46427 1.278176,-0.46976 0.857541,-0.58994 0.737394,-1.52395 0.781129,-1.37102 0.08207,-0.74284 0.682757,-2.61647 0.376926,-0.64997 2.425223,-1.71517 0.611743,0.93951 1.196235,0.22942 1.070645,-0.86304 1.28362,-2.72566 0.89032,-0.16936 0.9832,0.22381 1.93365,-0.3443 3.43027,-1.27272 z m 19.46198,-5.57149 -1.93363,0.0225 -0.69921,-0.235 -0.83566,-0.65548 -0.93951,-3.7143 0.33869,-1.31641 0.38235,-0.64455 0.42609,-0.50253 1.02139,-0.20738 1.01603,0.70464 0.38235,0.65545 0.85209,2.51262 0.15865,2.15215 z m -15.68757,-13.07661 0.55168,3.50129 0.54079,2.16307 0.0384,0.73739 -0.50798,1.0269 -2.52899,1.36555 -0.79751,0.004 -0.0336,-0.33311 0.56809,-1.3874 -0.49159,-1.57858 0.24021,-1.20168 -0.235,-0.2186 -0.4916,0.16936 -1.81348,1.90632 -0.60632,0.18574 -0.0657,-0.38783 0.44792,-1.56221 0.0549,-1.07058 0.26747,-0.65548 0.4916,-0.60626 0.58444,-0.45339 0.47524,-0.0657 0.50252,0.46974 1.46389,-1.31095 z m 2.43618,3.1681 -0.32229,0.28948 -0.77563,-0.082 -0.28948,-0.44246 -0.15843,-0.67731 -0.0153,-1.23992 0.46976,-0.89035 1.98821,-1.34371 -0.90125,-0.47519 -0.0335,-0.33872 0.51342,-1.11974 2.13574,-1.74244 0.57357,-0.31671 0.56803,0.0492 -1.10337,3.0916 z m 2.94415,-14.5241 -6.10677,1.53488 -2.10299,-0.13653 -0.19129,-0.75382 0.42061,-0.5025 1.74244,-0.48617 0.70464,-3.69789 -2.63282,-1.70972 -0.13658,-0.47519 0.20741,-0.81386 0.30586,-0.36594 1.59499,-0.86305 0.67188,-0.19134 0.5462,0.11488 1.1252,0.9996 1.26725,2.092 1.69875,0.33311 1.15253,0.88485 z m -12.72159,-6.66392 -0.86847,0.15293 -0.0658,-0.39328 1.51305,-1.87899 0.97772,-0.3115 0.34432,0.18577 -0.71008,1.09249 z m -12.404724,-10.62406 -1.349189,0.38235 -0.497047,-0.22381 -0.08737,-0.35512 0.305858,-0.96682 1.032351,-0.3443 0.748322,0.52441 0.120041,0.47519 z m 17.446414,0.0222 -0.45339,0.36036 -0.57354,-0.0709 -0.56806,-0.46429 -0.7538,-1.32186 1.69331,-0.91765 0.67731,0.54073 0.25662,0.61724 0.0111,0.68281 z m -14.884612,-4.23868 -0.650028,0.15851 -0.846614,-0.15293 -0.524404,-0.43696 -0.529828,-1.73151 -0.0984,-1.04878 0.235003,-1.95546 -0.0545,-2.34333 1.747943,-0.0709 0.453364,0.3387 0.300302,6.9425 z m 16.943862,-11.03371 -0.0222,1.25633 -0.27305,1.48023 0.34954,1.56769 0.0821,1.11974 0.6445,0.35512 0.3933,0.51343 2.87317,0.57356 2.67102,-0.16375 0.51347,0.45881 0.06,0.73192 -0.42058,0.80298 -1.52397,1.46386 -1.81348,2.36514 -0.54073,0.49162 -0.58444,0.0222 -0.42064,-0.21302 -0.3003,-4.20589 -1.96641,0.54073 -1.58406,-0.0601 -0.86847,-0.51346 -0.60632,-0.98866 -1.22898,-2.5454 -3.57236,-1.00507 -1.01049,-1.40925 -0.30586,-0.85212 0.12576,-0.46974 0.74284,-1.04873 0.92861,0.37153 0.57354,-0.2294 0.34954,-0.46976 -0.005,-0.38783 -0.48615,-0.91221 -0.0222,-0.28387 3.65424,-1.15797 0.32229,-1.81348 0.792,-0.14735 0.90675,0.59539 1.23995,1.8845 z m -16.266555,-5.07992 1.731513,1.60592 -1.376469,2.66557 -2.113888,-0.0111 -2.976907,-1.94456 -0.01111,-0.39875 0.245851,-0.58447 0.447913,-0.46426 0.464264,-0.1093 0.73742,0.31668 1.026901,-0.51342 0.819335,0.16375 z m 15.436265,-19.65859 -1.94998,5.07444 -0.76475,0.12571 -0.67183,1.26724 -2.07565,1.39288 1.81345,0.0262 0.508,0.46427 0.0111,0.99959 -0.3443,0.57902 -2.34331,2.30505 -1.61136,0.87394 -1.73702,2.40342 -0.8794,0.0262 -0.86849,1.52397 -0.71012,0.67186 h -0.40417 l -0.45887,-0.33872 -1.076008,-1.49117 1.955458,-1.46934 0.18026,-0.82481 1.33824,-0.86302 -0.11497,-0.26746 -2.12476,-1.21264 -0.83574,-0.81386 0.0765,-0.42608 1.02145,-0.93951 -0.48067,-0.1201 -0.32787,-0.508 -0.589972,-0.19658 -0.180261,-0.46977 -0.10922,-1.24537 0.158644,-1.2727 0.617249,-0.56261 0.25143,-0.60087 0.25141,-0.18576 0.95591,0.32229 0.97227,1.02145 1.13617,-0.39328 1.31638,0.19101 0.0259,-0.23503 -0.96684,-2.50714 0.17497,-0.51348 0.5244,-0.58444 3.037,-1.7971 3.78531,-3.02607 0.91765,-0.47524 0.27866,0.41516 0.38238,1.56768 z m 47.35219,-4.45172 0.13084,2.39247 -0.18026,0.72646 -0.36595,0.89583 -1.15797,1.66597 -3.04793,2.37607 -5.57696,5.44041 -3.2992,2.68743 -0.45339,1.28905 -0.24582,1.79163 1.97186,0.35512 0.76475,0.60629 -0.46977,0.90676 -2.92232,3.15171 -0.85754,2.84036 2.23951,-0.10369 1.84624,-0.54623 3.67606,-1.76978 3.45761,-1.3164 1.66055,-0.0545 3.22815,1.04876 0.73195,0.0336 1.37101,-0.48612 1.38743,-0.0873 9.38413,0.3279 2.61091,-0.61725 1.72606,0.7374 1.44206,1.83531 1.37102,3.38111 -0.0437,0.56263 -0.83029,1.5349 -1.5294,1.9227 -1.31641,2.64375 -0.38235,1.42015 -0.25664,1.55673 -0.41516,1.43658 -2.61639,6.71856 -2.55084,3.7034 -1.13618,2.62186 -1.40377,2.08111 -1.35464,1.31093 -1.44206,0.87397 -4.17317,0.92861 -1.16893,0.66638 -1.39287,1.1416 -1.46386,0.56809 1.71516,-0.0709 1.69876,-0.63362 3.09708,-0.22939 3.56137,2.18487 -0.33308,1.78618 -1.43113,1.40925 -3.25552,0.22381 -3.04247,3.12983 -1.37102,0.96137 -1.45293,0.47524 -1.81345,-0.14213 -3.29372,-0.83569 -1.44203,-0.87394 1.29997,1.42563 1.48027,0.74287 8.57025,1.75336 0.51893,-0.18576 2.73111,-1.84624 3.64331,-0.0262 6.93161,3.39751 1.99368,2.59459 2.86221,3.69792 1.55676,1.44206 1.12522,1.30543 0.69368,1.95003 1.34372,6.42358 1.5349,6.23789 2.00464,6.71854 0.9122,1.85719 1.19621,1.30001 6.05216,2.98238 1.34919,0.98867 2.34876,2.86223 2.26682,3.04242 2.10841,2.33241 2.2778,1.88447 -1.1034,0.97774 -0.75382,1.5349 0.56809,2.08111 0.92313,1.98278 1.81893,3.16807 1.60589,3.44668 -0.58992,-0.5189 -0.62269,-0.28388 -0.85212,0.0874 -0.83024,-0.1637 -1.53487,-1.08156 -1.47482,-1.32731 -2.93325,0.5353 -1.62771,-0.24024 -1.4147,0.0384 2.68192,0.7647 2.93322,0.0545 6.46729,5.7736 2.1849,3.40839 1.30001,4.48453 -0.88485,2.01012 -1.37652,1.29998 -1.28362,1.48026 -1.20717,1.67693 3.58873,2.4525 0.77563,-0.0708 0.792,-0.34433 0.7647,-0.83571 1.28365,-2.03743 0.66093,-0.72099 2.23407,-0.26222 1.87351,0.1584 1.86264,0.45339 1.64415,-0.14211 3.30464,0.87398 1.69876,0.78655 4.2114,3.53406 0.91218,1.93363 0.42058,2.49079 0.0492,2.75296 -0.71009,2.50714 -0.81388,2.26142 -0.50253,2.91134 -0.35512,1.04876 -0.49705,0.81934 -2.22863,2.28869 -1.48021,0.93951 -0.62273,-0.4097 -0.67185,0.0545 -0.0708,0.55166 0.70464,1.16345 0.005,1.40377 -1.31641,1.03783 -1.33821,0.44246 -2.23954,-0.55168 -3.10803,1.93363 2.23406,0.99412 0.45339,1.0542 -0.55716,1.85169 -1.40377,0.82481 -1.56221,0.36595 -1.59496,0.0874 -1.32186,0.45339 -1.26725,0.87392 1.58949,-0.45881 1.10336,0.4042 0.69374,1.55125 0.62812,0.44797 3.11351,0.6609 1.9227,-0.005 3.71433,-0.37687 1.78612,0.005 0.63363,0.28387 0.0111,1.28368 -0.27305,3.14623 -0.49162,0.65 -4.92149,2.63279 -1.0105,1.83531 -0.27863,1.10881 -2.87861,-0.19658 -1.34919,1.17438 -2.33236,0.7811 -1.80253,0.82481 -1.76429,1.04328 -1.45299,0.31147 -6.2652,-1.23994 -3.78531,0.10371 -5.12903,1.08151 -1.32186,-0.18026 -1.97733,-1.03235 -2.03198,-0.69916 -2.33238,-0.30588 -2.01557,-0.96137 1.25632,1.84076 -2.79119,1.77525 -1.28908,0.34951 -1.33826,-0.0545 -2.73111,0.48067 -2.53995,-0.26223 0.38235,1.25632 0.67734,1.09794 -0.55171,0.47519 -0.57899,0.12002 -4.81769,-0.82479 -0.68276,0.1529 -0.59539,0.76473 -1.75337,-0.40968 -1.70423,-1.28366 -1.80801,-0.86849 -1.90087,-0.40963 -1.50754,0.14208 -6.21059,2.03195 -1.23995,2.03197 -0.62267,2.87859 -0.8958,2.55088 -1.46391,1.96096 -1.74244,0.25664 -1.63867,-1.36009 -3.11346,-1.49667 -1.05968,-1.01597 -0.33872,-0.06 -0.34952,0.36031 -1.22351,0.45884 -1.2618,0.0225 -1.95006,0.4042 -3.39201,1.21809 -1.37104,0.82479 -2.94413,2.27774 -0.60086,0.62818 -1.07061,2.28864 -1.63317,0.40423 -1.49667,-1.46386 -1.70426,-0.51347 -1.79702,0.49704 -1.08702,0.78113 -0.50797,-0.63362 -0.0153,-1.29998 1.31091,-1.55133 3.50128,-1.17435 3.07525,-3.0534 1.5076,-1.86259 0.60087,-1.05426 0.73739,-0.67183 0.96134,-0.2514 0.49707,-1.16348 4.26601,-4.68657 0.34952,-1.07608 0.21291,-1.93361 0.34951,-1.86264 3.47398,-1.20716 1.66052,-3.92737 0.45882,-0.31146 4.84502,-0.72105 3.59413,0.06 3.57232,0.77018 1.82986,0.0708 1.83534,-0.26784 1.44198,-1.06513 2.46348,-3.84542 1.38742,-1.69876 1.58951,-1.53487 1.48574,-1.7534 2.40885,-3.25548 -1.62774,1.12522 -1.96641,1.78067 -1.1416,1.03238 -3.62696,1.0378 -1.56218,1.05971 -2.73659,2.38699 -0.52438,0.19658 -4.12948,-0.57356 -3.06972,-3.09708 -1.96096,-1.26722 -0.80844,-0.1474 -0.84116,0.3769 -1.7916,0.3878 -1.82441,-0.0657 0.93406,-1.43656 1.26725,-0.80298 -2.84038,-0.55711 -0.79206,-0.43698 -0.90125,-1.01055 -2.22858,-0.16944 -1.05969,0.25664 -1.7916,1.33279 -2.82945,1.41473 -3.41389,-1.96096 -0.66638,-0.85754 0.0153,-1.66598 -0.51347,-1.32188 -0.94494,-0.46427 1.20714,-1.72061 1.46386,-1.14708 3.21183,-1.14162 4.86685,-2.71473 2.73111,-1.15798 2.53447,-1.99919 1.04878,-1.22351 0.75922,-1.67693 0.75383,-2.0538 1.07606,-1.6769 -1.04333,-0.39876 -0.46975,-1.26177 0.12579,-1.2836 0.48067,-1.14162 -0.43154,-1.43111 -0.77015,-1.49667 0.0437,-1.16893 0.20741,-1.25087 -1.95548,0.0658 -1.95001,0.39328 -1.76977,0.8849 -1.71516,1.20171 -1.52395,0.22381 0.0222,-0.96131 0.66093,-1.19078 1.72606,-1.70421 1.84621,-1.41473 0.65548,-1.07609 0.51893,-1.25084 0.91762,-1.00502 2.41433,-1.90087 4.6265,-2.14122 0.68826,-0.12576 1.81346,0.25141 1.78617,-0.3279 1.56218,-0.77017 1.55673,-0.16373 3.50679,2.22314 -1.04328,-3.44123 1.54577,-0.82478 2.23954,3.11345 0.83024,0.3279 1.75884,-0.45339 -0.67733,-0.52435 -0.792,-0.0335 -1.03783,-0.46974 -0.87397,-0.99962 -1.45294,-3.179 0.0821,-1.88995 0.97774,-1.96638 1.08156,-1.81348 -0.90675,-0.36034 -0.72647,-0.69371 -0.20741,-1.8189 0.28388,-1.61139 1.94455,-1.42018 0.57354,-2.16307 0.24021,-2.387 -0.32231,-1.09788 -1.9336,0.17451 -0.93949,0.44792 -0.84121,0.70461 -0.86305,-0.0437 -2.38699,-2.64369 -1.36009,-2.00467 -2.4416,-4.24961 -0.3443,-2.55087 1.95003,-5.51688 3.01517,-3.54497 3.55041,-1.23994 -0.68823,-0.235 -5.41306,-0.0493 -1.78615,0.43699 -1.65505,1.45293 -0.93405,0.44791 -0.98325,0.16378 -0.89577,0.72101 -0.87395,0.99957 -0.9122,0.64456 -1.80798,-0.16936 -0.87397,0.21299 -0.62817,-0.57902 -0.52983,-0.95586 -0.68826,-0.25664 -0.77015,0.29506 -1.62777,1.28905 -1.6496,0.75927 -1.99371,-0.81388 -2.61639,-1.5185 -0.51345,0.55713 -0.57901,1.40928 -0.33311,2.19035 -1.85719,-1.90629 -1.57856,-2.55088 -0.53531,-1.60591 -0.0384,-1.81346 0.85754,-0.70461 0.93406,0.6445 1.3874,-4.30966 2.76389,-5.63703 0.97777,-1.65508 0.68275,-2.16852 -0.11451,-1.42018 -0.60632,-1.20168 -2.57273,-2.73114 0.0335,-2.23406 0.27305,-2.52352 0.69916,-1.51852 0.29507,-0.28945 3.41389,0.038 -1.33279,-0.78656 -2.65464,-2.28867 0.0492,-0.81386 0.6227,-2.12484 -0.28948,0.21302 -0.56809,0.98319 -1.08701,2.37609 -0.66093,0.55168 -1.87899,0.56264 -0.34431,1.16342 -0.3003,0.30589 -0.934,0.13128 -0.28946,1.08697 -0.2074,0.0709 -0.26747,-1.16893 -0.0259,-1.94453 0.37155,-1.79165 0.71009,-1.40378 2.75297,-3.19542 -1.33827,0.98867 -3.03699,2.95507 -1.55128,1.93911 -0.41513,0.65545 -0.12576,0.55171 0.004,0.63363 0.69371,3.39203 -0.20211,1.56763 -2.61639,10.29634 -0.49707,1.02693 -0.45339,0.53528 -0.43151,0.1257 -1.28905,-0.19658 -0.57359,-0.77015 0.005,-0.86852 0.24021,-1.30548 1.08696,-4.87778 0.46977,-1.36009 0.69916,-1.26723 1.54038,-2.21768 -0.038,-0.14735 -1.0269,0.43699 -0.43698,-0.14211 -0.31671,-0.44244 0.20209,-6.61476 0.83574,-2.18493 0.31147,-3.18445 0.72104,-2.73658 0.83569,-1.99922 0.6391,-2.56178 0.95588,-1.14157 0.25662,-1.74794 1.07609,-1.89542 0.83026,-1.98276 -0.44791,0.19658 -5.31474,5.15633 -1.35464,0.93406 -1.84626,-0.25141 -1.40925,-0.57901 -1.10337,-1.21809 -0.49159,-2.34328 -1.36012,-0.0601 -1.16343,-0.40421 0.0111,-0.3167 1.50209,-1.27818 2.40887,-0.43696 2.25592,-2.0538 -2.00467,-1.38739 0.16946,-0.44244 1.74792,-1.18533 2.22311,-3.98196 0.44791,-3.67609 -1.05965,-1.73151 -0.38238,-1.13618 -2.12481,-1.26722 -0.35513,-1.62229 0.24583,-0.91221 0.69373,-0.89034 1.04326,-0.68824 1.63867,-0.66638 -1.48572,-0.71009 -0.55716,-0.84119 -0.42058,-1.21809 -0.0382,-0.70461 0.7702,-3.14624 0.44789,-1.30005 0.87945,-1.66048 3.9765,0.0929 0.45884,-0.73197 0.45336,-0.0262 2.03195,0.67185 -0.3003,-0.72104 -3.3265,-3.9601 -0.30028,-0.75377 0.95044,-2.14122 0.0655,-0.95589 -0.13658,-1.02145 0.27305,-0.78107 1.0542,-0.36595 3.21181,0.0336 0.79205,-0.36034 -0.36073,-1.03783 -0.74832,-1.36554 -0.1474,-1.1471 0.17497,-1.01597 0.038,-2.04833 0.14737,-0.90675 0.76475,-1.36009 0.62812,-0.40421 0.78116,-0.235 1.76429,0.45336 0.67186,0.54624 0.77563,1.29455 0.56803,-0.10369 2.1958,-1.40928 0.66099,-0.20216 0.90127,1.63322 3.75254,-1.29998 5.04163,-0.57902 3.03154,-0.85759 3.18998,-0.31147 2.97688,-0.97774 3.15719,0.44789 0.10922,0.56808 -0.16372,0.78656 z m 2.76934,-6.64753 -0.1474,0.0873 -0.56258,-0.54073 -0.91766,-1.9391 1.44751,-0.38783 0.68273,0.24022 -0.25664,0.82481 z m -3.61601,-1.5513 -0.87942,0.3933 -0.86852,-0.0262 -1.35464,-1.70969 -0.51342,-1.24539 0.0929,-0.82479 0.56809,-0.27865 1.31093,0.4042 0.67731,1.42568 0.0874,0.92308 0.15843,0.36073 0.81389,0.36592 z m 1.6496,-6.97524 -0.20741,0.73192 1.16343,-0.0151 1.68783,0.62267 1.02145,0.0765 0.85212,0.77563 -0.46977,1.44748 -0.50797,0.40971 -0.57354,0.082 -2.01012,-1.44748 -2.63279,0.60084 -0.52438,-0.18576 -0.34393,-0.39878 -0.14211,-0.49705 v -1.01597 l -0.14208,-0.3003 -0.95588,0.96136 -0.41514,-0.11451 -0.235,-0.45882 -0.10372,-0.95043 0.10372,-1.37102 0.56264,-1.96093 0.94496,-0.39328 1.40925,0.22942 1.61684,1.10882 0.48612,0.68278 -0.0111,0.54623 z m 7.7946,-6.01943 -1.73151,0.0336 0.89577,-1.7698 1.04333,-0.44789 1.97186,0.19659 -0.34954,0.79748 z m -2.76389,1.33279 -1.31638,0.7429 -0.56264,-0.61177 -0.14737,-1.92273 -1.56768,-0.82479 -0.7647,-0.51345 -0.58994,-0.97229 0.14737,-0.30027 1.02145,-0.39873 1.74789,1.76429 0.71559,1.42018 1.29455,0.42058 0.16373,0.2186 z m 21.78341,-41.17433 0.31671,2.19033 0.792,-0.56804 1.19626,2.09749 h 0.61177 l 1.00505,-0.83024 -0.20212,1.94998 -1.04325,5.39126 -0.29506,0.91218 -0.19662,1.63324 -0.20738,0.32229 -0.30588,3.29375 -0.70467,1.08151 -0.58988,2.57818 -0.24022,0.2514 -0.86304,-0.98866 0.86304,-3.93828 0.35512,-2.29414 -0.22942,-1.19076 -0.48617,-1.07609 -1.32186,-0.0336 -1.11429,0.49707 -0.23503,-0.63363 -0.0335,-0.85211 -0.26784,-0.28424 -1.48029,0.0601 -0.43696,-0.23501 -0.28945,-0.78655 -0.0545,-0.62815 1.33824,-0.49162 1.25629,0.18579 1.83534,-1.25087 -1.14705,-4.20047 -1.524,-0.39873 -0.34954,-0.40965 0.29509,-0.71557 0.83571,-0.3878 1.2836,-2.14667 0.7702,-0.33869 0.95589,0.0601 z m 4.07482,0.7374 -0.38783,0.35512 -1.49666,-3.16262 1.10889,-3.63238 1.34369,0.11488 0.21291,0.95041 -0.13084,0.87945 -0.68278,0.0765 -0.06,0.26747 0.21291,1.68783 0.0111,1.95548 z m 4.10763,-9.31858 v 0.36037 l -0.79751,2.64369 0.0111,1.01055 -1.2836,-0.0985 -0.20212,-0.32229 -0.24024,-1.51305 0.16372,-1.61136 0.18026,-0.42058 0.37153,-0.16936 0.40423,0.3167 0.63905,-0.81931 0.33314,0.0151 z"
       class="land"
       title="United Kingdom"
       id="GB" />
  </g>
</svg>
