<?xml version="1.0" encoding="UTF-8" standalone="no"?>
<!-- Created with Inkscape (http://www.inkscape.org/) -->

<svg
   xmlns:dc="http://purl.org/dc/elements/1.1/"
   xmlns:cc="http://creativecommons.org/ns#"
   xmlns:rdf="http://www.w3.org/1999/02/22-rdf-syntax-ns#"
   xmlns:svg="http://www.w3.org/2000/svg"
   xmlns="http://www.w3.org/2000/svg"
   xmlns:sodipodi="http://sodipodi.sourceforge.net/DTD/sodipodi-0.dtd"
   xmlns:inkscape="http://www.inkscape.org/namespaces/inkscape"
   width="61.024796mm"
   height="27.494825mm"
   viewBox="0 0 61.024796 27.494825"
   version="1.1"
   id="svg22243"
   inkscape:version="0.92.0 r15299"
   sodipodi:docname="czechrepublic.svg">
  <defs
     id="defs22237" />
  <sodipodi:namedview
     id="base"
     pagecolor="#ffffff"
     bordercolor="#666666"
     borderopacity="1.0"
     inkscape:pageopacity="0.0"
     inkscape:pageshadow="2"
     inkscape:zoom="0.35"
     inkscape:cx="216.75102"
     inkscape:cy="-233.75556"
     inkscape:document-units="mm"
     inkscape:current-layer="layer1"
     showgrid="false"
     fit-margin-top="0"
     fit-margin-left="0"
     fit-margin-right="0"
     fit-margin-bottom="0"
     inkscape:window-width="1920"
     inkscape:window-height="1017"
     inkscape:window-x="1912"
     inkscape:window-y="-8"
     inkscape:window-maximized="1" />
  <metadata
     id="metadata22240">
    <rdf:RDF>
      <cc:Work
         rdf:about="">
        <dc:format>image/svg+xml</dc:format>
        <dc:type
           rdf:resource="http://purl.org/dc/dcmitype/StillImage" />
        <dc:title></dc:title>
      </cc:Work>
    </rdf:RDF>
  </metadata>
  <g
     inkscape:label="Layer 1"
     inkscape:groupmode="layer"
     id="layer1"
     transform="translate(74.357636,-59.490682)">
    <path
       inkscape:connector-curvature="0"
       id="cz"
       class="landxx cz eu"
       d="m -74.285584,67.447659 c 0.983672,0 1.767972,0.821516 2.007239,1.722772 0.345611,-3.445543 5.317182,-2.558892 6.274275,-3.292661 3.442866,-2.621374 7.922588,-3.936053 11.631302,-5.224128 -0.305741,-0.296443 -0.638062,-0.582225 -0.957093,-0.861386 0.837459,-0.194067 1.807842,-0.497155 2.459194,0.24192 0.571612,0.656683 1.09004,1.892936 2.140162,1.528705 0.717826,-0.249904 1.621759,-0.106343 1.767972,-0.945141 0.159504,-1.008938 0.584878,-0.808202 1.249545,-0.638062 1.116594,0.284467 1.422336,0.454632 1.741368,1.506093 0.943803,2.526981 6.021692,-0.236614 6.141326,2.804804 0.49185,-0.529041 1.728102,-0.71381 2.459193,-0.570249 2.379454,0.471889 0,1.887581 -0.824145,2.58148 1.661605,0.576919 2.233218,1.462231 3.176995,2.787523 1.169781,1.621758 3.057387,-0.276484 4.094242,-0.969044 -0.624771,-0.525073 -0.983671,-1.193707 -1.050145,-2.009893 2.472484,0.64736 4.772174,2.529635 7.457345,1.722772 0,1.23623 -0.146238,3.293975 1.276123,3.18364 1.51539,-0.119634 2.060397,-0.396118 3.668842,0.357586 1.714788,0.806887 2.113584,0.224663 2.990913,2.089656 -1.5021,-1.020889 1.794553,0.321684 3.150415,3.327224 -1.741368,0.646022 -4.360066,0.959746 -5.90206,2.114898 -1.116595,0.830814 -1.116595,2.665236 -2.286376,3.243493 -1.183071,0.588869 -2.658591,2.106913 -5.263999,2.060399 -1.714812,-0.02658 -2.951041,0 -3.948004,2.190668 -0.877353,-3.191623 -5.303891,-0.9079 -7.297841,-1.595153 -1.635024,-0.566282 -3.256759,-1.220287 -4.905097,-1.757312 -1.355863,-0.434697 -3.9214,-1.14853 -5.317158,-1.050146 0.132924,0.910554 -0.279161,1.771939 -0.186107,2.67984 -1.355888,-0.187422 -2.37943,0.88799 -2.39272,2.201331 -2.007239,-0.801582 -2.047133,0.06645 -4.027768,-0.119658 -1.315994,-0.119634 -2.406034,-1.531334 -3.429576,-2.225233 -1.329308,-0.890619 -2.738355,-1.637677 -4.120823,-2.439259 -1.289413,-0.748373 -2.75162,-2.605407 -4.120797,-3.14377 -2.286401,-0.895949 -2.818119,-4.066299 -4.878518,-5.184234 2.897859,-2.552248 -2.512353,-2.71842 -2.778224,-6.319475"
       style="fill:#cbe6a3;fill-opacity:1;fill-rule:evenodd;stroke:#000000;stroke-width:0.14449541;stroke-miterlimit:4;stroke-dasharray:none;stroke-opacity:1">
      <title
         id="title883">Czech Republic</title>
    </path>
  </g>
</svg>
