<?xml version="1.0" encoding="UTF-8" standalone="no"?>
<!-- Created with Inkscape (http://www.inkscape.org/) -->

<svg
   xmlns:dc="http://purl.org/dc/elements/1.1/"
   xmlns:cc="http://creativecommons.org/ns#"
   xmlns:rdf="http://www.w3.org/1999/02/22-rdf-syntax-ns#"
   xmlns:svg="http://www.w3.org/2000/svg"
   xmlns="http://www.w3.org/2000/svg"
   xmlns:sodipodi="http://sodipodi.sourceforge.net/DTD/sodipodi-0.dtd"
   xmlns:inkscape="http://www.inkscape.org/namespaces/inkscape"
   width="220.06465mm"
   height="216.15913mm"
   viewBox="0 0 220.06465 216.15913"
   version="1.1"
   id="svg6722"
   inkscape:version="0.92.0 r15299"
   sodipodi:docname="france.svg">
  <defs
     id="defs6716" />
  <sodipodi:namedview
     id="base"
     pagecolor="#ffffff"
     bordercolor="#666666"
     borderopacity="1.0"
     inkscape:pageopacity="0.0"
     inkscape:pageshadow="2"
     inkscape:zoom="0.35"
     inkscape:cx="131.58451"
     inkscape:cy="157.06113"
     inkscape:document-units="mm"
     inkscape:current-layer="layer1"
     showgrid="false"
     fit-margin-top="0"
     fit-margin-left="0"
     fit-margin-right="0"
     fit-margin-bottom="0"
     inkscape:window-width="1920"
     inkscape:window-height="1017"
     inkscape:window-x="1912"
     inkscape:window-y="-8"
     inkscape:window-maximized="1" />
  <metadata
     id="metadata6719">
    <rdf:RDF>
      <cc:Work
         rdf:about="">
        <dc:format>image/svg+xml</dc:format>
        <dc:type
           rdf:resource="http://purl.org/dc/dcmitype/StillImage" />
        <dc:title></dc:title>
      </cc:Work>
    </rdf:RDF>
  </metadata>
  <g
     inkscape:label="Layer 1"
     inkscape:groupmode="layer"
     id="layer1"
     transform="translate(51.823996,25.770047)">
    <path
       style="fill:#cbe6a3;fill-opacity:1;stroke:#000000;stroke-width:0.52916664;stroke-miterlimit:4;stroke-dasharray:none;stroke-opacity:1"
       inkscape:connector-curvature="0"
       d="m 65.356065,-16.138393 0.9122,-0.267838 1.5458,-0.961363 1.28908,-0.305859 0.73739,0.737368 0.41514,0.420608 0.80843,1.660524 0.22942,1.726063 0.36036,1.436555 0.65548,0.579014 2.46356,0.191294 1.81875,0.529854 0.48075,0.4806423 0.62256,3.179049 0.33893,0.447886 0.45323,-0.371528 0.44794,-0.524377 0.62257,-0.08207 1.06521,0.202115 1.40388,0.06575 1.44754,0.349515 1.99919,1.791599 -0.0765,0.589942 -0.38788,1.032351 -0.13652,0.824786 0.34422,0.333136 0.52996,0.852091 -0.12568,0.98324503 -0.51355,0.688207 -0.20744,0.56808697 v 0.365945 l 0.1913,0.305885 0.40957,0.267838 2.95513,0.360336 2.70378,-0.360336 1.70418,-1.00504597 0.28946,-1.05971 0.48075,-1.19078303 1.016,-1.00502 0.69929,-0.33872 0.64452,0.409681 -1.08161,4.200472 0.7919,1.070584 0.11509,1.594988 0.2839,1.398322 0.96678,-0.02593 1.16893,0.25662 0.83027,0.51345 0.966775,0.830289 1.39277,0.764699 0.9779,0.267811 0.35507,0.633651 0.7919,0.7373927 1.24539,1.540378 1.11443,1.026848 h 0.54081 l 1.03769,-0.404151 1.54041,-0.256646 1.21258,0.02222 0.51885,0.78113 1.19618,0.360362 0.42069,0.289454 0.4699,0.540756 0.79745,0.218651 0.96123,-0.218651 0.6993,-0.715566 0.93398,-0.327872 0.93953,0.109194 0.54081,0.393303 1.02685,0.584465 0.57891,-0.125783 1.16363,0.360336 1.16867,1.136173 0.49159,1.136148 0.12595,0.622697 0.50244,0.677333 1.96109,3.047921 0.62257,0.147372 0.68289,-0.458813 0.44238,-0.655506 0.63897,-0.130836 1.02685,0.305885 0.66092,0.343932 0.31671,1.316407 0.22384,0.251064 0.44265,-0.283898 0.79189,-0.06001 1.26736,0.322289 1.73699,-0.371528 1.39276,-0.551656 0.71015,0.02223 1.14697,1.534874 1.31101,0.573538 2.88395,0.464264 3.09722,0.721016 1.21814,0.584438 0.83026,0.289481 0.0873,2.026496 -0.25135,0.305912 -3.08637,4.05294 -1.29989,1.447509 -0.66093,2.059279 -0.4535,3.15714 -0.91202,2.98786 -1.36551,2.829455 -0.49715,2.119365 0.37147,1.40925 -0.23495,2.212181 -0.83582,3.009689 -0.14208,2.266844 0.55721,1.529424 0.77021,0.311467 -1.85182,1.026901 -0.42043,0.901277 -0.72654,1.18528 -1.17978,0.497047 -1.18533,0.163724 -0.9615,-0.152903 -0.5461,-0.475192 0.0265,-0.442462 -0.508,-0.376899 -1.2618,0.01111 -1.30545,0.813885 -1.04325,1.332786 0.32226,0.742897 0.96149,0.196585 0.25136,0.295063 v 0.382376 l -0.33867,0.458814 -0.40428,0.786554 -2.0156,2.337832 -2.03173,2.354236 -0.32809,0.710062 -0.64452,0.497073 -2.58366,1.256321 -0.26776,0.502523 -0.14737,2.092034 -0.28945,1.715133 -1.91717,1.61137 -1.90633,1.60041 -0.47519,0.97774 -0.34396,1.1307 -0.59557,1.27817 -0.11986,0.67734 0.96679,1.09788 -0.1151,0.90678 -0.30585,1.28903 -0.91202,0.91223 -1.016,0.5189 0.0212,1.39832 0.54081,0.19659 1.22344,-0.10369 1.73169,-1.01598 1.13057,-1.31093 -0.66649,-1.23994 -0.082,-0.24022 0.16378,-0.29509 1.33826,-1.35464 1.63857,-0.81385 2.28864,-0.15291 2.75855,0.4807 0.27305,0.20211 -0.13097,0.83024 0.25691,1.22357 0.49689,0.85756 -0.68263,2.4307 0.51885,0.75928 0.80301,0.91218 0.60087,0.83026 0.8628,0.75922 0.77021,1.28363 0.26246,0.72649 -1.23454,1.25632 -2.08651,1.17983 -0.23521,0.75925 0.0265,0.85759 0.23495,0.67731 1.15252,0.86847 1.23984,1.960957 0.78661,1.74794 1.72058,1.67143 0.42069,0.49709 -0.10927,0.41508 -0.4535,0.71009 -0.58976,2.37062 -0.70458,0.37155 -0.78661,0.1529 -2.13042,1.73154 -0.95039,-0.21293 -1.34911,0.0222 -0.98874,0.56803 0.10927,1.07609 0.86863,0.98317 0.508,1.07063 0.20716,1.1143 0.9615,0.82481 1.35467,0.49157 0.77549,0.0335 0.50271,0.29506 0.30586,0.38238 0.58446,2.38154 -0.34951,0.59536 -0.7321,0.25141 -0.43683,0.97777 -0.86863,1.43655 -0.49159,1.15253 0.54636,1.01597 0.22939,0.7538 -0.28945,0.77565 0.38788,1.20166 1.02685,1.19078 2.79109,1.67145 2.5945,1.3601 0.80301,0.22383 3.50679,-0.874 0.57891,0.0766 0.42624,1.03782 0.18574,0.69916 -0.39344,1.04879 -0.96679,1.48026 -1.02684,1.1525 -0.62257,0.97777 0.13124,0.89035 0.0378,1.17983 -0.83555,0.34951 -0.0265,-0.22942 -0.34422,-0.20209 -0.29501,0.11451 -0.2294,0.25662 -0.0336,0.45339 -1.78065,0.7538 -1.22925,0.78108 -4.8559,4.65383 -2.27224,1.36009 -0.44794,0.81939 -0.46408,1.52937 -1.33297,1.31093 -1.16893,0.6227 -2.88951,0.6391 -2.90592,1.38742 -1.31075,-0.60084 -3.38666,0.0658 -2.11403,-1.67148 -4.06373,-1.05963 -1.32186,-2.44165 -1.85182,-0.15865 -1.212575,0.0763 -0.72655,-0.37153 -0.18574,-0.83571 -0.0159,-0.80294 -1.28376,0.37153 h -0.98319 l -0.58447,0.32229 -0.45878,0.37156 -0.5461,-0.23501 -0.31671,0.0821 0.0265,0.46976 -1.17978,0.12002 -1.28376,-0.28945 -3.35915,-1.26175 -0.51355,-0.19661 -2.33231,-0.48617 -0.93953,-0.50798 -0.76465,-1.25084 -0.57917,-0.39325 -0.34422,-0.23503 -2.17382,0.63362 -0.7538,0.98317 -1.17448,1.15258 -8.06225,5.63702 -1.47479,2.35421 -1.70426,3.4576 -0.13084,1.61134 0.73197,5.13453 1.63867,2.68743 0.20741,0.6227 -0.91223,0.007 -1.52395,-0.33869 -1.26177,-0.41513 -1.20714,0.22939 -1.15797,0.55716 -1.01603,0.33869 -0.73191,0.0929 -0.48615,0.32229 -0.235,0.63907 -0.0437,0.44789 -1.28366,-0.10922 -2.96595,-0.91763 -2.66557,-0.63362 -1.56771,0.72101 -1.00502,0.67189 -0.70464,-0.10372 -0.54075,-0.71012 -0.36074,-0.69371 -1.04328,-0.63905 -2.359656,-0.95588 0.120015,-0.45882 0.404231,-0.64455 -0.01111,-0.39878 -0.45339,-0.58989 -2.173949,-0.63362 -1.0269,-0.15864 -0.650002,0.43698 -0.469768,0.53531 -1.207188,-1.96641 -0.863018,-0.40421 -1.300004,-0.0657 -1.491218,-0.60086 -1.551252,-0.77015 -3.76346,-1.22902 -1.032377,-0.14737 -0.415105,0.19658 -0.278659,0.7374 -0.1474,2.07563 -0.158406,0.22942 -1.747943,0.0708 -2.152121,-0.28949 -0.988668,0.14211 -0.879422,0.005 -0.830237,-0.55166 -3.71983,0.62818 -0.617193,-0.30589 -0.895826,-0.93406 -1.005047,-0.75927 -0.775626,-0.3878 -0.666432,-0.44791 -0.600816,-0.0708 -0.917654,0.43151 -1.267222,0.18579 -1.048782,-0.0545 -0.562584,0.06 -2.359713,-2.30502 -0.3443025,-0.62818 -1.174379,-0.17497 -1.452933,-0.0259 -3.703426,-1.49667 -1.68783,-0.80293 -0.245825,-0.4807 0.02222,-0.38785 -0.28948,0.0874 -0.51890099,0.68278 -0.27305,0.55716 -0.360362,0.10372 -0.529829,-0.0874 -0.491622,-0.31671 -0.30027601,-0.4042 0.32228901,-0.70461 0.568087,-0.92314 0.235003,-1.00504 -0.0545,-0.90128 -0.93405801,-0.57899 -1.376469,-0.24024 -1.010523,-0.0708 -1.310931,-0.51342 -0.622697,-0.37156 -0.600842,-1.00507 -0.02249,-0.73191 2.496265,-0.64456 2.244936,-2.64919 2.13026701,-9.65724 1.54037699,-11.51988 1.141624,-2.18487 1.442006,-0.60082 -1.163426,-1.59499 -0.726519,0.80841 -0.305885,0.85759 -0.382349,0.43151 0.857594,-10.67866 0.611769,-3.93282 1.043279,-4.12946 2.135716,1.63867 1.769798,1.66601 0.912178,1.44197 1.1580025,4.78494 0.879422,1.00505 1.310957,1.00504 -0.518927,-1.09788 -0.901277,-0.84122 -1.40925,-6.3853 -0.8848995,-1.81895 -1.376495,-1.52943 -4.435316,-3.228147 -0.39878,-0.62818 -0.218652,-1.23446 1.469364,0.0545 1.267222,0.60082 -0.147373,-0.68824 -0.376873,-0.72101 -0.589941,-2.62734 -0.491596,-6.15596 0.06551,-1.05418 -0.218652,-1.30003 -1.420177,-0.28945 -1.136121,-0.0492 -1.22356599,-0.51345 -6.04123101,-3.64879 -2.064729,-3.77986 -2.1138615,-2.79667 -0.508026,-1.223541 0.03355,-1.239917 1.0978875,-2.621889 -0.9668135,-1.660525 -0.944959,-0.327872 -0.819335,-0.824812 0.742897,-1.371018 0.617193,-0.879395 1.2399435,-0.23503 1.622292,0.289481 1.540325,0.797481 1.207135,0.21291 -3.566821,-2.135717 -5.7899565,0.721016 -1.25087,-0.27305 -1.048729,-0.475191 -0.415131,-1.573133 0.824785,-0.704639 0.742871,-1.310931 -0.84119,-0.917628 -1.092438,-0.349541 -1.715162,0.01535 -1.600411,0.278659 -0.404204,-0.529854 0.977715,-1.463887 -0.830236,-0.535279 -1.108869,0.251407 -1.605862,0.300303 -1.534902,-0.458814 -1.452986,-1.665976 -0.961284,0.01111 -0.660982,0.207407 -0.977742,-0.644552 -1.032351,-0.158432 -0.73742,0.21291 -0.977715,-0.955887 -6.030304,-1.9227 -2.600056,-0.235964 -2.386992,0.868521 -1.316408,-0.300302 -0.966814,-1.245368 -0.808434,-2.086583 -3.845401,-1.611339 0.759248,-1.059709 1.791626,-0.251407 2.059252,-0.731917 0.742871,-0.944986 -1.611365,-1.097889 -1.190758,-0.273076 -0.491622,-0.39325 -0.502497,-0.988669 0.710089,-0.453363 0.502497,0.240241 1.452986,0.142082 2.479833,-0.240189 -0.923078,-0.999622 -0.96139,-0.223811 -0.442436,-0.251434 -2.02102,-0.10922 -0.917681,0.344329 -2.064703,-0.130837 -0.447939,-1.07606 -0.218652,-0.928608 0.639101,-2.064729 2.905893,-1.851687 7.242942,-2.026523 3.113485,0.295064 2.157597,-0.365919 2.589081,-1.278176 1.141624,-1.097915 3.681545,-0.644525 3.495808,1.163426 3.222704,4.391686 1.540378,1.485715 3.774414,-2.578206 5.620649,0.07633 1.1579755,1.452986 0.469741,-1.223513 1.032378,-1.436608 0.824785,0.655478 0.420635,0.89035 5.93195801,-0.251407 0.934059,-0.256673 -1.59498801,-1.043252 -1.30003,-2.501714 -0.27305,-9.247585 -1.644148,-2.594557 -1.884468,-4.156763 -0.868495,-2.474383 -0.0821,-0.8575677 0.289481,-1.239943 2.315977,0.06554 1.7916,0.316707 3.41389201,-0.934059 1.63872299,0.639101 -0.0984,1.9336277 0.502496,2.436151 0.568087,1.179857 0.868522,1.338236 2.747486,-0.120042 2.966032,0.78658 3.7525325,0.120015 5.478622,1.35464 2.332381,-0.786553 2.261367,-1.676903 4.304216,-1.103365 0.344302,-0.578988 -2.47986,0.22942 -2.272295,-1.065133 -0.305885,-1.152551 0.262229,-1.037829 0.923105,-2.3924407 6.587463,-3.785341 4.719373,-1.11977 4.926965,-2.092034 2.479834,-2.14667 1.63867,-2.780268 0.529855,-0.61177 0.682784,-0.513477 -0.633625,-0.999543 0.426032,-10.7059943 0.458814,-1.939104 0.961364,-1.589511 1.463914,-1.229016 2.21763,-1.332759 8.177,-1.840786 1.21262,-0.748321 0.16943,1.157975 0.59537,1.480265 0.40971,0.808434 -0.34433,1.054206 0.26784,0.868468 1.10881,1.562206 1.38195,1.469364 1.23446,0.939509 z M 3.4142735,94.559353 l -0.540782,1.92268 -1.026901,-1.76977 -1.35458699,-1.55128 -0.311494,-1.43658 v -0.38235 l 1.58951099,1.04878 z m 163.3918465,66.229597 -0.39873,3.0534 0.28946,0.89035 0.55721,0.62267 0.25664,0.68281 0.46435,8.09504 -0.0873,0.64452 -1.87352,3.23911 -0.42069,0.94496 -0.0929,3.99835 -0.3167,1.07061 -0.66649,1.05424 -1.18533,3.40841 -1.02685,1.52943 -2.80749,-1.86812 -1.65524,-0.80838 -0.8083,-0.86852 -0.52996,-0.60082 0.34449,-0.80293 0.7538,-0.83574 0.11985,-0.66093 -1.77509,-0.74287 -0.81385,-0.49707 0.0106,-0.87395 0.61172,-1.36009 -0.27887,-1.12524 -1.02685,0.0545 -0.79746,-0.16947 -0.10371,-0.58443 0.58446,-0.74835 0.7538,-0.97772 -0.0212,-1.08153 -0.91228,-0.46429 -0.82471,-0.87943 -0.33311,-1.1962 0.63897,-0.81937 1.03796,-0.52437 -0.76464,-1.22899 -0.51356,-0.0259 -0.40958,-0.26747 0.33867,-0.56809 0.80301,-0.85211 1.11972,-2.55085 1.55681,-1.20716 2.76383,-0.77563 0.74825,-0.3443 0.68289,-0.90128 0.75908,-0.57901 0.92314,0.0766 0.85222,0.3443 0.5244,0.37153 0.39317,-0.3878 0.38233,-1.11974 -0.23495,-0.98322 0.12012,-2.70383 0.49159,-1.53488 0.79746,-0.0874 0.73184,0.84664 -0.0333,0.74835 0.27305,1.76974 z"
       class="land"
       title="France"
       id="FR" />
  </g>
</svg>
