<?xml version="1.0" encoding="UTF-8" standalone="no"?>
<!-- Created with Inkscape (http://www.inkscape.org/) -->

<svg
   xmlns:dc="http://purl.org/dc/elements/1.1/"
   xmlns:cc="http://creativecommons.org/ns#"
   xmlns:rdf="http://www.w3.org/1999/02/22-rdf-syntax-ns#"
   xmlns:svg="http://www.w3.org/2000/svg"
   xmlns="http://www.w3.org/2000/svg"
   xmlns:sodipodi="http://sodipodi.sourceforge.net/DTD/sodipodi-0.dtd"
   xmlns:inkscape="http://www.inkscape.org/namespaces/inkscape"
   width="140.98099mm"
   height="190.88544mm"
   viewBox="0 0 140.98099 190.88544"
   version="1.1"
   id="svg10124"
   inkscape:version="0.92.0 r15299"
   sodipodi:docname="germany.svg">
  <defs
     id="defs10118" />
  <sodipodi:namedview
     id="base"
     pagecolor="#ffffff"
     bordercolor="#666666"
     borderopacity="1.0"
     inkscape:pageopacity="0.0"
     inkscape:pageshadow="2"
     inkscape:zoom="0.35"
     inkscape:cx="173.56364"
     inkscape:cy="726.44265"
     inkscape:document-units="mm"
     inkscape:current-layer="layer1"
     showgrid="false"
     fit-margin-top="0"
     fit-margin-left="0"
     fit-margin-right="0"
     fit-margin-bottom="0"
     inkscape:window-width="1920"
     inkscape:window-height="1017"
     inkscape:window-x="1912"
     inkscape:window-y="-8"
     inkscape:window-maximized="1" />
  <metadata
     id="metadata10121">
    <rdf:RDF>
      <cc:Work
         rdf:about="">
        <dc:format>image/svg+xml</dc:format>
        <dc:type
           rdf:resource="http://purl.org/dc/dcmitype/StillImage" />
        <dc:title></dc:title>
      </cc:Work>
    </rdf:RDF>
  </metadata>
  <g
     inkscape:label="Layer 1"
     inkscape:groupmode="layer"
     id="layer1"
     transform="translate(62.930974,-150.15251)">
    <path
       style="fill:#cbe6a3;fill-opacity:1;stroke:#000000;stroke-width:0.52916664;stroke-miterlimit:4;stroke-dasharray:none;stroke-opacity:1"
       inkscape:connector-curvature="0"
       d="m -25.093602,157.67857 -0.355071,0.52438 0.169069,-3.75258 1.676929,-4.00929 0.710142,0.0929 -0.726546,1.08696 -0.212725,0.75927 -0.295275,1.51302 0.130969,0.78656 3.82905,0.2186 -0.44794,0.69916 -3.883554,0.46974 z m 21.952744,-1.02145 0.09287,0.48618 2.24499001,0.70461 0.944827,1.12522 1.04880799,1.70421 0.103717,2.4471 -1.34381899,1.75882 -1.11416001,1.11429 4.211373,-0.42058 0.420423,1.00505 0.639233,1.08698 2.266686,-0.77562 5.691716,3.2063 3.441171,-1.56218 0.879475,-0.0929 0.78105,2.5891 -0.857515,2.60004 -3.031595,2.76389 0.672041,1.70421 0.972079,0.3769 2.856971,-0.36071 4.528079,1.6769 0.944828,-0.52438 3.670829,-3.8727 1.469231,-0.83574 4.828646,-0.59539 0.879475,-1.50757 1.955535,-1.51302 1.25624,-1.65508 3.02048,-3.16261 3.12447,0.56803 1.8243,0.60632 1.99919,0.30588 1.81901,3.37024 4.6101,3.70885 4.23334,-0.32229 1.50203,3.50128 0.66649,4.30425 1.2999,1.34916 1.14168,0.87939 3.44672,0.91769 0.13653,0.0545 0.11509,0.57901 0.21273,2.13024 0.28945,1.75884 1.77535,7.0026 -0.0336,1.70421 -0.0212,0.45339 -0.65009,2.38699 -1.15252,2.00464 -1.524,1.13067 -0.84111,1.25632 -0.15293,1.38195 1.91717,2.4198 3.99309,3.45754 1.61131,2.94961 -0.75935,2.44707 -0.22939,1.79163 0.29501,1.13617 0.63923,0.91218 0.98319,0.68826 0.39317,1.05969 -0.20214,1.43107 0.18574,0.99415 0.73739,0.70458 -0.0706,0.27308 -0.35507,0.99412 -0.48631,1.808 -0.2786,1.32186 -1.12528,1.79163 0.34396,1.52395 0.87948,1.79159 0.67178,0.90128 0.21298,0.85212 -0.42597,2.02104 0.21299,0.51888 2.78024,1.48577 0.45323,0.68275 0.26776,1.42566 0.9779,3.04244 -0.80857,3.8454 -0.71014,2.10299 -1.58406,3.32653 -0.0762,0.30586 -0.18018,0.4042 -0.47546,0.57902 -0.66093,0.0874 -0.99959,-0.43151 -0.68263,-0.55716 0.15849,-1.4311 -0.44239,-0.0984 -0.5461,-0.87942 -0.21299,-0.94496 -0.59002,-0.38783 -2.14656,-0.39873 -0.7321,-0.27863 -0.56251,0.20209 -0.42069,0.67183 0.2675,0.60632 0.39872,0.58994 1.19089,0.93403 -0.12012,0.37153 -2.56725,0.91215 -1.61131,0.92861 -1.50204,0.52438 -1.52956,0.96134 -3.02048,1.08153 -2.21774,0.28385 -0.45879,0.28427 -0.8247,1.82985 -0.55721,0.38235 -0.54081,-0.19661 -0.40429,-0.30027 -0.51329,0.24582 -0.53551,0.60632 -0.56251,0.235 -0.48604,-0.004 -0.86863,1.59499 -2.52359,0.48064 -0.29501,0.82484 -0.46435,0.95586 -0.37147,0.23501 -1.13612,-0.37688 -1.57851,-0.21291 -0.90672,0.52438 -1.08691,0.28946 -1.32742,0.0874 -1.48034,1.04328 -1.441976,1.82983 -0.808567,1.61687 -0.436827,0.57896 -0.704585,-1.51847 -0.863071,-1.03783 -0.611717,-0.54081 h -0.546364 l -0.142082,0.22384 v 0.79201 l 0.584465,1.3164 0.72099,0.90128 0.114564,0.66641 0.387879,1.20168 1.0541,1.31641 1.649671,1.0378 1.12528,1.02693 0.83555,1.42018 0.005,0.43695 -0.22939,0.57902 -0.39317,0.54623 -0.33311,0.71009 -0.91784,1.4311 0.27305,0.62815 0.74824,0.78656 0.66119,0.94495 0.85196,1.52943 1.16893,2.6765 0.7538,1.09791 1.02685,1.13618 1.00515,0.86301 1.58406,-0.0259 1.63856,1.6496 1.79176,2.38152 1.33827,1.08698 0.93397,0.33314 0.7755,0.85757 0.68289,1.22902 0.26749,0.71008 0.60616,0.51345 1.63883,-0.0984 2.10847,1.93365 1.29989,1.40925 0.68818,1.13612 -0.18018,0.45339 -0.0873,1.41473 0.0212,1.49667 -0.20744,0.792 -0.93953,1.04328 -0.48604,0.22381 -0.2622,0.22384 -2.88952,-1.36009 -0.22939,0.22939 -0.18045,0.16944 -0.77549,3.92734 -0.52996,0.7538 -0.79746,0.69369 -1.64967,0.67733 -1.14697,0.27307 -0.89588,0.34394 -2.83475,1.63864 -1.27264,0.98325 -0.82497,1.23444 -0.005,0.71011 1.37636,2.08108 1.58961,2.15215 0.005,1.88444 -0.69903,1.40928 -0.16378,0.54078 0.4699,0.20738 0.87921,0.0766 0.73739,0.24024 0.31168,0.99412 -0.0929,1.72061 -0.25161,1.61134 -0.26221,0.67731 -0.70987,0.0549 -1.36578,-0.69374 -1.06495,-0.8084 -0.40984,-0.49708 -0.0212,-0.59539 0.2294,-0.37687 -0.37677,-0.73194 -1.31101,-0.68279 -1.40388,0.29507 -1.0324,0.45336 -0.67178,-0.0259 -0.72099,-0.65548 -1.11416,-0.5025 -1.45309,-0.33311 -0.906727,-0.34951 -0.191294,0.20738 0.103717,1.41473 -0.278606,0.61722 -7.188465,0.81936 -2.190221,0.7647 -1.594908,0.98867 -1.180042,0.42605 -0.289454,0.6063 -1.168929,0.79748 -1.316302,0.25143 -0.322263,-0.25664 -0.846666,0.36594 -1.441979,0.35512 -0.934244,-0.11496 -0.442383,-0.64452 -0.890323,-0.98867 -0.360363,-0.68278 0.03836,-0.44247 -2.015596,-0.0874 -1.26709,-0.52438 -2.698485,0.12001 -0.666221,-0.22381 -0.136525,0.23501 -0.404283,2.80762 -0.535252,1.14708 -0.863071,1.18528 -1.108869,0.66093 -0.879475,0.12001 0.0381,-0.86304 0.223573,-1.04325 -0.638969,-0.24583 -0.955939,-0.11451 -0.458788,-0.31147 0.120121,-0.79748 -0.223838,-0.46432 -0.393435,-0.55716 -0.96123099,-0.71551 -2.03200001,-1.05973 -1.381919,-0.52981 -0.518848,0.56261 -0.988748,0.56261 -1.556808,-0.18579 -0.382323,0.22379 -2.670969,-1.69326 -2.561696,-1.62774 h -0.846666 l -3.774546,0.3279 -0.109273,-0.14211 -0.660929,-0.92858 -0.578909,-0.29506 -0.349514,0.1529 -0.23495,0.26784 -0.404283,-0.0437 -1.693334,-1.49666 -0.693737,-0.21866 -0.961232,0.20212 -1.13612,0.80841 -0.497152,0.98867 0.152929,0.56808 0.584464,0.24585 1.545696,-0.16372 0.223838,0.16372 0.0545,0.32229 -0.169334,0.31147 -1.25095,0.25665 -0.360362,0.37689 -0.365919,0.0929 -0.23495,0.06 -1.332706,-0.39331 h -1.982725 l -1.6002,0.69374 -2.556404,0.27863 -3.512344,-0.13657 -1.261798,-0.51893 -0.769937,-0.31147 -0.557214,-1.52945 0.142082,-2.26684 0.835554,-3.00969 0.235215,-2.21221 -0.371475,-1.40925 0.496888,-2.11934 1.365514,-2.82943 0.912283,-2.98786 0.453496,-3.15716 0.660929,-2.05928 1.299898,-1.44748 3.0861,-4.053 0.251355,-0.30586 -0.08731,-2.02652 -0.830262,-0.28945 -1.218142,-0.58447 -3.096948,-0.72101 -2.883958,-0.46429 -1.311011,-0.57352 -1.147234,-1.5349 -0.709877,-0.0222 -1.393031,0.55168 -1.73699,0.37156 -1.267089,-0.32229 -0.792163,0.06 -0.442383,0.28425 -0.223838,-0.25141 -0.316706,-1.31641 -0.660929,-0.34393 -1.026848,-0.30591 -0.639233,0.13083 -0.442384,0.65548 -0.682625,0.45884 -0.622829,-0.1474 -1.960827,-3.04792 -0.502708,-0.6773 -0.125677,-0.6227 -0.491596,-1.13615 -1.168929,-1.13614 -1.163373,-0.36031 -0.579173,0.12575 0.06588,-1.40925 0.453231,-2.04835 0.437092,-1.07061 0.578908,-0.87397 0.617273,-0.61174 0.136525,-1.10337 -0.09842,-1.04328 -0.710142,-0.16372 -1.780645,-0.77018 -1.0541,-0.81388 -0.78105,-1.02143 -1.027113,-1.4038 -0.436827,-1.43113 -0.02117,-1.42563 0.119856,-0.63907 0.07673,-0.44244 0.824706,-2.22861 2.905919,-1.99914 -0.322262,-2.01557 -0.04366,-1.23997 -0.70485,-0.80838 -1.409171,-0.3279 -0.371475,-0.56261 -0.158486,-0.55168 1.032405,-1.23991 -1.25095,-0.97775 -0.568061,-0.96681 -1.736989,-1.2782 -0.185738,-0.44244 0.835819,-3.7416 -0.639233,-1.09247 -0.791898,-0.5571 -0.923132,-0.27308 -0.425979,-0.5189 -0.147373,-0.59539 0.163513,-0.36595 1.087173,0.10922 0.338666,-0.38783 2.588948,-2.2067 0.109273,-0.42606 -0.360627,-0.24024 -0.4699,-0.12576 -0.119856,-0.46429 0.01588,-0.61179 1.381919,-3.19538 0.409839,-1.36557 0.09287,-0.96684 -0.08758,-0.95645 -0.797455,-1.50212 -0.770202,-1.20171 -0.02646,-0.95586 -0.562504,-0.50255 -1.595173,-2.57271 v -0.99411 l 0.901435,-0.77566 1.261798,-0.49159 0.420423,-0.40968 0.753798,-0.25665 2.004748,0.7429 0.895879,0.64452 0.251354,-0.13083 0.808302,-0.69917 1.420284,0.10922 3.435879,-1.4093 0.513291,-0.67728 0.382323,-0.72104 0.0336,-0.31668 -1.332706,-1.39285 -0.03836,-0.51347 0.174889,-0.57897 0.376767,-0.45886 0.786606,-0.31147 0.835819,-0.61177 1.873514,-1.73699 0.650082,-1.50759 0.201877,-1.63868 0.03863,-1.22356 -0.513556,-0.97224 -0.518848,-0.6282 -0.704586,0.0984 -1.37107,-0.0492 -1.283759,-0.54623 -0.704585,-0.8849 -0.174625,-0.77563 0.322527,-0.49157 0.09816,-0.60086 -0.207168,-0.60632 0.08202,-0.50798 0.578909,-0.40965 4.058443,0.0111 0.305859,-0.44789 0.27305,-2.35968 1.016,-3.59963 0.955939,-2.01007 0.158486,-0.84667 -0.01588,-4.77948 0.130969,-2.43065 -0.693738,-1.14162 -1.513152,-1.25087 0.322262,-2.61094 0.502709,-2.04287 1.524,-2.51265 1.207029,-0.68826 5.27103,-0.40965 5.822685,0.16944 2.419879,3.79629 -0.895879,1.94456 1.414727,0.90672 0.68289,-0.33313 0.518848,-1.69328 0.344223,-1.87905 0.497152,-0.56806 1.802606,1.4038 0.633677,0.96137 0.03837,3.0807 0.66622,-4.17862 -0.496887,-2.93325 0.338667,-2.85123 0.726545,-1.48577 0.666221,-0.94496 4.271434,1.02145 4.719373,-0.5244 1.786202,1.10339 4.036748,5.50048 1.34911,0.90128 1.698625,0.28387 -2.34315,-1.17436 -4.894263,-6.69671 -1.463939,-0.83026 -2.250281,-0.25141 -1.40388,-0.65547 -0.884766,-1.01598 -0.256646,-0.9122 0.04921,-6.80051 -0.841375,-1.01595 -1.092464,-0.34954 -0.682625,0.46427 -1.398323,0.005 -0.29501,-1.54583 0.344222,-1.1471 2.807494,-0.78653 1.851819,-1.05423 0.08202,-1.86261 -1.168929,-1.46934 -1.398323,-2.69835 -1.644121,-2.53995 -0.185738,-2.96053 h 0.0053 l 2.862263,0.0545 0.699293,0.11491 4.33705,1.38742 1.059657,0.97227 1.332706,0.0436 2.403475,-0.90676 1.79705,-0.39872 0.693737,0.56261 0.977636,0.235 h 0.218546 z m -17.659615,2.99331 -0.595312,0.65001 -1.46394,-0.0765 -0.81915,-0.61177 0.267758,-0.65001 0.775494,-0.49704 0.64479,-0.0765 0.972079,0.30588 z m 78.508759,8.69588 0.38232,1.76429 -0.40958,0.90128 -1.72058,-1.49664 -1.73144,0.0222 -1.0324,2.2996 -0.7702,0.0984 -2.67097,-2.09206 -0.43154,-1.02143 -0.0873,-0.85209 0.38232,-2.94962 -0.0709,-0.92859 0.84111,-1.01597 0.13097,-1.47479 1.48034,-1.55128 1.32186,-0.0601 0.41513,1.31641 0.63341,0.90673 2.21774,1.01597 0.33311,0.45882 0.20214,0.6391 -1.0324,1.24539 -0.34952,0.63908 0.32809,1.02145 z m -37.192219,-0.92308 -2.354263,0.0492 -0.901171,-1.04873 -0.901435,-0.26746 0.486304,-1.29456 0.633413,-0.47522 2.277798,0.84664 0.715697,1.65505 z m 44.888679,12.21899 -0.20214,0.81391 0.23495,1.25082 -0.63368,-0.0929 -1.90077,0.29506 -1.87907,-0.41516 -0.36036,-1.5567 0.3003,-1.49667 -0.75379,-1.03237 -0.69374,-0.6063 -0.10372,-0.86302 0.11509,-0.90127 3.23903,2.41429 z"
       class="land"
       title="Germany"
       id="DE" />
  </g>
</svg>
