<?xml version="1.0" encoding="UTF-8" standalone="no"?>
<!-- Created with Inkscape (http://www.inkscape.org/) -->

<svg
   xmlns:dc="http://purl.org/dc/elements/1.1/"
   xmlns:cc="http://creativecommons.org/ns#"
   xmlns:rdf="http://www.w3.org/1999/02/22-rdf-syntax-ns#"
   xmlns:svg="http://www.w3.org/2000/svg"
   xmlns="http://www.w3.org/2000/svg"
   xmlns:sodipodi="http://sodipodi.sourceforge.net/DTD/sodipodi-0.dtd"
   xmlns:inkscape="http://www.inkscape.org/namespaces/inkscape"
   width="67.440506mm"
   height="100.52604mm"
   viewBox="0 0 67.440505 100.52604"
   version="1.1"
   id="svg5582"
   inkscape:version="0.92.0 r15299"
   sodipodi:docname="ireland.svg">
  <defs
     id="defs5576" />
  <sodipodi:namedview
     id="base"
     pagecolor="#ffffff"
     bordercolor="#666666"
     borderopacity="1.0"
     inkscape:pageopacity="0.0"
     inkscape:pageshadow="2"
     inkscape:zoom="0.35"
     inkscape:cx="677.57741"
     inkscape:cy="150.51222"
     inkscape:document-units="mm"
     inkscape:current-layer="layer1"
     showgrid="false"
     fit-margin-top="0"
     fit-margin-left="0"
     fit-margin-right="0"
     fit-margin-bottom="0"
     inkscape:window-width="1920"
     inkscape:window-height="1017"
     inkscape:window-x="1912"
     inkscape:window-y="-8"
     inkscape:window-maximized="1" />
  <metadata
     id="metadata5579">
    <rdf:RDF>
      <cc:Work
         rdf:about="">
        <dc:format>image/svg+xml</dc:format>
        <dc:type
           rdf:resource="http://purl.org/dc/dcmitype/StillImage" />
        <dc:title></dc:title>
      </cc:Work>
    </rdf:RDF>
  </metadata>
  <g
     inkscape:label="Layer 1"
     inkscape:groupmode="layer"
     id="layer1"
     transform="translate(18.726744,-88.018993)">
    <path
       style="fill:#cbe6a3;fill-opacity:1;stroke:#000000;stroke-width:0.52916664;stroke-miterlimit:4;stroke-dasharray:none;stroke-opacity:1"
       inkscape:connector-curvature="0"
       d="m 30.171308,95.637328 -2.42525,1.71514 -0.3769,0.65 -0.68275,2.616412 -0.0821,0.74287 -0.7811,1.37102 -0.73742,1.52397 -0.85757,0.58989 -1.27815,0.46977 -0.72649,0.46429 -0.91763,-0.235 -1.158,0.0381 -0.57899,0.5189 0.0259,0.39878 0.34428,0.45337 1.01597,0.69916 1.13067,0.62815 -0.12575,0.5517 -0.60632,0.6227 -3.83993,1.55125 -1.14162,0.93404 -0.39876,0.61724 0.40971,1.03235 3.0643,3.08618 0.5189,0.33875 0.45339,1.79708 2.70378,0.74832 1.10884,1.11974 0.95041,0.26747 2.07021,-0.0984 0.83026,0.42058 0.46977,-0.32231 0.27305,-0.58989 1.74249,-1.51853 0.57354,-0.66638 -0.34433,-0.9231 -0.37153,-0.70464 1.05968,-1.40377 1.28363,-1.38745 0.64455,0.0437 1.09792,0.8521 0.90672,1.1853 0.12004,0.91766 0.16944,0.66638 0.85757,1.4202 0.55171,0.4916 1.48571,0.28387 0.34955,0.55713 -0.26784,2.05383 0.22381,0.68278 1.55673,0.0335 1.65505,-0.1637 0.57898,0.0765 0.5954,-0.43151 0.91768,-0.46429 1.31638,0.15865 0.64455,0.91768 0.28945,0.94496 -1.13067,0.35509 -1.17985,-0.19129 -0.57351,0.61725 -0.038,1.19078 0.39872,1.53485 0.79206,1.08701 0.62815,2.44708 0.52435,2.70925 0.80841,1.63322 0.16946,2.02102 -0.12004,0.99415 0.1474,1.78612 -0.34433,0.62818 0.25668,1.67147 0.95586,3.44663 0.42058,1.91727 0.26746,4.17314 -0.6773,1.55676 -0.90676,1.48024 -0.59536,1.74794 -0.45337,1.88447 -0.27863,3.03157 -1.96641,3.53951 -0.83574,0.8794 -0.97229,0.54076 2.11934,2.46893 -1.73149,1.09791 -1.88446,0.34428 -2.08659,-0.61722 -1.3,0.0765 -1.19076,0.79748 -0.46432,0.4807 -0.37687,-0.2294 -0.78113,-2.02107 -0.57353,2.08659 -1.20169,0.66638 -2.05925,-0.14209 -3.44122,0.55714 -1.32731,0.58991 -0.55169,0.92861 -0.4097,1.07058 -0.54073,0.62818 -0.60632,0.33311 -2.66012,0.78655 -0.52435,0.31671 -1.23447,1.72061 -1.61137,0.99412 -1.33826,0.3003 -1.18531,-0.99957 -0.48611,-0.60087 -0.55171,-0.30586 -1.82438,0.0492 0.57356,0.31149 0.37153,0.70462 0.18026,1.35464 -0.20741,1.3273 -0.90128,0.67186 -1.07061,0.12576 -1.6932799,1.37102 -2.23953,0.37155 -1.21259,1.26177 -7.406826,2.13027 -0.42058,0.0222 -1.02139,-0.54075 -1.10887,-0.24024 -1.10339,0.16946 -3.10254,1.19076 -1.50214,-0.235 1.91725,-2.96053 2.57273,-1.49667 0.26781,-0.40966 -0.84116,-0.20211 -4.8941601,1.03785 -1.69873,0.88488 -1.69876,0.25664 0.78655,-1.35464 2.19036,-1.85168 1.17438,-0.87398 0.7155401,-0.34951 0.81936,-1.09244 2.3105,-1.23997 -7.4395601,2.55638 -1.9555,-0.3115 -0.45882,-0.71008 -1.51847,0.33872 -0.57904,-1.73157 2.25592,-2.61639 1.31643,-1.13069 1.56218,-0.61177 1.50212,-0.87942 0.55713,-1.07061 -0.70463,-0.34431 -4.50086,0.27308 -2.1576,-0.22942 0.11497,-0.85212 0.3987,-0.94493 2.23406,-1.61687 1.21264,-0.25664 1.07606,0.1529 1.04873,0.41513 0.85759,0.54081 2.5344401,-0.3115 -1.0596501,-1.03235 -0.18579,-2.10296 -0.80838,-0.70466 1.0323501,-0.97774 1.18528,-0.58989 1.97733,-2.0265 0.70467,-0.31147 3.91094,-0.49162 4.216846,-1.06513 4.17861,-1.47482 -2.14667,-0.82478 -1.0269,-1.09247 -1.64959,2.20128 -1.190726,0.84122 -3.35386,0.45334 -1.05963,-0.24583 -1.49667,-0.68278 -0.46429,0.25664 -0.43154,0.52438 -2.22313,1.07606 -2.3323801,0.25662 2.7147301,-1.97734 3.4467,-3.35928 0.7647,-1.05965 1.09243,-1.85169 -0.33869,-0.82481 -0.71009,-0.46977 2.49624,-3.82357 0.87942,-0.69369 1.59499,-0.11496 1.174406,-0.60632 h 0.5189 l 0.46426,-0.22939 1.0269,-1.1471 -1.58403,-0.73192 -1.638666,-0.3769 -5.06349,0.39875 -0.66638,-0.0874 -0.6282,-0.35512 -0.40963,-0.508 -0.30591,-1.30549 -0.37153,-0.29506 h -1.1416 l -1.13072,0.39876 -0.78658,-0.0384 -0.7701201,-0.57351 1.2344401,-1.33829 -1.5895101,-0.3167 -1.60589,0.26223 -1.33824,-0.40966 -0.0384,-0.84119 0.60632,-0.84119 -0.79748,-0.79748 -0.16372,-1.01049 0.84666,-0.4971 0.92311,0.16372 1.88446,-0.74832 2.4197501,-0.36036 -2.0756301,-0.7374 -0.82478,-0.63362 -0.038,-0.96682 0.16372,-0.83026 2.3979201,-1.40377 2.5563,-0.61725 -0.19129,-0.92313 0.18028,-1.00504 -2.58363,-0.28949 -2.5508701,0.70467 0.27305,-1.91725 0.61177,-1.73699 0.12001,-1.14162 -0.12001,-1.22902 -1.19624,0.52438 -0.13657,-1.73152 -0.51343,-1.1853 -1.77525,0.81933 0.0437,-1.57313 0.51345,-1.09789 0.9231,-0.47524 0.91766,0.2074 1.7096801,-0.0153 1.6496,-0.83024 2.37609,-0.21301 3.77986,0.25661 2.60004,2.33241 0.671826,-0.41516 1.0378,-1.47478 0.4862,-0.16373 3.92186,0.64455 2.43068,0.84667 0.65002,-0.26225 -0.34951,-1.6332 -0.83574,-1.13612 1.04878,-1.48574 1.2781299,-1.01052 0.85759,-0.5025 1.97183,-0.62817 0.86305,-0.58992 0.57359,-1.92273 0.91218,-1.60041 -4.95427,0.83024 -4.7138999,-1.90082 0.74832,-1.34374 0.99412,-0.7647 1.71516,-0.58449 0.1636999,-0.70461 0.86847,-0.58447 1.4366,-1.54032 -0.52985,-2.015572 0.2839,-1.47484 1.03235,-0.96131 0.32229,-1.38197 0.45887,-1.02145 2.09745,-0.36595 2.01557,-0.94498 0.72652,0.0929 2.38699,-0.21857 0.80293,0.38235 -0.18576,-1.67691 1.46389,-0.21859 0.56806,0.33311 0.2514,1.19078 0.66641,0.75925 0.20741,1.31641 -0.44789,1.01597 -0.74832,0.78108 0.68276,0.7975 -1.05418,1.44749 1.13612,-0.61725 1.62229,-1.4147 -0.0874,-1.15253 -0.27305,-1.45843 -0.45334,-1.31641 0.20738,-1.45293 0.91223,-0.90673 2.39792,-0.45884 -0.98322,-1.6496 0.87395,-0.14734 0.95043,0.3443 1.39832,1.28362 1.45844,1.01053 1.50757,0.79748 -1.45293,1.59496 -1.78615,1.10884 z m -41.840746,31.052852 -0.0655,0.74282 -1.13615,-0.934 -0.55171,-1.02145 -3.11346,-0.46432 1.29456,-1.02143 0.63362,0.30028 2.20128,0.0437 0.61722,0.42609 z"
       class="land"
       title="Ireland"
       id="IE" />
  </g>
</svg>
