<?xml version="1.0" encoding="UTF-8" standalone="no"?>
<!-- Created with Inkscape (http://www.inkscape.org/) -->

<svg
   xmlns:dc="http://purl.org/dc/elements/1.1/"
   xmlns:cc="http://creativecommons.org/ns#"
   xmlns:rdf="http://www.w3.org/1999/02/22-rdf-syntax-ns#"
   xmlns:svg="http://www.w3.org/2000/svg"
   xmlns="http://www.w3.org/2000/svg"
   xmlns:sodipodi="http://sodipodi.sourceforge.net/DTD/sodipodi-0.dtd"
   xmlns:inkscape="http://www.inkscape.org/namespaces/inkscape"
   width="12.252017mm"
   height="43.967194mm"
   viewBox="0 0 12.252017 43.967194"
   version="1.1"
   id="svg39828"
   inkscape:version="0.92.0 r15299"
   sodipodi:docname="israel.svg">
  <defs
     id="defs39822" />
  <sodipodi:namedview
     id="base"
     pagecolor="#ffffff"
     bordercolor="#666666"
     borderopacity="1.0"
     inkscape:pageopacity="0.0"
     inkscape:pageshadow="2"
     inkscape:zoom="0.35"
     inkscape:cx="1553.1534"
     inkscape:cy="768.80209"
     inkscape:document-units="mm"
     inkscape:current-layer="layer1"
     showgrid="false"
     fit-margin-top="0"
     fit-margin-left="0"
     fit-margin-right="0"
     fit-margin-bottom="0"
     inkscape:window-width="1920"
     inkscape:window-height="1017"
     inkscape:window-x="1912"
     inkscape:window-y="-8"
     inkscape:window-maximized="1" />
  <metadata
     id="metadata39825">
    <rdf:RDF>
      <cc:Work
         rdf:about="">
        <dc:format>image/svg+xml</dc:format>
        <dc:type
           rdf:resource="http://purl.org/dc/dcmitype/StillImage" />
        <dc:title></dc:title>
      </cc:Work>
    </rdf:RDF>
  </metadata>
  <g
     inkscape:label="Layer 1"
     inkscape:groupmode="layer"
     id="layer1"
     transform="translate(427.94744,-308.27836)">
    <path
       inkscape:connector-curvature="0"
       id="il"
       class="landxx il"
       d="m -427.88919,332.27618 c 0.46527,-0.63407 2.97762,-3.67152 1.82116,-4.40264 1.98063,-3.29266 2.44588,-7.11704 3.1637,-10.81511 0.21269,-1.13125 0.25256,-2.99092 1.16978,-3.80579 0.67794,-0.61014 -0.3589,-1.93146 0.26587,-2.60674 0.57159,-0.61944 1.96735,0 2.63199,0.0931 1.58187,0.19407 1.36918,-1.43297 1.86103,-2.38607 2.29966,0.11963 0.57159,8.87702 0.77098,11.43723 -0.27916,-1.02223 -1.90089,-2.37144 -3.13715,-2.6998 -1.4622,-0.39346 -1.92747,1.46223 -2.2199,2.60144 -0.31903,1.27744 -1.02357,5.80502 0.82415,5.56709 3.86826,-0.50115 -1.64832,2.12023 -0.90391,4.88514 0.42537,1.54598 4.39996,-1.41701 5.23742,-1.42633 -0.1994,1.39843 -0.13293,2.27442 0,4.50233 0,1.98728 -0.74441,4.56879 -1.3426,6.31016 -1.15647,3.3897 -0.30574,9.21599 -2.60541,12.56049 l -7.47063,-19.81046"
       style="fill:#cbe6a3;fill-opacity:1;fill-rule:evenodd;stroke:#000000;stroke-width:0.14449541;stroke-miterlimit:4;stroke-dasharray:none;stroke-opacity:1">
      <title
         id="title2006">Israel</title>
    </path>
  </g>
</svg>
