<?xml version="1.0" encoding="UTF-8" standalone="no"?>
<!-- Created with Inkscape (http://www.inkscape.org/) -->

<svg
   xmlns:dc="http://purl.org/dc/elements/1.1/"
   xmlns:cc="http://creativecommons.org/ns#"
   xmlns:rdf="http://www.w3.org/1999/02/22-rdf-syntax-ns#"
   xmlns:svg="http://www.w3.org/2000/svg"
   xmlns="http://www.w3.org/2000/svg"
   xmlns:sodipodi="http://sodipodi.sourceforge.net/DTD/sodipodi-0.dtd"
   xmlns:inkscape="http://www.inkscape.org/namespaces/inkscape"
   width="12.314824mm"
   height="17.668695mm"
   viewBox="0 0 12.314824 17.668695"
   version="1.1"
   id="svg9558"
   inkscape:version="0.92.0 r15299"
   sodipodi:docname="luxembourg.svg">
  <defs
     id="defs9552" />
  <sodipodi:namedview
     id="base"
     pagecolor="#ffffff"
     bordercolor="#666666"
     borderopacity="1.0"
     inkscape:pageopacity="0.0"
     inkscape:pageshadow="2"
     inkscape:zoom="0.35"
     inkscape:cx="27.55783"
     inkscape:cy="67.675365"
     inkscape:document-units="mm"
     inkscape:current-layer="layer1"
     showgrid="false"
     fit-margin-top="0"
     fit-margin-left="0"
     fit-margin-right="0"
     fit-margin-bottom="0"
     inkscape:window-width="1920"
     inkscape:window-height="1017"
     inkscape:window-x="1912"
     inkscape:window-y="-8"
     inkscape:window-maximized="1" />
  <metadata
     id="metadata9555">
    <rdf:RDF>
      <cc:Work
         rdf:about="">
        <dc:format>image/svg+xml</dc:format>
        <dc:type
           rdf:resource="http://purl.org/dc/dcmitype/StillImage" />
        <dc:title></dc:title>
      </cc:Work>
    </rdf:RDF>
  </metadata>
  <g
     inkscape:label="Layer 1"
     inkscape:groupmode="layer"
     id="layer1"
     transform="translate(24.300271,-149.07041)">
    <path
       style="fill:#cbe6a3;fill-opacity:1;stroke:#000000;stroke-width:0.52916664;stroke-miterlimit:4;stroke-dasharray:none;stroke-opacity:1"
       inkscape:connector-curvature="0"
       d="m -18.038001,150.47174 -0.120121,0.63907 0.02381,1.42566 0.431535,1.42562 1.026848,1.40928 0.78105,1.01595 1.054365,0.81388 1.780647,0.77018 0.710141,0.16372 0.09816,1.04328 -0.136525,1.10337 -0.617273,0.60632 -0.578909,0.87942 -0.437091,1.06513 -0.453232,2.04833 -0.06588,1.41472 -1.026848,-0.58444 -0.540808,-0.39878 -0.939536,-0.10922 -0.933979,0.3279 -0.699294,0.71554 -0.966787,0.21865 -0.791898,-0.21865 -0.4699,-0.53528 -0.420423,-0.28948 -1.196182,-0.36033 -0.519112,-0.78111 0.398727,-0.36594 0.338931,-0.57899 0.289454,-0.81388 0.365919,-0.74835 -1.174485,-2.07018 -0.245798,-0.63363 -0.961496,-1.16342 0.01058,-0.59539 0.229394,-0.56264 -0.08731,-0.44241 0.136525,-1.0433 0.677333,-0.98867 0.44794,-1.22352 0.759354,-1.67147 1.676664,-2.0101 1.201738,0.3115 0.52996,-0.0111 0.316707,0.7374 z"
       class="land"
       title="Luxembourg"
       id="LU" />
  </g>
</svg>
