<?xml version="1.0" encoding="UTF-8" standalone="no"?>
<!-- Created with Inkscape (http://www.inkscape.org/) -->

<svg
   xmlns:dc="http://purl.org/dc/elements/1.1/"
   xmlns:cc="http://creativecommons.org/ns#"
   xmlns:rdf="http://www.w3.org/1999/02/22-rdf-syntax-ns#"
   xmlns:svg="http://www.w3.org/2000/svg"
   xmlns="http://www.w3.org/2000/svg"
   xmlns:sodipodi="http://sodipodi.sourceforge.net/DTD/sodipodi-0.dtd"
   xmlns:inkscape="http://www.inkscape.org/namespaces/inkscape"
   width="17.331362mm"
   height="19.008158mm"
   viewBox="0 0 17.331362 19.008158"
   version="1.1"
   id="svg27414"
   inkscape:version="0.92.0 r15299"
   sodipodi:docname="montenegro.svg">
  <defs
     id="defs27408" />
  <sodipodi:namedview
     id="base"
     pagecolor="#ffffff"
     bordercolor="#666666"
     borderopacity="1.0"
     inkscape:pageopacity="0.0"
     inkscape:pageshadow="2"
     inkscape:zoom="0.35"
     inkscape:cx="1588.4664"
     inkscape:cy="307.34948"
     inkscape:document-units="mm"
     inkscape:current-layer="layer1"
     showgrid="false"
     fit-margin-top="0"
     fit-margin-left="0"
     fit-margin-right="0"
     fit-margin-bottom="0"
     inkscape:window-width="1920"
     inkscape:window-height="1017"
     inkscape:window-x="1912"
     inkscape:window-y="-8"
     inkscape:window-maximized="1" />
  <metadata
     id="metadata27411">
    <rdf:RDF>
      <cc:Work
         rdf:about="">
        <dc:format>image/svg+xml</dc:format>
        <dc:type
           rdf:resource="http://purl.org/dc/dcmitype/StillImage" />
        <dc:title></dc:title>
      </cc:Work>
    </rdf:RDF>
  </metadata>
  <g
     inkscape:label="Layer 1"
     inkscape:groupmode="layer"
     id="layer1"
     transform="translate(437.29065,-211.14473)">
    <g
       id="me"
       style="fill:#cbe6a3;fill-opacity:1;stroke:#000000;stroke-width:0.10870087;stroke-miterlimit:4;stroke-dasharray:none;stroke-opacity:1"
       transform="matrix(1.3292939,0,0,1.3292939,-2304.4071,-298.50413)">
      <title
         id="title1723">Montenegro</title>
      <path
         inkscape:connector-curvature="0"
         id="me-"
         class="landxx me"
         d="m 1405.71,391.606 c 1.88,-0.31 -1.89,-4.521 1.08,-3.888 -0.85,-1.522 1.82,-3.858 2.38,-2.016 0.4,-0.957 -0.72,-1.325 -0.58,-2.232 1.2,0.398 1.51,1.121 2.52,1.997 1.38,1.191 1.81,1.734 3.44,2.555 0.63,0.32 2.5,0.108 2.89,0.8 0.6,1.056 -0.96,0.979 -1.12,1.113 -0.5,0.407 1.31,1.498 0.4,1.958 -0.61,0.312 -1.36,0.703 -1.88,-0.03 -0.28,-0.4 -0.48,-1.239 -1.11,-0.519 -1.62,1.831 -2.17,3.865 -1.4,6.237 -1.17,-0.666 -2.39,-1.857 -3.17,-2.942 -0.24,-0.332 -2.24,-2.006 -2.65,-1.95 0.71,-0.316 0.56,-0.255 1.36,0.14 0.1,-1.218 -2.52,0.819 -2.16,-1.223"
         style="fill:#cbe6a3;fill-opacity:1;fill-rule:evenodd;stroke:#000000;stroke-width:0.10870087;stroke-miterlimit:4;stroke-dasharray:none;stroke-opacity:1" />
      <circle
         id="me."
         class="circlexx me"
         r="6.0130301"
         cy="390.20001"
         cx="1410.66"
         style="opacity:0;fill:#cbe6a3;fill-opacity:1;stroke:#000000;stroke-width:0.10870087;stroke-miterlimit:4;stroke-dasharray:none;stroke-opacity:1" />
    </g>
  </g>
</svg>
