<?xml version="1.0" encoding="UTF-8" standalone="no"?>
<!-- Created with Inkscape (http://www.inkscape.org/) -->

<svg
   xmlns:dc="http://purl.org/dc/elements/1.1/"
   xmlns:cc="http://creativecommons.org/ns#"
   xmlns:rdf="http://www.w3.org/1999/02/22-rdf-syntax-ns#"
   xmlns:svg="http://www.w3.org/2000/svg"
   xmlns="http://www.w3.org/2000/svg"
   xmlns:sodipodi="http://sodipodi.sourceforge.net/DTD/sodipodi-0.dtd"
   xmlns:inkscape="http://www.inkscape.org/namespaces/inkscape"
   width="120.59857mm"
   height="95.02713mm"
   viewBox="0 0 120.59857 95.02713"
   version="1.1"
   id="svg47291"
   inkscape:version="0.92.0 r15299"
   sodipodi:docname="morocco.svg">
  <defs
     id="defs47285" />
  <sodipodi:namedview
     id="base"
     pagecolor="#ffffff"
     bordercolor="#666666"
     borderopacity="1.0"
     inkscape:pageopacity="0.0"
     inkscape:pageshadow="2"
     inkscape:zoom="0.35"
     inkscape:cx="227.90281"
     inkscape:cy="179.57883"
     inkscape:document-units="mm"
     inkscape:current-layer="layer1"
     showgrid="false"
     fit-margin-top="0"
     fit-margin-left="0"
     fit-margin-right="0"
     fit-margin-bottom="0"
     inkscape:window-width="1920"
     inkscape:window-height="1017"
     inkscape:window-x="1912"
     inkscape:window-y="-8"
     inkscape:window-maximized="1" />
  <metadata
     id="metadata47288">
    <rdf:RDF>
      <cc:Work
         rdf:about="">
        <dc:format>image/svg+xml</dc:format>
        <dc:type
           rdf:resource="http://purl.org/dc/dcmitype/StillImage" />
        <dc:title></dc:title>
      </cc:Work>
    </rdf:RDF>
  </metadata>
  <g
     inkscape:label="Layer 1"
     inkscape:groupmode="layer"
     id="layer1"
     transform="translate(77.308214,-101.31977)">
    <path
       inkscape:connector-curvature="0"
       id="ma"
       class="landxx ma"
       d="m -77.255008,195.9317 c 0.465245,-0.50646 1.954056,-2.87525 2.472484,-3.06669 1.887605,-0.68457 3.948005,-0.7723 5.88877,-1.20035 3.602394,-0.79491 7.271237,-1.93543 9.996302,-4.54617 2.671881,-2.56023 5.450105,-4.57144 8.24162,-6.94422 2.671882,-2.27177 4.71899,-5.30256 6.872441,-8.06085 1.448943,-1.87166 4.785466,-7.2606 1.967347,-9.3024 -1.090017,-0.7896 -1.847713,-0.81618 -1.156468,-2.27973 0.691224,-1.45293 0.624751,-2.90584 0.704514,-4.49036 0.212686,-4.41193 1.80784,-6.38062 4.506302,-9.66795 1.541994,-1.87962 1.116621,-3.79249 1.767972,-5.95393 0.465243,-1.56456 1.754659,-2.77688 2.924437,-3.84163 2.499087,-2.27711 4.479724,-5.08057 7.616873,-6.4976 3.416263,-1.54331 7.045235,-2.749 10.30202,-4.606 6.4603577,-3.67552 9.5576127,-12.62829 12.0035157,-19.21761 0.239268,-0.63674 1.090017,-3.88552 2.073712,-3.78582 1.20965104,0.11963 2.432589,-0.36557 3.456157,-0.91722 1.302705,-0.69656 1.55526,1.02753 1.927476,1.95539 0.731115,1.79187 1.701498,3.00951 3.283363,4.13143 3.2966523,2.34222 6.0349813,1.6869 9.8101703,1.23492 3.123859,-0.37353 7.098447,1.52737 8.999337,-2.14547 0,1.19636 0.29243,1.49412 0.46525,2.40204 0.17281,0.97304 1.94076,1.46486 0.39879,-0.10634 0.83746,1.15914 2.32627,1.75067 3.66884,1.08203 1.36918,-0.68192 2.19335,0.72313 3.03079,1.5021 0.90393,0.83612 2.51237,1.30935 3.05738,2.48845 0.61148,1.34791 -0.71782,2.58282 1.15649,3.34982 -1.01027,0.79625 -0.69124,2.25845 -0.49185,3.32987 0.30575,1.6962 -0.26584,3.18766 0,4.82402 0.15953,1.31466 1.01028,2.15346 0.67796,3.56515 -0.49185,2.12289 -0.25258,2.87659 0.7577,4.74426 0.51842,0.95045 0,1.7972 0.57158,2.66789 0.7577,1.29474 1.95406,1.80918 3.08397,2.70114 2.08698,1.64432 -4.1474,4.37469 -0.81088,5.63619 -3.44287,0.88266 -15.48628,-3.25012 -17.25423,1.41571 -0.91722,2.43658 -3.323229,3.36444 -5.92866,3.14643 -1.967344,-0.16615 -4.38667,2.6453 -1.701499,3.38172 -2.273085,2.07636 1.900897,3.61434 0.903933,4.59935 -1.143198,1.12592 -3.123835,0.71917 -4.36009,1.61378 -1.276122,0.93847 -2.685169,2.34487 -4.2138493,2.86994 -1.143201,0.39614 -2.445904,0.36158 -3.522631,0.96508 -2.087004,1.16844 -2.937753,3.61833 -4.466434,5.33312 -1.75465496,1.96603 -5.011441,2.73436 -7.563686,2.83538 -1.914186,0.0798 -3.9878757,-0.72978 -4.7588617,1.55793 -0.824169,2.44058 -3.230202,0.6128 -5.144362,0.75505 -1.355889,0.093 -2.153478,0.77629 -3.017518,1.71744 -0.890619,0.95709 -1.927473,0.75504 -3.030781,1.19636 -1.276122,0.50913 -2.060397,1.76929 -3.083964,2.61738 -1.076727,0.90126 -2.4193,1.46223 -3.522631,2.35684 -2.153452,1.74536 -4.041058,1.99926 -3.82837,5.0194 0.212685,3.00423 -0.132924,6.33411 -0.438666,9.32103 -0.146214,1.26548 -40.144663,0.31238 -44.225591,0.31238"
       style="fill:#cbe6a3;fill-opacity:1;fill-rule:evenodd;stroke:#000000;stroke-width:0.14449541;stroke-miterlimit:4;stroke-dasharray:none;stroke-opacity:1">
      <title
         id="title1965">Morocco</title>
    </path>
  </g>
</svg>
