<?xml version="1.0" encoding="UTF-8" standalone="no"?>
<!-- Created with Inkscape (http://www.inkscape.org/) -->

<svg
   xmlns:dc="http://purl.org/dc/elements/1.1/"
   xmlns:cc="http://creativecommons.org/ns#"
   xmlns:rdf="http://www.w3.org/1999/02/22-rdf-syntax-ns#"
   xmlns:svg="http://www.w3.org/2000/svg"
   xmlns="http://www.w3.org/2000/svg"
   xmlns:sodipodi="http://sodipodi.sourceforge.net/DTD/sodipodi-0.dtd"
   xmlns:inkscape="http://www.inkscape.org/namespaces/inkscape"
   width="34.080906mm"
   height="30.222622mm"
   viewBox="0 0 34.080906 30.222622"
   version="1.1"
   id="svg17520"
   inkscape:version="0.92.0 r15299"
   sodipodi:docname="netherlands.svg">
  <defs
     id="defs17514" />
  <sodipodi:namedview
     id="base"
     pagecolor="#ffffff"
     bordercolor="#666666"
     borderopacity="1.0"
     inkscape:pageopacity="0.0"
     inkscape:pageshadow="2"
     inkscape:zoom="0.35"
     inkscape:cx="-1245.273"
     inkscape:cy="-1012.1753"
     inkscape:document-units="mm"
     inkscape:current-layer="layer1"
     showgrid="false"
     fit-margin-top="0"
     fit-margin-left="0"
     fit-margin-right="0"
     fit-margin-bottom="0"
     inkscape:window-width="1920"
     inkscape:window-height="1017"
     inkscape:window-x="1912"
     inkscape:window-y="-8"
     inkscape:window-maximized="1" />
  <metadata
     id="metadata17517">
    <rdf:RDF>
      <cc:Work
         rdf:about="">
        <dc:format>image/svg+xml</dc:format>
        <dc:type
           rdf:resource="http://purl.org/dc/dcmitype/StillImage" />
        <dc:title></dc:title>
      </cc:Work>
    </rdf:RDF>
  </metadata>
  <g
     inkscape:label="Layer 1"
     inkscape:groupmode="layer"
     id="layer1"
     transform="translate(-312.46956,149.194)">
    <g
       style="fill:#cbe6a3;fill-opacity:1;fill-rule:evenodd;stroke:#000000;stroke-width:0.10870087;stroke-miterlimit:4;stroke-dasharray:none;stroke-opacity:1"
       class="landxx coastxx nl nlx eu"
       id="nlx"
       transform="matrix(1.3292939,0,0,1.3292939,-1419.9671,-547.65736)">
      <path
         style="fill:#cbe6a3;fill-opacity:1;stroke:#000000;stroke-width:0.10870087;stroke-miterlimit:4;stroke-dasharray:none;stroke-opacity:1"
         d="m 1306.49,314.13 c -0.24,0.02 -0.47,0.05 -0.71,0.07 0.76,0.317 1.67,1.39 2.51,0.576 -0.49,-0.436 -1.13,-0.728 -1.8,-0.648"
         id="path6448"
         inkscape:connector-curvature="0" />
      <path
         style="fill:#cbe6a3;fill-opacity:1;stroke:#000000;stroke-width:0.10870087;stroke-miterlimit:4;stroke-dasharray:none;stroke-opacity:1"
         d="m 1306.78,313.77 c 1.2,-0.455 1.94,1.582 3.1,0.72 -0.9,-0.427 -2.13,-1.809 -3.1,-0.72"
         id="path6450"
         inkscape:connector-curvature="0" />
      <path
         style="fill:#cbe6a3;fill-opacity:1;stroke:#000000;stroke-width:0.10870087;stroke-miterlimit:4;stroke-dasharray:none;stroke-opacity:1"
         d="m 1312.9,303.77 c 0.62,-0.24 1.05,-0.809 0.58,-1.44 -0.53,0.298 -0.85,0.837 -0.58,1.44"
         id="path6452"
         inkscape:connector-curvature="0" />
      <path
         style="fill:#cbe6a3;fill-opacity:1;stroke:#000000;stroke-width:0.10870087;stroke-miterlimit:4;stroke-dasharray:none;stroke-opacity:1"
         d="m 1314.56,301.46 c -0.25,0.146 -0.53,0.282 -0.72,0.504 0.24,-0.168 0.48,-0.336 0.72,-0.504"
         id="path6454"
         inkscape:connector-curvature="0" />
      <path
         style="fill:#cbe6a3;fill-opacity:1;stroke:#000000;stroke-width:0.10870087;stroke-miterlimit:4;stroke-dasharray:none;stroke-opacity:1"
         d="m 1315.86,300.81 c 0.75,-0.233 1.54,-0.381 2.23,-0.792 -0.78,0.133 -1.56,0.348 -2.23,0.792"
         id="path6456"
         inkscape:connector-curvature="0" />
      <path
         style="fill:#cbe6a3;fill-opacity:1;stroke:#000000;stroke-width:0.10870087;stroke-miterlimit:4;stroke-dasharray:none;stroke-opacity:1"
         d="m 1319.02,300.17 c 0.53,-0.01 1.03,-0.133 1.51,-0.36 -0.54,0 -1.04,0.113 -1.51,0.36"
         id="path6458"
         inkscape:connector-curvature="0" />
      <path
         style="fill:#cbe6a3;fill-opacity:1;stroke:#000000;stroke-width:0.10870087;stroke-miterlimit:4;stroke-dasharray:none;stroke-opacity:1"
         d="m 1303.33,317.66 c 0.12,-1.335 4.84,-0.285 5.76,-0.288 -0.82,0.827 -2.14,1.447 -3.27,0.919 -0.73,-0.346 -2.22,0.05 -2.49,-0.631"
         id="path6482"
         inkscape:connector-curvature="0" />
      <path
         style="fill:#cbe6a3;fill-opacity:1;fill-rule:evenodd;stroke:#000000;stroke-width:0.10870087;stroke-miterlimit:4;stroke-dasharray:none;stroke-opacity:1"
         d="m 1324.89,299.86 c -2.52,0.32 -5.53,0.511 -7.36,2.419 -0.84,0.876 -2.1,1.718 -3.33,1.915 -0.8,0.129 -1.61,0.355 -1.91,1.209 -1.05,2.914 -1.88,4.738 -4.14,6.955 -0.87,0.858 1.31,1.551 1.82,1.713 1.21,0.385 2.72,-0.589 3.12,0.303 -1.56,-0.3 -3.22,1.166 -4.73,0.504 1.35,0.861 -0.22,0.225 -0.81,0.604 0.56,0.394 1.62,0.198 1.71,1.109 -1.11,0.348 -1.75,-0.749 -2.52,-1.31 -0.95,0 -2.14,-0.308 -2.72,0.705 0.73,0.963 2.09,0.766 3.13,0.706 0.85,-0.05 3.59,1.406 3.42,-0.302 0.53,0.397 1.29,0.605 1.72,-0.101 0.35,0.863 1.65,0.584 2.11,0 0.55,2.027 3.5,2.006 5.24,2.721 -1.18,1.369 -2.33,3.389 0.71,3.427 1.31,0.02 -0.22,-2.04 0,-2.419 0.69,-1.172 2.09,-2.405 1.61,-3.931 -0.24,-0.778 -0.77,-1.727 -1.61,-2.016 -0.1,-1.767 1.81,0.07 1.31,-1.31 0.59,0.299 4.01,0.649 4.23,-0.302 0.11,-0.428 -0.62,-0.973 0,-1.311 0.28,-0.09 0.47,-0.242 0.71,-0.403 2.57,-2.564 -1.92,-2.542 -1.21,-3.729 0.53,-0.888 2.34,0.134 2.42,-0.706 0.11,-1.123 0.75,-1.952 1.01,-3.024 0.4,-1.649 -2.33,-3.63 -3.93,-3.426 z m -6.35,7.156 c 0.24,-0.03 0.52,-0.02 0.8,0.101 0.84,0.367 0.48,0.925 0,1.31 -0.47,0.377 -0.93,0.839 -1.41,1.209 -0.71,0.555 -1.85,-0.535 -2.62,-0.504 0.24,-0.513 0.77,-0.843 1.31,-1.007 0.67,-0.35 1.19,-1.025 1.92,-1.109 z"
         class="landxx nl nlx eu"
         id="path6484"
         inkscape:connector-curvature="0" />
    </g>
  </g>
</svg>
