<?xml version="1.0" encoding="UTF-8" standalone="no"?>
<!-- Created with Inkscape (http://www.inkscape.org/) -->

<svg
   xmlns:dc="http://purl.org/dc/elements/1.1/"
   xmlns:cc="http://creativecommons.org/ns#"
   xmlns:rdf="http://www.w3.org/1999/02/22-rdf-syntax-ns#"
   xmlns:svg="http://www.w3.org/2000/svg"
   xmlns="http://www.w3.org/2000/svg"
   xmlns:sodipodi="http://sodipodi.sourceforge.net/DTD/sodipodi-0.dtd"
   xmlns:inkscape="http://www.inkscape.org/namespaces/inkscape"
   width="59.548706mm"
   height="72.282738mm"
   viewBox="0 0 59.548706 72.282738"
   version="1.1"
   id="svg8992"
   inkscape:version="0.92.0 r15299"
   sodipodi:docname="netherlands.svg">
  <defs
     id="defs8986" />
  <sodipodi:namedview
     id="base"
     pagecolor="#ffffff"
     bordercolor="#666666"
     borderopacity="1.0"
     inkscape:pageopacity="0.0"
     inkscape:pageshadow="2"
     inkscape:zoom="0.35"
     inkscape:cx="216.81871"
     inkscape:cy="559.45532"
     inkscape:document-units="mm"
     inkscape:current-layer="layer1"
     showgrid="false"
     fit-margin-top="0"
     fit-margin-left="0"
     fit-margin-right="0"
     fit-margin-bottom="0"
     inkscape:window-width="1920"
     inkscape:window-height="1017"
     inkscape:window-x="1912"
     inkscape:window-y="-8"
     inkscape:window-maximized="1" />
  <metadata
     id="metadata8989">
    <rdf:RDF>
      <cc:Work
         rdf:about="">
        <dc:format>image/svg+xml</dc:format>
        <dc:type
           rdf:resource="http://purl.org/dc/dcmitype/StillImage" />
        <dc:title></dc:title>
      </cc:Work>
    </rdf:RDF>
  </metadata>
  <g
     inkscape:label="Layer 1"
     inkscape:groupmode="layer"
     id="layer1"
     transform="translate(74.375544,-224.57315)">
    <path
       style="fill:#cbe6a3;fill-opacity:1;stroke:#000000;stroke-width:0.52916664;stroke-miterlimit:4;stroke-dasharray:none;stroke-opacity:1"
       inkscape:connector-curvature="0"
       d="m -45.220742,231.2067 -0.650082,-0.35512 3.446727,-1.0214 2.179373,-0.31147 0.38788,0.13658 -3.938323,1.34371 z m 7.652543,-1.6605 3.02604,-0.42061 -0.01587,-0.15843 -0.797454,-0.25664 -2.5781,0.0437 -0.824971,0.18005 0.169598,0.3003 z m 9.220465,-1.75339 -0.650081,-0.10922 -1.889919,0.54623 -0.130969,0.25143 0.524404,0.18577 z m -18.773775,5.20007 -1.25095,-0.0545 -1.824302,1.63322 0.240242,0.30025 z m 25.940015,-8.15515 h -0.710142 l -1.316302,0.51348 -0.409575,0.68278 1.420019,-0.0874 z m -42.76381,56.03711 -1.955535,1.016 -2.55614,-0.35512 -1.944687,-0.7429 -2.507192,0.14208 -1.157949,0.3878 0.45884,2.11934 0.349594,0.67188 0.453231,0.43699 0.600869,0.0874 0.693738,-0.52435 0.966787,-0.55169 1.556809,0.25665 1.130564,0.508 0.404284,0.52983 0.748241,0.50252 1.092465,0.12002 2.11402,-0.96134 2.032,-1.46936 0.595313,-1.02143 0.223837,-0.92313 -1.75895,0.63362 z m 48.843405,-47.22103 -2.135716,-0.46432 -1.376627,-0.68276 -0.857515,-1.23447 -1.474787,-1.68783 -3.872707,0.17497 -3.222625,0.48612 -4.462727,0.20783 -2.889514,0.81934 -5.23293,2.73113 -1.316302,1.39285 -1.343818,2.99881 -4.555332,3.4521 -2.654828,1.32731 -0.748242,-0.50797 -1.07606,-0.33314 -0.857515,1.75339 -0.52996,1.57856 -1.780646,9.24758 -1.212586,3.34294 -1.633273,2.80757 -2.567252,3.43027 -1.179777,1.16893 -0.720989,0.44243 -0.901436,1.6496 -0.720989,1.97734 -0.491596,0.9231 2.878667,3.39752 0.360362,0.97226 0.377031,0.56809 -2.725737,0.35515 1.158081,1.09789 1.458383,0.78655 0.977636,0.3769 0.535252,0.792 -1.048544,0.36595 -0.988748,0.0222 -3.91107,-2.9114 -2.173817,-0.5353 -2.993496,0.16946 -0.753798,0.30586 -0.775493,0.88488 1.098021,1.34371 1.015735,0.79203 1.633273,0.10369 1.966383,0.99412 2.829454,-0.83024 2.032,1.02143 1.338262,0.36594 1.201738,0.61177 1.059656,0.13084 0.464344,-0.27305 -0.295275,-1.48027 0.863071,-0.79203 0.955939,-0.36594 0.431536,0.64455 0.879475,0.65548 0.688181,0.005 1.868223,-1.70421 0.436827,0.33872 0.404283,0.60626 0.08731,0.48618 0.07091,0.51342 0.420688,0.21294 1.469231,-0.10922 0.748242,-0.92311 0.584464,-0.57901 0.437091,0.39328 0.21299,1.13612 0.404019,1.48031 1.753393,1.64957 1.480344,0.46977 1.819011,-0.32229 0.720989,-0.29506 0.48604,0.2458 0.486304,0.87397 1.048544,0.99957 2.201333,0.70464 0.677333,0.39872 0.469636,0.67186 -0.136525,0.95591 -1.048544,2.37607 -0.13679,0.69916 0.142082,0.23503 -0.207169,0.43698 -1.365779,1.58949 -0.119857,0.56261 0.453232,0.9122 0.377031,0.75383 v 0 l 2.102908,-0.83029 0.944827,1.36557 1.556809,0.0492 0.835818,-3.74164 -0.639233,-1.09243 -0.791898,-0.55716 -0.923131,-0.27305 -0.425979,-0.51888 -0.147373,-0.59539 0.163512,-0.36595 1.087173,0.10922 0.338667,-0.3878 2.589212,-2.20673 0.109009,-0.42608 -0.360363,-0.24022 -0.469635,-0.12578 -0.120121,-0.46429 0.01587,-0.61177 1.381919,-3.19543 0.409575,-1.36556 0.09287,-0.96682 -0.08731,-0.95586 -0.797454,-1.50212 -0.770202,-1.20171 -0.02646,-0.95591 -0.562768,-0.5025 -1.594909,-2.57273 v -0.99411 l 0.901171,-0.77563 1.261798,-0.4916 0.420688,-0.40968 0.753798,-0.25664 2.004483,0.74289 0.895879,0.64453 0.251354,-0.13084 0.808567,-0.69916 1.420019,0.10922 3.435879,-1.40925 0.513556,-0.67731 0.382323,-0.72101 0.03334,-0.31671 -1.332706,-1.39287 -0.03836,-0.51345 0.174889,-0.57899 0.377031,-0.45884 0.786607,-0.31147 0.835554,-0.61177 1.873514,-1.73701 0.650082,-1.50757 0.202141,-1.63867 0.03837,-1.22354 -0.513292,-0.97227 -0.519112,-0.62814 -0.704586,0.0984 -1.37107,-0.0492 -1.283494,-0.54621 -0.704586,-0.8849 -0.175154,-0.77565 0.322263,-0.4916 0.09842,-0.60084 -0.207169,-0.60632 0.08202,-0.50797 0.578908,-0.40966 4.058444,0.0111 0.305858,-0.44791 0.27305,-2.35969 1.016,-3.59957 0.95594,-2.01012 0.158485,-0.84667 -0.01588,-4.77943 z m -53.125686,40.27852 1.338262,-0.3878 2.026444,1.64957 1.900766,-0.53528 -0.114829,-0.45881 -0.322262,-0.43153 -1.496748,-1.34917 -2.452687,-0.16944 -1.387211,0.41513 0.0053,0.48615 z m 16.179006,-33.07929 1.518708,-1.80255 v -2.86769 l -2.24499,2.34331 -0.4699,1.40927 0.267759,0.42059 z"
       class="land"
       title="Netherlands"
       id="NL" />
  </g>
</svg>
