<?xml version="1.0" encoding="UTF-8" standalone="no"?>
<!-- Created with Inkscape (http://www.inkscape.org/) -->

<svg
   xmlns:dc="http://purl.org/dc/elements/1.1/"
   xmlns:cc="http://creativecommons.org/ns#"
   xmlns:rdf="http://www.w3.org/1999/02/22-rdf-syntax-ns#"
   xmlns:svg="http://www.w3.org/2000/svg"
   xmlns="http://www.w3.org/2000/svg"
   xmlns:sodipodi="http://sodipodi.sourceforge.net/DTD/sodipodi-0.dtd"
   xmlns:inkscape="http://www.inkscape.org/namespaces/inkscape"
   width="50.653542mm"
   height="102.27509mm"
   viewBox="0 0 50.653542 102.27509"
   version="1.1"
   id="svg8423"
   inkscape:version="0.92.0 r15299"
   sodipodi:docname="portugal.svg">
  <defs
     id="defs8417" />
  <sodipodi:namedview
     id="base"
     pagecolor="#ffffff"
     bordercolor="#666666"
     borderopacity="1.0"
     inkscape:pageopacity="0.0"
     inkscape:pageshadow="2"
     inkscape:zoom="0.35"
     inkscape:cx="-528.82826"
     inkscape:cy="460.04169"
     inkscape:document-units="mm"
     inkscape:current-layer="layer1"
     showgrid="false"
     fit-margin-top="0"
     fit-margin-left="0"
     fit-margin-right="0"
     fit-margin-bottom="0"
     inkscape:window-width="1920"
     inkscape:window-height="1017"
     inkscape:window-x="1912"
     inkscape:window-y="-8"
     inkscape:window-maximized="1" />
  <metadata
     id="metadata8420">
    <rdf:RDF>
      <cc:Work
         rdf:about="">
        <dc:format>image/svg+xml</dc:format>
        <dc:type
           rdf:resource="http://purl.org/dc/dcmitype/StillImage" />
        <dc:title></dc:title>
      </cc:Work>
    </rdf:RDF>
  </metadata>
  <g
     inkscape:label="Layer 1"
     inkscape:groupmode="layer"
     id="layer1"
     transform="translate(-122.91021,-168.27761)">
    <path
       style="fill:#cbe6a3;fill-opacity:1;stroke:#000000;stroke-width:1.99999988;stroke-miterlimit:4;stroke-dasharray:none;stroke-opacity:1"
       d="m 535.9043,637.0332 -3.28321,1.73242 -12.49023,3.57227 -2.99219,1.30078 -5.41015,3.42774 -5.47071,5.24414 -5.86133,8.44336 -0.5371,5.22265 2.39453,4.60352 5.26367,0.51758 -3.19922,3.59179 0.31055,7.10157 3.88086,21.18164 3.69531,9.99218 0.86719,5.22266 0.24609,4.33594 -1.07227,8.6289 -0.61914,12.50977 -2.72461,7.74219 -2.35351,3.44726 -5.80078,26.28125 -0.82617,6.02735 2.04296,2.10742 0.78516,2.72461 -9.64258,22.23437 -8.36133,20.83008 -5.98632,8.71289 -3.94336,2.60156 -3.17969,3.94141 1.01172,4.02734 0.26758,2.70313 -3.57227,10.11719 -0.99023,11.27148 -2.51954,7.96875 -0.28906,4.00391 0.33008,5.01758 3.7168,1.71289 3.0957,0.72265 6.04883,-1.09375 6.75195,-2.20898 2.58008,-6.8125 7.92773,-13.46094 5.03711,-3.7168 4.39649,-0.9082 -8.48438,5.9668 -3.61328,7.03906 1.36328,7.41211 -2.58008,4.15039 -4.16992,3.71484 -4.89258,0.66016 -4.21289,2.29297 2.72657,8.6914 -0.57813,6.6875 1.52734,0.74414 5.26368,-1.25976 10.48828,-4.19141 3.07617,0.16602 3.63281,-0.59961 3.75782,2.62305 3.82031,4.29297 -12.32617,-1.6504 4.06836,10.81836 0.49414,8.52539 -4.43946,16.49415 3.26172,6.35937 1.77539,10.1582 -1.54687,10.23828 0.26758,11.74805 -6.50391,19.19922 -4.15039,9.6816 3.61328,1.1778 5.03711,-4.3145 6.33789,0.082 8.19726,-3.3848 6.56446,1.5469 20.14844,1.6738 11.41796,5.1601 6.10938,-0.025 19.73633,-11.7481 5.07812,-0.8047 -3.52929,-18.0449 -1.67188,-6.93555 -0.43555,-4.5 3.44922,-10.40625 3.77735,-4.25195 5.01757,-8.77344 6.19336,-7.30859 6.54297,-1.73438 2.89063,-1.07422 2.41601,-5.65624 1.36133,-4.83008 -0.99023,-0.47461 -7.63868,0.99023 -13.70898,-20.33398 0.43359,-3.24219 1.71289,-4.81055 1.13477,-6.08984 0.28906,-4.81055 3.57227,-4.14843 5.4707,-4.16993 4.60352,-5.94726 2.3125,-5.80078 0.47461,-5.28516 -2.60157,-3.77734 -7.49218,-2.08594 -7.74219,-15.11133 -1.71484,-9.47656 -1.58789,-0.99024 -4.76954,-4.31445 -4.58398,-8.13477 -0.66016,-1.27929 4.72657,-1.42383 19.48828,-0.0586 4.06836,-1.79688 0.61914,-0.61914 3.55078,-6.33789 3.71484,-10.42578 0.86719,-6.37891 -1.17774,-2.64258 -6.46093,-6.46093 -0.28907,-1.90039 1.03126,-3.05469 3.83984,-3.26172 5.18164,-3.7168 2.82812,-3.19922 -0.67968,-2.51953 -1.50782,-2.62109 -0.24804,-2.45703 0.94922,-3.01367 0.35156,-10.32227 0.66211,-2.64258 -1.01367,-9.41406 -1.25782,-7.70117 -4.10937,-9.99219 0.74414,-2.20898 1.89844,-1.85743 6.21484,-3.46875 4.95508,-8.17578 7.20508,-6.85351 9.43359,-5.51172 6.60742,-6.13086 2.59961,-4.70703 1.83789,-1.24024 -0.53711,-2.1875 -1.23828,-3.17968 -3.75781,-3.11719 -4.85156,-1.77539 -5.38868,0.084 -3.34374,-0.64062 -0.97071,-2.43555 0.37305,-6.60547 -0.28906,-6.54492 -1.03125,-3.01367 -2.49805,-2.27149 -4.93555,0.59961 -4.27343,-1.85937 -3.24024,-0.43164 -1.87891,1.46484 -9.55859,-0.43359 -3.98437,-1.05274 -2.78711,-1.30078 -1.77539,0.72266 -1.01172,1.2793 -0.16602,2.00195 -0.66211,2.64258 -3.42578,2.39648 -7.82422,2.37305 -6.31836,-0.18555 -5.80078,-1.69336 -1.85742,-1.25781 -2.78711,-1.11524 -11.78906,1.38282 -1.42383,-1.01172 -4.06641,2.45703 -5.98828,2.93164 -3.36523,0.16602 -1.2168,-0.61915 -0.36523,-1.44726 -2.51758,-4.5625 0.66211,-2.41602 4.83008,-7.08007 -0.53711,-1.69336 -1.98243,-2.29102 -1.77539,-3.30273 -0.51562,-1.71485 z"
       transform="scale(0.26458333)"
       id="PT"
       inkscape:connector-curvature="0" />
  </g>
</svg>
