<?xml version="1.0" encoding="UTF-8" standalone="no"?>
<!-- Created with Inkscape (http://www.inkscape.org/) -->

<svg
   xmlns:dc="http://purl.org/dc/elements/1.1/"
   xmlns:cc="http://creativecommons.org/ns#"
   xmlns:rdf="http://www.w3.org/1999/02/22-rdf-syntax-ns#"
   xmlns:svg="http://www.w3.org/2000/svg"
   xmlns="http://www.w3.org/2000/svg"
   xmlns:sodipodi="http://sodipodi.sourceforge.net/DTD/sodipodi-0.dtd"
   xmlns:inkscape="http://www.inkscape.org/namespaces/inkscape"
   width="33.116089mm"
   height="59.187344mm"
   viewBox="0 0 33.116089 59.187344"
   version="1.1"
   id="svg16914"
   inkscape:version="0.92.0 r15299"
   sodipodi:docname="portugal.svg">
  <defs
     id="defs16908" />
  <sodipodi:namedview
     id="base"
     pagecolor="#ffffff"
     bordercolor="#666666"
     borderopacity="1.0"
     inkscape:pageopacity="0.0"
     inkscape:pageshadow="2"
     inkscape:zoom="0.35"
     inkscape:cx="-397.92628"
     inkscape:cy="171.37686"
     inkscape:document-units="mm"
     inkscape:current-layer="layer1"
     showgrid="false"
     fit-margin-top="0"
     fit-margin-left="0"
     fit-margin-right="0"
     fit-margin-bottom="0"
     inkscape:window-width="1920"
     inkscape:window-height="1017"
     inkscape:window-x="1912"
     inkscape:window-y="-8"
     inkscape:window-maximized="1" />
  <metadata
     id="metadata16911">
    <rdf:RDF>
      <cc:Work
         rdf:about="">
        <dc:format>image/svg+xml</dc:format>
        <dc:type
           rdf:resource="http://purl.org/dc/dcmitype/StillImage" />
        <dc:title></dc:title>
      </cc:Work>
    </rdf:RDF>
  </metadata>
  <g
     inkscape:label="Layer 1"
     inkscape:groupmode="layer"
     id="layer1"
     transform="translate(-88.275733,-134.98945)">
    <path
       style="fill:#cbe6a3;fill-opacity:1;fill-rule:evenodd;stroke:#000000;stroke-width:0.14449541;stroke-miterlimit:4;stroke-dasharray:none;stroke-opacity:1"
       d="m 90.215157,167.83237 c -0.13293,-0.31903 -0.199394,-0.63673 -0.292445,-0.95709 3.083962,-0.23396 4.147397,-5.24008 5.024731,-7.51583 0.784283,-1.9966 1.22295,-4.20722 1.794547,-6.28092 0.159515,-0.56096 0.691232,-0.65667 1.036849,-1.04615 0.279152,-0.32568 0.305737,-2.4459 -0.478546,-0.18344 0.345616,-2.44989 0.957092,-3.91211 0.425374,-6.38593 -0.172808,-0.80954 -1.409051,-5.06328 0.239273,-5.1005 -2.392729,0.72845 -0.478546,-2.80481 0.797576,-3.34982 1.448934,-0.61679 3.482754,-0.69655 4.665824,-1.81848 -0.14622,0.79891 0.21268,1.2615 1.05014,1.14851 -0.53172,0.37752 -2.33956,2.7995 -0.63806,2.7543 1.39576,-0.0399 2.84469,-1.12724 4.22715,-0.89727 1.82114,0.30175 2.51237,1.02488 4.34679,0.0532 0.59819,-1.95938 3.34983,-0.45861 4.98486,-0.62211 1.90089,-0.19142 0.82416,1.18573 0.95709,2.21194 0.13293,0.66465 2.33956,1.0661 2.84469,1.52736 1.10331,1.00761 -5.8356,6.50025 -6.73952,6.72091 0.78428,-0.19009 0.43866,4.92637 0.45196,5.30256 0,0.70585 0.33232,2.0059 0,2.66124 -0.45196,0.86936 -1.75467,0.52109 -2.04712,1.64035 -0.15951,0.66465 2.20663,3.35913 0.13293,4.05302 -0.81087,0.2632 -0.34561,1.30935 -1.01026,1.70415 -0.98368,0.57426 -3.45616,0.35625 -4.49301,0.0665 0.34561,0.77365 1.07673,1.2296 1.67491,1.78524 0.77099,0.71383 0.13293,1.49678 0.58489,2.41267 0.53171,0.94513 2.60541,2.43659 2.2465,3.5532 -0.61147,1.91684 -2.71176,2.88058 -3.25677,4.82002 -0.46525,1.70416 1.1432,4.87585 3.25677,4.1793 -0.91721,2.19865 -2.41931,1.65497 -3.52263,3.86692 -0.54501,1.09268 -1.59515,1.82246 -2.10028,2.94305 -0.69123,1.51274 0.83746,3.00421 0,4.5196 -1.18307,2.27708 -4.59936,2.54826 -6.593297,1.7334 -2.406022,-0.97969 -5.609621,-1.0847 -7.749784,0.71915 -0.305737,-0.98235 0.412081,-2.30101 0.81087,-3.15176 0.638061,-1.36252 0.54501,-3.10523 1.169778,-4.30159 0.731112,-1.41304 -0.252566,-2.414 -0.172808,-3.82438 0.132929,-2.07769 1.395759,-3.48807 0.132929,-5.56841 0.691233,2.19067 1.515395,-0.21136 1.342587,-1.05147 -0.425374,1.01558 -3.602386,1.33992 -4.692407,1.72276 0.54501,-0.92519 0.199394,-1.98198 0.478546,-2.96698 0.385495,0.15021 0.757697,0.30972 1.143192,0.47854 0.13293,-0.73643 0.651354,-0.87733 1.169779,-1.21098 0.744404,-0.4852 -0.132929,-1.77328 -0.132929,-2.42596 -0.67794,0.89727 -2.964326,4.14606 -4.373377,3.07997 -1.80784,-1.36253 1.302708,-5.27996 1.316001,-7.00272"
       class="landxx pt eu"
       id="path3446"
       inkscape:connector-curvature="0" />
  </g>
</svg>
