<?xml version="1.0" encoding="UTF-8" standalone="no"?>
<!-- Created with Inkscape (http://www.inkscape.org/) -->

<svg
   xmlns:dc="http://purl.org/dc/elements/1.1/"
   xmlns:cc="http://creativecommons.org/ns#"
   xmlns:rdf="http://www.w3.org/1999/02/22-rdf-syntax-ns#"
   xmlns:svg="http://www.w3.org/2000/svg"
   xmlns="http://www.w3.org/2000/svg"
   xmlns:sodipodi="http://sodipodi.sourceforge.net/DTD/sodipodi-0.dtd"
   xmlns:inkscape="http://www.inkscape.org/namespaces/inkscape"
   width="126.61811mm"
   height="75.775879mm"
   viewBox="0 0 126.61811 75.775879"
   version="1.1"
   id="svg4856"
   inkscape:version="0.92.0 r15299"
   sodipodi:docname="russia.svg">
  <defs
     id="defs4850" />
  <sodipodi:namedview
     id="base"
     pagecolor="#ffffff"
     bordercolor="#666666"
     borderopacity="1.0"
     inkscape:pageopacity="0.0"
     inkscape:pageshadow="2"
     inkscape:zoom="1.979899"
     inkscape:cx="239.22709"
     inkscape:cy="69.91637"
     inkscape:document-units="mm"
     inkscape:current-layer="layer1"
     showgrid="false"
     fit-margin-top="0"
     fit-margin-left="0"
     fit-margin-right="0"
     fit-margin-bottom="0"
     inkscape:window-width="1920"
     inkscape:window-height="1057"
     inkscape:window-x="-8"
     inkscape:window-y="-5"
     inkscape:window-maximized="1" />
  <metadata
     id="metadata4853">
    <rdf:RDF>
      <cc:Work
         rdf:about="">
        <dc:format>image/svg+xml</dc:format>
        <dc:type
           rdf:resource="http://purl.org/dc/dcmitype/StillImage" />
        <dc:title></dc:title>
      </cc:Work>
    </rdf:RDF>
  </metadata>
  <g
     inkscape:label="Layer 1"
     inkscape:groupmode="layer"
     id="layer1"
     transform="translate(-2.4588001,-2.0882121)">
    <path
       style="fill:#cbe6a3;fill-opacity:1;stroke:#030303;stroke-width:0.26458333;stroke-opacity:1;stroke-miterlimit:4;stroke-dasharray:none"
       inkscape:connector-curvature="0"
       d="m 128.9883,45.634556 -0.73554,0.78581 -1.21708,0.18521 -0.0185,1.70921 -0.29634,0.35719 -0.69585,-0.0503 -0.56621,-0.59796 -0.9869,-0.508 -0.16668,-0.76465 -0.75407,-0.29104 -0.84402,0.23019 -0.40216,-0.62706 0.16139,-0.67469 -0.889,0.43391 0.33338,0.84403 -0.42069,0.74877 -0.005,0.0106 -0.9525,0.76464 -0.96044,-0.127 0.6694,0.91017 0.44185,1.37583 0.34131,0.44186 0.0873,0.66939 -0.1905,0.42334 -1.38378,-0.34925 -2.07433,1.19327 -0.65881,0.18256 -1.13506,1.08479 -1.07686,0.92604 -0.27252,0.67469 -1.06098,-1.03188 -1.9341,1.16946 -0.33867,-0.55033 -0.71437,0.63235 -0.99219,-0.20108 -0.23813,0.96044 -0.889,1.38112 0.0265,0.56621 0.84402,0.30956 -0.10054,1.9738 -0.68792,0.0503 -0.3175,1.09802 0.30957,0.55562 -1.29646,0.65352 -0.25665,1.42875 -1.10596,0.30163 -0.22225,1.23296 -1.06891,1.10595 -0.27517,-0.81491 -0.3175,-1.77007 -0.41275,-2.81781 0.35719,-1.83885 0.62706,-0.81227 0.0397,-0.64559 1.15358,-0.3122 1.32556,-1.79388 1.27794,-1.51606 1.3335,-1.20915 0.59531,-2.21456 -0.90222,0.13494 -0.4445,1.30175 -1.88119,1.68275 -0.60854,-1.88913 -1.91559,0.52917 -1.85737,2.52942 0.61383,0.89429 -1.65629,0.37571 -1.14565,0.14816 0.0529,-1.0451 -1.153583,-0.22225 -0.91811,0.71437 -2.26747,-0.24871 -2.43946,0.42863 -2.40242,2.73315 -2.84427,3.11679 1.16946,0.16139 0.36512,0.79375 0.71967,0.27782 0.4736,-0.62971 0.81492,0.082 1.07156,1.37319 0.0238,1.03716 -0.57944,1.19327 -0.0635,1.39436 -0.33337,1.81239 -1.11919,1.59015 -0.24871,0.74612 -1.00806,1.23296 -1.00012,1.19856 -0.4789,0.60325 -0.98954,0.59532 -0.46831,0.0132 -0.46567,-0.49213 -0.99483,0.73819 -0.11642,0.33337 -0.10319,-0.17462 -0.005,-0.51065 0.37836,-0.0265 0.10583,-1.20385 -0.19579,-0.889 0.63764,-0.37042 0.89959,0.18521 0.50006,-1.02923 0.254,-1.18004 0.2884,-0.39952 0.38893,-0.99483 -1.22502,0.32808 -0.64293,0.43656 h -1.12746 l -0.29898,-1.0451 -0.87842,-0.80169 -1.29116,-0.36512 -0.27517,-1.13242 -0.25929,-0.72231 -0.27782,-0.5133 -0.45772,-1.21972 -0.65088,-0.45244 -1.11125,-0.36777 -0.98425,0.0344 -0.92075,0.22225 -0.61383,0.61118 0.40746,0.29105 0.0106,0.66675 -0.41275,0.38364 -0.6694,1.24884 0.008,0.51064 -1.0451,0.72496 -0.89165,-0.43127 -0.88635,0.0953 -0.38894,-0.38629 -0.4445,-0.12436 -1.08744,0.80963 -0.97631,0.18785 -0.68263,0.28046 -0.93398,-0.18521 -0.68791,0.0106 -0.44979,-0.58208 -0.72761,-0.55298 -0.74348,-0.15346 -0.93927,0.15081 -0.70114,0.21432 -1.05305,-0.48684 -0.14023,-0.87841 -0.87312,-0.30428 -0.67204,-0.14022 -0.83079,-0.49478 -0.7673,1.23296 0.30163,0.68792 -0.72231,0.80169 -1.07157,-0.2884 -0.74083,-0.0423 -0.49477,-0.53975 -0.77258,-0.0159 -0.64559,-0.35719 -1.12712,0.54769 -1.41552,0.98954 -0.78317,0.1958 -0.29104,0.0926 -0.39423,-0.69586 -0.95515,0.15346 -0.31485,-0.48683 -0.51858,-0.2249 -0.35719,-0.67469 -0.4101,-0.21166 -1.06628,0.30162 -1.02129,-0.67998 -0.39423,0.61648 -1.65893,-3.06387 -0.94721,-0.96838 0.27252,-0.39687 -1.86002,1.18798 -0.71173,0.0714 0.0609,-0.68263 -0.9525,-0.43127 -0.77523,0.30956 -0.23283,-1.32556 -1.3335,-0.28046 -0.66675,0.53711 -1.85738,0.4736 -0.36248,0.31485 -2.77548,0.43921 -0.34131,0.42863 0.53446,0.84931 -0.71173,0.3175 0.14023,0.33073 -0.71173,0.58737 1.20121,0.82021 -0.18521,0.55827 -1.04246,-0.0503 -0.21431,0.34661 -0.94986,-0.6059 -1.17739,0.0238 -0.78846,0.49477 -0.87842,-0.4736 -1.63512,-0.82021 -1.15888,0.0318 -1.53193,1.28323 -0.0926,0.84402 -0.762,-0.6694 -0.59267,1.26207 0.21696,0.23018 -0.42863,0.84932 0.62971,0.75141 0.55033,-0.0318 0.47361,0.73025 -0.0741,0.55563 0.37571,0.17462 -0.33867,0.63236 -0.71967,0.17462 -0.73818,1.08215 0.67468,0.97896 -0.0741,0.68527 0.80963,1.18004 -0.44186,0.39952 -0.127,0.25135 -0.32808,-0.0662 -0.51064,-0.6006 -0.20903,-0.0344 -0.46566,-0.23019 -0.22754,-0.4101 -0.69321,-0.20902 -0.44979,0.15875 -0.12965,-0.18786 -1.01071,-0.48418 -1.09273,-0.16405 -0.62706,-0.17462 -0.09,0.11906 -0.94456,-0.86519 -0.84667,-0.39158 -0.64029,-0.61383 0.53975,-0.16934 0.61648,-0.88635 -0.4154,-0.42333 1.09273,-0.44186 -0.0185,-0.23812 -0.66675,0.17462 0.0238,-0.48419 0.38365,-0.30691 0.71702,-0.082 0.11641,-0.37042 -0.16404,-0.61648 0.30163,-0.59002 -0.008,-0.33337 -1.09273,-0.37307 -0.43392,0.0132 -0.45773,-0.53975 -0.56885,0.18257 -0.94192,-0.40746 0.0159,-0.23019 -0.26458,-0.51064 -0.59267,-0.0582 -0.0608,-0.36777 0.18521,-0.24078 -0.4736,-0.68262 -0.76994,0.11642 -0.2249,-0.0608 -0.18785,0.27516 -0.27781,-0.0476 -0.18257,-0.77787 -0.17462,-0.40746 0.14287,-0.11642 0.59796,0.0423 0.2884,-0.26987 -0.21431,-0.33073 -0.50007,-0.21961 0.045,-0.22754 -0.30162,-0.23018 -0.46567,-0.83344 0.15875,-0.34661 -0.0714,-0.61118 -0.72496,-0.31221 -0.3889303,0.1561 -0.10584,-0.32808 -0.78052,-0.33338 -0.23812,-0.7911 -0.0635,-0.65881 -0.35719,-0.31486 0.3175,-0.43921 -0.2196,-1.31233 0.52916,-0.82814 -0.11112,-0.254 0.84402,-0.81228 -0.77788,-0.70908 1.5875003,-1.96056 0.68792,-0.91281 0.27781,-0.82021 -1.09802,-1.12713 0.30427,-1.09802 -0.6667503,-1.28323 0.5000603,-1.524 -0.8625403,-2.10608 0.6852703,-1.449917 -1.1350603,-1.320271 0.10848,-1.42875 0.59796,-0.1905 1.2620603,-0.84402 0.76465,-0.74348 1.21973,1.285875 2.032,0.497417 2.80193,2.288646 0.56886,0.928687 0.0503,1.27 -0.82286,0.976313 -1.21179,0.48948 -3.31258,-1.404938 -0.54504,0.238125 1.20914,1.349373 0.0476,0.83344 0.0476,1.78594 0.95515,0.52123 0.57944,0.4392 0.0952,-0.82285 -0.44715,-0.74083 0.47096,-0.66411 1.79387,1.08479 0.62442,-0.42068 -0.50006,-1.29117 1.72773,-1.783292 0.68527,0.105832 0.69321,0.64294 0.43127,-1.272647 -0.61913,-1.132416 0.36248,-1.166813 -0.54504,-1.240896 2.07433,0.645584 0.42334,1.105958 -0.93927,0.240771 0.005,1.068916 0.58472,0.645584 1.14565,-0.407459 0.18256,-1.219729 1.55046,-0.931333 2.59027,-1.730375 0.55827,0.100542 -0.73025,1.227666 0.92075,0.206375 0.53182,-0.682625 1.38906,-0.05556 1.10066,-0.844021 0.84667,1.222375 0.84402,-1.346729 -0.77787,-1.211792 0.38629,-0.703792 2.19075,0.645584 1.02658,0.658812 2.68817,2.328334 0.49742,-1.050396 -0.75407,-1.087438 -0.0212,-0.4445 -0.89429,-0.206375 0.24342,-1.013354 -0.39688,-1.717146 -0.0212,-0.724958 1.3679,-2.114021 0.48683,-2.227792 0.55034,-0.497416 1.9632,0.664104 0.15346,1.370542 -0.70379,1.926166 0.46038,0.735542 0.23812,1.571625 -0.16933,2.928937 0.81756,1.25148 -0.3175,1.325562 -1.45256,2.698754 0.84931,0.26987 0.29633,-0.664103 0.81492,-0.481542 0.19579,-0.939271 0.64294,-0.923395 -0.43127,-1.127125 0.3466,-1.344084 -0.81227,-0.169333 -0.17727,-1.169458 0.59267,-2.19075 -0.96309,-1.860021 1.32821,-1.598084 -0.17198,-1.751541 0.37042,-0.05821 0.38894,1.373188 -0.29369,2.293937 0.79375,0.420688 -0.33867,-1.685396 1.2409,-0.947208 1.53987,-0.129646 1.37055,1.370542 -0.65882,-2.016125 -0.0741,-2.719917 1.29117,-0.534457 1.78329,0.116417 1.60867,-0.34925 -0.60325,-1.423459 0.85989,-1.857375 0.85196,-0.07937 1.44198,-1.457854 1.95792,-0.399521 0.24871,-0.833437 1.94733,-0.28575 0.6059,0.690562 1.66423,-1.651 1.3626,0.05292 0.20373,-1.386417 0.70908,-1.410229 1.75154,-1.404937 1.27265,1.113895 -1.01071,0.828146 1.68011,0.508 0.20108,1.595438 0.67733,-0.777875 2.16959,0.04233 1.67216,1.545167 0.59531,1.150937 -0.1852,1.547813 -0.82021,0.85725 -1.94998,1.566333 -0.55827,0.814917 0.92075,0.378354 1.09802,0.674686 0.66675,-0.505353 0.37835,1.690686 0.32544,-0.677333 1.18533,-0.415396 2.38125,0.436563 0.17992,1.211791 3.10092,0.378355 0.0423,-1.976438 1.57427,0.460375 1.18533,-0.01323 1.19856,1.359958 0.34132,1.598084 -0.43921,1.016 0.93133,1.846791 1.16681,0.923396 0.71702,-2.428875 1.19063,1.058333 1.26471,-0.629708 1.43668,0.719667 0.54769,-0.653521 1.21444,0.328083 -0.53446,-2.2225 0.97896,-1.076854 6.69925,1.603375 0.63235,1.415521 1.942053,1.759479 2.99508,-0.428625 1.47638,0.373063 0.61648,0.926041 -0.09,1.592792 0.91281,0.605896 0.99219,-0.433917 1.31498,-0.05556 1.39964,0.415395 1.40494,-0.235479 1.29117,1.849438 0.9181,-0.656167 -0.6006,-1.341437 0.33073,-0.957792 2.36802,0.605896 1.54252,-0.129646 2.13254,1.016 1.03717,0.910167 1.81768,1.550458 1.94469,1.942042 -0.0635,1.17475 0.50006,0.460376 -0.17198,-1.362606 2.01348,0.283105 z m -33.715853,23.94479 -0.74613,-2.032 -0.30692,-1.19327 0.0185,-1.19062 -0.25664,-1.19063 -0.19315,-0.83344 -0.33073,0.17727 0.29369,0.58473 -0.68527,0.57415 -0.0661,1.66687 0.43392,1.16682 -0.0317,1.54781 -0.17198,0.85725 0.0847,1.20121 -0.082,1.06098 0.13758,0.89958 0.48683,-0.82815 0.56357,0.64559 0.0212,-0.75142 -0.72232,-1.11919 0.45509,-1.6166 z m -90.7573803,-7.27075 -0.77788,-0.22754 -1.02393,0.41804 -0.16934,0.56356 0.91282,0.14553 1.36525,-0.0185 -0.0582,-0.32543 0.0794,-0.3519 z M 121.4953,35.818515 l 0.96838,-0.137583 0.76464,-0.545042 0.0635,-0.314854 -1.07421,-0.664104 -0.6297,-0.0053 -0.0952,0.0979 -0.94457,0.963083 0.13229,0.722313 z m -29.072423,-7.167562 -0.70379,1.037166 0.12965,0.137584 1.52135,0.28575 1.12448,-0.01852 -0.09,-0.679979 -1.05304,-1.008062 z m 6.50082,-2.521478 0.85725,-1.124479 -1.86267,-0.762 -1.38377,-0.4445 -0.17727,0.949854 1.37848,1.129771 z m -6.64898,-0.447146 2.73314,0.07937 0.58473,-2.153708 -2.68023,-1.606021 -1.95791,-0.134938 -0.97896,0.576792 -0.39952,2.050521 1.46843,1.854729 z m -65.38384,6.86329 -0.75935,0.518584 0.10848,1.277937 1.34408,0.621771 0.19579,1.010708 2.42359,0.291042 0.4392,-0.195792 -1.41816,-1.881187 -0.15081,-1.989667 1.16152,-2.418292 1.10595,-2.598207 2.30453,-2.690812 2.26483,-1.412875 2.62731,-1.518708 0.49742,-0.981605 -0.51594,-1.277937 -1.44462,0.423333 -1.27,1.187979 -2.46857,0.587375 -2.45004,1.960563 -1.65894,1.547812 0.20109,1.288521 -1.77536,2.389186 0.68263,0.322792 -1.47109,2.188104 z m 39.02075,-17.97579 0.21961,-1.513417 -1.88119,-2.206625 -0.55827,-0.259292 -0.60854,0.449792 -1.35467,4.92125 z m -43.45252,-7.7549378 0.80434,1.026583 0.86783,-0.711729 0.10319,-0.719666 0.66675,-0.336021 0.99483,-0.590021 0.28575,-0.693208 -1.10067,-1.018646 -0.6985,0.767291 -0.42598,1.090084 -0.15081,-1.230313 -1.12712,0.05556 -1.44727,0.830792 1.651,0.137583 z m 34.72656,3.4501668 1.23032,1.516062 2.06639,1.111251 1.61925,-0.47625 0.18257,-3.6036258 -1.70921,-4.243917 -1.44198,-2.386541 -1.60602,1.087437 -1.92617,3.130021 1.01335,0.865188 z"
       class="land"
       title="Russia"
       id="RU" />
  </g>
</svg>
