<?xml version="1.0" encoding="UTF-8" standalone="no"?>
<!-- Created with Inkscape (http://www.inkscape.org/) -->

<svg
   xmlns:dc="http://purl.org/dc/elements/1.1/"
   xmlns:cc="http://creativecommons.org/ns#"
   xmlns:rdf="http://www.w3.org/1999/02/22-rdf-syntax-ns#"
   xmlns:svg="http://www.w3.org/2000/svg"
   xmlns="http://www.w3.org/2000/svg"
   xmlns:sodipodi="http://sodipodi.sourceforge.net/DTD/sodipodi-0.dtd"
   xmlns:inkscape="http://www.inkscape.org/namespaces/inkscape"
   width="61.18306mm"
   height="50.450123mm"
   viewBox="0 0 61.18306 50.450123"
   version="1.1"
   id="svg49573"
   inkscape:version="0.92.0 r15299"
   sodipodi:docname="senegal.svg">
  <defs
     id="defs49567" />
  <sodipodi:namedview
     id="base"
     pagecolor="#ffffff"
     bordercolor="#666666"
     borderopacity="1.0"
     inkscape:pageopacity="0.0"
     inkscape:pageshadow="2"
     inkscape:zoom="0.35"
     inkscape:cx="1111.3358"
     inkscape:cy="515.33887"
     inkscape:document-units="mm"
     inkscape:current-layer="layer1"
     showgrid="false"
     fit-margin-top="0"
     fit-margin-left="0"
     fit-margin-right="0"
     fit-margin-bottom="0"
     inkscape:window-width="1920"
     inkscape:window-height="1017"
     inkscape:window-x="1912"
     inkscape:window-y="-8"
     inkscape:window-maximized="1" />
  <metadata
     id="metadata49570">
    <rdf:RDF>
      <cc:Work
         rdf:about="">
        <dc:format>image/svg+xml</dc:format>
        <dc:type
           rdf:resource="http://purl.org/dc/dcmitype/StillImage" />
        <dc:title></dc:title>
      </cc:Work>
    </rdf:RDF>
  </metadata>
  <g
     inkscape:label="Layer 1"
     inkscape:groupmode="layer"
     id="layer1"
     transform="translate(311.04986,-234.73329)">
    <path
       inkscape:connector-curvature="0"
       id="sn"
       class="landxx sn"
       d="m -309.44201,257.31385 c -0.5849,-0.0134 -1.09002,0.17679 -1.52868,0.57424 -0.17282,-1.63103 2.88454,-2.14281 3.82835,-3.08262 2.06042,-2.0511 3.70873,-4.80674 4.90509,-7.42678 0.58491,-1.25485 3.36313,-13.21316 6.28757,-10.46819 1.31599,1.23492 8.2948,0 9.42469,-1.312 1.72808,-2.01522 8.50749,0.24591 9.94312,1.95671 1.92747,2.31033 2.18005,3.24748 5.34376,3.57048 1.72808,0.17547 3.64226,3.5479 3.27007,5.21617 -0.15953,0.7723 2.35285,2.13352 2.79152,2.9497 0.54501,1.01955 0.82417,2.2053 1.62173,3.0773 0.78427,0.85474 2.37943,0.95843 2.89786,2.00989 0.77098,1.53667 3.07067,2.38875 3.28336,4.18197 0.13293,0.80289 -1.23625,1.74404 -0.30574,2.56687 0.7577,0.68324 1.30271,1.12858 1.42234,2.30232 0.13295,1.24156 1.20967,4.24711 0.19939,5.1856 -1.05014,0.22863 -1.14317,0.73907 -0.27913,1.53267 0.19937,0.58488 0.54501,1.07673 0.99696,1.47285 0.91723,0.51312 0,1.50743 1.31599,1.87032 0.69125,-2.71708 2.87128,2.00191 3.25679,2.74765 0.55829,1.11261 0.87733,1.95141 0.55829,3.24216 -0.35889,1.4622 0.61149,3.34051 0.13293,4.53687 -1.64832,-0.71118 -3.45616,0.40145 -5.19752,0.0931 -1.83445,-0.31771 -2.88457,0.74706 -4.59936,0.98234 -1.76797,0.23929 -4.58607,-2.88723 -6.06159,-1.90754 -1.15649,0.76567 -0.73112,-1.39442 -0.98367,-1.46754 -1.55529,-0.46125 -1.03686,-0.73377 -2.33956,-0.73643 l -16.81559,-0.0266 c -2.19332,0 -3.11054,0.13293 -4.77215,1.43697 -1.44894,1.14717 -3.44286,1.04082 -5.60963,0.96505 -1.87429,-0.0664 -3.17699,1.05015 -4.93168,1.33065 -0.86404,0.14089 -1.79455,-0.15154 -2.56553,0.38417 -0.1728,-0.43336 -1.10331,-1.37451 -0.61149,-1.9009 1.19639,-1.32397 1.88761,-1.97932 3.48276,-0.96773 1.19636,0.76435 2.69847,-0.42138 3.97459,-0.44664 0.93051,-0.0134 1.39576,0.70186 2.35285,0.39879 0.7444,-0.2353 1.09002,-0.0798 1.78126,0.1449 1.22294,0.39746 1.12989,-2.68252 2.51235,-3.16239 -2.0471,0.14755 -0.86403,1.88627 -2.11355,2.77555 -1.07673,0.76568 -3.9613,-0.25521 -4.30693,-1.53134 -0.74441,3.2129 -7.1649,0.87468 -5.74254,-0.76568 -0.59819,0.86273 -0.55832,2.305 -1.80784,2.58416 -0.21269,-0.78829 0,-1.42501 0.66464,-1.91287 -1.71478,0.37621 -0.75769,-2.19067 -0.3855,-3.33518 0.55832,-1.71348 2.49909,-1.81714 4.02777,-1.82113 l 5.47668,-0.0134 c 1.01028,0.56229 -1.15649,-0.36024 0.62477,-1.5327 1.55529,-1.02488 3.16373,-0.32434 4.69241,-0.7577 1.7015,-0.48252 0.79757,-2.9045 3.05739,-1.50076 3.15041,1.96336 6.30086,4.01446 9.95641,2.80082 1.39575,-0.46525 2.95102,-1.82644 1.16978,-2.78088 -2.23322,-1.19237 -2.69849,0.51178 -4.43985,0.4307 -1.78127,-0.0798 -1.316,-2.73701 -3.36311,-1.92217 -0.77101,0.3084 -1.47552,-0.76302 -1.7281,-1.27877 -0.5184,-1.06609 -2.16674,-0.69524 -3.1637,-0.0798 -1.42234,0.87202 -1.72808,-0.50115 -2.47249,0.27251 -0.54501,0.56494 -0.34561,1.28409 -1.05014,1.6709 l -9.9697,-0.0532 c 0.41208,-0.82151 -0.38551,-1.37716 -1.38247,-1.4835 0.1595,-0.79357 0.67793,-1.11395 1.43563,-0.76566 -0.1728,-0.81618 -0.13293,-1.61377 0.1861,-2.39274 -0.5849,1.09669 -1.28941,1.91552 -2.57882,2.1056 -0.34561,-1.06475 2.75164,-3.79778 3.82837,-3.92408 -1.16978,-0.49582 -4.32022,2.33825 -4.30693,3.44554 0,-3.1451 -1.92748,-8.84112 -5.264,-10.0561"
       style="fill:#cbe6a3;fill-opacity:1;fill-rule:evenodd;stroke:#000000;stroke-width:0.14449541;stroke-miterlimit:4;stroke-dasharray:none;stroke-opacity:1">
      <title
         id="title1742">Senegal</title>
    </path>
  </g>
</svg>
