<?xml version="1.0" encoding="UTF-8" standalone="no"?>
<!-- Created with Inkscape (http://www.inkscape.org/) -->

<svg
   xmlns:dc="http://purl.org/dc/elements/1.1/"
   xmlns:cc="http://creativecommons.org/ns#"
   xmlns:rdf="http://www.w3.org/1999/02/22-rdf-syntax-ns#"
   xmlns:svg="http://www.w3.org/2000/svg"
   xmlns="http://www.w3.org/2000/svg"
   xmlns:sodipodi="http://sodipodi.sourceforge.net/DTD/sodipodi-0.dtd"
   xmlns:inkscape="http://www.inkscape.org/namespaces/inkscape"
   width="29.195271mm"
   height="16.457764mm"
   viewBox="0 0 29.195271 16.457764"
   version="1.1"
   id="svg23381"
   inkscape:version="0.92.0 r15299"
   sodipodi:docname="slovenia.svg">
  <defs
     id="defs23375" />
  <sodipodi:namedview
     id="base"
     pagecolor="#ffffff"
     bordercolor="#666666"
     borderopacity="1.0"
     inkscape:pageopacity="0.0"
     inkscape:pageshadow="2"
     inkscape:zoom="0.35"
     inkscape:cx="-406.2564"
     inkscape:cy="-28.898861"
     inkscape:document-units="mm"
     inkscape:current-layer="layer1"
     showgrid="false"
     fit-margin-top="0"
     fit-margin-left="0"
     fit-margin-right="0"
     fit-margin-bottom="0"
     inkscape:window-width="1920"
     inkscape:window-height="1017"
     inkscape:window-x="1912"
     inkscape:window-y="-8"
     inkscape:window-maximized="1" />
  <metadata
     id="metadata23378">
    <rdf:RDF>
      <cc:Work
         rdf:about="">
        <dc:format>image/svg+xml</dc:format>
        <dc:type
           rdf:resource="http://purl.org/dc/dcmitype/StillImage" />
        <dc:title></dc:title>
      </cc:Work>
    </rdf:RDF>
  </metadata>
  <g
     inkscape:label="Layer 1"
     inkscape:groupmode="layer"
     id="layer1"
     transform="translate(-90.479743,-124.72941)">
    <path
       inkscape:connector-curvature="0"
       id="si"
       class="landxx si eu"
       d="m 91.923897,135.06858 c -0.172793,-0.82151 0.611482,-1.82512 1.15649,-2.2864 -0.903909,-0.20071 -1.688208,-0.70052 -2.485773,-1.1485 2.007215,-2.18802 1.050146,-3.52263 3.54921,-2.92313 0.930512,0.22467 6.500256,2.1867 7.297816,1.47952 1.58187,-1.40905 3.0042,-2.963 5.30389,-2.81944 1.20965,0.0798 2.67188,0.67397 3.81508,-0.0266 1.16976,-0.71249 2.57883,-0.77631 3.77519,-0.0266 -1.02357,-1.28544 0.57159,-3.30597 1.96735,-2.19334 1.07672,0.86537 2.40603,3.03477 3.21688,4.20324 -1.07672,-0.16352 -4.58606,-1.06213 -2.69846,1.1485 -1.06343,-0.0399 -1.6616,-0.74309 -2.10029,0.48783 -0.25256,0.68726 -2.89786,1.31069 -3.68213,1.78392 -0.59819,0.36822 0.51843,2.18405 0.46524,2.96832 -0.13292,1.22428 -2.92444,1.316 -4.06764,2.31963 0.46527,0.1542 0.86404,0.56229 1.3426,0.66995 -0.85075,0.17415 -0.23927,3.24215 -1.87431,2.19069 -1.88759,-1.20702 -3.70872,-0.65269 -5.50327,-2.38211 -0.61148,1.46754 -2.725064,2.72373 -4.333509,1.99926 -0.664641,-0.29776 -0.651351,-0.31769 -1.18307,0.20339 -0.797565,0.79092 -2.472483,0.11963 -3.376392,-0.0931 1.010253,-0.88662 3.070651,-1.22162 2.299666,-2.58415 -0.611482,-1.07804 -3.376392,-0.79492 -2.007239,-2.5828"
       style="fill:#cbe6a3;fill-opacity:1;fill-rule:evenodd;stroke:#000000;stroke-width:0.14449541;stroke-miterlimit:4;stroke-dasharray:none;stroke-opacity:1">
      <title
         id="title2073">Slovenia</title>
    </path>
  </g>
</svg>
