<?xml version="1.0" encoding="UTF-8" standalone="no"?>
<!-- Created with Inkscape (http://www.inkscape.org/) -->

<svg
   xmlns:dc="http://purl.org/dc/elements/1.1/"
   xmlns:cc="http://creativecommons.org/ns#"
   xmlns:rdf="http://www.w3.org/1999/02/22-rdf-syntax-ns#"
   xmlns:svg="http://www.w3.org/2000/svg"
   xmlns="http://www.w3.org/2000/svg"
   xmlns:sodipodi="http://sodipodi.sourceforge.net/DTD/sodipodi-0.dtd"
   xmlns:inkscape="http://www.inkscape.org/namespaces/inkscape"
   width="208.33884mm"
   height="154.83054mm"
   viewBox="0 0 208.33884 154.83054"
   version="1.1"
   id="svg7854"
   inkscape:version="0.92.0 r15299"
   sodipodi:docname="spain.svg">
  <defs
     id="defs7848" />
  <sodipodi:namedview
     id="base"
     pagecolor="#ffffff"
     bordercolor="#666666"
     borderopacity="1.0"
     inkscape:pageopacity="0.0"
     inkscape:pageshadow="2"
     inkscape:zoom="0.35"
     inkscape:cx="133.26361"
     inkscape:cy="176.22054"
     inkscape:document-units="mm"
     inkscape:current-layer="layer1"
     showgrid="false"
     fit-margin-top="0"
     fit-margin-left="0"
     fit-margin-right="0"
     fit-margin-bottom="0"
     inkscape:window-width="1920"
     inkscape:window-height="1017"
     inkscape:window-x="1912"
     inkscape:window-y="-8"
     inkscape:window-maximized="1" />
  <metadata
     id="metadata7851">
    <rdf:RDF>
      <cc:Work
         rdf:about="">
        <dc:format>image/svg+xml</dc:format>
        <dc:type
           rdf:resource="http://purl.org/dc/dcmitype/StillImage" />
        <dc:title></dc:title>
      </cc:Work>
    </rdf:RDF>
  </metadata>
  <g
     inkscape:label="Layer 1"
     inkscape:groupmode="layer"
     id="layer1"
     transform="translate(52.26826,-40.62781)">
    <path
       style="fill:#cbe6a3;fill-opacity:1;stroke:#000000;stroke-width:1.99999988;stroke-miterlimit:4;stroke-dasharray:none;stroke-opacity:1"
       d="m -107.48828,154.67383 -8.96094,4.60351 -8.81445,1.01172 -7.67969,5.20313 -6.91602,3.92187 -1.85742,3.20117 2.125,3.40625 0.20899,4.58204 -6.17383,3.38671 -3.83984,0.86719 -6.68946,3.88086 -7.45117,1.63086 -12.03711,-1.4043 -8.73242,7.57618 -4.12891,1.96093 -4.76953,3.17969 -3.34375,10.92188 0.0156,4.66406 3.2207,5.18359 3.01367,3.61133 4.95508,4.02539 6.62695,1.21875 -0.57812,2.51953 -5.65625,8.19531 0.0976,5.36719 2.6211,0.64063 10.21875,-4.29492 0.68164,3.17968 -0.57813,2.93164 -0.12695,7.22461 2.08594,2.76758 2.66406,1.79492 -2.27148,4.19141 -2.35352,1.85742 -0.35156,3.83984 5.01758,-0.14257 2.20898,1.01171 -4.72851,4.95508 -6.64649,8.19727 0.51563,12.30273 1.50586,1.54883 4.35742,-1.09375 5.4707,-5.24414 5.4082,-3.42773 2.99414,-1.29883 12.49024,-3.57227 3.28125,-1.73437 3.07617,0.28906 0.51758,1.71484 1.77539,3.30274 1.98047,2.29101 0.53711,1.69336 -4.83008,7.08203 -0.66211,2.41407 2.51953,4.5625 0.43164,1.30273 1.21875,0.61719 3.36524,-0.16406 5.98632,-2.93164 4.06836,-2.45704 1.42383,1.01172 11.78711,-1.38281 2.78711,1.11524 1.85937,1.25976 5.800786,1.69336 6.316406,0.18555 7.824219,-2.375 3.427735,-2.39453 0.662109,-2.64258 0.164063,-2.00196 1.011718,-1.28125 1.775391,-0.7207 2.787109,1.29883 3.984375,1.05273 9.558594,0.4336 1.878906,-1.46485 3.242188,0.4336 4.273437,1.85742 4.933594,-0.59961 2.498047,2.27148 1.03125,3.01368 0.289062,6.54492 -0.371093,6.60547 0.96875,2.4375 3.345703,0.64062 5.386719,-0.084 4.851562,1.77539 3.757812,3.11719 1.240235,3.17773 0.537109,2.18945 -1.83789,1.23828 -2.601563,4.70704 -6.605469,6.13281 -9.435546,5.51172 -7.205079,6.85351 -4.955078,8.17578 -6.21289,3.46875 -1.900391,1.85743 -0.742188,2.20898 4.107422,9.99219 1.259766,7.70117 1.011719,9.41211 -0.660157,2.64258 -0.351562,10.32226 -0.951172,3.01563 0.25,2.45703 1.50586,2.62109 0.68164,2.51953 -2.828125,3.19922 -5.181641,3.71485 -3.839843,3.26367 -1.033203,3.05469 0.291015,1.89843 6.460938,6.46289 1.177734,2.64258 -0.867187,6.37891 -3.716797,10.42578 -3.550781,6.33789 -0.619141,0.61914 -4.066406,1.79688 -19.488282,0.0566 -4.728515,1.42578 0.662109,1.27929 4.582031,8.13477 4.769532,4.31445 1.589843,0.99024 1.712891,9.47656 7.742188,15.11133 7.49414,2.08594 2.601563,3.77734 -0.476563,5.28516 -2.310547,5.80078 -4.605469,5.94531 -5.470703,4.16992 -3.570312,4.15039 -0.289063,4.81055 -1.134765,6.08984 -1.714844,4.81055 -0.431641,3.24023 13.707032,20.33594 7.638672,-0.99023 0.992187,0.47265 -1.363281,4.83203 -2.414063,5.65625 -2.890625,1.07422 -6.544922,1.73438 -6.193359,7.30664 -5.015625,8.77539 -3.779297,4.25195 -3.447265,10.4043 0.433593,4.50195 1.671875,6.93555 3.529297,18.04297 13.378906,-2.125 11.623047,0.74219 2.59961,-1.19727 3.820312,-4.64453 0.248047,2.14648 -1.466797,3.98438 22.730469,17.32226 5.574219,8.87696 4.355468,-5.53321 6.029297,-0.37304 -2.478515,1.05468 -3.984375,3.65235 -4.871094,8.60937 1.630859,6.60742 6.667969,2.91016 0.640625,2.29102 -0.476562,2.74609 2.292968,7.18359 3.240235,6.62696 7.515625,10.40625 4.6230465,0.47461 L 2,733.25977 l 10.591797,4.4375 4.292969,-0.90821 5.140625,-2.49804 1.09375,-5.49024 2.107421,-0.57812 1.486329,1.77539 1.195312,-0.0586 1.796875,-7.20507 5.738281,-9.88868 3.427735,-3.59179 13.6875,-5.61524 15.132812,-0.31055 9.951172,-8.81445 3.900391,-5.11914 3.943359,-1.28125 31.236332,-2.74414 14.42968,1.17578 8.54688,2.29102 9.97266,-3.44727 6.3789,-0.20508 14.32813,1.11329 6.62695,2.04492 6.77148,-2.375 4.33399,-4.25196 8.27929,-1.77539 8.54688,0.82422 6.83203,5.34766 4.39844,-2.25 9.9707,-12.20117 8.2168,-20.74805 9.0625,-11.18945 18.14844,-12.6543 22.56445,-0.74414 6.70898,-0.68164 2.91016,-1.11328 2.91211,-2.53907 -5.88477,-5.86328 0.47657,-4.27343 3.59179,-5.86329 0.64063,-2.62304 3.38476,-7.74024 2.10547,-11.70703 5.57422,-3.77734 1.71289,-8.38086 8.09375,-8.71289 19.03516,-11.06641 10.9414,-8.19531 3.77735,-4.625 -2.70508,-4.85156 -10.94141,-4.9336 -5.77929,-5.80078 -4.12891,-6.91601 -7.18555,-26.4043 0.0977,-7.67969 14.5957,-26.69336 6.85547,-10.38476 6.6875,-6.97852 11.89258,-16.06055 13.45898,-22.40039 1.79688,-0.57812 1.89844,0.68164 3.50976,-1.30078 8.03125,-4.25391 1.85742,-2.74609 -5.51171,-6.21289 -4.72657,-1.44532 5.92383,-5.24414 12.51172,-13.02734 10.01172,-2.72461 20.89258,-7.51367 29.89453,-7.04102 3.65429,-2.58007 9.57813,-11.21094 40.2168,-23.22461 8.21484,-7.2461 5.86328,-6.46289 -0.57812,-10.73437 -0.78516,-2.25 -2.86914,-1.94141 -1.44531,-2.06445 0.92968,-7.32812 3.01368,-0.31055 5.11914,-2.23047 -1.09375,-4.29297 -2.78711,-1.87891 -1.65039,-4.95507 -3.44922,0.0254 -5.75977,-1.2793 -4.76758,-1.57031 -4.5625,0.86719 -4.37695,2.10546 -3.83984,1.28125 -2.76758,0.34961 -1.83594,1.21875 -0.88867,2.41602 -0.16602,1.69336 -4.85156,-0.41406 -11.20898,-3.46875 -10.07422,-2.39454 -5.92578,2.72657 -3.79883,2.53906 -2.66211,-0.39258 -2.04492,-2.68359 -1.36133,-2.6211 -3.94336,-2.41601 -8.91797,-3.61328 -1.58984,0.51562 -5.32617,3.17969 -3.03516,1.11523 -2.76562,0.55664 -2.16797,-0.22656 -1.19727,-1.8789 0.12695,-2.86915 -0.47656,-2.58007 -0.41211,-1.38282 0.78321,-3.73828 -4.5625,-7.43164 -3.26172,-1.52734 -4.91211,-0.24805 -5.63672,-2.27148 -5.86328,-2.91016 -14.22461,-4.64453 -3.90039,-0.55859 -1.57031,0.74414 -1.05274,2.78711 -0.55664,7.84375 -0.59961,0.86718 -6.60547,0.26758 -8.13476,-1.09375 -3.73633,0.53711 -3.32422,0.0176 -3.13672,-2.08594 -14.06055,2.375 -2.33203,-1.15625 -3.38476,-3.53125 -3.79883,-2.86914 -2.93164,-1.46484 -2.51953,-1.69336 -2.27149,-0.26758 -3.46679,1.63086 -4.79102,0.70117 -3.96289,-0.20508 -2.12695,0.22657 -8.91797,-8.7129 -1.30078,-2.37304 -4.43946,-0.66211 -5.49218,-0.0977 -13.9961,-5.65625 -6.3789,-3.03515 -0.92969,-1.81641 0.084,-1.46484 -1.09375,0.33007 -1.96094,2.58008 -1.0332,2.10547 -1.36133,0.39258 -2.00195,-0.33008 -1.85937,-1.19726 -1.13477,-1.52735 1.21875,-2.66406 2.14648,-3.48828 0.88868,-3.79883 -0.20508,-3.40625 -3.53125,-2.18945 -5.20313,-0.90821 -3.81836,-0.26757 -4.95507,-1.93946 -2.35352,-1.40429 -2.27148,-3.79883 -0.084,-2.76563 -1.88672,0.69336 -9.43359,4.41797 -11.89258,1.83789 -8.13476,-0.47461 -15.64844,-6.73047 -15.52344,-3.30273 -4.21289,1.17578 -5.65625,5.41016 -21.57227,-6.38086 -6.13281,-4.72657 -4.70703,-0.68164 -9.80664,3.32422 -6.6875,-1.71484 -7.30859,2.89062 -17.238286,3.86133 -12.179687,-0.084 -33.734375,-6.85352 -12.179688,-4.08789 -20.294922,-2.33398 -10.46679638,-4.9961 -13.52148462,4.00586 -8.339843,-0.72265 -14.576172,2.0039 -8.195313,-1.07422 -16.412109,0.53711 -9.291016,2.53907 -11.642578,-3.24024 -7.949219,-8.07226 -6.048828,-3.53125 -5.263673,1.01171 z m 681.0957,286.16406 -11.93359,0.9082 -0.45313,2.00196 -0.16406,4.52148 1.42383,1.32227 5.82226,0.96875 17.81446,8.6914 1.05273,-0.86523 1.65235,-4.17188 -0.39258,-1.48632 -5.18164,-8.66993 z m -52.17383,7.8457 -14.71875,4.68555 -6.9375,4.02539 -23.96679,18.14649 -0.0586,3.05664 1.4043,2.37304 3.73633,0.74414 2.35351,3.94336 4.41797,-3.94336 3.38477,-1.91992 3.86133,1.05274 2.62109,2.37304 1.38477,7.47461 1.73242,1.87891 5.82226,1.25781 9.99219,5.01758 4.72852,-2.39453 5.22265,-3.98438 2.80664,-6.75195 3.22071,-5.88281 3.82031,-5.36719 2.72461,-5.28516 -0.74219,-4.74804 -3.07812,-1.21875 -3.11524,-0.70118 -5.86328,2.25 -5.55469,-2.49804 0.82422,-3.50977 1.85742,-1.85742 0.4336,-2.14648 -1.83789,-1.34375 -0.14454,-1.25782 1.91993,-2.76757 z m -92.40039,63.58399 -12.51172,2.99414 -2.6621,3.69531 -0.16602,3.67383 -2.53906,0.62109 -1.89844,5.16016 1.93945,1.83789 8.81641,1.60938 2.10547,-4.5625 2.87109,-1.01172 7.47266,-7.88477 -0.59961,-3.61328 z m -7.41015,26.17773 -1.11524,2.12696 -0.88867,2.08593 0.22656,2.99219 h 5.75977 l 3.83984,0.88867 1.30078,-0.9707 -0.0605,-2.16797 -5.55274,-0.78516 z"
       transform="scale(0.26458333)"
       id="ES"
       inkscape:connector-curvature="0" />
  </g>
</svg>
