<?xml version="1.0" encoding="UTF-8" standalone="no"?>
<!-- Created with Inkscape (http://www.inkscape.org/) -->

<svg
   xmlns:dc="http://purl.org/dc/elements/1.1/"
   xmlns:cc="http://creativecommons.org/ns#"
   xmlns:rdf="http://www.w3.org/1999/02/22-rdf-syntax-ns#"
   xmlns:svg="http://www.w3.org/2000/svg"
   xmlns="http://www.w3.org/2000/svg"
   xmlns:sodipodi="http://sodipodi.sourceforge.net/DTD/sodipodi-0.dtd"
   xmlns:inkscape="http://www.inkscape.org/namespaces/inkscape"
   width="60.54834mm"
   height="57.217838mm"
   viewBox="0 0 60.54834 57.217838"
   version="1.1"
   id="svg38684"
   inkscape:version="0.92.0 r15299"
   sodipodi:docname="syria.svg">
  <defs
     id="defs38678" />
  <sodipodi:namedview
     id="base"
     pagecolor="#ffffff"
     bordercolor="#666666"
     borderopacity="1.0"
     inkscape:pageopacity="0.0"
     inkscape:pageshadow="2"
     inkscape:zoom="0.35"
     inkscape:cx="-401.29223"
     inkscape:cy="450.98515"
     inkscape:document-units="mm"
     inkscape:current-layer="layer1"
     showgrid="false"
     fit-margin-top="0"
     fit-margin-left="0"
     fit-margin-right="0"
     fit-margin-bottom="0"
     inkscape:window-width="1920"
     inkscape:window-height="1017"
     inkscape:window-x="1912"
     inkscape:window-y="-8"
     inkscape:window-maximized="1" />
  <metadata
     id="metadata38681">
    <rdf:RDF>
      <cc:Work
         rdf:about="">
        <dc:format>image/svg+xml</dc:format>
        <dc:type
           rdf:resource="http://purl.org/dc/dcmitype/StillImage" />
        <dc:title></dc:title>
      </cc:Work>
    </rdf:RDF>
  </metadata>
  <g
     inkscape:label="Layer 1"
     inkscape:groupmode="layer"
     id="layer1"
     transform="translate(-89.166307,-210.93865)">
    <path
       inkscape:connector-curvature="0"
       id="sy"
       class="landxx sy"
       d="m 89.47855,257.22388 c 0.837459,-1.05679 2.432613,-3.25411 3.921424,-3.54123 -2.259796,-2.11093 0.970383,-3.4389 2.871279,-2.87128 -1.674919,-2.02851 0.810855,-2.27576 1.395757,-4.21387 0.319031,-1.07408 -1.023567,-3.24746 -2.246506,-3.47609 -1.409047,-0.25923 1.262833,-2.27443 -0.917224,-1.66429 -3.615683,1.0169 -3.88153,-1.29474 -4.054348,-3.17037 -0.159503,-1.70546 0.943803,-4.81869 -0.584878,-6.07354 -1.222964,-1.00628 -0.265871,-3.68213 -0.31903,-5.15366 0,-1.10464 2.020529,0.63142 2.419299,0.82682 0,0.14622 0.505138,-0.98102 1.369177,-1.50743 1.076727,-0.65135 0.345611,-2.1149 0.545009,-3.13182 0.930513,0.22598 1.927475,-0.0399 2.871278,-0.0931 -0.757696,-1.53798 -1.249519,-1.93678 -1.462207,-3.78714 -0.132948,-0.67396 0,-2.57617 0.930489,-2.81147 0.704536,-0.17813 1.422361,-0.18477 1.980659,0.11963 1.52868,0.80158 1.834422,2.16278 3.402992,1.91818 1.91419,-0.2991 3.177,-0.52639 5.01142,-1.316 1.87432,-0.80954 3.24349,-1.93412 5.34376,-1.63237 1.55529,0.22199 2.47251,1.32663 3.7885,1.94208 1.50211,0.70189 4.42654,0.40943 6.04828,0.26987 4.13411,-0.35625 7.09844,-2.72108 10.84705,-4.21919 3.78848,-1.51539 7.92259,0.61015 11.81743,-0.94246 1.98064,-0.79226 4.89179,-3.82572 5.18424,0.91854 0,1.10464 -2.63201,3.3445 -3.403,4.11284 -1.40905,1.39441 -2.97762,1.29605 -4.55946,2.22657 -3.403,1.99791 0.1595,6.32344 0.42537,8.71085 0.15951,1.4117 -0.69124,3.14377 -0.79759,4.60335 -0.14621,2.17339 0,5.68803 0,7.84017 0,5.03537 -21.22883,14.6661 -31.9828,22.03039 -2.92447,2.00456 -7.67004,6.82859 -11.485117,4.16201 -1.382467,-0.96904 -2.37943,-1.71479 -3.815057,-2.69712 -2.472483,-1.70683 -3.589104,-0.42937 -4.001188,-0.4892 -0.132924,-0.31238 0.890643,-6.25697 -0.531718,-6.88174"
       style="fill:#cbe6a3;fill-opacity:1;fill-rule:evenodd;stroke:#000000;stroke-width:0.14449541;stroke-miterlimit:4;stroke-dasharray:none;stroke-opacity:1">
      <title
         id="title914">Syrian Arab Republic</title>
    </path>
  </g>
</svg>
