<?xml version="1.0" encoding="UTF-8" standalone="no"?>
<!-- Created with Inkscape (http://www.inkscape.org/) -->

<svg
   xmlns:dc="http://purl.org/dc/elements/1.1/"
   xmlns:cc="http://creativecommons.org/ns#"
   xmlns:rdf="http://www.w3.org/1999/02/22-rdf-syntax-ns#"
   xmlns:svg="http://www.w3.org/2000/svg"
   xmlns="http://www.w3.org/2000/svg"
   xmlns:sodipodi="http://sodipodi.sourceforge.net/DTD/sodipodi-0.dtd"
   xmlns:inkscape="http://www.inkscape.org/namespaces/inkscape"
   width="47.344471mm"
   height="39.566219mm"
   viewBox="0 0 47.344471 39.566219"
   version="1.1"
   id="svg43277"
   inkscape:version="0.92.0 r15299"
   sodipodi:docname="uae.svg">
  <defs
     id="defs43271" />
  <sodipodi:namedview
     id="base"
     pagecolor="#ffffff"
     bordercolor="#666666"
     borderopacity="1.0"
     inkscape:pageopacity="0.0"
     inkscape:pageshadow="2"
     inkscape:zoom="0.35"
     inkscape:cx="89.469921"
     inkscape:cy="74.770822"
     inkscape:document-units="mm"
     inkscape:current-layer="layer1"
     showgrid="false"
     fit-margin-top="0"
     fit-margin-left="0"
     fit-margin-right="0"
     fit-margin-bottom="0"
     inkscape:window-width="1920"
     inkscape:window-height="1017"
     inkscape:window-x="1912"
     inkscape:window-y="-8"
     inkscape:window-maximized="1" />
  <metadata
     id="metadata43274">
    <rdf:RDF>
      <cc:Work
         rdf:about="">
        <dc:format>image/svg+xml</dc:format>
        <dc:type
           rdf:resource="http://purl.org/dc/dcmitype/StillImage" />
        <dc:title></dc:title>
      </cc:Work>
    </rdf:RDF>
  </metadata>
  <g
     inkscape:label="Layer 1"
     inkscape:groupmode="layer"
     id="layer1"
     transform="translate(40.681179,-129.05023)">
    <g
       id="ae"
       class="landxx coastxx ae"
       style="fill:#cbe6a3;fill-opacity:1;fill-rule:evenodd;stroke:#000000;stroke-width:0.10870087;stroke-miterlimit:4;stroke-dasharray:none;stroke-opacity:1"
       transform="matrix(1.3292939,0,0,1.3292939,-2242.5413,-580.78237)">
      <title
         id="title316">United Arab Emirates</title>
      <path
         inkscape:connector-curvature="0"
         id="path2704"
         d="m 1673.14,550.82 c 0.5,0.03 0.88,-0.159 1.15,-0.576 -0.66,-0.54 -1.48,-0.413 -1.87,0.36 0.24,0.07 0.47,0.144 0.72,0.216"
         style="fill:#cbe6a3;fill-opacity:1;stroke:#000000;stroke-width:0.10870087;stroke-miterlimit:4;stroke-dasharray:none;stroke-opacity:1" />
      <path
         inkscape:connector-curvature="0"
         id="path2784"
         class="landxx ae"
         d="m 1656.51,549.524 c 0.49,-0.323 0.68,-0.131 0.57,0.576 0.23,-0.222 0.47,-0.438 0.72,-0.648 0.46,0.682 0,1.668 0.58,2.304 0.51,0.615 1.69,0.473 2.38,0.433 0.89,-0.05 1.65,-0.195 2.34,-0.816 0.32,-0.282 0.68,-1.107 1.11,-1.2 0.46,-0.103 1.61,0.594 2.18,0.606 0.94,0.02 1.86,0.129 2.8,0.1 2.53,-0.09 4.28,1.076 6.76,-0.414 -0.23,-0.347 -0.47,-0.683 -0.72,-1.008 0.78,-0.295 0.67,0.645 1.29,0.576 0.9,-0.1 1.66,-1.183 2.02,-1.901 1,-1.958 1.13,-3.073 2.87,-4.528 1.7,-1.417 2.39,-3.972 3.99,-5.295 1.78,-1.464 2.84,-1.855 3.36,-4.26 1.29,0.07 0.73,1.938 0.74,2.728 0,1.494 1.64,0.737 1.84,2.397 0.19,1.665 1.33,3.842 0,5.131 -2.8,2.749 -1.9,0.825 -2.33,-0.355 -0.43,-1.151 -1.31,0.958 -1.17,1.668 0.1,0.538 -0.15,0.544 -0.1,1.121 0.1,0.618 0.49,1.535 0.5,2.26 0,2.016 2.04,1.107 1.23,2.453 -0.65,1.07 -2.76,0.129 -3.58,1.102 1.88,1.048 -0.91,5.964 -1.27,8.987 0.13,1.978 -0.88,2.43 -2.6,2.026 -2.12,-0.497 -4.32,-0.697 -6.47,-1.016 -2.25,-0.334 -4.51,-0.665 -6.77,-0.947 -1.67,-0.208 -3.66,0.122 -4.78,-1.358 -1.13,-1.503 -2.21,-3.027 -3.4,-4.491 -0.83,-1.023 -1.68,-2.028 -2.52,-3.045 -0.84,-1.029 -0.97,-2.092 -1.62,-3.182"
         style="fill:#cbe6a3;fill-opacity:1;fill-rule:evenodd;stroke:#000000;stroke-width:0.10870087;stroke-miterlimit:4;stroke-dasharray:none;stroke-opacity:1" />
    </g>
  </g>
</svg>
