<?xml version="1.0" encoding="UTF-8" standalone="no"?>
<!-- Created with Inkscape (http://www.inkscape.org/) -->

<svg
   xmlns:dc="http://purl.org/dc/elements/1.1/"
   xmlns:cc="http://creativecommons.org/ns#"
   xmlns:rdf="http://www.w3.org/1999/02/22-rdf-syntax-ns#"
   xmlns:svg="http://www.w3.org/2000/svg"
   xmlns="http://www.w3.org/2000/svg"
   xmlns:sodipodi="http://sodipodi.sourceforge.net/DTD/sodipodi-0.dtd"
   xmlns:inkscape="http://www.inkscape.org/namespaces/inkscape"
   width="16.876751mm"
   height="34.249271mm"
   viewBox="0 0 16.876751 34.249271"
   version="1.1"
   id="svg27987"
   inkscape:version="0.92.0 r15299"
   sodipodi:docname="albania.svg">
  <defs
     id="defs27981" />
  <sodipodi:namedview
     id="base"
     pagecolor="#ffffff"
     bordercolor="#666666"
     borderopacity="1.0"
     inkscape:pageopacity="0.0"
     inkscape:pageshadow="2"
     inkscape:zoom="0.35"
     inkscape:cx="933.32165"
     inkscape:cy="601.86589"
     inkscape:document-units="mm"
     inkscape:current-layer="layer1"
     showgrid="false"
     fit-margin-top="0"
     fit-margin-left="0"
     fit-margin-right="0"
     fit-margin-bottom="0"
     inkscape:window-width="1920"
     inkscape:window-height="1017"
     inkscape:window-x="1912"
     inkscape:window-y="-8"
     inkscape:window-maximized="1" />
  <metadata
     id="metadata27984">
    <rdf:RDF>
      <cc:Work
         rdf:about="">
        <dc:format>image/svg+xml</dc:format>
        <dc:type
           rdf:resource="http://purl.org/dc/dcmitype/StillImage" />
        <dc:title></dc:title>
      </cc:Work>
    </rdf:RDF>
  </metadata>
  <g
     inkscape:label="Layer 1"
     inkscape:groupmode="layer"
     id="layer1"
     transform="translate(263.95028,-273.82774)">
    <path
       inkscape:connector-curvature="0"
       id="al"
       class="landxx al"
       d="m -263.42951,296.76288 c 0.51843,-0.88531 0.9571,-1.92747 0.58491,-2.96565 1.39575,0.22464 0.67793,-2.99225 0.97038,-4.03441 0.22598,-0.80423 -1.02357,-0.8441 -0.57161,-1.86898 0.33234,-0.76834 0.61148,-1.57656 0.7843,-2.40071 0.29245,-1.40374 0,-2.96299 -1.76798,-2.51238 -0.69122,-2.12421 -0.66464,-4.97422 0.67796,-6.76609 1.10331,-1.45559 1.28941,-3.77388 2.83138,-1.06079 0.97039,1.71878 2.4592,-2.02849 3.90814,0.74307 0.30574,0.5756 0.25256,0.99433 0.73109,1.45425 0.91722,0.88665 1.52871,-0.0266 2.92446,1.91817 0.22598,0.32833 0.61148,2.3861 0.51843,3.99056 -1.51539,0.9624 0.34561,2.49241 -1.22296,3.23816 0.13295,0.57823 0.57161,1.02223 0.82417,1.5114 0,0.42138 0.17281,0.64337 -0.13293,0.99964 -0.1861,0.92384 0.57159,2.14681 1.19636,2.64262 0.73112,0.58223 0.51843,2.03117 1.861,1.87432 1.31602,-0.1542 1.23626,0.63937 1.64834,1.56456 1.60845,3.59175 -0.95709,2.75298 -1.87431,5.02607 -0.30574,0.76433 -1.09002,2.53231 -1.95406,2.98957 -2.21992,1.1791 -2.14016,1.08736 -1.26283,3.22621 -1.99395,-0.23795 0.61148,1.19502 -2.02053,1.62838 -1.52868,0.25124 -1.95406,-0.58887 -2.14016,-1.80918 -0.50514,-3.177 -4.73228,-4.31486 -6.56671,-6.80597 0.63807,0.10634 1.09002,0.45062 1.34258,1.0528 0.95709,-1.1073 -0.89062,-1.80784 0.13295,-2.20131 -0.58491,-0.37087 -1.06344,-0.85075 -1.43566,-1.43431"
       style="fill:#cbe6a3;fill-opacity:1;fill-rule:evenodd;stroke:#000000;stroke-width:0.14449541;stroke-miterlimit:4;stroke-dasharray:none;stroke-opacity:1">
      <title
         id="title889">Albania</title>
    </path>
  </g>
</svg>
