<svg xmlns="http://www.w3.org/2000/svg" width="63.786" height="129.446" viewBox="0 0 16.876751 34.249271"><path class="landxx al" d="M.52 22.935c.52-.885.958-1.927.586-2.966 1.395.225.678-2.992.97-4.034.226-.804-1.024-.844-.572-1.869.333-.768.612-1.576.785-2.4.292-1.404 0-2.964-1.768-2.513-.691-2.124-.665-4.974.678-6.766C2.302.93 2.489-1.387 4.03 1.327c.97 1.718 2.46-2.03 3.908.742.306.576.253.995.731 1.454.918.887 1.53-.026 2.925 1.919.226.328.611 2.386.518 3.99-1.515.963.346 2.493-1.223 3.238.133.579.572 1.023.824 1.512 0 .421.173.643-.132 1-.187.923.571 2.146 1.196 2.642.731.582.518 2.031 1.86 1.874 1.317-.154 1.237.64 1.65 1.565 1.608 3.592-.958 2.753-1.875 5.026-.306.764-1.09 2.532-1.954 2.99-2.22 1.179-2.14 1.087-1.263 3.226-1.994-.238.611 1.195-2.02 1.628-1.53.251-1.955-.589-2.14-1.81-.506-3.176-4.733-4.314-6.567-6.805.638.106 1.09.45 1.342 1.053.957-1.108-.89-1.808.133-2.202a4.62 4.62 0 0 1-1.436-1.434" fill="#cbe6a3" fill-rule="evenodd" stroke="#000" stroke-width=".144"><title>Albania</title></path></svg>