<svg xmlns="http://www.w3.org/2000/svg" width="259.575" height="111.945" viewBox="0 0 68.679176 29.618736"><path class="landxx at eu" d="M.063 19.624c.943-1.646.744-1.18.292-2.667-.16-.512 7.165-.295 5.45 2.667 2.074-.067 2.127-2.009 2.592-3.544.878.79 2.978.799 4.081.694-.904.463 1.595 1.254 1.901 1.152.652.31 1.622-.582 2.526-.888 1.808-1.095 4.838-1.894 6.899-1.22 0-.358 0-.733-.16-1.077 1.024.133 2.686.984 3.71.5 2.126-1.013 1.887 1.353 3.203 1.849 1.063.407 1.502-2.193.585-2.32-1.197-.164-.466-1.531-.612-2.146-.186-.829-.917-1.067-1.263-1.804-.877-1.885 3.988-2.533 4.959-3.19.837-.567.186-3.031 1.754-2.44 2.1.798.878-1.385 1.37-3.289 1.501.397 3.27 2.785 4.97 3.007 3.098-.779 3.377-.04 3.683.067 0-.925.518-1.83 1.436-2.128 1.196-.387 1.05-1.223 1.143-2.753 1.98-.173 4.36.747 6.221 1.365.625-.331 3.656 2.04 5.915 1.502 1.768-.42 5.185-.604 5.45 1.489 0 .255 0 1.255.266 2.152.24.986 0 2.4.572 3.124.704.99 1.688 1.167 1.595 1.8-.133.636-1.236 1.717-1.715 2.961-.89 2.34-1.98-.64-4.16.234-.944.379 3.442 1.29.837 2.615-2.034 1.037-1.502 3.776-.904 5.344-1.462-.31-5.21 1.895-4.014 3.828-2.087-1.317-3.058.191-5.025.37-1.422.134-2.406-.541-3.749-.27-1.01.206-3.203 2.323-4 2.74-1.503.784-5.371-1-6.873-1.217-3.869-.56-7.272-.08-11.246-1.33-1.21-.378-5.783-3.598-3.47-4.984-1.316-.275-2.392.683-3.642.861-1.821.262-3.376.014-5.21.535-1.09.308-1.968 2.28-3.098 1.951a79.89 79.89 0 0 0-3.336-.88c-.944-.236-.44-1.34-1.064-1.44-.731-.12-1.223.577-1.662 1.12-.81.993-3.11-.418-3.748-1.109-.705-.75-1.728-.861-2.127-.868.385-.876.16-1.672-.332-2.369" fill="#cbe6a3" fill-rule="evenodd" stroke="#000" stroke-width=".144"><title>Austria</title></path></svg>