<svg xmlns="http://www.w3.org/2000/svg" width="306.8" height="200.683" viewBox="0 0 81.17408 53.097401"><path class="landxx by" d="M.068 42.005c.624-1.646 1.502-3.204 3.43-3.554 1.9-.347 2.472-1.799 2.272-3.566-.492-4.146-4.08-7.037-4.745-11.124 2.166.554 4.971.156 7.231.416.691.08 1.728-.448 2.393-.615 1.329-.335.997-.949 1.954-1.762.598-.503 1.342-.027 1.967-.326.505-.236.745-.79 1.263-1.034.997-.465 3.057-.6 2.42 1.12.558.181 1.448.119 1.807-.435.771-1.197-1.382-1.606-1.994-1.861 2.18-2.372.479-4.902 3.536-6.509 1.422-.747 1.569-2.271 3.443-2.104 2.047.182 1.05-.875 2.592-1.63-2.14-.569-4.32-1.5-2.113-4.053 1.409-1.63 4.52-2.108 6.473-1.518 2.38.711 2.446-2.487 4.613-3.284 1.156-.424 2.924.78 3.496.313 2.167-.192 8.188.08 8.693 1.582.492.457-.319 1.442.253 1.998.771.748 3.443-.286 4.254-.674 2.844-1.365 3.934-.598 6.487 1.208.69.491 2.525.686 2.472 2.147 0 1.759-.133 2.138.784 3.726.572 1.046.838 1.397-.199 2.152-1.422 1.025.877 2.534 1.728 3.356 1.835 1.76 2.42 4.571 5.29 5.567.838.285 2.194.551 2.553 1.486.479 1.205-.917 2.403.292 2.404.506-.066 1.157-.053 1.622-.232.665-.136 1.45.275 2.114.357 2.22.28.85.786 1.754 1.815.466.536 1.848.875 2.473 1.717 1.303 1.748-.744 1.899-1.33 2.29-1.063.699-1.395 1.16-3.03 1.559-2.034.495-3.19-1.336-4.972-.964-4.44.926-1.621 2.644-.133 3.822.984.748.785 2.298 1.05 3.376.44 1.767 1.768 3.23 2.712 4.755-2.14 0-1.25-.536-5.024.66-1.569-.907-4.214.677-5.065 3.42-.372 1.212.359 2.116.558 4.015.213 2.134-2.446.298-2.977-.352-1.556-1.885-3.164.316-5.065-.759-4.4 2.4-3.204-.631-5.25-1.283-1.224-.64-3.23.576-3.045 1.988-.73-.33-.757-1.441-1.435-1.722-.705-.292-1.582.527-2.194.08-.85-.618-1.701-.569-2.685-.459-1.33.15-1.94-.748-2.114.848-.824-.21-1.422-.965-2.273-1.052-.957-.094-2.033.744-2.804-.314-1.622-2.247-4.081-1.35-6.368-1.83-2.353-.49-5.064-1.65-7.457-1.224-3.177.107-5.743.265-8.428.305-2.884 0-2.778 1.237-4.732 2.825-1.05.84-1.994.162-3.11-.054-1.49-.29-1.21.612-1.543 1.47-1.01 1.525.133-4.492.133-4.924.133-3.277-3.589-1.393-4-3.596" fill="#cbe6a3" fill-rule="evenodd" stroke="#000" stroke-width=".144"><title>Belarus</title></path></svg>