<svg xmlns="http://www.w3.org/2000/svg" width="133.599" height="114.862" viewBox="0 0 35.348186 30.390671"><path class="landxx ba" d="M.077 1.86c-.133-3.116 2.5-.903 3.696.08 1.302 1.057 2.206.165 2.725-1.175.491-1.286 2.459-.421 3.35-.24.159-1.252 5.41.861 6.606.861.824 0 2.326.838 2.991.368 1.542-1.08 1.143.22 2.499-.08 1.675-.368 3.124.054 4.68.675 1.302.525.491 1.783 2.166 1.875 1.037.053 2.46-1.063 3.376-.607 1.463.735.24 2.757-.372 3.573-2.02 2.714.213 3.64 2.193 5.146 3.417 2.598-.983 1.313-1.488 2.033 0 .093 2.352 3.104 2.366 3.845 0 .646-4.546 1.515-5.304 1.262-.186 1.207 1.316 1.695.77 2.967-.744-2.448-4.28.657-3.163 2.68-3.748-.828 1.037 5.238-1.276 5.195-1.475-.026-4.068-1.808-5.197-2.714-.599-.479-.678-1.054-1.516-1.163-.77-.107-.984.658-1.768-.456 2.5-.04-2.246-4.007-2.685-4.552-2.247-2.791-3.908-3.731-5.955-6.028-1.05-1.18-2.433-1.795-3.51-2.905-1.25-1.305-.438-3.407-1.635-4.862-.904-1.106-2.073-1.392-3.19-2.172-.558-.39-.266-2.75-.359-3.599" fill="#cbe6a3" fill-rule="evenodd" stroke="#000" stroke-width=".144"><title>Bosnia and Herzegovina</title></path></svg>