<?xml version="1.0" encoding="UTF-8" standalone="no"?>
<!-- Created with Inkscape (http://www.inkscape.org/) -->

<svg
   xmlns:dc="http://purl.org/dc/elements/1.1/"
   xmlns:cc="http://creativecommons.org/ns#"
   xmlns:rdf="http://www.w3.org/1999/02/22-rdf-syntax-ns#"
   xmlns:svg="http://www.w3.org/2000/svg"
   xmlns="http://www.w3.org/2000/svg"
   xmlns:sodipodi="http://sodipodi.sourceforge.net/DTD/sodipodi-0.dtd"
   xmlns:inkscape="http://www.inkscape.org/namespaces/inkscape"
   width="35.348186mm"
   height="30.390671mm"
   viewBox="0 0 35.348186 30.390671"
   version="1.1"
   id="svg26262"
   inkscape:version="0.92.0 r15299"
   sodipodi:docname="bosniaandherz.svg">
  <defs
     id="defs26256" />
  <sodipodi:namedview
     id="base"
     pagecolor="#ffffff"
     bordercolor="#666666"
     borderopacity="1.0"
     inkscape:pageopacity="0.0"
     inkscape:pageshadow="2"
     inkscape:zoom="0.35"
     inkscape:cx="271.08544"
     inkscape:cy="137.43111"
     inkscape:document-units="mm"
     inkscape:current-layer="layer1"
     showgrid="false"
     fit-margin-top="0"
     fit-margin-left="0"
     fit-margin-right="0"
     fit-margin-bottom="0"
     inkscape:window-width="1920"
     inkscape:window-height="1017"
     inkscape:window-x="1912"
     inkscape:window-y="-8"
     inkscape:window-maximized="1" />
  <metadata
     id="metadata26259">
    <rdf:RDF>
      <cc:Work
         rdf:about="">
        <dc:format>image/svg+xml</dc:format>
        <dc:type
           rdf:resource="http://purl.org/dc/dcmitype/StillImage" />
        <dc:title></dc:title>
      </cc:Work>
    </rdf:RDF>
  </metadata>
  <g
     inkscape:label="Layer 1"
     inkscape:groupmode="layer"
     id="layer1"
     transform="translate(88.733618,-154.80464)">
    <path
       inkscape:connector-curvature="0"
       id="ba"
       class="landxx ba"
       d="m -88.656444,156.66402 c -0.132923,-3.11587 2.499064,-0.90259 3.695424,0.0797 1.302728,1.05813 2.206636,0.16617 2.725065,-1.17375 0.491824,-1.28676 2.459193,-0.42138 3.349812,-0.2406 0.159528,-1.2522 5.410236,0.86138 6.606596,0.86138 0.824169,0 2.32627,0.83744 2.990912,0.3682 1.54197,-1.08072 1.1432,0.21933 2.499063,-0.0797 1.674919,-0.36822 3.12386,0.0532 4.679121,0.67394 1.302703,0.52508 0.491847,1.78392 2.166742,1.87563 1.036857,0.0532 2.459193,-1.06343 3.376417,-0.60749 1.46223,0.73511 0.239268,2.75698 -0.37219,3.57316 -2.02053,2.71441 0.212685,3.63959 2.193322,5.14568 3.416287,2.59879 -0.983673,1.31334 -1.488811,2.03382 0,0.0931 2.35285,3.1039 2.36614,3.84432 0,0.64604 -4.546174,1.51541 -5.303869,1.26283 -0.186108,1.207 1.315995,1.69485 0.770985,2.96699 -0.744405,-2.44856 -4.280325,0.65668 -3.163729,2.67986 -3.748607,-0.82816 1.036857,5.23742 -1.276123,5.19487 -1.475521,-0.0266 -4.067638,-1.80784 -5.197524,-2.7144 -0.598192,-0.47856 -0.677956,-1.05414 -1.515391,-1.16314 -0.77101,-0.10634 -0.983697,0.658 -1.767972,-0.45594 2.499063,-0.0399 -2.246507,-4.0065 -2.685171,-4.55151 -2.246506,-2.79151 -3.908135,-3.73132 -5.955244,-6.02836 -1.050147,-1.17908 -2.432614,-1.79453 -3.50934,-2.9045 -1.24952,-1.30536 -0.438665,-3.40697 -1.635025,-4.86255 -0.903909,-1.10599 -2.073688,-1.39177 -3.190309,-2.17208 -0.558298,-0.38947 -0.265847,-2.7503 -0.358901,-3.5984"
       style="fill:#cbe6a3;fill-opacity:1;fill-rule:evenodd;stroke:#000000;stroke-width:0.14449541;stroke-miterlimit:4;stroke-dasharray:none;stroke-opacity:1">
      <title
         id="title1254">Bosnia and Herzegovina</title>
    </path>
  </g>
</svg>
