<svg xmlns="http://www.w3.org/2000/svg" width="203.725" height="175.301" viewBox="0 0 53.902283 46.38184"><g class="landxx coastxx hr eu" transform="matrix(1.3293 0 0 1.3293 -1822.081 -475.499)" fill="#cbe6a3" fill-rule="evenodd" stroke="#000" stroke-width=".109"><title>Croatia</title><path class="landxx hr eu" d="M1371.44 366.77c.49.115.98.244 1.48.351.64.138 1.15-.483 1.5-.604.17-.06 1.62 1.336 3.72-1.349 1.31 1.278 2.37.816 3.78 1.602 1.85 1.027.94-1.24 1.76-1.44-.36-.08-.66-.388-1.01-.504 2.85-2.047 3.53.111 2.49-3.785-.13-.496 2.37-.942 2.78-1.334.63-.601 0-.391.63-.82 0 0 .99.247 1.16.252-1.9-2.167 1.67-1.302 2.38-.587.51.504 3.22 2.134 3.58 2.626 1.45 1.628 3.56 2.425 5.82 3.161 5.38.3 2.94-1.113 5.32-1.441 0-.519.38.582.69 1.231.45.936 0 2.154 1.43 2.21-2.29 1.593 2.75 2.504 2.22 2.834l-2.22.55c.72 1.191-.21 3.149-1.72 1.975-1-1.77-.97-.836-1.47-1.317-.94-.343-1.8-.54-2.74-.292-1.03.27-.96-.519-1.97.03-.74.408-1.24-.02-1.95-.184-1.69-.04-3.18-.581-4.77-1.035-1.17.106.46.6-1.36.106-1.33-.361-1.44-.02-1.89.803-.98 1.771-1.13.992-2.82-.265-2.19-1.616-1.89 1.345-1.75 2.448.1.682-.13.806.58 1.11.63.273 1.7.948 2.14 1.567.93 1.287 0 3.087 1.95 4.248 1.9 1.11 2.97 2.961 4.73 4.275 1.42 1.058 2.07 2.369 3.29 3.436 1.48 1.287.74 2.769-.93.819-1.73-2.017-6.04-4.973-8.83-3.934-.73.272-1.11 0-1.58-.617-.58-.755-.22-.957-1.33-1.504-1.6-.799-3.81-2.61-4.44-4.328 1-.172 1.9-.03 2.89.145-1.3-.952-2.9-1.665-3.8-3.062-.76-1.167-.26-2.662-.99-3.819-.65-1.017-2.09-1.989-3.25-2.306-.85-.233-1.63 2.224-1.47 2.851-.37-.152-.5-.04-.79-.36-.11.824-.31 1.706-.94 2.304-.51-.395-2.17-2.439-1.37-3.096-.91.211-1.35-2.287-1.58-3.024.21.02.43.05.65.07"/><path class="landxx hr eu" d="M1400.02 388.87c.74-.657 1.66.34 2.68 1.24 1.28 1.123 4.13 1.358 3.23 2.432-1.16-.161-3.17-1.794-4.08-2.525-.8-.64-1.84-.543-2.76-.859-1-.342-1.83-1.227-2.96-1.079 1.18-.906 3.46.498 4.4 1.224l-.51-.433"/><path d="M1376.77 370.87c-.41-.437-.53-.94-.36-1.513.83 1.372.98 2.96 1.44 4.464-.96-.143-1.89-2.246-1.08-2.951M1377.99 375.33c-.39-.498-.79-.978-1.22-1.44.51.368.95.865 1.22 1.44M1378.64 370.87c-.65-.07-1.8-1.394-.72-1.729.75-.233 1.33 1.443 1.87 1.729-.39.398-.78.398-1.15 0M1379.14 372.31l.72.432c-.65.306-.89.162-.72-.432M1380.58 377.71l-.72-.576c.32.1.56.292.72.576M1381.3 375.62c-.7-.672-1.4-1.37-1.87-2.232.88 1.22 2.43 1.662 3.31 2.88-.7.537-1.12-.116-1.44-.648M1381.37 379.01c-.24-.216-.47-.433-.71-.648.93.07 1.15 1.165 1.87 1.584-.55-.112-.94-.424-1.16-.936M1383.03 380.45a6.64 6.64 0 0 1 1.51 1.152c-.57-.262-1.16-.615-1.51-1.152M1383.03 379.22l-.72-.504c.36.01.6.18.72.504M1385.77 382.17c.26.12.52.24.79.36a3.71 3.71 0 0 1-.79-.36M1389.87 383.61c.24-.02.48-.05.72-.07-.24.1-.48.12-.72.07M1391.02 385.13l-.72-.36c.31-.001.55.119.72.36M1393.18 385.7c-.74 0-1.68-.186-1.8-1.08 1-.03 2 .1 2.95.432-.3.365-.69.581-1.15.648M1394.55 388.8c-.5-.117-1-.188-1.51-.216.89-.775 2.78-.649 3.74-.07-.75.235-1.53-.165-2.23.288M1395.85 386.93c-1.48.05-2.98-.08-4.4-.504 1.69-.556 3.41.346 5.12.288-.24.07-.48.144-.72.216M1400.67 390.53c-.72-.251-1.49-.35-2.23-.504.76-.167 1.59.11 2.23.504"/></g></svg>