<svg xmlns="http://www.w3.org/2000/svg" width="230.645" height="103.917" viewBox="0 0 61.024796 27.494825"><path class="landxx cz eu" d="M.072 7.957c.984 0 1.768.821 2.007 1.723.346-3.446 5.317-2.56 6.275-3.293 3.442-2.621 7.922-3.936 11.63-5.224-.305-.296-.637-.582-.956-.861.837-.194 1.808-.498 2.459.241.572.657 1.09 1.893 2.14 1.53.718-.25 1.622-.107 1.768-.946.16-1.009.585-.808 1.25-.638 1.116.284 1.422.455 1.741 1.506.944 2.527 6.022-.237 6.141 2.805.492-.53 1.728-.714 2.46-.57 2.379.472 0 1.887-.825 2.581 1.662.577 2.234 1.462 3.177 2.788 1.17 1.621 3.058-.277 4.095-.97-.625-.524-.984-1.193-1.05-2.01 2.472.648 4.772 2.53 7.457 1.723 0 1.237-.146 3.294 1.276 3.184 1.515-.12 2.06-.396 3.669.358 1.715.807 2.113.224 2.99 2.09-1.501-1.022 1.795.321 3.151 3.327-1.741.646-4.36.96-5.902 2.114-1.117.831-1.117 2.666-2.286 3.244-1.183.589-2.659 2.107-5.264 2.06-1.715-.026-2.951 0-3.948 2.191-.878-3.192-5.304-.908-7.298-1.595-1.635-.566-3.257-1.22-4.905-1.757-1.356-.435-3.922-1.149-5.317-1.05.133.91-.28 1.771-.187 2.68-1.355-.188-2.379.887-2.392 2.2-2.007-.801-2.047.067-4.028-.12-1.316-.119-2.406-1.53-3.43-2.224-1.329-.89-2.738-1.638-4.12-2.44-1.29-.748-2.752-2.605-4.121-3.143-2.287-.896-2.818-4.067-4.879-5.185C5.748 11.724.338 11.558.072 7.957" fill="#cbe6a3" fill-rule="evenodd" stroke="#000" stroke-width=".144"><title>Czech Republic</title></path></svg>