<svg xmlns="http://www.w3.org/2000/svg" width="192.426" height="84.797" viewBox="0 0 50.912704 22.436003"><g class="landxx coastxx ee eu" transform="matrix(1.3293 0 0 1.3293 -1888.138 -332.17)" fill="#cbe6a3" fill-rule="evenodd" stroke="#000" stroke-width=".109"><title>Estonia</title><path d="M1421.84 263.66c1.11-.414.82-1.347 1.44-2.088.43-.518 1.26-.344 1.82-.573.34.02.66.07.99.141.32-.232.63-.486.92-.761.67-.365 1.23-1.186 2.1-.896-1.23-1.163-2.39-1.349-4.03-1.224-.88.07-1.38-.124-2.1.533-.56.51-1.77.1-2.44.187.93.75-.11 1.493 1.14 2.291 1.46.929-.72 1.502.16 2.39M1424.72 254.3c-1.02.93-2.22 1.018-3.53 1.152.97.498 2.28-.02 2.81 1.209.39.897 1.18.757 1.59-.03.18-.352 1.56-.235 1.27-1.044-.28-.785-1.67-.675-2.14-1.287M1428.32 258.48c.48.24.89.145 1.22-.288-.34-.531-.92-.771-1.51-.504.1.263.19.528.29.792M1428.18 254.59v.647c.27-.155.51-.348.72-.576-.24-.02-.48-.05-.72-.07"/><path class="landxx ee eu" d="M1430.41 258.4c-.54-1.469 1.34-1.236 2.16-1.584-.6-.158-1.82.335-2.31-.07-.86-.709.74-1.32.22-2.16-.25.136-.49.279-.72.432.15-.474-.1-1.201.29-1.595.83-.952 2.34-.679 3.45-.709a4.004 4.004 0 0 1-.43-.864c1.07.604 1.54-.801 2.57-.634.53.09 2.18.779 1.97-.374.63.03 4.95.684 4.17-.864 1.59.536 3.73.298 5.41.499 1.49.176 2.74.802 4.19.989 1.4.182 6.69-.899 7.25.673-1.39-.02-1.6.717-1.92 1.862-.37 1.292-2.03 1.703-2.01 2.826 0 .856.61 1.422.83 2.221.2.715-.39 1.288-.14 2.003.18.513.88.898 1.24 1.254.55.551 0 1.035 1.14 1.569-1 1.114-2.42 1.63-2 2.808-.89.03-2.07-.496-2.93-.615-.97-.135-1.62.804-2.56.616-2.02-.403-3.62-2.153-5.51-2.936-.54-.225-1.5-.745-2.09-.703-.76.05-1.2-.53-1.87-.521-1.61.02-3.17 1.889-4.79 1.425.14-.75.38-2.691.75-3.278.47-.745-.66-1.099-1.05-.344-1.16 2.281-4.42-1.9-5.31-1.925"/></g></svg>