<svg xmlns="http://www.w3.org/2000/svg" width="248.982" height="107.59" viewBox="0 0 65.87645 28.466459"><g class="landxx coastxx ge" transform="matrix(1.3293 0 0 1.3293 -2066.102 -508.905)" fill="#cbe6a3" fill-rule="evenodd" stroke="#000" stroke-width=".109"><title>Georgia</title><path class="landxx coastxx ge ge-" d="M1554.34 384.668c0-3.863 7.97-.314 9.49.351 1.81.79 3.21 1.395 5.29.992.98-.19 1.78-.363 2.96.326.44.257 1.92-.168 2.72.29 1.81 1.046 3.34 1.737 4.12 2.233.35.22 1.15.35 2.23 1.455.69.711-.29.276.56.618 2.15.865 5.36-2.802 6.76.08.46-1.878 2.43-.528 2.77-.345.38.338.69.757 1.19.93.81.28 2.44-.26 2.85.935.3.87-.7 1.516.17 2.272 1.34 1.166 2.99 1.153 4.48 1.803 2.39 1.045-1.19 1.791 0 3.166.72.854 4.05 2.211 3.85 3.321-.46 2.478-3.3-.03-4.05.24-2 .732-3.15-1.57-5.04-1.939-.75-.148-1.47.04-2.03.508-.52.437-1.98.935-1.72 1.27-1.23.09-2.46-.16-3.69-.08-1.28.08-2.37.66-3.7.655-1.29 0-1.83-.161-2.92-.283-.19-.02-1.86.06-1.58-.57.19-.414 0-.787-.41-.681-.13.01-1.76-1.819-2.68-1.561.63-1.426-1.57-.528-1.8.354-.24.898-3.14-.103-3.88-.29-.52.09-.54.967-1.43.487-.44-.236-1.27-.752-1.69-.534-.1-.148.1-.322.29-.846.6-1.6 1.29-2.534.17-4.109-1.06-1.499-1.2-3.443-2.24-4.958-.85-1.255-2.42-1.122-3.33-2.317-.85-1.119-2.65-1.276-3.9-1.456-1.73-.251-2.15-2.081-3.79-2.315"/><path class="limitxx ge xa" d="M1554.34 384.668c1.64.234 2.06 2.064 3.79 2.315 1.25.18 3.05.337 3.9 1.456.91 1.195 2.48 1.062 3.33 2.317.27.384.47.795.65 1.219 0 0 0 .139.25-.113.3-.252.25-.226.45-.579s.15-.378.43-.58c.28-.201.71-.277.81-.604.1-.328.1-1.487 0-1.916-.1-.428.4-.957.85-1.209.46-.252.36-.932.34-.948-2.1.388-3.5-.217-5.31-1.007-1.52-.665-9.47-4.214-9.49-.351"/><path class="limitxx ge xo" d="M1581.15 390.315c.69.711-.29.277.56.618 1.18.475 2.67-.413 4.02-.838 0 0 .24.312.26.579 0 .267 0 .552.43.713.37.16 1.14.552 1.42.712.29.161.41 1.39.41 1.568 0 .178 0 .873-.6 1.034-.57.16-.95.481-1.12.534-.18.05-.41.161-.9-.445-.48-.606-1.83-1.105-1.92-1.158-.1-.05-.82.498-1.18.641-.35.143-1.58-.339-1.62-.552 0-.214 0-.749-.1-.927-.1-.178-.23-.552-.44-.802-.22-.249-.41-.819 0-1.14.39-.321.78-.552.77-.537z"/></g></svg>