<svg xmlns="http://www.w3.org/2000/svg" width="1545.945" height="823.397" viewBox="0 0 409.03125 217.85712"><g class="landxx coastxx gl" transform="matrix(1.3293 0 0 1.3293 -1246.642 -112.797)" fill="#cbe6a3" fill-rule="evenodd" stroke="#000" stroke-width=".109"><title>Greenland</title><path d="M991.855 170.998c.602.14 1.175.355 1.72.647-1.201-.211-3.085-.878-3.31.937.602 0 1.157.313 1.51.792-.91-.356-2.182-.984-2.95 0 1.412 1.196 3.546.996 5.26.936-1.906.724.471.3.79.216-1.935.934 1.729-.502 2.229-.432-.66.02-2.217.709-.72 1.008-1.536 0-3.079-.102-4.61.07-.08 2.55 6.884.65 7.976.492 1.24-.18 6-.791 5.95-2.64 0-1.199-2.15-1.279-2.95-1.528-1.7-.527-2.52-2.108-4.432-2.281-1.791-.162-3.4-.724-5.169-.09-.672.242-2.926 1.192-1.294 1.868M992.136 167.542c-.292.243-.266.507.08.792a2.48 2.48 0 0 0 .72-.576c-.267-.07-.534-.144-.8-.216M993.935 157.534c.408.886 1.405.429 1.66-.289-.559.06-1.112.16-1.66.289M1003.23 161.71c-1.05.04-2.26.58-2.88 1.439 1.11.485 4.15.507 2.88-1.439M1006.18 160.126a8.294 8.294 0 0 0 2.96-1.008c-1.03.168-2.34-.326-3.29.03-.82.304-.39 1.01.33.977M1005.75 161.422c-1.33 1.637 3.1.811 3.82-.07-1.29.09-2.57-.393-3.82.07M1007.98 160.198c-.55-.07-1.05.05-1.51.359.51-.09 1.01-.21 1.51-.359M1010.58 164.014c-.59-.09-.88.209-.8.792.79.101 1.64.173 2.38-.216-.53-.192-1.06-.384-1.58-.576M1011.66 166.318c-.21-.606-1.03-.641-1.52-.504.49.22.99.388 1.52.504M1010.43 167.11c.21.139.45.211.72.216-.24-.07-.48-.144-.72-.216M1012.59 167.47c-.47-.395-.99-.515-1.58-.36.51.16 1.04.28 1.58.36M985.74 194.97c.55.02 1.05-.121 1.51-.432-.53.05-1.03.198-1.51.432M989.19 193.82c-1.28.01-2.51.465-3.74.721 1-.873 2.51-.761 3.74-.721M990.49 185.11c.38.661.65.564.79-.288-.27.1-.53.192-.79.288M994.88 182.01c-.5.188-.96.452-1.37.792.61.331 1.86.184 1.37-.792M995.53 181.51c-.25.1-.49.218-.72.36l.72-.36M996.32 180.57c-.27.05-.54.117-.79.217.26-.07.52-.144.79-.217M997.25 180.36c-.24.06-.49.119-.71.216.24-.07.47-.144.71-.216M997.54 184.32c.57.311 2.73-.333.8.504 1.22-.09 2.78-.225 3.74-1.08-1.5.317-3.02.443-4.54.576M999.13 184.97c.44.665 3.24.06 3.74-.36-1.2-.286-2.57.08-3.74.36"/><path d="M992.14 174.38c.19.203.43.228.72.07-.24-.02-.48-.05-.72-.07M1000.21 180.5c-1.81-.286-3.57.262-5.33.575 1.37.434 4.15.335 5.33-.575M1011.58 171.57c-.56-.08-1.09.02-1.58.289 2.07-.116-2.49 1.152-1.06 2.417.71.626 1.28.06 1.61-.55.52-.94 1.54-.822 2.33-1.363-.37-.375-.8-.639-1.3-.793M998.7 151.34c-.99-.16-2.26.156-3.03.792.96-.05 2.3-.05 3.03-.792M996.68 152.93c.29-.12.57-.24.86-.36a3.04 3.04 0 0 0-1.65.288c.26.02.52.05.79.07M998.55 145.01c-.77.1-1.6-.07-2.23.504.99-.132 2.01-.101 2.95-.504h-.72M1000.28 154.08c-1.22.01-2.83.342-3.82 1.08 1.05 1.097 2.98-.394 3.82-1.08M997.04 153.14c.21.155.45.131.72-.07-.24.02-.48.05-.72.07M997.25 146.09c.26.07.53.07.8 0h-.8M998.05 144.21c-.17-.01-.48-.15-.8 0 .26 0 .53.01.8 0M998.05 139.32c-.27.1-.53.192-.8.288 1.51-.242 3.42.563 4.76-.432-1.32-.215-2.64.184-3.96.144M1001.43 150.84c-.91.403-3 1.263-3.96 1.296 1.74-.08 3.18.377 4.68-.936l-.72-.36M999.92 148.03c-.91-.05-1.64.641-2.3 1.151.84-.134 1.64-.644 2.3-1.151M998.26 146.01c.48-.268.98-.483 1.51-.647-.59.03-1.09.243-1.51.647M999.85 144.36c.58-.1 1.13-.292 1.65-.575-.98-.09-2.38-.659-3.09.359.51-.123.99-.05 1.44.216M999.99 146.95c-.4.181-.79.396-1.15.647.57.224.99-.09 1.15-.647M999.41 144.43c.23.194.49.242.8.144-.27-.05-.54-.1-.8-.144M1001.07 152.71a2.529 2.529 0 0 0-1.51.144c.52.188 1.03.14 1.51-.144M999.7 150.55c-.14.6.1.647.72.144-.24-.05-.48-.1-.72-.144"/><path d="M1000.49 138.67c-.26.1-.53.192-.79.288.64.323.91.228.79-.288M1001.22 150.33l.72-.576c-.75-.278-1.57-.417-2.24.144.5.157 1.01.301 1.52.432M1000.86 145.8h-.72c.8.281 1.52.75 2.3 1.08-.41-.528-1.04-.736-1.58-1.08M1000.35 146.45c.32.213.2.324.72 0h-.72M1001.79 151.92c-.6-.01-1.11.205-1.51.647.6 0 1.1-.206 1.51-.647M1001.72 147.6c.56-.17 1.08-.41 1.58-.72-.56.17-1.09.41-1.58.72M967.66 119.73c.493.07.973.02 1.44-.144-.411-.03-2.678.507-.57.216-.29-.03-.58-.05-.87-.07M939.29 119.95c-.548-.03-1.002.157-1.36.575 1.782.208 3.494.317 5.25-.144-1.314.09-2.593-.316-3.89-.431M943.76 126.86c.263-.1.527-.192.79-.289a2.56 2.56 0 0 0-1.15-.144l.36.433M944.26 119.95c.272 1.324 4.538.454 5.4.287-1.809.06-3.591-.573-5.4-.287M944.7 125.78a5.528 5.528 0 0 0 2.52 0c-.743-.421-1.783-.448-2.52 0M966.58 119.09a6.56 6.56 0 0 0 1.59-.288 6.56 6.56 0 0 0-1.59.288"/><path d="M967.66 119.73a4.07 4.07 0 0 1 1.44-.144 3.01 3.01 0 0 1-1.44.144"/><path d="M967.66 119.73c.29.02.58.05.87.07-.298.05-.588.03-.87-.07M985.59 100.44c.49.212.99.261 1.51.145-.48-.374-.98-.422-1.51-.145M1065.37 93.17c-1.14-1.132-3.02-.203-4.22-1.158-1.18-.941-3.22-.949-4.35.08 1.81 1.799 6.27 1.356 8.57 1.08"/><path d="M1062.13 91.94c.55.13 1.08.06 1.58-.216-.57-.207-1.09-.135-1.58.216M1074.37 89.06c.53.08 1.05.08 1.58 0-.53-.09-1.06-.09-1.58 0M1080.77 90.93c.39-.02.7-.19.94-.504-.8-.176-1.66-.326-2.45 0 .54.04 1.05.207 1.51.504M1082.43 89.06c1.11 0 2.35.272 3.39-.288-1.09-.206-2.48-.609-3.39.288M1086.1 90.43c.72 1.138 2.64 1.209 3.82 1.305 1.84.149 3.78 1.16 5.61.926-.27-.209-.53-.425-.79-.647.94-.447 2-.607 3.03-.647-2.68-2.785-9.67-1.954-13.03-1.584.43.265.88.481 1.36.647M1089.49 88.77h1.73c-1.13 0-2.19-.474-3.32-.432.53.143 1.06.286 1.59.432M1114.47 86.9h2.3c-.75-.164-1.56-.249-2.3 0M1121.38 88.05c-1.84-1.041-4.44-1.099-6.48-.864 2.15.349 4.28.864 6.48.864"/><path d="M1122.61 87.98c.58.02 1.11-.148 1.58-.504-1.6-.201-3.4-.732-4.97-.144 1.07.374 2.25.638 3.39.648M1126.06 87.4c.46 0 .91-.02 1.37-.07-1.75-.611-6.36-1.702-7.99-.648 2.23 0 4.4.55 6.62.719M1124.05 86.25c.78.223 1.72.452 2.37-.216a4.83 4.83 0 0 0-2.37.216M1203.97 95.18c1.01-.143 2.04-.02 3.02-.36-.51-.06-1.01-.138-1.51-.216-.51.167-1.02.359-1.51.576M1207.93 93.67c.62.139 1.15-.03 1.58-.504-1.08-.35-1.96-1.204-3.17-.937-.12.951.94 1.155 1.59 1.441M1214.98 94.97c.26-.1.53-.192.8-.288-.98-.519-2.15-.827-3.17-.216.8.101 1.57.361 2.37.504M1213.83 93.09c.24 0 .48-.02.72-.07a1.768 1.768 0 0 0-1.51-.432c.26.168.52.336.79.504M1194.03 116.49c-.58-.12-1.19.277-1.51.721a7.865 7.865 0 0 0 1.51-.721M1198.28 115.2a1.99 1.99 0 0 0-1.66.144 1.96 1.96 0 0 0 1.66-.144M1196.77 116.21c.26.105.52.08.79-.07-.27.02-.53.05-.79.07M1199.22 117.43c1.06.232 2.15.273 3.23.36-.94-1.268-3.86-1.299-5.25-1.08.63.333 1.32.548 2.02.72M1204.62 111.6c.23.03 1.15-.224.63-.65-.62-.52-1.68.306-2.29.435.68.628 1.62.685 2.45.359-.27-.05-.53-.1-.79-.144M1204.54 113.9h-.79c.24.208.5.375.79.504v-.504M1205.7 115.49c-.5-.14-1.18.212-1.59.433a3 3 0 0 0 1.59-.433M1204.26 114.98c.51-.07 1.02-.189 1.51-.359-.55-.246-1.14-.121-1.51.359M1209.37 103.24c-.75-1.309-3.77-.486-4.61.289 1.51.438 3.1-.151 4.61-.289M1211.02 117.14c-1.12-.279-2.52.769-3.31 1.44 1.08.17 3.33.141 3.31-1.44M1209.58 112.32c-.61-.244-1.23.06-1.58.576.52-.193 1.05-.384 1.58-.576M1210.81 111.09c-.52.125-.79.05-.8.72.28-.224.55-.464.8-.72M1213.76 108.86c-.79-.04-2.02.515-2.02 1.439.72-.465 1.59-.47 2.38-.72l-.36-.719M1194.68 127.22c-.51-.331-1.61-.294-2.31 0 .79.396 1.48-.09 2.31 0M1162.78 150.48c-.98-.197-2.02.144-2.95.432 1.09.149 2.14.622 2.95-.432M1162.64 147.6c2.99-.52 5.98 1.391 8.93.36-2.74-.393-7.66-2.914-10.01-.433.36.05.72.08 1.08.07M1178.05 150.4c-2.37-1.14-11.47-2.485-13.54.07 1.98-.183 5.55-.417 7.4.346.48.199 1.42 1.155 1.95 1.057 1.19-.217 2.43-.05 3.61.108-.1-.577-.51-.937-1.08-.936a5.24 5.24 0 0 0 1.66-.647M1186.4 139.82c-.6-.08-6.37.584-4.98 1.592 2.07 1.503 6.37.71 8.65.209-.78-.233-1.1-1.004-1.76-1.4-.58-.352-1.29-.219-1.91-.401M1190.22 125.78c.24-.192.47-.384.71-.576-.79 0-1.61-.11-2.3.359.52.116 1.05.188 1.59.217M1192.01 137.88a7.66 7.66 0 0 0 1.52-.721c-.48-.486-1.22-.713-1.87-.432.37-.156.68-.396.93-.72-.67-.233-1.6-.513-2.3-.216-.74.313-.81 1.19-1.59 1.439.81.748 2.28 1.16 3.31.65M1192.37 126.07c-.8-.1-1.43.493-2.23.36.7.462 1.9.658 2.23-.36M1192.88 125.64a1.69 1.69 0 0 0-1.51.288c.5-.103 1-.199 1.51-.288M1194.89 126.65c-.66-.269-1.67.08-2.3.288.77-.1 1.56 0 2.3-.288M1198.49 138.74c-.73-.629-1.51-.336-2.3 0 .69.548 1.75.635 2.3 0M1204.11 133.41c-.72-.131-.88.539-1.51.575-.61.04-1.12-.502-1.72-.395-1.28.231-2.3 1.142-2.39 2.482 1.63-.253 3.61-.407 5.25-.174 1.24.176 2.34.644 3.11-.689-.68-.283-1.07.177-1.72.234-.82.07-1.47-.368-2.1-.811.53-.194 1.06-.386 1.59-.576l-.51-.646M1202.24 128.37c.23-.426.92-2.813.7-3.245-.65-1.29-2.37.351-.7.221-.43.144-1.49.167-1.55.799-.1.786.74 2.668 1.19 3.306.27-.31.39-.67.36-1.081M1122.53 184.39c.51.245 1.01.245 1.52 0-.43-.496-1.14-.683-1.52 0M1153.49 163.37c-1-.02-2.01.306-2.94.625-1.57.537-3.03.316-4.62.599-1.52.268-2.76 1.189-4.22 1.596-.46.108-.93.201-1.39.276-.69.139-.83.963-1.51 1.152 2.05 1.173 5.04-.121 7.2-.327 2.94-.282 5.85-.06 8.71-1.113l-.72-.648c1.52-.146.17-1.647-.79-1.512.1-.216.18-.432.28-.648"/><path d="M1144.35 164.73c-.83-.218-1.88-.281-2.66.145.39 1.205 2.04.33 2.66-.145M1149.97 167.32c-.47-.316-1.18-.06-1.59.217.58.286 1.11.214 1.59-.217M1163.65 173.01c-.55-.222-1.2.05-1.59.433.58.253 1.2.05 1.59-.433M1173.73 154.44c-.65.07-.99-.305-.8-.936 1.21.277 2.49.599 3.75.504 0-.828-1.78-1.406-2.38-1.656-.31.05-.62.06-.93.01-.63-.402-1.23-.757-1.83-1.189-.99-.702-3.22-.449-4.38-.46-1.57-.02-2.96-.487-2.9 1.353 0 1.48 4.84 2.01 5.9 2.472 1.31.571 4.48 2.654 5.37.476-.61-.157-1.21-.35-1.8-.577M1047.37 213.77c-.18-.1-.14-.414-.72 0h.72M1048.16 214.27c.79-.1 1.59-.07 2.38-.07-.1-1.357-1.96-.692-2.38.07M1053.77 212.47c.1-.648-.45-1.062-1.07-1.008.6-.589.71-1.815 0-2.371-.18-.136-1.52-.507-1.18.182.79 1.569.47 2.657 2.28 3.197M1059.75 206.06l.72-.432c-.49-.175-.97-.15-1.44.07l.72.36M1071.34 203.83c.32-.54 1.36-.487 1.89-.564 1.53-.224-.1-1.085 1.28-.947-1.16-.741-2.22-1.333-3.36-.123-.53.558-1.18 1.818.19 1.634M1075.59 203.69c.26-.214.5-.454.72-.72-.52-.34-1.03-.316-1.51.07.24.245.5.461.79.648M1077.03 202.53c.43-.2.67-.536.72-1.009-.58.07-.86.433-.72 1.009M1078.04 202.1c.45-.467.98-.899 1.58-1.151-.75-.106-1.63.267-1.58 1.151"/><path d="M946.06 124.41c3.017.731 6.146.738 9.22.432-.149 1.425-2.762.781-3.636.764-1.657-.03-4.525.529-6.014 1.253 1.021.996 3.08 1.534 4.47 1.584-1.606.316.08.549.613.634.777.125 1.566.1 2.35.117 1.691.04 3.659 1.005 5.308.328-.827-.313-1.299-1.205-2.23-1.296 1.772-.208 1.908-.69 3.372.394.922.682 3.412-1.6 5.058-.682a3.977 3.977 0 0 0-1.51.937c.967.716 2.071.377 2.687-.438.173-.229 1.601.199 2.115-.08.347-.101.695-.1 1.046 0 .525.06.524-.487.964-.584.989-.22 2.299-.508 2.189.669.49.02 7.82-2.52 6.98-.289 1.1-.908 2.81-.417 4.06-.178 1.77.341 3.6.153 5.37.538-.14.242-.28.481-.43.72.75.155 4.01-.525 3.6.648.53-.03 1.06-.103 1.58-.216-.25.208-.49.424-.72.647 1.02.325 2.07-.229 3.1.07-1.55.06-.19.946.41.975.76.04 1.5-.208 2.25-.183-1.99.569.62.109 0 1.321-.54 1.068-1.95.81-2.89 1.127.82.344 1.5-.328 2.31-.288-.69.324-1.24 1.54 0 1.44-.25.186-.48.378-.72.575 1.47.881 4.14.38 5.25 1.8-.57.395-1.69.166-1.65 1.152 1.42-.942 2.36 1.132 3.31.792-.72.739-2.07.82-3.02.648.69.463 1.52.389 2.3.288-.7.464-1.52.33-2.3.432.48.333 1.01.429 1.58.288-1.99.664-4.15.568-6.12 1.296 2.12.346 4.25-.385 6.26-.936-.4.499-.92.904-1.51 1.151a4.27 4.27 0 0 0 1.66.36c-1.76.184.29.937.72 1.008-.89.08-1.36.958-.15 1.08-.18.07-3.67.08-1.58.288-1.74.322 2.38 1.561 2.59 2.304-.57-.317-3.39.431-1.58.792-.86.207-1.47 1.211-2.45.792 1.13.593 2.09.06 3.09.432 1.52.553.66 1.846-.57 1.944.52.258 1.02.234 1.51-.07-1.09.377-1.92 1.235-3.02 1.584 1.01.279 2.06.335 3.09.504-2.31.546-4.82-.787-7.05.287 1.09 1.078 3.47-.271 4.61.576-1.15.08-1.94.991-2.99 1.333-1 .323-2.39.603-3.13 1.404 2.57 1.216 4.44-.729 6.76-1.512-1.83 1.23-3.19 1.94-5.39 2.188-1.42.159-3.43.532-4.54 1.484.75.156.82.884 1.1 1.461.32.659 2.19 1.152 1.27-.166 1.23.972 3.04 1.142 4.54.987.69-.07 1.38-.225 2.03-.496 1.75-.743.12-.787.7-2.075.4.481.91.649 1.52.504-.92-1.303 3.09-.121 2.69-2.365-.14-.797-.85-1.005-.53-1.883.34-.953 1.05-.72 1.87-.72-2.74.1-.48 2.222-1.08 4.031 1.08-.521 2.71-1.276 3.89-1.439-1.02.45-2.93 1.273-3.75 2.016 1.47.186 3.03.425 4.48.558 1.34.122 2.71-1.038 4.02-.63-2.28 1.979-5.8.671-8.35 2.089 2.94.198 6.27-1.225 9.07-.504-1.13.653-2.6.198-3.82.432-1.33.254-2.33 1.273-3.67 1.512 1.56 1.006 3.78-.849 5.33-1.079.32.806 0 1.057-.94.75-.97.1-1.9.4-2.8.762 1.1.923 3.39.143 4.67.07-2.03.525 1.03.854 1.52.791-1.79 1.207-3.73-1.062-5.47 0 1.04.313 1.87.931 2.98.993.75.04 1.58.05 2.31.228.8.192-.2 1.021-.75.774-.96-.431-1.76-.06-2.74-.05.54.576 2.82.505 3.67.792-.53-.09-1.06-.09-1.59 0 .23.248.47.488.72.72-.81-.407-2.07-.386-2.95-.288.41.306 2.61.952.72.793 1.03.689 2.21.243 3.1-.433-.5.338-.58.82-.98 1.218-.56.571-1.99-.08-2.62-.216-2.22-.494-3.58-.97-5.62-2.015-2.01-1.026-4.18-.174-6.27-.699-1.94-.486-4.23-.56-5.9.704 1.08.76 1.99 1.759 3.32 2.069 1.83.426 4.07.02 5.56 1.427 1.37 1.288 2.41.988 4.15 1.306.29.05 1.01.342 1.29.236.78-.283 1.73-1.097 2.53-.358-.51.09-1.01.212-1.51.36 1.95.255 3.82-.573 5.76-.504-.32.573-1.18.622-1.66 1.008.61.06.89.501.72 1.08-1.17-.06-2.15-.21-3.09.648.59-.167 1.09-.02 1.51.432-.83-.172-2.48-.657-2.52.72.88 0 2.15-.57 2.95 0-2.04-.348-4.28.914-5.69 2.231 1.36.411 2.13-.659 3.36-.659.55 0 .71.891 1.32 1.019-.72.316-1.53 0-2.16.576.52.06 1 .229 1.44.504a2.12 2.12 0 0 0-1.44.504c-.1-1.331-1.52-.851-2.37-.792.24-.187.48-.379.72-.576-.93-.25-1.64.451-1.95 1.303-.29.774-1.29.678-1.72 1.434 1.04.25 2-.379 3.02-.432-.66.219-1.98.437-1.37 1.439-1.1-.458-2.19.584-3.3.485-1.11-.1-2.36-.454-3.47-.197.47-.121.93-.289 1.37-.504-.98.487-2.05-.173-3.02.433.53-.02 1.05 0 1.58.07-1.03-.05-2.16.06-3.1.504 1.9 0-1.13.728-1.52.809-1.06.217-2.16.333-3.15.775 1.27.04 2.54-.583 3.81-.288-.63-.01-1.21.292-1.58.793.88-.868 3.31.08 4.49-.09 1.31-.183 3.58.282 4.51-.921-.6.102-1.1-.07-1.52-.504 1.56.436 3.06-.398 4.61-.432-.67.313-1.43.32-2.1.626-.62.283-.67 1.009-1.43 1.101.49.131.98.299 1.45.504-.75-.06-1.52-.354-2.24 0 2.03.508 3.86 1.688 5.98 1.872-2.26.441-4.24-1.196-6.48-.972-1.14.114-2.33.178-3.46-.04-1.22-.229-2.38-1.22-3.67-.792.54.182 1.05.445 1.51.792-1.65-.493-3.44-1.203-5.18-.792 1.02 0 1.27.288 1.99.874 1.2.963 2.84.749 4.27.71-2.08.596-3.99-.937-6.05-.504.49.183.99.254 1.52.216-.76.155-1.54.23-2.24.576 1.82-.05-.12.549-.71.144 1.52 1.915-2.51-.389-1.66 1.009-.82-.33-1.04-.114-.65.647.21-.222.43-.438.65-.647.52 1.021-1.63.517-1.37 1.872 2.1.04 3.71-1.638 5.71-2.015 2.63-.495 5.32-.975 7.97-1.442-1.39.839-3.07.375-4.54.937.83.832 1.99.784 3.03.433-1.82.487 1.38.633 2.23-.07-.19-.27-.38-.533-.57-.792 1.02-.01 2.04-.851 3.02-.145-.74.157-1.5.188-2.23.36.18 1.363 2.54.723 3.31.432-1.81-.197-.1-.604.38-.607.66 0 1.33.188 1.92.464-1.94.517-3.96.864-5.97.864 1.88 1.171 3.79.119 5.76-.07-1.22.531-2.56.629-3.82 1.008 1.05.778 2.43.759 3.67.72-2.16.614-3.99-.795-6.05-1.098-2.43-.357-5.1-.647-7.56-.774 2.09.01-1.8.377-2.23.576 1.83-.27 0 .167-.32.267-.89.242-1.79.473-2.67.771-.95.322-3.18 1.024-2.91 2.419 1.05-.187 2.04-.622 3.08-.837 1.23-.253 2.4.203 3.66-.09 3.03-.691 6.11.04 9.1-.661-.72.241-1.47.391-2.23.433.84 2.702 3.44.677 5.33 1.224-.96.12-4.09 1.101-4.84.306-1.1-1.166-.85-1.521-2.71-1.347-1.75.163-3.51.183-5.27.357-.99.1-1.98.133-2.97.23-.21.02-3.37.315-1.14.382-.98.242-2.06-.01-2.95.576.93.479 1.97.352 2.95.144-.72.244-1.48.313-2.23.288.64.556 1.46.41 2.23.505-1 .09-2.01.144-3.02.144 1.61.668 3.36.365 5.04.647-1.23-.04-2.74-.151-3.74.721 1.51-.311 5.72-2.107 7.05-.937-.99.194-.96.411.1.648-.72.377-1.39-.06-2.11-.126-.82-.08-1.61.322-2.43.126.5.105 1 .177 1.51.216-.64.572-1.48.377-2.23.576.74.364 1.53.02 2.3.07-1.5.466-3.12.06-4.61.575.87 1.259 4.05.952 5.33.721-.96.386-4.21.591-5.25.288 1.83 0-.28-.18-.63-.09-.77.191-1.33.846-1.98 1.26-1.37.879 2.8.58 2.97.563-1.22.222-2.59.221-3.53 1.152 1.67.719 3.78-.438 5.25-1.152 1.76-.853 3.92-.984 5.46-2.256 1.4-1.149 3.34-1.509 5.03-2.044 2.29-.731 4.52-1.391 6.94-1.604-.49.183-.99.255-1.51.216.71.378 1.52.388 2.3.36-.56.283-1.33.195-1.92.124-1.27-.154-2.18.06-3.41.38.67.824 2.18.625 3.1.576-1.69.528-3.43-.302-5.12.16-1.81.493-3.73 1.063-5.28 2.157-1.46 1.04-3.49.657-4.91 1.792-1.48 1.187-3.51 1.183-5.21 1.866.5.117 1 .189 1.51.217-.49.183-.99.255-1.51.216.84.795 2 .05 2.88-.216-.73.3-1.47.582-2.23.792 1.27 1.082 3.08-.716 4.46-.576 1 .102.15.883 1.44.264.93-.447 2.05-.55 3.03-.84 0 1.23-.83.492-1.66.605-.92.126-1.31.572-2.04 1.022-.18.116-1.56-.213-1.74-.215-1.32-.01-2.52.274-3.71.818.55.116 1.08.07 1.59-.144-.47.354-1 .522-1.59.504.95.792 2.25.265 2.95-.575 0 .569-.3.93-.86 1.008 1.91-.193-.33.592-.72.863.87.506 1.68-.39 2.3-.863-.46.5-.97.956-1.51 1.367.97-.368 1.06-.176.29.576.52-.09 1.04-.177 1.56-.249 1.07-.176 1.82-.578 2.69-1.209.97-.704 2.22-1.018 3.37-1.269 1.48-.32 2.79.489 4.19.208-.5.4-.35.568.43.504-2.49.42-4.91-1.592-7.34.41-.88.729-1.77.757-2.73 1.286-.6.241-1.22.443-1.84.605-.62.246-.68 1.122-1.27 1.443.73-.286 1.35-1.383 2.24-.864-.15.25-.32.489-.51.72.5-.18.98-.396 1.44-.647-.92.611-1.96 1.342-1.37 2.592-.37-.05-.63.09-.78.411-.25 1.123 1.98.07 0 .813 1.14-.05 2.63-2.278 3.75-1.439a6.1 6.1 0 0 1-.72.647c.76-.266 1.49-.636 2.3-.72-1.64.464-4.28 1.071-5.66 2.07-.44.325-1.18 3.393-1.11 3.906 2.82.186 4.49-5.307 7.34-4.177-.58.146-1.09.523-1.43 1.009 1.33.202 3.77-.834 4.13-2.235.15-.553.16-.914-.36-.812-.54.106-.19-1.314-.17-1.562.46.423.96.495 1.51.216-1.07.146-1.11 1.544-.82 2.321.71 1.887 2.51.535 3.7.127-.45.214-2.43 1.889-.58 1.296-2.36 1.369 1.02 1.423.87 2.88-.84-.34-2.01-.533-2.6-1.296-.68-.875-.42-2.075-1.94-1.512 1.99.397-1.18.372-1.51.432.5.28 1 .544 1.51.792-1.78.354.83.781 1.58.432-.7.904-1.88.676-2.87.62-.64-.04-3.54.485-1.74 1.036-1.53 1.153-3.49.06-5.18.504.53.05 1.05.1 1.58.145-.54 0-1.05.149-1.51.432 2.27 1.23 6.29-.401 8.21-1.728-.46.387-.94.747-1.44 1.08.72.139 2.4-.73 2.52.504-.48-.472-3.34-.242-4.02 0-1.5.54-3.46 1.088-5.05.717.78.233.93.69.29 1.224.87.584 2.07-.111 2.95-.288-.76.23-1.41.699-2.16.937-.28.09-3.67.984-1.51.576-1.56.277.19 1.007.65 1.584.35-1.51 3.02-1.005 4.1-1.08-.98.36-3.1-.297-3.53 1.008.72 0 1.44-.05 2.16-.145-.97.325-2.02.335-2.95.793.76-.05 1.27.575 2.02.575.85 0 1.68-.209 2.51-.36-1.24.746-3.39-.122-4.37.759-.72.645.81.937 1.28.61-1.88.952.63.201 1.06.165.89-.07 1.79-.08 2.68-.09-.65.224-2.41.597-2.82 1.171-.53.754 1 1.042 1.46.558-.47.454-.88.958-1.23 1.512.73-.424 1.36-1.245 2.3-1.152-.85.455-1.66.996-2.3 1.729 1.07-.02 2.08-.578 2.95-1.152-1.13.967-2.89 1.499-3.7 2.813-.95 1.549 3.85 2.136 4.5 2.299-.6-.115-1.16.181-1.52.647.52-.03 1.02.02 1.52.145-.76.474-1.56-.145-2.31.36 1.02.203.69.371 0 .791.72-.371 1.49 0 2.23-.216.81-.236 1.14-1.075 1.95-1.296-.14.578.13.896.72.864-.8-.01-1.63.244-2.36.551-.6.257-2.6 2.172-.88 1.177l-.51.793c1.35-.117 2-2.33 3.53-1.656-.83.195-2.39.839-2.59 1.8.57.01 1.1-.134 1.58-.433a3.19 3.19 0 0 0-1.36 1.225c.74.117 1.49-.02 2.23 0-1.11.223-2.76-.184-3.68.648 1.59 1.274 3.53-.236 5.26-.145-.96.188-.96.284 0 .288-1.42.14-3.48.03-4.46 1.296 1.01-.747 2.55-.283 3.6.07-.42.407-.92.575-1.51.504-.15 1.077 1.02.731 1.58.504-.22.237-.43.478-.65.72 1.19.09 1.44-1.854 3.24-1.512-.89.01-1.46.765-2.23 1.08.41.958 1.28.604 2.02.36-.1 1.366-2.49.783-3.32 1.224 1.23-.03 2.45-.145 3.67-.145-1.23.509-2.56.732-3.74 1.368 1.21.108 4.33.453 5.26-.504-.74.08-1.52.257-2.24-.07 1.75-.182 3.5-.443 5.26-.216-.27.208-.53.425-.79.648.63.513 1.85.321 1.44-.72.95.124 3.44-1.97 3.74-.289.66-.22 1.15-.479 0-.863 1.06.43 3.25-1.018 1.66-1.296.83.375 1.42-.502 2.23-.433-.27.226-.54.466-.79.721l.72.504c-.67.872-2.38.519-2.59 1.8 1.44-.672 3.47-.587 4.17-2.304.12 1.176.72.62 1.52.144-1.61 2.236-4.79 1.262-6.77 2.88.48-.242.98-.338 1.51-.288-.75.294-1.57.443-2.23.937 1.03.615 1.8-1.104 2.95-.648-.25.2-.52.393-.79.576 1.42.05 2.66-1.116 3.74-1.872.67 1.134-.62.778-1.36 1.122-.53.25-3.15 1.326-1.45 1.326-.77.207-1.51.52-2.23.863.87.284 1.38-.659 2.23-.575-1.46.772 0-.02-.1 1.224.82-.771 1.67-1.547 2.88-1.439-.86.175-1.61.696-2.16 1.369.8-.25 1.51-.688 2.3-.938-.56.264-1.04.695-1.36 1.224 1.8.06 2.65-1.739 4.32-1.943-.89.494-1.27 1.466-2 2.13-.74.673-2.18 1.071-2.39 2.189 1.59-.81 3.44-2.36 5.11-2.808-1.63 1.351-3.58 1.989-5.19 3.24.4.579.99.633 1.44.07.17.983.93.736 1.23 0-.86 1.857 1.34-.305 1.65-.504.78-.487 1.7-.186 1.66-1.439.5.614.96.529 1.22-.217-.1.57-.36 1.05-.79 1.44.44.08.87.149 1.3.216-.57-.151-1.05 0-1.44.433.44.364.94.532 1.51.504-1.56.372-.19.611.45.763.83.198 1.44-.104 1.28-1.051.68.247 1.35.593 2.09.576-.1-1.06-3.02-1.079-3.75-1.225 1.5-.307 3.03 1.144 4.46.288-.11-.569-.49-.853-1.07-.72.47-.263.98-.359 1.51-.288-.33-.829-1.95-.859-.51-1.224-.77.109-1.47.477-2.23.647a3.246 3.246 0 0 0 1.37-1.224c-1.24-.418-2.62-.344-3.75-1.08.85.311 2.21.757 2.88-.145.32 1.429 3.63 1.316 1.8.648.99.281 2.08.107 3.03-.216-.51-.03-1.01-.1-1.51-.216.83.13 1.71.106 2.23-.648-.99.435-1.91.503-2.95.145.86.09 2.31.539 2.52-.721-.94-.396-1.99-.249-2.95-.576 1.19.16 2.58.625 3.74.145-1.22-.45-2.58-.364-3.74-1.008.9.301 1.88.464 2.82.378.99-.09 1.21-1.006 2.07-1.314-1.56.305-3.56-.03-5.04-.575 1.68-.09 3.62.826 5.19-.07-.75-.225-1.53-.367-2.31-.504.89 0 2.38.552 3.02-.36-.47.06-.95.09-1.43.07 1.85-.472-1.04-.632-1.52-.792 1.3.134 4.78.89 4.47-1.44-.94 0-2.14.303-2.88-.504.91.189 2.39.563 3.3.274.7-.222.97-1.018 1.66-1.282-.97.573-2.05.06-2.88-.504.69 0 4.82.77 3.46-1.009.66.124.96-.237.72-.863-.58.122-1.15.267-1.73.432.68-.453 2.59-1.46 2.05-2.55-.43-.855-2.37-1.14-3.13-1.698 1.47.147 2.87 1.5 4.39 1.008-.49-.233-.97-.497-1.43-.791 1.46.29.38-.768-.52-.693-.87.07-2.09-.788-2.65-1.396.77.363 1.74.549 2.58.553.31.001.81-.02 1-.333a.636.636 0 0 0-.1-.724c1.03.03 1.06-.09.1-.36.9.174 1.73.02 2.52.578-.77-.147-1.67-.1-1.95.791.63 0 1.23-.116 1.81-.329 2.02-.676-.48-.415 1.19-.746.51-.102 1.73-.776 2.12-.581.3-1.568-3.05-.325-2.17-2.16.38.818 1.98 1.418 2.81 1.152-.1-.583-.53-1.033-1.08-1.225.49 0 2.19 1.322 2.44.438.48-1.661-2.02-.762-1.5-2.238.67.307 2.81 2.296 3.62 1.675.31-.232-1.79-1.74-2.04-1.891.79.258 1.46.732 2.16 1.151a5.074 5.074 0 0 0-1.44-1.079c.71.462.95.294.72-.505.3.235 2.39 1.801.94.145.52.507.81.41 1.17-.155.23-.354 1.24.09 1.57.01-.27-1.436-3.05-2.125-4.25-1.872.76-.874 2.02-.01 2.84.232 1.05.315 2.18-.113 3.21.271-.18-.724.57-1.597-.51-1.871 1.03-.159 2.08-1.559.43-1.71-1.32-.12-2.9.459-3.89-.738.97-1.068 2.52-.219 3.71-.679 1.17-.449 1.99.33 3.06.03 0-.565-.36-.905-.93-.936 1.46-1.629-.65-2.256-1.37-3.528.76-.09.49-.417.77-.89.43-.703 1.99-.296 2.65-.494.48-.143.96.546 1.33.71.48.204 3.12-.302 1.58-.982 1 .166 1.38-1.122 2.45-.791-.2-.232-.39-.473-.57-.721.26-.153.53-.298.79-.432-.56-.201-1.14-.369-1.73-.504.38-1.285 1.07-.326 1.88-.45.65-.1.82-1.208 1.53-1.155.55.04.45.941.91 1.028.71.133 1.78-.493 1.15-1.296 1.27.467 2.37 1.021 3.75.936-.21-.24-.43-.479-.65-.72.95.03 1.54-.566 1.3.648.9-.874 1.89-.01 2.66-1.656-.64-.302-1.89-.688-1.01-1.584 0 1.458 1.8.838 2.45.216.39-.368-.61-.792.32-.939.76-.119.82-1.081 1.55-1.365a3.196 3.196 0 0 1-1.51-.576c1.78-.05 3.5.485 5.26.504-1.45.1-4.44 1.487-4.76 3.096.77-.552 2.25.467 3.13.567 1.19.137.24-1.689 1.63-1.575-.51.351-.68.919-.29 1.439.73-1.086 3.01-.215 3.17-1.8.6.203.86.714.57 1.296.84-.539 1.88-.122 2.68-.811 1.05-.909 1.26-.605 2.52-.845-.4-.785.31-1.647-.8-2.017.95-.688.83.453 1.69.823.68.295 1.46.39 2.2.401-.61-.497-.45-1.053.22-1.368-.42 2.077 3.9-.833 4.53-.937-.5-.557-.24-1.126.36-1.439-.17 1.647 1.37-.379.29 1.152.58-.309 1.82-1.886 2.59-1.297-.19-.692 0-1.841 1.01-1.439-1.22-1.017 2.24-.578 2.41-1.557.13-.77 1.2-.762.68-1.611.87.411 1.53-.506 1.36-1.296 1 .308 1.17-.56 1.86-.972.84-.501 2.55-.818 3.53-1.19.67-.25 2.27.253 2.62-.397.28-.517.11-1.394.99-1.185-.1-1.021-1.14-.875-1.79-1.296.54.135 1.04.06 1.51-.217-.31-.438-1.37-.657-1.47-1.213-.16-.831.78-.663.89-1.451.21.74.2 1.896 1.22 1.152.17 1.766 1.2 1.264 2.52 1.729-1.53.13-.34 1.144.64 1.14 1.81 0 3.55.166 5.34-.204a2.328 2.328 0 0 0-1.22-1.152c.75.03 1.09.651 1.7.958.68.338 1.34.104 2.04.05-.1-.595-.54-1-1.15-1.009.72-.135 1.46.33 1.75-.604.24-.801 1.34.359 1.69.489.69.259 3.52.559 3.18-.893 1.16.719 2.63.28 3.81-.146.63-.23 1.13-.73 1.84-.379.64.313 1.21-.07 1.19-.771.55.823 2.46.328 3.17.07 1.17-.414 2.25-.149 3.47-.542.88-.285 1.77 0 2.65-.234.66-.181.96-.88 1.69-.88 1.54 0 2.56-1.268 4-1.584-1.78.06.66-.505 1.44-.216-.27-1.299.13-.426 1.01-.597.58-.113 1.35-1.046-.1-.842.85-.95 2.01.126 3.02-.217-1.83-.321.87.168-.29-1.152.7.184 1.46.223 2.18.158.56-.05 2.74-.877.92-1.237.81.05 2.24.554 2.92.175 1.04-.573.76-1.483-.47-1.471.63.05 3.34.518 3.02-.793.7.266 1.45.87 2.23.433a1.729 1.729 0 0 0-1.44-.433c1.59-.119 4.81-.511 6.12-1.439-.72-.85-2.29-.374-3.21-.26-1.58.195-3.49.128-5.02-.332-1.33-.401-2.85-.09-4.12-.725-1.52-.761-2.74-.661-4.35-.267.23-.257.45-.521.65-.792-1.68-.33-3.29.616-4.9.936-2.1.418-4.33-.496-6.09 1.077-1.37 1.22-1.8.214-3.17.462-1.21.217-3.55.204-4.64-.387 1.59.231 4.74.06 6.19-.598.89-.406 1.82-.884 2.81-.986 1.34-.138 2.59.251 3.75-.647-1.67-1.721-5.96-.243-7.99-.04-.75.08-1.48.219-2.24.144-.7-.07-.35-.994-1.09-.74-.86.298-3.33.849-4.09.2 1.45.109 4 .04 5.15-.983 1.14-1.024 3.8-1.747.9-2.761 1.11.35 2.7.432 3.81.07a1.462 1.462 0 0 1-1-1.151c.8-.212 1.18.524 1.65.994.74.744 2.09.468 3.02.447 1.77-.04 6.71-.354 7.51-2.076.23-.506 1.67.563 1.53-.661-.1-.681-1.01-1.035-1.56-1.177-.94-.243-1.91.07-2.86.06-1.59-.02-3.17-.318-4.76-.318 2.01-.531-1.05-.512-1.55-.53-1.5-.06-3 .662-4.5.242 1.6-.197 4.94.4 6.05-1.08-.54-.123-4.24-1.555-2.22-1.296-1.01-.259-2.07-.252-3.1-.217.54-.545.38-1.127-.29-1.439 1.57.812 3.1 1.038 4.6 1.854 1.13.609 2.64 2.496 4 2.292.56-.08.98-.498 1.56-.546.77-.07 1.53.369 2.3.433 2.1.175 3.43 1.813 5.63 1.623 1.27-.109 2.77 1.65 2.57 2.862-.38 2.244 1.45 2.624 3.24 3.184.99.313 3.48.941 4.4.08.59-.547.16-3.103 1.58-2.204-1.87 3.021 1.53 1.46 1.87 2.374.6 1.61 3.6-1.381 1.52-1.078.13-.591.6-.979 1.22-.937a6.86 6.86 0 0 0-1.51-.575c.89.439 1.25-.797 1.94-1.08a3.29 3.29 0 0 0-1.58-.07l.72-.72c-.75.06-1.49.167-2.23.144.76-.178 2.16-1.188 2.95-.72 0-.625-.35-.896-.94-.792.52-.08 1.03-.22 1.52-.433-1.06-.191-1.06-.383 0-.575-1.95-.54-2.98-.11-4.54 1.08.27-2.097 1.77-2.778 3.82-3.169-1.38-.03-2.63.04-3.82.937-.1-.611.3-.988.87-1.08-1.06-.386-2.15.301-3.1.648.34-1.117 2.39-1.609 3.38-1.729-.96-.88-2.43-.295-3.23-.969-.95-.809-2.71-.434-2.6-1.551-1.3.538-3.2-.748-4.39-1.151-2-.683-3.2 1.138-5.04 1.367.52-.289.92-.787 1.08-1.368-.77-.03-1.57.191-2.31-.144.7.03 6.77.291 6.3-1.331-.86-2.986-7.13-.652-8.74-.04.24-.257.48-.521.72-.792-.79.101-1.59.07-2.38.07.54-.06 1.07-.21 1.58-.433-1.5-.504-3.16.234-4.6-.504 1.2.08 2.4-.07 3.6-.07 1.08 0 2.01.694 3.1.595 1.1-.1 2.06-.699 3.16-.811 1.11-.114 2.33-.02 3.1-1.008-.93-.532-2.04-.246-3.03-.504-1.6-.414-2.9-.742-4.54-.309-1.13.3-2.62-.124-3.62.363-.73.354-1.22 1.195-2.13 1.098.95-.266.92-1.468-.15-1.44 1.07.04 2.16-.452 3.23-.16 1.25.341 1.97.136 2.89-.776-1.6.05-2.97-.729-4.46-1.151 1.16-.641 2.14.792 3.24.883 1.46.119 2.9.721 4.36.638 1.35-.08 2.11-.697 3.25-1.253 1.17-.566 2.52-.433 3.77-.555-1.25-.816-3.21-1.593-4.18-2.736 1.23-.557 2.66 1.293 3.47 1.938 1.29 1.012 2.28-.189 3.33-.856 1.35-.857 3.15-.22 4.56.188 2.09.609 3.69.646 5.85.603-1.98.594-3.55.26-5.47-.32-1.05-.317-3.09-.905-3.68.464 4.15 1.777 7.29 3.277 11.72 1.473 1.81-.74 3.38-.174 5.31-.318 1.58-.119.83-.236 1.37-1.254.38-.697 1.35-.993 1.47-1.845-2.29-.06-4.57-1.192-6.79-1.17-2.47.02.26 2.407-1.56 2.754.3-2.274-.32-2.233-2.52-2.88.82-.206 1.78.05 2.24-.864a2.412 2.412 0 0 0-1.52-.72c1.23.221 2.67 0 3.75-.648a2.232 2.232 0 0 0-1.23-1.224c.92-.108 1.46.905 2.5.883 1.96-.04 3.9.05 5.86.05.6 0 1 .931 1.51 1.152.58.251 1.24.18 1.86.234 1.75.159 3-.926 4.47-1.674-.75.06-1.75-.373-1.51-1.297-1.5.06-2.81.829-4.28.09-1.46-.733-3.19.361-4.72.123.79-.04 1.62-.135 2.31-.576-.93-.797.1-1.646.64-2.232-1.76-.224-3.24.25-4.93.611-1.71.366-2.17-1.037-3.63-1.188 1.51.08 2.13 1.346 3.82.819 1.79-.558 3.7-.173 5.46-.747-2.01-1.982-4.96-1.637-7.48-2.304 1.03.126 2.07-.05 3.09.216-.76-.916-1.95-1.003-3.02-1.225 1.92-.701 3.83.996 5.47 1.729.81.365 5.75-.106 4.75 1.296.97.329 2.26.436 3.1-.288.8-.695 1.26-2.304.14-2.951l.72-.433c-2.85-2.77-8.06-1.512-11.59-1.512 1.74-.186 3.5 0 5.25.02 1.71.01 3.33-.661 4.98-.639 1.75.02.99-1.382-.44-1.284-1.7.117-3.44-.667-5.11-.326 1.06.204 1.97.844 3.02 1.08-1.09.122-1.93-.682-2.95-.864-1.08-.191-2.1.451-3.17.217.22-.258.44-.522.65-.793-1.02-.832-2.7-.464-3.89-.432 1.13-.729 2.56.258 3.75-.359-.54-.04-1.07.01-1.59.144.5-.149 1-.269 1.52-.36a1.664 1.664 0 0 0-1.52-.144c1.46-.243-.82-.905-1.51.144-.18-.548-.63-.959-1.22-1.008.3-.299 2.01-1.224 2.42-1.263.96-.09 1.34 1.004 2.13 1.225 1.4.395 3.27-.563 4.59-.97-1.18-.623-2.57-.2-3.82-.36 1.66-.479 3.71.741 5.26-.216a2.06 2.06 0 0 0-1.51-.216c2.46-.786 5.34-.146 7.8.371 1.55.324 4.67 1.285 6.04.09 2.68-2.338-1.81-3.64-3.63-2.518-.9.554-1.67-.02-2.23-.553-.99-.939-3.93-.362-5.17-.416 1.01-.319 2.07.117 3.09-.144-1.54-.373-3.13-.381-4.68-.647 1.02-.05 2.01.302 3.03.144-1.95-.372.58-.343.86-.288-.83-.567-2.11-.76-3.09-.648 3.07-.954 6.11.525 9.21.288-.41-1.75-4.52-1.567-5.83-1.77-1.25-.192-2.25-.765-3.53-.311-1.48.526-2.26 2.16-3.74 2.513 2.06-.717-1.15-.864-1.59-.864 1.19-1.174 2.68-1.967 4.18-2.664-.5-.04-1.01-.09-1.51-.144.83-.08 2.31.09 2.43-1.091.1-.756 1.57-1.476 2.17-1.717-.44-.417-.95-.514-1.51-.288.4-.189 3.31-.954 1.3-1.151 1.02-.225 2.18-.714 3.24-.539.96.157 2.36.532 2.98-.499.59-.956 1.24-.621 2.2-.906.6-.181.98-.751 1.59-.937.73-.223.83.559 1.51-.216-1.6-.463-2.52.64-3.82.505a4.851 4.851 0 0 0 1.44-1.152c.27-.301-.37-.574.11-.814 1.39-.691 1.72-1.572 3.48-1.526 3.21.08 5.54-.289 8.51-1.549-2.05-1.574-5.35-.185-7.67-.221-1.24-.02-2.49-.05-3.71.196-.62.125-3.37 1.605-1.58 1.249-1.52.553-1.83-.204-3.17-.145.68-.552 2.89-1.149 1.44-1.439 1.62-.162 3.11-.917 4.74-1.004 2.37-.128 4.8.437 7.2.413 3.58-.04 6.85-.323 10.09-1.713-4.24-.987-8.61.09-12.89-.369-1.79-.192-3.59-.513-5.39-.351-2.03.182-4.01.702-6.05.433 3.3-.401 6.46-.688 9.79-.386 1.3.118 2.63.203 3.92-.02 1.04-.178 1.88-.935 2.93-.919 2.65.04 5.28.699 7.96.315 1.27-.183 2.47-.613 3.78-.585 1.07.02 2.59.239 3.37-.712-.57.02-1.05-.175-1.44-.576 1.52-.563 3.13-.04 4.69-.279 1.23-.187 2.37-.714 3.6-.903 2.14-.328 5.08-.22 6.83-1.697-3.77-.301-7.5-1.167-11.29-1.503-4.6-.407-9.19-.04-13.77.352.16.242.33.482.51.72-.77-.04-3.45.647-1.44.504-1.49.769-3.84.976-5.5.719-.94-.146-1.8-.517-2.78-.481-1.52.06-2.96.655-4.47.77.3-.828 1.16-1.144 1.95-1.296-4.3.563-8.37 1.598-12.53 2.812-1.86.543-4.18.755-5.93 1.449-1.87.744-3.38 1.373-5.37 1.859.42-.194 2.82-.856.71-.792 2.17-.473 4.17-1.499 6.22-2.346 1.65-.684 3.42-.966 5.04-1.7.94-.428 2.3-1.019 2.8-1.997.8-1.545-2.4-1.625-3.14-1.579-1.57.1-3.29.05-4.84.316-1.78.309-2.45 1.812-4.43 1.838-2.38.03-4.66.565-7.03.768-2.35.2-5.11 1.197-7.43.813.5.01 1.01-.01 1.51-.07a4.291 4.291 0 0 0-1.58-.36c1.84-.962 4.46-.689 6.48-.901 1.61-.168 4.56.183 5.54-1.475-1.56-1.272-5.53-.515-7.37-.55-3.34-.06-6.75-.205-10.07.131-6.38.644-12.76.914-19.13 1.787.57-1.741 4.39-1.557 5.77-1.579 3.1-.05 6.23.06 9.27-.653-1.7-1.312-4.52-.575-6.48-.575 3.74-.446 7.47.525 11.21.234 4.38-.34 8.75 0 13.13-.01 4.24-.02 8.45-.738 12.68-.752 2.07 0 4.07.08 6.08-.5 1.45-.418 3.3-.351 4.64-1.061-3.53-1.701-7.98-1.222-11.74-.792.3-.207.59-.423.87-.648-3.04-.953-6.22.673-9.29.576 1.87-.106 3.69-.597 5.47-1.152-3.66-1.773-8.12-.359-11.98-.359-4.8 0-9.5-.485-14.3-.03-4.17.394-8.05.503-12.26.595-1.03.02-1.75 0-2.64.583-.23.158-1.9-.358-2.21-.362-2.11-.03-4.1.744-6.14.728.4-.08 2.65-.466.86-.648 4.49-.565 9.02-.647 13.54-.647-1.01-.555-2.14-.438-3.24-.576 2.74 0 5.46.558 8.2.288 2.77-.272 5.54-.432 8.32-.432 6.14 0 12.3.321 18.4-.504-3.57-1.692-7.81-.809-11.6-.937 2.16.263-1.86.103-2.3 0 .52-.07 1.05-.09 1.58-.07-.9-.367-1.75.06-2.66 0-1-.06-1.94-.504-2.95-.504-2.06 0-4.13.134-6.19.07-4.13-.123-8.27-.456-12.39-.07.29.143.58.287.87.433-1 .371-1.48-.352-2.31-.504-.71-.13-2.28.213-3.11.249-2.71.116-5.73-.649-8.34.255.55.06 1.06.253 1.51.575-1.77.234-3.42-.776-5.19-.629-1.85.154-3.66.558-5.53.341-.46 1.738 6.37 1.481 7.34 1.368-2.66.651-5.43.186-8.13.433 1.93.53 3.94-.01 5.9.216-2.69 0-5.5-.463-8.14.216.81.104 1.36.966 2.24.792-.74.635-1.9-.02-2.62-.329-1.11-.479-2.25-.442-3.44-.402-2.71.09-5.44-1.222-8.13-.637 2.19-.338-1.26-.907-1.8-.952-1.29-.108-2.87-.187-4.1.304.6-.02 1.2 0 1.8.07-1.43.22-2.88 0-4.32 0 1.31.499 2.75.292 4.1.576-1.94-.106-3.88-.134-5.82-.307-2-.178-3.99.404-5.99.09 1.77.609 3.66.657 5.47 1.08-1.65-.18-3.3-.229-4.95-.379-1.96-.18-4.1-.864-5.99.02.81-.04 1.65.07 2.38.433-1.1-.06-2.21-.439-3.31-.145 1.24.58 2.69.514 4.03.504.83 0 1.66 0 2.49-.02.3 0 2.9.08.96-.337 4.41.226 8.83.133 13.24.31 1.77.07 3.54.318 5.31.371.6.02 5.18.496 3.12 1.191 1.53.207 0 1.017-.34.672-.56-.583-1.45-.872-2.21-1.1-1.5-.454-3.83-1.071-5.37-.437.25.133.49.276.73.432-.6 1.803-1.34-.433-1.86-.583-1.51-.439-3.3-.312-4.84-.257-1.9.07-3.81.09-5.71.113-1.72.03-3.75-.489-5.38.224 1.19.382 2.41.679 3.64.94.62.132 1.24.256 1.87.374.43.08 3.1.147 1.04.63 2.12.413 4.3.215 6.41.647-2.17.137-4.43-.08-6.59-.389-.89-.126-1.83-.262-2.73-.102-.54.1-2.6.997-.76 1.139-.8.158-1.67.09-2.37.576.5.05 1.01.1 1.51.144-1.78.57.33.625.79.648-2.66.619-5.09.126-7.6-.785-2.08-.754-4.33-.492-6.38-1.229-1.93-.689-4.45-.973-6.47-1.371-2.71-.533-5.56-.396-8.28-.07.69.477.37 1.363 1.02 1.773 1.07.667 2.8.876 4.02 1.107-2.27.703-4.85.406-7.13-.07 1.44.822 3.17.844 4.61 1.656-1.67.426-3.05-.562-4.61-.936-1.94-.466-4.06-.587-6.03-.872-.63-.09-1.55-.372-2.18-.224-.8.188-1.26 1.021-2.11 1.229-1.21.293-3.09 1.516-4.29 1.306.69-1.212 2.77-1.371 3.25-2.798.75-2.228-6.79-1.164-7.65-1.09 2.21-.12-2.43.366-3.04.428-1.5.151-2.9-.05-4.4.06-4.03.271-8.1.204-12.07 1.029.77.285 1.6.124 2.38.36.72.218 1.19.894 1.82 1.25.7.39 1.68.252 2.44.468 1.17.33 2.26.869 3.44 1.162-2.18.07-4.27-1.053-6.47-1.169-.97-.05-1.26-.216-1.77-.958-.54-.799-1.93-.524-2.75-.578-2.05-.133-4.11-.413-6.16-.177-1.28.146-4.98 1.857-1.78 2.307-.97.479-2.21.278-3.03 1.08.19.244.38.484.58.72-2.31.826-5.06-.09-7.43-.246-1.22-.08-2.69-.318-3.79.383-.81.514.15 1.545.42 2.096-.65-.491-1-1.254-1.59-1.803-.83-.778-2.8.159-3.8.281-2.87.35-5.55 1.365-8.4 1.767-2.39.336-4.73.754-7.1 1.203-1.28.242-3.9.471-4.53 1.863 1.08-.09 2.07.679 3.33.559 1.33-.126 2.47.231 3.78.266 3.09.08 6.37-1.104 9.45-.608-2.2-.08-5.26-.06-7.04 1.432-.75.629-.69 1.642-1.46 2.255-1.04.835-2.52 1.103-3.79 1.374-3.07.654-5.44 1.306-8.64 1.019-1.79-.16-3.3.285-5.05.485-2.308.265-4.672.11-6.921.779 2.124.325-.709.563-1.048.599-1.234.133-2.481.09-3.708.301-1.003.168-2.027.165-3.032.318-.884.135-1.698.789-2.537.859-1.711.144-3.209-.136-4.977.174-1.158.203-2.317.18-3.484.287-1.075.1-1.807 1.052-2.885 1.134 1.96.416-1.605 1.253-2.24 1.08 1.229.237 2.045 1.139 3.17 1.584 1.083.428 2.608.427 3.75.288-.512.179-1.018.371-1.52.576 2.478.625 4.931-.566 7.42-.36-1.283.408-2.627.681-3.96.864 1.498.709 3.832.437 5.33-.145-1.24.896-2.958.747-4.39 1.008 1.964.665 4.187.831 6.247.677.983-.07 1.239-.158 1.733-.908.47-.714 1.572.568 2.204.654 2.084.282 3.953-.289 5.918-.858 1.294-.375 3.837-.926 4.27.938-.691.431-1.953.408-2.745.38-.858-.03-.617 1.103.303.988-1.723.353-4.003-.772-5.853-.717-2.489.07-5.101.164-7.547.646 1.441 1.096 3.735.651 5.401.59 2.668-.1 5.257.609 7.918-.02-2.656 1.241-26.778-1.606-26.35 1.584.786-.16 1.525.224 2.31.145-.524.113-1.054.185-1.59.216 2.292 2.378 5.047-1.535 7.56-.576-1.126 0-2.831.51-3.539 1.435"/><path d="M987.75 222.91c-.24-.15-.48-.126-.72.07.24-.02.48-.05.72-.07M987.46 222.12c-.24.307-.47.189-.36.72l.36-.72M990.63 229.53c-.26.07-.5.194-.72.359.24-.119.48-.238.72-.359M990.92 231.91c-.25.07-.49.168-.72.289.24-.1.48-.192.72-.289M992 233.85c-.25.02-.49.07-.72.145.24-.05.48-.1.72-.145M992.79 236.88c-.28-.02-.54.03-.79.144.26-.05.52-.1.79-.144M1012.95 243.65c-.24-.216-1.28.835-1.44.937a2.94 2.94 0 0 0 1.44-.937M1016.62 245.73c0 .271.1.512.29.721-.1-.241-.2-.481-.29-.721M1020.51 246.96v.576c.29-.154.55-.347.79-.576a.805.805 0 0 0-.79 0M1026.56 240.05c.53.28 1.04.232 1.51-.145a4.94 4.94 0 0 0-1.51.145M982.28 203.76c.63.289 1.42.167 1.51-.648-.59.03-1.09.244-1.51.648M983.22 204.91c.25-.647 0-1.007-.73-.359.24.12.48.239.73.359M985.95 206.85c-.33-.06-.59.06-.79.36.26-.12.52-.24.79-.36M988.25 213.33c-.47-.429-1.17.01-1.43.432.52 0 1-.142 1.43-.432M990.41 211.53c-.95-.404-2.24.851-2.95 1.295 1.2.04 2.18-.358 2.95-1.295"/><path d="M992.07 211.75c-1.44-1.161-2.8 1.75-3.74 2.376 1.41-.429 2.59-1.496 3.74-2.376M994.3 236.3c-.51-.126-.99-.05-1.44.216.51.122.99.05 1.44-.216M997.04 240.69c-.87-.434-1.8-.192-2.67.07.48 1.261 2.14.993 2.67-.07M995.38 238.39c-.26.1-.53.192-.79.288.5-.05 1-.1 1.51-.144-.24-.05-.48-.1-.72-.144M1006.76 239.97c0-.144 0-.288.1-.432-1.24.126-2.97.528-3.82 1.512 1.12-.733 2.55-.549 3.75-1.08M1005.97 240.91c-.55.06-1.06.254-1.51.576.55-.06 1.05-.256 1.51-.576M1007.84 241.41a2.43 2.43 0 0 0-1.59.504c.56-.05 1.1-.221 1.59-.504M1011.51 244.01c-1.29-.278-1.51.566-2.02 1.512.79-.313 1.63-.701 2.02-1.512M1012.52 243.57c-.25.121-.53.224-.72.431l.72-.431M1014.32 246.96c.66.08 1.37.02 1.94-.36-.55-1.038-1.63-.547-1.94.36M1015.69 246.96l-.72.576c.61.522 1.61-.347 2.37-.576-.55-.17-1.1-.17-1.65 0M1017.27 248.69c.62-.07 1.15-.337 1.59-.792-1.2-.827-1.96-.495-2.81.576.59.04 1.09-.157 1.51-.576-.1.263-.2.528-.29.792M1021.45 246.96c-.15.24-.29.479-.44.72.25-.187.4-.427.44-.72M1035.99 227.52c.61-.694.49-.935-.36-.72l.36.72M1040.82 224.49c.45-.281.78-.665 1-1.151-.56.138-.97.566-1 1.151M1043.7 222.55c.13-.623-.12-.646-.73-.07.24.02.48.05.73.07"/><path d="M1017.85 246.96c.26-.1.53-.192.79-.288-.57.03-1.07-.14-1.51-.504.71-.773 5.23-.48 5.33.792-.75.02-1.41-.329-2.09-.576.28 1.711-1.68 1.002-2.52.576M1035.34 225.86c.37-1.182 1.78-.866 2.67-.648-.85.333-1.74.669-2.67.648M1040.96 220.1c.32-.805 1.16-1.021 1.58-.144-.51-.338-1.15-.331-1.58.144M1191.08 127.08c.73.04 1.39.386 2.02.721-.69-.186-1.37-.429-2.02-.721"/></g></svg>