<svg xmlns="http://www.w3.org/2000/svg" width="315.287" height="119.645" viewBox="0 0 83.419563 31.656195"><path class="landxx is" d="M4.214 11.185c1.395-.053 3.403-.47 4.785-.766.758-.162.492-1.36 1.489-.763 1.33.806 2.406-1.616 2.619.572a12.053 12.053 0 0 0 2.02-1.053c.146 1.449 1.954 1.066 2.965.191a7.157 7.157 0 0 1-2.021 1.149c.904.745 1.196-.093 1.94-.41.506-.212 2.035.894 3.045.6-2.5.606-5.29 1.204-7.271 2.967 1.01-.08 1.967.283 2.964.383.997.106 1.98-.49 2.964-.093-2.073 3.32-8.653-1.26-10.913 2.105-.226-1.755-.97-.396-1.968-.162-1.196.282-2.446.162-3.655.162-2.473 0-1.09 2.42.73 1.765 1.928-.697 3.098-.846 5.225-.623 1.024.106 2.007.067 3.03.067 1.038 0 2.274 1.318 3.244.704-.757.225-1.449.766-1.714 1.53.73.12 1.183.598 1.236 1.34 1.382-1.154 3.549-2 5.357-2.01-.452.772-1.555.838-2.326 1.012-.918.207-3.138 2.256-.825 1.668a3.445 3.445 0 0 0-2.007.766c1.742.381 3.137-1.436 4.879-.67-.878.106-5.131 1.092-2.592 2.105-.745.162-1.556-.216-2.287.093.16 1.57-1.103 1.178-2.393 1.436-.598.384-1.183.433-1.754.146a1.717 1.717 0 0 0-.745-.623c-1.21.41-1.036 1.67-1.143 2.68 2.22-.12 4.905-.141 7.085-.575 1.05-.21 2.114.218 3.177.12 1.17-.106 1.622-1.255 2.951-.981a7.444 7.444 0 0 0-.491 1.053c.584.106 1.688.746 2.273.28 1.063-.856 1.582.645-.133.485 1.05.749 2.206-.08 2.964-.765.266.35.452.734.585 1.148a9.854 9.854 0 0 0-1.343.287c1.05 2.089 3.27 1.4 5.145 1.733 2.233.397 4.24 1.214 6.54 1.314 1.741.08 3.522.027 5.224-.363.784-.175 1.555-.424 2.233-.832 1.702-1.009-.266-1.02 1.436-1.469-2.406-.48 2.353-.886 3.097-.925 1.316-.066 3.695-.066 4.174-1.659.133 2.442 4.24-.133 5.49-.78 2.406-1.238 4.905-2.14 7.231-3.474 1.356-.779 2.725 1.01 4.174.459.811-.306 5.557-2.94 3.11-3.097.812-.932 2.806-.427 1.53-1.913 1.25 1.935 2.897-.404 4.493-.193-1.808-.91 1.688-1.202-.864-1.244a6.295 6.295 0 0 0 2.02-.191c-.93-.375-1.86-.802-2.871-.958 1.701-1.148 3.243 1.613 4.838-.396 1.01-1.265-2.379-1.232-2.924-1.232 1.01-.106 2.047-.08 2.871-.766-1.037-.256-2.113-.234-3.163-.093 1.05-.211 3.336-1.022 2.964-2.487-1.143.36-2.366-.743-3.443-.958-1.462-.297-2.393.45-3.536 1.245.784-.833 2.632-1.407 2.3-2.871-1.356.093-2.659.504-4.028.574.28-1.03 1.781-1.283 2.167-2.256.345-.905-3.031-1.084-3.51-1.858 1.183.053 1.024-.326 1.277-1.17.292-.99 2.459-.886 3.23-1.221-1.821.355-5.783.04-6.42 2.392-.639-.614-2.46-1.193-2.128-2.202C69.336.005 65.813-.13 65.082.247c-.744.378-2.273-.543-1.994.92.359 1.87-1.236 1.79-1.422 3.13-.32-.352-3.403-1.294-3.922-1.246-1.675.16-2.592 2.165-3.828 3.062-.439-1.135-4.094-4.043-5.29-2.398-.373.499 0 1.585.372 1.976.89.897.611 2.019.319 3.102-1.37-1.745-2.234-6.128-5.264-5.455-.878.194-.97 1.033-1.622 1.176-.771.17-1.462-.35-2.247.027-1.076.52-.199 2.294-1.036 3.126-1.41 1.386-3.43-2.919-4.294-3.551-1.542-1.114-2.738 1.02-2.286 2.305.372 1.052-.851 4.281-1.715 2.952-.293 2.377-1.21-.47-2.034-.632-2.22-.432-2.007 4.322-3.137 1.97 0 1.077-.878 1.872-.678 2.967-.532-1.351 0-3.874-2.3-2.967 3.07-.493-1.143-2.188-1.236-3.254 2.353 2.904 4.812-2.463 2.007-1.912 1.821-.616.572-.843-.226-1.09-1.09-.34-.784-.996-1.622-1.62-.877-.644-2.166-.158-2.711-1.253C18.65 1.058 17.4.659 16.869.568c-.4-.067-4.76.682-3.935 1.219 1.143.745 3.47.89 4.799.79-1.263.342-3.124-.503-3.922.959.784.37 2.765.662 2.925 1.773.133.773-1.649 1.065-1.968 1.672 1.702-2.323-.332-1.962-1.82-1.244.61-1.144.358-1.304-.759-.478a7 7 0 0 0 .572-.957c-.798-.435-1.662-.906-2.579-1.016-.73-.093-2.618.379-.585.919-1.276.288-1.276.67 0 1.147-.864-.543-1.887-.665-2.871-.86-.478 1.72 1.861 1.725 2.871 2.201-1.196-.12-3.03-1.04-3.921.287 1.223.72 2.605.479 3.921.862-.678.04-1.342.132-2.007.287.505.263 1.05.39 1.622.382C7.364 9.78 5.29 6.88 3.283 7.553c.253.698.811 1.239 1.529 1.436-1.276.216-1.276.535 0 .958C3.23 9.47 1.17 8.327.119 10.33c1.41 0 2.832-.04 4.028.862" fill="#cbe6a3" fill-rule="evenodd" stroke="#000" stroke-width=".144"><title>Iceland</title></path></svg>