<svg xmlns="http://www.w3.org/2000/svg" width="1363.159" height="627.605" viewBox="0 0 360.66922 166.05374"><g class="landxx kz" transform="matrix(1.3293 0 0 1.3293 -2115.978 -376.946)" fill="#cbe6a3" fill-rule="evenodd" stroke="#000" stroke-width=".109"><title>Kazakhstan</title><path d="M1687.01 362.772c1.81.823 2.42-.451 1.95-.491.41.555 2.07-.322 2.57.362.49.684-.68.466-.16 1.191.52.725-1.4.257-.91.937.49.68-3.72-.446-3.32.101l-1.57-.303m-2.87-.403c-.79-.453-.23-.674-.92-1.07-.69-.397-2.07.766-2.61.465-.53-.3 0 1.477-.3 1.311-.22-.116-.19-.04-.3-.101.41.382.83 1.053-.51 1.411l-16.12 4.737 6.85 31.549c-.95.04-1.57-.05-2.52-.101-1.19-.07-2.62-.909-3.33-1.714-1.74-1.996-3.17-4.314-5.64-5.443-2.7-1.231-4.4-1.505-7.26-1.209-2.92.302-5.17 2.196-6.85 4.636.17-1.336-1.13-2.397-.61-3.729.55-1.388 1.59-3.167.11-4.334.22.191.44.359.7.504 1.11-1.45-3.19-1.782-4.03-2.117-.88-.349-1.52.495-2.32-.302-.62-.62-1.28-1.291-1.61-2.117-.48-1.193-2.57 1.298-2.82-1.512-.1-.96-.34-1.515-1.11-2.116-1.07-.824-1.61-2.215-2.32-3.327-1.02-1.604-1.96-2.376-3.83-2.721-1.01-.184-3.18-1.152-1.82-2.52.93-.927 2.95-.419 4.04-.101.66.194 1.16.745 1.81.908.93.231 2.03-.27 3.02-.101-.76-1.319-2.95-1.405-4.03-2.419-1.01-.949.84-3.975 1.92-4.435.31-.134 1.65-.899 1.81-.907.37.09.68.215 1.01.403.61.239 1.49-.148 2.12-.202 2.17-.185 5.34 1.634 7.25.504-1.07-.538-3.11-.753-3.62-2.016-.72-1.755 1.99-3.917 1.41-6.047-.55-1.979-1.66-3.603-2.83-5.04-.56-.694-2.75-.951-3.42-.302-3.07 2.949-8.78-4.728-11.09-.101-.1.188-1.57.319-1.71.302-1.01-.122-1.13 1-1.82 1.512-.62.46-1.33.765-2.01 1.109-.45.217-.92.371-1.41.403-.8.04-1.9-1.062-1.01.403a8.69 8.69 0 0 0-1.51-.806c.28.289.61.62.9.907-.34-.106-.57-.1-.7.202-.19 1.003-1.17-.105-.31.907-.91-.632-5.3-2.15-5.44-2.822-.33-1.611 5.45 1.132 1.92-2.419-2.57-2.576-4.12-5.83-7.16-6.754-1.09-.332-2.5-.678-3.63-.302-.6.374-.73.832-1.11.605-.86-.521-1.14-1.649-1.71-2.419l.71-.504c-2.09-2.557-1.03-1.22-2.22-2.016-.84 0-1.88-.565-2.32-.907-.45-.345-.6-1.593-.5-1.714v-.403c.33-1.101.58-2.154 1.61-2.822.52-.339.87-.824.5-1.411-.83-1.345-2.07-1.326-2.11-3.226-.1-2.134.55-2.363 1.91-3.628.91-.844-.32-2.534.61-3.427 2.19-2.105 5.79 4.285 7.55 4.536 1.09.153 3.95-.896 2.42-2.218-1.16-1.012-1.04-3.836-2.62-4.334 1.97.24 2.52-.212 4.34-1.411 1.52-1.002-1.06-1.992.7-2.52 3.1.04 1.5-1.024 4.94-1.512 1.5-.379.39-3.574 2.62-2.52-.19-.479-.31-.932-.5-1.411.68.145 3.97.66 4.13 1.21.69 2.421 1.76-.208 2.62 1.209.52-.636.15-1.267.91-1.713 1.07-.161 1.8-.6 2.72-.907 1.37 4.405 5.58 1.148 8.37 3.023 1.08.925.33 1.396 4.13 2.319 1.34 1.337 2.34 1.714 3.63 2.52-.36.61.34 3.246 1.01 2.62 1.49-1.415-1.13-3.107-1.11-4.032.93-.646 2.75.542 3.42 1.21 1.18 1.17 2.99.981 4.04 1.915 1.16 1.034 1.91.595 3.02-.403.37-.336.2-1.026.6-1.31.62-.436 1.38-.794 1.31-1.714.57.03 1.17.256 1.62.605 0-1.063 3.06-1.371 3.52-.605.3.479 1.05 1.016 1.52 1.31.83.527 1.38-.48 2.21-.1 0-2.311-.26-1.712 1.72-1.412 1.05.161 1.26-1.187 2.42-.503.83.49 1.36 1.558 2.01 2.419 1.64 2.165 7.57.899 6.45 2.721.88-.06 1.67.06 2.12-.806.25-.489-.16-1.842.5-2.117.88-.362 1.4.981 2.02 1.31.81.426 2.22.423 3.12.403 1.05-.02 3.9-.39 4.14-1.713.14-.841-.87-3.165.5-3.326-1.01-.333-1.78-1.274-2.92-1.411-.97-.116-1.22.108-2.02-.605-.77-.684-1.32-.901-2.42-.907-1.36 0-1.31-.676-2.42-1.311-.74-.424-1.34-.357-2.21-.705-.8-.315-1-1.203 0-1.109 4.34-2.754 1.8-.04 5.14-2.822-.44-.283-2.97-2.542-3.03-2.923-.14-.87 2.02-1.366 1.11-2.419 3.24-.393 1.37-.512 4.84.202.52.106 1.27-.148 2.12-.504.88-.376-.97-1.044-1.62-1.21-1.58-.409-3.3-.555-4.83-1.109-2.04-.735 1.75-1.632 1.81-1.713-.46-.687-.92-.57-1.61-.403-1.03.249-1.96-.336-2.83-.807 2.45-.202.41-1.841-.3-2.419.49-.09.94-.142 1.41 0-.39-1.425 3.3-.412 3.83-.201 1.16.455 1.34-.311 2.42-.504 1.21-.215 1.47.934 2.52 1.008-.3-1.909 1.58-1.512 3.03-1.512.1-.24.2-.465.3-.706 1.71-.652 3.23-.295 4.84-.403.27-.154-.19-.879 1.11-.806.79.04 1.98-.399 3.02-.202.76.143 1.39-.613 2.12-.101.98.693.91.07.9-.705 0-2.349 6.41-1.692 7.76-2.016 3.47-1.304 6.19-.694 10.39-3.024-.65-.117-1.23-.108-.61-.605 1.56-1.251 2.33-.338 2.12-1.814.59.168 1.2.173 1.81.101-.21-.244-.38-.469-.6-.706.76.05 2.09.84 2.72.403.78.1 1.29.126 2.12.303.57.124 4.3 2.615 5.24 1.008.99-1.705 3.21.09 3.73.705.55.659.66 1.049 1 1.815.45.998 1.63 1.444 2.52 1.915-.95.992 1.56 3.168-.5 3.326 1.35 1.666 2.1.326 3.63 1.209.51.294 1.09 0 1.71-.705.52-.599 1.92.173 2.42.101a1.335 1.335 0 0 1-.7-1.512c1.05.468 1.9 1.942 3.12 2.016-1.01.75-.14.955.3 1.915.41-.441 1.01-.615 1.61-.605-.32-.498-.93-.771-1.51-.504 1.06-2.982 5.96 3.212 7.26-.302.53.42 1.01 1.11 1.01 1.814-1.36-.19-2.32.759-2.32 1.512 0 .957 1.95 1.289 1.91 1.915.97-.895 1.58-1.706 3.03-1.613.95.797 1.12.08 1.91.403.55.328.8.904 1.31.907-.13-2.111 1-2.28 2.52-2.822.74-.261 2.86-1.123 1.92-2.217.86-.07 1.72-.198 2.52-.504.91-.223 1.5-1.032 2.22-1.512.47-.171.89 0 1.41-.202.93-.356 1.19-.463 2.11-.806-.2.252-.43.53-.6.806.67.174.78.744.5 1.411-.38.947-1.22.207-1.91.605 3.04 2.306 6.68 3.586 9.98 5.443 3.3 1.862 6.02 4.48 8.87 6.955 3.25 2.826 6.34 5.806 9.47 8.769 1.88 1.78 4.52 5.975 7.16 6.551-1.29-1.247 2.13-.765 1.31-2.62-.72-1.623.24-1.19.7-1.613 1.97-.334 1.38.415 2.62.605.9.135.65.01 1.01.302.62.868-.69 2.155 1.31 1.714 1.37-.302 1.75 1.687 2.93 1.915.61.12 1.25-.172 1.81-.403.91-.381 2.1.779 2.52.403 1.04-.925 1.07.445 3.02-1.311.27-.236.8-.24 1.11-.302.56-.111.5-.63 1.01-.706 3.95-.587 7.75 3.297 9.37 5.443.98 1.291 3.27 1.158 4.74 1.613 1.72.529 1.6 1.755 2.82 2.923.53.504.98.816 1.41 1.411 1.61.735 4.8.177 5.75.907 1.5.885 1.79-.685 2.02-1.008.27-.404 1.89-1.901 2.11-.504.11.709-.46 1.518.81 1.512.69 0 1.22.734 1.81 1.411.58.663 1.23.988 1.92 1.109.7.123 1.26.875 1.51 1.21-1.07-.02-4.23-.53-3.13 1.713.82 1.646.35 2.748-1.2 3.629-1.33.75-3.52-.354-3.83 1.612-.58 3.637 1.81 4.815 3.12 7.761 1.17 2.633-1.76 2.776-2.62 3.427-.93.699-1.63 1.167-2.62.101-.92-.992-2.67-.519-3.83-.403-3.15.315-4.57-1.001-6.75-1.713-2.3-.778-.53 3.935-1.62 5.644-.12 1.78.75 4.235-.1 7.358-.29 2.421 3.77.314 3.33 3.83-.15 1.178-1.14.483-1.72.202-.96-.47-1.7.282-2.72.1-.81-.147-2.45-1.467-3.22-1.108-1.07.499-2.53.522-3.63.907-1.39.484-5.88.954-6.15 2.217-.38 1.778 4.4.335 4.23 2.218-.26 2.908 2.38 6.242 3.23 7.257.82.975 1.81 2.214 2.12 3.427.35 1.431 1.99 1.826 1.1 2.721-.89-.637-1.67.351-2.11 1.008.54.224 1.09.506 1.51.907-3.36.58-1.79 2.473-1.81 2.621.4.954 1.66 2.711 1.61 4.032-.98-1.541-3.72-3.243-4.84-3.024-2.07.405-2.37-1.349-4.03-2.117-1.39-.644-4.34-1.747-5.85-1.613-3.39.303-6.55-.562-7.36-.201-.8.357-1.31-.268-2.11-.403-.95-.159-2.42-.06-3.23.403-1.21.69-5.72-.676-5.64 0 .39 3.509-9.93-2.417-11.9-3.024.36.631-2.64 1.403-3.02 1.613-1.58.868-.64 4.458.4 5.443-.82.276-1.8-.521-2.52-.807-3.2-.4-2.08-.1-3.73-1.108-2.03-.665-4.49-1.489-6.65-1.412-2.28 1.025-2.35.484-3.53.908-.24 0-.69.916-.9 1.814-.39 1.583-1.2 1.511 1.01 2.117-1.53-.148-2.42 1.275-2.83 1.511-.89.522-1.61-.698-2.31.706-1.46 2.912-2.67 2.186-4.74 3.629-.63.439-1.34.909-1.92 1.411-.67.58.17 1.647-.4 1.915-.98.459-1.66 1.585-2.12 2.318-.64 1.013.58 1.63.71 2.721-1.33-.361-4.86-.286-4.44-2.419.25-1.255-.9-2.564-2.31-2.62-2.32-.09-7.02 1.918-8.47-.605-.89-1.532-1.49-3.1-2.12-4.737-.82-2.139-1.97-.872-3.32-1.815-2.07-1.436-1.71-5.872-2.02-8.063-2.42.652-2.57-.142-4.13-1.814-1.99-2.133-3.28-1.973-4.24-3.528-2.6-2.368-2.69-.135-4.83.302-3.46.545-6.41-.436-9.58-.504-1.69-.04-3.01.488-4.64.907-2.76.716-4.31-1.278-5.74-2.62-1.7-1.596-3.33-3.34-5.04-4.838-1.94-1.698-1.04-1.159-3.33-2.319l-7.66-3.805.44-2.22c-.82-.75-1.71-2.262-3.14-1.794.6.59.96.655 2.01 1.906l-.95 1.545-5.09-2.809c.11-.364-1.12-2.188.38-1.5-.65-.436.12.105.42-.654zm2.42-2.117c.1-1.37-1.86-2.414-1.51-2.217 3.27.08 2.4 1.791 2.21 2.016zm101.9-6.753c.34.59 2.59 1.019 3.43.907.95-.126 2.26-1.247 3.22-.806.62.279 1.29.131 1.92.302.67.183.8.872 1.41 1.109.64.251 1-.18 1.61-.101.55.07 3.11 1.54 1.62 0 .59.441 1.38 0 1.91.605.6.675 1.31-.228 2.12-.403 1.06-.232 2.06-.182 3.12.101 1.2.321 2.19.904 3.33 1.209 0-.504-.1-1.008-.1-1.512.66.168.73-.223 1.21-.504.65-.388 1.69.48 2.31.605-.52-.201-1-.582-1.2-1.109.71-.04 3.84-.567 3.42 1.21 0 .241-.43.307-.6.403-.42.236 0 .831-.1 1.21-.37 1.229-4.51.06-3.83 1.411-.63-.856-1.51-.202-2.32-.202-.93 0-1.58-.806-2.52-.806-1.13 0-2.12-.946-3.23-.806-1.5.188-2.5.199-4.03 0-.91-.118-9.32.524-8.36-1.412-1.67.05.37.968-.81 1.412-.75.282-1.15.998-1.82.302-.14.56-.42.767-.9 1.008-.44.218-.24 1.435-.3 1.814-.27 1.68-3.33.219-2.73 1.814.19.486.22.77.31 1.311.1.485.12.918.1 1.411-.24.193-.47.415-.71.605-.17 1.575 2.32 2.869 1.61 4.535-.8.389-.85-.466-1-1.008-.3-1.09-1.73-1.475-2.52-2.116-.59-.475-2.5-1.477-2.83-2.016-.39-.646.65-1.424-.2-2.016 1.16.411 1.24-1.326.71-1.915-1.19-1.313 1.15-1.266 1.91-1.31-1.69-.796 1.07-2.768 1.92-3.024.99-.298 0-1.17.7-1.714.66-.545 1.56.225 2.22-.504zm-97.47.504c1.5-.172 1.59.283 1.82 1.008.1.213.1.338.2.605.27.561.92.909 1.61 1.051.16.03 2.82-.06 1.34-1.201.53-.434.88-.428 1.05-.445.18-.02-1.02 1.651-.88 1.603 1.03-.337 1.07 1.312.31 1.713-.67.352-1.59 1.4-2.52 1.008.24-.377.18-.668-.1-1.008-.67-.924-.31-1.021-1.31-.604-.85.35-1.26-.533-2.02-.605-.65-.06-1.15.299-1.81 0-.83-.372-1.29-1.394-.41-2.016 1.47-1.036 1.7.383 2.32 1.31.1-.356.13-.744.1-1.108.79.384 1.58.503 2.12-.303-.58-.277-1.43-.42-1.82-1.008z"/><path d="M1688.19 364.325c.69.443 3.05-.304 1.8-.593.94-.354 1.16-.708-.43-1.062l-2.63 1.142c-.82.502-.64.736 1.26.513z"/></g></svg>