<svg xmlns="http://www.w3.org/2000/svg" width="187.328" height="104.285" viewBox="0 0 49.563839 27.592079"><path class="landxx lt eu" d="M.068 3.856c1.356.218 1.675-1.191 2.58-1.817.996-.683 2.75-.908 3.894-1.175C9.52.17 13.002.142 16.047.314c1.794.788 4 .107 5.636.586 1.98.168 6.194 1.078 8.095-.152 2.592-1.68 2.699.146 4.307 1.422.97.775 2.247.63 3.43.809 1.595.238 3.017.913 4.04 2.079.652.728 4.72 3.413 5.637 2.917-.651 2.868-.425 3.612 2.167 4.303-1.595.782-.426 2.097-2.646 1.66-1.701-.337-1.9 1.28-3.137 2-3.044 1.755-1.25 3.87-3.788 6.583.638.26 1.927.365 2.1 1.242.2 1.059-1.21 1.282-1.914 1.053.731-1.96-2.287-1.376-2.446-.98-.758 1.831-3.07.532-3.961 2.384-.306.646-1.915.655-2.592 1.03-1.157.633-3.297-.066-4.587.053-.638.054-3.482.442-3.695-.638-.266-1.282-1.569-3.036-2.818-3.602-1.728-4.553-.479-4.19.2-5.978.132-.375-2.42-2.406-2.845-2.417-1.024-.026-6.341.286-8.043-1.078-1.874-1.486-4.506-1.997-4.838-.537 0-1.418-2.273-3.267-2.991-4.471C.468 7.11.6 5.437.068 3.856" fill="#cbe6a3" fill-rule="evenodd" stroke="#000" stroke-width=".144"><title>Lithuania</title></path></svg>