<svg xmlns="http://www.w3.org/2000/svg" width="125.236" height="130.166" viewBox="0 0 33.13538 34.439663"><g transform="matrix(1.3293 0 0 1.3293 -1938.818 -453.632)" fill="#cbe6a3" stroke="#000" stroke-width=".109"><title>Moldova, Republic of</title><path class="landxx md md-" d="M1458.56 343.294c.69-.404.65-.104.93-.765.19-.446.91-.394 1.28-.37 1.1.07 2.44.164 3.4-.558 2-1.498 3.52 3.326 5.57 2.361.24 1.246 1.04-.328 1.27.964.26-1.237 1.52-.74 2.11-.05.29.339 1.06 1.283 1.45.91.61-.588.74.217 1.2.823 1.12 1.462.6 1.855 1.64 3.2.32.357.24 1.243.58 1.577.4.447.51-.551.9-.07.75.936-.98 4.016-.59 2.762.68-2.239 5.73 2.859 3.59 3.618.66.274.77.937 1.47 1.152-1.61 1.704-4.58-2-5.65.216-.18-.428-.35-.859-.5-1.296-2.59.941-.49 2.844-1.91 4.727-.83 1.089-1.35 1.861-1.91 3.05-.13.258-.1.823-.44.916-.52.131-1.49-.321-1.58.596-.96-.82-.62-1.219-.99-2.243-1.11-3.118.47-5.121.1-7.266-.25-1.324-1.86-3.784-2.74-4.588-2.02-1.859-3.07-2.984-4.47-5.38-1.13-1.913-2.14-4.15-4.67-4.282" fill-rule="evenodd"/><path class="limitxx md xp" d="M1471.01 344.926c.26-1.237 1.52-.74 2.11-.05.29.339 1.06 1.283 1.45.91.61-.588.74.217 1.2.823 1.12 1.462.6 1.855 1.64 3.2.32.357.24 1.243.58 1.577.4.447.51-.551.9-.07.75.936-.98 4.016-.59 2.762.68-2.239 5.73 2.859 3.59 3.618-.1.05-.47.03-.6 0s-2.7-1.26-3.45-1.739c-.76-.479-.63-1.084-.66-1.411 0-.328-1.33-1.185-1.48-1.361-.16-.176-.1-.882-.1-1.411s-.71-1.714-1.06-2.419c-.36-.706-.66-1.991-.96-2.293-.3-.303-.83-.277-1.29-.555-.45-.277-.85-.755-1.08-1.007-.23-.252-.2-.572-.2-.572z" fill-rule="evenodd"/></g></svg>