<svg xmlns="http://www.w3.org/2000/svg" width="734.741" height="190mm" viewBox="0 0 194.4003 190"><path d="M1.252 157.03a6.055 6.055 0 0 0-1.05-.861c-.346 1.118 0 1.405 1.05.86M1.637 165.164c-.412-.321-.837-.64-1.25-.957a6.7 6.7 0 0 1 .386 2.106c.798.04 1.13-.386.864-1.149M.773 163.25c.346.254.705.51 1.05.765a1.505 1.505 0 0 0-1.05-.765M.866 162.679c.333 0 .652-.067.957-.192-.319.067-.638.133-.957.192M2.488 148.415c.306-.922-.412-.904-1.05-.67.346.224.704.447 1.05.67M2.023 175.985c-.559.757-.266 1.482.571 1.818.373-.854.412-2.024-.385-2.68 0 .288-.133.575-.186.862M2.594 170.72c-1.409-.04-.717 1.378-.864 2.202.213-.81.825-1.255 1.622-.766 0-.576-.319-1.055-.758-1.435M3.352 169.179c-.478.694-.306 2.36.771 2.394 1.449.04.133-2.276-.77-2.394M4.602 168.807c-.32.066-.638.133-.957.191.93.067 1.674 1.103 2.406.053.65-.937-1.05-.82-1.45-.248M8.044 144.88a4.19 4.19 0 0 0-2.007-.094c0 1.52 1.569 1.106 2.007.093M9.666 143.723c-.319-.067-.625-.133-.944-.192-.133.637-.146 1.275-.199 1.913.665-.33 1.157-.946 1.143-1.721M11.594 143.058a4.67 4.67 0 0 0-.957-.093c.319.027.638.067.957.093M10.916 143.35c.345.134.704.256 1.05.383-.266-.336-.625-.463-1.05-.382M16.273 140.28h-1.05c.425.209.877.368 1.342.479-.133-.16-.2-.32-.292-.479M17.137 139.044c-.346-.027-.705 0-1.05 0 .73.558.784.066 1.05 0M22.308 137.98l.957-.67a3.455 3.455 0 0 0-.864-.957c.133 1.096-.266 1.287-1.143.574-.147.809.212 1.25 1.05 1.053M27 133.873c-.425-1.43-2.246-.98-2.964-.093.957.287 2.007.687 2.964.093M26.043 136.066c.346-.066.691-.133 1.05-.193-.611-.695-1.422-.732-2.007 0 .32.067.638.133.957.193M27.758 135.401a2.406 2.406 0 0 0 2.007.385c-.186-1.235-1.342-1.255-2.007-.385M28.05 132.716c1.104 1.217 5.623.229 6.128-1.34-.678-.591-1.648-.56-2.472-.377-.625.14-2.964.536-.598.857-1.13 0-2.287-.177-3.058.86M32.171 129.951c-1.01-.9-2.898.36-3.935.575 1.343-.08 2.858.588 3.935-.575M30.35 133.58c-.319.027-.638.067-.957.093.359.21.744.37 1.143.478 0-.19-.133-.382-.186-.573M48.442 117.602c-.36.224-.705.447-1.064.67a14.66 14.66 0 0 0 2.114-.67h-1.05M48.335 118.174c1.13-.331 2.034.949 2.978-.193-.997-.436-2.02-.133-2.978.193M51.313 122.295c.319-.027.625-.067.944-.093a4.973 4.973 0 0 1-2.194-1.245c-.132.828.426 1.359 1.25 1.34M51.406 120.274c-.359.027-.704.067-1.063.093.305.311.664.566 1.063.766v-.86M51.792 121.045c-.32.665 0 .824.957.477-.32-.158-.638-.316-.957-.477M55.141 115.874c-.77-.166-1.542.149-2.02.766a4.326 4.326 0 0 0 2.02-.766M54.942 110.703c.399.291.85.387 1.343.287-.187-1.332-.745-.995-1.343-.287M60.498 108.124a8.066 8.066 0 0 1 2.486-.861c-1.29-.589-2.831-.355-3.443 1.054.32-.066.638-.133.957-.193M61.256 105.546c-1.887-1.46-1.568 2.1.386.477a10.435 10.435 0 0 1-.386-.477M63.37 87.161a4.881 4.881 0 0 0-.678.957c1.236.737 2.512-.701 2.02-1.914-.518.22-.97.539-1.342.957M63.941 104.96c-.319.134-.638.256-.957.383.333-.08.652-.212.957-.382M64.712 104.482c-.399-.12-.744-.027-1.063.289l1.063-.289M65.19 87.068c.878.185 1.596-.377 1.915-1.148-.85-.49-2.074.08-1.914 1.148M66.52 98.939c.678-.053 1.343-.12 2.02-.192a3.163 3.163 0 0 0-2.02.192M68.049 85.633c-.226.319-.439.636-.665.957 1.436-1.001 3.682-.508 4.879-1.913-.878.154-1.21-.629-2.008-.67-.797-.04-1.262.61-2.1.383.532.634.306.888-.678.765.186.16.372.318.572.478M72.555 84.676c.625-.676-.452-.863-.864-.862.293.287.572.574.864.862M72.077 95.59c.252 1.05 1.05 1.41 1.05-.094-.36.027-.705.066-1.05.093M73.127 84.862c1.635 1.154 5.157-.62 5.942-2.202-.798 0-1.476.277-2.02.862-.56-2.06-3.178.934-3.922 1.34M77.527 81.512c1.25-.053 2.778-.238 3.735-1.149-.97-.248-.798-.449-.532-1.11.306-.776-1.608-1.53-2.047-1.855 0 .692 0 1.36-.292 2.01-1.05-1.25-3.124.69-4.493 1.34 1.475 1.246 3.416-1.189 5.064-.479a6.021 6.021 0 0 1-2.007.576c.186.22.372.444.572.667M76.383 82.376c.639.08 1.184-.106 1.622-.574-.864-.347-1.848-.358-2.672.093.346.16.692.319 1.05.478" fill="#cbe6a3" fill-rule="evenodd" stroke="#000" stroke-width=".144"/><path d="M77.912 78.64c.146-.77-.213-.77-1.05 0h1.05M77.048 84.968c.359-.16.705-.319 1.064-.479-.44 0-.798.153-1.064.479M78.298 88.118c.69 0 1.356-.138 2.007-.382-.665-.555-1.688-.568-2.007.382M81.448 80.369c.133.319.2.636.293.957a6.168 6.168 0 0 1-1.915.383c.997 1.086-.717 1.595-.757 2.68.89-.785 2.007-1.237 3.15-1.53a19.11 19.11 0 0 0-.864 1.052c.585.027 1.33.572 1.914.383.718-.235 1.05-1.378 1.635-1.818-.133 2.209.93.31 1.436-.241.558-.615 1.422-.358 2.14-.387 1.303-.053 2.526-1.854 1.143-2.742-.585-.382-1.834-.6-2.353.04-.717.906-2.233 1.61-3.323 2.754 0-.278 3.058-3.788.479-1.914.864-1.109.545-2.82-1.197-1.982-.837.401-1.17 2.308 0 2.365a2.694 2.694 0 0 0-1.82 0M83.176 77.684c1.356-.248 3.097-1.35 3.443-2.777-1.834-.97-4.652 1.652-5.17 3.254.677.21 1.249.053 1.727-.477M83.176 86.869c-.319.133-.638.255-.957.384.984.156 1.994.04 2.964-.193a68.594 68.594 0 0 1-2.007-.191M86.712 82.761c2.871 2.012 2.207-2.57 0 0M89.397 78.64l.957-.478c-.717-.367-1.382-.304-2.007.193.346.093.691.19 1.05.286M92.747 74.812c.346-.026.705-.066 1.05-.093-1.396.32-1.396.638 0 .957-.664.258-1.33.481-2.007.67 1.196.687 2.605.387 3.749-.232 1.355-.734 3.044.026 4.48-.34-1.21-.277-1.277-.579-.187-.906.625-.685.984-2.289-.664-1.393 2.34-.669-.16-.828-.97-1.231-2.526-1.262.57 1.991-1.623-.3 2.074 1.818-1.515.18-2.485.67a2.593 2.593 0 0 0 2.1.67c-1.449.526-3.018.26-4.493.575.944-.093 1.156.067 1.05.956M93.797 79.983c-.133-1.497-1.582-.638-2.007.093.665-.08 1.33-.12 2.007-.093M93.904 78.747c.598.62 1.448.783 2.193.287-.439-.548-1.808-1.384-2.193-.287M105.867 70.89a5.804 5.804 0 0 0 1.529-.956c-.917-.459-1.861-1.234-2.964-.766 1.316.392.983.948.186 1.53a32.149 32.149 0 0 0-.572-1.051c-.718.393-2.087 1.155-.133 1.147-.704-.216-3.589.87-1.05.574a3.508 3.508 0 0 0-2.1.766c.944.392 5.317.557 5.078-1.243M104.618 67.833a15.103 15.103 0 0 1 2.007-.957 6.355 6.355 0 0 1-2.007 0v.957" fill="#cbe6a3" fill-rule="evenodd" stroke="#000" stroke-width=".144"/><path d="M105.575 67.833c-.638 4.039 5.663.16 6.314 0-.877.08-1.609-.12-2.18 0-.306.054-.678-.724-1.077-.757-1.103-.093-2.034.472-3.057.765M107.197 65.92a6.12 6.12 0 0 0 1.063.574c.213-.887-.838-1.795-1.063-.575M109.11 66.49c.426.12.838.08 1.25-.092-.425.026-.837.066-1.25.093M112.46 67.833c-.677.393-1.289.871-1.82 1.435 1.023-.148 2.312-.24 2.685-1.435h-.864M113.617 66.398c-.85-.714-1.914-.884-2.978-.957 1.582.828 1.968 2.604 4.028 1.435-.359-.16-.704-.319-1.05-.478M116.767 66.398c.652 1.773 2.898.92 3.071-.67-1.077-.38-2.207.013-3.07.67M119.16 69.655c.186-.32.386-.638.585-.959-.758-.304-1.343 0-1.343.862.253.04.506.066.758.093M119.745 67.833c.691.524 1.582.524 2.286 0-.611.08-1.794-.59-2.286 0M126.338 67.833c0-.23-.133-.226-.664-.382.212.133.438.256.664.382M138.209 60.562c.133-.133.253-.255.385-.383-.983.107-2.007.318-2.964-.093 2.167 2.438-4.825.027-1.635 1.53-1.023.014-1.741-.856-2.605-.12-.745.637-2.592.15-3.523.313.651.294 1.33.517 2.02.67a10.06 10.06 0 0 1-.957.766c1.277-.968 3.23-.194 4.68-.335 1.741-.174 3.163-1.48 4.599-2.347M134.288 65.44h1.05c-.559-1.112-2.779-1.49-3.829-1.053.678.94 1.728.935 2.779 1.054M139.645 62.37c0-.16-.133-.318-.187-.477-1.355 1.544-3.482.784-4.984 2.01 1.063.827 2.419-.501 2.392 1.244.731-.545 4.28-1.34 2.779-2.777M142.609 62.849c1.09-1.484-.452-1.673-1.609-1.732-2.565-.133-.132 2.04 1.609 1.732M141.466 58.449c.558.574 1.223.765 2.007.575-.359-.524-1.422-1.489-2.007-.575M142.13 57.69c.306.188.625.156.957-.092-.319.04-.638.066-.957.093M156.3 58.449h1.05c-1.408.08-1.13-.49-.478-1.149a27.373 27.373 0 0 0-2.286-.574c-1.01 0-1.795.72-2.792.766.665.143 1.037.834 1.516 1.233.664.541 2.273-.17 2.99-.276" fill="#cbe6a3" fill-rule="evenodd" stroke="#000" stroke-width=".144"/><path class="landxx no" d="M1.159 154.065c2.02-.979 4.227-.12 6.314-.766a2.188 2.188 0 0 0-1.356.183c-.957.317-1.701-.393-2.659-.374 3.084-.916-2.047-.45.944-1.053-1.05-.165-2.1.013-3.15.093 1.05-.209 2.127-.202 3.15-.574-.917.212-3.257.878-3.243-.766a2.545 2.545 0 0 0 2.007-.576c-2.566.258 1.33-1.42 2.007-1.435.811-.014 1.25.618 2.007.765.745.147 3.164-.61 1.436 1.055.412-1.035 5.743-1.728 6.806-1.246-1.156-.629-2.539.177-3.762-.053-.638-.12-5.968-.342-3.23-.432-1.662-.12-4.32.658-5.743-.477.785.04 1.45-.21 2.008-.766-.439-.48-2.406-.76-2.327-1.62.133-1.231 2.818.958 2.898 1.716a3.24 3.24 0 0 0 .957-.67c-1.754.013-.398-2.078 1.157-.093.133-.937 1.196-1.569 1.342-.458.133.68 2.765.548 3.244.553-.784-.172-3.443-1.245-1.808-2.224 1.954-1.177 2.273 0 3.722 1.17-2.565-5.036 6.314-1.465 2.778.862.758.187 1.463.066 2.114-.383-.798-.17-1.383-.85-.585-1.53.412-.356 1.569.165 2.114-.093-2.26.08-2.486-1.106-4.254-1.759-1.396-.517-2.951.32-4.36-.066 1.116-.371 2.3-.237 3.443-.383-1.05-.641-2.273-.12-3.257-.957 1.834-.406 4.014-.964 5.849-.291 1.568.568 4.147 1.398 5.636.386a6.27 6.27 0 0 1-2.1.193c.252-2.128 3.934-1.923 5.357-1.436-1.795-1.84-4.2 1.105-6.128-.287a51.661 51.661 0 0 0 2.007-.573c-1.515.08-3.815 1.441-5.065 0a4.003 4.003 0 0 1 1.914-.29 4.081 4.081 0 0 1-2.113-1.148c1.01-.708 2.233-.966 3.323-.207 1.103.773 2.114-.408 3.283-.174 1.064.214 1.994-.397 2.433.963.359 1.142 2.552 1.25 3.403 1.91-1.037-1.843-3.802-1.823-4.307-4.118.771-.487 1.968.515 2.406 1.035 1.077 1.26.505 1.002 2.473 1.071-1.928-.187-.665-.988.2-1.149-.4-.04-3.843-.143-1.051-.287-.425.027-2.978-.873-1.569-1.192 1.622-.368 3.523-.436 5.198-.722-.997.133-2.047.237-2.964-.286.385-.36.717-.76 1.01-1.197.571-.702 1.116-.264 1.834-.544 1.104-.435 2.247-.013 1.077 1.167.97-.447 2.02-.67 3.07-.86a4.893 4.893 0 0 1-2.206-.093 4.238 4.238 0 0 1 2.007-.766 6.354 6.354 0 0 0-2.007 0c1.024-.692 2.486-1.013 3.669-1.344 1.396-.39 3.336 1.993 1.316 2.876.997-.369 2.034-.16 3.057-.193-2.605-.61.585-1.208 1.29-1.202 1.183.013 2.432.326 3.589.053-.718-.873-.532-1.256.571-1.148-.704-.25-1.369-.188-2.007.191 1.569-1.205 3.377-2.164 5.357-2.392-.133-.86-.691-1.144-1.435-.766.305-1.305 1.714-1.254 2.685-1.723-.878-.106-3.27.433-1.05-.861-2.008.08-3.19 2.32-5.171 2.584.717 0 1.395-.194 2.007-.574 1.156 1.58-2.592 2.753-3.51 3.078-3.004 1.073-3.655 1.638-5.383-.878.837 0 1.582-.412 2.193-.957-1.382.332-2.791.683-4.107 1.245.744-.497 1.621-1.16-.133-1.148 1.515-.67 3.522-2.1 5.264-1.436-.718-.45-1.423-.417-2.1.093.305-.28.624-.534.957-.766-2.18.443.133-.785.69-1.241.705-.566.28-1.296 1.516-.864-.957-2.665 4.945-1.972 4.4-4.307 1.064.318 1.688 1.376 2.778 1.627a7.822 7.822 0 0 1-.491 1.054c.97-.633 2.1-1.184 3.256-1.341-1.874.191-.77-1.145.2-1.149a5.92 5.92 0 0 0-2.02-.381c0-1.521 2.126-1.548 3.163-1.819a7.993 7.993 0 0 1-1.529-.191c1.742-1.34 4.28-1.691 6.314-.862-3.39-1.67-5.875 1.578-9.185 1.532 1.303-.388 1.276-.642-.133-.766.97-.509 2.1-.217 3.057-.766a3.354 3.354 0 0 1-2.3.094 4.128 4.128 0 0 1 2.008-.289c-3.07-.62 3.43-.897 0-.67.93-.08 1.861-.304 2.685-.766-2.38.067 0-1.08.864-.19.16-1.228 1.569-1.358 1.821-.094a3.868 3.868 0 0 1-2.392.193c2.233 1.035 5.264-.61 6.885-2.106-.717.346-1.369.804-2.087 1.127-.664.294-3.376.208-.97-.08-1.343-.12-1.17-.664-.479-1.34-.797-.15-1.528.247-2.007.86-.691-.938.173-3.027 1.436-2.965.279.235.518.503.73.804.692.677 1.676.093 2.42-.134-.306.093-2.565-.798-2.658-.942-1.223-1.941 1.302-1.406 2.273-.876-2.5-.99.558-4.78 3.443-1.915-.346-1.574-2.725-2.244-4.015-2.105 1.33-.04 3.669-1.353 4.985-1.832 1.223-.443.798.238 1.555.704.479.298 1.343-.132 1.888-.026-1.622-.403 1.927-1.06 2.672-1.819-2.685.641-5.45.886-8.136 1.53.678-1.058 1.848-1.159 2.978-1.244-1.05-.171-2.127.12-3.164-.193.878-.623.731-1.373-.199-1.817.984-.671 1.37.486 2.3.478.319 0 2.898-1.254 3.07-1.436-1.555-.464-3.097 1.381-4.214-.477a4.424 4.424 0 0 1 2.1-.093 11.392 11.392 0 0 0-1.528-.479c1.343-.35 2.712.387 4.028-.093-.399.04-3.31-.136-.864-.384-2.672-.26 1.608-.355 2.007-.382-1.103-.17-2.007-.862-3.07-1.148 1.05-.537 2.459-1.03 3.655-.815 1.542.276 2.645-1.122 4.2-.334a3.83 3.83 0 0 0-2.1-.574c.386-1.348 4.772-2.058 4.772-1.053 1.144-.724 2.858-.21 3.829.574 0-1.067.186-1.253 1.25-.86-1.317-.26-2.62-.767-3.975-.817-1.901-.067-3.284.744-5.211-.04.784-.226 1.223-1.028 2.007-1.244.89-.246 1.276.908 2.007-.193a4.58 4.58 0 0 1-2.007-.287c.917-.513 2.1-1.263 3.164-.574l-1.157.574c.97-.237 2.1-.396 3.071-.093.877.27 1.529 1.469 2.579 1.053-2.167-.08.24-1.848 1.25-1.818-1.702-.192-3.297.718-4.986.094 3.23-.709-1.515-.027.373-1.388.585-.424 1.582.106 2.22.053-2.46-.394 1.09-.352 2.007.191-2.46-2.473-4.839.225-7.564.289.426-.697 1.183-1.154 2.007-1.149a4.002 4.002 0 0 1-2.1-.765c.665-.08 1.33-.12 2.007-.093-3.256-.133 2.58-.738 3.15-.79.865-.08 2.925.473 3.27-.742-1.594-.859-3.31-.093-4.984-.288.611-1.166 1.874-.831 2.871-1.34-1.648 2.155 1.755-1.02 2.792-.364 1.276.817.319 3.492 2.565 3.332a1.927 1.927 0 0 1-1.528-1.531c.465.373 3.695 1.606.957 0 1.13.629 1.382.405.77-.67.692.2 1.396.231 2.101.093a13.817 13.817 0 0 1-3.257-.574c.505-.222 1.01-.415 1.529-.576a10.461 10.461 0 0 0-2.193-.287c1.409-.106 1.409-.424 0-.957 1.475.44 2.778 1.352 4.306 1.627-1.289-.344-2.565-1.227-3.549-2.106 1.582-.106 3.11-.523 4.64.093.664.067 1.329.107 1.993.12.705.194.506.796 1.41.84-.492-.04-.772-.26-.851-.675.266-.653 1.754-.425 2.193-.186-2.632-.593 1.436-.6 2.007-.479-2.073-.62-3.403-.605-5.503-.347-1.33.164-3.59.34-4.732-.515 1.356-.25.81-1.683 2.685-1.968 1.794-.272 3.669-.08 5.45.15a25.3 25.3 0 0 0-2.1-.861c.93-.606 1.994-.173 2.964 0-1.675-.24-.957-.726-.133-1.148-2.685.26.346-2.805 2.592-2.393-2.552-1.917 3.337-5.122 2.872-.766.265-1.777 2.206-1.37 3.642-.766-1.356-.63-3.018-.659-3.829-2.105 1.197-.28 2.22.08 3.257.655 1.17.649 3.749.609 2.965 2.025.73-.08 1.355-1.436.292-1.436-1.143 0-2.22.24-2.885-.958.572-.603 1.237-.762 2.008-.478a2.746 2.746 0 0 0-2.1-.093c-.227-2.621 3.509-2.338 5.17-2.68-.16 1.423.133 2.586-.585 3.923.944-.624 1.343-2.402 2.779-1.721-2.087-.12-.492-3.155-.133-1.724.425-1.118 1.9-.697 2.007-2.01 2.526 1.03-.93 5.644-1.914 6.7 1.076-.73 2.432-.916 2.977-2.258.545-1.367 2.553.167 3.443.249-3.203-1.107-1.82-3.854.864-4.404-.345.26-.664.548-.97.861 1.236 1.564 1.382-.77 2.685.192-2.3-3.266 6.075.882 6.607.958a2.76 2.76 0 0 0-1.821-.958c1.17 0 1.276-.093.292-.311-.598-.415-.651-1.807.85-.645-.398-1.08-2.964-1.03-.664-1.627-1.582.473-4.812.171-6.035-1.149.705-.25 1.383-.186 2.02.192.134-.351.187-.7.28-1.053.73.37 1.435.784 2.113 1.246.32-2.355 2.18.026 3.35-.959-.292 1.251 1.05 1.41 1.914 1.532-.744-.054-1.223-.506-1.342-1.245 1.316-.22 2.725.277 4.014.478-.319 1.468-2.446 1.257-3.536 1.34 1.41.04 2.978.026 4.214-.765.16 2.515 2.579 1.494 4.108 1.436-.173-.55-1.595-.374-2.194-.957.904-.47 1.715-1.023-.133-1.246.44.027 3.71-.25.958-.478 1.103.224 1.754-1.206 2.552-1.68 1.196-.721 2.565-.38 3.868-.426-1.94-1.623 1.635-1.424 2.393-1.913-.957-.489-2.074-.395-2.965-1.053 1.064-.881 2.167.545 3.15-.575-2.764-.552 1.49-1.04 2.5-.826 0 .014 3.908 2.61 2.007.156 1.37-.133 2.659 1.196 4.015.478-.825 2.087-3.895 2.226-5.264 3.829.77-.19 1.223.18 1.25.957-.48.053-2.021 1.478-1.915 2.488.665-.376 1.954.358 2.22-.08.279-.475.665-.836 1.17-1.083.598-.419-.293-.7 0-1.131 1.608-1.976 5.503-4.984 7.936-5.647.425 1.596.518 2.546-1.436 2.68 1.848-.323 1.728 1.87 1.156 2.967.811.08.904-.34 1.343-.836.638-.722 1.781-.19 2.579-.217-.253-.348-.505-.7-.758-1.053a4.266 4.266 0 0 1 2.007.093c-.744-.162-1.236-.761-1.25-1.53 1.144.08 2.008-1.07 3.165-.575-.771-.95-1.994-.818-3.071-1.052.731-.12 6.726-3.38 7.191-1.15.133.391 1.928.468 2.273.806.984.94-3.934 1.523-4.2 1.684.731-.08 1.409.08 2.02.477-1.036.276-2.007.751-3.07.959 1.329-.04 3.19-1.162 4.4-.193-.97.658-2.087 1.034-3.15 1.531 1.275.08 2.578-.417 3.828-.093-.678.4-1.13 1.106-.864 1.913-.133-1.345 1.196-2.125 2.392-2.01-2.472.027.386-2.906 1.197-3.392 1.076-.649 5.104-.04 3.974 1.86.957-.286 3.124-1.382 3.456.288 1.356-1.377 4.733.569 2.473 1.053 2.074-.157 5.158-.445 6.846 1.248 1.077 1.098-2.446 1.47-2.938 1.57-2.22.445-3.47 1.772-5.955 1.421-1.994-.283-5.862-1.736-7.617-.22 1.236.08 2.446.256 3.656.471.85.152 5.21.277 2.565 1.251 1.13.148 3.695.778 1.05 1.914.904-.106 1.795-.239 2.699-.383.133.774.558.802 1.329.766a5.616 5.616 0 0 1-.2-1.628c1.037.053 2.234.186 2.593 1.341.505-1.741 2.937-1.113 3.39.243.93 2.774-4.76.984-5.318.331 1.024 1.949-1.223 2.567-2.632 2.806-.73.12-2.844.197-2.95 1.033 0 .58.331 1.244-1.224 2.091-.73.402-1.409.014-2.047-.37-1.303-.798.399-1.608.917-2.114 1.383-1.332 2.008-3.212-.558-3.882-1.967-.514-3.975-.803-5.875-1.55-2.18-.852-3.802-2.977-6.115-1.493-3.775 2.424-9.425-.23-10.794 4.487-.306 1.087-.545 2.152-.665 3.283 0 .711.612 1.925 0 2.536-.757.673-1.568.331-2.392.738-.838.408-1.277 1.299-1.808 2-1.276 1.644-3.616-.264-5.131-.665-1.037-.27-2.074-.48-3.098-.787-1.262-.378-1.316.653-2.26 1.074-2.897 1.308-5.968 1.049-9.025-.218-1.237-.51-3.456-2.849-4.613-3.738-2.153-1.648-3.975-1.971-6.367-.735.319.295.638.582.957.861-1.901 1.061-5.078.014-7.178.957 2.858 1.16.598 3.398-1.05 4.404.69.156 1.369.38 2.007.67-3.244 2.485-7.165-.458-10.515-.208-1.675.12-2.845-.997-4.546-.346-1.223.464.252 2.363 0 3.33-.718 3.36-4.972.731-7.059 1.426-3.443 1.147-4.719 4.646-7.976 6.136.785.678 2.832 1.85 2.58 3.125-.2 1.074-4.121 3.438-5.039 4.455-.638.708-1.103.946-1.914 1.39-.957.527.519 1.622 0 2.333-1.21 1.56-5.264 1.587-6.992 1.522.292 1.038 1.196 7.74-.16 8.476-1.076.578-1.528 2.4-2.525 3.282a33.781 33.781 0 0 0-3.722 3.843c1.874.622 5.304 1.8 3.802 4.515-1.05 1.888-6.261.49-8.122.789-1.715.276-6.687 2.988-6.78 5.042 0 1.075-1.037 1.915-.957 2.882 0 .76 1.715 2.831 1.09 3.262-1.342.92-.558 3.541.133 4.94 1.356 2.782-.2 4.599.133 7.349.186 1.747 2.326 2.325 3.656 2.84.664.252 1.701.623 1.927 1.38.16.484-.97 3.336-1.542 3.333-1.755 0-3.51.475-2.778 2.527.439 1.226 1.622 1.96 2.113 3.157.572 1.404-.678 2.103-.531 3.448.133 1.144-1.17 2.156-2.1 2.511-1.53.59-2.991-.155-2.845 1.65 0 .972-.532 1.611-.97 2.35-.546.9.398 2.196.305 3.202-.133.963-.545 4.349-2.1 4.07-.705-.133-1.21-1.332-1.595-1.81-.452-.571-1.21-.468-1.861-.804-1.728-.876-2.978-.79-3.59-2.829a9.228 9.228 0 0 1-.412-2.82c0-.588.639-3.102.864-.83.984-1.833-1.515-2.463-1.701-.554-.133 1.091 1.223 2.075 0 2.947a86.139 86.139 0 0 1-.758-.957c-.16.815-.718 1.013-1.435.67 1.395 1.28 1.661 2.11 1.143 3.924 0-1.928-.133-.297-.745.248-.571.464-1.262.712-1.874 1.118-.984.66-.2 1.25-1.661.543-.891-.424-1.702-.972-2.62-1.335 2.526 1.091-.544 2.88-2.006 2.777l.678.957a7.454 7.454 0 0 1-2.5.383c.173.35.333.7.492 1.051-1.914.287-2.592 2.263-4.134 3.184-1.874 1.129-3.908 1.65-5.942 2.375-.864.305-1.98 1.118-2.91 1.112-.931 0-1.782-.476-2.726-.499-1.502-.04-4.187.543-5.25-.906a6.83 6.83 0 0 1 2.1-1.34c-3.364 2.07-14.078-4.653-9.478-7.178a9.09 9.09 0 0 0-.957-.67c1.994-.133 3.47 1.732 5.463 1.627a19.147 19.147 0 0 1-1.05-.86c1.25-.726 2.738-.886 4.107-1.246-1.581.133-3.19.455-4.493 1.436.187-.84-.292-1.584-1.063-1.915a63.926 63.926 0 0 1 2.02-.574c-2.459-.492 2.154-1.677 2.965-1.818a5.3 5.3 0 0 0-1.98.29c-1.184.348-1.782-.092-.134-.29a6.734 6.734 0 0 1-2.02-.192c1.409-.906 2.685-1.903 4.307-2.392-.944.228-1.808-.682-2.353.347-.399.79-1.742 1.523-2.526 1.855 0-.75.505-1.204 1.25-1.247-1.05-.04-2.207-.066-3.071.67.758-.355 1.21-.053 1.25.766a2.981 2.981 0 0 0-2.008.48v-2.203a4.21 4.21 0 0 0-1.25.67c2.513.214-.89 3.187-.185.479-.16 2.081-1.49.106-1.45-.717 0-1.187 1.117-2.291 2.207-2.633-.133.924-.305 2.139-1.528 2.106 1.023.64 1.409-.08 1.688-.962.372-1.183 2.153-.191 3.097-.666-2.672-.33 1.276-.872 1.821-1.34-1.116.657-2.605.277-3.642-.384.93-1.196 2.792-2.987 4.413-2.965-2.552-.76 2.247-2.814 3.058-3.349.438 1.053-.333 1.994-.572 2.965 1.622-1.804 2.087-3.406 4.785-3.635-2.06-.34-4.373.067-6.287.834-.572.228-2.46 1.61-2.805 2.204-2.565 4.412-1.223-.273-3.257.026a12.07 12.07 0 0 0 .479-1.914c-.28.646-1.263 2.7-2.326 2.213-.864-.393-.532-1.995-1.596-2.213a2.243 2.243 0 0 0 1.53-1.436c.956 2.799 3.575-.538 2.963-2.392-1.302.325-1.967 1.913-3.39 1.913-1.395 0-1.435-2.083-2.631-2.488 1.156 0 2.525.507 3.243 1.436-.133-.863-.385-2.254.957-2.201-1.236-.3-3.43 1.568-3.735-.67.877.646 1.037.642 1.436-.383-1.024.267-1.821-1.292.292-.941 2.247.37 3.669-.513 5.836-.59 1.568-.054 3.615.993 5.064.04 1.529-1.017 4.533 1.35 2.406 1.97.678-.389 1.383-.452 2.1-.193-2.18-1.583 3.045-2.657 3.935-2.68-2.87-.359-1.794-1.505-.199-2.967-1.303.534-2.951 1.856-1.715 3.35-1.037-.08-2.034.464-3.07.093.332-.312.69-.6 1.05-.86-.957.615-5.676.844-3.536-.957-1.17.175-.97 1.168-1.649 1.844-.97.983-2.379-.04-3.43-.204-1.209-.191-3.283.481-4.439.827-1.236.367-2.193-.767-3.31-1.032 1.808-.013.771-.69 0-1.148 1.223-.572 2.685-.76 4.015-.67-1.303-.412-2.765.053-4.015.478.85-1.121.638-1.409-.665-.865" fill="#cbe6a3" fill-rule="evenodd" stroke="#000" stroke-width=".144"/><path d="M1.252 162.2l-.957-.574c.744-.447 1.489-.107 1.914.574h-.957M2.302 149.093c.346.16.704.318 1.05.477a6.434 6.434 0 0 1-3.15-.287c.651-.5 1.356-.563 2.1-.19M5.466 164.114a5.31 5.31 0 0 1-1.915-1.053c.97-.54 2.1-.788 2.965-1.53.173 1.019.252 2.31-1.05 2.583M10.158 174.55c.386-1.794 1.489-.846 2.765-1.15-.957.286-1.98.48-2.765 1.15M23.743 137.316c.133-.288.253-.575.386-.86.332.757 0 .442-.386.86M187.114 68.79c-1.901-.47-.93 2.315 1.156.575-.904.526-1.29.335-1.156-.574" fill="#cbe6a3" fill-rule="evenodd" stroke="#000" stroke-width=".144"/></svg>