<svg xmlns="http://www.w3.org/2000/svg" width="334.034" height="243.331" viewBox="0 0 88.379822 64.381355"><path class="landxx pl eu" d="M.072 21.572c0-2.282 3.337-2.879 2.087-5.539-.438-.921-1.449-2.294-1.063-3.408.173-.516 1.954.143 2.326.142-.186-.752 0-1.422.479-2.01-.133.158-.2.318-.293.479a3.568 3.568 0 0 0-2.007-.862C2 11.39.43 10.814.35 9.896c2.207.828 5.73-1.081 7.737-1.885 2.393-.967 8.242-.703 9.744-2.704 1.847-2.443 6.18-3.57 9.092-4.336 3.629-.96 8.627-1.73 11.711.885-.837-.573-1.821-1.159-2.871-.765 1.263 1.187 1.582 3.468 3.416 4 2.22.639 5.184-.321 7.311-.938-.93.564-2.074.711-2.99 1.33-1.317.891 1.475.381 1.98.12 3.416-1.748 6.42-.343 10.488-.4 5.37-.08 12.934 1.251 18.265.466 3.987-.585 4.931 1.28 5.928 4.926 1.024 3.749 5.636 8.154 4.307 12.275-.665 2.085-3.297 1.337-4.4 2.936-1.116 1.6-2.074 2.813.625 3.313 4.32.8.718 5.031 2.007 7.364 1.343 2.455 1.821 5.398 5.517 7.194-.532.271-1.077.526-1.622.766 1.635 1.446 2.06 3.088-.266 3.952-2.353.868-4.453 3.14-6.061 4.98-1.383 1.59-4.347 3.657-3.43 6.113.385 1.027.266 2.119.651 3.138.306.81 1.223.532 1.064 1.629-1.595-1.124-3.988-1.104-5.796-1.746-1.781-.633-2.645-1.994-4.48-2.483-1.794-.482-3.801-.764-5.57-.027-2.273.95-2.538.08-4.745-.186-1.701-.208-2.326.12-3.563 1.177-.545.454-1.236 1.035-1.98 1.098-1.263.106-.85-1.238-1.343-1.85-.531-.66-1.754-1.206-2.432-2.02-1.09-1.31-3.749 1.566-4.932 1.732.306-1.029-4.094-5.648-5.57-6.052-1.648-.452-2.459-1.134-4.067-.622-1.689.533-1.848-2.284-1.662-3.28-2.685.806-4.985-1.076-7.457-1.724 0 .815.425 1.485 1.05 2.01-1.037.694-2.925 2.591-4.094.97-.944-1.326-1.516-2.211-3.177-2.788.438-.38 2.087-1.26 1.728-2.043-.466-1.025-2.779-.59-3.364.026-.132-2.621-4.905-.741-5.915-2.257-.957-1.442 0-1.201-2.167-2.079-1.661-.676-.305 1.88-2.446 1.465 1.49-3.714 2.473-4.905-.372-6.84-1.236-.834-.266-1.771-1.223-2.627-1.262-1.115.133-1.637.346-2.826.133-.731-.16-2.05-.253-2.793-.133-.748-1.635-.561-1.342-1.81.2-.82 1.223-1.632.133-2.299a21.86 21.86 0 0 1-3.762-2.815" fill="#cbe6a3" fill-rule="evenodd" stroke="#000" stroke-width=".144"><title>Poland</title></path></svg>