<?xml version="1.0" encoding="UTF-8" standalone="no"?>
<!-- Created with Inkscape (http://www.inkscape.org/) -->

<svg
   xmlns:dc="http://purl.org/dc/elements/1.1/"
   xmlns:cc="http://creativecommons.org/ns#"
   xmlns:rdf="http://www.w3.org/1999/02/22-rdf-syntax-ns#"
   xmlns:svg="http://www.w3.org/2000/svg"
   xmlns="http://www.w3.org/2000/svg"
   xmlns:sodipodi="http://sodipodi.sourceforge.net/DTD/sodipodi-0.dtd"
   xmlns:inkscape="http://www.inkscape.org/namespaces/inkscape"
   width="88.379822mm"
   height="64.381355mm"
   viewBox="0 0 88.379822 64.381355"
   version="1.1"
   id="svg22812"
   inkscape:version="0.92.0 r15299"
   sodipodi:docname="poland.svg">
  <defs
     id="defs22806" />
  <sodipodi:namedview
     id="base"
     pagecolor="#ffffff"
     bordercolor="#666666"
     borderopacity="1.0"
     inkscape:pageopacity="0.0"
     inkscape:pageshadow="2"
     inkscape:zoom="0.35"
     inkscape:cx="688.44555"
     inkscape:cy="261.66555"
     inkscape:document-units="mm"
     inkscape:current-layer="layer1"
     showgrid="false"
     fit-margin-top="0"
     fit-margin-left="0"
     fit-margin-right="0"
     fit-margin-bottom="0"
     inkscape:window-width="1920"
     inkscape:window-height="1017"
     inkscape:window-x="1912"
     inkscape:window-y="-8"
     inkscape:window-maximized="1" />
  <metadata
     id="metadata22809">
    <rdf:RDF>
      <cc:Work
         rdf:about="">
        <dc:format>image/svg+xml</dc:format>
        <dc:type
           rdf:resource="http://purl.org/dc/dcmitype/StillImage" />
        <dc:title></dc:title>
      </cc:Work>
    </rdf:RDF>
  </metadata>
  <g
     inkscape:label="Layer 1"
     inkscape:groupmode="layer"
     id="layer1"
     transform="translate(199.16015,-153.68432)">
    <path
       inkscape:connector-curvature="0"
       id="pl"
       class="landxx pl eu"
       d="m -199.0879,175.25659 c 0,-2.28239 3.33652,-2.87924 2.087,-5.53917 -0.43866,-0.92119 -1.44894,-2.29436 -1.06343,-3.4083 0.17279,-0.51578 1.95405,0.14356 2.32624,0.14222 -0.18608,-0.75237 0,-1.42234 0.47856,-2.00989 -0.13292,0.15818 -0.1994,0.31771 -0.29245,0.47855 -0.58488,-0.49849 -1.24954,-0.78561 -2.00724,-0.86138 0.3988,1.01558 -1.16978,0.44 -1.24952,-0.47856 2.20661,0.82816 5.72924,-1.08069 7.73648,-1.88493 2.39272,-0.96639 8.24162,-0.7032 9.74372,-2.70379 1.84774,-2.44323 6.18122,-3.56915 9.09237,-4.33614 3.62898,-0.95977 8.62713,-1.73075 11.71109,0.88529 -0.83746,-0.57293 -1.82113,-1.15914 -2.87127,-0.76565 1.26283,1.18706 1.58186,3.4681 3.41628,3.99982 2.21993,0.6394 5.18423,-0.32034 7.31111,-0.93713 -0.93049,0.5636 -2.07369,0.71115 -2.99091,1.33062 -1.316,0.89062 1.47552,0.38017 1.98066,0.11963 3.41628,-1.74801 6.42048,-0.34296 10.48812,-0.40011 5.37034,-0.0798 12.93403,1.25086 18.2645,0.46525 3.98788,-0.5849 4.93168,1.28011 5.92864,4.92637 1.02357,3.74861 5.63622,8.15387 4.30693,12.27469 -0.66466,2.08567 -3.29665,1.33727 -4.39998,2.93642 -1.1166,1.60046 -2.07369,2.81279 0.62477,3.31259 4.32022,0.80024 0.71783,5.03138 2.00724,7.36429 1.3426,2.45521 1.82113,5.39826 5.51658,7.19413 -0.53172,0.27118 -1.07673,0.52641 -1.62173,0.76568 1.63502,1.44626 2.06039,3.08796 -0.26588,3.952 -2.35285,0.86803 -4.45314,3.14111 -6.06158,4.98086 -1.38247,1.58849 -4.34678,3.65687 -3.42958,6.1121 0.3855,1.02753 0.26587,2.11889 0.65135,3.13846 0.30574,0.80954 1.22297,0.53172 1.06344,1.62838 -1.59515,-1.12326 -3.98787,-1.10333 -5.79572,-1.74536 -1.78126,-0.63275 -2.6453,-1.99395 -4.47972,-2.48312 -1.79455,-0.48255 -3.80177,-0.76436 -5.56974,-0.0266 -2.27308,0.95045 -2.53896,0.0798 -4.74557,-0.18608 -1.7015,-0.20872 -2.32627,0.11963 -3.56252,1.17642 -0.54501,0.45461 -1.23623,1.03552 -1.98064,1.098 -1.26283,0.10632 -0.85075,-1.23759 -1.3426,-1.85039 -0.53171,-0.65933 -1.75465,-1.20565 -2.43259,-2.01919 -1.09004,-1.31068 -3.74863,1.5659 -4.9317,1.73207 0.30575,-1.02887 -4.09421,-5.64818 -5.56974,-6.05229 -1.64831,-0.45195 -2.45919,-1.13387 -4.06763,-0.62209 -1.68821,0.53303 -1.84772,-2.28375 -1.66161,-3.28071 -2.68517,0.80689 -4.98486,-1.07539 -7.45734,-1.72277 0,0.81487 0.42537,1.48484 1.05014,2.00989 -1.03685,0.6939 -2.92446,2.5908 -4.09424,0.96907 -0.94378,-1.32532 -1.51539,-2.21063 -3.17699,-2.78752 0.43866,-0.3802 2.08698,-1.26018 1.72807,-2.04314 -0.46524,-1.02489 -2.77822,-0.58887 -3.36312,0.0266 -0.13293,-2.62138 -4.90507,-0.74176 -5.91535,-2.25715 -0.95709,-1.44229 0,-1.20169 -2.16674,-2.07902 -1.66163,-0.67661 -0.30574,1.87962 -2.44591,1.46489 1.48881,-3.71405 2.47249,-4.9051 -0.37221,-6.84056 -1.23623,-0.83347 -0.26585,-1.77063 -1.22294,-2.62668 -1.26284,-1.11528 0.13292,-1.63636 0.34561,-2.82608 0.13292,-0.73111 -0.1595,-2.04976 -0.25256,-2.79285 -0.13292,-0.7484 -1.63502,-0.56095 -1.3426,-1.8105 0.1994,-0.81883 1.22297,-1.63103 0.13295,-2.29835 -1.3426,-0.80289 -2.61872,-1.74005 -3.76192,-2.81544"
       style="fill:#cbe6a3;fill-opacity:1;fill-rule:evenodd;stroke:#000000;stroke-width:0.14449541;stroke-miterlimit:4;stroke-dasharray:none;stroke-opacity:1">
      <title
         id="title1025">Poland</title>
    </path>
  </g>
</svg>
