<svg xmlns="http://www.w3.org/2000/svg" width="125.163" height="223.7" viewBox="0 0 33.116089 59.187344"><path d="M1.94 32.843c-.134-.32-.2-.637-.293-.957 3.084-.234 4.147-5.24 5.025-7.516.784-1.997 1.223-4.207 1.794-6.28.16-.562.691-.658 1.037-1.047.28-.326.306-2.446-.478-.184.345-2.45.957-3.912.425-6.385-.173-.81-1.41-5.064.24-5.1-2.394.728-.48-2.806.797-3.35 1.449-.618 3.483-.697 4.666-1.82-.147.8.212 1.262 1.05 1.15-.532.377-2.34 2.799-.638 2.754 1.395-.04 2.844-1.128 4.227-.898 1.821.302 2.512 1.025 4.347.053.598-1.959 3.35-.458 4.984-.622 1.901-.191.825 1.186.958 2.212.133.665 2.34 1.066 2.844 1.528 1.104 1.007-5.835 6.5-6.74 6.72.785-.19.44 4.927.453 5.303 0 .706.332 2.006 0 2.661-.452.87-1.755.521-2.047 1.64-.16.665 2.206 3.36.133 4.054-.811.263-.346 1.31-1.01 1.704-.984.574-3.457.356-4.494.066.346.774 1.077 1.23 1.675 1.786.771.713.133 1.496.585 2.412.532.945 2.605 2.437 2.247 3.554-.612 1.916-2.712 2.88-3.257 4.82-.465 1.704 1.143 4.875 3.257 4.179-.918 2.198-2.42 1.655-3.523 3.867-.545 1.092-1.595 1.822-2.1 2.943-.692 1.513.837 3.004 0 4.52-1.183 2.276-4.6 2.548-6.594 1.733-2.406-.98-5.61-1.085-7.75.719-.305-.982.413-2.301.811-3.152.638-1.362.545-3.105 1.17-4.301.731-1.413-.252-2.414-.173-3.825.133-2.077 1.396-3.488.133-5.568.692 2.19 1.516-.212 1.343-1.052-.425 1.016-3.602 1.34-4.692 1.723.545-.925.199-1.982.478-2.967.386.15.758.31 1.143.479.133-.737.652-.878 1.17-1.211.744-.486-.133-1.774-.133-2.426-.678.897-2.964 4.146-4.373 3.08-1.808-1.363 1.302-5.28 1.316-7.003" class="landxx pt eu" fill="#cbe6a3" fill-rule="evenodd" stroke="#000" stroke-width=".144"/></svg>