<?xml version="1.0" encoding="UTF-8" standalone="no"?>
<!-- Created with Inkscape (http://www.inkscape.org/) -->

<svg
   xmlns:dc="http://purl.org/dc/elements/1.1/"
   xmlns:cc="http://creativecommons.org/ns#"
   xmlns:rdf="http://www.w3.org/1999/02/22-rdf-syntax-ns#"
   xmlns:svg="http://www.w3.org/2000/svg"
   xmlns="http://www.w3.org/2000/svg"
   xmlns:sodipodi="http://sodipodi.sourceforge.net/DTD/sodipodi-0.dtd"
   xmlns:inkscape="http://www.inkscape.org/namespaces/inkscape"
   width="49.692402mm"
   height="20.744102mm"
   viewBox="0 0 49.692402 20.744102"
   version="1.1"
   id="svg23950"
   inkscape:version="0.92.0 r15299"
   sodipodi:docname="slovakia.svg">
  <defs
     id="defs23944" />
  <sodipodi:namedview
     id="base"
     pagecolor="#ffffff"
     bordercolor="#666666"
     borderopacity="1.0"
     inkscape:pageopacity="0.0"
     inkscape:pageshadow="2"
     inkscape:zoom="0.35"
     inkscape:cx="381.04976"
     inkscape:cy="-463.65569"
     inkscape:document-units="mm"
     inkscape:current-layer="layer1"
     showgrid="false"
     fit-margin-top="0"
     fit-margin-left="0"
     fit-margin-right="0"
     fit-margin-bottom="0"
     inkscape:window-width="1920"
     inkscape:window-height="1017"
     inkscape:window-x="1912"
     inkscape:window-y="-8"
     inkscape:window-maximized="1" />
  <metadata
     id="metadata23947">
    <rdf:RDF>
      <cc:Work
         rdf:about="">
        <dc:format>image/svg+xml</dc:format>
        <dc:type
           rdf:resource="http://purl.org/dc/dcmitype/StillImage" />
        <dc:title></dc:title>
      </cc:Work>
    </rdf:RDF>
  </metadata>
  <g
     inkscape:label="Layer 1"
     inkscape:groupmode="layer"
     id="layer1"
     transform="translate(117.82835,-5.4136628)">
    <path
       inkscape:connector-curvature="0"
       id="sk"
       class="landxx sk eu"
       d="m -117.75753,16.181682 c 1.03684,-2.698461 2.33954,-2.221242 4.82534,-2.247846 0.95709,0 4.98483,-1.999255 5.09118,-2.880576 0.41208,-3.384376 8.441015,-5.9791706 7.69661,-3.4867278 1.050145,-0.144899 3.230202,-2.4512343 4.360088,-2.0285129 1.781262,0.6579967 3.615684,2.5402718 3.203599,3.272726 1.528681,1.2136417 2.0604,0.4546076 3.788503,-0.8148467 0.598167,-0.4373501 2.233192,-0.9730602 3.097255,-0.6619886 3.176994,1.1378697 4.479697,-0.2020748 6.885731,-0.1754706 2.711751,0.02658 4.001164,0 6.287566,2.1866775 0.903909,0.8547411 3.203599,1.1112901 3.934714,1.3811281 0.584877,0.09305 0.478533,-0.01339 -0.226002,2.05777 -0.624747,1.81181 -2.326246,3.587741 -2.578828,5.174937 0,0.3137 0.638064,0.84941 -0.412059,0.761687 -3.416287,1.837075 -5.210839,-1.896904 -5.955244,-1.66562 -0.784299,0.243258 -0.903933,0.6394 -1.834423,0.459938 -1.103328,-0.214002 -2.352849,-0.636724 -3.469468,-0.748398 -2.645301,-0.264532 -3.243469,0.255235 -3.509341,2.779564 -0.172794,1.688208 -4.280325,2.706444 -5.689373,1.936773 -3.456156,-1.883614 -1.967345,-0.380174 -3.416286,0.86937 -1.262834,1.099314 -7.763062,0.428027 -4.679122,2.865947 -2.10027,0.256549 -4.22714,1.003632 -6.48694,0.845443 -0.77101,-0.05318 -2.15345,0.119634 -3.25678,-0.168826 -0.99696,-0.257887 -2.07369,-1.121926 -3.01749,-1.585856 -1.42234,-0.707164 -3.24347,-1.914185 -4.02777,-3.355119 -0.33232,-0.611482 0,-1.3785 -0.22598,-2.039149 -0.38548,-1.232262 -0.1595,-1.61509 -0.38548,-2.733024"
       style="fill:#cbe6a3;fill-opacity:1;fill-rule:evenodd;stroke:#000000;stroke-width:0.14449541;stroke-miterlimit:4;stroke-dasharray:none;stroke-opacity:1">
      <title
         id="title1991">Slovakia</title>
    </path>
  </g>
</svg>
