<svg xmlns="http://www.w3.org/2000/svg" width="110.344" height="62.203" viewBox="0 0 29.195271 16.457764"><path class="landxx si eu" d="M1.444 10.34c-.173-.822.612-1.826 1.157-2.287-.904-.2-1.689-.7-2.486-1.149 2.007-2.188 1.05-3.522 3.55-2.923.93.225 6.5 2.187 7.297 1.48 1.582-1.41 3.004-2.963 5.304-2.82 1.21.08 2.672.674 3.815-.026 1.17-.713 2.579-.777 3.775-.027-1.024-1.285.572-3.306 1.967-2.193 1.077.865 2.406 3.034 3.217 4.203-1.076-.164-4.586-1.062-2.698 1.148-1.064-.04-1.662-.743-2.1.488-.253.688-2.898 1.31-3.683 1.784-.598.368.519 2.184.466 2.968-.133 1.225-2.925 1.316-4.068 2.32.465.154.864.562 1.343.67-.851.174-.24 3.242-1.875 2.19-1.887-1.206-3.708-.652-5.503-2.381-.611 1.467-2.725 2.723-4.333 1.999-.665-.298-.652-.318-1.184.203-.797.791-2.472.12-3.376-.093 1.01-.886 3.07-1.221 2.3-2.584-.612-1.078-3.377-.795-2.008-2.583" fill="#cbe6a3" fill-rule="evenodd" stroke="#000" stroke-width=".144"><title>Slovenia</title></path></svg>