<svg xmlns="http://www.w3.org/2000/svg" width="187.814" height="78.403" viewBox="0 0 49.692402 20.744102"><path class="landxx sk eu" d="M.07 10.768C1.109 8.07 2.41 8.547 4.897 8.52c.957 0 4.985-2 5.091-2.88.412-3.385 8.441-5.98 7.697-3.487 1.05-.145 3.23-2.451 4.36-2.029 1.781.658 3.616 2.54 3.204 3.273 1.528 1.214 2.06.455 3.788-.815.598-.437 2.233-.973 3.097-.662 3.177 1.138 4.48-.202 6.886-.175 2.712.026 4.001 0 6.288 2.186.904.855 3.203 1.112 3.934 1.382.585.093.479-.014-.226 2.057-.624 1.812-2.326 3.588-2.578 5.175 0 .314.638.85-.412.762-3.417 1.837-5.211-1.897-5.956-1.666-.784.244-.904.64-1.834.46-1.103-.214-2.353-.636-3.47-.748-2.645-.265-3.243.255-3.509 2.78-.173 1.688-4.28 2.706-5.69 1.936-3.455-1.883-1.967-.38-3.416.87-1.262 1.099-7.763.428-4.679 2.866-2.1.256-4.227 1.003-6.487.845-.77-.053-2.153.12-3.256-.169-.997-.258-2.074-1.122-3.018-1.586-1.422-.707-3.243-1.914-4.028-3.355-.332-.611 0-1.378-.226-2.039-.385-1.232-.16-1.615-.385-2.733" fill="#cbe6a3" fill-rule="evenodd" stroke="#000" stroke-width=".144"><title>Slovakia</title></path></svg>