<svg xmlns="http://www.w3.org/2000/svg" width="374.442" height="534.249" viewBox="0 0 99.071037 141.35338"><g class="landxx coastxx se eu" transform="matrix(1.3293 0 0 1.3293 -1800.17 -236.407)" fill="#cbe6a3" fill-rule="evenodd" stroke="#000" stroke-width=".109"><title>Sweden</title><path d="M1357.47 260.93l-1.44.72c.41.562 2.04.83 2.36-.01.2-.525-.45-1.396-.92-.706M1357.11 262.51c-.15.24-.29.479-.43.72.6.09 1.12-.245 1.37-.792-.32.02-.63.05-.94.07M1387.35 275.54c.12.448.16.904.14 1.367 1.21-.248 1.72-2.531 1.99-3.501.52-1.834 1.41-3.453 2.12-5.21-1.19-.03-1.53 2.157-2 2.916-.86 1.374-2.65 2.526-2.25 4.428M1397.43 254.73l-.72.36c.27-.05.51-.173.72-.36M1399.45 270.93c-.3-.818 2.48-3.085 3.09-3.528-2.74-.263 3.29-4.536-1.16-3.611-1.25.261-2.41 1.313-3.24 2.255-.73.844-.41 3.953.87 4.165a5.81 5.81 0 0 0-1 1.512c.63.131 1.15-.257 1.44-.793M1398.08 243.86c.31.343.69.487 1.15.432-.33-.528-.8-.968-1.37-1.223.1.263.14.527.22.791M1399.01 254.16c-.17.24-.33.48-.5.721.49-.175.51-.28.5-.721M1399.74 251.21c.24-.145.47-.288.71-.433-.59-.233-.98.02-1 .648.1-.07.19-.142.29-.215"/><path d="M1403.33 263.73c.54.212 1.03.116 1.45-.287-.53-.639-1.17-.417-1.45.287M1418.31 204.05c-.24-.02-.48-.05-.72-.07.46.381.36.235.72.07"/><path class="landxx se eu" d="M1354.59 254.16c1.06-.185 1.39 1.806 2.15 1.601 1.2-.326 1.52-3.081 1.11-3.972-.72-1.588.96-1.944.72-3.296-.35-1.94 3.14-.659 3.6-2.674.33-1.482.81-2.509-.17-3.849-.54-.74-1.89-2.59-.4-3.226 1.5-.634 1.97.03 2.51-2.014.37-1.383-1.22-1.636-2.15-1.981-1.7-.641-2.16-1.924-1.73-3.503.52-1.891.23-2.883-.42-4.625-.25-.685-.66-1.759-.27-2.449.31-.559.71-.45.52-1.008-.24-.688-.77-1.09-.89-1.854-.14-.924.72-1.399.69-2.106-.1-1.301 2.11-2.434 2.73-2.939 1.84-1.49 3.57-1.281 5.48-1.007 1.27.182 3.52.244 3.18-1.524-.35-1.755-2.21-1.932-2.98-2.486.69-.851 1.47-1.622 2.25-2.396.71-.708 1.63-2.525 2.44-2.964 1.03-.554.35-5.595.13-6.376 1.57.06 3.66-.06 5.03-.93.65-.415 0-1.031 0-1.501-.1-.514.9-.701 1.18-1.001 1.28-1.36 2.57-2.272 3.99-3.436 1.17-.953-1.07-2.333-1.58-2.78 2.31-1.06 2.96-3.275 5.19-4.32 1.43-.67 2.32-.486 3.78-.157.74.166 2.38-.361 2.28-1.34-.1-.653-.65-1.587-.37-2.245.35-.831 2.97.185 3.57.07 1.5-.291 5.93 1.722 8.16.215a7.97 7.97 0 0 0-1.51-.504c1.23-.756 2.93-2.439.79-3.313 3.27-1.465 6.91 1.786 9.72 3.024 1.91.846 4.3.866 6.19 1.716.62.278 3.94 2.28 4.3 3.004.3.623-.6.601-.74.972-.1.14.1.324.14 2.045 0 .429.83.534 1.21.635 1.45.392.41 1.045-.1 1.679-.55.697 1.18 1.784 1.6 2.121.95.755.67 2.238-.12 3.12-1.63 1.804 2.38 3.596 2.89 5.326-1.61.22-4.41 1.089-5.79-.172.23.227.44.467.64.721-1.16 0-2.11-.25-3.09-.864-.19 1.971-1.98-.9-2.38.495-.19.663.62 1.335.72 1.953-.73-.02-1.42-.282-2.08-.576.25.157.52.301.79.432-.52.358-1.07.43-1.66.217 2.33.688-1.78 1.021-2.23 1.08.48.813 1.66 1.132.65 2.447-.35.455-2.28 1.807-2.88 1.512.4.459.91.747 1.51.864-2.05.431 1.69 1.719 2.09 2.376-1.41.679-3.39 1.465-3.95 3.079-.33.927-2.88 2.003-2.68 2.825a8.367 8.367 0 0 0-.5-.792c-.37.935-1.66 1.245-2.53 1.403-.93.166-1.22 2.046-2.08.396.23 1.214 0 .559-.87.588-.47.02-.86 1.102-1.28 1.394-1.52 1.055-3.46.922-5.05 2.123.5.06 1 .09 1.51.07 0 .804-.64 1.336-1.4.958-.41-.207-.64.927-1.4.555 1.83-.189-.42-.362-.72-.288.17-.815-.87-1.17-.94-1.944-.26 1.155 1.07 1.821 1.24 2.875.26 1.627-1.96 2.74-3.04 1.445-.56 1.288.17 2.215 1.51 2.304-.88.118-1.34 1.522-1.51 2.232-.26 1.089 1.15 1.647.79 2.592-.58-.584-1.39-1.02-2.23-.792 2.73.617-1.55.399.79.864-2.01-.188-.63.238-.1.432-2.1-.379 1.23.875-.79 1.08 1.03.358.45 1.744.52 2.509.1 1.127.8 1.754 1.35 2.675-.26.129-.53.249-.79.36.37.219 2.11.324 2.25.637.61 1.348 1.51.351 2.5.155-.55 1.981 2.89 1.699 3.67 2.808-1.82.363.64 1.037 1.22 1.152.42.08 2.63 2.989.87 1.584.5.418.92.935 1.22 1.512-1.11.04-1.94.647-2.79 1.285-.75.566-2.93.895-1.53 1.379-.55.146-1.03.03-1.44-.36-.12.885 2.63 1.412 2.31.07.5.276 1.53 1.954.1 1.152 1.9.654-.79-.03-1.15-.143.11.592.56 1.033 1.15 1.15-.6.318-1.28.365-1.9.596-.87.321-.97 1.19-1.68 1.632-.48.296-.82-1.62-1.6-1.579.46.371.65.851.57 1.439l-.72-.504c.22.666.22 1.152-.72.721.13.236.25.476.36.72-.94.521-1.93.462-2.95.359.25.181.49.373.72.576-1.6.85-3.62-.678-5.11.433 1.21-.301 2.95-.166 3.6 1.08-.97.531-1.95.05-2.95 0 1.52.53 4.15 2.971 1.51 3.959.64-.149.87.188.72.793a2.15 2.15 0 0 0-1.59-.217c.34.441 2.14 1.448.9 1.942-1.09.438.95 1.086.32 1.912-1.44 1.892-.1 3.864-1.66 5.837-1.01 1.272-1.53 4.954-3.84 4.262-1.38-.414-2.82.234-4.22.144-.78-.05-2.78-.22-1.72 1.096-1.36.53-2.54-.292-3.33 1.463-.46 1.003.63 1.78.73 2.739.18 1.803-2.3.61-3.03.675-2.3.207-4.17.286-6.47.163.74-.03 1.26-2.317.57-3.05-.77-.809-2.66-3.002-2.58-4.15 2.46.862 1.03 0 .86-1.368 3.35-.554.1-1.666-.75-2.81-.79-1.102-1.92-2.001-2.42-3.289-.32-.825-.68-1.907-1.8-1.534 0-.551.1-1.123 0-1.67-.21-.945-1.77-1.074-.34-1.57-1.38.492 0-3.791.1-4.319-.92-.193-1.39.838-2.31.72.41-.485.79-.989 1.15-1.512-1.34-.136-.27.765-1.51 1.151-.13-.676-.61-.828-1.15-.432.57-1.354-1.52-5.127-.29-5.972"/><path d="M1391.09 227.52c.17.375.41.231.15.792-.1-.264-.1-.529-.15-.792"/></g></svg>