<svg xmlns="http://www.w3.org/2000/svg" width="692.332" height="271.798" viewBox="0 0 183.17946 71.913254"><g class="landxx tr" transform="matrix(1.3293 0 0 1.3293 -1937.16 -525.565)" fill="#cbe6a3" fill-rule="evenodd" stroke="#000" stroke-width=".109"><title>Turkey</title><path d="M1459.24 407.052c.75-.356 1.78-1.377 2-2.188.35-1.264-.62-2.213 1.14-3.004.95-.433.6-.439.36-1.446-.14-.591-.37-1.182-1.01-1.39-2.3-.751.54-1.113.41-2.033 0-.256 2.45-.967 2.86-1.099 1.32-.431 2.1-.875 3.06.215.9 1.017 1.4.365 2.54.252.53-.05 1.15 0 1.58.359.73.606-.36.816.15 1.481 1.93 2.481 4.18 3.559 7.24 4.477 1.18.354.2 2.077-.53 2.348-1.4.518-3.43-.838-4.86-.921-.7-.04-1.13.45-1.71.748-.72.366-1.47-.269-2.29-.02-.99.298-1.4 1.368-2.08 2.113-1.12 1.21-2.61 1.552-3.89 2.486-1.09.792-2.14 3.002-3.31 3.457-.36-1.402.24-2.86 1.62-3.351.24-.09 2.89-.889 2.02-1.607-1.42-1.167-4.61 1.96-5.3-.874"/><path d="M1460.18 417.924c.1-.745.19-4.432.74-4.643 1.37-.521 1.81-2.501 3.22-3.206.75-.375 1.72.287 2.42-.202.87-.612 1.25-.146 2.02.314 1.1.661 4.66.38 2.4-.976.72-.292 1.49-.254 2.23-.07-.37.132-.54.366-.54.701.43.59 2.57.242 3.11.192 1.68-.153 4.1.825 5.5-.389-.67-.655-1.54-.08-2.24-.647.9-2.304 5.05-1.436 6.92-1.872-1.62-.795-3.92-.127-5.28-1.517-1.52-1.56 0-2.854 1.64-2.7 1.79.169 3.58 1.002 5.4.605 2.43-.529 4.4.796 6.88.551 1.14-.113 1.31-.7 1.74-1.594.46-.985 2.21-1.416 3.1-1.937 2.57-1.504 4.61-2.826 7.51-3.611 3.03-.819 5.35-.382 8.42-.382 1.24 0 2.55.51 3.78.144.57-.17.75-.847 1.3-1.008.56-.163 1.04.167 1.58.216-.92 1.107.65 2.612 1.66 2.917.76.231 1.54.422 2.34.317.88-.114 1.62-1.099 1.62.15.2-1.856 1.39.402 1.57.933.23.702 2.14 3.077 2.9 2.27.99-1.066 2.05-.831 3.12.02 1.3 1.041 2.9 1.229 4.35 1.956.82.412.96-1.279 2.08-.05.91.992 2.66.968 3.9 1.092 1.72.173 3.48-1.017 5.21-1.187 1.48-.146 2.29-.34 3.7.166 1.98.709 3.45 1.193 5.48.239 2.45-1.145 4.68-2.45 6.77-4.131.84-.673 1.61.466 2.46.484.52.01.47-.697 1.08-.576.39.08.78.167 1.17.247.57.117 2.19.755 2.54-.01.42-.938 2.46-1.72 1.83-.308.64-.121 1.2.292 1.66.676.33.3.68.583 1.04.847.57.07.71.34.39.806.27.806 1.36.02 1.8.68.29.429.48 1.701.91 2.047 1.36 1.101 2.47 2.201 1.69 3.326-.77 1.111 1.31 2.761.22 3.498 1.75.885 2.65.683 4.48.751 1.57.06 3.78 2.142 4.37 3.497-.86-.704-2.16-1.725-2.52 0-.11.532 0 1.091-.13 1.621-.22.686-2.03.323-2.6.539.42.498 1.26 1.782 1.42 2.407.27 1.043.73 1.586 1.1 2.552.55 1.421 0 3.498 1.87 4.113-.62.581-.98 1.746-1.17 2.542-.39 1.598 1.27 1.364 2.11 2.138.84.777.67 1.802.94 2.818.14.508 1.03.733 1.39 1.046.39.346 0 1.167.26 1.607-1.68-1.183-2.37 1.757-3.34 1.439-1.24-.412-.22-2.052-1.13-2.663-.46-.305-1.22-.277-1.63.1-.75.672-1.84.515-2.72.239-1.43-.45-2.54-.923-4.05-.901-1.08.02-1.75-.283-2.31.662-.68 1.144-2.04 2.172-2.51.466-.41-1.487-2.28.302-3.1.568-2.12.684-3.89.664-6.03.381-3.85-.508-7.17 3.366-11.07 3.637-1.55.108-4.36.492-5.67-.496-1.42-1.078-2.31-1.697-4.07-.843-1.88.912-5.97 3.063-7.59 1.059-.81-1.005-2.53-1.354-2.78.228-.24 1.556.3 2.645.97 3.977-.71.04-1.46.241-2.16.07-.12.616.29 1.267.1 1.872-.26.718-1.21.869-1.44 1.656-.54-.363-1.09-.773-1.73-.936.62-.807-.24-1.856-.72-2.46-.91-1.126.1-1.789 1.01-2.604.96-.837 1.59-1.427.65-2.694-.38-.506-1.16-1.131-1.7-.438-.74.958-1.49.807-2.41 1.5 1.53-.156 0 1.387-1.18 1.179-1.41-.258-2.67-1.088-3.93-1.721-3.01-1.507-4.57 2.915-5.98 4.718-.22-.241-.43-.481-.65-.72-.54.569-.9 1.581-1.78 1.248-.77-.289-2.93.242-3.65.602-1.3.654-2.84.556-4.11 0-1.96-.865-2.66-3.036-4.53-3.948-2.05-1.002-4.11-2.147-6.37-2.548-1.19-.21-3.61-.69-3.61 1.197 0 1.083.2 3.052-.59 3.917-.43.471-1.01-.402-1.42-.458-1.04-.143-2.12 1.093-3.15 1.266-1.19.2-3-.568-3.98-1.197-.75-.478-.78-2.041-1.8-2.089.79-1.12-1.06-2.336-1.29-.863-.77-.674-2.72-.927-2.96-2.089-.18.84-2.21 2.224-2.88 2.736.24-.503.1-.814-.5-.936.57-.122.93-.574.93-1.152-.73.613-4.17 1.347-5.11 1.08.75-.916 2.15-.971 3.22-.943 1.1.03.98.317 1.43-.527.31-.587.98-.853 1.4-1.338-1.33-.593-5.89-.67-6.98.432-1.65-1.933 1.48-.912 1.72-1.411.19-.415.17-.995-.1-1.389-.55-.923-1.16.358-.86-1.088-1.59 2.029-1.47-2.153-2.95-2.088 1.03-.557 2.2-1.094 1.32-2.486-.64-1.004-2.44-.484-2.88-1.23-.45-.772-.91-1.853-1.59-.502-.3.599-2.43-1.012-2.47-1.542 2.15.514.29-1.759.37-2.645.1-.733 1.22-.198 1.44.162.45.746.3 1.969 1 2.555-.15-1.596 2.33.401 3.02-1.224-1.43-.177-2.01-.872-2.88-1.944.75-.414 1.14-1.321 2.02-1.512-.39-1.168-1.6.04-1.49-1.278.11-1.314-.58-1.483-1.54-2.322.64-.733 1.37-1.377 1.95-2.16-2.05-1.045-3.99 1.11-6.05.435M1457.45 412.596c-.58-.949 1.27-1.967 1.63-.979.21.574-1.28.955-1.63.979"/></g></svg>