<svg xmlns="http://www.w3.org/2000/svg" width="602.922" height="337.238" viewBox="0 0 159.52306 89.227486"><path class="landxx ua" d="M.108 43.9c-.306-2.02 1.41-3.412 2.233-5.09.466-.94.187-2.226.705-2.58.505-.354 1.874.106 3.097.971.133-.747-.372-.825-.93-1.215-.811-.56-.346-2.076-.692-2.923-1.13-2.746 1.157-4.583 2.965-6.487 1.502-1.57 3.044-3.416 4.918-4.557 2.074-1.268 4.573-2.153 1.781-4.631.545-.24 1.09-.495 1.622-.766-2.34-.534-5.636-5.577-5.477-7.89.133-1.99 2.858.054 3.962-.524 1.023-.539 1.94-1.332 2.579-2.281.81-1.197 2.831-.883 4.027-.888 2.712-.014 5.45-.246 8.149-.35 2.406-.093 4.347.775 6.58 1.34 1.103.277 4.6-.08 5.384.791.824.912 1.608 1.884 2.977 1.428 1.183-.392 2.06.736 3.11 1.003.174-1.596.798-.699 2.114-.848.984-.106 1.848-.16 2.685.459.612.439 1.49-.379 2.194-.08.678.28.704 1.392 1.435 1.721-.252-1.936 2.087-2.572 3.51-1.815 1.502.795 1.422 3.026 3.642 1.425.638-.462 1.143-.483 1.874-.12.944.47 2.194-.518 3.244-.29.664.144 3.522 3.545 3.935 1.764.491-2.198-1.396-2.91-.147-5.326.891-1.718 2.473-3.786 4.56-2.752.332.164 1.635-.501 1.94-.578.984-.242 2.367-.217 3.337.013 1.914.466 3.895 1.016 4.294-2.565 4.931.692 3.802.893 7.085-.18 1.555-.106 3.15 1.054 4.825.107.944-.54 2.646 1.318 3.031 2.25 1.41 3.375 3.07 2.39 3.961 4.233-.704.44-2.087.448-2.632 1.032-.319.343 2.858 3.522 1.436 4.365 1.183.401 4.36 1.577 5.836.777 1.674-.91 2.671 1.77 4.466 1.674 0 .51-.81.761 2.433 6.745 1.488 1.546 2.844.053 3.881-.054 1.835-.178 3.63 1.762 5.783 2.43 1.382 0 3.283-1.659 6.074-2.38 1.596-.414 2.752 1.141 3.257 2.227.824 1.767 3.377 2.149 3.922 3.728 2.233-1.286 1.223-2.175 3.934-.758 1.396.734 5.158 2.31 6.314.95 1.01 2 2.593.803 3.736 2.155.558.668 1.502 1.097 2.34 1.308 1.488.371 1.9-.792 2.99-.396-1.342 1.278 1.622 4.094-.744 5.844-.678.498-2.313.279-1.715 1.552.798 1.66 2.539-.366 2.579 1.723-1.13-.34-3.044.703-2.406 2.138.226.49 3.842 1.73 1.967 3.096.399.321.838.417 1.343.287.24.793-.691 3.885-1.037 4.457-1.103 1.796-3.855.296-5.61.646-1.023.205-1.9-.472-2.898.066-.93.503-.97 1.75-2.286 2.196-3.908 2.279-2.22 3.92-1.608 3.958-.731.643 0 1.707-.864 2.22-1.09.627-3.842-.014-5.145.222-1.29.236-1.462 1.62-2.791 1.721-1.569.12-3.43.943-3.829 2.632-.717-1.21-2.38-1.115-3.456-.5-1.821 1.036-3.097.521-5.011 1.096-3.204.962-3.722 5.471-6.952 6.294.132-.556 4.665-4.028 1.063-4.499 1.263 1.816-1.157 2.162-2.247 2.892-.385.264.678 3.625.625 3.95-.266-.925-1.914-2.22-2.007-1.855-.133-.286 1.223-.979-.452-1.66-1.25 5.422-3.057-.286-1.196 1.108.186-1.044.133-2.41.133-1.078.133.12-.506.266-.891.21-.518-.08-.944-.928-1.117.586.186.093-1.648-2.11-1.621-1.943.133.91.957 1.562-4.28.643.305.533 1.515 1.51 2.804 2.314.133-.587.758-1.14 1.569.708-.32-3.043 3.881 1.752 3.974-.067.133.145.705 1.049-.545 2.083l1.782-1.069c-.585.979 3.27 2.654 3.416 2.841 1.754 2.221-1.183 2.69 3.483 4.024-.173-.903-4.24-4.997-3.443-4.247.638.606 2.22 2.09 2.91 2.467.679.376 1.33.657 1.915.795.572.138 1.09.135 1.502-.053.412-.188.731-.56.89-1.16 1.038 1.2 1.702.837 2.885.22 1.582-.823 3.51-.04 4.772 1.025-1.515.203-1.488.938-1.475 2.201 0 1.549-1.37 1.477-2.566 1.612-1.289.147-1.994.094-3.177-.56-.704-.393-1.688-1.008-2.552-.67-.85.337-.385 1.23-.904 1.44-1.276.508-2.02 1.78-3.376 1.97-1.835.261-3.456.08-4.879 1.517-2.459 2.474-7.018 5.444-9.69 1.006 1.927.435 2.406-6.038-.559-6.474-1.635-.242-2.485-.834-3.868-1.66-1.302-.77-2.499-.223-3.855-.393-2.073-.262 2.553-3.342 3.257-3.628 1.422-.562 6.3-1.349 6.74-3.062-1.21.04-1.41-1.171-1.436-2.106-1.396.79-1.05.985-2.845.093-1.475-.727-3.456.053-5.078.08-1.754.027-2.858.22-4.466-.669-1.383-.764-2.951-2.012-4.64-1.52 4.999-1.97-1.262-1.217-2.485-2.966 3.124 1.533 7.311 1.102 9.943-.861-1.781.507-4.187 1.383-5.782-.188-1.183-1.182-.28-3.191-1.582-4.406 1.023 1.329.691 2.593.718 4.071 0 1.131-2.58.412-3.204.81-.346-.657-.306-1.295.133-1.914-.771.163-.917 1.204-1.303 1.749-.545.766-2.113.04-2.924.18-3.47.6-2.938 3.894-4.959 6.013-.186-1.006-2.1-4.041-3.442-3.063.491 1.407 2.685 1.528 3.097 2.94.492 1.672-4.2 4.748-5.397 5.388 1.09-.724 2.446-1.49 2.778-2.87-1.263.092-3.576 4.29-3.842 1.339-.598.66-1.435 2.789.479 1.913-.24.31-.452.629-.665.958 1.356.196 2.1 2.775.572 3.254-.425-4.09-3.815-2.154-5.69-1.692-2.405.593-2.95 2.353-5.662.532-.412-.278-3.43-1.905-1.157-2.294 2.34-.402 1.609-1.723 2.725-3.124 1.237-1.545 2.672-2.76 2.34-5.054-.28-2.013-.585-2.49 1.9-3.394.214.581.426 1.154.665 1.723 1.436-2.946 5.384 1.93 7.524-.335-.93-.286-1.302-1.122-2.18-1.486 2.513-1.252-1.874-5.327-3.974-5.61.545-.852.558-4.117-.638-2.556-.36.47-1.622-3.208-1.875-3.59-.651-.975-.85-2.02-1.542-3.08-1.768-2.668-.97.556-2.884-1.642-.798-.92-2.925-2.46-3.35-.525-.293-1.718-1.422.436-1.741-1.22-1.955.917-4.148-2.868-5.836-3.402-1.343-.426-2.366 1.897-6.314 1.03-.771-.17-1.675.027-1.41 1.075-.451.57-1.754.443-2.458.612-.692.162-1.609.482-1.875 1.239-.611 1.746-1.528 1.6-3.323 1.761-2.22.2-4.626-.226-6.261 1.604-2.393 2.698-3.695-.607-5.982-1.345-1.077-.352-2.313.027-3.403.16-1.369.162-2.06-.287-3.336-.507-1.303-.222-2.566.22-3.736-.593-1.94-1.355-2.206.35-3.974.803 0-2.055-2.007-1.247-3.031-2.378-.731-.797-1.143-.45-1.848-.97-.797-.589-.97-1.464-2.113-1.724" fill="#cbe6a3" fill-rule="evenodd" stroke="#000" stroke-width=".144"><title>Ukraine</title></path></svg>