<svg xmlns="http://www.w3.org/2000/svg" width="314.36" height="384.881" viewBox="0 0 83.174545 101.83309"><path d="M.061 53.02c.811-1.289 2.632-1.264 3.829-2.01a11.589 11.589 0 0 1-1.25-1.053c2.46.767 3.403-1.98 4.573-3.324 1.116-1.277 3.43.403 3.762-1.94 2.166 1.003 4.878-1.5 7.045-.001.877.606 1.396 2.023 1.808 2.936-.133-.165 1.608 1.795 1.568 1.446 0 .37-1.847 1.295-2.1 1.553.665-.067 2.645-.915 3.084-.04.452.888 1.303 2.696-.213 3.103.24-.942-.133-2.196-1.342-1.915.744.44.651 1.214.186 1.819.385-.205.718-.177.997.08.133.655-1.396 1.503-1.901 1.556-1.303.137-1.303 2.312-2.885 1.843-1.329-.395-1.568-.81-2.711-.067-.958.633-2.54-.013-2.114-1.31-.532.026-4.187-4.05-4.44-1.433-.425 4.624-6.101.25-7.896-1.249" class="landxx gb eu" fill="#cbe6a3" fill-rule="evenodd" stroke="#000" stroke-width=".144"/><path d="M11.068 24.108c-1.263-.451-.532-1.736.571-2.105-1.621-3.162-3.243 2.712-.571 2.105M11.546 19.802c0-.292 1.768-1.467.984-1.7-.877-.264-2.978-.429-2.898 1.03a2.82 2.82 0 0 1 1.914.67" fill="#cbe6a3" fill-rule="evenodd" stroke="#000" stroke-width=".144"/><path d="M11.068 20.865c.266-1.024 0-1.183-.957-.479l.957.479M13.075 31.194a5.926 5.926 0 0 1 1.436-.959c-.771-.173-1.277.204-1.436.959M16.61 14.644c1.556 2.157 3.324-1.884 1.543-1.246.93-.12 4.028-1.414 2.007-1.817 1.781-.81 1.436-3.175-.439-1.877-.93.638-2.02.787-2.977 1.356-1.024.618-.133 1.695-1.462 2.148 0-.352 0-.703-.133-1.053-.731.141-1.37.462-1.915.958.811.578 1.29 1.208-.132 1.53.69.148 1.329.436 1.914.861-.665.307-1.303.658-1.914 1.053 1.05 1.748 3.203-.762 3.442-1.913M15.175 29.851a3.237 3.237 0 0 0 1.728-1.341c-.73.19-1.369.678-1.728 1.341M17.289 40.578c1.582-.703 2.938-2.235.784-3.438-1.382-.771-2.14 1.547-2.605 2.386a10.61 10.61 0 0 1 2.007-.957c.133.688.133 1.358-.186 2.01M21.21 24.973c1.104-.305 2.858-1.289 2.672-2.682-4.2 1.483-2.42-3.595-4.679-4.402a5.563 5.563 0 0 0-.386 1.913c-1.9-.446-1.648.759-3.07.478-.24 1.924 2.1.73 2.977 1.627-2.18.157 0 1.52.878 1.512.917 0 1.954-.475 2.844-.08-.784.187-1.302.807-1.236 1.63" fill="#cbe6a3" fill-rule="evenodd" stroke="#000" stroke-width=".144"/><path d="M20.16 101.74c1.17.265 2.845-2.017 3.749-2.735 1.648-1.321 4.891-.225 6.008-2.243 0 1.238 2.473 2.436 3.483 2.514 1.9.148 3.137-3.6 3.124-5.003.598 1.116 2.685 0 3.443-.28 2.02-.712 4.08.214 5.556 1.62.133-1.235 1.382-.862 2.207-.712.904.165 3.482-.632 1.05-1.106 1.103 0 8.069-.04 6.115-1.914 1.17 1.19 2.645.26 4.027.576.36.066.519.27.479.6 0 .568 2.313-.053 2.3-.053 2.033-.257 3.974-.35 5.968.238 1.675.495 4.028-.792 5.676-1.224 1.45-.381 1.768-.86 2.738-1.752 1.05-.96 3.084-.747 3.71-2.193.69-1.605-6.793-1.827-7.578-1.934a8.531 8.531 0 0 0 1.542-.576c-.97-.225-1.994-.463-2.871.193.864-.921 2.034-.555 3.124-.765 1.82-.354 1.754-2.196-.133-2.394.704.147 1.156-.442 1.715-.715 1.103-.54 1.94.564 3.163-.53-.305-.657-.81-1.04-1.528-1.149.757-.142 2.592-.026.571-.764 2.792.837 3.19-.968 4.374-2.955 1.555-2.576 1.276-5.066-1.715-6.547-1.728-.859-5.69-2.058-7.391-.589-.598.504-.798 1.595-1.582 1.859-1.196.4-1.914-1.522-3.164-1.245 1.556-2.346 4.76-2.492 2.074-5.92-2.22-2.838-4.666-2.672-7.803-3.078 2.087-.902 5.783-.12 7.457 1.246-.385-1.336-4.652-5-1.621-5.84-1.968-.502-2.34-2.477-3.643-3.732-1.222-1.173-3.097-1.135-4.625-1.375-2.566-.401-3.27-6.512-3.43-8.494-.266-3.298-4.4-6.156-7.564-6.735-.824-.152-1.528-1.307-2.432-.496-.572.523-1.117.775-1.901.763-2.06-.027-4.919.093-6.46-1.56 3.203 2.381 5.383-.96 8.613-.96 1.835 0 1.183-1.418.213-2.18-1.37-1.076-2.752.635-4.24.458 3.775-.735 6.859-2.492 9.291-5.487 1.09-1.347 1.423-2.938 2.353-4.317.638-.958 2.406-1.581 1.914-2.998-.904-2.558-5.955-1.581-8.055-1.347-2.18.243-4.28-.615-6.407.013-1.782.536-3.816 1.649-5.597 1.974.266-.909 1.316-.99 1.622-1.914-1.05-.093-1.994.4-2.964.67 1.156-1.188 4.067-.363 4.599-2.2-1.382-.323-3.03 0-4.214-.958 2.273.869 1.835.297 3.323-.7 1.223-.822 2.699-1.17 3.948-1.962.506-.325 7.006-4.566 3.616-5.248-2.06-.416-4.626.579-6.646.97-1.117.22-2.313.495-3.457.402-.292-.026-.678-.08-.864-.323-.319-.397-1.661.608-2.126.832 1.023-1.664.132-.515-.612-.96-.292-.179-.798-.824-1.21-.728-.837.194-.518 2.63-1.714 3.22.372.2 1.143.472 1.143.861-2.898-1.33-2.02 1.832-3.443 2.297.731.303 1.33.89 1.622 1.628-.93.363-4.267-.88-4.015 1.052-.292-1.775-2.446 1.234-.133 2.681-.638-.08-1.276-.12-1.914-.093-.146 1.853 1.383 1.862 2.778 1.723a5.54 5.54 0 0 0-1.914 1.053c.85-.317 1.795-.139 2.3.671-1.25-1.446-2.925 1.337-.133 1.147-.293.106-4.879.306-1.715 1.436-1.37-1.224-2.911 1.067-1.05 1.435-.771-.106-1.223.28-1.25 1.053-1.036-.494-2.379-.368-3.256.383 1.515.354 3.615-.66 4.971.287-1.077-.494-1.781.782-2.871.287.904 3.943 5.796-.838 7.377-1.722-.624.692-.996 1.789.572 1.148-.77.156-4.785 1.983-2.193 1.723-.32.315-.652.635-.97.957a6.694 6.694 0 0 0 2.02-.192c-.399.215-2.207.289-2.313.433-.332.406-.824.753-1.263 1.031-.505.326-.146 1.254-.213 1.77 0 .56-2.685 4.213-.425 1.552-1.13.787-.93 3.763.665 2.393-1.755.989-1.808 2.898-2.951 4.346-.811 1.015 1.714 1.766 1.967-.26.186-1.45 2.114-3.13 1.622-4.513-.691-1.966 2.26-3.17 3.482-3.879-.81.71-2.964 1.79-2.738 3.153.16.645.532.806 1.117.483.319.615.73 1.159 1.236 1.628.226-.815-.253-1.627-.957-2.01.758-1.018 1.156-.345 1.342.477 1.343-1.192.413-3.476 2.008-3.158-.665.557-.758 1.195-.28 1.914-.199-1.809.904.107 2.008.574-.745-.04-2.46-.677-2.778.422-.612 2.103.797 2.066 1.462 3.552 1.116 2.532-4.586 4.006-3.47 7.033-.133-.214-1.382-1.372-1.555-.714-.332 1.262 1.715 2.987 2.42 3.777-.745-2.203.132-2.639 2.193-1.704 1.701.772 2.034.716 2.1-1.358 1.994 1.968 3.23 1.18 5.463.532.692-.2 1.768-.424 1.622-1.393 1.529.187 3.07.08 4.6.191-1.715 1.144-3.789 1.292-4.786 3.352-.625 1.302.558 5.66 2.486 4.594-.28.719-.146 1.357.385 1.912a9.937 9.937 0 0 0 1.05-1.721c.28 1.178 1.29.596 1.915.191-.625.854-.612 1.943-1.343 2.872-.412.54-2.114 2.743.2 2.392-2.327 1.16-1.596 5.14 1.236 4.212-1.29.943-5.211-2.664-3.244 1.244-2.645-2.257-6.42.08-9.292 0 1.064-1.304-2.273-2.522-3.123-1.805-1.715 1.449 1.076 3.477 2.738 1.998-1.555 1.75-3.775 2.774-5.264 4.594 1.94.151 3.709-2.042 5.65-1.053-.48.799 0 1.584.677 2.01-1.143.529-.837 1.999.479 1.818-1.077.154-1.157 1.185-1.569 1.978-.545 1.041-1.914 1.663-2.95 2.049-2.314.856-5.65 1.442-7.166 3.343.825.33 1.13 1.015.479 1.723 1.037.218 2.074.093 2.778-.766-.492.922-1.502 1.216-2.486 1.148 1.303 1.649 5.278-.227 6.607-1.148 0 1.386 1.529 1.436 2.486 1.148-.399.59-.944.749-1.635.479.266 1.663 1.502.852 2.486.392 1.515-.706 2.352 1.624 3.668 2.203 2.42 1.053 2.819-1.13 4.786-1.416 2.153-.312 3.616-1.433 5.33-2.712-1.635 1.968-3.948 3.327-5.742 5.169-.465.48.226 1.058-.771 1.185-1.117.144-2.26.213-3.377-.013-1.581-.327-4.24-.876-5.755.04-.918.548-.97 1.634-1.901 2.19-1.276.766-1.529-1.137-1.981 1.132-.186.912-2.433 4.363-3.59 4.1-.717-.163-.903-.134-1.169.664-.439 1.27-2.233 1.846-3.35 2.305-.904.366-1.887.763-2.658 1.377-.306.253.133 1.129.438 1.054 1.197-.262 2.659-1.297 3.257.426M18.525 25.837c.186-.093.372-.192.572-.288-.253-.91-.891-1.067-1.529-.382l.957.67" fill="#cbe6a3" fill-rule="evenodd" stroke="#000" stroke-width=".144"/><path d="M18.432 32.922c1.675-.12 3.243-.811 4.879-1.149-.333-1.804-4.135-3.57-5.264-1.627.77.067 1.409.379 1.914.957-.665.513-1.582 1.254.2.957a2.623 2.623 0 0 0-1.729.862M20.067 38.186c.81-1.251 2.22-2.273 2.486-3.829-1.276.765-1.98 2.255-3.35 2.87.253.355.532.674.864.959M21.21 21.716a7.04 7.04 0 0 0 .572-2.011c-.598.555-.798 1.225-.572 2.01M26.381 42.107c1.276-.517.878-3.253-.585-3.158-1.701.106-.917 3.254.585 3.158M46.095 6.216c.186-.772 0-1.54-.957-1.628-.2.777.252 1.365.957 1.628M46.095 4.116c.997.903 3.655 1.357 4.493 0-1.037-.067-2.805 0-3.177-1.284-.306-1.04-2.925-.027-1.316 1.284M48.394 6.695a1.55 1.55 0 0 0 .479-1.149c-1.024-.066-1.183.311-.479 1.149M49.444 1.43c.133-.659-.132-1.105-.77-1.34-.346.755 0 1.24.77 1.34M50.973 1.91A8.948 8.948 0 0 1 52.794.76c-.85-.119-1.528.38-1.82 1.15M55.572 95.319c.825-.08 1.542-.57 2.008-1.246-1.569-.87-2.46-.594-3.922.287.678.23 1.316.55 1.914.959" fill="#cbe6a3" fill-rule="evenodd" stroke="#000" stroke-width=".144"/></svg>