<svg xmlns="http://www.w3.org/2000/svg" width="124.144" height="138.02" viewBox="0 0 32.846371 36.5177"><path class="landxx cr" d="M.151 9.606C.719 9.144 2.25 7 2.355 6.288 2.525 5.135-.058 3.728.92 3.15 2.084 2.465 2.384 1.48 3.174.164 3.484-.356 7.3 1.498 7.85 1.77c2.677 1.328 2.323.461 4.806-.228 1.092-.301 1.57 1.394 3.38 1.072.815 1.062 1.089 2.078 2.498 2.343 1.77.333 4.333.4 4.254-1.482.781 1.328.013 1.557.776 2.716.637.972 1.026 2.11 1.451 3.184.899 2.269 1.795 3.062 3.305 4.57 1.368 1.364 2.078 3.549 3.823 4.45.96.495.816 1.548-.377 1.189-.911-.274-1.133-1.372-2.27-.56.51.895-.602 3.059-.647 4.533-.04 1.517 3.62 2.016 1.122 3.316-2.015 1.05.689 3.305-1.06 4.843-1.932 1.696-.12 2.7-.527 4.787.12-1.054-.342-1.868-1.022-2.624a6.875 6.875 0 0 1-1.18-1.014c.119-.398.221-.8.308-1.205-.38-1.268-1.834-4.065-3.563-3.007.331 1.542 2.324 2.113 1.723 3.924-1.425-.445-3.656-.946-4.004-2.715-.227-1.151 1.316-2.038 1.421-3.218.26-2.916-2.922-4.024-4.801-5.49-1.145-.891-1.428-1.521-3.014-1.562-1.562-.04-2.48-.803-2.414-2.436.158-3.872-4.453-3.863-5.946-6.592.297.74.36 1.533.634 2.277.434 1.18 1.49 1.035 2.305 1.742 1.137.985-.214 2.987-1.273 3.401-1.284.503-2.376-2.206-3.766-2.516-2.34-.526-4.12-3.441-3.641-5.863" fill="#cbe6a3" fill-rule="evenodd" stroke="#000" stroke-width=".144"><title>Costa Rica</title></path></svg>