<svg xmlns="http://www.w3.org/2000/svg" width="91.372" height="55.764" viewBox="0 0 24.175482 14.754299"><path class="landxx sv" d="M.166 7.856C-.117 6.701.26 6.184.986 5.51c1.103-1.018 2.082-.606 3.033-1.213.133-.08.977-1.625 2.06-2.105.414-.184.067-.854.174-1.368.242-1.14 2.142-.7 2.889-.493 1.247.345 7.978 4.555 7.295 6.09 1.372-.013 4.43-2.537 4.881 0 1.185-.78 3.246-.275 2.693 1.363-.12.352-1.088 5.057-1.449 3.615-.989 1.333.997 2.414-1.722 3.158-2.58.704-4.454-1.82-6.7-1.244 2.496.684-1.293.359-1.928.066-1.556-.716-2.864-1.983-4.524-2.48-1.554-.467-3.358.194-4.843-.553-.875-.442-1.71-1.898-2.679-2.49" fill="#cbe6a3" fill-rule="evenodd" stroke="#000" stroke-width=".144"><title>El Salvador</title></path></svg>