<?xml version="1.0" encoding="UTF-8" standalone="no"?>
<!-- Created with Inkscape (http://www.inkscape.org/) -->

<svg
   xmlns:dc="http://purl.org/dc/elements/1.1/"
   xmlns:cc="http://creativecommons.org/ns#"
   xmlns:rdf="http://www.w3.org/1999/02/22-rdf-syntax-ns#"
   xmlns:svg="http://www.w3.org/2000/svg"
   xmlns="http://www.w3.org/2000/svg"
   xmlns:sodipodi="http://sodipodi.sourceforge.net/DTD/sodipodi-0.dtd"
   xmlns:inkscape="http://www.inkscape.org/namespaces/inkscape"
   width="42.333858mm"
   height="47.403885mm"
   viewBox="0 0 42.333858 47.403885"
   version="1.1"
   id="svg20930"
   inkscape:version="0.92.0 r15299"
   sodipodi:docname="guatemala.svg">
  <defs
     id="defs20924" />
  <sodipodi:namedview
     id="base"
     pagecolor="#ffffff"
     bordercolor="#666666"
     borderopacity="1.0"
     inkscape:pageopacity="0.0"
     inkscape:pageshadow="2"
     inkscape:zoom="0.35"
     inkscape:cx="795.71528"
     inkscape:cy="603.86786"
     inkscape:document-units="mm"
     inkscape:current-layer="layer1"
     showgrid="false"
     fit-margin-top="0"
     fit-margin-left="0"
     fit-margin-right="0"
     fit-margin-bottom="0"
     inkscape:window-width="1920"
     inkscape:window-height="1017"
     inkscape:window-x="1912"
     inkscape:window-y="-8"
     inkscape:window-maximized="1" />
  <metadata
     id="metadata20927">
    <rdf:RDF>
      <cc:Work
         rdf:about="">
        <dc:format>image/svg+xml</dc:format>
        <dc:type
           rdf:resource="http://purl.org/dc/dcmitype/StillImage" />
        <dc:title></dc:title>
      </cc:Work>
    </rdf:RDF>
  </metadata>
  <g
     inkscape:label="Layer 1"
     inkscape:groupmode="layer"
     id="layer1"
     transform="translate(227.54193,-261.20282)">
    <path
       inkscape:connector-curvature="0"
       id="gt"
       class="landxx gt"
       d="m -227.48661,299.19979 c 1.08203,-1.2881 0.8986,-2.64795 1.28676,-4.1926 0.18876,-0.75239 1.24421,-1.27347 1.01823,-2.10426 -0.42006,-1.54331 -0.4041,-1.8012 0.49847,-3.30464 1.35589,-2.25714 2.5044,-5.16031 3.44022,-7.07583 0.95444,-1.9514 4.60734,-0.83746 6.54146,-0.83746 1.10997,0 6.9376,0.69524 7.51053,-0.23927 0.19007,-0.30839 0.68988,-3.90414 0.53437,-4.0384 -0.66864,-0.58223 -1.57788,-0.31903 -1.78526,-1.39576 -0.23926,-1.23092 -0.51709,-1.89822 -1.66428,-2.59343 -2.19865,-1.33065 -3.56649,-3.51202 -5.31849,-5.32383 1.3293,0 3.70075,0.62343 4.50099,-0.85739 0.82549,-1.52472 -0.18211,-3.85099 0.95444,-5.17893 1.21763,-1.42236 6.67305,-0.47191 8.41841,-0.47191 3.35115,0 6.7023,0 10.05345,0 -0.8481,3.61967 -0.93317,7.36029 -1.62707,11.00524 -0.70984,3.73132 -1.52602,7.44403 -2.1056,11.19928 1.77727,-0.18343 5.55646,-0.26585 5.83827,2.19999 0.2898,-0.6394 0.58622,-1.40374 1.33992,-1.62706 -0.23661,-0.33364 -0.49183,-0.65267 -0.76566,-0.9571 1.33194,0.48255 2.23719,1.61244 3.44552,2.29704 -3.23017,1.35056 -5.22943,4.60201 -8.20574,6.358 -1.38512,0.81753 -3.18631,1.79322 -2.78884,3.70475 0.28048,1.35321 0.58355,2.27708 -0.52775,3.30062 -1.05146,0.96773 -4.03173,1.55928 -3.74327,3.09726 0.17148,0.90924 -0.5038,0.72048 -1.14985,1.28676 -0.13292,0.10634 -1.2389,1.59384 -1.07672,1.52072 -1.30935,0.59152 -4.61265,0.79756 -3.94667,3.51065 -1.56059,-0.67927 -2.96433,-1.8158 -4.67912,-2.1109 -1.74801,-0.30044 -3.6077,0.26054 -5.39427,0.0532 -4.42123,-0.52639 -7.64345,-4.26039 -10.60245,-7.21939"
       style="fill:#cbe6a3;fill-opacity:1;fill-rule:evenodd;stroke:#000000;stroke-width:0.14449541;stroke-miterlimit:4;stroke-dasharray:none;stroke-opacity:1">
      <title
         id="title874">Guatemala</title>
    </path>
  </g>
</svg>
