<svg xmlns="http://www.w3.org/2000/svg" width="160.002" height="179.164" viewBox="0 0 42.333858 47.403885"><path class="landxx gt" d="M.055 37.997c1.082-1.288.899-2.648 1.287-4.193.189-.752 1.244-1.273 1.018-2.104-.42-1.543-.404-1.801.499-3.305 1.356-2.257 2.504-5.16 3.44-7.075.954-1.952 4.607-.838 6.541-.838 1.11 0 6.938.695 7.511-.24.19-.307.69-3.903.534-4.037-.668-.583-1.578-.32-1.785-1.396-.24-1.231-.517-1.898-1.664-2.594-2.199-1.33-3.567-3.512-5.319-5.324 1.33 0 3.701.624 4.501-.857.826-1.525-.182-3.85.955-5.179C18.79-.567 24.246.383 25.99.383h10.054c-.848 3.62-.934 7.36-1.627 11.006-.71 3.73-1.526 7.444-2.106 11.199 1.777-.184 5.556-.266 5.838 2.2.29-.64.586-1.404 1.34-1.627a10.593 10.593 0 0 0-.766-.957c1.332.482 2.238 1.612 3.446 2.297-3.23 1.35-5.23 4.602-8.206 6.358-1.385.817-3.186 1.793-2.789 3.704.28 1.354.584 2.277-.527 3.301-1.052.968-4.032 1.56-3.744 3.097.172.91-.503.72-1.15 1.287-.132.106-1.238 1.594-1.076 1.52-1.31.592-4.613.798-3.947 3.511-1.56-.679-2.964-1.815-4.679-2.11-1.748-.3-3.608.26-5.394.053-4.421-.527-7.644-4.26-10.603-7.22" fill="#cbe6a3" fill-rule="evenodd" stroke="#000" stroke-width=".144"><title>Guatemala</title></path></svg>