<svg xmlns="http://www.w3.org/2000/svg" width="81.292" height="60.966" viewBox="0 0 21.508427 16.130663"><g transform="matrix(1.3293 0 0 1.3293 -905.796 -792.792)" fill="#cbe6a3" stroke="#000" stroke-width=".109"><title>Jamaica</title><path class="landxx coastxx jm" d="M681.459 601.558c2.002-2.64 5.708-2.221 8.568-1.656 1.76.348 3.123 1.409 4.791 1.915 1.728.524 1.831 1.294 2.697 2.766-.766.363-1.585.432-2.42.432-.772 0-1.151-.796-1.972-.647 1.063-.18-.258-.39-.555-.126-.313.278-.588.83-1.061.85-.926.04-2.135-.132-1.336 1.22-.957 0-1.083-1.154-1.988-1.071-.874.08-2.392-.01-2.868-.884-.294-.54-.788-1.049-1.195-1.504-.701-.784-2.112-.32-2.661-1.295" fill-rule="evenodd"/></g></svg>