<svg xmlns="http://www.w3.org/2000/svg" width="180.253" height="185.614" viewBox="0 0 47.691971 49.110317"><path class="landxx ni" d="M.568 22.347c1.206.507 1.243 1.778 2.776 1.629.214-.36-.452-.726.167-.822.63-.08 2.353-.175 2.934-.35 1.261-.377.464-2.109 1.357-2.736.667-.468 1.71-.107 1.873-1.056.206-1.206-.863-3.65-.106-4.609.695-.886 2.293-.172 3.163-.053 1.102.142 1.546-.83 2.17-1.568 2.337-2.768 2.649-.798 5.099.765.407-2.323 3.544-3.885 5.48-5.508 1.32-.093-.066-1.032 1.44-2.3 1.143-.958 1.116-2.515 2.342-3.439 1.39-1.047 1.919.7 3.054 1.324 1.647.905 2.414-.08 3.97-.614 1.689-.585 4.634-.759 6.206-1.616.713-.39 1.284-1.057 2.105-1.246 1.024-.234 2.035.176 3.063 0-.872.416-1.35 2.268-2.489 1.246-1.076 1.873 1.694 4.971.766 7.37-.897 2.321-2.758 3.65-3.52 6.18-.948 3.152-.563 6.304-1.085 9.488-.252 1.546.413 5.63-1.425 5.866.054-1.81 1.085-3.13.766-5.073-1.219.305-.04 2.52-2.297 3.254 1.533 1.977.408 4.039.479 6.221a2.493 2.493 0 0 1-.288-1.914c-.22 1.31-1.058 2.474-1.052 3.83 2.467-.885.525 2.415.04 3.22-1.165 1.919-2.002 4.16-.51 6.29.664.947 1.917 1.818-.107 2.622-1.182.47-3.21.392-4.229-.416a3.896 3.896 0 0 1-.777-.91c-.86-1.267-.567-.812-1.724-1.013-.89-.154-1.443-1.227-2.414-1.025a7.778 7.778 0 0 0-2.186.799c-.43.234-1.543-.144-2.11-.395-2.901-1.288-4.21-1.9-4.607-1.938-.198-.013-.965-.08.303-.297.809.133 9.402 4.664 7.155-1.292-.46-.505-2.513-4.248-2.967-4.708-.438-.443-3.084-2.238-3.349-2.955-.282-.767-2.442-1.264-2.874-1.19-1.782.307-.627 5.368-.977 4.8.424.438 1.421 4.596 3.002 5.35-.213-.014.053.422-.38.283-1.148-.371-.862 3.52-2.44.106-.885-1.92-2.746-3.242-4.214-4.651-2.908-2.793-4.12-6.606-7.234-9.31-1.999-1.738-6.306-5.161-4.346-7.632" fill="#cbe6a3" fill-rule="evenodd" stroke="#000" stroke-width=".144"><title>Nicaragua</title></path></svg>