<svg xmlns="http://www.w3.org/2000/svg" width="221.233" height="104.782" viewBox="0 0 58.534622 27.723579"><g class="landxx coastxx pa" transform="matrix(1.3293 0 0 1.3293 -848.723 -899.196)" fill="#cbe6a3" fill-rule="evenodd" stroke="#000" stroke-width=".109"><title>Panama</title><path class="landxx pa" d="M638.69 687.96c-.691-.667 1.063-1.496 1.188-2.125.237-1.18-.982-2.469.654-3.176 1.334-.577-1.122-1.405-1.122-1.899 0-1.023.801-3.437.571-3.838.954-.949 1.868 1.242 2.524-.122.498.442 1.225.997 1.44 1.656-.001.481-.02.961-.07 1.439.09.377.752-.04.697.513-.235 2.354 2.08 1.505 3.551 1.792-.282-.5-.594-.979-.937-1.44 1.245-.38 2.459 2.649 3.9 2.848 3.034.418 4.737-1.944 7.297-2.9 1.755-.655 3.805-1.177 5.135-2.521.727-.735 1.135-1.676 2.306-1.686 1.311-.01 2.583.571 3.897.443-.236.298-.452.61-.648.937 2.561-.286 6.049.312 7.928 2.277.894.935 2.9 4.84 4.528 4.347-1.209 1.862.167 2.693.799 4.618.681 2.072-1.483 4.162-3.031 5.246a4.105 4.105 0 0 0-.792-1.44c-.527.768-.226.892-.278 1.489-.05.616-.75 1.167-1.205 2.538-1.952-1.408-3.749-4.813-3.845-7.195 1.637.609 1.072-1.361 1.77-2.105.774-.827 2.814 1.22 3.486 1.601-.45-.55-1.081-.866-1.626-1.302-.775-.62-.634-1.654-1.11-2.442.201.607-.13 1.141-.648 1.44.323-1.45-.903.06-1.44-1.297a2.682 2.682 0 0 1-.07 1.729c-.833-1.533-.883-3.083-2.241-3.868a13.634 13.634 0 0 1-1.744-1.216c-.979-.793-.492-.754-1.621-.688-1.557.09-4.202.423-4.647 2.401-.339 1.509-2.509 4.095-4.365 3.794-2.926-.474.223 3.855.88 4.575.504.552 1.58 1.684.966 2.504-.542.725-1.795.246-2.468.845-.88.783-2.909 2.001-4.157 1.312-.296-.163-.19-2.157-.383-2.64-.379-.949-.09-2.402-.667-3.202-.389.453-.797.477-1.224.07 1.236 2.388-1.468 2.985-2.592.976-.954-1.704-.921-2.955-2.942-3.676-.66-.235-1.338.347-1.788-.371-.562-.894-1.31-.186-1.75-.889-.711 1.014-1.757-.05-2.664.432-1.008.539-.29 1.718-1.008 2.377.08-.885-.1-1.654-.43-2.162"/><path d="M643.01 688.17c.001.526.169.503.504-.07-.194-.127-.362-.103-.504.07M647.76 693.43c-.453.462-1.233.809-.992 1.613.199.664.866 1.084 1.496.619-.471-.669-.32-1.485-.504-2.232M651.43 694.87a3.328 3.328 0 0 0 1.44-.864 3.34 3.34 0 0 0-1.44.864M670.01 686.37c-.72.117-.801.96-.648 1.512 1.009.149.829-.908.648-1.512"/></g></svg>