<svg xmlns="http://www.w3.org/2000/svg" width="1382.582" height="645.528" viewBox="0 0 365.80823 170.79601"><path d="M7.742 167.936c-.59.465-1.26.72-2.01.765.735-1.199-1.352-2.456-1.478-1.098-.148 1.582-2.666 2.183-4.073 2.343 2.09-2.332 4.869-3.546 7.752-4.594-2.488.77-.013.704.541.418.924-.474 1.538-.951 2.604-1.19 2.538-.566 3.716-1.745 6.009-2.766 4.832-2.148 9.456-3.591 14.678-4.503-2.482.537 2.388.175 3.062 0-1.426.892-2.03 1.25-2.392 2.967 1.247.297 4.26-4.013 4.785-.672a2.83 2.83 0 0 0 .957-.574c-3.324-2.7 13.975-7.83 14.981-8.14 2.335-.716 4.597-1.638 6.922-2.368 1.123-.352 1.781.04 2.88.12 1.379.093 2.034-1.227 2.866-2.042 1.685-1.647 4.561-2.383 6.654-3.326 2.683-1.21 5.443-2.486 8.385-2.907-1.565 1.977 1.937.76 2.488.193a3.301 3.301 0 0 1-2.201.574c1.127-.51 1.29-1.873 2.106-2.68.934-.924 2.197-1.396 3.214-2.21 1.526-1.22 4.71-3.982 6.738-2.29-.484-.676-1.27-.902-2.01-.477.162-2.593 4.702-3.845 6.644-4.482 3.998-1.312 7-3.86 10.775-5.567-2.095.589-3.8 2.03-5.843 2.733-1.68.575-3.447.872-5.14 1.423-1.754.573-6.283 2.622-7.967 1.108.699-.431.858-.97.65-1.738-.15-.546 1.604-1.278 1.982-1.485.776-.424 3.5-1.548 2.824.447.523-.04.84-.328.958-.86-.818-.182-1.685-.873-1.532-1.818-.448.982-1.5 1.601-2.428 2.048-.717.344-4.548 2.143-2.262.153-1.389 1.148-3.936 2.167-4.761 3.715-.578 1.084-2.148 2.743-3.6 2.152-1.368-.554 1.974-4.411-.348-4.431.35-.226.7-.45 1.053-.67-1.424-.607-2.858.949-4.116 1.34.225-.382.448-.765.67-1.148-.773.29-1.366-.14-1.627-.861a12.7 12.7 0 0 1 1.053-.477c-2.21-1.39-7.925 1.898-10.378 2.148-1.737.178-3.102 1.432-4.805 1.848-.632.133-1.254.299-1.868.498-.83.3-1.469-.751-2.38-.474 1.484-1.274 4.316-.402 5.436-2.146 1.558-2.422 2.167-1.969 4.71-3.023-.993-.133-2.011-.166-2.967.192.914-3.038 4.631-2.83 6.818-4.303.852-.575 1.402-3.07 2.059-4.01.968-1.386 2.21-2.588 3.66-3.458a3.39 3.39 0 0 0-1.912.574c2.769-3.322 7.044-4.163 10.815-5.838-.976.174-2.188 1.187-1.818-.287-.656 1.032-10.228 4.77-10.046 5.224 1.429 3.57-15.864 4.643-17.71 4.25.214-1.185 1.345-1.29 2.201-1.818-1.427-.416-1.053-2.927.093-3.445-2.199 1.33-3.499-.811-.67-1.722a3.245 3.245 0 0 0-2.01 0c1.238-1.75 3.82-1.653 5.589-2.547.565-.284 1.305-.598 1.742-1.078.847-.93 1.68-.301 2.719-.686-1.602 1.613.414.6 1.216 1.57.53.64-3.204 1.804-3.705 1.972 2.418-.343 4.476-1.859 6.891-2.2a3.457 3.457 0 0 1-1.435 1.914c1.19.245 3.48-.298 4.354-1.192.86-.88-.257-1.536-1.1-1.392.96-.355 2.004-.314 2.965-.672-1.281-.026-1.281-.287 0-.764-2.28.013-4.253 1.565-6.58 1.162-1.595-.277-3.848-1.418-5.383-.396.337-1.465 3.303-1.922 4.498-2.01-.75-.298-1.42-.169-2.01.383.08-.76.592-1.357 1.34-1.53a6.69 6.69 0 0 1-1.914.574c.356-1.23 2.066-1.529 2.967-2.201-2.272.284-3.698 3.416-6.125 2.967-.144-1.163 1.429-1.415.583-2.408-.71-.833 2.455-1.657 2.86-1.9-.556-.538-1.194-.665-1.913-.383.53-2.172 2.899-1.348 4.498-1.627-2.176.106.33-1.604 1.644-1.517 1.936.133 4.43-2.69 6.28-3.492 2.546-1.106 5.104-2.203 7.707-3.163.774-.284 1.781-.733 2.632-.554 1.29.273.362 1.327-.365 1.547a8.612 8.612 0 0 0 2.105-.765c-2.661-.46 4.02-2.75 4.881-3.063-1.433.392-2.778 1.04-4.21 1.436 1.593-2.29 6.255-5.08 9.092-4.116-1.585-1.765 3.843-2.417 4.699-2.474.822-.053 1.772.182 2.47.625 1.33.844-2.969 1.817-3.437 2.135 3.305-1.408 7.035-.542 10.323-2.04 3.179-1.445 6.477-2.77 9.872-3.607-.36.308-.711.628-1.053.957 5.013.177 9.761-.47 14.174-2.965 1.748-.988 3.007-2.365 4.488-3.684.919-.819 3.104-4.637 0-3.302.86-.399 12.642-2.294 9.762-4.977a37.89 37.89 0 0 1 1.532-.383c-1.775.133-3.326.956-4.977 1.53-1.66.579-3.474-.276-5.073.576 2.701-.538-1.022.492-1.257.55-1.2.294-2.424.484-3.635.727-2.527.508-4.592 2.073-7.071 2.648 1.261-1.413 1.662-3.553-.958-2.584.354.283.705.57 1.053.86-1.107.446-1.578 1.421-2.36.462-.454-.556-1.133-.863-1.811-1.037-1.54-.392-3.194-.244-4.754-.067-3.645.403-6.312 1.376-9.977.706-.572-.106-5.817-.922-4.576-2.164.614-.614 2.614-.808 2.255-1.91-.608-1.864 1.043-3.454 2.753-3.737a11.22 11.22 0 0 0-2.01 1.054c1.13 1.066 2.672.33 3.771-.33 1.191-.716 2.506-.385 3.79-.245-1.598-2.075-5.293-1.585-7.576-1.795-.772-.066-1.824-1.315-2.139-1.945-.566-1.128 2.94-1.53 3.59-1.621-.998.39-2.03.686-3.063.958 2.45.552 4.646-1.03 6.905-1.65 2.012-.55 4.254-.08 6.055-1.336 3.932-2.758 9.18-.915 13.457-1.8-.36-.21-.711-.433-1.053-.67 1.945-2.207 5.664-1.983 8.323-2.203 4.259-.353 8.29-2.31 12.637-1.625-1.078-.149-2.73 1.25-3.562 1.803-1.652 1.096-3.288 1.594-5.147 2.216.928-.246.83.106 1.131.72.33.67 1.683.43 2.227.386 1.155-.093 2.326-.08 3.484-.08.75 0 4.053-.495 1.58.888 2.548-1.357 5.52.379 8.135-.67 1.146 0 4.278-3.236 6.604-1.53a9.452 9.452 0 0 1-1.052.957c1.071-.375 2.263-.675 2.775-1.818-1.713-1.439-4.138-.927-6.03-.193.952-.754 3.159-1.27 3.022-2.774-.12-1.263-1.668-1.008-.783-2.239 1.616-2.248 4.384.17 2.233 1.35-4.414 2.42 3.572 2.04 3.53 1.997 1.997 1.998 7.203 1.606 8.365-1.301-.709.093-1.41.218-2.106.383-.99-.053-1.764-.81-2.789-.625-1.59.288-3.34 1.7-5.014 1.054-2.77-1.07 3.712-4.205 5.029-4.068-.532-2.107-3.733.183-3.733-1.148a2.82 2.82 0 0 1-2.105.766c.886-.72 1.966-1.11 2.967-1.627-1.16-.12-2.19.837-3.197 1.24-1.381.553-4.142.013-5.535-.3-3.155-.705-.487-1.674.58-3.198 1.403-2.007.337-5.414-2.142-6.487-.807-.35-2.223-.156-2.47-1.24-.372-1.634-1.302-1.582-2.74-1.692 3.431-.332 6.398-1.973 9.366-3.594 3.369-1.84 6.12-1.348 9.882-1.62 8.223-.594 15.311-2.495 23.056-5.314-.66.342-1.33.66-2.01.957 3.807-.727 7.184-3.823 10.992-4.975 4.596-1.39 8.98-4.034 13.795-4.596-.819.419-.848 1.154-1.818 1.341 3.376-.596 6.841-.75 10.145-1.724 3.033-.894 6.156-2.295 9.38-2.2-.849.712-1.944 1.171-3.063 1.149 3.239-.487-.59.885-1.246 1.147 1.078-.37 1.206-.053.383.958 1.067-.737 2.148-1.456 3.311-2.039 1.43-.715 3.13-.145 4.633-.545-.992 0-1.994-.053-2.967.192.388-1.12-.561-1.419-1.436-1.053 3.119-1.286 6.503-1.626 9.762-2.393a7.918 7.918 0 0 1-2.105.766c4.38 1.08 10.589-.31 14.901-1.323 5.26-1.233 10.309-3.243 15.534-4.611a6.21 6.21 0 0 0-2.105 1.053c.543.2 4.889.631 3.884 1.761-1.436 1.616-4.859 1.792-6.851 1.78.332.775-.275 1.33-.957 1.53 2.015-.557 4.053-1.037 6.03-1.723 1.202-.416 2.387-.886 3.598-1.28.586-.19 4.055-1.611 1.474.227.461-.315 2.05-.814 2.329 0 .44 1.284-2.362 1.546-3.096 1.631 1.935 1.832 5.074.36 7.28 0 3.106-.506 6.887-.563 9.948.195-1.02 1.16-2.696 1.443-4.02 2.105.6.309 1.239.47 1.914.479-1.37.158-2.761-.027-4.116.287 2.037.262 4.085 0 6.126 0l-2.106.765c1.75.884 3.684.774 5.558.452 1.135-.194 2.264-.445 3.412-.56.628-.066 3.423-.677 1.558.49 3.028 0 6.148-.892 9.196-.516.948.12 2.374.404 3.136 1.028 1.186.969 2.847.19 4.057.902 2.984 1.762 6.15.751 9.44 1.167.999.12 3.313-.478 3.67.712.159.53 3.065.093 1.414.918 1.81-.04 3.62.053 5.429-.013.904-.027 1.8-.12 2.693-.263 1.44-.606 1.733-.513.875.279 1.875-2.122 7.032-1.243 9.364-.584 1.584.447 2.013 2.06 3.613 2.414 1.225.27 1.172.419 1.835 1.284.788 1.03 2.018-.336 2.99.331l-113.993 94.561c1.123.294 2.1.68 3.24.164 1.17-.53 2.026.5 3.129.626 1.336.154 2.99-.883 4.284-1.185 1.533-.357 3.117-.444 4.66-.08-1.081.825-2.631 1.3-3.378 2.507-.769 1.242 1.15 1.524 1.009 2.892-.19 1.823.893 3.47 1.503 5.144.585 1.607-1.071 3.16-1.814 4.388 3.307-1.155 6.813-1.728 10.018-3.178 1.405-.636 2.73-1.45 3.871-2.495.476-.141.963-.214 1.46-.218.683-.315.7-1.045 1.305-1.383 1.04-.58 2.303-.42 3.432-.625 1.24-.224 4.228-1.701 5.364-1.17 3.88 1.81-2.246 3.636-.457 5.421.485.484 1.685.958 1.235 1.855-.408.815-1.01 2.371-.208 3.057 2.396 2.051.914 3.236.488 5.616-.388 2.178-1.068 4.313-1.286 6.518-.141 1.408.013 3.479-.939 4.637-.62.748-1.878 1.791-.235 2.35-1.653.722-1.785 2.912-2.13 4.402 1.703-.257 4.534 1.734 5.816 2.763 1.335 1.074 1.046 2.953 3.277 2.693-.654 1.676-2.2 2.23-3.596 3.128-1.828 1.173-2.21 3.296-3.657 4.739-2.926 2.915-7.915 5.173-11.315 6.586.483-.691.993-1.36 1.531-2.01-.837.831-1.794 1.617-2.965 1.913.652-3.186 6.213-4.662 8.805-5.934-.72.234-6.818 3.187-6.413 1.436.276-1.197 4.274-1.299 5.073-1.246-.667-.08-1.337-.12-2.01-.093 1.153-1.506 3.77-3.383 3.92-5.411.172-2.325 1.206-2.018 2.877-3.297-2.196.72-4.32 2.04-6.7 2.01a29.82 29.82 0 0 1 1.819-.67c-.628.218-5.252.883-5.12 1.612.205 1.126-.498.872-1.212 1.538-1.112 1.041-1.09-.053-2.019 1.189-.578.773-2.387.75-1.716-.305.808-1.272 2.21-1.959 3.463-2.694 1.342-.786 2.559-1.652 3.605-2.814 1.018-1.13 2.847-.512 4.147-.727-1.091-.306-2.395-.067-2.584-1.532-.08.921-1.81 2.639-2.789 1.962-1.408-.971 1.03-3.021 1.736-3.589-.133.68.107 1.203.86 1.246-.438-.804-.375-1.57.193-2.299a12.276 12.276 0 0 0-1.053-.382c1.146-.423 1.668-1.689 2.871-2.01-.9.333-1.778.631-2.34-.398-.746-1.37 1.141-1.197 1.48-2.28-.973.705-2.269-.04-2.106-1.248-1.22 1.353-2.724-.12-.943-1.095 1.264-.689 2.858-.277 4.198-.723-.993.066-1.975.407-2.967.093 1.607-.548.455-2.46 2.584-2.584-1.115.26-1.494-.915-.44-1.336.803-.32 1.844 1.035 2.259 1.529.4-1.113-1.193-1.566-.851-2.518.642-1.792 2.943-1.157 4.2-.737-1.768-1.139-3.427-.453-4.976.67-.71-1.181 2.013-3.106 3.062-3.54-.691.176-2.911 1.986-3.197 1.146-.29-.853.6-1.704 1.16-2.196 1.53-1.345 3.682-2.65 5.674-3.162-1.917-.172-3.908 1.23-5.25 2.45-1.851 1.683-2.468-.693-4.32-.917.813-.694.793-1.687 1.073-2.624.253-.843 1.396-1.211 1.893-1.875-2.139 1.796.214-2.626.606-3.15 1.025-1.372 2.218-2.813 3.605-3.837-.79.42-1.42 1.1-2.25 1.45-1.381.583-.386.94-1.385 2.09-.398-1.992-1.739.829-2.322 1.747-.758 1.195-2.332 2.726-2.73 4.053-.48 1.597-1.697 3.34-3.436 3.685-1.574.312-.644-1.553-.222-2.115-.889 1.02-2.871.416-4.018.479 1.891-2.313 3.213-4.718 6.22-5.264-.713-.491-1.538-.345-2.105.287 1.542-2.555-2.196.938-2.694 1.075-1.614.44-.637-2.022-1.134-2.701-.298 1.445-1.684.832-2.01-.193-.554 1.367-2.495 1.517-3.637 2.106 1.385-.539 2.6-.162 4.02-.192-.332.751-.859 2.86.766 1.34-.561.575-1.231.957-2.01 1.149.905-.04 2.228-.85 2.488.574-.969.093-.755.457-.841 1.155-.133 1.08-2.199 1.384-2.987 1.525 1.425-1.698-.879-1.067-1.532-.67 2.335-.227-.18.33-.685.304-.911-.053-1.045 1.316-2.186 1.324 1.153-1.498-5.173-3.086-2.201-4.5-1.442.426-1.528-1.136-1.28-2.11.388-1.532-.271-2.588-1.973-2.865a4.362 4.362 0 0 1 1.627-.766c-1.553-.176-4.313.276-4.211-2.105-1.135.872-1.74-.806-2.584-1.246.986-1.067 2.567-1.176 3.606-2.174.923-.887 1.412-2.022 2.67-2.535 3.123-1.27-1.143 3.267-1.204 3.465 1.104-1.384 3.106-3.291 4.977-2.01-.912-.555-1.801-2.436-3.064-2.076-1.648.47-3.157 1.543-4.866 2.026-3.966 1.123-7.466 1.403-11.213-.62.976-.7 2.546-.944 2.681-2.394-1.511-.133-2.426 1.47-4.143 1.153-2.264-.418-4.517-.884-6.782-1.295-4.024-.728-8.202 2.422-12.142.81 2.506-.244-2.167-2.933-3.158-2.775 1.795-2.335 4.991-2.608 7.178-4.402-2.822.437-5.012 2.041-7.583 3.085-.676.275-1.92.921-2.686.65-.901-.32-1.452-1.418-2.558-1.056 1.16-.982 2.64-1.523 4.02-2.105-.52.093-4.79.86-2.105-.287-1.024.18-2.04.395-3.063.574.87-.657 1.954-.833 2.967-1.147-1.672-.107-3.306.75-4.977.383 1.442-.928 3.836-1.62 5.551-1.342-1.095-.73-2.777.676-3.799-.154-1.247-1.01 4.295-2.608 5.426-2.428-1.334-1.26-3.744-.12-5.076.547-1.731.863-3.992.694-5.93 1.365.284-.32.573-.639.861-.957-.7.22-1.37.507-2.01.86.78-1.092 2.065-1.617 2.967-2.582-1.655.846-3.045 2.932-4.977 3.158.32-.318.638-.637.957-.957-.822.08-1.554.564-2.01 1.244-1.764-1.696 4.984-4.013 5.839-4.688-1.682.502-3.266 1.31-4.8 2.147-1.395.761-2.986-.624-4.291.723 1.05-.15 2.007-.642 3.062-.765-2.197 1.887-4.71 1.686-7.082 2.776 2.617-.214-1.348.817-1.914 1.244 1.087-.08 1.976-.783 3.062-.861-.283.321-.57.64-.861.958a9.06 9.06 0 0 0 2.01-.766c-1.242 2.446-4.521 2.001-6.7 2.872 2.131-.353 3.899-.628 5.934-1.149.875 2.338-5.895 2.696-6.89 3.924a4.15 4.15 0 0 0 1.913-.478c-.417.388-2.03 1.785 0 .575-1.156.934-2.854 1.643-4.279 2.022-.81.216-1.484.326-2.262.677-1.422.643-2.572-.235-3.987-.306.426-.266.872-.49 1.34-.67-1.48.04-2.68.89-3.828 1.723.688-.723 1.301-1.512 1.914-2.298-1.26.106-5.65 2.43-5.742 3.83-.212-.796.198-1.462.957-1.725-.657.254-1.492 0-2.106.383-.735.445-.795 1.527-1.531 2.011.167-1.882-1.356-.607-2.138-.08-1.447.964-3.67 1.674-5.328 2.191 1.146-1.027 2.6-1.644 3.924-2.394-1.837.517-3.296 1.83-5.072 2.49.299-.342.586-.693.861-1.054-1.608-.182-2.834 1.592-4.292 1.988-2.239.61-2.422 1.158-4.703.596.897 1.626-.483.859-1.282.672-1.067-.248-2.327.514-3.325.786-.78.211-1.675-.525-1.327-1.361.19-.456 1.275-.634 1.65-.75 3.844-1.187 7.686-2.85 11.558-3.94-1.993-.516-4.502 2.263-6.29.727-1.536-1.32 6.865-4.832 8.15-5.42 1.652-.754 3.29-1.579 4.744-2.677.926-.697 1.386-2.503 2.545-2.85 3.873-1.161 7.886-2.205 11.811-3.276-.053 1.707 1.553 1.248 2.64.949 1.874-.517 4.56.248 6.357.87-1.385-1.615-6.734-2.134-2.493-4.273 2.442-1.231 5.264-1.745 7.948-2.139-2.548-1.13-5.173.924-7.454 1.759-.814.297-5.098 1.673-4.127-.612-1.173 1.18-3.129 1.46-4.703 1.603-1.874.17-3.275 1.566-5.062 1.969-1.912.43-3.63.375-5.327 1.517-1.217.817-2.25 1.414-3.673 1.761-2.876.702-4.662 1.218-6.88 3.076-1.2 1.005-2.936 1.365-4.391 1.823-1.524.477-2.372-1.132-3.653-.552 1.97-.336 1.598 2.28.313 2.927-2.421 1.219-4.907 1.024-7.396 1.86 2.08-.143.553 1.338-.266 1.562-1.05.287-2.306-.04-3.275.543 2.784-1.697-.61-.228-1.109 0-1.042.49-2.698.52-3.585 1.089-.421.271-.462.821-.926 1.062-.831.43-2.628.605-3.568.714 2.52.013-.747.67-1.343.905-1.261.496-2.774 1.182-3.442 2.445 1.433-.12 3.413-.604 4.717.226 2.299 1.46-2.212 3.116-3.036 3.397-1.958.67-4.17.689-5.9 1.819-.906.591-1.84.45-2.678 1.215-1.228 1.12-2.853.754-4.11 1.765a5.964 5.964 0 0 1 2.01-.574c-1.034.575-4.136 3.57-3.924 1.435-.953 1.324-3.798 1.354-5.32 1.58-1.627.242-2.661.947-4.149 1.652-1.661.788-3.459.7-5.067 1.328-1.967.767-3.742 2.233-5.833 2.227-1.164 0-1.615 1.246-2.546.874-1.246-.498-4.112 1.385-5.32 1.719 2.096-.292.067 1.151-.624 1.652-1.058.763-2.604.746-3.722 1.524-.927.644-2.164.688-3.244.81-1.65.187-2.371 1.08-3.782 1.56-.67.228-.7-.91-1.32-.662-.704.282-2.56.759-2.792 1.608-.286 1.05-1.465 1.118-2.333.883-1.605-.436-2.437 0-4.005.472 2.596.264-1.27 1.031-2.01 1.04-2.206.027-4.452 1.1-6.317 2.214 1.005-.12 1.914-.916 2.967-.477-.856.648-1.248.916.093 1.053-.92.551-2.015.498-2.967.957-.804.386-1.337 1.455-2.297 1.531.328-1.093 1.369-1.698 2.393-2.01-1.254-.731-2.66 1.085-3.515 1.719-1.14.845-3.011 1.147-4.39 1.256-1.829.144-3.386 0-5.088.954-1.577.88-2.89 2.772-4.905 2.675 1.138-.552 2.16-1.321 3.063-2.201-1.124-1.183-3.77.106-4.886.695-.802.421-1.363.473-2.266.521-1.09.053-2.531 1.316-3.472 1.846 1.21-1.971-.608-.454-1.08-.106-.73.54-1.502.488-2.283.133-.382-.174-2.178.657-2.47.743-1.236.363-2.69.148-3.834.568 1.504-1.468 2.897-1.93 4.977-1.817-2.201-2.833-6.137.937-8.144 2.169-.868.533-1.872.556-2.767.989-.799.387-1.21 1.244-2.01 1.627-.805.383-.534-1.256-1.431.027-.517.739-1.706.838-2.493.547 1.242-.401 1.065-1.586 1.436-2.583-2.02-.377-2.043 3.395-4.118 2.868m86.427-32.733c-2.95 1.232 1.385 2.416 2.2 3.35a7.874 7.874 0 0 1-1.052.861c.613-.292 1.97-.457 2.058-1.34.08-.864 2.015-.822 2.44-1.627-1.918-.889-3.458-1.896-5.646-1.244m24.118-13.686c2.409.726 4.604-.896 6.96-.987 1.827-.066 4.362.641 5.96-.545-1.33.366-1.284.232.138-.406 1.054-.515 2.168-.882 3.297-1.189 1.899-.515 3.833-.904 5.658-1.66-2.218-.08-4.725-.173-6.919.194-1.823.305-3.498 1.08-5.35 1.299-3.508.415-7.315.252-9.744 3.294" class="landxx us" fill="#cbe6a3" fill-rule="evenodd" stroke="#000" stroke-width=".144"/></svg>