<svg xmlns="http://www.w3.org/2000/svg" width="179.627" height="142.402" viewBox="0 0 47.52644 37.677135"><g fill="#cbe6a3" fill-rule="evenodd" stroke="#000" stroke-width=".144"><path d="M.15 5.29c.445-1.032 1.946-1.414 1.914-2.68-.788.619-2.36 1.394-1.914 2.68M7.9 4.24c1.074-.643 3.63-4.297.803-4.164C5.379.233 3.688 3.645 7.9 4.239M22.35 11.324c2.652.45-.134-4.783-.614-4.76-.66.027-3 1.095-2.995 1.88.013 1.866 2.68 1.805 3.608 2.88M31.056 13.717c.864.027 1.523-.53 1.436-1.436-1.538.369-4.844-1.495-5.36.959 1.365-.12 2.613.12 3.924.477M29.82 17.253c1.905-.554.454-2.568-1.053-1.913.307.66.658 1.299 1.053 1.913M34.605 19.074c1.052-.415 4.651-.375 3.996-2.41-.587-1.825-2.119-1.219-3.422-1.462-.733-.138-1.771-1.855-2.38-.718-.523.976-.307 1.513.585 2.107 1.22.813.425 1.456 1.221 2.483M37.184 37.551c1.155.395 2.8-1.498 3.527-2.144 1.757-1.56 4.031-1.551 5.891-2.851 2.054-1.436-.182-2.453-.71-4.003-.295-.865.387-1.49-.438-2.233-.935-.841-1.94-1.275-2.994-1.913-.87-.528-2.849-2.311-3.555-.638-.304.723.257 1.182.153 1.868-.134.88-1.736 1.576-2.311 2.116-1.532 1.436.106 3.757-.137 5.491-.273 1.966-1.534 2.927.574 4.307"/></g></svg>