<?xml version="1.0" encoding="UTF-8" standalone="no"?>
<!-- Created with Inkscape (http://www.inkscape.org/) -->

<svg
   xmlns:dc="http://purl.org/dc/elements/1.1/"
   xmlns:cc="http://creativecommons.org/ns#"
   xmlns:rdf="http://www.w3.org/1999/02/22-rdf-syntax-ns#"
   xmlns:svg="http://www.w3.org/2000/svg"
   xmlns="http://www.w3.org/2000/svg"
   xmlns:sodipodi="http://sodipodi.sourceforge.net/DTD/sodipodi-0.dtd"
   xmlns:inkscape="http://www.inkscape.org/namespaces/inkscape"
   width="33.390202mm"
   height="28.024899mm"
   viewBox="0 0 33.390202 28.024899"
   version="1.1"
   id="svg20392"
   inkscape:version="0.92.0 r15299"
   sodipodi:docname="armenia.svg">
  <defs
     id="defs20386" />
  <sodipodi:namedview
     id="base"
     pagecolor="#ffffff"
     bordercolor="#666666"
     borderopacity="1.0"
     inkscape:pageopacity="0.0"
     inkscape:pageshadow="2"
     inkscape:zoom="0.35"
     inkscape:cx="-489.75754"
     inkscape:cy="261.53193"
     inkscape:document-units="mm"
     inkscape:current-layer="layer1"
     showgrid="false"
     fit-margin-top="0"
     fit-margin-left="0"
     fit-margin-right="0"
     fit-margin-bottom="0"
     inkscape:window-width="1920"
     inkscape:window-height="1017"
     inkscape:window-x="1912"
     inkscape:window-y="-8"
     inkscape:window-maximized="1" />
  <metadata
     id="metadata20389">
    <rdf:RDF>
      <cc:Work
         rdf:about="">
        <dc:format>image/svg+xml</dc:format>
        <dc:type
           rdf:resource="http://purl.org/dc/dcmitype/StillImage" />
        <dc:title></dc:title>
      </cc:Work>
    </rdf:RDF>
  </metadata>
  <g
     inkscape:label="Layer 1"
     inkscape:groupmode="layer"
     id="layer1"
     transform="translate(-112.57275,-190.00543)">
    <path
       inkscape:connector-curvature="0"
       id="am"
       class="landxx am"
       d="m 112.61718,191.52978 c 1.02357,-0.0665 3.93472,0.70451 5.63622,0.0134 2.4459,-0.97571 5.37034,-0.51044 7.94919,-0.48252 -0.13295,-0.51045 0.66464,-0.89994 1.18307,-0.97837 0.30574,0.30309 3.52263,2.57484 0.9172,2.03117 1.76797,1.34391 4.49301,1.36384 5.37034,3.73398 -3.44287,1.07672 0.38551,4.14075 1.88761,5.03271 0.78427,0.47058 2.56553,0.78294 2.77822,1.85302 0.41209,2.08036 -2.21993,1.74935 -3.33652,2.20664 1.15649,0.44265 5.56974,4.97157 6.75281,4.49435 0.61148,-0.24326 3.45615,0.65534 2.37943,1.30136 -1.59516,0.96109 1.1432,2.25714 1.6882,2.91383 -1.67491,0.20604 -0.73111,3.01883 -0.13292,3.78582 -0.1994,0.16617 -3.403,0.84544 -3.5891,0.33765 -1.05015,-1.70814 -1.64832,-4.23381 -3.403,-5.22147 -0.75769,-0.42404 -0.1595,-2.23057 -1.34257,-2.47782 -0.74441,-0.15419 -1.30271,-0.13292 -2.39272,0.18346 -1.38247,0.39081 -2.04714,-1.21233 -3.21692,-0.53172 0.17282,-2.7636 -2.87125,-1.49015 -3.93469,-1.43831 -1.47552,-1.1033 -3.41628,-3.85095 -5.46339,-3.78847 -2.11358,0.0665 -3.92143,-0.0266 -5.82232,-0.993 0.7444,-0.5038 0.27916,-1.51539 0,-2.22389 -0.59819,-1.31867 -0.63806,-1.6018 -0.14621,-2.78621 0.9039,-2.2106 -2.99092,-2.98161 -3.73532,-6.99607"
       style="fill:#cbe6a3;fill-opacity:1;fill-rule:evenodd;stroke:#000000;stroke-width:0.14449541;stroke-miterlimit:4;stroke-dasharray:none;stroke-opacity:1">
      <title
         id="title1739">Armenia</title>
    </path>
  </g>
</svg>
