<?xml version="1.0" encoding="UTF-8" standalone="no"?>
<!-- Created with Inkscape (http://www.inkscape.org/) -->

<svg
   xmlns:dc="http://purl.org/dc/elements/1.1/"
   xmlns:cc="http://creativecommons.org/ns#"
   xmlns:rdf="http://www.w3.org/1999/02/22-rdf-syntax-ns#"
   xmlns:svg="http://www.w3.org/2000/svg"
   xmlns="http://www.w3.org/2000/svg"
   xmlns:sodipodi="http://sodipodi.sourceforge.net/DTD/sodipodi-0.dtd"
   xmlns:inkscape="http://www.inkscape.org/namespaces/inkscape"
   width="68.679176mm"
   height="29.618736mm"
   viewBox="0 0 68.679176 29.618736"
   version="1.1"
   id="svg21009"
   inkscape:version="0.92.0 r15299"
   sodipodi:docname="austria.svg">
  <defs
     id="defs21003" />
  <sodipodi:namedview
     id="base"
     pagecolor="#ffffff"
     bordercolor="#666666"
     borderopacity="1.0"
     inkscape:pageopacity="0.0"
     inkscape:pageshadow="2"
     inkscape:zoom="0.7"
     inkscape:cx="150.09561"
     inkscape:cy="67.105492"
     inkscape:document-units="mm"
     inkscape:current-layer="layer1"
     showgrid="false"
     fit-margin-top="0"
     fit-margin-left="0"
     fit-margin-right="0"
     fit-margin-bottom="0"
     inkscape:window-width="1920"
     inkscape:window-height="1017"
     inkscape:window-x="1912"
     inkscape:window-y="-8"
     inkscape:window-maximized="1" />
  <metadata
     id="metadata21006">
    <rdf:RDF>
      <cc:Work
         rdf:about="">
        <dc:format>image/svg+xml</dc:format>
        <dc:type
           rdf:resource="http://purl.org/dc/dcmitype/StillImage" />
        <dc:title></dc:title>
      </cc:Work>
    </rdf:RDF>
  </metadata>
  <g
     inkscape:label="Layer 1"
     inkscape:groupmode="layer"
     id="layer1"
     transform="translate(51.348518,-134.024)">
    <path
       inkscape:connector-curvature="0"
       id="at"
       class="landxx at eu"
       d="m -51.285845,153.64759 c 0.943803,-1.64569 0.744406,-1.18042 0.292452,-2.66658 -0.159528,-0.51178 7.164893,-0.2951 5.450081,2.66658 2.073713,-0.0665 2.126873,-2.00858 2.592141,-3.54391 0.877329,0.79092 2.977622,0.79891 4.080928,0.6939 -0.903933,0.46391 1.595155,1.25485 1.900896,1.1525 0.651351,0.30971 1.621734,-0.58225 2.525643,-0.88799 1.807842,-1.09532 4.838648,-1.89423 6.899047,-1.22029 0,-0.35758 0,-0.73243 -0.159528,-1.07672 1.023567,0.13292 2.685195,0.98367 3.708737,0.49981 2.126872,-1.01291 1.887607,1.35323 3.203599,1.84905 1.063437,0.40677 1.502101,-2.19333 0.584901,-2.3196 -1.196382,-0.16484 -0.465267,-1.53136 -0.611481,-2.14684 -0.186108,-0.82813 -0.917223,-1.06609 -1.262832,-1.80385 -0.877329,-1.88492 3.987874,-2.53228 4.958257,-3.18897 0.837459,-0.56759 0.186105,-3.03212 1.754682,-2.44057 2.100268,0.79757 0.877327,-1.38512 1.369177,-3.28867 1.5021,0.39612 3.270049,2.78487 4.9715469,3.00686 3.097255,-0.77897 3.376417,-0.0399 3.682156,0.0665 0,-0.92521 0.518406,-1.83045 1.435629,-2.12821 1.196359,-0.38682 1.050145,-1.22294 1.143199,-2.75296 1.98063601,-0.17282 4.360066,0.74706 6.221092,1.36518 0.624771,-0.331 3.655552,2.04047 5.915348,1.50211 1.7679721,-0.42007 5.1842591,-0.6035 5.4501071,1.48881 0,0.25521 0,1.25485 0.265869,2.15211 0.239268,0.98635 0,2.39939 0.57159,3.12384 0.704535,0.99034 1.688208,1.16712 1.595154,1.80119 -0.132924,0.63541 -1.236255,1.71613 -1.714788,2.96034 -0.890619,2.33956 -1.98066,-0.63937 -4.160692,0.23396 -0.943803,0.37884 3.442867,1.29076 0.837459,2.61473 -2.03382,1.03683 -1.5021,3.77653 -0.903933,5.34376 -1.4622061,-0.30973 -5.2108151,1.89557 -4.0144541,3.82835 -2.087004,-1.31733 -3.057385,0.19144 -5.024731,0.37088 -1.42233699,0.13295 -2.40603399,-0.54236 -3.748606,-0.27118 -1.010277,0.20604 -3.203599,2.32362 -4.001191,2.74101 -1.5021,0.78296 -5.3703399,-1.00096 -6.8724409,-1.21764 -3.86824,-0.56095 -7.271237,-0.0798 -11.245821,-1.32928 -1.209675,-0.37886 -5.782427,-3.5984 -3.469471,-4.98486 -1.315994,-0.27517 -2.39272,0.68326 -3.642264,0.86139 -1.821132,0.26188 -3.376392,0.0134 -5.210814,0.53437 -1.09004,0.30839 -1.967369,2.28107 -3.097255,1.9514 -1.1432,-0.33366 -2.180057,-0.5942 -3.336547,-0.87998 -0.943779,-0.23662 -0.438665,-1.33995 -1.063436,-1.44096 -0.731092,-0.11963 -1.22294,0.57823 -1.661605,1.12059 -0.810879,0.99299 -3.110545,-0.41739 -3.748607,-1.10864 -0.704536,-0.74971 -1.728078,-0.86136 -2.126873,-0.86803 0.385481,-0.87599 0.159504,-1.67224 -0.332321,-2.36879"
       style="fill:#cbe6a3;fill-opacity:1;fill-rule:evenodd;stroke:#000000;stroke-width:0.14449541;stroke-miterlimit:4;stroke-dasharray:none;stroke-opacity:1">
      <title
         id="title428">Austria</title>
    </path>
  </g>
</svg>
