<?xml version="1.0" encoding="UTF-8" standalone="no"?>
<!-- Created with Inkscape (http://www.inkscape.org/) -->

<svg
   xmlns:dc="http://purl.org/dc/elements/1.1/"
   xmlns:cc="http://creativecommons.org/ns#"
   xmlns:rdf="http://www.w3.org/1999/02/22-rdf-syntax-ns#"
   xmlns:svg="http://www.w3.org/2000/svg"
   xmlns="http://www.w3.org/2000/svg"
   xmlns:sodipodi="http://sodipodi.sourceforge.net/DTD/sodipodi-0.dtd"
   xmlns:inkscape="http://www.inkscape.org/namespaces/inkscape"
   width="81.17408mm"
   height="53.097401mm"
   viewBox="0 0 81.17408 53.097401"
   version="1.1"
   id="svg32090"
   inkscape:version="0.92.0 r15299"
   sodipodi:docname="belarus.svg">
  <defs
     id="defs32084" />
  <sodipodi:namedview
     id="base"
     pagecolor="#ffffff"
     bordercolor="#666666"
     borderopacity="1.0"
     inkscape:pageopacity="0.0"
     inkscape:pageshadow="2"
     inkscape:zoom="0.35"
     inkscape:cx="153.39984"
     inkscape:cy="100.34154"
     inkscape:document-units="mm"
     inkscape:current-layer="layer1"
     showgrid="false"
     fit-margin-top="0"
     fit-margin-left="0"
     fit-margin-right="0"
     fit-margin-bottom="0"
     inkscape:window-width="1920"
     inkscape:window-height="1017"
     inkscape:window-x="1912"
     inkscape:window-y="-8"
     inkscape:window-maximized="1" />
  <metadata
     id="metadata32087">
    <rdf:RDF>
      <cc:Work
         rdf:about="">
        <dc:format>image/svg+xml</dc:format>
        <dc:type
           rdf:resource="http://purl.org/dc/dcmitype/StillImage" />
        <dc:title></dc:title>
      </cc:Work>
    </rdf:RDF>
  </metadata>
  <g
     inkscape:label="Layer 1"
     inkscape:groupmode="layer"
     id="layer1"
     transform="translate(57.595969,-122.28463)">
    <path
       inkscape:connector-curvature="0"
       id="by"
       class="landxx by"
       d="m -57.528425,164.28971 c 0.624772,-1.64566 1.502101,-3.2036 3.429576,-3.55454 1.900896,-0.34695 2.472484,-1.79852 2.273086,-3.56515 -0.491824,-4.14607 -4.080928,-7.0373 -4.745569,-11.12488 2.166742,0.55433 4.971547,0.15688 7.231367,0.41608 0.691222,0.0798 1.728078,-0.44796 2.39272,-0.61414 1.329283,-0.33497 0.996962,-0.9491 1.954055,-1.76264 0.598192,-0.50248 1.342598,-0.0266 1.96737,-0.32567 0.505113,-0.23662 0.744405,-0.79095 1.262809,-1.03421 0.996987,-0.46524 3.057386,-0.5995 2.419324,1.11928 0.558298,0.18211 1.448941,0.11963 1.807842,-0.43468 0.770985,-1.19636 -1.382468,-1.60579 -1.99395,-1.86102 2.180057,-2.37145 0.478559,-4.90111 3.53592,-6.50821 1.422362,-0.74706 1.568575,-2.27177 3.442891,-2.10429 2.04711,0.18212 1.050122,-0.87467 2.592117,-1.62969 -2.140163,-0.56896 -4.32022,-1.49945 -2.113583,-4.05304 1.409048,-1.62971 4.519593,-2.10825 6.473673,-1.51804 2.37943,0.71116 2.445904,-2.48711 4.612646,-3.2847 1.156491,-0.42404 2.924436,0.78031 3.49605,0.31372 2.166742,-0.19275 8.188436,0.0798 8.693574,1.58187 0.491823,0.45728 -0.319032,1.44227 0.252558,1.99792 0.770985,0.74839 3.442864,-0.28579 4.253746,-0.67394 2.844696,-1.36519 3.93471395,-0.5982 6.486961,1.20833 0.691221,0.49051 2.525644,0.68592 2.472484,2.14681 0,1.75865 -0.132924,2.13748 0.784275,3.72599 0.571587,1.04616 0.837459,1.3971 -0.199398,2.15214 -1.422336,1.02488 0.877329,2.53363 1.728078,3.35515 1.834447,1.7613 2.419324,4.57143 5.290601,5.56706 0.837459,0.2858 2.193324,0.55167 2.552247,1.48615 0.478536,1.20569 -0.917223,2.40336 0.292452,2.4047 0.505114,-0.0665 1.156465,-0.0532 1.621735,-0.23262 0.664641,-0.1356 1.448916,0.27517 2.113581,0.35758 2.219905,0.28048 0.850726,0.78562 1.754659,1.81449 0.465246,0.53569 1.847712,0.87468 2.472483,1.71744 1.302706,1.74802 -0.744405,1.89822 -1.329282,2.28903 -1.063437,0.69923 -1.395757,1.16048 -3.030807,1.55928 -2.033818,0.49581 -3.190309,-1.33596 -4.971545,-0.96374 -4.439854,0.92652 -1.621735,2.64396 -0.132924,3.82173 0.983673,0.74837 0.784275,2.29835 1.050121,3.37639 0.438666,1.76663 1.767972,3.23018 2.711775,4.75489 -2.140162,0 -1.249542,-0.53571 -5.024731,0.65934 -1.568575,-0.90659 -4.213876,0.67793 -5.064625,3.42025 -0.37219,1.21233 0.358926,2.11623 0.558324,4.01582 0.212687,2.13351 -2.445904,0.29776 -2.977624,-0.35228 -1.555284,-1.88493 -3.163729,0.31637 -5.06462505,-0.75901 -4.39995695,2.39936 -3.20359895,-0.63142 -5.25070695,-1.28277 -1.222941,-0.6394 -3.230178,0.57558 -3.04407,1.98728 -0.731116,-0.32967 -0.757696,-1.44096 -1.435653,-1.72143 -0.704512,-0.29246 -1.581865,0.52641 -2.193322,0.0798 -0.850749,-0.61813 -1.701499,-0.56894 -2.685172,-0.4586 -1.329306,0.14886 -1.940787,-0.7484 -2.113581,0.84807 -0.82417,-0.21001 -1.422337,-0.96505 -2.273086,-1.0528 -0.957093,-0.0931 -2.03382,0.7444 -2.804829,-0.3137 -1.621735,-2.24651 -4.080929,-1.35058 -6.367304,-1.82912 -2.35285,-0.49051 -5.064626,-1.65099 -7.457345,-1.22428 -3.177019,0.10635 -5.742557,0.26454 -8.427727,0.30441 -2.884569,0 -2.778225,1.23756 -4.73228,2.82476 -1.050147,0.84011 -1.99395,0.16216 -3.110546,-0.0532 -1.488811,-0.29111 -1.209674,0.61148 -1.541995,1.47019 -1.010252,1.52471 0.132948,-4.49301 0.132948,-4.92503 0.132924,-3.27669 -3.589104,-1.39308 -4.001188,-3.59573"
       style="fill:#cbe6a3;fill-opacity:1;fill-rule:evenodd;stroke:#000000;stroke-width:0.14449541;stroke-miterlimit:4;stroke-dasharray:none;stroke-opacity:1">
      <title
         id="title67">Belarus</title>
    </path>
  </g>
</svg>
