<?xml version="1.0" encoding="UTF-8" standalone="no"?>
<!-- Created with Inkscape (http://www.inkscape.org/) -->

<svg
   xmlns:dc="http://purl.org/dc/elements/1.1/"
   xmlns:cc="http://creativecommons.org/ns#"
   xmlns:rdf="http://www.w3.org/1999/02/22-rdf-syntax-ns#"
   xmlns:svg="http://www.w3.org/2000/svg"
   xmlns="http://www.w3.org/2000/svg"
   xmlns:sodipodi="http://sodipodi.sourceforge.net/DTD/sodipodi-0.dtd"
   xmlns:inkscape="http://www.inkscape.org/namespaces/inkscape"
   width="38.658154mm"
   height="34.402039mm"
   viewBox="0 0 38.658154 34.402039"
   version="1.1"
   id="svg21593"
   inkscape:version="0.92.0 r15299"
   sodipodi:docname="denmark.svg">
  <defs
     id="defs21587" />
  <sodipodi:namedview
     id="base"
     pagecolor="#ffffff"
     bordercolor="#666666"
     borderopacity="1.0"
     inkscape:pageopacity="0.0"
     inkscape:pageshadow="2"
     inkscape:zoom="0.98994949"
     inkscape:cx="113.4507"
     inkscape:cy="65.083528"
     inkscape:document-units="mm"
     inkscape:current-layer="layer1"
     showgrid="false"
     fit-margin-top="0"
     fit-margin-left="0"
     fit-margin-right="0"
     fit-margin-bottom="0"
     inkscape:window-width="1920"
     inkscape:window-height="1017"
     inkscape:window-x="1912"
     inkscape:window-y="-8"
     inkscape:window-maximized="1" />
  <metadata
     id="metadata21590">
    <rdf:RDF>
      <cc:Work
         rdf:about="">
        <dc:format>image/svg+xml</dc:format>
        <dc:type
           rdf:resource="http://purl.org/dc/dcmitype/StillImage" />
        <dc:title></dc:title>
      </cc:Work>
    </rdf:RDF>
  </metadata>
  <g
     inkscape:label="Layer 1"
     inkscape:groupmode="layer"
     id="layer1"
     transform="translate(-5.7056827,-204.9597)">
    <path
       style="fill:#cbe6a3;fill-opacity:1;fill-rule:evenodd;stroke:#000000;stroke-width:0.14449541;stroke-miterlimit:4;stroke-dasharray:none;stroke-opacity:1"
       d="m 19.372188,234.12527 c 0.664647,0.436 1.302708,2.78354 2.592124,1.91285 1.342586,-0.90259 -1.648325,-2.46052 -2.592124,-1.91285"
       id="path4494"
       inkscape:connector-curvature="0" />
    <path
       style="fill:#cbe6a3;fill-opacity:1;fill-rule:evenodd;stroke:#000000;stroke-width:0.14449541;stroke-miterlimit:4;stroke-dasharray:none;stroke-opacity:1"
       d="m 6.3584012,217.46921 c 0.1329293,-0.31903 0.2525658,-0.63673 0.3854952,-0.95709 0.5583034,0.61414 2.2199208,1.60712 3.0706689,1.0528 0.3589097,1.60978 1.4356377,1.02489 1.7014957,-0.13824 0.638062,-2.80349 4.586064,-1.54199 2.499073,-0.53039 0.864041,0.0798 2.180042,-0.16218 2.113577,1.14718 0.305738,-1.20434 0.319031,-1.756 -0.957091,-1.62706 0,-0.98102 -0.332324,-2.44058 0.54501,-3.18233 0.571597,-0.36688 1.196365,-0.5131 1.874305,-0.43999 1.076728,0.0665 1.688203,-0.39613 2.632002,-0.39613 1.143192,0 1.861011,0.0532 2.937739,0.47987 1.316001,0.52374 0.917213,2.1601 1.58186,3.15442 -1.342587,-0.11964 -2.605416,0.28447 -3.828367,0.76567 1.236244,0.0266 2.100285,-0.92253 3.376407,-0.37752 0.744404,0.32302 -0.757698,1.74935 -0.797576,2.2917 0.332323,-1.79986 5.117781,-0.8534 6.06158,-0.10634 0.797576,0.63806 -0.797577,3.11188 -1.608446,3.10922 -0.824162,0 -1.169779,-0.0798 -1.488809,0.91854 -0.99697,-0.22598 -1.183072,-0.90392 -0.478546,-1.62839 -1.834425,-0.60748 -1.754668,0.94115 -1.834425,2.23588 -0.13293,2.09231 -1.728083,1.68554 -3.230185,2.07237 0.558304,0.0532 1.661618,0.67262 1.010264,1.4024 -0.81087,0.92253 -2.499073,0.13825 -3.509336,0.32036 0.704526,0.25257 1.409051,0.50779 2.113577,0.76567 -1.67491,1.70948 -2.419315,0.72314 -1.289415,3.28203 0.691233,1.54996 -2.113577,1.50609 -2.060405,3.03478 1.316,-0.14755 2.911153,0.64338 2.57883,2.20264 -0.970385,-0.0665 -0.864041,-1.04483 -1.781254,-0.33232 -0.983678,0.76434 -2.060406,0.54899 -3.123841,0.21667 -1.462223,-0.45728 -5.0911955,-0.14888 -4.280326,-2.66125 -0.7709906,0.29112 -1.3691729,-0.13824 -1.6217387,-0.86005 4.4797207,0 -0.9836775,-3.7074 -1.2495363,-4.40395 -0.212687,2.0963 -1.316001,0.0931 -1.4223445,-0.84011 -0.1329294,-1.17643 0.1329294,-2.39672 -0.1329294,-3.56118 0.1329294,0.87866 1.7014962,2.46584 2.2066279,0.95709 0.2392729,-0.71516 -2.5256584,-3.76323 -2.1135773,-1.24422 -0.8108693,-1.5792 -0.4120811,-4.49966 0.1329294,-6.12671"
       class="landxx dk eu"
       id="path4548"
       inkscape:connector-curvature="0" />
    <path
       style="fill:#cbe6a3;fill-opacity:1;fill-rule:evenodd;stroke:#000000;stroke-width:0.14449541;stroke-miterlimit:4;stroke-dasharray:none;stroke-opacity:1"
       d="m 10.665313,216.51212 c 1.342587,-0.31105 2.233214,-1.7108 1.914184,-3.06269 -0.505132,0.36157 -1.063436,0.62477 -1.674911,0.78694 -0.598182,0.18078 -0.45196,1.24821 -1.1963642,1.51008 0.2924442,0.29244 0.6114752,0.54767 0.9570912,0.76567"
       id="path4492"
       inkscape:connector-curvature="0" />
    <path
       style="fill:#cbe6a3;fill-opacity:1;fill-rule:evenodd;stroke:#000000;stroke-width:0.14449541;stroke-miterlimit:4;stroke-dasharray:none;stroke-opacity:1"
       d="m 19.478532,229.04736 c 0,1.61111 2.153456,2.62669 2.48578,4.21121 0,-1.39443 0.917212,-0.69921 1.156485,0.13558 0.199394,0.69257 3.097255,0.77897 3.575801,0.69257 2.499072,-0.44665 2.871275,-3.9932 0.239273,-4.56081 0.31903,-0.18344 0.638061,-0.37353 0.957091,-0.57426 -0.22598,-0.40277 -0.505131,-0.75238 -0.850748,-1.05413 0,0.95842 -0.598182,1.86633 -1.635031,1.7241 1.887597,-2.09896 -5.157661,-0.61945 -5.928651,-0.57426"
       id="path4496"
       inkscape:connector-curvature="0" />
    <path
       style="fill:#cbe6a3;fill-opacity:1;fill-rule:evenodd;stroke:#000000;stroke-width:0.14449541;stroke-miterlimit:4;stroke-dasharray:none;stroke-opacity:1"
       d="m 25.407183,236.51799 c 0.132929,-1.02488 -1.249537,-1.36917 -1.914183,-1.72276 0.584889,0.63673 1.22295,1.21099 1.914183,1.72276"
       id="path4498"
       inkscape:connector-curvature="0" />
    <path
       style="fill:#cbe6a3;fill-opacity:1;fill-rule:evenodd;stroke:#000000;stroke-width:0.14449541;stroke-miterlimit:4;stroke-dasharray:none;stroke-opacity:1"
       d="m 26.178173,234.60381 c 0.385495,0.093 0.757698,0.19142 1.143193,0.2858 0,-1.11262 -0.545011,-0.80555 -1.143193,-0.2858"
       id="path4500"
       inkscape:connector-curvature="0" />
    <path
       style="fill:#cbe6a3;fill-opacity:1;fill-rule:evenodd;stroke:#000000;stroke-width:0.14449541;stroke-miterlimit:4;stroke-dasharray:none;stroke-opacity:1"
       d="m 27.52076,224.93984 c -0.571596,-0.0931 -0.957092,-0.41341 -1.156486,-0.95709 0.558304,0.66598 0.518425,1.30271 -0.132929,1.91286 0.757697,0.19009 1.209657,-0.17813 1.249536,-0.95577"
       id="path4502"
       inkscape:connector-curvature="0" />
    <path
       style="fill:#cbe6a3;fill-opacity:1;fill-rule:evenodd;stroke:#000000;stroke-width:0.14449541;stroke-miterlimit:4;stroke-dasharray:none;stroke-opacity:1"
       d="m 27.986013,235.26846 c -0.731112,0.6673 -0.744405,1.61908 0.132929,2.19998 0.425374,-1.18174 1.834426,-2.56288 1.236244,-3.92408 -0.265859,0.71516 -0.717819,1.28942 -1.342587,1.7241"
       id="path4504"
       inkscape:connector-curvature="0" />
    <path
       style="fill:#cbe6a3;fill-opacity:1;fill-rule:evenodd;stroke:#000000;stroke-width:0.14449541;stroke-miterlimit:4;stroke-dasharray:none;stroke-opacity:1"
       d="m 30.09959,210.58347 c 0.531718,-0.15154 0.850748,-0.50247 0.957092,-1.0528 -0.744405,-0.0266 -1.382466,0.2313 -1.914183,0.76434 0.31903,0.0931 0.638061,0.19275 0.957091,0.28846"
       id="path4506"
       inkscape:connector-curvature="0" />
    <path
       style="fill:#cbe6a3;fill-opacity:1;fill-rule:evenodd;stroke:#000000;stroke-width:0.14449541;stroke-miterlimit:4;stroke-dasharray:none;stroke-opacity:1"
       d="m 31.149732,230.77545 c 0.877334,0.31238 0.996971,1.24288 1.674911,1.5885 0.611475,0.31504 1.67491,0.0532 2.339557,0 1.887597,-0.1542 2.312971,1.95539 0.67794,1.38247 0.412081,0.0797 1.781254,0.49449 1.834425,1.04748 -0.239272,0.28979 -0.558303,0.35492 -0.970384,0.19541 0,0.78295 1.209657,3.57048 1.621738,4.2112 0.265859,-0.72447 1.595153,-2.13618 1.58186,-2.80747 0,-0.82815 -1.475516,-1.0528 -1.767961,-1.78524 0.731112,0.29643 1.462224,0.29643 2.193335,0 -1.1299,-1.58585 0.159516,-2.18802 1.515395,-2.68384 1.648325,-0.60085 -0.172808,-1.45957 -0.77099,-2.05376 -1.302708,-1.30537 1.209657,-1.9102 1.927476,-2.41001 1.661617,-1.14984 -0.638061,-2.95635 0.877334,-4.05036 -1.834426,-1.81981 -3.908124,-0.38949 -5.8356,0.38283 1.409051,0.56761 2.206628,3.63296 0.132929,3.73399 0.545011,-0.79093 1.076728,-1.70548 0.571597,-2.68118 -0.398789,0.26452 -1.462224,2.75429 -2.007234,2.41 -0.877334,-0.56229 -0.611475,-2.52698 -0.13293,-2.60142 -0.784283,-0.63674 -2.140163,-0.48918 -3.057376,-0.38284 0.491839,-0.11964 0.81087,0.0266 0.957092,0.41208 -0.412081,1.7108 -3.628972,2.04711 -4.878509,1.98065 0.611476,0.69256 4.227155,3.94401 1.528688,4.11416"
       id="path4508"
       inkscape:connector-curvature="0" />
    <path
       style="fill:#cbe6a3;fill-opacity:1;fill-rule:evenodd;stroke:#000000;stroke-width:0.14449541;stroke-miterlimit:4;stroke-dasharray:none;stroke-opacity:1"
       d="m 30.285691,236.79715 c 1.276123,0.90392 5.902065,2.85266 7.178187,1.25618 1.448931,-1.79721 -1.422344,-1.865 -2.339557,-1.74138 -1.781254,0.24459 -2.645295,-2.08433 -4.453134,-0.75902 0.212687,0.32169 0.438667,0.63939 0.664647,0.95709 -0.345617,0.0931 -0.704526,0.19142 -1.050143,0.28713"
       id="path4510"
       inkscape:connector-curvature="0" />
    <path
       style="fill:#cbe6a3;fill-opacity:1;fill-rule:evenodd;stroke:#000000;stroke-width:0.14449541;stroke-miterlimit:4;stroke-dasharray:none;stroke-opacity:1"
       d="m 40.441497,234.69686 c -0.13293,0.38284 -0.199394,0.76568 -0.292445,1.14851 0.385495,-0.11963 3.48275,-0.75637 3.177013,-1.33993 -0.345617,-0.62609 -2.366144,0.15021 -2.884568,0.19142"
       id="path4512"
       inkscape:connector-curvature="0" />
    <path
       style="fill:#cbe6a3;fill-opacity:1;fill-rule:evenodd;stroke:#000000;stroke-width:0.14449541;stroke-miterlimit:4;stroke-dasharray:none;stroke-opacity:1"
       d="m 43.206428,227.81112 c 0.45196,1.08072 0.797576,1.01558 1.063435,-0.19275 -0.358909,0.0665 -0.717819,0.13293 -1.063435,0.19275"
       id="path4514"
       inkscape:connector-curvature="0" />
    <path
       style="fill:#cbe6a3;fill-opacity:1;fill-rule:evenodd;stroke:#000000;stroke-width:0.14449541;stroke-miterlimit:4;stroke-dasharray:none;stroke-opacity:1"
       d="m 8.6580796,216.51212 c -1.9407691,-1.2163 -0.2791517,-3.35779 0.9969704,-4.28963 1.794547,-1.30802 4.758872,-0.64072 6.832571,-0.84809 1.861011,-0.18477 2.818103,-2.14947 3.881538,-3.4123 1.183071,-1.40639 4.665821,-2.34088 6.473661,-2.93375 -2.153456,1.91551 0.385495,3.21025 -0.731111,5.40092 -1.249537,2.42198 -2.578831,2.52832 -5.038024,1.77727 -1.169779,-0.36024 -2.219921,-0.10634 -3.402993,0.20737 -1.316001,0.34429 -2.379436,-0.19275 -3.642265,0.0532 -1.116607,0.22066 -2.671881,0.55565 -3.442871,1.4702 -0.505132,0.58888 -0.9437989,2.42463 -1.9274764,2.38209 0.8241622,-0.13824 1.2894151,0.31638 1.1564857,1.14851 -0.4120811,-0.28845 -0.7975763,-0.60748 -1.1564857,-0.95842"
       id="path4550"
       inkscape:connector-curvature="0" />
  </g>
</svg>
