<?xml version="1.0" encoding="UTF-8" standalone="no"?>
<!-- Created with Inkscape (http://www.inkscape.org/) -->

<svg
   xmlns:dc="http://purl.org/dc/elements/1.1/"
   xmlns:cc="http://creativecommons.org/ns#"
   xmlns:rdf="http://www.w3.org/1999/02/22-rdf-syntax-ns#"
   xmlns:svg="http://www.w3.org/2000/svg"
   xmlns="http://www.w3.org/2000/svg"
   xmlns:sodipodi="http://sodipodi.sourceforge.net/DTD/sodipodi-0.dtd"
   xmlns:inkscape="http://www.inkscape.org/namespaces/inkscape"
   width="33.13538mm"
   height="34.439663mm"
   viewBox="0 0 33.13538 34.439663"
   version="1.1"
   id="svg30944"
   inkscape:version="0.92.0 r15299"
   sodipodi:docname="moldova.svg">
  <defs
     id="defs30938" />
  <sodipodi:namedview
     id="base"
     pagecolor="#ffffff"
     bordercolor="#666666"
     borderopacity="1.0"
     inkscape:pageopacity="0.0"
     inkscape:pageshadow="2"
     inkscape:zoom="0.35"
     inkscape:cx="62.617947"
     inkscape:cy="65.082846"
     inkscape:document-units="mm"
     inkscape:current-layer="layer1"
     showgrid="false"
     fit-margin-top="0"
     fit-margin-left="0"
     fit-margin-right="0"
     fit-margin-bottom="0"
     inkscape:window-width="1920"
     inkscape:window-height="1017"
     inkscape:window-x="1912"
     inkscape:window-y="-8"
     inkscape:window-maximized="1" />
  <metadata
     id="metadata30941">
    <rdf:RDF>
      <cc:Work
         rdf:about="">
        <dc:format>image/svg+xml</dc:format>
        <dc:type
           rdf:resource="http://purl.org/dc/dcmitype/StillImage" />
        <dc:title></dc:title>
      </cc:Work>
    </rdf:RDF>
  </metadata>
  <g
     inkscape:label="Layer 1"
     inkscape:groupmode="layer"
     id="layer1"
     transform="translate(33.576594,-131.61351)">
    <g
       id="md"
       style="fill:#cbe6a3;fill-opacity:1;stroke:#000000;stroke-width:0.10870087;stroke-miterlimit:4;stroke-dasharray:none;stroke-opacity:1"
       transform="matrix(1.3292939,0,0,1.3292939,-1972.395,-322.01834)">
      <title
         id="title2174">Moldova, Republic of</title>
      <path
         inkscape:connector-curvature="0"
         id="md-"
         class="landxx md md-"
         d="m 1458.56,343.294 c 0.69,-0.404 0.65,-0.104 0.93,-0.765 0.19,-0.446 0.91,-0.394 1.28,-0.37 1.1,0.07 2.44,0.164 3.4,-0.558 2,-1.498 3.52,3.326 5.57,2.361 0.24,1.246 1.04,-0.328 1.27,0.964 0.26,-1.237 1.52,-0.74 2.11,-0.05 0.29,0.339 1.06,1.283 1.45,0.91 0.61,-0.588 0.74,0.217 1.2,0.823 1.12,1.462 0.6,1.855 1.64,3.2 0.32,0.357 0.24,1.243 0.58,1.577 0.4,0.447 0.51,-0.551 0.9,-0.07 0.75,0.936 -0.98,4.016 -0.59,2.762 0.68,-2.239 5.73,2.859 3.59,3.618 0.66,0.274 0.77,0.937 1.47,1.152 -1.61,1.704 -4.58,-2 -5.65,0.216 -0.18,-0.428 -0.35,-0.859 -0.5,-1.296 -2.59,0.941 -0.49,2.844 -1.91,4.727 -0.83,1.089 -1.35,1.861 -1.91,3.05 -0.13,0.258 -0.1,0.823 -0.44,0.916 -0.52,0.131 -1.49,-0.321 -1.58,0.596 -0.96,-0.82 -0.62,-1.219 -0.99,-2.243 -1.11,-3.118 0.47,-5.121 0.1,-7.266 -0.25,-1.324 -1.86,-3.784 -2.74,-4.588 -2.02,-1.859 -3.07,-2.984 -4.47,-5.38 -1.13,-1.913 -2.14,-4.15 -4.67,-4.282"
         style="fill:#cbe6a3;fill-opacity:1;fill-rule:evenodd;stroke:#000000;stroke-width:0.10870087;stroke-miterlimit:4;stroke-dasharray:none;stroke-opacity:1" />
      <g
         id="xp"
         style="fill:#cbe6a3;fill-opacity:1;stroke:#000000;stroke-width:0.10870087;stroke-miterlimit:4;stroke-dasharray:none;stroke-opacity:1">
        <path
           inkscape:connector-curvature="0"
           id="xp-"
           class="limitxx md xp"
           d="m 1471.01,344.926 c 0.26,-1.237 1.52,-0.74 2.11,-0.05 0.29,0.339 1.06,1.283 1.45,0.91 0.61,-0.588 0.74,0.217 1.2,0.823 1.12,1.462 0.6,1.855 1.64,3.2 0.32,0.357 0.24,1.243 0.58,1.577 0.4,0.447 0.51,-0.551 0.9,-0.07 0.75,0.936 -0.98,4.016 -0.59,2.762 0.68,-2.239 5.73,2.859 3.59,3.618 -0.1,0.05 -0.47,0.03 -0.6,0 -0.13,-0.03 -2.7,-1.26 -3.45,-1.739 -0.76,-0.479 -0.63,-1.084 -0.66,-1.411 0,-0.328 -1.33,-1.185 -1.48,-1.361 -0.16,-0.176 -0.1,-0.882 -0.1,-1.411 0,-0.529 -0.71,-1.714 -1.06,-2.419 -0.36,-0.706 -0.66,-1.991 -0.96,-2.293 -0.3,-0.303 -0.83,-0.277 -1.29,-0.555 -0.45,-0.277 -0.85,-0.755 -1.08,-1.007 -0.23,-0.252 -0.2,-0.572 -0.2,-0.572 z"
           style="fill:#cbe6a3;fill-opacity:1;fill-rule:evenodd;stroke:#000000;stroke-width:0.10870087;stroke-miterlimit:4;stroke-dasharray:none;stroke-opacity:1" />
        <circle
           id="xp_"
           class="unxx md xp"
           r="4.2337999"
           cy="350.09601"
           cx="1472.1801"
           style="opacity:0;fill:#cbe6a3;fill-opacity:1;stroke:#000000;stroke-width:0.10870087;stroke-miterlimit:4;stroke-dasharray:none;stroke-opacity:1" />
      </g>
    </g>
  </g>
</svg>
