<?xml version="1.0" encoding="UTF-8" standalone="no"?>
<!-- Created with Inkscape (http://www.inkscape.org/) -->

<svg
   xmlns:dc="http://purl.org/dc/elements/1.1/"
   xmlns:cc="http://creativecommons.org/ns#"
   xmlns:rdf="http://www.w3.org/1999/02/22-rdf-syntax-ns#"
   xmlns:svg="http://www.w3.org/2000/svg"
   xmlns="http://www.w3.org/2000/svg"
   xmlns:sodipodi="http://sodipodi.sourceforge.net/DTD/sodipodi-0.dtd"
   xmlns:inkscape="http://www.inkscape.org/namespaces/inkscape"
   width="124.25478mm"
   height="89.013351mm"
   viewBox="0 0 124.25478 89.013351"
   version="1.1"
   id="svg16301"
   inkscape:version="0.92.0 r15299"
   sodipodi:docname="spain.svg">
  <defs
     id="defs16295" />
  <sodipodi:namedview
     id="base"
     pagecolor="#ffffff"
     bordercolor="#666666"
     borderopacity="1.0"
     inkscape:pageopacity="0.0"
     inkscape:pageshadow="2"
     inkscape:zoom="0.35"
     inkscape:cx="-63.474046"
     inkscape:cy="6.6744275"
     inkscape:document-units="mm"
     inkscape:current-layer="layer1"
     showgrid="false"
     fit-margin-top="0"
     fit-margin-left="0"
     fit-margin-right="0"
     fit-margin-bottom="0"
     inkscape:window-width="1920"
     inkscape:window-height="1017"
     inkscape:window-x="1912"
     inkscape:window-y="-8"
     inkscape:window-maximized="1" />
  <metadata
     id="metadata16298">
    <rdf:RDF>
      <cc:Work
         rdf:about="">
        <dc:format>image/svg+xml</dc:format>
        <dc:type
           rdf:resource="http://purl.org/dc/dcmitype/StillImage" />
        <dc:title></dc:title>
      </cc:Work>
    </rdf:RDF>
  </metadata>
  <g
     inkscape:label="Layer 1"
     inkscape:groupmode="layer"
     id="layer1"
     transform="translate(0.21475395,-61.585927)">
    <path
       style="fill:#cbe6a3;fill-opacity:1;fill-rule:evenodd;stroke:#000000;stroke-width:0.14449541;stroke-miterlimit:4;stroke-dasharray:none;stroke-opacity:1"
       d="M 0.68350987,72.040954 C 0.81643926,71.881438 0.88290395,71.721923 0.97595453,71.562408 -0.2602888,71.668751 -0.30016762,70.619938 0.0454488,69.746592 0.59045929,68.33887 1.5874297,68.71506 2.4780566,67.763286 c 1.7014962,-1.842402 5.3969333,-0.974373 7.7763694,-2.037808 -1.9274762,0.07976 -0.6912329,-0.47057 0,-0.861382 -0.4120812,0.15021 -0.8241623,0.277822 -1.2495363,0.382836 C 8.712445,63.99075 12.9396,60.7712 12.9396,62.854203 c 0.638061,-0.382836 1.276122,-0.765673 1.914183,-1.14851 0.159515,1.41304 5.702671,0.768332 5.742549,3.158403 1.688204,-2.185359 6.64647,-0.487851 8.986027,-0.860053 2.007234,-0.319031 2.525659,-0.437338 4.639236,0.06646 2.246507,0.535706 4.532892,1.03552 6.819278,1.422345 3.110547,0.527729 5.968529,0.235285 8.826511,-0.450631 1.80784,-0.43335 3.948003,-0.02659 5.529863,0.927847 2.153456,1.297391 1.834425,-0.501143 3.828366,-0.35758 1.767961,0.119637 3.496043,0.82815 5.224125,1.160474 1.036849,0.200723 4.399963,-0.918542 4.851923,-0.18876 0.505132,0.793589 3.628972,-0.17015 3.070669,1.745363 -0.132929,0.405435 -0.611475,0.890627 -0.252566,1.285427 0.810869,0.921201 0.558303,-0.106343 1.422345,-0.06646 2.725052,0.139576 6.327438,2.706443 7.444045,3.139793 0.545011,0.20737 1.183072,-0.328336 1.741375,-0.119637 0.717819,0.261871 1.196365,1.309355 1.874305,1.169779 1.874304,-0.392142 4.25374,-0.303079 6.526833,0.31903 -0.305738,-0.832138 0,-1.419685 0.478546,-2.009892 1.156485,0.02659 1.980648,0.119636 4.02776,1.383795 1.688203,0.05317 3.25677,0.610146 2.857982,3.401663 2.312975,-0.368214 2.166745,-2.03382 2.326265,-0.88531 0.43867,0.248578 2.75164,1.653642 3.29665,1.474187 0.65135,-0.208699 1.26283,-0.688574 2.00723,-0.392141 1.40905,0.564949 2.92445,1.120594 4.09423,0.174137 0.89062,-0.723136 1.72808,-0.619451 3.86824,-0.390812 0.82416,0.09305 0.15952,1.41038 1.15649,1.265487 0,1.020898 -0.63806,0.708514 -1.22295,1.172438 -0.85075,0.687245 0,2.384753 0,3.274051 -0.13293,2.459193 -5.48999,4.23513 -7.29783,4.986181 -1.36917,0.563621 -1.72808,1.846389 -2.85798,2.383424 -1.36917,0.648695 -3.24347,0.628756 -4.705698,0.99697 -3.549215,0.893286 -5.702671,2.435267 -8.560653,4.414585 2.219921,1.777266 0.13293,2.116236 -1.395758,2.984265 -2.233214,1.274793 -2.658588,4.348119 -4.83863,5.742549 -3.722023,2.37811 -5.038024,9.19207 -1.980648,12.44751 1.861011,1.98198 3.363114,2.58415 0.292445,4.50365 -1.767961,1.11129 -3.123841,1.5792 -4.559478,3.16372 -0.864041,0.93848 -1.635032,2.37544 -2.233214,3.74196 -0.372203,0.85739 -0.797577,1.81847 -0.810869,2.77025 0,0.79358 1.276122,1.86765 0.491838,-0.0399 1.222951,2.00989 -3.735316,2.16143 -4.692407,2.27575 -2.312972,0.27782 -5.51657,2.37678 -6.074873,4.65651 -0.478546,1.95938 -2.100285,5.45144 -4.200569,3.75792 -1.289415,-1.03685 -2.246507,0.35891 -3.309942,0.79625 -1.541981,0.63274 -3.203598,-0.31903 -4.83863,-0.0532 -3.402992,0.55831 -6.792691,0.1675 -10.275442,0.23529 -1.861011,0.0399 -2.273092,0.38284 -3.615679,1.64434 -1.541981,1.44228 -3.575801,0.85074 -5.357054,1.74137 -0.877334,0.44266 -1.754668,3.43224 -2.552245,3.35381 -0.983677,-0.093 -0.731111,1.53533 -2.259799,1.49811 -1.236244,-0.0266 -2.180042,-2.15744 -3.363114,-2.0285 -1.289415,0.14091 -2.273092,-2.55756 -2.57883,-3.5213 1.701496,-0.29909 -0.412081,-1.52736 -0.917213,-1.91551 -1.209657,-0.93449 0.22598,-2.53629 1.395759,-2.87128 -0.731112,-0.23395 -1.090021,0.15952 -1.143193,0.86139 -0.624768,-0.66598 -5.729257,-4.12214 -4.599357,-5.16963 -1.767961,-0.19407 0,0.73776 -1.927476,0.7803 -0.850748,0.0133 -1.90089,0.3403 -2.725052,0.0399 -1.196365,-0.43335 -1.143193,-3.47079 -0.983678,-4.45314 0.146222,-0.85872 0.824162,-1.5021 1.395759,-2.09364 0.704525,-0.72712 0.797576,-1.87031 1.409051,-2.48046 1.435638,-1.4024 2.020527,-0.32036 2.93774,-2.50838 -1.821133,0.6035 -3.296649,-1.81847 -3.349821,-3.35115 -0.132929,-2.38209 2.685174,-3.54389 3.363114,-5.64817 0.358909,-1.1392 -1.80784,-2.66257 -2.312972,-3.66885 -0.425374,-0.84942 0,-1.34524 -0.624768,-2.0737 -0.531717,-0.61147 -1.236243,-1.26548 -1.58186,-2.00989 1.209658,0.33897 2.48578,0.093 3.722023,0.093 1.276122,0 0.930506,-0.75105 1.369173,-1.54464 0.558303,-0.99032 1.67491,-1.12591 0.45196,-4.13942 -0.358909,-0.8893 1.276122,-1.35189 1.435637,-1.43032 0.864041,-0.40942 0.558304,-1.627053 0.518425,-2.364811 0,-0.570267 0.265859,-6.227742 -0.478546,-6.045628 1.342587,-0.324348 1.967355,-1.778596 3.243477,-2.586806 0.744405,-0.466582 3.93471,-3.192964 3.549215,-3.961296 -0.465253,-0.945128 -2.911154,-0.744405 -3.004204,-1.323977 -0.146223,-0.898603 0.518424,-3.379065 -0.438667,-2.548256 -0.651354,0.56362 -5.144368,-0.684587 -5.250711,0.09305 -0.212687,1.623068 -2.831396,1.024886 -3.748609,0.655342 -1.44893,-0.594194 -2.937739,0.09305 -4.3069122,0.58356 -2.8048101,1.010264 -1.090021,-1.896902 0,-2.669222 C 9.0048897,81.33132 8.6592733,80.874043 8.7922027,80.076466 7.9680404,80.862079 6.8514336,80.889994 5.8145843,81.080083 4.4985834,81.319356 3.7275929,82.386779 2.5711072,82.947741 1.520965,80.205408 4.5650481,79.907646 5.2429879,77.778117 4.7511492,78.71394 3.7408858,79.007714 2.7572084,79.023665 c 0.212687,-1.094008 1.2495362,-1.530017 2.1135773,-2.009892 -0.877334,0.384166 -2.180042,0.481204 -2.1135773,-0.861382 0,-0.957092 1.5552738,-1.322648 1.728082,-2.29702 C 3.6345423,74.64763 2.2919555,74.569202 1.8001167,75.768225 0.84302514,74.385759 2.3717131,73.27314 3.3288047,72.514113 2.3584202,73.295738 1.1221769,73.511084 0.74997456,72.040885"
       class="landxx es eu"
       id="path5998"
       inkscape:connector-curvature="0" />
    <path
       style="fill:#cbe6a3;fill-opacity:1;fill-rule:evenodd;stroke:#000000;stroke-width:0.14449541;stroke-miterlimit:4;stroke-dasharray:none;stroke-opacity:1"
       d="m 96.007175,117.98135 c -1.914183,-0.34694 -1.183071,-2.10028 0.13293,-2.76227 0.611475,-0.31239 1.395758,-0.41474 1.940769,0.0798 0.917213,0.84144 -1.648325,1.8198 -2.03382,2.67852"
       id="path6006"
       inkscape:connector-curvature="0" />
    <path
       style="fill:#cbe6a3;fill-opacity:1;fill-rule:evenodd;stroke:#000000;stroke-width:0.14449541;stroke-miterlimit:4;stroke-dasharray:none;stroke-opacity:1"
       d="m 96.100226,120.17469 c -0.305738,-1.09933 0,-1.29208 0.957092,-0.57426 -0.319031,0.19142 -0.638061,0.38284 -0.957092,0.57426"
       id="path6008"
       inkscape:connector-curvature="0" />
    <path
       style="fill:#cbe6a3;fill-opacity:1;fill-rule:evenodd;stroke:#000000;stroke-width:0.14449541;stroke-miterlimit:4;stroke-dasharray:none;stroke-opacity:1"
       d="m 114.19192,111.28171 c -1.79455,2.02053 -1.62174,1.0076 -3.7752,0.658 -2.28638,-0.37087 -0.7577,-2.8314 -3.37641,-1.70548 -2.32626,0.9983 -0.41208,-1.80784 0.25257,-2.29171 2.00723,-1.45292 4.09423,-2.10427 6.42049,-2.88058 -0.97038,0.2765 -1.36917,1.49546 -0.43867,2.16409 0.71782,0.52109 1.74138,-0.19939 2.41932,0.33233 0.91721,0.72845 -1.43564,2.9178 -1.5021,3.72335"
       id="path6010"
       inkscape:connector-curvature="0" />
    <path
       style="fill:#cbe6a3;fill-opacity:1;fill-rule:evenodd;stroke:#000000;stroke-width:0.14449541;stroke-miterlimit:4;stroke-dasharray:none;stroke-opacity:1"
       d="m 119.17677,104.67512 c 1.71479,-1.62706 4.58606,-0.38284 4.78546,1.91418 -1.22295,0.19541 -4.13411,-0.80289 -4.78546,-1.91418"
       id="path6012"
       inkscape:connector-curvature="0" />
  </g>
</svg>
