<?xml version="1.0" encoding="UTF-8" standalone="no"?>
<!-- Created with Inkscape (http://www.inkscape.org/) -->

<svg
   xmlns:dc="http://purl.org/dc/elements/1.1/"
   xmlns:cc="http://creativecommons.org/ns#"
   xmlns:rdf="http://www.w3.org/1999/02/22-rdf-syntax-ns#"
   xmlns:svg="http://www.w3.org/2000/svg"
   xmlns="http://www.w3.org/2000/svg"
   xmlns:sodipodi="http://sodipodi.sourceforge.net/DTD/sodipodi-0.dtd"
   xmlns:inkscape="http://www.inkscape.org/namespaces/inkscape"
   width="52.205193mm"
   height="40.421844mm"
   viewBox="0 0 52.205193 40.421844"
   version="1.1"
   id="svg20967"
   inkscape:version="0.92.0 r15299"
   sodipodi:docname="azerbaijan.svg">
  <defs
     id="defs20961" />
  <sodipodi:namedview
     id="base"
     pagecolor="#ffffff"
     bordercolor="#666666"
     borderopacity="1.0"
     inkscape:pageopacity="0.0"
     inkscape:pageshadow="2"
     inkscape:zoom="0.35"
     inkscape:cx="640.0841"
     inkscape:cy="-32.183683"
     inkscape:document-units="mm"
     inkscape:current-layer="layer1"
     showgrid="false"
     fit-margin-top="0"
     fit-margin-left="0"
     fit-margin-right="0"
     fit-margin-bottom="0"
     inkscape:window-width="1920"
     inkscape:window-height="1017"
     inkscape:window-x="1912"
     inkscape:window-y="-8"
     inkscape:window-maximized="1" />
  <metadata
     id="metadata20964">
    <rdf:RDF>
      <cc:Work
         rdf:about="">
        <dc:format>image/svg+xml</dc:format>
        <dc:type
           rdf:resource="http://purl.org/dc/dcmitype/StillImage" />
        <dc:title></dc:title>
      </cc:Work>
    </rdf:RDF>
  </metadata>
  <g
     inkscape:label="Layer 1"
     inkscape:groupmode="layer"
     id="layer1"
     transform="translate(186.36451,-99.896222)">
    <g
       id="az"
       class="landxx coastxx az"
       style="fill:#cbe6a3;fill-opacity:1;fill-rule:evenodd;stroke:#000000;stroke-width:0.10870087;stroke-miterlimit:4;stroke-dasharray:none;stroke-opacity:1"
       transform="matrix(1.3292939,0,0,1.3292939,-2302.4369,-427.70798)">
      <title
         id="title1623">Azerbaijan</title>
      <g
         id="az-"
         class="landxx coastxx az az-"
         style="fill:#cbe6a3;fill-opacity:1;fill-rule:evenodd;stroke:#000000;stroke-width:0.10870087;stroke-miterlimit:4;stroke-dasharray:none;stroke-opacity:1">
        <path
           inkscape:connector-curvature="0"
           id="path5796"
           d="m 1591.91,402.427 c 2.12,-1.62 3.41,-1.363 5.29,0.255 1.2,1.019 2.1,0.436 3.42,0.762 1.11,0.274 1.53,1.014 2.49,0.535 2.15,-1.07 -1.72,-3.065 -2.11,-3.286 -0.94,-0.536 -1.31,-1.301 -1.25,-1.695 0.1,-0.41 1.66,-1.349 0.92,-2.021 0.61,-0.176 3.47,1.168 4.35,2.319 0.59,0.775 1.79,0.843 2.09,1.454 0.43,0.861 0.69,1.69 1.63,2 0.84,0.276 1.78,0.531 2.67,0.512 0.8,-0.02 1.24,-1.141 1.59,-1.811 0.16,-0.321 3.38,-2.828 2.68,-3.725 1.54,0.5 3.18,2.322 4.02,3.605 1.21,1.84 2.21,3.483 3.74,5.107 0.24,0.09 0.48,0.189 0.72,0.288 0,0.264 0,0.528 0.1,0.793 0.69,0.769 1.41,1.127 2.46,1.21 2.28,0.182 3.47,0.864 4.38,2.965 -0.82,-1.139 -3.13,-1.627 -4.32,-0.856 -1.7,1.107 -1.76,1.891 -2.09,3.744 -0.3,1.665 0,2.781 0.34,4.307 0.12,0.543 -0.68,1.108 -0.74,1.751 -0.1,0.976 0.35,1.728 -0.82,1.494 1.22,-1.151 -1.26,-1.803 -1,-0.487 0.36,1.843 -0.41,3.655 0.25,5.597 -0.54,0.01 -1.42,0.09 -1.89,-0.238 -1.71,-1.177 -4.73,-2.901 -4.55,-3.929 0.1,-0.53 1.38,-0.499 1.45,-0.913 0.13,-0.868 -1.91,-2.458 0.27,-3.27 -1.91,-2.188 -3.59,-3.669 -5.54,-1.613 -1.9,2.009 -2.99,1.815 -3.24,2.544 -1.56,2.314 -2.37,2.467 -3.51,3.184 -0.46,-0.577 -1.14,-2.663 0.12,-2.82 -0.34,-0.415 -1.91,-1.122 -1.64,-1.823 0.12,-0.304 0.77,-0.478 0.28,-0.847 -0.37,-0.288 -1.02,-0.586 -1.43,-0.49 -1.54,0.354 -3.58,-2.349 -5.35,-3.39 0.82,-0.397 1.99,-0.08 2.44,-1.091 0.48,-1.074 -0.9,-1.378 -1.62,-1.74 -1.18,-0.587 -4.58,-3.147 -1.82,-4.01 -0.66,-1.782 -2.71,-1.798 -4.04,-2.808 1.99,0.32 -0.54,-1.134 -0.71,-1.563"
           style="fill:#cbe6a3;fill-opacity:1;stroke:#000000;stroke-width:0.10870087;stroke-miterlimit:4;stroke-dasharray:none;stroke-opacity:1" />
        <path
           inkscape:connector-curvature="0"
           id="path5798"
           d="m 1592.26,416.156 c 1.15,-0.253 3.09,-0.808 2.96,1.08 0.85,-0.499 1.44,0.691 2.39,0.396 0.48,-0.149 1.85,-0.485 2.23,0.05 0.76,1.099 -0.28,1.322 1.25,2.086 0.64,0.316 1.4,2.912 1.99,3.581 -4.27,-0.247 -4.35,-0.694 -6.35,-2.337 -1.67,-1.364 -3.61,-2.804 -4.47,-4.854"
           style="fill:#cbe6a3;fill-opacity:1;stroke:#000000;stroke-width:0.10870087;stroke-miterlimit:4;stroke-dasharray:none;stroke-opacity:1" />
      </g>
      <g
         id="xn"
         style="fill:#cbe6a3;fill-opacity:1;stroke:#000000;stroke-width:0.10870087;stroke-miterlimit:4;stroke-dasharray:none;stroke-opacity:1">
        <path
           inkscape:connector-curvature="0"
           id="xn-"
           class="limitxx az xn"
           d="m 1609.19,419.825 c -1.56,2.314 -2.37,2.467 -3.51,3.184 -0.46,-0.577 -1.14,-2.663 0.12,-2.82 -0.34,-0.415 -1.91,-1.122 -1.64,-1.823 0.12,-0.304 0.77,-0.478 0.28,-0.847 -0.37,-0.288 -1.02,-0.586 -1.43,-0.49 -1.54,0.354 -3.58,-2.349 -5.35,-3.39 0.82,-0.397 1.99,-0.08 2.44,-1.091 0.17,-0.38 0.11,-0.663 -0.1,-0.887 0,0 1,0.465 1.14,0.485 0.14,0.02 1.23,-1.013 1.23,-1.013 0,0 -0.18,-0.561 0.1,-0.909 0.19,-0.268 0.7,-0.462 0.78,-0.454 0.2,0.02 1.15,1.753 1.31,1.889 0.15,0.136 2.06,1.461 2.06,1.616 0,0.156 0.41,1.422 1.05,1.753 0.65,0.331 1.06,1.013 1.06,1.013 0,0 -0.34,0.545 -0.18,1.324 0.16,0.779 0.88,1.421 0.92,1.616 0,0.195 -0.26,0.838 -0.28,0.844 z"
           style="fill:#cbe6a3;fill-opacity:1;fill-rule:evenodd;stroke:#000000;stroke-width:0.10870087;stroke-miterlimit:4;stroke-dasharray:none;stroke-opacity:1" />
        <circle
           id="xn_"
           class="unxx az xn"
           r="4.2337999"
           cy="412.58301"
           cx="1605"
           style="opacity:0;fill:#cbe6a3;fill-opacity:1;stroke:#000000;stroke-width:0.10870087;stroke-miterlimit:4;stroke-dasharray:none;stroke-opacity:1" />
      </g>
    </g>
  </g>
</svg>
