<?xml version="1.0" encoding="UTF-8" standalone="no"?>
<!-- Created with Inkscape (http://www.inkscape.org/) -->

<svg
   xmlns:dc="http://purl.org/dc/elements/1.1/"
   xmlns:cc="http://creativecommons.org/ns#"
   xmlns:rdf="http://www.w3.org/1999/02/22-rdf-syntax-ns#"
   xmlns:svg="http://www.w3.org/2000/svg"
   xmlns="http://www.w3.org/2000/svg"
   xmlns:sodipodi="http://sodipodi.sourceforge.net/DTD/sodipodi-0.dtd"
   xmlns:inkscape="http://www.inkscape.org/namespaces/inkscape"
   width="33.344112mm"
   height="18.756966mm"
   viewBox="0 0 33.344112 18.756966"
   version="1.1"
   id="svg40565"
   inkscape:version="0.92.0 r15299"
   sodipodi:docname="bhutan.svg">
  <defs
     id="defs40559" />
  <sodipodi:namedview
     id="base"
     pagecolor="#ffffff"
     bordercolor="#666666"
     borderopacity="1.0"
     inkscape:pageopacity="0.0"
     inkscape:pageshadow="2"
     inkscape:zoom="0.35"
     inkscape:cx="121.58392"
     inkscape:cy="-693.12519"
     inkscape:document-units="mm"
     inkscape:current-layer="layer1"
     showgrid="false"
     fit-margin-top="0"
     fit-margin-left="0"
     fit-margin-right="0"
     fit-margin-bottom="0"
     inkscape:window-width="1920"
     inkscape:window-height="1017"
     inkscape:window-x="1912"
     inkscape:window-y="-8"
     inkscape:window-maximized="1" />
  <metadata
     id="metadata40562">
    <rdf:RDF>
      <cc:Work
         rdf:about="">
        <dc:format>image/svg+xml</dc:format>
        <dc:type
           rdf:resource="http://purl.org/dc/dcmitype/StillImage" />
        <dc:title></dc:title>
      </cc:Work>
    </rdf:RDF>
  </metadata>
  <g
     inkscape:label="Layer 1"
     inkscape:groupmode="layer"
     id="layer1"
     transform="translate(49.178009,53.313007)">
    <path
       inkscape:connector-curvature="0"
       id="bt"
       class="landxx bt"
       d="m -49.105761,-39.936392 c 0,-0.780283 0.146238,-0.955754 0.624772,-1.365185 0.731116,-0.61545 0.292451,-1.894227 1.076726,-2.471145 1.701498,-1.24156 2.36614,-4.142096 3.549234,-5.860876 1.302704,-1.882275 3.110546,-3.650223 5.569739,-3.606361 0.598168,0 2.578705,0.269839 2.83136,0.965077 0.212736,0.631392 -0.372166,1.524688 0.491921,1.799858 1.488665,0.475881 3.256759,0.299096 4.811874,0.299096 0.930537,0 1.435846,1.507407 2.459364,0.591523 0.837313,-0.743067 1.050049,-1.07938 2.259772,-0.713834 1.568501,0.479873 3.535945,0.883998 3.509412,2.772918 0,2.124195 0,4.277672 2.844673,4.112839 2.764838,-0.158189 2.259772,2.238522 2.073569,3.811088 0,0.648675 1.648338,2.417986 0.904005,2.783531 -1.768092,0.865378 -3.469495,1.040849 -5.224201,0.37886 -0.731189,-0.273855 -2.352752,0.704512 -3.21684,0.757696 -1.302703,0.07974 -2.671856,0.106343 -3.97456,0.06645 -1.993973,-0.05316 -3.482882,-1.871638 -5.317182,-0.789606 -1.409071,0.841451 -3.429576,2.266466 -5.224177,1.60713 -1.55526,-0.568935 -2.406009,-1.854357 -4.320194,-1.697507 -3.376417,0.276484 -4.426539,-1.567236 -5.729267,-3.445544"
       style="fill:#cbe6a3;fill-opacity:1;fill-rule:evenodd;stroke:#000000;stroke-width:0.14449541;stroke-miterlimit:4;stroke-dasharray:none;stroke-opacity:1">
      <title
         id="title2491">Bhutan</title>
    </path>
  </g>
</svg>
