<?xml version="1.0" encoding="UTF-8" standalone="no"?>
<!-- Created with Inkscape (http://www.inkscape.org/) -->

<svg
   xmlns:dc="http://purl.org/dc/elements/1.1/"
   xmlns:cc="http://creativecommons.org/ns#"
   xmlns:rdf="http://www.w3.org/1999/02/22-rdf-syntax-ns#"
   xmlns:svg="http://www.w3.org/2000/svg"
   xmlns="http://www.w3.org/2000/svg"
   xmlns:sodipodi="http://sodipodi.sourceforge.net/DTD/sodipodi-0.dtd"
   xmlns:inkscape="http://www.inkscape.org/namespaces/inkscape"
   width="94.702354mm"
   height="46.696999mm"
   viewBox="0 0 94.702354 46.696999"
   version="1.1"
   id="svg35881"
   inkscape:version="0.92.0 r15299"
   sodipodi:docname="kyrgyzstan.svg">
  <defs
     id="defs35875" />
  <sodipodi:namedview
     id="base"
     pagecolor="#ffffff"
     bordercolor="#666666"
     borderopacity="1.0"
     inkscape:pageopacity="0.0"
     inkscape:pageshadow="2"
     inkscape:zoom="0.35"
     inkscape:cx="178.96508"
     inkscape:cy="88.246292"
     inkscape:document-units="mm"
     inkscape:current-layer="layer1"
     showgrid="false"
     fit-margin-top="0"
     fit-margin-left="0"
     fit-margin-right="0"
     fit-margin-bottom="0"
     inkscape:window-width="1920"
     inkscape:window-height="1017"
     inkscape:window-x="1912"
     inkscape:window-y="-8"
     inkscape:window-maximized="1" />
  <metadata
     id="metadata35878">
    <rdf:RDF>
      <cc:Work
         rdf:about="">
        <dc:format>image/svg+xml</dc:format>
        <dc:type
           rdf:resource="http://purl.org/dc/dcmitype/StillImage" />
        <dc:title></dc:title>
      </cc:Work>
    </rdf:RDF>
  </metadata>
  <g
     inkscape:label="Layer 1"
     inkscape:groupmode="layer"
     id="layer1"
     transform="translate(64.360107,-125.48483)">
    <path
       inkscape:connector-curvature="0"
       id="kg"
       class="landxx kg"
       d="m -62.587389,162.07702 c 1.502101,-2.62269 4.466433,-1.90487 5.995113,-1.22827 0.651376,0.28846 4.253746,1.43565 2.857989,2.66523 1.502101,-0.34427 3.030805,-2.63863 3.84166,-3.33652 1.541996,-1.34391 1.861026,-1.64832 3.974585,-0.73243 0.545008,0.23793 1.050146,0.81884 1.568575,1.00626 0.837459,0.30043 0.717825,-1.21364 1.488811,0.0266 0.451954,0.7298 1.993949,-0.53836 2.911148,-0.50911 -2.871279,-1.52736 2.685171,-1.85703 3.256782,-1.81848 -0.372213,-0.72313 -0.771009,-1.3479 -0.677955,-2.19999 1.581865,0.68061 2.764936,1.08605 3.615682,-0.78028 0.199398,-0.45728 2.87128,-1.30803 1.861026,-1.91553 -0.518427,-0.31635 -2.312979,-0.47719 -2.97762,-0.4639 -2.180059,0.0399 -3.482761,-2.84336 -5.835611,-1.43431 -0.132923,-2.40071 -1.51539,-1.34391 -2.857988,-2.53896 -1.395757,-1.23226 -3.190309,-2.40469 -3.948005,-3.77784 0.146238,0.79357 0.571613,1.84637 0.159528,2.62933 -0.279161,0.42538 -0.691246,0.63407 -1.20965,0.62344 0.252557,0.54369 0.252557,1.08605 0,1.62838 -1.688208,-1.58452 -5.250732,0.3948 -6.327458,-2.25846 -0.558298,-1.40109 -1.19636,-1.55925 -2.578828,-1.13921 -1.116596,0.34162 -2.392719,-1.07407 -3.535919,-1.10065 0.478558,-3.25012 5.955243,-5.78642 8.042222,-7.75245 -2.818094,-1.45956 -4.639226,0.0798 -3.017492,-3.5173 0.425375,-0.95179 0,-1.67492 1.103306,-2.29835 1.129911,-0.64736 2.632012,-0.28316 3.602394,-0.92652 2.033819,-1.34791 7.138314,0.56229 9.185423,1.20434 0.731116,0.15819 1.382467,0.4586 1.96737,0.89992 1.209649,0.88665 1.781237,0.47456 3.137123,0.61812 1.355889,0.14091 2.618698,1.81184 4.027771,1.33995 -1.395783,-1.31069 -2.671882,-6.13206 -0.558324,-7.28587 0.50514,-0.27916 4.572778,-1.25353 4.094242,-2.09231 2.791516,0.91455 5.556451,2.39141 8.175146,3.70341 1.023567,0.50779 5.702663,2.17073 6.952208,1.56059 0.957093,-0.47057 0.132924,-1.62706 1.43565,-1.62706 1.914163,0 3.8549502,0.72181 5.7558232,0.47456 1.382466,-0.18077 2.671881,-0.85871 4.094242,-0.85871 1.48881,0 2.73833095,1.10197 4.253745,0.64736 1.355863,-0.4041 2.911147,0.0134 4.253723,0.2539 1.741392,0.30706 3.429574,-0.0399 5.1709658,0.0797 2.91115,0.18611 7.218056,1.26283 9.491141,3.13715 0.983697,0.80421 1.369177,1.88758 2.844697,1.83308 1.249545,-0.0532 2.02053,-0.0266 3.110548,0.59819 1.342596,0.77498 3.509338,1.97533 4.147402,3.49206 0.186105,0.44397 -3.549211,1.70815 -4.280326,2.31031 -2.32627,1.93545 -5.955245,2.79151 -8.573942,4.51961 -1.209673,0.80287 -1.900894,1.2615 -1.874317,2.69048 0,1.22428 -0.98367,2.63997 -2.645299,2.49775 -1.422339,-0.11964 -2.578827,0.27517 -4.0144538,0.43866 -1.608444,0.18343 -3.083967,-0.30574 -4.665832,-0.35493 -2.100267,-0.0665 -2.020527,2.50573 -2.273085,4.29761 -0.677932,4.62995 -3.057385,2.96966 -5.755847,3.7433 -3.097254,0.88796 -2.605407,-2.10825 -3.974584,-3.21823 -0.784275,-0.63806 -2.113584,1.3479 -2.7250652,1.70549 -1.422337,0.84544 -2.43259,-0.11963 -3.974584,-0.43733 -0.146214,0.66065 -0.132924,1.29871 0.199398,1.91419 -1.249545,0.0266 -2.007241,1.14851 -2.671882,2.04046 -0.957093,1.31201 -2.951017,0.51841 -3.948004,1.90621 -1.422336,1.97267 2.206636,4.41324 -0.239268,5.92997 -1.010253,0.62478 -2.286376,-0.52242 -3.363103,0.34695 -1.262832,1.02754 -2.871277,0.83082 -4.426561,0.64337 -1.754658,-0.214 -5.543161,-0.57957 -5.92864,2.1508 -2.246506,-2.18668 -3.894845,-0.68857 -5.250708,-1.87828 -0.132948,0.32699 -0.132948,-0.71384 -0.611482,-1.20834 -0.518429,0.0399 -1.262834,-0.14621 -1.767973,-0.24326 -0.584878,-0.37219 -0.239267,-0.989 -0.810855,-1.31334 -0.412084,-0.23661 -3.974608,2.66259 -5.476709,2.43527 -1.116596,-0.17016 -1.289414,-0.47191 -2.007215,-1.37317 -0.996987,-1.25884 -2.804829,-0.73111 -4.080953,-0.24725 0,-0.35092 -0.132923,-0.70052 -0.132923,-1.0528 -0.770985,0.56229 -1.887581,0.70585 -3.150415,0.54769 -2.977622,-0.37621 -3.761897,1.16179 -4.984861,0.36953 -1.342573,-0.87202 -1.741368,-6.58267 0.132923,-4.26703 0,-0.68857 0.292451,-1.37448 0.385505,-1.64965"
       style="fill:#cbe6a3;fill-opacity:1;fill-rule:evenodd;stroke:#000000;stroke-width:0.14449541;stroke-miterlimit:4;stroke-dasharray:none;stroke-opacity:1">
      <title
         id="title917">Kyrgyzstan</title>
    </path>
  </g>
</svg>
