<?xml version="1.0" encoding="UTF-8" standalone="no"?>
<!-- Created with Inkscape (http://www.inkscape.org/) -->

<svg
   xmlns:dc="http://purl.org/dc/elements/1.1/"
   xmlns:cc="http://creativecommons.org/ns#"
   xmlns:rdf="http://www.w3.org/1999/02/22-rdf-syntax-ns#"
   xmlns:svg="http://www.w3.org/2000/svg"
   xmlns="http://www.w3.org/2000/svg"
   xmlns:sodipodi="http://sodipodi.sourceforge.net/DTD/sodipodi-0.dtd"
   xmlns:inkscape="http://www.inkscape.org/namespaces/inkscape"
   width="16.130663mm"
   height="18.575113mm"
   viewBox="0 0 16.130663 18.575113"
   version="1.1"
   id="svg39255"
   inkscape:version="0.92.0 r15299"
   sodipodi:docname="lebanon.svg">
  <defs
     id="defs39249" />
  <sodipodi:namedview
     id="base"
     pagecolor="#ffffff"
     bordercolor="#666666"
     borderopacity="1.0"
     inkscape:pageopacity="0.0"
     inkscape:pageshadow="2"
     inkscape:zoom="0.35"
     inkscape:cx="30.48302"
     inkscape:cy="35.102558"
     inkscape:document-units="mm"
     inkscape:current-layer="layer1"
     showgrid="false"
     fit-margin-top="0"
     fit-margin-left="0"
     fit-margin-right="0"
     fit-margin-bottom="0"
     inkscape:window-width="1920"
     inkscape:window-height="1017"
     inkscape:window-x="1912"
     inkscape:window-y="-8"
     inkscape:window-maximized="1" />
  <metadata
     id="metadata39252">
    <rdf:RDF>
      <cc:Work
         rdf:about="">
        <dc:format>image/svg+xml</dc:format>
        <dc:type
           rdf:resource="http://purl.org/dc/dcmitype/StillImage" />
        <dc:title></dc:title>
      </cc:Work>
    </rdf:RDF>
  </metadata>
  <g
     inkscape:label="Layer 1"
     inkscape:groupmode="layer"
     id="layer1"
     transform="translate(25.074228,-139.54577)">
    <g
       id="lb"
       style="fill:#cbe6a3;fill-opacity:1;stroke:#000000;stroke-width:0.10870087;stroke-miterlimit:4;stroke-dasharray:none;stroke-opacity:1"
       transform="matrix(1.3292939,0,0,1.3292939,-2055.9197,-471.22767)">
      <title
         id="title2184">Lebanon</title>
      <path
         inkscape:connector-curvature="0"
         id="lb-"
         class="landxx lb"
         d="m 1529.12,473.254 c 1.59,-1.854 1.53,-5.199 2.88,-7.283 0.67,-1.032 -0.11,-2.426 0.66,-3.421 0.6,-0.774 2.23,-1.63 1.71,-2.832 0.61,0.13 1.55,0.393 2.14,0.04 1.36,-0.81 0.4,0.732 0.6,1.196 0,-0.06 0.89,0.282 0.99,0.375 0.68,0.659 0.3,0.513 0.82,1.463 1.1,2.021 -2.43,2.345 -1.02,4.052 -1.43,-0.427 -3.86,0.572 -2.16,2.16 -0.64,0.146 -2.79,2.234 -2.88,2.88 -0.16,-0.08 -0.28,-0.203 -0.36,-0.36 -0.24,0.465 -0.25,1.016 -0.51,1.491 -0.54,1.005 -2.09,-0.393 -2.87,0.238"
         style="fill:#cbe6a3;fill-opacity:1;fill-rule:evenodd;stroke:#000000;stroke-width:0.10870087;stroke-miterlimit:4;stroke-dasharray:none;stroke-opacity:1" />
      <circle
         id="lb."
         class="circlexx lb"
         r="6.0130301"
         cy="465.996"
         cx="1533.83"
         style="opacity:0;fill:#cbe6a3;fill-opacity:1;stroke:#000000;stroke-width:0.10870087;stroke-miterlimit:4;stroke-dasharray:none;stroke-opacity:1" />
    </g>
  </g>
</svg>
