<?xml version="1.0" encoding="UTF-8" standalone="no"?>
<!-- Created with Inkscape (http://www.inkscape.org/) -->

<svg
   xmlns:dc="http://purl.org/dc/elements/1.1/"
   xmlns:cc="http://creativecommons.org/ns#"
   xmlns:rdf="http://www.w3.org/1999/02/22-rdf-syntax-ns#"
   xmlns:svg="http://www.w3.org/2000/svg"
   xmlns="http://www.w3.org/2000/svg"
   xmlns:sodipodi="http://sodipodi.sourceforge.net/DTD/sodipodi-0.dtd"
   xmlns:inkscape="http://www.inkscape.org/namespaces/inkscape"
   width="34.760201mm"
   height="38.158043mm"
   viewBox="0 0 34.760201 38.158043"
   version="1.1"
   id="svg8987"
   inkscape:version="0.92.0 r15299"
   sodipodi:docname="taiwan.svg">
  <defs
     id="defs8981" />
  <sodipodi:namedview
     id="base"
     pagecolor="#ffffff"
     bordercolor="#666666"
     borderopacity="1.0"
     inkscape:pageopacity="0.0"
     inkscape:pageshadow="2"
     inkscape:zoom="1.979899"
     inkscape:cx="70.818448"
     inkscape:cy="64.003623"
     inkscape:document-units="mm"
     inkscape:current-layer="layer1"
     showgrid="false"
     fit-margin-top="0"
     fit-margin-left="0"
     fit-margin-right="0"
     fit-margin-bottom="0"
     inkscape:window-width="1920"
     inkscape:window-height="1017"
     inkscape:window-x="1912"
     inkscape:window-y="-8"
     inkscape:window-maximized="1" />
  <metadata
     id="metadata8984">
    <rdf:RDF>
      <cc:Work
         rdf:about="">
        <dc:format>image/svg+xml</dc:format>
        <dc:type
           rdf:resource="http://purl.org/dc/dcmitype/StillImage" />
        <dc:title></dc:title>
      </cc:Work>
    </rdf:RDF>
  </metadata>
  <g
     inkscape:label="Layer 1"
     inkscape:groupmode="layer"
     id="layer1"
     transform="translate(34.38898,-129.75431)">
    <g
       id="tw"
       class="landxx coastxx tw"
       style="fill:#cbe6a3;fill-opacity:1;fill-rule:evenodd;stroke:#000000;stroke-width:0.10870087;stroke-miterlimit:4;stroke-dasharray:none;stroke-opacity:1"
       transform="matrix(1.3292939,0,0,1.3292939,-2896.0195,-589.03881)">
      <title
         id="title290">Taiwan, Province of China</title>
      <path
         inkscape:connector-curvature="0"
         id="path2738"
         d="m 2153.73,547.335 c -0.26,0.216 -0.54,0.384 -0.86,0.504 0.45,0.267 0.93,0.339 1.44,0.217 -0.17,-0.26 -0.36,-0.5 -0.58,-0.721"
         style="fill:#cbe6a3;fill-opacity:1;stroke:#000000;stroke-width:0.10870087;stroke-miterlimit:4;stroke-dasharray:none;stroke-opacity:1" />
      <path
         inkscape:connector-curvature="0"
         id="path2746"
         d="m 2167.91,555.903 c 0.19,0.717 0.58,1.315 0.34,2.076 -0.19,0.624 -0.39,1.169 0.15,1.7 1,0.976 1.33,2.582 1.97,3.848 0.74,1.471 2.34,1.896 3.29,3.167 0.3,0.408 0.94,3.044 1.69,2.651 0.98,-0.507 0.4,-2.174 0.29,-2.985 -0.18,-1.308 0.19,-2.287 0.93,-3.354 1.77,-2.551 2.09,-7.293 1.89,-10.309 -0.1,-0.624 -0.46,-1.561 -0.25,-2.175 0.2,-0.617 0.53,-0.972 0.6,-1.652 0.16,-1.583 -0.38,-2.74 -0.38,-4.271 0,-0.792 0.79,-1.433 0.1,-2.078 -0.44,-0.394 -2.71,-2.193 -3.28,-1.623 -0.91,0.903 -2.71,1.127 -3.22,2.396 -0.52,1.309 -0.37,2.075 -1.3,3.197 -0.86,1.024 -1.05,2.491 -1.39,3.733 -0.5,1.832 -1.83,3.698 -1.4,5.679"
         style="fill:#cbe6a3;fill-opacity:1;stroke:#000000;stroke-width:0.10870087;stroke-miterlimit:4;stroke-dasharray:none;stroke-opacity:1" />
    </g>
  </g>
</svg>
