<svg xmlns="http://www.w3.org/2000/svg" width="126.199" height="105.921" viewBox="0 0 33.390202 28.024899"><path class="landxx am" d="M.044 1.524c1.024-.066 3.935.705 5.637.014 2.446-.976 5.37-.51 7.949-.483-.133-.51.664-.9 1.183-.978.306.303 3.523 2.575.917 2.031 1.768 1.344 4.493 1.364 5.37 3.734-3.442 1.077.386 4.14 1.888 5.033.784.47 2.566.783 2.778 1.853.412 2.08-2.22 1.75-3.336 2.206 1.156.443 5.57 4.972 6.753 4.495.611-.244 3.456.655 2.379 1.301-1.595.961 1.143 2.257 1.688 2.914-1.675.206-.73 3.019-.133 3.786-.2.166-3.403.845-3.589.337-1.05-1.708-1.648-4.233-3.403-5.221-.758-.424-.16-2.23-1.342-2.478-.745-.154-1.303-.133-2.393.184-1.383.39-2.047-1.213-3.217-.532.173-2.764-2.871-1.49-3.935-1.438-1.475-1.104-3.416-3.851-5.463-3.789-2.114.067-3.922-.027-5.822-.993.744-.504.279-1.515 0-2.224-.599-1.319-.638-1.602-.147-2.786C4.71 6.28.816 5.508.071 1.494" fill="#c83737" fill-rule="evenodd" stroke="#000" stroke-width=".144"><title>Armenia</title></path></svg>