<?xml version="1.0" encoding="UTF-8" standalone="no"?>
<!-- Created with Inkscape (http://www.inkscape.org/) -->

<svg
   xmlns:dc="http://purl.org/dc/elements/1.1/"
   xmlns:cc="http://creativecommons.org/ns#"
   xmlns:rdf="http://www.w3.org/1999/02/22-rdf-syntax-ns#"
   xmlns:svg="http://www.w3.org/2000/svg"
   xmlns="http://www.w3.org/2000/svg"
   xmlns:sodipodi="http://sodipodi.sourceforge.net/DTD/sodipodi-0.dtd"
   xmlns:inkscape="http://www.inkscape.org/namespaces/inkscape"
   width="33.8237mm"
   height="22.094147mm"
   viewBox="0 0 33.8237 22.094147"
   version="1.1"
   id="svg15720"
   inkscape:version="0.92.0 r15299"
   sodipodi:docname="belgium.svg">
  <defs
     id="defs15714" />
  <sodipodi:namedview
     id="base"
     pagecolor="#ffffff"
     bordercolor="#666666"
     borderopacity="1.0"
     inkscape:pageopacity="0.0"
     inkscape:pageshadow="2"
     inkscape:zoom="0.35"
     inkscape:cx="182.49023"
     inkscape:cy="390.32408"
     inkscape:document-units="mm"
     inkscape:current-layer="layer1"
     showgrid="false"
     fit-margin-top="0"
     fit-margin-left="0"
     fit-margin-right="0"
     fit-margin-bottom="0"
     inkscape:window-width="1920"
     inkscape:window-height="1017"
     inkscape:window-x="1912"
     inkscape:window-y="-8"
     inkscape:window-maximized="1" />
  <metadata
     id="metadata15717">
    <rdf:RDF>
      <cc:Work
         rdf:about="">
        <dc:format>image/svg+xml</dc:format>
        <dc:type
           rdf:resource="http://purl.org/dc/dcmitype/StillImage" />
        <dc:title></dc:title>
      </cc:Work>
    </rdf:RDF>
  </metadata>
  <g
     inkscape:label="Layer 1"
     inkscape:groupmode="layer"
     id="layer1"
     transform="translate(65.292802,-230.01244)">
    <path
       inkscape:connector-curvature="0"
       id="be"
       class="landxx be eu"
       d="m -65.259459,234.61274 c 2.36614,-1.23093 5.224128,-2.47249 7.816245,-3.15974 -1.222939,1.30404 1.701499,0.989 2.698461,1.23358 0.850749,0.20472 1.276124,0.56762 2.206637,0.31637 1.15649,-0.31104 2.472483,-2.25181 2.871278,-0.43866 -0.146238,-0.40809 -0.279161,-0.82283 -0.385505,-1.24555 0.877329,0.19275 1.940765,0.1449 1.821132,-1.05146 0.691246,0.52638 1.834421,0.84276 2.392744,-0.0931 0.465244,1.14717 2.140163,0.77632 2.76491,0 0.731116,2.69447 4.67912,2.68651 6.992102,3.63562 -1.236255,1.44892 -2.538958,3.20226 -0.332322,4.30691 0.757695,0.37486 1.236228,0.1954 1.754658,0.0931 -0.385482,0.96508 2.778223,1.34924 1.448941,2.68517 1.315992,-0.22198 1.249518,1.30005 1.635024,2.1056 -1.52868,0.27651 -1.382466,1.12061 -2.32627,1.9062 -0.385482,0.31772 -1.355862,-0.49182 -2.219928,0.86937 -0.731089,1.15116 -1.315992,1.71613 -1.129884,2.72239 0.225978,1.02357 1.781262,2.31164 0,3.53327 -0.358902,-0.0399 -1.475521,-0.0134 -2.632012,-0.14622 -0.146213,-0.24725 -0.824145,-1.34924 -1.56855,-1.78657 -0.996987,-0.59685 -3.044096,-0.76701 -3.682158,-1.54598 -0.425374,-0.51841 -0.132923,-3.08927 -0.186107,-3.82969 -0.890619,0.35094 -1.143176,1.09267 -1.767948,1.70681 -1.15649,1.12857 -2.977622,0.6301 -4.360089,0.39879 0.292451,-1.16844 0.824169,-3.00819 -0.146213,-3.63562 -1.156491,-0.74706 -2.964333,-0.71648 -3.775212,-0.19275 0.146238,-1.80251 -1.036832,-1.37979 -2.35285,-1.93147 -1.54197,-0.65266 -1.143176,-0.68192 -2.007215,-2.02717 -0.305741,-0.49051 -3.230203,-0.4041 -3.85495,-0.77895 -1.781262,-1.08071 -0.212688,-3.15443 -1.648339,-3.66088"
       style="fill:#c83737;fill-opacity:1;fill-rule:evenodd;stroke:#000000;stroke-width:0.14449541;stroke-miterlimit:4;stroke-dasharray:none;stroke-opacity:1">
      <title
         id="title1603">Belgium</title>
    </path>
  </g>
</svg>
