<svg xmlns="http://www.w3.org/2000/svg" width="127.838" height="83.505" viewBox="0 0 33.8237 22.094147"><path class="landxx be eu" d="M.033 4.6C2.4 3.37 5.257 2.128 7.85 1.44c-1.223 1.305 1.701.99 2.698 1.234.85.205 1.276.568 2.207.317 1.156-.312 2.472-2.252 2.871-.44-.146-.407-.28-.822-.386-1.245.878.193 1.941.145 1.822-1.051.69.526 1.834.843 2.392-.093.466 1.147 2.14.776 2.765 0 .731 2.694 4.68 2.686 6.992 3.635-1.236 1.45-2.539 3.203-.332 4.307.758.375 1.236.196 1.755.093-.386.965 2.778 1.35 1.449 2.686 1.316-.222 1.25 1.3 1.635 2.105-1.529.277-1.383 1.12-2.327 1.906-.385.318-1.355-.491-2.22.87-.73 1.15-1.316 1.716-1.13 2.722.227 1.024 1.782 2.312 0 3.533-.358-.04-1.475-.013-2.631-.146-.147-.247-.825-1.35-1.569-1.786-.997-.597-3.044-.767-3.682-1.546-.426-.519-.133-3.09-.186-3.83-.89.35-1.143 1.093-1.768 1.707-1.157 1.128-2.978.63-4.36.399.292-1.169.824-3.009-.147-3.636-1.156-.747-2.964-.717-3.775-.193.147-1.802-1.037-1.38-2.353-1.931-1.542-.653-1.143-.682-2.007-2.027-.306-.491-3.23-.405-3.855-.78C-.073 7.17 1.496 5.097.06 4.59" fill="#c83737" fill-rule="evenodd" stroke="#000" stroke-width=".144"><title>Belgium</title></path></svg>