<svg xmlns="http://www.w3.org/2000/svg" width="216.67" height="127.159" viewBox="0 0 57.327209 33.644184"><path class="landxx bg eu" d="M.138 5.016c0-1.564 1.276-3.704 2.246-4.875.32-.375 2.952.898 3.111 1.24.425.933-1.396 1.862-.85 2.813.81 1.386 5.25.066 6.62.35 2.246.468 4.705 2.052 6.991 1.231 1.835-.66 4.148-.147 6.102 0 2.884.23 4.426 1.524 7.085-.503 2.06-1.569 3.483-2.833 6.128-3.29 2.406-.418 4.985-1.759 7.338-.53 1.502.784 3.655 1.415 5.33 1.107.585-.107 2.752 2.233 3.59 2.565 1.116.448 3.096-.452 3.296 1.165.2 1.745.452 3.086-1.662 2.923-2.113-.164-3.084 1.383-3.935 3.128-.744 1.502 0 3.182-.85 4.828-.28.503-.612.985-.904 1.476-.492.797-1.476.258-1.968 1.203 2.606.592 3.098 2.472 4.773 4.214 2.06 2.146-2.473 2.122-3.829 1.74-1.462-.413-1.608-1.918-3.456-1.388-1.37.395-2.46.773-3.881 1.229-2.127.687-.705.946-1.17 1.19-.798.414-2.42 1.19-1.542 1.82-6.514-1.29.983 2.808-2.911 4.256-1.742.651-1.29-.448-6.301.623-1.45.31-2.606-1.25-3.895-1.178-1.675.093-1.808.694-3.39-1.345-.917-1.195-1.94-.953-3.296-.735-1.861.303-3.031 2.48-5.012 2.437-2.579-.054-3.722-.12-4.52.573-.438.381-1.767.013-2.964-.347.97-1.085 0-2.675 0-4.31.133-1.646-1.608-3.2-2.765-4.147-1.17-.697-2.18-2.319-3.11-3.28 4.413-1.31-.133-2.345 1.103-5.385.425-1.049 1.449-.304 2.154-.755.877-.553 1.993-2.415 2.406-3.347C3.634 10.896.43 7.482.07 5.008" fill="#c83737" fill-rule="evenodd" stroke="#000" stroke-width=".144"><title>Bulgaria</title></path></svg>