<?xml version="1.0" encoding="UTF-8" standalone="no"?>
<!-- Created with Inkscape (http://www.inkscape.org/) -->

<svg
   xmlns:dc="http://purl.org/dc/elements/1.1/"
   xmlns:cc="http://creativecommons.org/ns#"
   xmlns:rdf="http://www.w3.org/1999/02/22-rdf-syntax-ns#"
   xmlns:svg="http://www.w3.org/2000/svg"
   xmlns="http://www.w3.org/2000/svg"
   xmlns:sodipodi="http://sodipodi.sourceforge.net/DTD/sodipodi-0.dtd"
   xmlns:inkscape="http://www.inkscape.org/namespaces/inkscape"
   width="57.327209mm"
   height="33.644184mm"
   viewBox="0 0 57.327209 33.644184"
   version="1.1"
   id="svg29802"
   inkscape:version="0.92.0 r15299"
   sodipodi:docname="bulgaria.svg">
  <defs
     id="defs29796" />
  <sodipodi:namedview
     id="base"
     pagecolor="#ffffff"
     bordercolor="#666666"
     borderopacity="1.0"
     inkscape:pageopacity="0.0"
     inkscape:pageshadow="2"
     inkscape:zoom="0.35"
     inkscape:cx="1126.9063"
     inkscape:cy="512.151"
     inkscape:document-units="mm"
     inkscape:current-layer="layer1"
     showgrid="false"
     fit-margin-top="0"
     fit-margin-left="0"
     fit-margin-right="0"
     fit-margin-bottom="0"
     inkscape:window-width="1920"
     inkscape:window-height="1017"
     inkscape:window-x="1912"
     inkscape:window-y="-8"
     inkscape:window-maximized="1" />
  <metadata
     id="metadata29799">
    <rdf:RDF>
      <cc:Work
         rdf:about="">
        <dc:format>image/svg+xml</dc:format>
        <dc:type
           rdf:resource="http://purl.org/dc/dcmitype/StillImage" />
        <dc:title></dc:title>
      </cc:Work>
    </rdf:RDF>
  </metadata>
  <g
     inkscape:label="Layer 1"
     inkscape:groupmode="layer"
     id="layer1"
     transform="translate(315.16956,-250.69577)">
    <path
       inkscape:connector-curvature="0"
       id="bg"
       class="landxx bg eu"
       d="m -315.03158,255.71221 c 0,-1.56459 1.27612,-3.70475 2.2465,-4.87584 0.31904,-0.37487 2.95105,0.8986 3.11055,1.24022 0.42537,0.93316 -1.39576,1.86234 -0.85075,2.81279 0.81088,1.38646 5.25071,0.0665 6.61989,0.35094 2.2465,0.4679 4.7057,2.0511 6.9921,1.23092 1.83442,-0.66065 4.14737,-0.14755 6.10145,0 2.88457,0.22997 4.42654,1.52338 7.08513,-0.5038 2.0604,-1.56857 3.48276,-2.83272 6.12804,-3.29001 2.40604,-0.41739 4.98486,-1.75865 7.33771,-0.52906 1.5021,0.78296 3.65555,1.41438 5.33047,1.10598 0.58488,-0.10634 2.75165,2.23322 3.58908,2.56554 1.11662,0.44796 3.09726,-0.45196 3.29666,1.16445 0.19939,1.74538 0.45195,3.08662 -1.66161,2.92312 -2.11358,-0.16349 -3.08396,1.38381 -3.93471,3.12783 -0.74441,1.5021 0,3.18232 -0.85075,4.82801 -0.27916,0.5038 -0.61148,0.98499 -0.90393,1.47684 -0.49183,0.79625 -1.4755,0.25788 -1.96735,1.203 2.60541,0.59155 3.09725,2.47117 4.77217,4.21388 2.0604,2.14547 -2.47248,2.12154 -3.82837,1.74003 -1.46223,-0.4134 -1.60844,-1.91816 -3.45615,-1.38778 -1.36918,0.3948 -2.4592,0.77233 -3.88156,1.22827 -2.12687,0.68723 -0.70451,0.94646 -1.16978,1.19106 -0.79756,0.4134 -2.4193,1.18971 -1.54197,1.81845 -6.51354,-1.28941 0.98367,2.8088 -2.91115,4.2564 -1.74139,0.65137 -1.28941,-0.44796 -6.30085,0.62346 -1.44894,0.30971 -2.60543,-1.25089 -3.89485,-1.17777 -1.67489,0.0931 -1.80784,0.6939 -3.38968,-1.34525 -0.91722,-1.19502 -1.94079,-0.9531 -3.29665,-0.73508 -1.86103,0.30306 -3.03081,2.47913 -5.01144,2.43658 -2.57883,-0.0532 -3.72203,-0.11963 -4.5196,0.57293 -0.43868,0.38151 -1.76797,0.0134 -2.96433,-0.34695 0.97039,-1.08469 0,-2.67454 0,-4.30956 0.13293,-1.64566 -1.60844,-3.19961 -2.76493,-4.1474 -1.16978,-0.69655 -2.18003,-2.31829 -3.11055,-3.27937 4.41325,-1.30935 -0.13292,-2.34487 1.10331,-5.38497 0.42537,-1.04881 1.44894,-0.30441 2.15345,-0.75505 0.87736,-0.55299 1.99395,-2.41533 2.40604,-3.34716 -2.56554,-0.81618 -5.76914,-4.22981 -6.12807,-6.70361"
       style="fill:#c83737;fill-opacity:1;fill-rule:evenodd;stroke:#000000;stroke-width:0.14449541;stroke-miterlimit:4;stroke-dasharray:none;stroke-opacity:1">
      <title
         id="title1614">Bulgaria</title>
    </path>
  </g>
</svg>
