<?xml version="1.0" encoding="UTF-8" standalone="no"?>
<!-- Created with Inkscape (http://www.inkscape.org/) -->

<svg
   xmlns:dc="http://purl.org/dc/elements/1.1/"
   xmlns:cc="http://creativecommons.org/ns#"
   xmlns:rdf="http://www.w3.org/1999/02/22-rdf-syntax-ns#"
   xmlns:svg="http://www.w3.org/2000/svg"
   xmlns="http://www.w3.org/2000/svg"
   xmlns:sodipodi="http://sodipodi.sourceforge.net/DTD/sodipodi-0.dtd"
   xmlns:inkscape="http://www.inkscape.org/namespaces/inkscape"
   width="53.902283mm"
   height="46.38184mm"
   viewBox="0 0 53.902283 46.38184"
   version="1.1"
   id="svg25657"
   inkscape:version="0.92.0 r15299"
   sodipodi:docname="croatia.svg">
  <defs
     id="defs25651" />
  <sodipodi:namedview
     id="base"
     pagecolor="#ffffff"
     bordercolor="#666666"
     borderopacity="1.0"
     inkscape:pageopacity="0.0"
     inkscape:pageshadow="2"
     inkscape:zoom="0.35"
     inkscape:cx="194.71987"
     inkscape:cy="199.07929"
     inkscape:document-units="mm"
     inkscape:current-layer="layer1"
     showgrid="false"
     fit-margin-top="0"
     fit-margin-left="0"
     fit-margin-right="0"
     fit-margin-bottom="0"
     inkscape:window-width="1920"
     inkscape:window-height="1017"
     inkscape:window-x="1912"
     inkscape:window-y="-8"
     inkscape:window-maximized="1" />
  <metadata
     id="metadata25654">
    <rdf:RDF>
      <cc:Work
         rdf:about="">
        <dc:format>image/svg+xml</dc:format>
        <dc:type
           rdf:resource="http://purl.org/dc/dcmitype/StillImage" />
        <dc:title></dc:title>
      </cc:Work>
    </rdf:RDF>
  </metadata>
  <g
     inkscape:label="Layer 1"
     inkscape:groupmode="layer"
     id="layer1"
     transform="translate(68.52856,-155.12456)">
    <g
       id="hr"
       class="landxx coastxx hr eu"
       style="fill:#c83737;fill-opacity:1;fill-rule:evenodd;stroke:#000000;stroke-width:0.10870087;stroke-miterlimit:4;stroke-dasharray:none;stroke-opacity:1"
       transform="matrix(1.3292939,0,0,1.3292939,-1890.61,-320.37435)">
      <title
         id="title647">Croatia</title>
      <path
         inkscape:connector-curvature="0"
         id="path4066"
         class="landxx hr eu"
         d="m 1371.44,366.77 c 0.49,0.115 0.98,0.244 1.48,0.351 0.64,0.138 1.15,-0.483 1.5,-0.604 0.17,-0.06 1.62,1.336 3.72,-1.349 1.31,1.278 2.37,0.816 3.78,1.602 1.85,1.027 0.94,-1.24 1.76,-1.44 -0.36,-0.08 -0.66,-0.388 -1.01,-0.504 2.85,-2.047 3.53,0.111 2.49,-3.785 -0.13,-0.496 2.37,-0.942 2.78,-1.334 0.63,-0.601 0,-0.391 0.63,-0.82 0,0 0.99,0.247 1.16,0.252 -1.9,-2.167 1.67,-1.302 2.38,-0.587 0.51,0.504 3.22,2.134 3.58,2.626 1.45,1.628 3.56,2.425 5.82,3.161 5.38,0.3 2.94,-1.113 5.32,-1.441 0,-0.519 0.38,0.582 0.69,1.231 0.45,0.936 0,2.154 1.43,2.21 -2.29,1.593 2.75,2.504 2.22,2.834 l -2.22,0.55 c 0.72,1.191 -0.21,3.149 -1.72,1.975 -1,-1.77 -0.97,-0.836 -1.47,-1.317 -0.94,-0.343 -1.8,-0.54 -2.74,-0.292 -1.03,0.27 -0.96,-0.519 -1.97,0.03 -0.74,0.408 -1.24,-0.02 -1.95,-0.184 -1.69,-0.04 -3.18,-0.581 -4.77,-1.035 -1.17,0.106 0.46,0.6 -1.36,0.106 -1.33,-0.361 -1.44,-0.02 -1.89,0.803 -0.98,1.771 -1.13,0.992 -2.82,-0.265 -2.19,-1.616 -1.89,1.345 -1.75,2.448 0.1,0.682 -0.13,0.806 0.58,1.11 0.63,0.273 1.7,0.948 2.14,1.567 0.93,1.287 0,3.087 1.95,4.248 1.9,1.11 2.97,2.961 4.73,4.275 1.42,1.058 2.07,2.369 3.29,3.436 1.48,1.287 0.74,2.769 -0.93,0.819 -1.73,-2.017 -6.04,-4.973 -8.83,-3.934 -0.73,0.272 -1.11,0 -1.58,-0.617 -0.58,-0.755 -0.22,-0.957 -1.33,-1.504 -1.6,-0.799 -3.81,-2.61 -4.44,-4.328 1,-0.172 1.9,-0.03 2.89,0.145 -1.3,-0.952 -2.9,-1.665 -3.8,-3.062 -0.76,-1.167 -0.26,-2.662 -0.99,-3.819 -0.65,-1.017 -2.09,-1.989 -3.25,-2.306 -0.85,-0.233 -1.63,2.224 -1.47,2.851 -0.37,-0.152 -0.5,-0.04 -0.79,-0.36 -0.11,0.824 -0.31,1.706 -0.94,2.304 -0.51,-0.395 -2.17,-2.439 -1.37,-3.096 -0.91,0.211 -1.35,-2.287 -1.58,-3.024 0.21,0.02 0.43,0.05 0.65,0.07"
         style="fill:#c83737;fill-opacity:1;fill-rule:evenodd;stroke:#000000;stroke-width:0.10870087;stroke-miterlimit:4;stroke-dasharray:none;stroke-opacity:1" />
      <path
         inkscape:connector-curvature="0"
         id="path4068"
         class="landxx hr eu"
         d="m 1400.02,388.87 c 0.74,-0.657 1.66,0.34 2.68,1.24 1.28,1.123 4.13,1.358 3.23,2.432 -1.16,-0.161 -3.17,-1.794 -4.08,-2.525 -0.8,-0.64 -1.84,-0.543 -2.76,-0.859 -1,-0.342 -1.83,-1.227 -2.96,-1.079 1.18,-0.906 3.46,0.498 4.4,1.224 -0.17,-0.145 -0.34,-0.289 -0.51,-0.433"
         style="fill:#c83737;fill-opacity:1;fill-rule:evenodd;stroke:#000000;stroke-width:0.10870087;stroke-miterlimit:4;stroke-dasharray:none;stroke-opacity:1" />
      <path
         inkscape:connector-curvature="0"
         id="path4070"
         d="m 1376.77,370.87 c -0.41,-0.437 -0.53,-0.94 -0.36,-1.513 0.83,1.372 0.98,2.96 1.44,4.464 -0.96,-0.143 -1.89,-2.246 -1.08,-2.951"
         style="fill:#c83737;fill-opacity:1;stroke:#000000;stroke-width:0.10870087;stroke-miterlimit:4;stroke-dasharray:none;stroke-opacity:1" />
      <path
         inkscape:connector-curvature="0"
         id="path4072"
         d="m 1377.99,375.33 c -0.39,-0.498 -0.79,-0.978 -1.22,-1.44 0.51,0.368 0.95,0.865 1.22,1.44"
         style="fill:#c83737;fill-opacity:1;stroke:#000000;stroke-width:0.10870087;stroke-miterlimit:4;stroke-dasharray:none;stroke-opacity:1" />
      <path
         inkscape:connector-curvature="0"
         id="path4074"
         d="m 1378.64,370.87 c -0.65,-0.07 -1.8,-1.394 -0.72,-1.729 0.75,-0.233 1.33,1.443 1.87,1.729 -0.39,0.398 -0.78,0.398 -1.15,0"
         style="fill:#c83737;fill-opacity:1;stroke:#000000;stroke-width:0.10870087;stroke-miterlimit:4;stroke-dasharray:none;stroke-opacity:1" />
      <path
         inkscape:connector-curvature="0"
         id="path4076"
         d="m 1379.14,372.31 c 0.24,0.144 0.48,0.288 0.72,0.432 -0.65,0.306 -0.89,0.162 -0.72,-0.432"
         style="fill:#c83737;fill-opacity:1;stroke:#000000;stroke-width:0.10870087;stroke-miterlimit:4;stroke-dasharray:none;stroke-opacity:1" />
      <path
         inkscape:connector-curvature="0"
         id="path4078"
         d="m 1380.58,377.71 c -0.24,-0.192 -0.48,-0.384 -0.72,-0.576 0.32,0.1 0.56,0.292 0.72,0.576"
         style="fill:#c83737;fill-opacity:1;stroke:#000000;stroke-width:0.10870087;stroke-miterlimit:4;stroke-dasharray:none;stroke-opacity:1" />
      <path
         inkscape:connector-curvature="0"
         id="path4080"
         d="m 1381.3,375.62 c -0.7,-0.672 -1.4,-1.37 -1.87,-2.232 0.88,1.22 2.43,1.662 3.31,2.88 -0.7,0.537 -1.12,-0.116 -1.44,-0.648"
         style="fill:#c83737;fill-opacity:1;stroke:#000000;stroke-width:0.10870087;stroke-miterlimit:4;stroke-dasharray:none;stroke-opacity:1" />
      <path
         inkscape:connector-curvature="0"
         id="path4082"
         d="m 1381.37,379.01 c -0.24,-0.216 -0.47,-0.433 -0.71,-0.648 0.93,0.07 1.15,1.165 1.87,1.584 -0.55,-0.112 -0.94,-0.424 -1.16,-0.936"
         style="fill:#c83737;fill-opacity:1;stroke:#000000;stroke-width:0.10870087;stroke-miterlimit:4;stroke-dasharray:none;stroke-opacity:1" />
      <path
         inkscape:connector-curvature="0"
         id="path4086"
         d="m 1383.03,380.45 c 0.56,0.312 1.06,0.695 1.51,1.152 -0.57,-0.262 -1.16,-0.615 -1.51,-1.152"
         style="fill:#c83737;fill-opacity:1;stroke:#000000;stroke-width:0.10870087;stroke-miterlimit:4;stroke-dasharray:none;stroke-opacity:1" />
      <path
         inkscape:connector-curvature="0"
         id="path4088"
         d="m 1383.03,379.22 c -0.24,-0.168 -0.48,-0.336 -0.72,-0.504 0.36,0.01 0.6,0.18 0.72,0.504"
         style="fill:#c83737;fill-opacity:1;stroke:#000000;stroke-width:0.10870087;stroke-miterlimit:4;stroke-dasharray:none;stroke-opacity:1" />
      <path
         inkscape:connector-curvature="0"
         id="path4090"
         d="m 1385.77,382.17 c 0.26,0.12 0.52,0.24 0.79,0.36 -0.28,-0.09 -0.54,-0.209 -0.79,-0.36"
         style="fill:#c83737;fill-opacity:1;stroke:#000000;stroke-width:0.10870087;stroke-miterlimit:4;stroke-dasharray:none;stroke-opacity:1" />
      <path
         inkscape:connector-curvature="0"
         id="path4092"
         d="m 1389.87,383.61 c 0.24,-0.02 0.48,-0.05 0.72,-0.07 -0.24,0.1 -0.48,0.12 -0.72,0.07"
         style="fill:#c83737;fill-opacity:1;stroke:#000000;stroke-width:0.10870087;stroke-miterlimit:4;stroke-dasharray:none;stroke-opacity:1" />
      <path
         inkscape:connector-curvature="0"
         id="path4094"
         d="m 1391.02,385.13 c -0.24,-0.12 -0.48,-0.24 -0.72,-0.36 0.31,-10e-4 0.55,0.119 0.72,0.36"
         style="fill:#c83737;fill-opacity:1;stroke:#000000;stroke-width:0.10870087;stroke-miterlimit:4;stroke-dasharray:none;stroke-opacity:1" />
      <path
         inkscape:connector-curvature="0"
         id="path4096"
         d="m 1393.18,385.7 c -0.74,0 -1.68,-0.186 -1.8,-1.08 1,-0.03 2,0.1 2.95,0.432 -0.3,0.365 -0.69,0.581 -1.15,0.648"
         style="fill:#c83737;fill-opacity:1;stroke:#000000;stroke-width:0.10870087;stroke-miterlimit:4;stroke-dasharray:none;stroke-opacity:1" />
      <path
         inkscape:connector-curvature="0"
         id="path4098"
         d="m 1394.55,388.8 c -0.5,-0.117 -1,-0.188 -1.51,-0.216 0.89,-0.775 2.78,-0.649 3.74,-0.07 -0.75,0.235 -1.53,-0.165 -2.23,0.288"
         style="fill:#c83737;fill-opacity:1;stroke:#000000;stroke-width:0.10870087;stroke-miterlimit:4;stroke-dasharray:none;stroke-opacity:1" />
      <path
         inkscape:connector-curvature="0"
         id="path4100"
         d="m 1395.85,386.93 c -1.48,0.05 -2.98,-0.08 -4.4,-0.504 1.69,-0.556 3.41,0.346 5.12,0.288 -0.24,0.07 -0.48,0.144 -0.72,0.216"
         style="fill:#c83737;fill-opacity:1;stroke:#000000;stroke-width:0.10870087;stroke-miterlimit:4;stroke-dasharray:none;stroke-opacity:1" />
      <path
         inkscape:connector-curvature="0"
         id="path4102"
         d="m 1400.67,390.53 c -0.72,-0.251 -1.49,-0.35 -2.23,-0.504 0.76,-0.167 1.59,0.11 2.23,0.504"
         style="fill:#c83737;fill-opacity:1;stroke:#000000;stroke-width:0.10870087;stroke-miterlimit:4;stroke-dasharray:none;stroke-opacity:1" />
    </g>
  </g>
</svg>
