<?xml version="1.0" encoding="UTF-8" standalone="no"?>
<!-- Created with Inkscape (http://www.inkscape.org/) -->

<svg
   xmlns:dc="http://purl.org/dc/elements/1.1/"
   xmlns:cc="http://creativecommons.org/ns#"
   xmlns:rdf="http://www.w3.org/1999/02/22-rdf-syntax-ns#"
   xmlns:svg="http://www.w3.org/2000/svg"
   xmlns="http://www.w3.org/2000/svg"
   xmlns:sodipodi="http://sodipodi.sourceforge.net/DTD/sodipodi-0.dtd"
   xmlns:inkscape="http://www.inkscape.org/namespaces/inkscape"
   width="27.020195mm"
   height="21.370445mm"
   viewBox="0 0 27.020195 21.370445"
   version="1.1"
   id="svg21554"
   inkscape:version="0.92.0 r15299"
   sodipodi:docname="cyprus.svg">
  <defs
     id="defs21548" />
  <sodipodi:namedview
     id="base"
     pagecolor="#ffffff"
     bordercolor="#666666"
     borderopacity="1.0"
     inkscape:pageopacity="0.0"
     inkscape:pageshadow="2"
     inkscape:zoom="0.35"
     inkscape:cx="612.49041"
     inkscape:cy="517.52796"
     inkscape:document-units="mm"
     inkscape:current-layer="layer1"
     showgrid="false"
     fit-margin-top="0"
     fit-margin-left="0"
     fit-margin-right="0"
     fit-margin-bottom="0"
     inkscape:window-width="1920"
     inkscape:window-height="1017"
     inkscape:window-x="1912"
     inkscape:window-y="-8"
     inkscape:window-maximized="1" />
  <metadata
     id="metadata21551">
    <rdf:RDF>
      <cc:Work
         rdf:about="">
        <dc:format>image/svg+xml</dc:format>
        <dc:type
           rdf:resource="http://purl.org/dc/dcmitype/StillImage" />
        <dc:title></dc:title>
      </cc:Work>
    </rdf:RDF>
  </metadata>
  <g
     inkscape:label="Layer 1"
     inkscape:groupmode="layer"
     id="layer1"
     transform="translate(179.06368,-264.39216)">
    <g
       id="cy"
       style="fill:#c83737;fill-opacity:1;stroke:#000000;stroke-width:0.10870087;stroke-miterlimit:4;stroke-dasharray:none;stroke-opacity:1"
       transform="matrix(1.3292939,0,0,1.3292939,-2177.5808,-331.84913)">
      <title
         id="title2608">Cyprus</title>
      <g
         id="cy-"
         style="fill:#c83737;fill-opacity:1;stroke:#000000;stroke-width:0.10870087;stroke-miterlimit:4;stroke-dasharray:none;stroke-opacity:1">
        <path
           inkscape:connector-curvature="0"
           id="path9876"
           class="landxx cy cy- eu"
           d="m 1507.59,456.766 c -0.1,-0.264 -0.2,-0.528 -0.29,-0.792 0.98,0.968 2.43,-0.875 3.55,-0.799 1.73,0.117 0.43,-1.62 2.04,-1.582 1.72,0.04 3.25,0.349 4.98,-0.116 1.94,-0.522 3.67,-2.54 5.71,-2.544 -1.29,0.81 -2.44,2.705 -3.88,3.154 -1.56,0.49 0,1.988 0.63,2.678 -0.67,0.08 -2.19,-0.05 -2.7,0.411 -0.57,0.514 -0.77,1.243 -1.55,1.513 -0.68,0.235 -3.37,0.524 -2.95,1.748 -2.26,-1.14 -4.48,-0.802 -5.54,-3.671"
           style="fill:#c83737;fill-opacity:1;fill-rule:evenodd;stroke:#000000;stroke-width:0.10870087;stroke-miterlimit:4;stroke-dasharray:none;stroke-opacity:1" />
        <g
           id="xc"
           style="fill:#c83737;fill-opacity:1;stroke:#000000;stroke-width:0.10870087;stroke-miterlimit:4;stroke-dasharray:none;stroke-opacity:1">
          <path
             inkscape:connector-curvature="0"
             id="xc-"
             class="limitxx cy xc eu"
             d="m 1515.03,456.791 c -0.14,-0.16 0.34,-0.106 -0.1,-1.274 0,-0.05 -2.09,-0.09 -2.56,0.1 -1.97,0.82 -1.8,-0.469 -1.55,-0.441 1.28,0.136 0.43,-1.62 2.04,-1.582 1.72,0.04 3.25,0.349 4.98,-0.116 1.94,-0.522 3.67,-2.54 5.71,-2.544 -1.29,0.81 -2.44,2.705 -3.88,3.154 -1.07,0.337 -0.66,1.152 -0.1,1.852 0.25,0.317 -0.4,0.15 -0.65,0.176 -0.1,0.01 -0.23,-0.245 -0.39,-0.226 -0.1,0.01 -0.14,0.255 -0.28,0.323 -1.77,0.828 -3.15,0.843 -3.25,0.579 z"
             style="fill:#c83737;fill-opacity:1;fill-rule:evenodd;stroke:#000000;stroke-width:0.10870087;stroke-miterlimit:4;stroke-dasharray:none;stroke-opacity:1" />
          <circle
             id="xc_"
             class="unxx cy xc eu"
             r="4.2337999"
             cy="452.828"
             cx="1518.67"
             style="opacity:0;fill:#c83737;fill-opacity:1;stroke:#000000;stroke-width:0.10870087;stroke-miterlimit:4;stroke-dasharray:none;stroke-opacity:1" />
        </g>
      </g>
      <circle
         id="cy."
         class="circlexx cy eu"
         r="6.0130301"
         cy="458.54901"
         cx="1509.51"
         style="opacity:0;fill:#c83737;fill-opacity:1;stroke:#000000;stroke-width:0.10870087;stroke-miterlimit:4;stroke-dasharray:none;stroke-opacity:1" />
    </g>
  </g>
</svg>
