<svg xmlns="http://www.w3.org/2000/svg" width="102.124" height="80.77" viewBox="0 0 27.020195 21.370445"><g transform="matrix(1.3293 0 0 1.3293 -1998.517 -596.241)" fill="#c83737" stroke="#000" stroke-width=".109"><title>Cyprus</title><path class="landxx cy cy- eu" d="M1507.59 456.766c-.1-.264-.2-.528-.29-.792.98.968 2.43-.875 3.55-.799 1.73.117.43-1.62 2.04-1.582 1.72.04 3.25.349 4.98-.116 1.94-.522 3.67-2.54 5.71-2.544-1.29.81-2.44 2.705-3.88 3.154-1.56.49 0 1.988.63 2.678-.67.08-2.19-.05-2.7.411-.57.514-.77 1.243-1.55 1.513-.68.235-3.37.524-2.95 1.748-2.26-1.14-4.48-.802-5.54-3.671" fill-rule="evenodd"/><path class="limitxx cy xc eu" d="M1515.03 456.791c-.14-.16.34-.106-.1-1.274 0-.05-2.09-.09-2.56.1-1.97.82-1.8-.469-1.55-.441 1.28.136.43-1.62 2.04-1.582 1.72.04 3.25.349 4.98-.116 1.94-.522 3.67-2.54 5.71-2.544-1.29.81-2.44 2.705-3.88 3.154-1.07.337-.66 1.152-.1 1.852.25.317-.4.15-.65.176-.1.01-.23-.245-.39-.226-.1.01-.14.255-.28.323-1.77.828-3.15.843-3.25.579z" fill-rule="evenodd"/></g></svg>