<svg xmlns="http://www.w3.org/2000/svg" width="146.11" height="130.023" viewBox="0 0 38.658154 34.402039"><path d="M13.667 29.166c.664.436 1.302 2.783 2.592 1.912 1.342-.902-1.649-2.46-2.592-1.912" fill="#c83737" fill-rule="evenodd" stroke="#000" stroke-width=".144"/><path d="M.653 12.51c.133-.32.252-.637.385-.958.559.615 2.22 1.608 3.07 1.053.36 1.61 1.437 1.025 1.702-.138.638-2.804 4.586-1.542 2.5-.53.863.08 2.18-.163 2.113 1.147.306-1.205.32-1.756-.957-1.627 0-.981-.332-2.44.545-3.183a2.814 2.814 0 0 1 1.874-.44c1.077.067 1.688-.396 2.632-.396 1.143 0 1.861.053 2.938.48 1.316.524.917 2.16 1.582 3.155-1.343-.12-2.606.284-3.829.765 1.237.027 2.1-.922 3.377-.377.744.323-.758 1.75-.798 2.291.333-1.8 5.118-.853 6.062-.106.797.638-.798 3.112-1.609 3.11-.824 0-1.17-.08-1.488.918-.997-.226-1.183-.904-.479-1.629-1.834-.607-1.755.942-1.834 2.236-.133 2.093-1.728 1.686-3.23 2.073.558.053 1.661.672 1.01 1.402-.811.923-2.5.138-3.51.32.705.253 1.41.508 2.114.766-1.675 1.71-2.42.723-1.29 3.282.692 1.55-2.113 1.506-2.06 3.035 1.316-.148 2.911.643 2.579 2.203-.97-.067-.864-1.045-1.781-.333-.984.765-2.06.55-3.124.217-1.462-.457-5.091-.149-4.28-2.661-.771.29-1.37-.139-1.622-.86 4.48 0-.984-3.708-1.25-4.404-.212 2.096-1.316.093-1.422-.84-.133-1.177.133-2.397-.133-3.562.133.879 1.702 2.466 2.207.957.239-.715-2.526-3.763-2.114-1.244-.81-1.579-.412-4.5.133-6.126" class="landxx dk eu" fill="#c83737" fill-rule="evenodd" stroke="#000" stroke-width=".144"/><path d="M4.96 11.552c1.342-.31 2.233-1.71 1.914-3.062a5.1 5.1 0 0 1-1.675.787c-.598.18-.452 1.248-1.196 1.51a5.5 5.5 0 0 0 .957.765M13.773 24.088c0 1.61 2.153 2.626 2.486 4.21 0-1.394.917-.698 1.156.136.2.693 3.097.78 3.576.693 2.499-.447 2.871-3.993.24-4.56.318-.184.637-.374.956-.575a3.937 3.937 0 0 0-.85-1.054c0 .958-.599 1.866-1.635 1.724 1.887-2.099-5.158-.62-5.93-.574M19.702 31.558c.132-1.025-1.25-1.369-1.915-1.722a13.509 13.509 0 0 0 1.915 1.722" fill="#c83737" fill-rule="evenodd" stroke="#000" stroke-width=".144"/><path d="M20.472 29.644c.386.093.758.192 1.144.286 0-1.113-.545-.806-1.144-.286M21.815 19.98c-.572-.093-.957-.413-1.156-.957.558.666.518 1.303-.133 1.913.757.19 1.21-.178 1.25-.956M22.28 30.309c-.73.667-.744 1.619.133 2.2.426-1.182 1.835-2.563 1.237-3.924a3.58 3.58 0 0 1-1.343 1.724M24.394 5.624c.532-.152.85-.503.957-1.053-.744-.027-1.382.231-1.914.764.319.093.638.193.957.289M25.444 25.816c.877.312.997 1.243 1.675 1.588.611.315 1.675.053 2.34 0 1.887-.154 2.312 1.956.677 1.383.413.08 1.782.494 1.835 1.047-.24.29-.558.355-.97.196 0 .783 1.21 3.57 1.621 4.21.266-.724 1.595-2.135 1.582-2.807 0-.828-1.475-1.052-1.768-1.785a2.816 2.816 0 0 0 2.193 0c-1.13-1.586.16-2.188 1.516-2.684 1.648-.6-.173-1.46-.771-2.053-1.303-1.306 1.21-1.91 1.927-2.41 1.662-1.15-.638-2.957.878-4.05-1.835-1.82-3.908-.39-5.836.382 1.41.568 2.207 3.633.133 3.734.545-.791 1.077-1.706.572-2.681-.4.264-1.463 2.754-2.008 2.41-.877-.563-.611-2.527-.133-2.602-.784-.636-2.14-.489-3.057-.382.492-.12.81.026.957.412-.412 1.71-3.629 2.047-4.878 1.98.611.693 4.227 3.944 1.528 4.114" fill="#c83737" fill-rule="evenodd" stroke="#000" stroke-width=".144"/><path d="M24.58 31.837c1.276.904 5.902 2.853 7.178 1.257 1.45-1.798-1.422-1.865-2.34-1.742-1.78.245-2.645-2.084-4.452-.759.212.322.438.64.664.957-.345.093-.704.192-1.05.287M34.736 29.737c-.133.383-.2.766-.293 1.149.386-.12 3.483-.757 3.177-1.34-.345-.626-2.366.15-2.884.191M37.5 22.851c.453 1.081.798 1.016 1.064-.192-.359.066-.718.133-1.063.192M2.952 11.552c-1.94-1.216-.279-3.357.997-4.29 1.795-1.307 4.76-.64 6.833-.847 1.86-.185 2.818-2.15 3.881-3.413C15.847 1.596 19.33.662 21.137.07c-2.153 1.915.386 3.21-.731 5.4-1.25 2.423-2.579 2.529-5.038 1.778-1.17-.36-2.22-.106-3.403.207-1.316.345-2.38-.193-3.642.053-1.117.221-2.672.556-3.443 1.47-.505.59-.944 2.425-1.928 2.383.825-.139 1.29.316 1.157 1.148a9.181 9.181 0 0 1-1.157-.958" fill="#c83737" fill-rule="evenodd" stroke="#000" stroke-width=".144"/></svg>