<svg xmlns="http://www.w3.org/2000/svg" width="350.535" height="392.425" viewBox="0 0 92.745827 103.82902"><g class="landxx coastxx fi eu" transform="matrix(1.3293 0 0 1.3293 -1867.71 -226.535)" fill="#c83737" fill-rule="evenodd" stroke="#000" stroke-width=".109"><title>Finland</title><path d="M1405.49 244.58c-.57.634-.57.765.29.936 0-.339-.11-.651-.29-.936M1407.22 246.09c.97.159 1.03-.773.58-1.368.47-.13 1.02.845 1.53.6 1.03-.497-2.09-1.558-2.61-1.463.52.428.54 1.035.1 1.512 0-.591-.4-.958-1.01-.721.24.66.47 1.718 1.44 1.44M1407.94 246.45c2.67 1.023.91-.811 0 0M1409.96 246.96c.26.127.53.127.79 0h-.79M1413.63 222.19c1.48-.173.41-1.593-.72-.647.21.242.45.458.72.647M1416.01 242.71c.26-.02.53-.05.79-.07-.55-.491-.81-.467-.79.07M1418.38 220.53c-.26.1-.53.191-.79.287.31.03.57-.07.79-.287M1419.32 220.82c-.24.02-.48.05-.72.07.71.666.95.642.72-.07M1419.9 243.79a4.934 4.934 0 0 0-.8-.648c-.59.976.59 1.287 1.3 1.08-.15-.05-.52-.443-.5-.432M1419.68 245.59c-.2-.113-.41-.256-.65-.288.22.1.43.192.65.288M1419.97 245.52c.48.21.72.114.72-.288-.24.1-.48.192-.72.288M1422.92 217.01c-.26.02-.53.05-.79.07.24.188.5.332.79.433.1-.315.34-.636 0-.504M1422.27 244.44c.24.02.48.05.72.07-.33-.597-.34-.343-.72-.07M1422.7 246.96c.57-.06 1.15 0 1.73-.04 1.12-.07.72-1.711 1.58-2.193-.83.518-2.13.79-3.09.576 1.66.631-.59.378-.22 1.657M1425.22 246.96c.39.669 1.68 1.212 1.73 0-.58.157-1.16.157-1.73 0M1431.7 208.15c1.39.713 1.31-.591 2.31-.216-.44-.661-2.06-.626-2.31.216"/><path class="landxx fi eu" d="M1406 177.98c.83-.912 1.98.108 2.95-.432-.25-.211-.49-.427-.72-.648 2.66-1.594 5.18.357 7.14 2.291 1.38 1.358 4.07 2.25 6.04 1.671 1.07-.313 1.76-.466 2.63-1.107.79-.59 2.99.326 3.84.569 1.22.347 1.3 1.025 2.54.802 1.06-.194 1.29-2.021 2.74-2.121.73-.05 1.4-.133 1.24-1.032-.29-1.544.32-2.977.69-4.456.88-1.169 2.58-2.411 4.31-2.011 1.6.368 2.59-.242 4.04-.855 1.59-.671 2.75.716 4.15 1.234 1.47.54 2.93.852 4.42 1.217 4.54 1.109-1.43 3.374 1.09 4.969-1.15.628-2.61.725-3.61 1.063.55.07 2.89.187 1.81 1.27-1.08 1.073-1.46 1.867-.1 2.985 1.28 1.059 2.94 1.119 4.36 1.882 1.25.672 2.52 1.494 3.7 2.292 2.83 1.911-4.88 4.472-3.39 6.568 2.18 3.047 5.86 4.877 7.16 8.69-.77.04-1.54.283-2.28.417.97.275.52 1.793 0 2.494-.39.529 1.16.854 1.39 1.378-1.36.293-1.43 1.357-.52 2.176.89.8 2.35-.189 2.98 1.24-2.77 1.247 1.16 2.602 2.27 3.155 2.44 1.225-1.18 3.511-2.32 4.086 3.39 1.559 6.59 3.373 9.62 5.507 1 .871.5 1.294.1 2.442-.73 1.937-1.98 2.763-3.5 3.956-3.52 3.913-6.67 7.047-11.94 9.981-.93.659-1.88 1.343-2.74 2.089-.42.298-.82.649-1.09 1.086-.49.717-1.53.164-2.2.226-.96.09-1.02-.77-2.1-.264-.81.387-1.58.705-2.51.708-.39.02-.74-.07-1.06-.283-.1.335-.3.555-.62.659-.8.248-1.82-.167-2.48-.587.62.706.27.95-.43 1.008.1.242.18.481.29.72-.75.191-1.6-.117-1.58-1.008-.72 1.2-2.78 1.205-3.99 1.453-.68.139-1.28.406-1.93.62-.49.159-.54.764-1.04.9-.92.249-1.19-.57-2.16-.32-1.47.379-3.1 1.164-4.64.876.3-.174.59-.366.87-.576-1.2.449-2.06 1.396-3.39 1.512.46-.266 1.06-.54 1.34-1.037.61-1.103-1.23-.1.47-.835-.68.1-1.21-.206-1.73-.582-.9-.644 0-1.259.64-1.866-.61.189-4.79 1.564-3.39-.216-1.33-.28-2.7-.267-3.86-1.075-.48-.341-1.88-1.402-1.61 0-.41-.32-1.53-.696-1.38-1.106.29-.741-.61-2.621-1-3.285 2.45.03-.47-4.88 1.95-3.6-1.05-.713-2.35-2.585-2.7-3.802-.29-.987.44-1.635-.21-2.708-.48-.786-.98-1.887-1.49-1.986.56-.678 1.89-3.729 3.1-3.168-.56-.438-1.05-1.221-.65-1.944 1.08 1.224 3.66.464 4.83-.216-.32-.266-1.54-1.967 0-.864-.23-.242-.47-.481-.72-.72.89.943 1.44-1.663 3.17-.864-.34-1.498 2.03-1.969 3.02-2.232-.1-.265-.14-.529-.22-.792.97-.04 1.43-.567 1.99-1.271.9-1.139 2.29-1.588 3.27-2.617.64-.669.92-1.56 1.68-2.209 1.16-.995 2.54-.28 3.79-.02a9.619 9.619 0 0 1-.5-.721c.39-.133.73-.35 1.01-.648-.39-.471-1.54-.822-1.41-1.297.22-.773.63-1.72-.1-2.329-1.09-.94-4.25-.746-4.49-2.35-1.06.664-2.04.07-2.73-.806-.81-1.046-1.6-1.613-2.52-2.521-1.5-1.459 2.14-3.651 0-5.478-.39-.329-1.72-1.283-1.45-1.841.18-.368 1.29-1.356.5-1.661-1.09-.415-1.51.02-1.61-1.484 0-.466 0-.952-.1-1.413-.1-.462.86-.387.82-.637-.15-.92-2.13-1.384-2.77-1.759-.63-.363-.69-1.105-1.48-1.415-.8-.311-1.67-.329-2.5-.497-1.47-.297-3.05-1.021-4.44-1.576-2.12-.849-4.3-2.773-6.59-3.037"/><path d="M1421.55 244.87a1.16 1.16 0 0 0-.86-.217c.46-.206 1.17-.351 1.58.07-.24.05-.48.1-.72.145M1422.41 244.08c.1-.159.2-.23.37-.215-.13.07-.25.144-.37.215"/></g></svg>