<svg xmlns="http://www.w3.org/2000/svg" width="484.053" height="414.651" viewBox="0 0 128.07242 109.70975"><g class="landxx coastxx fr frx eu" fill="#c83737" fill-rule="evenodd" stroke="#000" stroke-width=".109"><path d="M14.447 42.47a6.773 6.773 0 0 0-1.436-1.148c.133.752.625 1.277 1.436 1.149M22.688 46.777c-.265-.61-.265-.834-1.063-.67.346.224.705.447 1.063.67M29.96 55.2c-.36-.76-1.383-.596-2.008-.479a5.24 5.24 0 0 1 2.008.479M30.332 59.124c.651-.937-.133-2.54-1.33-1.914a4.892 4.892 0 0 1 1.33 1.914" stroke-width=".14489261"/><path d="M.383 34.048c1.183-.56 2.605-.912 3.921-.67.452-2.012-2.22-.629-2.778-2.01 1.223-.408 2.659-.258 3.935-.192-.997-.172-2.353.183-1.635-1.053-.771-.04-3.39 1.434-3.709.143-.425-1.761 2.26-2.824 3.536-3.077a22.326 22.326 0 0 1 5.078-.43c2.46.066 4.041-2.327 6.78-1.996-.32.884 2.964 3.97 3.88 3.6.626-.3 1.21-.644 1.782-1.026 1.25-.693 1.17.202 2.207.401 1.023.197 1.82-.614 1.887 1.046.665-.461-.319-1.013.226-1.764.572-.767.864.398 1.356.528 1.17.308 2.685 0 3.868-.2-2.512-.735-1.595-4.279-1.382-6.125.133-.899-1.263-1.8-1.728-2.427-.798-1.08 0-2.724-1.196-3.604.864.152 1.661.577 2.525.756.944.197 2.1-.73 2.938-.312 1.29.649-.32 2.598 1.462 3.621.519.295 1.45-.23 1.98-.235 1.556-.014 3.045.512 4.56.799 1.476.28 2.765.238 4.081-.519 1.197-.684 2.805-.66 3.895-1.429-.864.34-2.326.513-3.164.04-1.688-.972 2.22-3.362 2.858-3.653 2.06-.922 4.4-.812 6.487-1.65 1.21-.485 2.832-3.26 4.334-2.484-1.316-.85-.505-6.731.585-7.833 1.076-1.082 6.566-3.04 7.989-1.85.718.607-.692 2.938 1.409 3.458 2.166.536 1.661.053 3.203.51 1.436.431.984 1.536 2.087 2.073 1.45.7 2.911-.133 2.725 2.108.864-.557 2.367-.428 3.27-.106 1.729.59.997 2.71.652 3.941 1.156.193 2.459.55 3.602.093 1.13-.453 1.396-1.746 2.526-2.198.133.712-.2 3.898.77 3.933 1.423.053 4.294 1.929 4.733 3.294-.133-.394 5.41.502 5.69.526 1.355.12 2.352-.162 3.43.95.837.878 1.421 2.257 2.698 2.59.279-.133.491-.324.664-.582.412-.427.612.14 1.05.2.253.092.32.26.2.5-.133.522 1.143.237 1.342.254 1.37.12 2.14-.715 3.403.244 1.343 1.02 4.108 1.21 5.783 1.49-2.047 1.814-3.948 3.806-4.613 6.501-.319 1.311-1.103 2.515-1.316 3.837-.133.864.16 1.215-.186 2.325-.412 1.341.611 2.459-.292 3.291-.771.702-1.356 1.379-2.5 1.276-.957-.08-1.036-1.503-2.193-.861-.824.464-.904 1.945.479 1.723-1.037 1.098-1.968 2.402-3.164 3.35a36.68 36.68 0 0 0-2.14 1.499c-.572.518-.519 1.534-1.01 2.137-.825 1.03-2.433 1.513-2.686 2.967a6.78 6.78 0 0 1 .386 1.53c-.2.943-1.077 1.28-1.436 2.106 1.582-.198 2.167-.738 2.579-2.248.412-1.486 3.15-1.372 4.267-1.06 1.33.377.425 2.562 1.383 3.627 1.688 1.85.65 2.544-.864 3.798.81 1.139 3.828 3.25 3.004 4.92-.572 1.12-4.746 2.658-4.733 2.85 0 1.32 2.62 2.447 3.496 3.2 1.277 1.09-1.767 3.033-1.329 4.473.532 1.75 3.882 3.733 5.65 3.025 2.22-.89 1.887.404 1.05 1.883-2.02 3.564-5.889 5.361-9.345 7.692.226.324.452.643.678.957-1.29.184-2.366.846-3.576 1.27-1.29.455-2.127-.263-3.35-.166-1.86.146-3.004-1.403-5.224-1.2.89-2.301-2.924-.537-2.964-1.874.239-.415.625-.524 1.143-.327 0-.754-.492-1.18-1.25-1.149.638.976.133 1.12-.784 1.163-1.449.067-1.595-.013-1.994-1.737.519 3.433-.359 1.244-2.579 1.244-1.29 0-2.34-.81-3.589-.872-1.528-.08-3.217 1.66-4.586 2.285-1.063.488-4.812 1.876-4.573 3.323 0 .475-.172.916-.425 1.324-.598.532-.545 1.005.146 1.42.532 1.664.186 2.498 1.157 4.102-.917.262-1.715-.198-2.619-.143-.93.053-1.409.804-2.246 1.032-2.021.552-3.257-1.542-5.198-.132-.133.093-2.818-1.16-3.11-1.376-.758-.563.97-.49-.24-1.3-.704-.47-1.967-.676-2.565.093-.28-1.714-2.18-.997-3.204-1.81-1.422-1.124-4.333-1.845-3.881.854-1.596-.23-3.39-.631-4.999-.336-.89.163-1.488.416-2.246-.27-1.356-1.215-1.25-.715-2.619-.734-1.369-.013-7.936-4.333-8.614-2.584-1.25-.513-.359-1.417-.279-2.288.133-1.035-2.924-.563-3.549-1.35 3.802-1.407 4.12-6.676 4.812-10.103.28-1.345.518-3.465 1.635-4.425 1.635-1.399-.558-1.595-.705-.014-.225-3.238.426-7.206 1.822-10.145 1.342.757 2.685 1.654 3.256 3.159.133.67.253 1.34.386 2.01.306.852 1.156.969 1.143 2.01.386-1.34-.97-2.37-1.103-3.637-.186-1.95-.878-3.27-2.606-4.217-.717-.396-1.528-.937-2.127-1.518-.983-.946 1.582-.475 2.1 0-1.209-.586-1.275-5.708-.57-6.7-1.583 1.11-5.318-1.074-6.05-2.545-.65-1.302-2.126-1.978-2.418-3.498-.266-1.386 2.273-2.904-.918-3.048.373-.442.452-1.247.93-1.584 1.224-.848 2.34.578 3.484.723-2.034-1.341-2.832-.896-4.959-.62-1.063.14-3.137-1.435-1.17-1.677-.544-.541-.318-.892.665-1.053-1.502-.375-3.655.853-4.878-.478.678 0 1.316-.17 1.914-.479-1.196-.803-3.416-.477-3.735 1.148 0-1.063-1.223-2.057-.133-2.965-.466 1.164-2.553 1.089-1.25-.383-2.645 2.3-6.208-2.936-8.893-.093-1.077-1.485-1.967-2.397-3.815-2.78" class="landxx fr frx eu" stroke-width=".14489261"/><path d="M118.97 97.886c.544-.552.65-1.67 1.382-2.039 1.462-.731 3.124-.92 4.506-1.841 1.236-.823.359-3.143 2.047-3.012.2 2.919 1.595 7.126.904 9.954-.731 2.982-2.193 5.834-3.483 8.612-.505-.788-5.197-2.502-2.685-3.541a6.828 6.828 0 0 1-1.914-.765c.651-.414 1.117-1.107 1.05-1.914-1.342.315-1.529-1.179-.758-1.913-1.143-.287-1.86-1.784-.292-2.105a5.011 5.011 0 0 1-.758-1.436" stroke-width=".14489261"/></g></svg>