<svg xmlns="http://www.w3.org/2000/svg" width="300.417" height="323.922" viewBox="0 0 79.485222 85.704346"><g class="landxx coastxx de eu" transform="matrix(1.3293 0 0 1.3293 -1754.965 -381.705)" fill="#c83737" fill-rule="evenodd" stroke="#000" stroke-width=".109"><title>Germany</title><path d="M1337.74 289.87c.16-.763-.1-.811-.72-.145.24.05.48.1.72.145M1354.01 292.03c.43.05.87.05 1.3 0-.3-.76-1.07-1.027-1.8-.721.16.241.33.481.5.721"/><path class="landxx de eu" d="M1336.68 287.26c-.68.276-.75 1.235-.61 1.814 0-.392.36-.733.81-.907-.32-.107-.49-.419-.2-.907zm.9.806c-.21-.001-.4.04-.6.101.38.09.91.03 1.21 0-.2-.08-.39-.1-.61-.101zm1.75-.107c-.63-.06-.41.144-1.04.208.42.212.87 1.512 1.11 1.915.21.355 1.19 1.046.91 1.512-.47.767-1.79.342-2.32 1.31.7.298 1.4.167 2.11 0-1.6.736.13 1.241.41 2.117-.68-.03-.93.392-.41.907.58.561 1.41.387 2.12.604.75.231 1.13.832 1.61 1.412.58.695 1.35.778 2.02 1.31-1.74-.189-2.2-1.634-3.53-2.419-.87-.514-1.89.09-2.82 0-1.09-.108-2.15-.461-2.32 1.008-.1.586.41 1.047.4 1.612-.16.421-.22.868-.3 1.311-.1-.728.11-1.425-.7-1.814-.96-.456-1.3.446-.71 1.108-.53.133-.98.02-1.41-.302 2.37-1.6-4.05-1.852-4.74-1.714-.79.158-2.13 1.428-2.11 2.319 0 .739 2.77 1.13 2.31.907-1.12-.548-1.88 3.684-2.11 4.636-.3 1.227-1.34.315-2.22.907-1.38.923 1.19 1.355 1.53 1.928.99 1.641-2.43 2.131-1.36 3.355 1.03 1.196-3.61.917-4.24.593.41 1.153-.35.145-1.17.676.1.267-.21.334 0 .706.92.316 2.04 2.476 1.53 3.445-.45.868-2.21 2.14-1.36 3.326.46.635.1 1.515.19 1.748.27.711 1.93.746 1.15 1.761.99-.167.9.972 1.19 1.577-2.97-.03-3.47 2.321-.63 3.705 1.99.974 0 2.851.72 3.703.11.13 2.04 2.504 2.52 2.425.69-.114.14-.539 1.16-.405.54.07 0 .96.92.723.35-.09.83 0 1.19-.03 1.28-.444 1.41.25 2.59.622 1.07.335 2.4.479 3.51.664-.9.795-1.75 1.581-2.49 2.538-.83 1.096-1.12 2.764-1.68 3.978-.37.812-1.77 6.672.32 4.909-.72.839 2.91.25 3.58.285 1.3.07 2.44.02 2.72-.807-1.56.581-1.03-1.517.81-.604 1.3.645 4.45 1.039 5.77 1.809.81.472 5.14.181 4.01 2.122 1.56-.05 1.67-1.466 2.01-2.621.67.595 2.19.583 3.03.504-.73.358 1.14.898 1.51.907.86.02 1.4-.725 2.22-.806 1.57-.158 3.09-1.375 4.83-.807 0-.269 0-.547-.1-.806.81.1 1.6.504 2.42.504.4-.136.8-.222 1.21-.302.45.05.64.924 1.01 1.209 1.12.861 1.11.424 1.41-.605.3-1.026-.98-.63-.91-1.511.1-1.075.13-1.029-.7-1.916-.63-.668-.2-1.186.5-1.511.81-.371 3.43-.819 3.43-2.016 0-2.107 1.44-.274 2.22-1.21 1.4-1.7-1.05-2.884-2.12-3.528-1.26-.753-2.32-1.795-3.63-2.519-1.64-.911-1.97-2.984-3.53-3.831 1.23-.978.66-1.782-.5-2.419-.9-.493-1.1-1.385-1.51-2.116.65-.1 1.16.165 1.41 1.108.25-2.655 3.66-1.621 5.04-2.721 2.19-1.756 5.85-2.725 8.46-3.729-.23-.222-.46-.395-.7-.605 1-.236 1.24-.523 2.1.611 2.12 2.734 3.47-2.328 2.42-3.64-.14-.816-1.44-.857-1.51-1.507-.1-.883 0-1.186-.69-1.915-.45-.488.22-.881.4-1.345 1.04-2.665-1.62-3.381-.92-4.181 1.4-1.604-2.47-2.162-3-3.67.71-.558 2.96-4.006 1.5-4.209-.3-1.109-.63-2.284-1.81-2.722-.73-.269-1.92-.466-2.02-1.411 0-.492-.27-2.016-1.01-2.016-.44 0-1.35 0-1.11.504-.8-.471-2.55-2.551-3.32-2.62-1.62-.145-2.72-.01-3.93 1.209-.2-1.355 2.07-1.451 2.92-1.31-1.65-.616-1.89-.141-3.12.806-.59.448-1.86.947-1.52 1.915.16-1.634-3.08-.178-3.83.303 1.47-.715-.16.484-.4 1.209-.6-.562-4.1-1.343-3.33 0-.14-.517-.5-.796-1-.907.97-1.001 1.85-1.665 2.11-3.125-1.32.263-2.11.794-3.42.202-.82-.369-2.12-.869-2.52.302-.11-.52-.13-.55.2-1.008-.67-.299-1.46-.27-2.12 0 .5-.236 1.65-1.744.4-1.713 2-.907-4.79-1.513-4.52-1.364-.6-.331-2.04-.59-2.7-.658z"/><path d="M1366.9 292.68c1.08-.136.57-1.164.22-1.728.76-.07 1.48.207 2.16.504-.32-.887-2.18-.628-.72-1.584-.1 1.46 1.49.18 1.73 1.043.11.423-.62.963-.11 1.289.38.24.69.272.68.835-.71-.121-1.34-.549-1.95-.02-.53.459-1.7.328-2.01-.334M1371.37 295.05c0-.344 0-.68-.15-1.008.69.875 2.13.861 2.75 1.821.61.937-1.93.942-2.39.699 1.02-.184.1-1.227 1.23-1.296-.5.04-.98-.03-1.44-.216"/></g></svg>