<svg xmlns="http://www.w3.org/2000/svg" width="313.361" height="295.193" viewBox="0 0 82.910004 78.103157"><g class="landxx coastxx gr eu" transform="matrix(1.3293 0 0 1.3293 -1881.062 -530.014)" fill="#c83737" fill-rule="evenodd" stroke="#000" stroke-width=".109"><title>Greece</title><path class="landxx gr eu" d="M1417.66 416.374c.52.12 1.21.223 1.72-.02 1.09-.521-.7-1.226.95-1.058-.58-1.441-.98-1.389.4-2.137.87-.471 1.46-1.126 1.77-2.075.43-1.31.91-1.195 1.74-2.132.81-.904-.44-2.006-.39-2.934.61.4 1.56-.151 2.57-.129 2.23.05 3.38-1.291 5.23-2.117 1.19-.53 2.59.18 3.91-.267.84-.286.3-1.399 1.48-1.376.78.02 1.7.786 2.39.3.93-.651 2.33-.256 3.38-.398 1.05-.142 2.05-1.304 3.05-1.622.79-.251 2.13-.694 2.81.02.6.624 1.07 1.79 2.16 1.443 1.19-.375 1.91.549 3.02.768 1 .195 1.9-.427 2.9-.387.9.04 2.13.304 2.91-.297.97-.749-.1-1.687-.38-2.46-.5-1.386 2.52-.384 2.84-.205 1.02.566.83 1.488 1.21 2.487-2.22.953-1.65 1.516-1.76 2.917-.1 1.094-.73 1.963-2.08 2.609.42-1.15-4.86-1.383-5.68-1.707-1.59-.63-1.57-.312-2.99.627-.99.647-1.9-1.194-2.83-.731-1.31.65-1.36 2.394-3.34 1.67-1.48-.542-1.38.16-.99 1.149.21.535.99.138.56.907-.29.522.34 1.141.74.715.81-.867 2.86 1.914 3.3 2.41-1.14.622-2.59-1.824-3.76-1.923-2.72-.226.89 2.452 1.03 3.219-1.27.411-2.6-1.813-3.65-2.235-.88-.353-.99.208-.66.87.49.967 1.45 1.209 2.22 1.869-1.86.777-2.31-.854-2.85-2.018-.6-1.313-2.56-1.487-3.41-2.59.56-.163.84-.569.72-1.152-4.02.551-2.17 5.02-.69 6.967.79 1.034 5.97 5.772 2.27 6.136 1.58-.552.1-2.719-1.08-2.376-1.53.448-.21 3.294 1.01 2.809-.78 1-2.06 1.602-3.32 1.224.82.423 3.1 1.049 3.45 1.856.28.648 1.07-.403 1.51.257.42.623-.64.688.82 1.099 1.53.433 2.48 1.317 3.93 1.968 1.07.481 1.01 1.381.87 2.388-.15 1.11.8 2.1.23 3.161-1.22-.969-2.28-2.637-3.92-2.944-1.2-.224-2.36.726-3.5.639 0 .995.89.1.96 1.162 0 .691 1.22 3.164 1.42 1.359.25.494 1.54 1.033 1.07 1.728.11-.161-2.16 1-1.8 1.008-1.02-.02-.33-1.054-1.11-1.365-.76-.307-1.7-.377-2.34-.939-.13 1.775 1.55 3.343 2.13 4.93.35.944.81 1.761.56 2.764-.23.885 1.12 1.143.93 1.972-.1.368-2.63-2.196-2.85-2.539-1.27-2.018-2.38 1.199-2 2.377-1.09.155-1.47-2.918-2.26-3.469-.5-.353-.3-1.329-1.12-1.247-1.07.107-.89 1.467-.79 2.196-2.16-.367-2.91-2.856-2.04-4.638.7-1.449-3.55-4.231-4.23-5.227.85-.269 1.28-1.471 1.89-2.045.6-.559 1.3.04 1.96-.531.45-.395.95-1.303 1.67-1.164 1.32.255 2.22 1.612 3.68 1.743 1.15.102 1.9.938 2.82 1.494.74.441 1.09-.436 1.86-.896.61-.372 1.44-.921.1-1.091-.75-.09-1.39.02-2.07-.407-.79-.488-.95-1.355-1.58-.343-.37-.522-.8-.979-1.3-1.368.11 1.871-2.57.392-3.33.563-1.95.437-3.2 1.047-4.23-.778-.14.655-.74 1.139-1.29 1.44-.37-1.188-.67-2.487-1.72-3.265-.55-.411-2.11-1.526-1.31-2.352.3-.312 4.25.932 2.45-.72-.56-.509-2.66-.635-2.52.647-.59-1.745-2.21-1.994-3.35-3.122-.79-.792-.67-2.948-2.05-3.07"/><path d="M1468.35 442.294c-1.17-1.104 1.74-2.073 2.52-1.872-.62.49-2.47.925-2.52 1.872M1417.52 418.318c.26.168.52.336.79.504-1.4.27-3.24-2.124-3.17-3.384 2.8-.276.41 2.246 2.38 2.88M1421.7 427.606v-.72c.52.429.26 1.191.75 1.584.54.434 1.06.89 1.26 1.584-.63.245-2.36.04-2.3-.936-.24.147-.48.291-.72.432-.7-1.299.55-1.086 1.01-1.944M1422.7 423.646c.37.445.29 2.549-.58 1.916-.5-.367-.18-2.065.58-1.916M1423.06 428.182a4.032 4.032 0 0 1-.79-1.44c.36.423.63.903.79 1.44M1424.14 433.87c-.7-.431-1.6-1.069-1.51-2.017 1.52 0 2.41.8 1.51 2.017M1439.77 444.814c.49.579 1.21 1.682 0 1.944-.16-.578-.74-1.47 0-1.944M1442.93 430.846c.47.755.1.944-.57.937 0-.415.21-.727.57-.937M1443.01 433.654c-.2-.248-.37-.512-.51-.791.81-.233.98.03.51.791M1443.44 426.814c.33-1.482-3.69-4.209-4.9-3.168.58-.65 1.23-1.68 2.22-1.708 1.14-.03 1.56 1.291 2.24 1.945 1.01.981 2.49.588 3.68 1.132 1.39.635.72 2.477 1.47 3.534.6.848 1.86.561 2.34 1.632.65 1.466-1.61.278-1.93 0-.73-.676-1.2-2.281-2.05-2.7-.92-.451-2.44.424-3.07-.658M1444.01 421.63c-.26-.198-.5-.415-.72-.648.54-.14.85.06.72.648M1448.7 454.966c-.96.209-2.98.08-3.89-.313-.93-.403-.33-1.923-.29-2.639.23.148.47.292.72.432.26-.472.36-.976.29-1.512.58 1.768 2.02 1.025 3.38.864-1.35.525-.36.761.21 1.28.86.789 1.66.64 2.7.268 2.15-.769 4.4.58 6.56.685.61.03 1.76-.593 1.79.47 0 .439-.29 1.018.38.976 1.01-.06 2.15-.961 3.15-.77.48.09.61 1.137.32 1.46-.38.434-1.17.416-1.69.413a30.7 30.7 0 0 0-6.13.599c-.75.146-1.72.439-2.44.03-.62-.358-.51-1.134-1.16-1.441-1.21-.578-2.62-.487-3.9-.799M1448.77 434.95c-.29-.583 0-1.062.57-1.297.1.561-.1.994-.57 1.297M1449.49 442.51v-.792c.5.497 1.1.43 1.51-.143 0 .948-.89.772-1.51.935M1449.78 408.741c-1.01-.281-1.11-2.119.14-1.872 1.12.225.9 1.722-.14 1.872M1450.13 424.294c-.1-.814-1.17-.842-.86-1.729.89.06 1.19.981 1.51 1.656-.22.02-.44.05-.65.07M1452.08 440.279l-.36-.721c.82-.001.94.24.36.721M1453.3 413.638c.81-.123 1.6.354 2.38-.07-.28.467-.42.971-.43 1.513-1.11-.607-2.8.707-1.95-1.441M1453.45 433.582c-.66-.707-1.21-1.535-2.02-2.089.2-.241.44-.433.72-.575.34 1.145 2.15 1.146 1.3 2.664M1453.74 433.654c.66.199 1.68.127 1.72 1.08-.75.141-1.5-.381-1.72-1.08M1453.95 443.014c-.27-.144-.53-.288-.79-.432.53-.06.46.172.79.432M1455.46 439.702c-.63-.494-.58-1.089.15-1.44.43.477.34 1.052-.15 1.44M1456.4 435.958c-.55-.749-.39-.966.5-.648-.17.216-.34.432-.5.648M1456.83 442.51l-.72-.576c.54-.32 1.07-.05.72.576M1456.9 409.39v.72c-.58.113-1.02-.198-1.08-.792a1.6 1.6 0 0 1 1.08.07M1457.33 440.206c-.27-.36-.82-1.028-.55-1.542.15-.279.93-.925 1.25-.673.56.437-.23 1.986-.7 2.215M1459.86 441.502c.28-.798 1.07-1.155 1.87-1.152-.69.281-1.21.835-1.87 1.152M1460.72 429.55c-1.6-.616.34-2.477-1.44-3.168 1.88-2.438 3.29 2.006 1.44 3.168M1460.86 435.094c.1-1.3 1.65-1.107 2.52-1.512-.42.933-1.56 1.437-2.52 1.512M1463.17 422.566c-.82-.09-1.56-.495-2.24-.936.23-.18.48-.348.73-.504-.67-.06-1.5.299-2.09-.122-1.11-.784.12-1.144.83-1.338 2.23-.604 2.92.249 4.13 2.396-.58-.355-1.09-.05-1.36.504M1466.7 433.942c-.13-.138-2.73-.904-1.14-1.335.85-.23 1.75.422 2.57.184-.23.613-.78 1.074-1.43 1.151M1467.34 438.622l-.72-.648c.57 0 .55.203.72.648M1468.21 440.134c-.55-.702-.4-.942.43-.72-.15.241-.29.48-.43.72M1470.22 453.31c-.29-1.361-.24-2.375.29-3.672.19.776.42 3.239-.29 3.672M1475.48 448.126c-.73 1.979-1.35-.231-1.45-1.007-.2-1.493 2.06-2.571 3.32-2.81.21.875-.29 1.691-.53 2.493-.43 1.446-.55.246-1.34 1.324"/></g></svg>