<?xml version="1.0" encoding="UTF-8" standalone="no"?>
<!-- Created with Inkscape (http://www.inkscape.org/) -->

<svg
   xmlns:dc="http://purl.org/dc/elements/1.1/"
   xmlns:cc="http://creativecommons.org/ns#"
   xmlns:rdf="http://www.w3.org/1999/02/22-rdf-syntax-ns#"
   xmlns:svg="http://www.w3.org/2000/svg"
   xmlns="http://www.w3.org/2000/svg"
   xmlns:sodipodi="http://sodipodi.sourceforge.net/DTD/sodipodi-0.dtd"
   xmlns:inkscape="http://www.inkscape.org/namespaces/inkscape"
   width="60.473122mm"
   height="31.894835mm"
   viewBox="0 0 60.473122 31.894835"
   version="1.1"
   id="svg24519"
   inkscape:version="0.92.0 r15299"
   sodipodi:docname="hungary.svg">
  <defs
     id="defs24513" />
  <sodipodi:namedview
     id="base"
     pagecolor="#ffffff"
     bordercolor="#666666"
     borderopacity="1.0"
     inkscape:pageopacity="0.0"
     inkscape:pageshadow="2"
     inkscape:zoom="0.35"
     inkscape:cx="469.99421"
     inkscape:cy="-45.440509"
     inkscape:document-units="mm"
     inkscape:current-layer="layer1"
     showgrid="false"
     fit-margin-top="0"
     fit-margin-left="0"
     fit-margin-right="0"
     fit-margin-bottom="0"
     inkscape:window-width="1920"
     inkscape:window-height="1017"
     inkscape:window-x="1912"
     inkscape:window-y="-8"
     inkscape:window-maximized="1" />
  <metadata
     id="metadata24516">
    <rdf:RDF>
      <cc:Work
         rdf:about="">
        <dc:format>image/svg+xml</dc:format>
        <dc:type
           rdf:resource="http://purl.org/dc/dcmitype/StillImage" />
        <dc:title></dc:title>
      </cc:Work>
    </rdf:RDF>
  </metadata>
  <g
     inkscape:label="Layer 1"
     inkscape:groupmode="layer"
     id="layer1"
     transform="translate(141.36156,-104.9157)">
    <path
       inkscape:connector-curvature="0"
       id="hu"
       class="landxx hu eu"
       d="m -141.30897,124.10842 c 0.90394,-0.95975 2.0604,-1.74137 3.44287,-1.43563 -0.43866,-1.16048 -0.7444,-2.7184 -0.37219,-3.93472 0.31903,-1.03018 1.62173,-1.36783 1.95406,-2.40868 0.26587,-0.85871 -2.83139,-1.17375 -1.12989,-1.8158 1.3027,-0.48652 2.67188,1.68687 3.62897,0.0798 0.67793,-1.13256 1.27613,-2.66791 1.84771,-3.1943 0.5583,-0.52773 1.07673,-0.0532 2.63199,1.15649 3.84166,2.97363 7.73651,1.46754 12.20294,0.92253 -2.47248,-1.97002 1.06344,-2.04711 2.57883,-2.19335 0.73111,-0.0664 2.6453,-0.72712 2.84467,-1.6523 0.31903,-1.58053 1.63505,-0.32833 2.77823,0.11963 1.55528,0.61014 4.00118,-0.0266 5.11778,-1.09932 0.82417,-0.7803 0.51843,-2.98959 1.5287,-3.39369 1.99393,-0.78428 4.399965,0.36423 6.407179,0.55829 0.864063,-1.37979 2.073714,-0.4586 2.85799,0.3443 1.169778,1.20434 2.326269,1.67492 3.894844,1.02488 2.725041,-1.13122 4.067638,2.13087 6.633175,3.04142 2.857966,1.00894 0.89062,2.54959 0.159504,3.21823 -1.196361,1.09666 -3.190308,0.10634 -4.014454,1.38247 -0.638061,0.97571 -2.379453,2.3103 -2.406033,3.26208 0,1.01559 -2.060401,4.31489 -3.496051,6.84453 -0.638061,1.12857 -1.954056,2.10959 -2.286376,3.40565 -0.252558,1.00229 0,1.93811 -2.180031,2.50308 -1.090041,0.28712 -2.020531,-0.23929 -2.725066,0.79357 -0.784271,1.16713 -1.754661,0.26322 -2.738331,0.58756 -1.46223,0.47322 -3.15044,0.0665 -4.61267,-0.0798 -1.03683,-0.10635 -2.68517,-0.70186 -3.54921,0.11963 -0.99696,0.94115 -1.28941,1.7374 -2.77823,1.80653 -1.36917,0.0665 -2.83138,0.20205 -4.1075,0.73377 -1.18307,0.49715 -1.51539,1.67623 -2.93776,1.85569 -2.36614,0.29907 -5.4235,-0.28714 -7.37758,-1.52736 -1.11659,-0.71119 -2.16674,-0.553 -3.05736,-1.7653 -1.10333,-1.50211 -2.65859,-2.37547 -4.20058,-3.38706 -1.39576,-0.92783 -2.49907,-1.74137 -3.34982,-3.19561 -0.69122,-1.14985 -1.55528,-2.97497 -3.19031,-2.68386"
       style="fill:#c83737;fill-opacity:1;fill-rule:evenodd;stroke:#000000;stroke-width:0.14449541;stroke-miterlimit:4;stroke-dasharray:none;stroke-opacity:1">
      <title
         id="title1768">Hungary</title>
    </path>
  </g>
</svg>
