<svg xmlns="http://www.w3.org/2000/svg" width="228.56" height="120.547" viewBox="0 0 60.473122 31.894835"><path class="landxx hu eu" d="M.053 19.193c.904-.96 2.06-1.742 3.442-1.436-.438-1.16-.744-2.718-.372-3.935.32-1.03 1.622-1.367 1.954-2.408.266-.859-2.831-1.174-1.13-1.816 1.303-.487 2.672 1.687 3.63.08.677-1.133 1.276-2.668 1.847-3.195.558-.527 1.077-.053 2.632 1.157 3.842 2.974 7.737 1.467 12.203.922-2.472-1.97 1.063-2.047 2.579-2.193.731-.066 2.645-.727 2.845-1.652.319-1.58 1.635-.329 2.778.12 1.555.61 4.001-.027 5.118-1.1.824-.78.518-2.99 1.528-3.394 1.994-.784 4.4.365 6.407.559.865-1.38 2.074-.459 2.858.344 1.17 1.204 2.327 1.675 3.895 1.025C54.992 1.14 56.335 4.4 58.9 5.312c2.858 1.01.891 2.55.16 3.218-1.196 1.097-3.19.107-4.015 1.383-.638.976-2.379 2.31-2.406 3.262 0 1.016-2.06 4.315-3.496 6.845-.638 1.128-1.954 2.11-2.286 3.405-.253 1.003 0 1.938-2.18 2.503-1.09.287-2.02-.239-2.725.794-.784 1.167-1.755.263-2.738.587-1.463.474-3.15.067-4.613-.08-1.037-.106-2.685-.701-3.55.12-.996.941-1.289 1.738-2.777 1.807-1.37.066-2.832.202-4.108.734-1.183.497-1.515 1.676-2.938 1.855-2.366.3-5.423-.287-7.377-1.527-1.117-.711-2.167-.553-3.058-1.765-1.103-1.503-2.658-2.376-4.2-3.387-1.396-.928-2.5-1.742-3.35-3.196-.691-1.15-1.555-2.975-3.19-2.684" fill="#c83737" fill-rule="evenodd" stroke="#000" stroke-width=".144"><title>Hungary</title></path></svg>