<?xml version="1.0" encoding="UTF-8" standalone="no"?>
<!-- Created with Inkscape (http://www.inkscape.org/) -->

<svg
   xmlns:dc="http://purl.org/dc/elements/1.1/"
   xmlns:cc="http://creativecommons.org/ns#"
   xmlns:rdf="http://www.w3.org/1999/02/22-rdf-syntax-ns#"
   xmlns:svg="http://www.w3.org/2000/svg"
   xmlns="http://www.w3.org/2000/svg"
   xmlns:sodipodi="http://sodipodi.sourceforge.net/DTD/sodipodi-0.dtd"
   xmlns:inkscape="http://www.inkscape.org/namespaces/inkscape"
   width="83.419563mm"
   height="31.656195mm"
   viewBox="0 0 83.419563 31.656195"
   version="1.1"
   id="svg22725"
   inkscape:version="0.92.0 r15299"
   sodipodi:docname="iceland.svg">
  <defs
     id="defs22719" />
  <sodipodi:namedview
     id="base"
     pagecolor="#ffffff"
     bordercolor="#666666"
     borderopacity="1.0"
     inkscape:pageopacity="0.0"
     inkscape:pageshadow="2"
     inkscape:zoom="0.35"
     inkscape:cx="1187.6433"
     inkscape:cy="868.39421"
     inkscape:document-units="mm"
     inkscape:current-layer="layer1"
     showgrid="false"
     fit-margin-top="0"
     fit-margin-left="0"
     fit-margin-right="0"
     fit-margin-bottom="0"
     inkscape:window-width="1920"
     inkscape:window-height="1017"
     inkscape:window-x="1912"
     inkscape:window-y="-8"
     inkscape:window-maximized="1" />
  <metadata
     id="metadata22722">
    <rdf:RDF>
      <cc:Work
         rdf:about="">
        <dc:format>image/svg+xml</dc:format>
        <dc:type
           rdf:resource="http://purl.org/dc/dcmitype/StillImage" />
        <dc:title></dc:title>
      </cc:Work>
    </rdf:RDF>
  </metadata>
  <g
     inkscape:label="Layer 1"
     inkscape:groupmode="layer"
     id="layer1"
     transform="translate(331.23954,-346.93977)">
    <path
       inkscape:connector-curvature="0"
       id="is"
       class="landxx is"
       d="m -327.02584,358.12449 c 1.39575,-0.0532 3.40299,-0.47058 4.78546,-0.76568 0.75769,-0.16217 0.49182,-1.35987 1.48881,-0.76301 1.32928,0.80555 2.40601,-1.61643 2.6187,0.57159 0.70453,-0.28713 1.38246,-0.63806 2.02053,-1.0528 0.14621,1.44893 1.95405,1.06609 2.96433,0.19142 -0.61148,0.4945 -1.28942,0.87733 -2.02053,1.14851 0.90391,0.74573 1.19636,-0.0931 1.94076,-0.40942 0.50514,-0.21269 2.03382,0.89328 3.04408,0.59951 -2.49907,0.60616 -5.29058,1.20434 -7.27124,2.96698 1.01027,-0.0798 1.96737,0.28314 2.96433,0.38284 0.99696,0.10634 1.98066,-0.48918 2.96433,-0.0931 -2.07371,3.32058 -8.6537,-1.25884 -10.9135,2.1056 -0.22598,-1.75467 -0.97038,-0.39613 -1.96737,-0.16217 -1.19636,0.28181 -2.4459,0.16217 -3.65555,0.16217 -2.47248,0 -1.09002,2.42065 0.73111,1.7653 1.92748,-0.69788 3.09726,-0.84676 5.22413,-0.62344 1.02354,0.10635 2.00724,0.0665 3.03078,0.0665 1.03686,0 2.27309,1.31867 3.2435,0.70453 -0.75772,0.22465 -1.44894,0.76567 -1.71479,1.53002 0.73109,0.11964 1.18307,0.59818 1.23623,1.33993 1.38247,-1.15383 3.54921,-1.99926 5.35705,-2.0099 -0.45195,0.77232 -1.55526,0.83746 -2.32627,1.0116 -0.9172,0.20737 -3.13713,2.25581 -0.82415,1.66826 -0.7444,0.0399 -1.42236,0.29643 -2.00723,0.76567 1.74136,0.38151 3.13712,-1.43563 4.87851,-0.66996 -0.87735,0.10634 -5.13107,1.09268 -2.59214,2.1056 -0.7444,0.16218 -1.55526,-0.21667 -2.28637,0.0931 0.1595,1.5699 -1.10331,1.17775 -2.39272,1.43564 -0.5982,0.38416 -1.18307,0.43335 -1.75469,0.14622 -0.1861,-0.27915 -0.43866,-0.48785 -0.7444,-0.62344 -1.20965,0.40942 -1.03686,1.67092 -1.1432,2.67986 2.21992,-0.11964 4.9051,-0.14091 7.08515,-0.57426 1.05015,-0.21003 2.11359,0.21801 3.17702,0.11964 1.16976,-0.10634 1.62174,-1.25485 2.95102,-0.98102 -0.18611,0.33631 -0.3589,0.68725 -0.49183,1.0528 0.58488,0.10635 1.68819,0.74573 2.27309,0.28048 1.06344,-0.85606 1.58187,0.64471 -0.13292,0.48519 1.05012,0.7484 2.20661,-0.0798 2.96431,-0.76567 0.26587,0.35093 0.45195,0.73377 0.5849,1.14851 -0.45196,0.0665 -0.90394,0.15819 -1.3426,0.28713 1.05015,2.08832 3.27007,1.39974 5.14437,1.73207 2.23321,0.39746 4.24045,1.21497 6.54012,1.31467 1.74139,0.0798 3.52263,0.0266 5.22412,-0.3629 0.7843,-0.17546 1.55529,-0.42404 2.23322,-0.83213 1.7015,-1.00894 -0.26585,-1.01957 1.43565,-1.46887 -2.40603,-0.47988 2.35285,-0.88664 3.09726,-0.92519 1.31599,-0.0665 3.69542,-0.0665 4.17398,-1.65896 0.13292,2.44191 4.24043,-0.13293 5.48997,-0.7803 2.40604,-1.23757 4.9051,-2.14016 7.23137,-3.47344 1.35587,-0.77897 2.72504,1.00893 4.17398,0.4586 0.81086,-0.30573 5.55645,-2.94039 3.11055,-3.09725 0.81086,-0.93184 2.8048,-0.4267 1.52868,-1.91286 1.24954,1.93546 2.89786,-0.4041 4.49301,-0.19274 -1.80784,-0.91057 1.68821,-1.20168 -0.86404,-1.24422 0.69125,0.0399 1.35589,-0.0133 2.02053,-0.19142 -0.93051,-0.37486 -1.861,-0.80156 -2.87128,-0.95709 1.7015,-1.14851 3.2435,1.61243 4.83863,-0.39613 1.01027,-1.26549 -2.37943,-1.23226 -2.92444,-1.23226 1.01028,-0.10634 2.04711,-0.0798 2.87128,-0.76567 -1.03686,-0.25656 -2.11359,-0.23396 -3.16373,-0.0931 1.05014,-0.21136 3.33654,-1.02223 2.96433,-2.48711 -1.1432,0.36024 -2.36614,-0.74308 -3.44287,-0.95843 -1.46223,-0.29643 -2.39274,0.45063 -3.53592,1.24555 0.78428,-0.83346 2.63199,-1.40772 2.29967,-2.87127 -1.35586,0.0931 -2.65859,0.5038 -4.02774,0.57425 0.27913,-1.0302 1.78123,-1.28277 2.16674,-2.25581 0.34561,-0.90525 -3.03078,-1.0847 -3.50934,-1.85835 1.18307,0.0532 1.02357,-0.32568 1.27612,-1.16978 0.29245,-0.99032 2.4592,-0.88664 3.23018,-1.22162 -1.82113,0.35492 -5.78242,0.0399 -6.42049,2.39273 -0.63806,-0.61414 -2.45919,-1.19371 -2.12687,-2.20264 0.51843,-1.60845 -3.0042,-1.74271 -3.73532,-1.36652 -0.7444,0.37752 -2.27308,-0.54368 -1.99392,0.91987 0.3589,1.86899 -1.23626,1.78924 -1.42236,3.12916 -0.31903,-0.35093 -3.40298,-1.2934 -3.9214,-1.24554 -1.67492,0.15951 -2.59214,2.16541 -3.82837,3.06269 -0.43867,-1.13522 -4.09422,-4.04371 -5.29061,-2.39805 -0.37219,0.49849 0,1.58452 0.37222,1.97533 0.89062,0.89727 0.61148,2.0192 0.31903,3.10257 -1.36918,-1.74536 -2.23322,-6.12804 -5.264,-5.45542 -0.87735,0.19408 -0.97041,1.03286 -1.62176,1.17643 -0.77098,0.17015 -1.4622,-0.35094 -2.2465,0.0266 -1.07673,0.51976 -0.19938,2.29437 -1.03684,3.1265 -1.40907,1.38513 -3.42957,-2.91913 -4.29361,-3.55187 -1.542,-1.11395 -2.73836,1.01957 -2.2864,2.30499 0.37221,1.0528 -0.85075,4.28166 -1.71479,2.95237 -0.29245,2.37677 -1.20965,-0.47057 -2.03382,-0.63142 -2.21993,-0.43202 -2.00724,4.32154 -3.13712,1.97001 0,1.07673 -0.87736,1.87165 -0.67796,2.96699 -0.53172,-1.35189 0,-3.87489 -2.29967,-2.96699 3.07068,-0.49316 -1.1432,-2.18801 -1.23625,-3.25411 2.35285,2.90318 4.81204,-2.46318 2.00724,-1.91285 1.82113,-0.61546 0.57159,-0.84277 -0.22598,-1.09002 -1.09001,-0.33897 -0.78427,-0.99564 -1.62173,-1.61908 -0.87733,-0.64471 -2.16677,-0.15819 -2.71178,-1.25353 -0.26584,-0.52374 -1.51539,-0.92253 -2.04711,-1.01425 -0.39877,-0.0665 -4.75886,0.68193 -3.93471,1.21897 1.1432,0.74573 3.46947,0.89062 4.79875,0.79092 -1.26281,0.34163 -3.12383,-0.5038 -3.9214,0.95843 0.78428,0.36954 2.76494,0.66199 2.92444,1.77328 0.13292,0.77231 -1.64831,1.06476 -1.96734,1.67225 1.70149,-2.32361 -0.33235,-1.96204 -1.82114,-1.24422 0.61146,-1.14452 0.3589,-1.30404 -0.75772,-0.47855 0.21269,-0.30573 0.41209,-0.62477 0.57162,-0.95709 -0.79759,-0.43468 -1.66163,-0.90525 -2.57883,-1.01558 -0.73112,-0.0931 -2.61872,0.37885 -0.5849,0.91854 -1.27613,0.28846 -1.27613,0.66997 0,1.14718 -0.86404,-0.54235 -1.88758,-0.66464 -2.87128,-0.86005 -0.47854,1.7201 1.86102,1.72542 2.87128,2.20131 -1.19636,-0.11964 -3.03078,-1.03951 -3.9214,0.28713 1.22294,0.71914 2.6054,0.47854 3.9214,0.86138 -0.67793,0.0399 -1.34258,0.13293 -2.00724,0.28713 0.50514,0.2632 1.05014,0.39081 1.62176,0.38283 -1.84774,1.26815 -3.92143,-1.63237 -5.92867,-0.95842 0.25258,0.69788 0.81088,1.23891 1.52868,1.43564 -1.2761,0.21667 -1.2761,0.53571 0,0.95842 -1.58184,-0.47722 -3.64226,-1.62041 -4.69238,0.38151 1.40904,0 2.83138,-0.0399 4.02774,0.86271"
       style="fill:#c83737;fill-opacity:1;fill-rule:evenodd;stroke:#000000;stroke-width:0.14449541;stroke-miterlimit:4;stroke-dasharray:none;stroke-opacity:1">
      <title
         id="title1801">Iceland</title>
    </path>
  </g>
</svg>
