<svg xmlns="http://www.w3.org/2000/svg" width="149.932" height="159.985" viewBox="0 0 39.669582 42.329296"><g class="landxx coastxx ie eu" transform="matrix(1.3293 0 0 1.3293 -1612.807 -378.473)" fill="#c83737" fill-rule="evenodd" stroke="#000" stroke-width=".109"><title>Ireland</title><path d="M1228.59 287.28c.14.11-.1.476.18.144.26-.336 0-.03-.18-.144M1218.15 296.28c1.16-.498-.96-.87-1.51-.576.58 0 1.08.183 1.51.576"/><path class="landxx ie eu" d="M1215.78 315.29c-.24.02-.48.05-.72.07.95-.859 1.96-1.92 3.31-2.088-1.26-.212-3.34 1.568-4.49.593-1.29-1.096 2.92-3.179 3.77-2.897-1.26-.562-2.98-.08-4.25.216-.34-1.016.73-1.173 1.47-1.27.39-.05.83-.08 1.18-.267.33-.178 1.04.46 1.81.313a4.831 4.831 0 0 0-.79-1.513c1.37 0 1.78-1.251 3.21-1.231 1.66.02 3.15-.634 4.78-.784-.55-.02-1.03-.344-1.22-.864-2.09 1.341-3.69 1.292-6.12 1.729.66-.464 3.95-2.088 3.54-3.18-.58-1.558 2.62-1.519 3.3-2.221-1.25-.08-2.43-.123-3.68-.113-.61 0-1.66-.654-2.44-.751.14-.241.28-.48.43-.72-.73-.219-1.3.48-2.01.07.24-.163.48-.331.72-.504-.24-.17-.48-.338-.72-.504.85-.138.52-.239 1.12-.621.49-.309 1.23.03 1.76-.03-.75.1-1.59-.563-.77-1.219.34-.27 1.06-.217 1.46-.347 2.02-.653-1.93-.911-1.76-.65-.27-.405.62-.426.78-.303-.46-.74.3-1.967-.94-1.297.34-.431.31-.839-.1-1.224-.21.225-.41.465-.58.72.11-.526.33-1.006.65-1.439.11 1.134 1.69-.05 2.83-.125 1.07-.07 2.44.203 2.57 1.493.54-2.353 3.01.05 4.25-1.152-.27-.137-.53-.281-.79-.432.79-1.037 2.97-.932 3.16-2.16-1.22-.237-2.54.145-3.67-.504.26-.854 1.18-1.077 1.95-.792-.29-.624-.31-1.05.64-.719-.58-.759 0-1.996.76-2.395 1.33-.712 2.51-.109 3.78-.271-.58-1.004.38-1.087.7-.514.58 1.02 0 1.016-.27 1.883 1.09.02 1.52-1.155.72-1.873 1.57-1.09 2.15-.497 3.68-.216-.83.926-2.66 1.129-3.07 2.412-.36 1.129-1.71 2.688-3.2 2.052.29.285.61.55.94.793-1.32.829-3.56.632-1.83 2.224.76.695 1.86 1.111 2.75 1.395.85.269 1.51.594 1.91-.756.21-.714-.1-1.395 1.46-1.004 1.04.262 1.53 1.504 2.11 1.667 0 1.402.95 1.007 1.66.936.63-.06.61-.558 1.51.289-.5.255-1.13.278-1.57.669-.14.129.65 1.135.58 1.69-.1.78 1.88 2.803-.1 3.184 1.32 2.028.75 3.237-.1 5.267-.42 1.053-1.02 3.186-2.52 3.013 1.64.223.56 1.623-.64 1.403-.95-.176-2.42.587-2.67-.827.62 1.848-2.79 1.157-3.74 1.493-.88.313-.3 1.157-1.68 1.157-1.07 0-1.61 1.477-3 1.382.83-1.22-.68-.883-1.3-.648 1.11.317.73.847 0 1.269-.33.13-.59.335-.8.616-.25.492-.67.06-1.12.247-1.06.433-2.19.415-3.29.771-1.23.397-2.64 0-3.79.553.31-.522.74-.906 1.3-1.151-.53.08-1.04.22-1.52.432.63-.568 1.42-.857 2.23-1.08-.94-.498-2.79.06-3.59.649"/></g></svg>