<svg xmlns="http://www.w3.org/2000/svg" width="416.548" height="447.531" viewBox="0 0 110.21156 118.40929"><g class="landxx coastxx it eu" transform="matrix(1.3293 0 0 1.3293 -1759.52 -469.432)" fill="#c83737" fill-rule="evenodd" stroke="#000" stroke-width=".109"><title>Italy</title><path d="M1361.24 441.739l-.51-.72c.76-.09.93.146.51.72"/><path class="landxx it eu" d="M1323.69 369.599c1.01-1.075 3.67-.167 3.55-2.404 0-.902-.71-1.298-1.28-1.916-.31-.319-.67-.687-.94-1.042.85-.483 1.7-1.549 1.18-2.127.9.24 1.89 1.116 2.86.779 1.22-.424 1.77-.219 2.93-.132.77.06 1.7-.869 2.05-1.461.28-.454.32-.857 0-1.277.82-.222 1.43-.871 1.94-1.513.89.552.54 1.273 1.03 2.055.46.746 1.17.946 1.81 1.565.25.239.31.953 1.25 1.531.3.186.17-1.853.84-2.476.75-.708 1-1.168 1.09-2.317.17-1.959.82-.569 1.25-.105.74.777 1 .893 1.93.576 1.5-.514 1.5.589 2.54 1.115.1-.659.61-1.325-.23-1.707-.75-.342.25-1.688.73-1.784.47-.1.99.606 1.44.727.97.267.1-1.321.16-1.641.19-.622.28-.827.38-1.115.63.06 2.21.546 2.57.732.96.489 1.61-.769 2.17-1.271.74-.669 1.91-.479 2.82-.426 1.46.09 2.87-1.012 4.29-.716-1.58.943 1.62 3.4 2.5 3.681 2.66.844 4.53 0 7.19.764-.11 1.007-1.19 1.697-1.7 2.324.59.337 1.19.713 1.87.864-.58.676-1.46 1.651-.21 2.016-.74.963.46 1.324.86 1.404.95.189 1.22 1.755-.22 1.476 1-2.077-1.72-.911-2.23-.72-.22-1.433-1.96-.128-2.47.19-.55.349-1.13.672-1.72.966-.39.195-3.68 1.259-1.64.21-.55.113-1.28.04-1.73.433-.33.279-.17 1.43-.79 1.296 0 .333 1.22 2.044 1.34 2.077 1.82.502.67 3.155-.4 1.955-2.09 3.686 2.59 7.188 5.12 8.799 1.24.789 3.24 1.344 4.1 2.581 1.27 1.801 1.94 4.17 2.68 6.225.95 2.638 4.41 5.337 6.88 6.471 1.83.84 2.8 1.099 4.83.827.76-.101 4.11-.594 3.7 1.145-.2.83-2.57 1.602-1.71 2.617.94 1.095 3.43 1.718 4.7 2.172 2.03.725 3.86 1.442 5.55 2.796 1.74 1.381 3.87 1.791 5.56 3.316 1.13 1.025 2.65 2.099 2.36 3.807-.1.388-.14 2.134-.72 2.192-.8.08-1.78-.393-2.2-1.083-.92-1.506-.86-3.25-3.13-3.021-1.83.184-2.2-1.009-2.45-1.692-1.93.325-2.36.306-3.57 2.098-.75 1.111-1.3 2.505-1.57 3.82-.32 1.507 1.6 1.874 2.64 2.352 1.67.767 1.97 1.96 2.14 3.648.27 2.85-4.66.801-4.19 4.242.22 1.683-.23 1.815-1.31 2.958-.91.968-1.61 2.162-2.69 2.956-1.02.747-1.88.327-2.39-.762-.78-1.658 1.63-2.427 1.75-3.935 0-.512-.21-1.129.14-1.586.59-.764 1.75-.193 2.07-1.176.27-.856-.81-1.827-1.02-2.609-.32-1.215-.43-2.283-1.09-3.393-.78-1.33-.9-3.323-1.94-4.447-.63-.669-1.06-.51-1.65-.02-.7.585-1.43-.603-1.89-.973-.52-.418-1.37-.308-1.53-1.149-.13-.693.32-.9 0-1.752-.8-1.839-2.87-1.882-4.38-.92.77-1.179.53-2.285-1.07-2.124-1.19.119-1.87-1.64-2.3-2.462-.76-1.461-1.67-.611-2.92-.979-.67-.196-1.29-.51-2.01-.339-1.5.357-.53.159-1.57-.686-1.03-.837-2.32-1.067-3.34-1.991-1.14-1.025-1.8-2.541-3.04-3.406-1.08-.752-1.5-.561-2.22-1.735-.74-1.226-2.67-2.666-4.13-1.758.84-1.407-2.59-5.039-3.86-4.859.15-.02-1.87-5.757-1.95-6.13-.69-3.377-2.99-3-5.42-4.635-2.51-1.691-5.71-2.61-7.81.119-.75.969-1.37 2.087-2.49 2.689-.4.214-4.01 1.361-3.76.435.18-.68 2.88-3.675-.34-2.538-1.92.68-5.54-2.352-3.16-4.32.86-.706.7-1.29-.31-1.801-1.67-.843-2.15-2.125-1.93-2.213"/><path d="M1335.6 409.987c-.25-.575-.74-.94-1.08-1.445-.64-.931-.14-1.803-.28-2.803 1.9 2.146 4.34-.421 5.83-1.704.54-.465 1.3-1.265 2.08-.771.51.323.86 1.184 1.59.818-.26.559 0 .906.57.937-.24.194-.47.387-.71.577 1.47-.06 2.1 3.365 1.79 4.391-.27.894-1.61 1.373-.78 2.419.82 1.038.1 3.678 0 4.93 0 .938 0 2.88-.9 3.471-.86.546-2.3-.538-3.26-.452-.5.764-.33 2.88-1.82 2.631-1.41-.237-1.44.139-2.14-1.263-.19.241-.39.481-.58.72a2.467 2.467 0 0 1-.58-.72c1.25-.25.46-1.034.42-2.106 0-1.319.14-2.63.23-3.942.24.19.48.383.72.576 0-.454.19-.932 0-1.383-.16-.49-.89-.312-.99-.896-.1-.525.55-1.23.54-1.833 0-.787-.86-1.413-.68-2.152M1349.86 390.403c-.71-.434-1.55-.05-2.23-.576.73-.34 1.58-.261 2.23-.792.1.456.1.912 0 1.368M1367.21 434.539c-.88-.03-2.15-.304-2.69-1.072-1.17-1.667 1.21-2.915 1.75-3.968 1.07 1.563 1.77.67 3.01-.02 1.9-1.055 3.25 1.854 5.43 1.393 1.25-.265 2.49-.05 3.75-.28 1.16-.209 2.24-1.392 3.37-1.383 1 0 1.19.746 2.14.07.62-.436 2.31-1.218 3.04-.795-.92 1.145-1.83 2.508-2.42 3.86-.4.942-1.61 2.829-1.34 3.851.24.893 1.85 2.229 1.35 3.238-.41.853-1.54 1.495-.97 2.587-1.14.266-2.51.149-3.62-.192-1.56-.48-1.48-2.314-2.99-2.933-1.6-.654-3.3-.742-4.85-1.602-1.59-.879-3.02-2.718-4.96-2.761"/></g></svg>