<?xml version="1.0" encoding="UTF-8" standalone="no"?>
<!-- Created with Inkscape (http://www.inkscape.org/) -->

<svg
   xmlns:dc="http://purl.org/dc/elements/1.1/"
   xmlns:cc="http://creativecommons.org/ns#"
   xmlns:rdf="http://www.w3.org/1999/02/22-rdf-syntax-ns#"
   xmlns:svg="http://www.w3.org/2000/svg"
   xmlns="http://www.w3.org/2000/svg"
   xmlns:sodipodi="http://sodipodi.sourceforge.net/DTD/sodipodi-0.dtd"
   xmlns:inkscape="http://www.inkscape.org/namespaces/inkscape"
   width="61.484798mm"
   height="25.758688mm"
   viewBox="0 0 61.484798 25.758688"
   version="1.1"
   id="svg33228"
   inkscape:version="0.92.0 r15299"
   sodipodi:docname="latvia.svg">
  <defs
     id="defs33222" />
  <sodipodi:namedview
     id="base"
     pagecolor="#ffffff"
     bordercolor="#666666"
     borderopacity="1.0"
     inkscape:pageopacity="0.0"
     inkscape:pageshadow="2"
     inkscape:zoom="0.35"
     inkscape:cx="17.620317"
     inkscape:cy="194.39213"
     inkscape:document-units="mm"
     inkscape:current-layer="layer1"
     showgrid="false"
     fit-margin-top="0"
     fit-margin-left="0"
     fit-margin-right="0"
     fit-margin-bottom="0"
     inkscape:window-width="1920"
     inkscape:window-height="1017"
     inkscape:window-x="1912"
     inkscape:window-y="-8"
     inkscape:window-maximized="1" />
  <metadata
     id="metadata33225">
    <rdf:RDF>
      <cc:Work
         rdf:about="">
        <dc:format>image/svg+xml</dc:format>
        <dc:type
           rdf:resource="http://purl.org/dc/dcmitype/StillImage" />
        <dc:title></dc:title>
      </cc:Work>
    </rdf:RDF>
  </metadata>
  <g
     inkscape:label="Layer 1"
     inkscape:groupmode="layer"
     id="layer1"
     transform="translate(21.670971,-174.50756)">
    <path
       inkscape:connector-curvature="0"
       id="lv"
       class="landxx lv eu"
       d="m -21.468581,191.23813 c 0.132948,0.31903 0.252581,0.63675 0.385505,0.9571 -0.132924,-1.66161 -0.518428,-3.4123 0.638062,-4.82266 0.505138,-0.60484 1.395757,-1.03286 1.608444,-1.85039 0.252557,-1.02622 0,-1.91418 0.505139,-2.92711 1.050146,-1.95537 2.33956,-2.85398 4.439828,-3.37374 1.023567,-0.24991 3.748607,-1.87697 4.5461965,-0.90525 1.262834,1.54197 2.645302,2.21328 4.080928,3.53458 1.635025,1.50079 2.299666,3.49074 4.599357,4.22317 1.794552,0.57826 3.562499,-0.17678 5.038021,-1.22162 2.126873,-1.51274 1.821131,-3.32589 0.917222,-5.49796 -0.358923,-0.85871 -0.731115,-1.80516 -0.531718,-2.7596 0.810856,0.23128 1.635025,-0.3589 2.273086,-0.73511 1.289413,-0.74706 3.7751855,-1.81979 5.1310755,-0.96109 0.890619,0.56896 2.618721,0.40544 3.788476,1.05548 1.754682,0.96904 3.230202,1.23623 4.785463,2.64131 1.262835,1.14851 2.445903,1.83308 4.054348,1.01159 1.807842,-0.91588 3.815083,0.4586 5.715979,0.52507 1.329282,0.0532 4.851913,2.87659 4.586065,3.93869 -0.159528,0.58356 -0.957093,2.86994 -1.42236,3.33786 2.844697,-0.3443 1.714786,0.82947 2.964331,1.30404 1.47552,0.5583 2.831383,5.67209 3.097254,7.05855 -0.584901,0.26319 -1.51539,-0.66863 -2.538957,-0.14356 -0.784275,0.39877 -1.422337,1.39442 -1.914184,2.08299 -0.292428,0.38815 -0.172794,1.01558 -0.651354,1.27746 -1.52868,0.83877 -3.442864,-0.96508 -5.157652,-0.10634 -1.967347,0.99297 -2.88457,1.98331 -5.184259,0.71249 -1.887583,-1.04481 -3.589081,-2.39936 -5.370341,-3.617 -1.701498,-1.17511 -3.868243,-0.58091 -5.556451,-1.64035 -1.462207,-0.92652 -1.767946,-2.91514 -3.7618955,-1.73738 -1.741368,1.02354 -2.33956,0.98367 -4.253746,1.16978 -1.714788,0.16615 -3.761897,-0.95444 -5.636213,-0.92652 -1.940765,0.0266 -2.233192,0.35625 -4.134087,-0.2991 -1.143201,-0.39614 -4.147402,-0.0798 -5.383656,-0.0798 -1.9407655,0 -3.6555535,0.30974 -5.5165555,0.76303 -1.19636,0.28712 -3.083965,0.56095 -3.602394,1.89026 -0.33232,0.87334 -1.315993,1.30935 -1.914185,0.57025 -1.050147,-1.28143 -0.731116,-2.92179 -0.624772,-4.45047"
       style="fill:#c83737;fill-opacity:1;fill-rule:evenodd;stroke:#000000;stroke-width:0.14449541;stroke-miterlimit:4;stroke-dasharray:none;stroke-opacity:1">
      <title
         id="title839">Latvia</title>
    </path>
  </g>
</svg>
