<svg xmlns="http://www.w3.org/2000/svg" width="232.383" height="97.356" viewBox="0 0 61.484798 25.758688"><path class="landxx lv eu" d="M.202 16.73c.133.32.253.637.386.958-.133-1.662-.519-3.413.638-4.823.505-.605 1.396-1.033 1.608-1.85.253-1.027 0-1.915.506-2.927 1.05-1.956 2.34-2.854 4.44-3.374 1.023-.25 3.748-1.877 4.546-.905 1.262 1.541 2.645 2.213 4.08 3.534 1.636 1.5 2.3 3.49 4.6 4.223 1.794.579 3.562-.177 5.038-1.221 2.127-1.513 1.821-3.326.917-5.498-.359-.859-.731-1.805-.532-2.76.811.231 1.635-.359 2.273-.735 1.29-.747 3.776-1.82 5.132-.961.89.569 2.618.405 3.788 1.055 1.755.97 3.23 1.237 4.785 2.642 1.263 1.148 2.446 1.833 4.055 1.011 1.808-.916 3.815.459 5.716.525 1.33.054 4.852 2.877 4.586 3.939-.16.584-.957 2.87-1.422 3.338 2.844-.344 1.714.83 2.964 1.304 1.475.558 2.831 5.672 3.097 7.058-.585.264-1.515-.668-2.539-.143-.784.399-1.422 1.394-1.914 2.083-.292.388-.173 1.015-.651 1.277-1.53.84-3.443-.965-5.158-.106-1.967.993-2.885 1.983-5.184.713-1.888-1.045-3.59-2.4-5.37-3.617-1.702-1.176-3.869-.581-5.557-1.64-1.462-.927-1.768-2.916-3.762-1.738-1.741 1.023-2.34.983-4.254 1.17-1.715.166-3.762-.955-5.636-.927-1.94.027-2.233.356-4.134-.3-1.143-.395-4.147-.079-5.384-.079-1.94 0-3.655.31-5.516.763-1.197.287-3.084.561-3.603 1.89-.332.874-1.316 1.31-1.914.57-1.05-1.28-.731-2.921-.625-4.45" fill="#c83737" fill-rule="evenodd" stroke="#000" stroke-width=".144"><title>Latvia</title></path></svg>