<?xml version="1.0" encoding="UTF-8" standalone="no"?>
<!-- Created with Inkscape (http://www.inkscape.org/) -->

<svg
   xmlns:dc="http://purl.org/dc/elements/1.1/"
   xmlns:cc="http://creativecommons.org/ns#"
   xmlns:rdf="http://www.w3.org/1999/02/22-rdf-syntax-ns#"
   xmlns:svg="http://www.w3.org/2000/svg"
   xmlns="http://www.w3.org/2000/svg"
   xmlns:sodipodi="http://sodipodi.sourceforge.net/DTD/sodipodi-0.dtd"
   xmlns:inkscape="http://www.inkscape.org/namespaces/inkscape"
   width="23.169445mm"
   height="17.224396mm"
   viewBox="0 0 23.169445 17.224396"
   version="1.1"
   id="svg28556"
   inkscape:version="0.92.0 r15299"
   sodipodi:docname="macedonia.svg">
  <defs
     id="defs28550" />
  <sodipodi:namedview
     id="base"
     pagecolor="#ffffff"
     bordercolor="#666666"
     borderopacity="1.0"
     inkscape:pageopacity="0.0"
     inkscape:pageshadow="2"
     inkscape:zoom="0.35"
     inkscape:cx="1779.4991"
     inkscape:cy="521.12154"
     inkscape:document-units="mm"
     inkscape:current-layer="layer1"
     showgrid="false"
     fit-margin-top="0"
     fit-margin-left="0"
     fit-margin-right="0"
     fit-margin-bottom="0"
     inkscape:window-width="1920"
     inkscape:window-height="1017"
     inkscape:window-x="1912"
     inkscape:window-y="-8"
     inkscape:window-maximized="1" />
  <metadata
     id="metadata28553">
    <rdf:RDF>
      <cc:Work
         rdf:about="">
        <dc:format>image/svg+xml</dc:format>
        <dc:type
           rdf:resource="http://purl.org/dc/dcmitype/StillImage" />
        <dc:title></dc:title>
      </cc:Work>
    </rdf:RDF>
  </metadata>
  <g
     inkscape:label="Layer 1"
     inkscape:groupmode="layer"
     id="layer1"
     transform="translate(487.83472,-269.48901)">
    <path
       inkscape:connector-curvature="0"
       id="mk"
       class="landxx mk"
       d="m -487.82424,278.68392 c 1.19636,-0.17545 0.39879,-1.14583 0.3855,-1.86101 0,-0.99297 1.72808,-1.49012 1.98064,-2.70775 0.1994,-1.06213 1.10331,-1.58187 1.99395,-2.0099 1.96734,-0.9438 1.60844,0.29907 3.38971,0.35756 -0.38551,-1.44095 0.63803,-0.9039 1.34257,-1.62704 0.41208,-0.20604 0.81088,-0.19939 1.22296,0.0266 0.98368,0.28313 1.07673,-0.64205 1.92748,-0.78695 0.95709,-0.16349 2.93773,0.21802 3.70871,-0.36554 0.97038,-0.73511 2.00724,1.43032 2.61872,1.99261 2.27309,2.09364 4.25375,2.71442 4.24043,6.39921 0,0.76833 0.51843,2.0418 0.13295,2.91514 -0.25258,0.49849 -1.18307,-0.0665 -1.10333,0.77233 0.13295,1.16578 -2.11356,1.97267 -3.44287,1.57256 -1.5021,-0.44799 -3.0042,-0.0665 -4.29361,0.86935 -2.55225,1.85703 -4.57278,1.86633 -7.7099,2.36881 -1.67492,0.26984 -0.95709,-0.88665 -2.37943,-0.52375 -1.74139,0.44664 -0.89064,-1.06609 -1.80784,-1.78124 -1.84774,-1.43831 -1.40907,-3.55853 -2.14017,-5.60564"
       style="fill:#c83737;fill-opacity:1;fill-rule:evenodd;stroke:#000000;stroke-width:0.14449541;stroke-miterlimit:4;stroke-dasharray:none;stroke-opacity:1">
      <title
         id="title281">Macedonia, the Former Yugoslav Republic of</title>
    </path>
  </g>
</svg>
