<svg xmlns="http://www.w3.org/2000/svg" width="87.57" height="65.1" viewBox="0 0 23.169445 17.224396"><path class="landxx mk" d="M.01 9.195c1.197-.176.4-1.146.386-1.861 0-.993 1.728-1.49 1.98-2.708.2-1.062 1.104-1.582 1.995-2.01 1.967-.944 1.608.3 3.39.358-.386-1.441.637-.904 1.342-1.627.412-.206.81-.2 1.223.026.983.283 1.077-.642 1.927-.787.957-.163 2.938.218 3.709-.365.97-.735 2.007 1.43 2.619 1.992 2.273 2.094 4.253 2.715 4.24 6.4 0 .768.519 2.041.133 2.915-.252.498-1.183-.067-1.103.772.133 1.166-2.114 1.973-3.443 1.573-1.502-.448-3.004-.067-4.294.87-2.552 1.856-4.572 1.865-7.71 2.368-1.675.27-.957-.887-2.379-.524-1.741.447-.89-1.066-1.808-1.781C.37 13.368.808 11.247.077 9.2" fill="#c83737" fill-rule="evenodd" stroke="#000" stroke-width=".144"><title>Macedonia, the Former Yugoslav Republic of</title></path></svg>