<svg xmlns="http://www.w3.org/2000/svg" width="65.504" height="71.842" viewBox="0 0 17.331362 19.008158"><g transform="matrix(1.3293 0 0 1.3293 -1867.116 -509.649)" fill="#c83737" stroke="#000" stroke-width=".109"><title>Montenegro</title><path class="landxx me" d="M1405.71 391.606c1.88-.31-1.89-4.521 1.08-3.888-.85-1.522 1.82-3.858 2.38-2.016.4-.957-.72-1.325-.58-2.232 1.2.398 1.51 1.121 2.52 1.997 1.38 1.191 1.81 1.734 3.44 2.555.63.32 2.5.108 2.89.8.6 1.056-.96.979-1.12 1.113-.5.407 1.31 1.498.4 1.958-.61.312-1.36.703-1.88-.03-.28-.4-.48-1.239-1.11-.519-1.62 1.831-2.17 3.865-1.4 6.237-1.17-.666-2.39-1.857-3.17-2.942-.24-.332-2.24-2.006-2.65-1.95.71-.316.56-.255 1.36.14.1-1.218-2.52.819-2.16-1.223" fill-rule="evenodd"/></g></svg>