<svg xmlns="http://www.w3.org/2000/svg" width="128.81" height="114.227" viewBox="0 0 34.080906 30.222622"><g class="landxx coastxx nl nlx eu" fill="#c83737" fill-rule="evenodd" stroke="#000" stroke-width=".109"><path d="M4.273 19.108c-.32.026-.625.066-.944.093 1.01.421 2.22 1.848 3.336.765-.651-.58-1.502-.967-2.392-.86M4.658 18.63c1.595-.606 2.579 2.102 4.12.956-1.196-.567-2.83-2.404-4.12-.957M12.793 5.336c.824-.319 1.396-1.075.771-1.914-.704.396-1.13 1.113-.77 1.914M15 2.266c-.332.194-.705.374-.957.67l.957-.67M16.728 1.402c.997-.31 2.047-.507 2.964-1.053-1.037.177-2.073.462-2.964 1.053M20.929.55a4.85 4.85 0 0 0 2.007-.478c-.718 0-1.383.15-2.007.479M.072 23.8c.16-1.774 6.434-.379 7.657-.383-1.09 1.1-2.845 1.924-4.347 1.222-.97-.46-2.951.066-3.31-.839" stroke-width=".14489261"/><path d="M28.732.139c-3.35.425-7.351.679-9.784 3.215C17.83 4.52 16.156 5.638 14.52 5.9c-1.063.171-2.14.472-2.539 1.607-1.395 3.874-2.499 6.298-5.503 9.245-1.156 1.14 1.742 2.062 2.42 2.277 1.608.512 3.615-.783 4.147.403-2.074-.399-4.28 1.55-6.288.67 1.795 1.145-.292.3-1.076.803.744.524 2.153.263 2.273 1.474-1.476.463-2.327-.996-3.35-1.741-1.263 0-2.845-.41-3.616.937.97 1.28 2.778 1.018 4.16.938 1.13-.066 4.773 1.87 4.547-.401.705.528 1.715.804 2.286-.134.466 1.147 2.194.776 2.805 0 .731 2.694 4.653 2.666 6.966 3.617-1.569 1.82-3.098 4.505.944 4.555 1.74.027-.293-2.712 0-3.215.917-1.558 2.778-3.197 2.14-5.226-.32-1.034-1.024-2.296-2.14-2.68-.133-2.349 2.406.093 1.74-1.741.785.397 5.331.863 5.624-.402.146-.568-.824-1.293 0-1.742.372-.12.625-.322.944-.536 3.416-3.408-2.553-3.379-1.609-4.957.705-1.18 3.11.178 3.217-.938.146-1.493.997-2.595 1.343-4.02.531-2.192-3.098-4.825-5.224-4.554zM20.29 9.65a2.02 2.02 0 0 1 1.063.134c1.117.488.638 1.23 0 1.742-.625.5-1.236 1.115-1.874 1.607-.944.738-2.46-.711-3.483-.67.319-.682 1.023-1.12 1.741-1.339.89-.465 1.582-1.362 2.553-1.474z" class="landxx nl nlx eu" stroke-width=".14489261"/></g></svg>