<?xml version="1.0" encoding="UTF-8" standalone="no"?>
<!-- Created with Inkscape (http://www.inkscape.org/) -->

<svg
   xmlns:dc="http://purl.org/dc/elements/1.1/"
   xmlns:cc="http://creativecommons.org/ns#"
   xmlns:rdf="http://www.w3.org/1999/02/22-rdf-syntax-ns#"
   xmlns:svg="http://www.w3.org/2000/svg"
   xmlns="http://www.w3.org/2000/svg"
   xmlns:sodipodi="http://sodipodi.sourceforge.net/DTD/sodipodi-0.dtd"
   xmlns:inkscape="http://www.inkscape.org/namespaces/inkscape"
   width="194.4003mm"
   height="190mm"
   viewBox="0 0 194.4003 190"
   version="1.1"
   id="svg37172"
   inkscape:version="0.92.0 r15299"
   sodipodi:docname="norway.svg">
  <defs
     id="defs37166" />
  <sodipodi:namedview
     id="base"
     pagecolor="#ffffff"
     bordercolor="#666666"
     borderopacity="1.0"
     inkscape:pageopacity="0.0"
     inkscape:pageshadow="2"
     inkscape:zoom="0.7"
     inkscape:cx="456.5463"
     inkscape:cy="403.28067"
     inkscape:document-units="mm"
     inkscape:current-layer="layer1"
     showgrid="false"
     fit-margin-top="0"
     fit-margin-left="0"
     fit-margin-right="0"
     fit-margin-bottom="0"
     inkscape:window-width="1920"
     inkscape:window-height="1017"
     inkscape:window-x="1912"
     inkscape:window-y="-8"
     inkscape:window-maximized="1" />
  <metadata
     id="metadata37169">
    <rdf:RDF>
      <cc:Work
         rdf:about="">
        <dc:format>image/svg+xml</dc:format>
        <dc:type
           rdf:resource="http://purl.org/dc/dcmitype/StillImage" />
        <dc:title></dc:title>
      </cc:Work>
    </rdf:RDF>
  </metadata>
  <g
     inkscape:label="Layer 1"
     inkscape:groupmode="layer"
     id="layer1"
     transform="translate(323.19888,-95.20709)">
    <g
       id="g38088">
      <path
         inkscape:connector-curvature="0"
         id="path6606"
         d="m -321.94709,252.23615 c -0.31903,-0.32568 -0.66465,-0.61148 -1.05014,-0.86006 -0.34562,1.11794 0,1.40507 1.05014,0.86006"
         style="fill:#c83737;fill-opacity:1;fill-rule:evenodd;stroke:#000000;stroke-width:0.14449541;stroke-miterlimit:4;stroke-dasharray:none;stroke-opacity:1" />
      <path
         inkscape:connector-curvature="0"
         id="path6608"
         d="m -321.56159,260.37143 c -0.41209,-0.32169 -0.83746,-0.64072 -1.24954,-0.9571 0.23927,0.68193 0.3722,1.3838 0.38549,2.10561 0.79758,0.0399 1.1299,-0.3855 0.86405,-1.14851"
         style="fill:#c83737;fill-opacity:1;fill-rule:evenodd;stroke:#000000;stroke-width:0.14449541;stroke-miterlimit:4;stroke-dasharray:none;stroke-opacity:1" />
      <path
         inkscape:connector-curvature="0"
         id="path6610"
         d="m -322.42564,258.45724 c 0.34562,0.2539 0.70453,0.51045 1.05015,0.76435 -0.23928,-0.42006 -0.59819,-0.67528 -1.05015,-0.76435"
         style="fill:#c83737;fill-opacity:1;fill-rule:evenodd;stroke:#000000;stroke-width:0.14449541;stroke-miterlimit:4;stroke-dasharray:none;stroke-opacity:1" />
      <path
         inkscape:connector-curvature="0"
         id="path6612"
         d="m -322.33259,257.88565 c 0.33233,0 0.65136,-0.0665 0.9571,-0.19142 -0.31903,0.0665 -0.63806,0.13293 -0.9571,0.19142"
         style="fill:#c83737;fill-opacity:1;fill-rule:evenodd;stroke:#000000;stroke-width:0.14449541;stroke-miterlimit:4;stroke-dasharray:none;stroke-opacity:1" />
      <path
         inkscape:connector-curvature="0"
         id="path6614"
         d="m -320.71085,243.62232 c 0.30574,-0.92253 -0.41208,-0.90392 -1.05014,-0.66996 0.34562,0.22332 0.70453,0.44664 1.05014,0.66996"
         style="fill:#c83737;fill-opacity:1;fill-rule:evenodd;stroke:#000000;stroke-width:0.14449541;stroke-miterlimit:4;stroke-dasharray:none;stroke-opacity:1" />
      <path
         inkscape:connector-curvature="0"
         id="path6616"
         d="m -321.1761,271.19188 c -0.5583,0.7577 -0.26586,1.48216 0.5716,1.81847 0.3722,-0.85473 0.41208,-2.02451 -0.3855,-2.67985 0,0.28712 -0.13293,0.57425 -0.1861,0.86138"
         style="fill:#c83737;fill-opacity:1;fill-rule:evenodd;stroke:#000000;stroke-width:0.14449541;stroke-miterlimit:4;stroke-dasharray:none;stroke-opacity:1" />
      <path
         inkscape:connector-curvature="0"
         id="path6618"
         d="m -320.6045,265.92787 c -1.40905,-0.0399 -0.71782,1.37715 -0.86404,2.20132 0.21268,-0.80954 0.82416,-1.25486 1.62173,-0.76568 0,-0.57691 -0.31903,-1.05546 -0.75769,-1.43564"
         style="fill:#c83737;fill-opacity:1;fill-rule:evenodd;stroke:#000000;stroke-width:0.14449541;stroke-miterlimit:4;stroke-dasharray:none;stroke-opacity:1" />
      <path
         inkscape:connector-curvature="0"
         id="path6620"
         d="m -319.84681,264.38589 c -0.47854,0.6939 -0.30573,2.3595 0.77099,2.39406 1.44893,0.0399 0.13293,-2.27575 -0.77099,-2.39406"
         style="fill:#c83737;fill-opacity:1;fill-rule:evenodd;stroke:#000000;stroke-width:0.14449541;stroke-miterlimit:4;stroke-dasharray:none;stroke-opacity:1" />
      <path
         inkscape:connector-curvature="0"
         id="path6624"
         d="m -318.59727,264.01369 c -0.31903,0.0665 -0.63806,0.13293 -0.95709,0.19142 0.9305,0.0665 1.67491,1.10331 2.40602,0.0532 0.65135,-0.93715 -1.05014,-0.82017 -1.44893,-0.24858"
         style="fill:#c83737;fill-opacity:1;fill-rule:evenodd;stroke:#000000;stroke-width:0.14449541;stroke-miterlimit:4;stroke-dasharray:none;stroke-opacity:1" />
      <path
         inkscape:connector-curvature="0"
         id="path6626"
         d="m -315.1544,240.0864 c -0.66465,-0.19408 -1.32929,-0.22465 -2.00723,-0.0931 0,1.52071 1.56856,1.10597 2.00723,0.0931"
         style="fill:#c83737;fill-opacity:1;fill-rule:evenodd;stroke:#000000;stroke-width:0.14449541;stroke-miterlimit:4;stroke-dasharray:none;stroke-opacity:1" />
      <path
         inkscape:connector-curvature="0"
         id="path6628"
         d="m -313.53266,238.92992 c -0.31903,-0.0665 -0.62477,-0.13293 -0.9438,-0.19142 -0.13293,0.63673 -0.14622,1.27479 -0.19939,1.91285 0.66464,-0.32966 1.15648,-0.94646 1.14319,-1.72143"
         style="fill:#c83737;fill-opacity:1;fill-rule:evenodd;stroke:#000000;stroke-width:0.14449541;stroke-miterlimit:4;stroke-dasharray:none;stroke-opacity:1" />
      <path
         inkscape:connector-curvature="0"
         id="path6630"
         d="m -311.60518,238.26527 c -0.31903,-0.0665 -0.63806,-0.093 -0.9571,-0.093 0.31904,0.0266 0.63807,0.0665 0.9571,0.093"
         style="fill:#c83737;fill-opacity:1;fill-rule:evenodd;stroke:#000000;stroke-width:0.14449541;stroke-miterlimit:4;stroke-dasharray:none;stroke-opacity:1" />
      <path
         inkscape:connector-curvature="0"
         id="path6632"
         d="m -312.28312,238.55771 c 0.34561,0.13293 0.70452,0.25523 1.05014,0.38284 -0.26586,-0.33631 -0.62477,-0.46392 -1.05014,-0.38284"
         style="fill:#c83737;fill-opacity:1;fill-rule:evenodd;stroke:#000000;stroke-width:0.14449541;stroke-miterlimit:4;stroke-dasharray:none;stroke-opacity:1" />
      <path
         inkscape:connector-curvature="0"
         id="path6634"
         d="m -306.92607,235.48704 c -0.34562,0 -0.70452,0 -1.05014,0 0.42537,0.2087 0.87733,0.36822 1.34259,0.47855 -0.13293,-0.15952 -0.1994,-0.31903 -0.29245,-0.47855"
         style="fill:#c83737;fill-opacity:1;fill-rule:evenodd;stroke:#000000;stroke-width:0.14449541;stroke-miterlimit:4;stroke-dasharray:none;stroke-opacity:1" />
      <path
         inkscape:connector-curvature="0"
         id="path6636"
         d="m -306.06203,234.2508 c -0.34561,-0.0266 -0.70452,0 -1.05014,0 0.73111,0.5583 0.78428,0.0665 1.05014,0"
         style="fill:#c83737;fill-opacity:1;fill-rule:evenodd;stroke:#000000;stroke-width:0.14449541;stroke-miterlimit:4;stroke-dasharray:none;stroke-opacity:1" />
      <path
         inkscape:connector-curvature="0"
         id="path6638"
         d="m -300.89107,233.18737 c 0.31903,-0.22333 0.63806,-0.44665 0.95709,-0.66997 -0.22598,-0.37353 -0.51843,-0.69256 -0.86404,-0.95709 0.13293,1.09534 -0.26586,1.28676 -1.1432,0.57426 -0.14622,0.80821 0.21269,1.24953 1.05015,1.0528"
         style="fill:#c83737;fill-opacity:1;fill-rule:evenodd;stroke:#000000;stroke-width:0.14449541;stroke-miterlimit:4;stroke-dasharray:none;stroke-opacity:1" />
      <path
         inkscape:connector-curvature="0"
         id="path6642"
         d="m -296.19867,229.07985 c -0.42537,-1.42899 -2.2465,-0.97969 -2.96432,-0.0931 0.95709,0.28712 2.00723,0.68724 2.96432,0.0931"
         style="fill:#c83737;fill-opacity:1;fill-rule:evenodd;stroke:#000000;stroke-width:0.14449541;stroke-miterlimit:4;stroke-dasharray:none;stroke-opacity:1" />
      <path
         inkscape:connector-curvature="0"
         id="path6644"
         d="m -297.15576,231.27318 c 0.34562,-0.0665 0.69123,-0.13293 1.05014,-0.19274 -0.61147,-0.69523 -1.42234,-0.73245 -2.00723,0 0.31903,0.0665 0.63806,0.13292 0.95709,0.19274"
         style="fill:#c83737;fill-opacity:1;fill-rule:evenodd;stroke:#000000;stroke-width:0.14449541;stroke-miterlimit:4;stroke-dasharray:none;stroke-opacity:1" />
      <path
         inkscape:connector-curvature="0"
         id="path6648"
         d="m -295.44097,230.60854 c 0.61148,0.42537 1.27612,0.55431 2.00723,0.38416 -0.1861,-1.23491 -1.34258,-1.25485 -2.00723,-0.38416"
         style="fill:#c83737;fill-opacity:1;fill-rule:evenodd;stroke:#000000;stroke-width:0.14449541;stroke-miterlimit:4;stroke-dasharray:none;stroke-opacity:1" />
      <path
         inkscape:connector-curvature="0"
         id="path6650"
         d="m -295.14853,227.92336 c 1.10332,1.21631 5.62292,0.22864 6.12805,-1.33993 -0.67794,-0.59153 -1.64832,-0.55963 -2.47249,-0.37752 -0.62477,0.13958 -2.96432,0.53571 -0.59818,0.8574 -1.1299,-0.001 -2.28638,-0.1768 -3.05738,0.86005"
         style="fill:#c83737;fill-opacity:1;fill-rule:evenodd;stroke:#000000;stroke-width:0.14449541;stroke-miterlimit:4;stroke-dasharray:none;stroke-opacity:1" />
      <path
         inkscape:connector-curvature="0"
         id="path6652"
         d="m -291.02771,225.15843 c -1.01027,-0.90126 -2.89786,0.36024 -3.93471,0.57426 1.34258,-0.0798 2.85798,0.58887 3.93471,-0.57426"
         style="fill:#c83737;fill-opacity:1;fill-rule:evenodd;stroke:#000000;stroke-width:0.14449541;stroke-miterlimit:4;stroke-dasharray:none;stroke-opacity:1" />
      <path
         inkscape:connector-curvature="0"
         id="path6654"
         d="m -292.84885,228.7874 c -0.31903,0.0266 -0.63806,0.0665 -0.95709,0.0931 0.35891,0.21003 0.74441,0.36955 1.14319,0.47722 0,-0.19009 -0.13292,-0.38151 -0.1861,-0.57293"
         style="fill:#c83737;fill-opacity:1;fill-rule:evenodd;stroke:#000000;stroke-width:0.14449541;stroke-miterlimit:4;stroke-dasharray:none;stroke-opacity:1" />
      <path
         inkscape:connector-curvature="0"
         id="path6662"
         d="m -274.75716,212.80929 c -0.35891,0.22332 -0.70452,0.44664 -1.06343,0.66996 0.71782,-0.16882 1.42234,-0.39214 2.11358,-0.66996 -0.35891,0 -0.70453,0 -1.05015,0"
         style="fill:#c83737;fill-opacity:1;fill-rule:evenodd;stroke:#000000;stroke-width:0.14449541;stroke-miterlimit:4;stroke-dasharray:none;stroke-opacity:1" />
      <path
         inkscape:connector-curvature="0"
         id="path6664"
         d="m -274.8635,213.38089 c 1.1299,-0.331 2.03382,0.94911 2.97762,-0.19275 -0.99697,-0.43601 -2.02053,-0.13293 -2.97762,0.19275"
         style="fill:#c83737;fill-opacity:1;fill-rule:evenodd;stroke:#000000;stroke-width:0.14449541;stroke-miterlimit:4;stroke-dasharray:none;stroke-opacity:1" />
      <path
         inkscape:connector-curvature="0"
         id="path6666"
         d="m -271.88588,217.5017 c 0.31903,-0.0266 0.62477,-0.0665 0.9438,-0.0931 -0.82417,-0.21003 -1.58186,-0.65667 -2.19334,-1.24422 -0.13293,0.82815 0.42538,1.35854 1.24954,1.33993"
         style="fill:#c83737;fill-opacity:1;fill-rule:evenodd;stroke:#000000;stroke-width:0.14449541;stroke-miterlimit:4;stroke-dasharray:none;stroke-opacity:1" />
      <path
         inkscape:connector-curvature="0"
         id="path6668"
         d="m -271.79283,215.48117 c -0.35891,0.0266 -0.70453,0.0665 -1.06344,0.0931 0.30574,0.31106 0.66465,0.56628 1.06344,0.76568 0,-0.2858 0,-0.57293 0,-0.86006"
         style="fill:#c83737;fill-opacity:1;fill-rule:evenodd;stroke:#000000;stroke-width:0.14449541;stroke-miterlimit:4;stroke-dasharray:none;stroke-opacity:1" />
      <path
         inkscape:connector-curvature="0"
         id="path6670"
         d="m -271.40734,216.25216 c -0.31903,0.66465 0,0.82416 0.9571,0.47722 -0.31904,-0.15819 -0.63807,-0.31637 -0.9571,-0.47722"
         style="fill:#c83737;fill-opacity:1;fill-rule:evenodd;stroke:#000000;stroke-width:0.14449541;stroke-miterlimit:4;stroke-dasharray:none;stroke-opacity:1" />
      <path
         inkscape:connector-curvature="0"
         id="path6672"
         d="m -268.05752,211.08121 c -0.77099,-0.16616 -1.54198,0.14888 -2.02052,0.76567 0.73111,-0.0798 1.40905,-0.3403 2.02052,-0.76567"
         style="fill:#c83737;fill-opacity:1;fill-rule:evenodd;stroke:#000000;stroke-width:0.14449541;stroke-miterlimit:4;stroke-dasharray:none;stroke-opacity:1" />
      <path
         inkscape:connector-curvature="0"
         id="path6674"
         d="m -268.25691,205.91026 c 0.39879,0.29111 0.85075,0.38682 1.34259,0.28712 -0.1861,-1.33195 -0.74441,-0.99564 -1.34259,-0.28712"
         style="fill:#c83737;fill-opacity:1;fill-rule:evenodd;stroke:#000000;stroke-width:0.14449541;stroke-miterlimit:4;stroke-dasharray:none;stroke-opacity:1" />
      <path
         inkscape:connector-curvature="0"
         id="path6676"
         d="m -262.70046,203.33143 c 0.78428,-0.42272 1.60844,-0.71118 2.48578,-0.86139 -1.28942,-0.58887 -2.8314,-0.35492 -3.44287,1.05413 0.31903,-0.0665 0.63806,-0.13293 0.95709,-0.19274"
         style="fill:#c83737;fill-opacity:1;fill-rule:evenodd;stroke:#000000;stroke-width:0.14449541;stroke-miterlimit:4;stroke-dasharray:none;stroke-opacity:1" />
      <path
         inkscape:connector-curvature="0"
         id="path6678"
         d="m -261.94276,200.75259 c -1.8876,-1.45956 -1.56857,2.10029 0.38549,0.47722 -0.13293,-0.15818 -0.26586,-0.31637 -0.38549,-0.47722"
         style="fill:#c83737;fill-opacity:1;fill-rule:evenodd;stroke:#000000;stroke-width:0.14449541;stroke-miterlimit:4;stroke-dasharray:none;stroke-opacity:1" />
      <path
         inkscape:connector-curvature="0"
         id="path6680"
         d="m -259.82919,182.36846 c -0.26586,0.29377 -0.49183,0.6128 -0.67794,0.95709 1.23625,0.73643 2.51237,-0.70187 2.02053,-1.91418 -0.51842,0.21933 -0.97038,0.53836 -1.34259,0.95709"
         style="fill:#c83737;fill-opacity:1;fill-rule:evenodd;stroke:#000000;stroke-width:0.14449541;stroke-miterlimit:4;stroke-dasharray:none;stroke-opacity:1" />
      <path
         inkscape:connector-curvature="0"
         id="path6682"
         d="m -259.25759,200.16771 c -0.31903,0.13292 -0.63806,0.25522 -0.95709,0.38283 0.33232,-0.0798 0.65135,-0.21268 0.95709,-0.38283"
         style="fill:#c83737;fill-opacity:1;fill-rule:evenodd;stroke:#000000;stroke-width:0.14449541;stroke-miterlimit:4;stroke-dasharray:none;stroke-opacity:1" />
      <path
         inkscape:connector-curvature="0"
         id="path6684"
         d="m -258.4866,199.68916 c -0.39879,-0.11964 -0.7444,-0.0266 -1.06343,0.28846 0.34561,-0.0931 0.70452,-0.19142 1.06343,-0.28846"
         style="fill:#c83737;fill-opacity:1;fill-rule:evenodd;stroke:#000000;stroke-width:0.14449541;stroke-miterlimit:4;stroke-dasharray:none;stroke-opacity:1" />
      <path
         inkscape:connector-curvature="0"
         id="path6686"
         d="m -258.00805,182.27541 c 0.87733,0.18477 1.59515,-0.37752 1.91418,-1.14851 -0.85075,-0.49051 -2.0737,0.0798 -1.91418,1.14851"
         style="fill:#c83737;fill-opacity:1;fill-rule:evenodd;stroke:#000000;stroke-width:0.14449541;stroke-miterlimit:4;stroke-dasharray:none;stroke-opacity:1" />
      <path
         inkscape:connector-curvature="0"
         id="path6688"
         d="m -256.67876,194.146 c 0.67794,-0.0532 1.34259,-0.11963 2.02053,-0.19141 -0.69124,-0.15952 -1.36918,-0.0931 -2.02053,0.19141"
         style="fill:#c83737;fill-opacity:1;fill-rule:evenodd;stroke:#000000;stroke-width:0.14449541;stroke-miterlimit:4;stroke-dasharray:none;stroke-opacity:1" />
      <path
         inkscape:connector-curvature="0"
         id="path6690"
         d="m -255.15007,180.83977 c -0.22598,0.31903 -0.43867,0.63673 -0.66465,0.95709 1.43564,-1.00095 3.68215,-0.50779 4.87851,-1.91285 -0.87733,0.1542 -1.20966,-0.62876 -2.00723,-0.66996 -0.79758,-0.0399 -1.26283,0.61014 -2.10029,0.38283 0.53172,0.63408 0.30574,0.88797 -0.67794,0.76568 0.1861,0.15951 0.3722,0.3177 0.5716,0.47721"
         style="fill:#c83737;fill-opacity:1;fill-rule:evenodd;stroke:#000000;stroke-width:0.14449541;stroke-miterlimit:4;stroke-dasharray:none;stroke-opacity:1" />
      <path
         inkscape:connector-curvature="0"
         id="path6692"
         d="m -250.64377,179.88268 c 0.62477,-0.67528 -0.45196,-0.86271 -0.86404,-0.86138 0.29245,0.28713 0.5716,0.57425 0.86404,0.86138"
         style="fill:#c83737;fill-opacity:1;fill-rule:evenodd;stroke:#000000;stroke-width:0.14449541;stroke-miterlimit:4;stroke-dasharray:none;stroke-opacity:1" />
      <path
         inkscape:connector-curvature="0"
         id="path6694"
         d="m -251.12231,190.79618 c 0.25256,1.05148 1.05014,1.41038 1.05014,-0.0931 -0.35891,0.0266 -0.70452,0.0665 -1.05014,0.0931"
         style="fill:#c83737;fill-opacity:1;fill-rule:evenodd;stroke:#000000;stroke-width:0.14449541;stroke-miterlimit:4;stroke-dasharray:none;stroke-opacity:1" />
      <path
         inkscape:connector-curvature="0"
         id="path6696"
         d="m -250.07217,180.06878 c 1.63503,1.15383 5.15766,-0.61945 5.94194,-2.20131 -0.79757,0 -1.47551,0.27649 -2.02052,0.86138 -0.55831,-2.05907 -3.17701,0.9345 -3.92142,1.33993"
         style="fill:#c83737;fill-opacity:1;fill-rule:evenodd;stroke:#000000;stroke-width:0.14449541;stroke-miterlimit:4;stroke-dasharray:none;stroke-opacity:1" />
      <path
         inkscape:connector-curvature="0"
         id="path6698"
         d="m -245.67221,176.71896 c 1.24954,-0.0532 2.77823,-0.23794 3.73532,-1.14851 -0.97038,-0.24858 -0.79758,-0.4493 -0.53172,-1.11129 0.30574,-0.77498 -1.60844,-1.52869 -2.04711,-1.85436 0,0.69256 0,1.36119 -0.29245,2.00989 -1.05014,-1.24954 -3.12384,0.69123 -4.49301,1.33993 1.47552,1.24687 3.41629,-1.18839 5.06461,-0.47855 -0.63806,0.3084 -1.30271,0.50115 -2.00723,0.57559 0.1861,0.22066 0.3722,0.44398 0.57159,0.6673"
         style="fill:#c83737;fill-opacity:1;fill-rule:evenodd;stroke:#000000;stroke-width:0.14449541;stroke-miterlimit:4;stroke-dasharray:none;stroke-opacity:1" />
      <path
         inkscape:connector-curvature="0"
         id="path6700"
         d="m -246.8154,177.583 c 0.63806,0.0798 1.18307,-0.10634 1.62174,-0.57425 -0.86404,-0.34695 -1.84772,-0.35758 -2.67188,0.0931 0.34562,0.15951 0.69123,0.31903 1.05014,0.47854"
         style="fill:#c83737;fill-opacity:1;fill-rule:evenodd;stroke:#000000;stroke-width:0.14449541;stroke-miterlimit:4;stroke-dasharray:none;stroke-opacity:1" />
      <path
         inkscape:connector-curvature="0"
         id="path6702"
         d="m -245.28671,173.84769 c 0.14622,-0.76966 -0.21269,-0.76966 -1.05014,0 0.34561,0 0.69123,0 1.05014,0"
         style="fill:#c83737;fill-opacity:1;fill-rule:evenodd;stroke:#000000;stroke-width:0.14449541;stroke-miterlimit:4;stroke-dasharray:none;stroke-opacity:1" />
      <path
         inkscape:connector-curvature="0"
         id="path6704"
         d="m -246.15075,180.17513 c 0.35891,-0.15952 0.70452,-0.31904 1.06343,-0.47855 -0.43866,0 -0.79757,0.15287 -1.06343,0.47855"
         style="fill:#c83737;fill-opacity:1;fill-rule:evenodd;stroke:#000000;stroke-width:0.14449541;stroke-miterlimit:4;stroke-dasharray:none;stroke-opacity:1" />
      <path
         inkscape:connector-curvature="0"
         id="path6706"
         d="m -244.90122,183.32555 c 0.69124,0 1.35588,-0.13824 2.00724,-0.38283 -0.66465,-0.55432 -1.68821,-0.56761 -2.00724,0.38283"
         style="fill:#c83737;fill-opacity:1;fill-rule:evenodd;stroke:#000000;stroke-width:0.14449541;stroke-miterlimit:4;stroke-dasharray:none;stroke-opacity:1" />
      <path
         inkscape:connector-curvature="0"
         id="path6708"
         d="m -241.75079,175.57577 c 0.13293,0.31903 0.19939,0.63673 0.29245,0.95709 -0.62477,0.22997 -1.26283,0.35891 -1.91419,0.38284 0.99697,1.08603 -0.71782,1.59515 -0.7577,2.68118 0.89063,-0.78561 2.00724,-1.23757 3.15043,-1.53134 -0.30574,0.34162 -0.58489,0.69256 -0.86404,1.0528 0.58489,0.0266 1.32929,0.57159 1.91418,0.38283 0.71782,-0.23528 1.05015,-1.37847 1.63503,-1.81847 -0.13292,2.20929 0.93051,0.30972 1.43564,-0.2406 0.55831,-0.61547 1.42235,-0.35758 2.14017,-0.38683 1.3027,-0.0532 2.52565,-1.85436 1.14319,-2.74233 -0.58489,-0.38151 -1.83443,-0.59951 -2.35285,0.0399 -0.71782,0.90658 -2.23322,1.60977 -3.32324,2.75429 0,-0.27782 3.05738,-3.78848 0.47855,-1.91418 0.86404,-1.10863 0.54501,-2.81943 -1.19637,-1.98198 -0.83745,0.40145 -1.16977,2.30766 0,2.36482 -0.61147,-0.21136 -1.22295,-0.21136 -1.82113,0"
         style="fill:#c83737;fill-opacity:1;fill-rule:evenodd;stroke:#000000;stroke-width:0.14449541;stroke-miterlimit:4;stroke-dasharray:none;stroke-opacity:1" />
      <path
         inkscape:connector-curvature="0"
         id="path6710"
         d="m -240.02271,172.89059 c 1.35588,-0.24724 3.09726,-1.34923 3.44287,-2.77689 -1.83442,-0.97038 -4.65252,1.65231 -5.17095,3.25411 0.67794,0.21003 1.24954,0.0532 1.72808,-0.47722"
         style="fill:#c83737;fill-opacity:1;fill-rule:evenodd;stroke:#000000;stroke-width:0.14449541;stroke-miterlimit:4;stroke-dasharray:none;stroke-opacity:1" />
      <path
         inkscape:connector-curvature="0"
         id="path6712"
         d="m -240.02271,182.07602 c -0.31903,0.13292 -0.63806,0.25522 -0.95709,0.38416 0.98368,0.15553 1.99394,0.0399 2.96433,-0.19275 -0.67794,-0.0532 -1.34259,-0.11963 -2.00724,-0.19141"
         style="fill:#c83737;fill-opacity:1;fill-rule:evenodd;stroke:#000000;stroke-width:0.14449541;stroke-miterlimit:4;stroke-dasharray:none;stroke-opacity:1" />
      <path
         inkscape:connector-curvature="0"
         id="path6714"
         d="m -236.48679,177.9685 c 2.87128,2.01122 2.20663,-2.57086 0,0"
         style="fill:#c83737;fill-opacity:1;fill-rule:evenodd;stroke:#000000;stroke-width:0.14449541;stroke-miterlimit:4;stroke-dasharray:none;stroke-opacity:1" />
      <path
         inkscape:connector-curvature="0"
         id="path6716"
         d="m -233.80161,173.84769 c 0.31903,-0.15952 0.63806,-0.31903 0.95709,-0.47855 -0.71782,-0.36688 -1.38247,-0.30441 -2.00723,0.19275 0.34561,0.0931 0.69123,0.19009 1.05014,0.2858"
         style="fill:#c83737;fill-opacity:1;fill-rule:evenodd;stroke:#000000;stroke-width:0.14449541;stroke-miterlimit:4;stroke-dasharray:none;stroke-opacity:1" />
      <path
         inkscape:connector-curvature="0"
         id="path6722"
         d="m -230.45179,170.01932 c 0.34562,-0.0266 0.70452,-0.0665 1.05014,-0.0931 -1.39576,0.31903 -1.39576,0.63806 0,0.95709 -0.66465,0.25788 -1.32929,0.48121 -2.00723,0.66997 1.19636,0.68724 2.60541,0.38682 3.74861,-0.23263 1.35588,-0.73377 3.04408,0.0266 4.47972,-0.3403 -1.20966,-0.27649 -1.27613,-0.57824 -0.1861,-0.90525 0.62476,-0.68459 0.98367,-2.28904 -0.66465,-1.3931 2.33956,-0.66863 -0.15952,-0.82815 -0.97039,-1.23093 -2.52565,-1.2615 0.5716,1.99129 -1.62173,-0.30042 2.07369,1.81848 -1.5154,0.18079 -2.48578,0.66997 0.59818,0.5357 1.3027,0.75902 2.10028,0.66996 -1.44893,0.5264 -3.0175,0.26054 -4.49301,0.57559 0.9438,-0.093 1.15648,0.0665 1.05014,0.95576"
         style="fill:#c83737;fill-opacity:1;fill-rule:evenodd;stroke:#000000;stroke-width:0.14449541;stroke-miterlimit:4;stroke-dasharray:none;stroke-opacity:1" />
      <path
         inkscape:connector-curvature="0"
         id="path6724"
         d="m -229.40165,175.19027 c -0.13293,-1.49678 -1.58186,-0.63806 -2.00723,0.0931 0.66464,-0.0797 1.32929,-0.11963 2.00723,-0.0931"
         style="fill:#c83737;fill-opacity:1;fill-rule:evenodd;stroke:#000000;stroke-width:0.14449541;stroke-miterlimit:4;stroke-dasharray:none;stroke-opacity:1" />
      <path
         inkscape:connector-curvature="0"
         id="path6726"
         d="m -229.29531,173.95403 c 0.59819,0.61945 1.44893,0.78295 2.19334,0.28713 -0.43867,-0.54767 -1.80784,-1.3838 -2.19334,-0.28713"
         style="fill:#c83737;fill-opacity:1;fill-rule:evenodd;stroke:#000000;stroke-width:0.14449541;stroke-miterlimit:4;stroke-dasharray:none;stroke-opacity:1" />
      <path
         inkscape:connector-curvature="0"
         id="path6728"
         d="m -217.33166,166.0979 c 0.5583,-0.23794 1.06343,-0.55564 1.52869,-0.95709 -0.91722,-0.45861 -1.86101,-1.23358 -2.96433,-0.76567 1.316,0.39214 0.98368,0.94778 0.1861,1.53002 -0.1861,-0.3536 -0.3722,-0.70453 -0.57159,-1.05148 -0.71782,0.39347 -2.08699,1.15516 -0.13293,1.14718 -0.70453,-0.21534 -3.5891,0.87069 -1.05014,0.57426 -0.78429,0.0266 -1.48881,0.28314 -2.10029,0.76567 0.9438,0.39214 5.31718,0.55698 5.0779,-1.24289"
         style="fill:#c83737;fill-opacity:1;fill-rule:evenodd;stroke:#000000;stroke-width:0.14449541;stroke-miterlimit:4;stroke-dasharray:none;stroke-opacity:1" />
      <path
         inkscape:connector-curvature="0"
         id="path6734"
         d="m -218.5812,163.04053 c 0.63806,-0.36689 1.316,-0.68592 2.00724,-0.95709 -0.66465,0.10634 -1.34259,0.10634 -2.00724,0 0,0.32036 0,0.63806 0,0.95709"
         style="fill:#c83737;fill-opacity:1;fill-rule:evenodd;stroke:#000000;stroke-width:0.14449541;stroke-miterlimit:4;stroke-dasharray:none;stroke-opacity:1" />
      <path
         inkscape:connector-curvature="0"
         id="path6736"
         d="m -217.6241,163.04053 c -0.63807,4.03839 5.66279,0.15951 6.31414,0 -0.87733,0.0798 -1.60844,-0.11964 -2.18004,0 -0.30574,0.0532 -0.67794,-0.72447 -1.07673,-0.7577 -1.10331,-0.093 -2.03382,0.4719 -3.05737,0.76567"
         style="fill:#c83737;fill-opacity:1;fill-rule:evenodd;stroke:#000000;stroke-width:0.14449541;stroke-miterlimit:4;stroke-dasharray:none;stroke-opacity:1" />
      <path
         inkscape:connector-curvature="0"
         id="path6746"
         d="m -216.00237,161.12634 c 0.33233,0.22598 0.69124,0.4174 1.06344,0.57426 0.21269,-0.88664 -0.83746,-1.79455 -1.06344,-0.57426"
         style="fill:#c83737;fill-opacity:1;fill-rule:evenodd;stroke:#000000;stroke-width:0.14449541;stroke-miterlimit:4;stroke-dasharray:none;stroke-opacity:1" />
      <path
         inkscape:connector-curvature="0"
         id="path6748"
         d="m -214.08818,161.69794 c 0.42537,0.11964 0.83745,0.0798 1.24953,-0.093 -0.42537,0.0266 -0.83745,0.0665 -1.24953,0.093"
         style="fill:#c83737;fill-opacity:1;fill-rule:evenodd;stroke:#000000;stroke-width:0.14449541;stroke-miterlimit:4;stroke-dasharray:none;stroke-opacity:1" />
      <path
         inkscape:connector-curvature="0"
         id="path6750"
         d="m -210.73836,163.04053 c -0.67794,0.39214 -1.28942,0.87068 -1.82114,1.43431 1.02356,-0.14756 2.31298,-0.23928 2.68518,-1.43431 -0.29245,0 -0.58489,0 -0.86404,0"
         style="fill:#c83737;fill-opacity:1;fill-rule:evenodd;stroke:#000000;stroke-width:0.14449541;stroke-miterlimit:4;stroke-dasharray:none;stroke-opacity:1" />
      <path
         inkscape:connector-curvature="0"
         id="path6752"
         d="m -209.58188,161.60489 c -0.85074,-0.71383 -1.91418,-0.88398 -2.97762,-0.95709 1.58186,0.82815 1.96736,2.60408 4.02777,1.43564 -0.35891,-0.15952 -0.70453,-0.31904 -1.05015,-0.47855"
         style="fill:#c83737;fill-opacity:1;fill-rule:evenodd;stroke:#000000;stroke-width:0.14449541;stroke-miterlimit:4;stroke-dasharray:none;stroke-opacity:1" />
      <path
         inkscape:connector-curvature="0"
         id="path6756"
         d="m -206.43145,161.60489 c 0.65135,1.77328 2.89786,0.91987 3.07067,-0.66996 -1.07673,-0.38018 -2.20663,0.0133 -3.07067,0.66996"
         style="fill:#c83737;fill-opacity:1;fill-rule:evenodd;stroke:#000000;stroke-width:0.14449541;stroke-miterlimit:4;stroke-dasharray:none;stroke-opacity:1" />
      <path
         inkscape:connector-curvature="0"
         id="path6758"
         d="m -204.03872,164.86166 c 0.1861,-0.31903 0.38549,-0.63806 0.58489,-0.95842 -0.7577,-0.30441 -1.34259,0 -1.34259,0.86138 0.25257,0.0399 0.50513,0.0665 0.7577,0.0931"
         style="fill:#c83737;fill-opacity:1;fill-rule:evenodd;stroke:#000000;stroke-width:0.14449541;stroke-miterlimit:4;stroke-dasharray:none;stroke-opacity:1" />
      <path
         inkscape:connector-curvature="0"
         id="path6760"
         d="m -203.45383,163.04053 c 0.69123,0.52374 1.58186,0.52374 2.28638,0 -0.61147,0.0798 -1.79454,-0.59021 -2.28638,0"
         style="fill:#c83737;fill-opacity:1;fill-rule:evenodd;stroke:#000000;stroke-width:0.14449541;stroke-miterlimit:4;stroke-dasharray:none;stroke-opacity:1" />
      <path
         inkscape:connector-curvature="0"
         id="path6762"
         d="m -196.86053,163.04053 c 0,-0.22997 -0.13293,-0.22598 -0.66465,-0.38284 0.21269,0.13293 0.43867,0.25655 0.66465,0.38284"
         style="fill:#c83737;fill-opacity:1;fill-rule:evenodd;stroke:#000000;stroke-width:0.14449541;stroke-miterlimit:4;stroke-dasharray:none;stroke-opacity:1" />
      <path
         inkscape:connector-curvature="0"
         id="path6764"
         d="m -184.98994,155.76929 c 0.13293,-0.13293 0.25257,-0.25523 0.3855,-0.38284 -0.98368,0.10635 -2.00724,0.3177 -2.96433,-0.0931 2.16675,2.43793 -4.82534,0.0266 -1.63503,1.53002 -1.02356,0.0133 -1.74138,-0.85607 -2.60542,-0.11964 -0.7444,0.63673 -2.59212,0.15021 -3.52263,0.31239 0.65136,0.29377 1.3293,0.51709 2.02053,0.66996 -0.30574,0.27649 -0.62477,0.53172 -0.95709,0.76567 1.27612,-0.96772 3.23018,-0.19407 4.67911,-0.33498 1.74138,-0.17414 3.16372,-1.4795 4.59936,-2.3462"
         style="fill:#c83737;fill-opacity:1;fill-rule:evenodd;stroke:#000000;stroke-width:0.14449541;stroke-miterlimit:4;stroke-dasharray:none;stroke-opacity:1" />
      <path
         inkscape:connector-curvature="0"
         id="path6770"
         d="m -188.91136,160.6478 c 0.34562,0 0.70453,0 1.05015,0 -0.55831,-1.11262 -2.77823,-1.49147 -3.82837,-1.05413 0.67794,0.94114 1.72808,0.93582 2.77822,1.05413"
         style="fill:#c83737;fill-opacity:1;fill-rule:evenodd;stroke:#000000;stroke-width:0.14449541;stroke-miterlimit:4;stroke-dasharray:none;stroke-opacity:1" />
      <path
         inkscape:connector-curvature="0"
         id="path6772"
         d="m -183.5543,157.57713 c 0,-0.15952 -0.13293,-0.3177 -0.1861,-0.47722 -1.35588,1.54464 -3.48275,0.78429 -4.98486,2.00989 1.06344,0.82683 2.41932,-0.50114 2.39273,1.24422 0.73112,-0.54501 4.28033,-1.33992 2.77823,-2.77689"
         style="fill:#c83737;fill-opacity:1;fill-rule:evenodd;stroke:#000000;stroke-width:0.14449541;stroke-miterlimit:4;stroke-dasharray:none;stroke-opacity:1" />
      <path
         inkscape:connector-curvature="0"
         id="path6774"
         d="m -180.58998,158.05567 c 1.09002,-1.48349 -0.45196,-1.67225 -1.60844,-1.73207 -2.56554,-0.13292 -0.13293,2.04047 1.60844,1.73207"
         style="fill:#c83737;fill-opacity:1;fill-rule:evenodd;stroke:#000000;stroke-width:0.14449541;stroke-miterlimit:4;stroke-dasharray:none;stroke-opacity:1" />
      <path
         inkscape:connector-curvature="0"
         id="path6776"
         d="m -181.73317,153.65571 c 0.5583,0.57426 1.22295,0.76568 2.00723,0.57559 -0.35891,-0.52375 -1.42234,-1.48881 -2.00723,-0.57559"
         style="fill:#c83737;fill-opacity:1;fill-rule:evenodd;stroke:#000000;stroke-width:0.14449541;stroke-miterlimit:4;stroke-dasharray:none;stroke-opacity:1" />
      <path
         inkscape:connector-curvature="0"
         id="path6778"
         d="m -181.06852,152.89801 c 0.30573,0.18743 0.62477,0.15553 0.95709,-0.0931 -0.31903,0.0399 -0.63806,0.0665 -0.95709,0.0931"
         style="fill:#c83737;fill-opacity:1;fill-rule:evenodd;stroke:#000000;stroke-width:0.14449541;stroke-miterlimit:4;stroke-dasharray:none;stroke-opacity:1" />
      <path
         inkscape:connector-curvature="0"
         id="path6782"
         d="m -166.89825,153.65571 c 0.34562,0 0.69123,0 1.05014,0 -1.40905,0.0798 -1.1299,-0.48918 -0.47854,-1.14851 -0.7577,-0.22465 -1.5154,-0.41607 -2.28639,-0.57425 -1.01026,0 -1.79455,0.72047 -2.79152,0.76567 0.66465,0.14356 1.03685,0.8348 1.5154,1.23359 0.66465,0.54102 2.27309,-0.17015 2.99091,-0.2765"
         style="fill:#c83737;fill-opacity:1;fill-rule:evenodd;stroke:#000000;stroke-width:0.14449541;stroke-miterlimit:4;stroke-dasharray:none;stroke-opacity:1" />
      <path
         inkscape:connector-curvature="0"
         id="path6794"
         class="landxx no"
         d="m -322.04014,249.27182 c 2.02053,-0.97836 4.22715,-0.11963 6.31415,-0.76567 -0.47855,-0.0798 -0.91722,-0.0266 -1.35588,0.18344 -0.9571,0.31637 -1.7015,-0.39347 -2.65859,-0.37486 3.08396,-0.91588 -2.04711,-0.4493 0.9438,-1.0528 -1.05015,-0.16483 -2.10029,0.0133 -3.15043,0.0931 1.05014,-0.2087 2.12687,-0.20205 3.15043,-0.57425 -0.91722,0.21268 -3.25677,0.87866 -3.24348,-0.76568 0.7444,0.0931 1.42234,-0.0931 2.00723,-0.57558 -2.56553,0.25788 1.3293,-1.42102 2.00724,-1.43564 0.81087,-0.0133 1.24953,0.61812 2.00723,0.76567 0.74441,0.14623 3.16372,-0.61014 1.43564,1.05413 0.41208,-1.03419 5.74255,-1.72808 6.80598,-1.24554 -1.15648,-0.62876 -2.53895,0.17679 -3.7619,-0.0532 -0.63806,-0.11963 -5.96853,-0.34162 -3.23018,-0.43202 -1.66162,-0.11963 -4.32021,0.658 -5.74255,-0.47721 0.78428,0.0399 1.44893,-0.2087 2.00723,-0.76568 -0.43867,-0.47987 -2.40602,-0.75902 -2.32626,-1.61908 0.13293,-1.23225 2.8181,0.95709 2.89786,1.71479 0.35891,-0.16483 0.67794,-0.38815 0.95709,-0.66996 -1.75467,0.0133 -0.39879,-2.07769 1.15648,-0.093 0.13293,-0.93715 1.19637,-1.56857 1.34259,-0.45728 0.13293,0.67927 2.76493,0.54767 3.24348,0.55299 -0.78428,-0.17281 -3.44287,-1.24555 -1.80784,-2.22391 1.95406,-1.17776 2.27309,0 3.72202,1.16978 -2.56554,-5.0367 6.31415,-1.46488 2.77823,0.86138 0.75769,0.18743 1.46222,0.0665 2.11357,-0.38284 -0.79757,-0.17015 -1.38246,-0.84942 -0.58489,-1.53001 0.41209,-0.35626 1.56857,0.16483 2.11358,-0.0931 -2.2598,0.0798 -2.48578,-1.10597 -4.25374,-1.75865 -1.39576,-0.5171 -2.95103,0.32036 -4.36008,-0.0665 1.1166,-0.37087 2.29968,-0.23661 3.44287,-0.38283 -1.05014,-0.64072 -2.27309,-0.11964 -3.25677,-0.95709 1.83442,-0.40544 4.01447,-0.96374 5.84889,-0.29112 1.56857,0.56894 4.1474,1.39842 5.63621,0.38683 -0.69124,0.18344 -1.39576,0.24724 -2.10029,0.19274 0.25257,-2.1282 3.93471,-1.92349 5.35706,-1.43563 -1.79455,-1.83975 -4.20057,1.10464 -6.12805,-0.28713 0.66465,-0.1768 1.34259,-0.36689 2.00724,-0.57293 -1.5154,0.0798 -3.81508,1.44096 -5.06461,0 0.61147,-0.25256 1.24953,-0.3496 1.91418,-0.28978 -0.82416,-0.17281 -1.52869,-0.55565 -2.11358,-1.14851 1.01027,-0.70852 2.23322,-0.9664 3.32324,-0.20737 1.10331,0.77365 2.11357,-0.4081 3.28335,-0.17414 1.06344,0.21402 1.99394,-0.39613 2.43261,0.96374 0.35891,1.14186 2.55225,1.24953 3.40299,1.90886 -1.03685,-1.8424 -3.80178,-1.82246 -4.30691,-4.11682 0.77099,-0.48785 1.96736,0.51444 2.40602,1.03419 1.07673,1.26017 0.50513,1.00229 2.47249,1.07141 -1.92748,-0.18743 -0.66465,-0.98766 0.19939,-1.14851 -0.39878,-0.0399 -3.84166,-0.14356 -1.05014,-0.28713 -0.42537,0.0266 -2.97762,-0.87334 -1.56857,-1.19237 1.62174,-0.36822 3.52263,-0.43601 5.19754,-0.72181 -0.99697,0.13293 -2.04711,0.23662 -2.96432,-0.2858 0.38549,-0.36024 0.71782,-0.76035 1.01026,-1.19769 0.5716,-0.70187 1.11661,-0.2632 1.83443,-0.54368 1.10331,-0.43468 2.2465,-0.0133 1.07673,1.16712 0.97038,-0.44665 2.02052,-0.66997 3.07066,-0.86006 -0.7444,0.13692 -1.47551,0.10635 -2.20662,-0.0931 0.59818,-0.4267 1.27612,-0.68325 2.00723,-0.76567 -0.66465,-0.10634 -1.34259,-0.10634 -2.00723,0 1.02355,-0.69256 2.48578,-1.01292 3.66885,-1.34392 1.39576,-0.38948 3.33653,1.99262 1.316,2.87527 0.99697,-0.36822 2.03382,-0.15952 3.05737,-0.19275 -2.60541,-0.61015 0.58489,-1.20833 1.28942,-1.20168 1.18307,0.0133 2.43261,0.32567 3.58909,0.0532 -0.71782,-0.87335 -0.53171,-1.25618 0.5716,-1.14851 -0.70453,-0.24991 -1.36917,-0.18743 -2.00723,0.19142 1.56856,-1.20567 3.3764,-2.16409 5.35705,-2.39273 -0.13293,-0.86005 -0.69123,-1.14319 -1.43564,-0.76567 0.30574,-1.30537 1.71479,-1.25353 2.68518,-1.72277 -0.87734,-0.10634 -3.27007,0.43335 -1.05015,-0.86138 -2.00723,0.0798 -3.1903,2.32095 -5.17095,2.58415 0.71782,0 1.39576,-0.19408 2.00723,-0.57426 1.15649,1.58053 -2.59212,2.75297 -3.50933,3.07865 -3.00421,1.07274 -3.65556,1.63769 -5.38364,-0.87867 0.83745,0 1.58186,-0.41208 2.19333,-0.95709 -1.38246,0.33232 -2.79151,0.68326 -4.10751,1.24555 0.7444,-0.49716 1.62173,-1.15915 -0.13293,-1.14851 1.51539,-0.66864 3.52263,-2.09896 5.264,-1.43564 -0.71782,-0.45063 -1.42234,-0.4174 -2.10028,0.0931 0.30573,-0.27915 0.62476,-0.53437 0.95709,-0.76567 -2.18004,0.44265 0.13293,-0.78561 0.69123,-1.24156 0.70453,-0.56628 0.27915,-1.29606 1.5154,-0.86404 -0.9571,-2.66524 4.94497,-1.97135 4.39996,-4.30691 1.06343,0.3177 1.6882,1.37581 2.77822,1.62705 -0.13293,0.3629 -0.30574,0.71383 -0.49184,1.05413 0.97039,-0.63274 2.10029,-1.1844 3.25677,-1.34126 -1.8743,0.19142 -0.77099,-1.14452 0.1994,-1.14851 -0.65136,-0.24592 -1.3293,-0.3722 -2.02053,-0.3815 0,-1.52072 2.12687,-1.5473 3.16372,-1.81848 -0.51842,-0.0133 -1.02356,-0.0798 -1.52869,-0.19142 1.74138,-1.33992 4.28033,-1.69086 6.31415,-0.86138 -3.3897,-1.67092 -5.87548,1.57787 -9.18542,1.53135 1.30271,-0.38816 1.27612,-0.64205 -0.13293,-0.76568 0.97038,-0.50912 2.10028,-0.21667 3.05737,-0.76567 -0.75769,0.30175 -1.51539,0.33365 -2.29967,0.0931 0.65135,-0.2632 1.316,-0.36024 2.00723,-0.28845 -3.07067,-0.62079 3.42958,-0.89728 0,-0.66997 0.93051,-0.0798 1.86101,-0.30441 2.68517,-0.76567 -2.37943,0.0665 0,-1.08072 0.86404,-0.19142 0.15952,-1.22694 1.56857,-1.35721 1.82114,-0.0931 -0.77099,0.3177 -1.56857,0.38151 -2.39273,0.19275 2.23321,1.03552 5.264,-0.61015 6.88574,-2.10561 -0.71782,0.34562 -1.36917,0.80423 -2.08699,1.12725 -0.66465,0.29377 -3.37641,0.20737 -0.97039,-0.0798 -1.34258,-0.11964 -1.16977,-0.66465 -0.47854,-1.33993 -0.79758,-0.15154 -1.52869,0.24592 -2.00724,0.86005 -0.69123,-0.93848 0.17281,-3.02813 1.43564,-2.96565 0.27915,0.23528 0.51843,0.50247 0.73111,0.80422 0.69124,0.67661 1.67491,0.0931 2.41932,-0.13426 -0.30574,0.0931 -2.56554,-0.79757 -2.65859,-0.94247 -1.22295,-1.94077 1.30271,-1.40506 2.27309,-0.876 -2.49907,-0.99033 0.55831,-4.77881 3.44287,-1.91418 -0.34561,-1.57389 -2.72505,-2.24385 -4.01446,-2.10561 1.32929,-0.0399 3.66885,-1.35322 4.98485,-1.83176 1.22295,-0.44266 0.79758,0.23794 1.55527,0.70452 0.47855,0.29776 1.34259,-0.13293 1.8876,-0.0266 -1.62174,-0.40278 1.92748,-1.05945 2.67188,-1.81848 -2.68517,0.64072 -5.4501,0.88531 -8.13528,1.53002 0.67794,-1.05812 1.84772,-1.15914 2.97762,-1.24422 -1.05014,-0.17148 -2.12687,0.11964 -3.16372,-0.19275 0.87734,-0.62344 0.73111,-1.37316 -0.19939,-1.81714 0.98367,-0.67129 1.36917,0.48519 2.29968,0.47722 0.31903,0 2.89786,-1.25353 3.07066,-1.43564 -1.55527,-0.46393 -3.09725,1.38113 -4.21386,-0.47722 0.69124,-0.19939 1.39576,-0.2313 2.10029,-0.0931 -0.49184,-0.19408 -1.01027,-0.35492 -1.52869,-0.47855 1.34259,-0.35093 2.71176,0.38683 4.02776,-0.0931 -0.39879,0.0399 -3.30994,-0.13558 -0.86404,-0.38416 -2.67188,-0.26054 1.60844,-0.35492 2.00723,-0.38151 -1.10331,-0.17015 -2.00723,-0.86271 -3.07067,-1.14851 1.05015,-0.53703 2.4592,-1.02887 3.65556,-0.81486 1.54198,0.2765 2.6453,-1.12192 4.20057,-0.33365 -0.63806,-0.39347 -1.34259,-0.58489 -2.10028,-0.57425 0.38549,-1.34791 4.77216,-2.05775 4.77216,-1.0528 1.14319,-0.72447 2.85798,-0.21003 3.82837,0.57425 0,-1.06742 0.1861,-1.25352 1.24953,-0.86005 -1.316,-0.26054 -2.61871,-0.76701 -3.97458,-0.81752 -1.9009,-0.0665 -3.28336,0.74441 -5.21084,-0.0399 0.78429,-0.22598 1.22295,-1.02754 2.00724,-1.24422 0.89062,-0.24592 1.27612,0.90791 2.00723,-0.19274 -0.69123,0.0532 -1.35588,-0.0399 -2.00723,-0.28713 0.91721,-0.51311 2.10028,-1.26283 3.16372,-0.57426 -0.3855,0.19142 -0.77099,0.38284 -1.15649,0.57426 0.97039,-0.23662 2.10029,-0.39613 3.07067,-0.0931 0.87733,0.27117 1.52869,1.46887 2.57883,1.0528 -2.16675,-0.0798 0.23927,-1.84772 1.24954,-1.81715 -1.7015,-0.19274 -3.29665,0.71782 -4.98486,0.0931 3.23019,-0.70851 -1.51539,-0.0266 0.37221,-1.38778 0.58489,-0.42404 1.58186,0.10635 2.21992,0.0532 -2.4592,-0.39347 1.09002,-0.35226 2.00723,0.19142 -2.45919,-2.47381 -4.83863,0.22465 -7.56368,0.28846 0.42537,-0.69655 1.18307,-1.15383 2.00723,-1.14851 -0.77099,-0.0532 -1.47551,-0.31371 -2.10028,-0.76567 0.66464,-0.0798 1.32929,-0.11964 2.00723,-0.0931 -3.25677,-0.13292 2.57883,-0.73775 3.15043,-0.7896 0.86404,-0.0798 2.92444,0.47323 3.27006,-0.74174 -1.59515,-0.85873 -3.30994,-0.093 -4.98485,-0.28846 0.61147,-1.16579 1.8743,-0.83081 2.87127,-1.33993 -1.64832,2.15479 1.75467,-1.01957 2.79152,-0.36422 1.27612,0.81751 0.31903,3.49205 2.56554,3.33254 -0.78429,-0.15686 -1.36917,-0.74574 -1.52869,-1.53135 0.46525,0.37353 3.69544,1.60579 0.95709,0 1.1299,0.62876 1.38247,0.40543 0.77099,-0.66996 0.69124,0.19939 1.39576,0.23129 2.10029,0.0931 -1.10332,-0.0665 -2.19334,-0.24592 -3.25677,-0.57426 0.50513,-0.22199 1.01026,-0.41474 1.52868,-0.57558 -0.71781,-0.17281 -1.44893,-0.26852 -2.19333,-0.28713 1.40905,-0.10634 1.40905,-0.42405 0,-0.95709 1.47552,0.43999 2.77822,1.35189 4.30691,1.62705 -1.28941,-0.34428 -2.56554,-1.22693 -3.54921,-2.1056 1.58186,-0.10634 3.11055,-0.52374 4.63923,0.0931 0.66465,0.0665 1.3293,0.10635 1.99394,0.11964 0.70453,0.19408 0.50514,0.79625 1.40906,0.84011 -0.49184,-0.0399 -0.771,-0.26054 -0.85075,-0.67528 0.26586,-0.65268 1.75467,-0.42537 2.19333,-0.1861 -2.632,-0.59286 1.43564,-0.59951 2.00724,-0.47855 -2.0737,-0.62078 -3.403,-0.60482 -5.50328,-0.34694 -1.32929,0.1635 -3.58909,0.3403 -4.73229,-0.51577 1.35588,-0.2499 0.81087,-1.68288 2.68518,-1.96735 1.79454,-0.27251 3.66885,-0.0798 5.4501,0.14888 -0.69123,-0.3177 -1.38246,-0.60483 -2.10028,-0.86005 0.9305,-0.60616 1.99394,-0.17281 2.96432,0 -1.67491,-0.24061 -0.95709,-0.7258 -0.13293,-1.14851 -2.68517,0.26054 0.34562,-2.80481 2.59213,-2.39273 -2.55225,-1.91685 3.33652,-5.12177 2.87127,-0.76568 0.26586,-1.77726 2.20663,-1.36917 3.64227,-0.76567 -1.35588,-0.63009 -3.0175,-0.65933 -3.82837,-2.1056 1.19636,-0.27915 2.21992,0.0798 3.25677,0.65534 1.16978,0.6487 3.74861,0.60882 2.96433,2.02452 0.73111,-0.0798 1.35588,-1.43564 0.29244,-1.43564 -1.14319,0 -2.21992,0.23927 -2.88457,-0.95842 0.5716,-0.60217 1.23625,-0.76169 2.00724,-0.47722 -0.69124,-0.3084 -1.38247,-0.34163 -2.10029,-0.093 -0.22598,-2.62137 3.50934,-2.33823 5.17096,-2.67986 -0.15952,1.42235 0.13292,2.58548 -0.58489,3.92275 0.94379,-0.62477 1.34258,-2.40203 2.77822,-1.72144 -2.08699,-0.11963 -0.49184,-3.15441 -0.13293,-1.72409 0.42537,-1.11794 1.90089,-0.69655 2.00723,-2.00989 2.52566,1.0302 -0.9305,5.64418 -1.91418,6.69964 1.07673,-0.72978 2.43261,-0.91588 2.97762,-2.25714 0.54501,-1.36785 2.55224,0.16616 3.44287,0.24858 -3.2036,-1.10731 -1.82113,-3.85363 0.86404,-4.40396 -0.34561,0.26055 -0.66465,0.54767 -0.97038,0.86139 1.23624,1.56325 1.38246,-0.77099 2.68517,0.19142 -2.29968,-3.26608 6.07487,0.88265 6.60659,0.95842 -0.47854,-0.55299 -1.09002,-0.87202 -1.82113,-0.95842 1.16978,0 1.27612,-0.0931 0.29244,-0.31106 -0.59818,-0.41474 -0.65135,-1.80651 0.85075,-0.64471 -0.39879,-1.07938 -2.96432,-1.0302 -0.66465,-1.62705 -1.58185,0.47323 -4.81204,0.17148 -6.03499,-1.14851 0.70453,-0.24991 1.38247,-0.1861 2.02053,0.19142 0.13293,-0.35094 0.1861,-0.70054 0.27915,-1.0528 0.73111,0.36954 1.43564,0.78428 2.11358,1.24554 0.31903,-2.35418 2.18004,0.0266 3.34982,-0.95842 -0.29245,1.25087 1.05014,1.40905 1.91418,1.53135 -0.7444,-0.0532 -1.22295,-0.50513 -1.34259,-1.24422 1.316,-0.22066 2.72506,0.27649 4.01447,0.47722 -0.31903,1.46887 -2.4459,1.25751 -3.53592,1.33992 1.40905,0.0399 2.97762,0.0266 4.21386,-0.76434 0.15952,2.51502 2.57883,1.49413 4.10752,1.43564 -0.17281,-0.549 -1.59515,-0.37353 -2.19334,-0.95709 0.90392,-0.47057 1.71479,-1.02223 -0.13293,-1.24555 0.43867,0.0266 3.70873,-0.24991 0.9571,-0.47855 1.10331,0.22465 1.75466,-1.20567 2.55224,-1.68022 1.19637,-0.72048 2.56554,-0.38018 3.86825,-0.42538 -1.94077,-1.62307 1.63503,-1.42367 2.39272,-1.91285 -0.95709,-0.48918 -2.07369,-0.3948 -2.96432,-1.0528 1.06343,-0.88133 2.16675,0.54501 3.15043,-0.57559 -2.76494,-0.55165 1.48881,-1.03951 2.49907,-0.82549 0,0.0133 3.90812,2.6094 2.00723,0.15553 1.36917,-0.13293 2.65859,1.19636 4.01447,0.47854 -0.82416,2.087 -3.89483,2.22524 -5.264,3.82837 0.77099,-0.19009 1.22295,0.17945 1.24953,0.95709 -0.47854,0.0532 -2.02052,1.47818 -1.91418,2.48844 0.66465,-0.37619 1.95406,0.35758 2.21992,-0.0798 0.27915,-0.47588 0.66465,-0.83612 1.16978,-1.08337 0.59818,-0.41873 -0.29245,-0.70054 0,-1.13123 1.60844,-1.97533 5.50328,-4.98352 7.93588,-5.64684 0.42538,1.59648 0.51843,2.5456 -1.43563,2.67985 1.84771,-0.32301 1.72808,1.87032 1.15648,2.96699 0.81087,0.0798 0.90392,-0.33897 1.34259,-0.83613 0.63806,-0.7218 1.78125,-0.18876 2.57883,-0.21667 -0.25257,-0.34828 -0.50513,-0.69921 -0.7577,-1.0528 0.67794,-0.13293 1.35588,-0.0931 2.00723,0.0931 -0.7444,-0.16218 -1.23624,-0.76169 -1.24953,-1.53002 1.14319,0.0798 2.00723,-1.07008 3.16372,-0.57558 -0.77099,-0.94912 -1.99394,-0.81752 -3.07067,-1.05148 0.73111,-0.11963 6.72623,-3.38039 7.19148,-1.14983 0.13293,0.39081 1.92748,0.46791 2.27309,0.80555 0.98368,0.93981 -3.93471,1.52337 -4.20057,1.68421 0.73111,-0.0797 1.40905,0.0798 2.02053,0.47722 -1.03685,0.27516 -2.00723,0.75105 -3.07067,0.95842 1.32929,-0.0399 3.19031,-1.1618 4.39996,-0.19275 -0.97038,0.658 -2.08699,1.03419 -3.15042,1.53135 1.27612,0.0798 2.57883,-0.4174 3.82836,-0.0931 -0.67794,0.39879 -1.1299,1.10597 -0.86404,1.91285 -0.13293,-1.34524 1.19637,-2.12554 2.39273,-2.00989 -2.47249,0.0266 0.3855,-2.90584 1.19637,-3.39236 1.07672,-0.64869 5.10448,-0.0399 3.97458,1.85968 0.9571,-0.28579 3.12385,-1.38113 3.45617,0.28846 1.35588,-1.37715 4.73228,0.56894 2.47249,1.0528 2.07369,-0.15685 5.15766,-0.44531 6.84586,1.24821 1.07673,1.098 -2.4459,1.4702 -2.93774,1.5699 -2.21992,0.44531 -3.46946,1.77194 -5.95524,1.42101 -1.99394,-0.28314 -5.86218,-1.73606 -7.61685,-0.21933 1.23624,0.0797 2.4459,0.25522 3.65556,0.47057 0.85074,0.15154 5.21083,0.27649 2.56553,1.25086 1.1299,0.14755 3.69544,0.77764 1.05015,1.91419 0.90392,-0.10635 1.79454,-0.23928 2.69846,-0.38284 0.13293,0.77365 0.55831,0.80156 1.3293,0.76567 -0.14623,-0.53304 -0.21269,-1.07673 -0.1994,-1.62838 1.03685,0.0532 2.23322,0.1861 2.59213,1.34125 0.50513,-1.74137 2.93774,-1.11261 3.3897,0.24327 0.9305,2.77423 -4.75888,0.98367 -5.31718,0.33099 1.02356,1.94874 -1.22295,2.56687 -2.632,2.80614 -0.73111,0.11964 -2.84469,0.19673 -2.95103,1.03286 0,0.57957 0.33232,1.24422 -1.22296,2.09098 -0.73111,0.40145 -1.40905,0.0133 -2.04711,-0.37087 -1.30271,-0.79758 0.39879,-1.60712 0.91722,-2.11358 1.38246,-1.33195 2.00723,-3.21157 -0.55831,-3.88154 -1.96735,-0.51444 -3.97459,-0.80289 -5.87548,-1.54996 -2.18004,-0.85207 -3.80178,-2.97761 -6.11475,-1.49279 -3.77519,2.4233 -9.42469,-0.2313 -10.79387,4.48636 -0.30573,1.08737 -0.54501,2.15213 -0.66464,3.28336 0,0.71117 0.61147,1.92482 0,2.53629 -0.7577,0.67263 -1.56857,0.331 -2.39273,0.73776 -0.83746,0.40809 -1.27612,1.29872 -1.80784,1.99926 -1.27612,1.64434 -3.61568,-0.2632 -5.13108,-0.66465 -1.03685,-0.26984 -2.07369,-0.47987 -3.09725,-0.78694 -1.26283,-0.37752 -1.316,0.65268 -2.2598,1.07407 -2.89786,1.30802 -5.96853,1.04881 -9.02591,-0.218 -1.23624,-0.51045 -3.45616,-2.84868 -4.61265,-3.73798 -2.15345,-1.64832 -3.97458,-1.97134 -6.36731,-0.7351 0.31903,0.2951 0.63806,0.58223 0.95709,0.86138 -1.90089,1.06078 -5.0779,0.0133 -7.17819,0.9571 2.85798,1.16047 0.59818,3.39767 -1.05014,4.40395 0.69123,0.15552 1.36917,0.37885 2.00723,0.66996 -3.24347,2.48445 -7.16489,-0.45861 -10.51471,-0.2087 -1.67491,0.11964 -2.84469,-0.99697 -4.54619,-0.34562 -1.22295,0.46393 0.25257,2.36349 0,3.32989 -0.71782,3.36045 -4.97156,0.73111 -7.05855,1.42633 -3.44287,1.14718 -4.71899,4.64588 -7.97576,6.13602 0.78428,0.67794 2.83139,1.85038 2.57883,3.12517 -0.1994,1.07407 -4.12081,3.43755 -5.03802,4.45446 -0.63807,0.70852 -1.10332,0.94646 -1.91419,1.39044 -0.95709,0.5264 0.51843,1.62174 0,2.33292 -1.20966,1.55926 -5.264,1.58717 -6.99208,1.52204 0.29244,1.03818 1.19636,7.73915 -0.15952,8.47557 -1.07673,0.57825 -1.52869,2.39938 -2.52566,3.28203 -1.32929,1.17111 -2.59212,2.47116 -3.72202,3.84299 1.8743,0.62211 5.30388,1.79986 3.80178,4.51561 -1.05014,1.8876 -6.26097,0.48918 -8.12199,0.78827 -1.71479,0.2765 -6.68634,2.98826 -6.77939,5.04201 0,1.0754 -1.03685,1.91552 -0.9571,2.88191 0,0.76036 1.71479,2.8314 1.09002,3.26209 -1.34258,0.9212 -0.5583,3.54124 0.13293,4.93966 1.35588,2.78221 -0.19939,4.59935 0.13293,7.34966 0.1861,1.7467 2.32627,2.32494 3.65556,2.83937 0.66465,0.25257 1.7015,0.62344 1.92748,1.38114 0.15951,0.48386 -0.97039,3.3352 -1.54198,3.33254 -1.75467,0 -3.50934,0.47456 -2.77823,2.52699 0.43867,1.22561 1.62174,1.96071 2.11358,3.15707 0.5716,1.40374 -0.67794,2.10294 -0.53172,3.44819 0.13293,1.14319 -1.16978,2.15611 -2.10028,2.51104 -1.52869,0.5902 -2.99091,-0.15553 -2.84469,1.64965 0,0.97171 -0.53172,1.6111 -0.97039,2.35019 -0.54501,0.89993 0.39879,2.19599 0.30574,3.20227 -0.13293,0.96241 -0.54501,4.34812 -2.10028,4.06897 -0.70453,-0.13293 -1.20966,-1.33195 -1.59515,-1.80917 -0.45196,-0.5716 -1.20966,-0.46791 -1.86102,-0.80422 -1.72808,-0.87601 -2.97761,-0.7896 -3.58909,-2.82874 -0.27915,-0.90658 -0.42537,-1.87298 -0.41208,-2.82076 0,-0.58755 0.63806,-3.10124 0.86404,-0.82948 0.98368,-1.8331 -1.5154,-2.46318 -1.7015,-0.55432 -0.13293,1.09135 1.22295,2.07503 0,2.94705 -0.25256,-0.31372 -0.50513,-0.63408 -0.75769,-0.95709 -0.15952,0.81485 -0.71782,1.01292 -1.43564,0.66996 1.39576,1.28011 1.66162,2.10959 1.14319,3.92408 0,-1.92748 -0.13293,-0.29644 -0.7444,0.24857 -0.5716,0.46393 -1.26283,0.71118 -1.87431,1.11794 -0.98367,0.65933 -0.19939,1.24954 -1.66161,0.54235 -0.89063,-0.42404 -1.7015,-0.97171 -2.61871,-1.33461 2.52565,1.09135 -0.54501,2.87925 -2.00724,2.7769 0.22598,0.3177 0.45196,0.63673 0.67794,0.95709 -0.81087,0.26851 -1.63503,0.39746 -2.49907,0.38283 0.17281,0.34961 0.33232,0.69921 0.49184,1.05148 -1.91418,0.28712 -2.59212,2.26245 -4.13411,3.18365 -1.8743,1.12857 -3.90812,1.64966 -5.94194,2.37545 -0.86404,0.30441 -1.98065,1.11794 -2.91115,1.11129 -0.93051,0 -1.78126,-0.47588 -2.72506,-0.49848 -1.5021,-0.0399 -4.18727,0.54235 -5.25071,-0.90658 0.62477,-0.57691 1.316,-1.02356 2.10029,-1.33993 -3.36312,2.07104 -14.07722,-4.65253 -9.47787,-7.17819 -0.30573,-0.24459 -0.62477,-0.46791 -0.95709,-0.66996 1.99394,-0.13293 3.46946,1.73207 5.4634,1.62705 -0.35891,-0.27117 -0.70453,-0.5583 -1.05014,-0.86005 1.24953,-0.72579 2.73834,-0.88531 4.10751,-1.24555 -1.58185,0.13293 -3.1903,0.45462 -4.49301,1.43564 0.1861,-0.83878 -0.29244,-1.58319 -1.06343,-1.91418 0.67794,-0.20338 1.34258,-0.3948 2.02052,-0.57426 -2.45919,-0.49184 2.15346,-1.67757 2.96433,-1.81847 -0.67794,-0.0266 -1.34259,0.0665 -1.98065,0.29111 -1.18307,0.34695 -1.78125,-0.093 -0.13293,-0.29111 -0.67794,0.0399 -1.35588,-0.0266 -2.02053,-0.19142 1.40906,-0.90658 2.68518,-1.90355 4.30692,-2.39273 -0.9438,0.22864 -1.80784,-0.68193 -2.35285,0.34695 -0.39879,0.7896 -1.74138,1.52337 -2.52566,1.85569 0,-0.74972 0.50513,-1.20434 1.24953,-1.24688 -1.05014,-0.0399 -2.20662,-0.0665 -3.07066,0.66997 0.75769,-0.35492 1.20965,-0.0532 1.24953,0.76567 -0.71782,-0.0798 -1.39576,0.0798 -2.00723,0.47988 0,-0.7351 0,-1.46754 0,-2.20264 -0.45196,0.15021 -0.86404,0.37353 -1.24954,0.66996 2.51237,0.21402 -0.89063,3.18632 -0.1861,0.47855 -0.15951,2.08167 -1.48881,0.10634 -1.44893,-0.71649 0,-1.18706 1.11661,-2.29171 2.20663,-2.63333 -0.13293,0.92385 -0.30574,2.13883 -1.52869,2.1056 1.02356,0.64072 1.40905,-0.0798 1.6882,-0.96108 0.37221,-1.18307 2.15346,-0.19142 3.09726,-0.66598 -2.67188,-0.33099 1.27612,-0.87202 1.82113,-1.33993 -1.11661,0.65667 -2.60542,0.2765 -3.64226,-0.38416 0.9305,-1.19637 2.79151,-2.98693 4.41325,-2.96566 -2.55224,-0.76035 2.24651,-2.81411 3.05738,-3.34849 0.43866,1.0528 -0.33233,1.99394 -0.5716,2.96433 1.62174,-1.80386 2.08699,-3.40565 4.78546,-3.63429 -2.06041,-0.3403 -4.37338,0.0665 -6.28756,0.83346 -0.5716,0.22864 -2.45919,1.61111 -2.80481,2.20397 -2.56554,4.41193 -1.22295,-0.2725 -3.25677,0.0266 0.21269,-0.62876 0.3722,-1.26682 0.47854,-1.91418 -0.27915,0.64603 -1.26282,2.69979 -2.32626,2.21327 -0.86404,-0.39347 -0.53172,-1.99527 -1.59515,-2.21327 0.71782,-0.19541 1.28941,-0.73776 1.52869,-1.43564 0.95709,2.79816 3.5758,-0.53837 2.96432,-2.39273 -1.30271,0.32568 -1.96735,1.91285 -3.3897,1.91285 -1.39576,0 -1.43564,-2.083 -2.632,-2.48711 1.15649,0 2.52566,0.50647 3.24348,1.43564 -0.13293,-0.86271 -0.3855,-2.25448 0.95709,-2.20131 -1.23625,-0.30042 -3.42958,1.56857 -3.73532,-0.66996 0.87734,0.64603 1.03685,0.64205 1.43564,-0.38284 -1.02356,0.26719 -1.82113,-1.29207 0.29244,-0.94114 2.24651,0.37087 3.66886,-0.51311 5.8356,-0.59021 1.56857,-0.0532 3.61568,0.99299 5.06461,0.0399 1.52869,-1.01691 4.5329,1.35057 2.40603,1.97002 0.67794,-0.38816 1.38246,-0.45196 2.10028,-0.19275 -2.18004,-1.58319 3.04408,-2.65726 3.93471,-2.67986 -2.87127,-0.35891 -1.79455,-1.50476 -0.19939,-2.96698 -1.30271,0.53437 -2.95104,1.85569 -1.71479,3.34982 -1.03685,-0.0798 -2.03382,0.46392 -3.07067,0.0931 0.33232,-0.31238 0.69123,-0.59951 1.05014,-0.86005 -0.95709,0.61546 -5.67608,0.8441 -3.53592,-0.9571 -1.16978,0.17547 -0.97039,1.16845 -1.64833,1.84374 -0.97038,0.98367 -2.37943,-0.0399 -3.42957,-0.20339 -1.20966,-0.19141 -3.28336,0.48121 -4.43985,0.82682 -1.23624,0.36689 -2.19333,-0.767 -3.30994,-1.03153 1.80784,-0.0133 0.77099,-0.6899 0,-1.14851 1.22295,-0.57159 2.68518,-0.76035 4.01447,-0.66996 -1.30271,-0.41208 -2.76493,0.0532 -4.01447,0.47854 0.85075,-1.12192 0.63806,-1.40905 -0.66464,-0.86537"
         style="fill:#c83737;fill-opacity:1;fill-rule:evenodd;stroke:#000000;stroke-width:0.14449541;stroke-miterlimit:4;stroke-dasharray:none;stroke-opacity:1" />
      <path
         inkscape:connector-curvature="0"
         id="path6796"
         d="m -321.94709,257.4071 c -0.31903,-0.19142 -0.63806,-0.38284 -0.95709,-0.57425 0.7444,-0.44665 1.48881,-0.10635 1.91418,0.57425 -0.31903,0 -0.63806,0 -0.95709,0"
         style="fill:#c83737;fill-opacity:1;fill-rule:evenodd;stroke:#000000;stroke-width:0.14449541;stroke-miterlimit:4;stroke-dasharray:none;stroke-opacity:1" />
      <path
         inkscape:connector-curvature="0"
         id="path6798"
         d="m -320.89695,244.30026 c 0.34562,0.15952 0.70453,0.3177 1.05014,0.47722 -1.05014,0.17148 -2.14016,0.0665 -3.15042,-0.28713 0.65135,-0.49981 1.35588,-0.56362 2.10028,-0.19009"
         style="fill:#c83737;fill-opacity:1;fill-rule:evenodd;stroke:#000000;stroke-width:0.14449541;stroke-miterlimit:4;stroke-dasharray:none;stroke-opacity:1" />
      <path
         inkscape:connector-curvature="0"
         id="path6800"
         d="m -317.73323,259.32128 c -0.71782,-0.22199 -1.35588,-0.57292 -1.91418,-1.0528 0.97038,-0.54102 2.10028,-0.78827 2.96432,-1.53134 0.17281,1.01957 0.25257,2.31164 -1.05014,2.58414"
         style="fill:#c83737;fill-opacity:1;fill-rule:evenodd;stroke:#000000;stroke-width:0.14449541;stroke-miterlimit:4;stroke-dasharray:none;stroke-opacity:1" />
      <path
         inkscape:connector-curvature="0"
         id="path6802"
         d="m -313.04082,269.75624 c 0.38549,-1.79322 1.48881,-0.84543 2.76493,-1.14851 -0.95709,0.2858 -1.98065,0.47855 -2.76493,1.14851"
         style="fill:#c83737;fill-opacity:1;fill-rule:evenodd;stroke:#000000;stroke-width:0.14449541;stroke-miterlimit:4;stroke-dasharray:none;stroke-opacity:1" />
      <path
         inkscape:connector-curvature="0"
         id="path6806"
         d="m -299.45544,232.52272 c 0.13293,-0.28713 0.25257,-0.57426 0.3855,-0.86005 0.33232,0.75769 0,0.44265 -0.3855,0.86005"
         style="fill:#c83737;fill-opacity:1;fill-rule:evenodd;stroke:#000000;stroke-width:0.14449541;stroke-miterlimit:4;stroke-dasharray:none;stroke-opacity:1" />
      <path
         inkscape:connector-curvature="0"
         id="path6812"
         d="m -136.08522,163.99762 c -1.90089,-0.47057 -0.9305,2.3143 1.15649,0.57425 -0.90392,0.5264 -1.28942,0.33499 -1.15649,-0.57425"
         style="fill:#c83737;fill-opacity:1;fill-rule:evenodd;stroke:#000000;stroke-width:0.14449541;stroke-miterlimit:4;stroke-dasharray:none;stroke-opacity:1" />
    </g>
  </g>
</svg>
