<?xml version="1.0" encoding="UTF-8" standalone="no"?>
<!-- Created with Inkscape (http://www.inkscape.org/) -->

<svg
   xmlns:dc="http://purl.org/dc/elements/1.1/"
   xmlns:cc="http://creativecommons.org/ns#"
   xmlns:rdf="http://www.w3.org/1999/02/22-rdf-syntax-ns#"
   xmlns:svg="http://www.w3.org/2000/svg"
   xmlns="http://www.w3.org/2000/svg"
   xmlns:sodipodi="http://sodipodi.sourceforge.net/DTD/sodipodi-0.dtd"
   xmlns:inkscape="http://www.inkscape.org/namespaces/inkscape"
   width="86.287651mm"
   height="52.033848mm"
   viewBox="0 0 86.287651 52.033848"
   version="1.1"
   id="svg30371"
   inkscape:version="0.92.0 r15299"
   sodipodi:docname="romania.svg">
  <defs
     id="defs30365" />
  <sodipodi:namedview
     id="base"
     pagecolor="#ffffff"
     bordercolor="#666666"
     borderopacity="1.0"
     inkscape:pageopacity="0.0"
     inkscape:pageshadow="2"
     inkscape:zoom="0.35"
     inkscape:cx="1853.0633"
     inkscape:cy="981.18882"
     inkscape:document-units="mm"
     inkscape:current-layer="layer1"
     showgrid="false"
     fit-margin-top="0"
     fit-margin-left="0"
     fit-margin-right="0"
     fit-margin-bottom="0"
     inkscape:window-width="1920"
     inkscape:window-height="1017"
     inkscape:window-x="1912"
     inkscape:window-y="-8"
     inkscape:window-maximized="1" />
  <metadata
     id="metadata30368">
    <rdf:RDF>
      <cc:Work
         rdf:about="">
        <dc:format>image/svg+xml</dc:format>
        <dc:type
           rdf:resource="http://purl.org/dc/dcmitype/StillImage" />
        <dc:title></dc:title>
      </cc:Work>
    </rdf:RDF>
  </metadata>
  <g
     inkscape:label="Layer 1"
     inkscape:groupmode="layer"
     id="layer1"
     transform="translate(507.29859,-447.11998)">
    <path
       inkscape:connector-curvature="0"
       id="ro"
       class="landxx ro eu"
       d="m -507.23139,471.18575 c 1.03686,-0.71249 1.83443,-0.65269 2.88457,-0.38151 1.01026,0.26319 1.07673,-1.05411 1.9009,-1.34126 0.90391,-0.31504 1.87429,-0.0798 2.77822,-0.37088 1.316,-0.41206 1.06344,-2.00057 1.68819,-2.98426 0.5849,-0.93582 1.36917,-1.72144 2.03382,-2.60276 0.85075,-1.13387 0.7444,-2.14812 1.5021,-3.17302 0.67795,-0.90391 1.44894,-1.96601 1.82115,-3.04673 0.42538,-1.25753 -0.13294,-1.8424 0.82415,-2.31828 0.87733,-0.46927 1.1432,-0.78696 1.75468,-1.56724 0.95709,-1.22031 2.69846,-0.35094 3.85495,-1.31203 0.9438,-0.79359 1.59516,-1.90754 2.64528,-2.5908 1.43565,-0.94646 3.07067,0.24993 4.5462,0.44266 1.40904,0.18345 2.79151,0.47856 4.20056,0.62212 1.6882,0.17147 3.81508,-0.57159 5.33047,0.40675 2.87128,1.85304 3.13715,2.97098 5.80903,0.42141 1.67489,-1.5965 5.15765,-0.7843 7.27124,-1.13921 1.39575,-0.23396 1.14317,-1.24689 1.94076,-2.12821 0.86404,-0.94911 2.51236,-1.01026 3.69542,-0.87599 2.63202,0.29907 4.13412,3.07333 5.23742,5.1696 1.22297,2.32362 2.95104,4.34945 4.82534,6.148 2.73835,2.62933 4.01447,4.56744 5.11778,8.18179 0.39879,1.32266 -0.38548,2.66392 -0.69122,3.91344 -0.33232,1.43697 0.29245,2.96302 0.41208,4.41327 0.1728,2.41001 0.7577,3.39103 2.65859,4.73228 0.7311,0.51444 2.47249,1.77063 3.57579,1.13656 1.20965,-0.7032 7.41745,-4.13545 8.2682,-0.51977 1.10333,4.59006 -1.35586,6.30351 -5.59632,6.26895 0.51843,-0.41739 0.97039,-2.93639 -0.13292,-2.89918 -1.31602,0.0399 -0.61148,3.08263 -1.58186,3.85627 0.62477,-0.14755 1.26283,-0.24326 1.91418,-0.28712 -0.97038,0.42006 -2.68517,0.549 -1.52868,1.81714 0.34561,-0.29511 0.66464,-0.61414 0.9571,-0.95709 -0.41209,1.51407 -2.03385,2.34489 -2.2997,3.92407 -0.29245,1.68422 0.98368,4.44251 -0.13292,6.01505 -0.63806,-0.54233 -2.06042,0.0532 -2.69846,-0.27514 -0.50514,-0.26322 -2.35287,-1.61509 -3.34984,-2.52433 -1.35588,-0.42007 -2.6453,0.22598 -4.46643,-0.6487 -1.4755,-0.70585 -4.00116,-1.62707 -6.83257,-0.48253 -6.2078,0.61146 -7.55038,4.10352 -10.39508,4.74822 -1.74136,0.39615 -4.16069,-0.4546 -6.68633,-0.77762 -3.03081,-0.3895 -4.65254,0.47057 -6.32746,0.43068 -1.39576,-0.0266 -3.11054,-1.44627 -5.55645,-1.54197 -1.24952,-0.0532 -5.264,1.00893 -6.11474,-0.34696 -1.24952,-1.9873 3.73531,-2.07237 -0.85075,-3.72998 -1.12989,-0.40943 -1.51539,-0.34564 -3.0175,-2.45255 -1.3027,-1.83311 1.75466,-1.38247 2.39272,-1.69485 -0.7178,-0.88266 -2.2465,-1.81982 -3.40297,-1.40774 -0.79759,0.28316 -1.01027,2.38742 -1.95408,2.18137 -0.95709,-0.20604 -2.32624,-1.78391 -3.54921,-2.13483 -1.32928,-0.38151 -2.87128,-0.72846 -3.88153,-1.76931 1.10331,-0.32299 1.36918,-1.74536 0,-1.91284 1.27613,-1.1977 0.58488,-2.03248 -0.91722,-2.56021 -2.03382,-0.71118 -3.57579,-1.90355 -5.33047,-3.08662 1.56857,-3.10789 -2.77823,-4.99151 -4.55947,-6.98811"
       style="fill:#c83737;fill-opacity:1;fill-rule:evenodd;stroke:#000000;stroke-width:0.14449541;stroke-miterlimit:4;stroke-dasharray:none;stroke-opacity:1">
      <title
         id="title842">Romania</title>
    </path>
  </g>
</svg>
