<svg xmlns="http://www.w3.org/2000/svg" width="326.127" height="196.663" viewBox="0 0 86.287651 52.033848"><path class="landxx ro eu" d="M.067 24.066c1.037-.713 1.835-.653 2.885-.382 1.01.263 1.077-1.054 1.9-1.341.905-.315 1.875-.08 2.779-.37 1.316-.413 1.063-2.001 1.688-2.985.585-.936 1.37-1.722 2.034-2.603.85-1.134.744-2.148 1.502-3.173.678-.904 1.449-1.966 1.821-3.047.426-1.257-.133-1.842.824-2.318.878-.47 1.144-.787 1.755-1.567.957-1.22 2.698-.351 3.855-1.312.944-.794 1.595-1.908 2.645-2.591 1.436-.946 3.07.25 4.546.443 1.41.183 2.792.478 4.201.622 1.688.171 3.815-.572 5.33.407 2.872 1.853 3.138 2.97 5.81.42 1.674-1.596 5.157-.783 7.27-1.138 1.396-.234 1.144-1.247 1.941-2.128.865-.95 2.513-1.01 3.696-.876 2.632.299 4.134 3.073 5.237 5.17 1.223 2.323 2.951 4.349 4.826 6.147 2.738 2.63 4.014 4.568 5.117 8.182.4 1.323-.385 2.664-.69 3.913-.333 1.437.292 2.963.411 4.414.173 2.41.758 3.39 2.659 4.732.731.514 2.472 1.77 3.576 1.136 1.21-.703 7.417-4.135 8.268-.52 1.103 4.59-1.356 6.304-5.596 6.27.518-.418.97-2.937-.133-2.9-1.316.04-.612 3.083-1.582 3.857a11.748 11.748 0 0 1 1.914-.287c-.97.42-2.685.549-1.529 1.817.346-.295.665-.614.957-.957-.412 1.514-2.033 2.345-2.3 3.924-.292 1.684.984 4.442-.132 6.015-.638-.543-2.06.053-2.699-.275-.505-.264-2.353-1.615-3.35-2.525-1.355-.42-2.645.226-4.466-.648-1.475-.706-4.001-1.627-6.833-.483-6.207.612-7.55 4.104-10.395 4.748-1.741.396-4.16-.454-6.686-.777-3.03-.39-4.652.47-6.327.43-1.396-.026-3.111-1.446-5.557-1.542-1.25-.053-5.264 1.01-6.115-.347-1.25-1.987 3.736-2.072-.85-3.73-1.13-.409-1.516-.345-3.018-2.452-1.303-1.833 1.755-1.383 2.393-1.695-.718-.883-2.247-1.82-3.403-1.408-.798.283-1.01 2.388-1.954 2.182-.957-.206-2.326-1.784-3.55-2.135-1.329-.382-2.87-.729-3.88-1.77 1.102-.322 1.368-1.745 0-1.912 1.275-1.198.584-2.033-.918-2.56-2.034-.712-3.576-1.904-5.33-3.087 1.568-3.108-2.779-4.992-4.56-6.988" fill="#c83737" fill-rule="evenodd" stroke="#000" stroke-width=".144"><title>Romania</title></path></svg>