<svg xmlns="http://www.w3.org/2000/svg" width="4697.449" height="1556.07" viewBox="0 0 1242.8666 411.71017"><path d="M62.275 152.093a1.23 1.23 0 0 0 1.05 0c-.332-1.721-1.409-1.954-2.964-1.627a8.356 8.356 0 0 0 1.914 1.627M64.562 151.522a4.148 4.148 0 0 0-.958.193c.32-.067.639-.133.958-.193M96.053 155.443c1.316.305 2.658.579 3.934 1.053-.399-.562-.678-1.293-1.236-1.719-.731-.543-1.9-.243-.678.953-.638-.433-1.316-.529-2.02-.287M97.103 152.28c.133.398.292.75.585 1.052-.2-.35-.386-.702-.585-1.052M939.343 257.28c0 .32-.133.637-.186.958.97-.393 2.047-.354 3.058-.094-.559-.553-.692-1.19-.373-1.914-1.076-.356-1.754.456-2.499 1.053M944.328 257.28c0 .724.186 1.394.572 2.01 2.166-1.566 3.562 2.372 5.476 1.504 1.888-.854-.212-5.357-1.741-3.514.585-2.121-2.911-1.444-3.921-2.2-.36.64.332 1.774-.386 2.2M952.078 263.874a13.642 13.642 0 0 0-1.728-1.913c.16.91.824 1.681 1.728 1.913M952.849 263.98a6.1 6.1 0 0 0 1.05-.766 3.457 3.457 0 0 0-1.05-.574 2.3 2.3 0 0 1 0 1.34M998.31 268.194c.851.24 1.729.896 1.981 1.78.306 1.063 1.675.46 2.234 1.474a5.225 5.225 0 0 1-2.114.287c.359 1.247 1.768 1.1 2.685 1.629-.173.655-.744 1.732-1.528 1.817-1.17.133-.865-1.046-1.729-1.34-3.894-1.33-1.714 2.494-.425 3.76 1.861 1.834 3.921 3.71 4.918 6.194.997 2.493 1.808 4.132 3.443 6.332 2.832 3.822 8.468 5.243 11.725 8.7 1.542 1.645 2.153 3.878 3.15 5.85 1.276 2.522 3.882 4.15 5.53 6.456 2.911 4.052 5.423 7.627 7.085 12.281 1.741 4.893 6.86 6.344 9.425 10.555 1.116 1.851.558 3.997 1.808 5.911 1.29 1.948 3.536 3.32 4.493 5.452.93 2.075.864 4.546 2.246 6.43 1.848 2.525 4.108 4.829 6.713 6.589-.731-.977-.359-2.502-.864-3.625-.478-1.046-.638-2.066-.864-3.173-.332-1.6.665-3.776 2.353-1.623 1.023 1.317 4.64.377 6.154 1.353 1.53.982 2.925 3.189 3.75 4.77-.214-1.923-.931-3.497-2.114-5.013-.612-.785-1.21-1.662-1.901-2.381-1.117-1.174-2.287-.15-3.457-.933a3.82 3.82 0 0 0 2.008.958c-2.02 1.707-5.078-3.391-6.009-4.589-2.353-3.062-6.38-4.022-8.96-6.859-3.27-3.596-3.322-8.584-5.356-12.77-.532-1.114-2.06-2.844-.492-3.794 1.024-.617 2.42-.74 3.59-.7-1.237-.227-2.58.144-3.736-.478 1.528-1.385 8.295 1.294 9.677 2.051 1.741.945 3.669 1.804 5.21 3.04 1.224.973 2.327 2.408 3.882 2.852-1.17-.59-1.887-1.736-2.844-2.578-1.183-1.037-2.739-1.676-4.015-2.583-3.15-2.22-5.65-5.181-8.4-7.847-5.783-5.61-11.858-10.85-17.574-16.565 2.074 2.398-.864-.141-1.037-.43-.877-1.395-1.874-2.225-3.27-3.206.28.303.532.622.77.957-1.05.392-1.541-.663-1.9-1.429-.558-1.239-1.236-1.647-2.433-2.254-2.073-1.049-4.652-4.844-5.25-7.036.372.687.824 1.325 1.342 1.914 0-6.175-8.866-5.846-9.943-11.2 2.167.143 4.932 4.08 6.407 5.456-1.635-1.863-3.163-3.997-5.317-5.302-2.512-1.53-4.666-3.716-7.218-5.129a5.538 5.538 0 0 1 2.007 1.244c-.664-.631-1.329-1.332-2.166-1.75-1.077-.541-.638-1.492-1.183-2.364-1.13-1.83-3.63-2.386-5.264-3.637 0 1.231-1.25 1.744-2.3 1.436 1.728.895 3.616 1.736 5.078 3.06M1013.903 214.118c3.244 1.253-.97-3.453 0 0M1107.22 373.953c-.758 1.914 0 4.026-.89 5.954-.533 1.246-1.304 3.43.983 2.852-.917-2.147 1.356-7.722 4.214-7.082 0-.358 0-.709-.133-1.053-1.542.617-2.805-.16-4.214-.671M1123.597 362.56c-1.569-.35-1.835 1.547-2.646 2.4-1.595 1.662-3.283-.548-4.546-1.347-.16.738.293.95.678 1.444.665.861-.77 1.511-.478 2.48a48.2 48.2 0 0 0-1.05-.191c.305 1.279-2.5 4.123-.48 4.688-1.514.221-1.873 2.62-.385 3.159.373-2.143 3.882-3.988 2.486-6.508 2.22 1.092 2.858-1.836 4.214-2.872.518-.397 5.915-1.753 2.207-3.252M1118.612 381.224c-.798-.053-1.516.356-2.007.957.85 1.267 2.352.444 2.007-.957M1130.39 356.526c-.546 1.79-2.3 2.91-1.383 5.055.77 1.778 4.666-6 5.011-6.585-1.688-1.132-2.313.995-3.629 1.53M1138.14 302.45a3.44 3.44 0 0 0 2.1.86c-.147-1-1.303-1.864-2.1-.86M1141.675 344.376c-.346.79-.651 3.315-2.007 2.965.226.405.505.756.864 1.053.93-1.21 1.236-2.608 1.728-4.018h-.585M1145.889 312.22c-1.33-1.844 1.303-1.673 1.821-2.965.625-1.577-2.233-6.94-3.722-4.867-1.143 1.586 2.193 2.772-1.023 3.842-3.337 1.108 2.113 3.24 2.924 3.99M1143.31 334.034c.97.262.811 0-.478-.766l.478.766M1143.696 337.676c.345.027.69.067 1.05.093a4.058 4.058 0 0 0-.771-.958c-.133.287-.186.575-.28.863M1144.839 320.156c2.26 1.392.306-3.778-1.05-4.02.319 1.282.16 2.943 1.05 4.02M1144.16 326.377c.759-.438 1.157-1.223.586-2.01a5.929 5.929 0 0 0-.585 2.01M1144.746 321.499c.345.359.691.71 1.05 1.052-.186-.523-.532-.874-1.05-1.052" fill="#c83737" fill-rule="evenodd" stroke="#000" stroke-width=".144"/><path d="M1147.325 302.636c-.758-.106-1.556.25-1.343 1.14.319 1.32 1.821 1.289 2.871 1.54-.16-1.05-.73-1.99-1.528-2.68M1125.125 218.997c1.144 1.41 1.715-.432 2.406-1.35.838-1.09 2.008-2.292 3.523-2 0-1.057-2.845-4.222-3.935-3.609-1.13.631-2.645 2.048-4.014 1.98 1.568-.08 3.363 3.955 2.02 4.979M1185.608 253.638c-1.023.067-2.1-.426-3.057.192a42.4 42.4 0 0 0 13.306 6.7c-1.356-1.68-3.35-2.22-5.17-3.212-.958-.524-2.008-.902-2.872-1.574-.811-.621-1.236-1.683-2.207-2.106M1200.829 258.716c2.499 2.17 6.18 2.905 9.278 3.828-2.565-1.732-6.101-3.768-9.278-3.828M769.659 66.248c.864-.407 1.755-.745 2.579-1.245-2.513-1.682-5.278-2.975-8.322-1.914.213 2.33 4.028 2.74 5.743 3.159M717.112 52.941c.957 0 1.927.067 2.871-.191-1.33-.649-.359-1.987-1.967-2.24-1.835-.286-3.337-1.292-5.118-1.685.984 1.67 2.685 2.975 4.214 4.116M724.583 50.934c1.13-.807 2.06.446 2.804 1.117.918.823 2.287.275 3.217 1.085-1.063.361-2.113-.333-3.15.19 2.246 1.425 4.958 2.085 7.55 2.585 2.672.517 5.131 1.862 7.83 2.29 2.632.415 6.088 1.4 8.72 1.18 1.954-.16-.705-2.325-1.13-2.799 1.728-.053 3.044 1.044 4.68 1.34 1.62.294 3.336-.452 4.89-.765 2.859-.576 6.74-1.828 9.466-.192a4.424 4.424 0 0 0-2.1-.093c1.461.657 3.788 1.387 5.117.47 1.396-.97 4.692.41 6.553-.566-3.363-1.316-7.125-.687-10.501-1.916-1.702-.619-3.523-.898-5.184-1.653-1.595-.734-3.018-2.43-4.892-2.46 1.449-.014 1.422-.141-.133-.382.372.067 3.749.133 1.157-.384 1.222.067 7.59-.194 4.493 2.201 4.572 1.853 9.278 3.546 14.263 3.782 1.276.067 3.456.222 4.373-.929 1.37-1.707-2.579-1.748-3.03-2.661 1.01-.229 1.94-.717 2.964-.862-3.07-.869-6.288-1-9.385-1.729-2.42-.566-5.543-1.945-8.016-1.042-5.862 2.135-12.11-2.139-17.919-2.587 1.024.42 2.074.759 3.071 1.244-1.183-.279-3.124-.953-4.028.287 1.383 1.479 3.443 1.952 5.078 3.063-1.037 0-2.14.233-3.163-.093-1.064-.344-1.795-1.226-2.872-1.53-1.037-.294-2.1.08-3.15-.093-1.037-.176-1.795-.928-2.778-1.244-2.313-.742-4.812-.525-7.125-1.252-.678-.213-6.341-1.856-4.174.296-.36-.265-2.54-1.194-2.087.04.265.728-1.742.397-2.1.711-.493.427 2.884 1.856 3.23 2.025-1.064-.274-2.247-.36-3.164.381.2.316.385.635.585.954M730.604 63.084c2.566 2.216 6.38 1.816 9.292 3.351-.226-2.597-7.417-3.141-9.292-3.351" fill="#c83737" fill-rule="evenodd" stroke="#000" stroke-width=".144"/><path d="M749.467 50.456a20.4 20.4 0 0 0-2.207-.479 2.923 2.923 0 0 0 2.207.479M772.052 70.355a6.178 6.178 0 0 0-2.008.193c1.861 1.5 4.121.217 6.128-.12 2.473-.406 5.078.622 7.484 1.024 5.078.844 10.635 1.356 15.766.912-5.716-3.431-12.177-5.586-18.836-6.216-1.01-.093-5.477-.246-6.368.715-.545.596.638 1.756.532 2.477-.146.985-2.02.894-2.698 1.011M780.759 88.354c-1.755-1.125-4.294-.987-6.222-.479.705.936 1.808 1.03 2.872 1.244-2.393-.685.172-.358.598-.257.957.228 2.18.611 2.752-.508M782.673 87.011a37 37 0 0 1 1.05-.191 2.857 2.857 0 0 0-2.1-.093c.345.093.69.19 1.05.287M787.365 41.456c.465 1.162 4.015.136 4.972.287.133-1.771-4.214-.849-4.972-.287M818.856 58.392c2.486 0 5.862.026 7.843-1.722-1.383-.416-.399-2.052-2.207-1.71-1.954.37-3.708-.312-5.65-.616-1.847-.29-3.854-.59-5.728-.545-2.154.053-3.869.898-5.982-.08-2.18-1.006-6.86-2.563-9.12-1.077-3.31 2.182-5.795-2.258-9.025-1.243 1.303.395 1.808 2.381 3.403 2.998 2.459.956 5.623 1.126 8.228 1.682 5.77 1.233 12.336 2.307 18.238 2.307M822.777 46.335c.346.066.692.133 1.05.191-.478-.757-1.329-1.146-2.206-.86l1.156.669M287.67 17.436c1.476 1.357 4.334.479 6.115.479-3.057-1.477-6.952.283-9.85-1.149 1.023.798 2.499.883 3.735.67M293.891 6.616c-.16.319-.319.636-.478.957 2.658.35 5.663.566 8.228-.383-2.167-1.57-5.317-.394-7.75-.574M359.253 4.794c1.608 1.958 7.444 1.736 9.478.67-2.087-2.145-6.9-.974-9.478-.67M659.686 66.82c-.584-.575-1.382-.918-2.206-.862.585.57 1.382.913 2.206.861M672.222 69.784a34.859 34.859 0 0 1-1.529-1.34c.133.792.718 1.329 1.529 1.34M683.321 69.69c1.436.133 2.872.343 4.32.289-1.422-.246-2.884-.706-4.32-.288M700.934 75.327h.958a2.883 2.883 0 0 0-2.1-.287c.385.093.757.191 1.142.287M704.484 75.819a3.142 3.142 0 0 0-1.915-.383 7.764 7.764 0 0 0 1.915.383M635.28 72.947c-.664-.066-1.236.133-1.727.576 1.01 1.077 2.937.89 3.934-.093a12.448 12.448 0 0 0-2.206-.48M544.835 42.121c1.383 1.018 3.603 1.264 5.264 1.436-1.74-1.077-3.163-1.827-5.264-1.436M554.699 44.235c.73.08 1.462.12 2.193.093a8.92 8.92 0 0 1-2.1-.67c0 .192 0 .384-.133.575M575.755 64.427c0-1.166 3.243-2.549-.16-3.406-2.95-.746-6.3-.402-9.318-.711 1.05 1.167-.585 1.792-1.529 1.627 1.157 2.45 8.827 2.553 11.007 2.49M595.269 62.605c.359.027.704.067 1.063.093a5.559 5.559 0 0 0-1.156-.765c0 .223.133.446.133.67M423.285 48.635c-.346.066-.705.132-1.05.192.398.133.744.067 1.05-.192M436.112 37.056c-1.954.807-4.267.37-6.128 1.436 1.024.58 2.965.195 4.161.4 1.21.206 4.267-.702 1.967-1.836M431.234 41.257c-.359.093-.705.191-1.063.287a5.141 5.141 0 0 0 2.113.289 91.55 91.55 0 0 1-1.05-.576M432.67 45.192c-.32.093-.638.191-.957.287a8.115 8.115 0 0 0 2.193.383 4.222 4.222 0 0 0-1.236-.67M435.062 41.55c-.319-.094-.638-.192-.957-.288.598.578 1.263.673 2.007.287h-1.05M437.548 39.436a4.722 4.722 0 0 0-2.113-.093c.69.398 1.395.43 2.113.093M440.233 41.257c-1.076 0-2.073.51-3.163.383.704.37 3.07 1.015 3.163-.383M444.82 46.52a7.089 7.089 0 0 1-1.144-.765c.758-.517 1.622-.292 2.193.384-.73-3.352-6.819.14-8.8-1.148 1.875 2.011 5.41.634 7.75 1.53M446.441 41.07a2.74 2.74 0 0 0-2.007-.286c.664.154 1.33.25 2.007.287M446.933 45.95c.346-.192.704-.383 1.05-.575-2.805 1.091.85-1.126-1.263-.914-1.023.106-.292 1.274.213 1.488M448.369 42.413a5.306 5.306 0 0 0-2.114-1.244c.24 1.065 1.183 1.238 2.114 1.244M451.426 46.52c-1.037.143-2.02.529-3.057.67 1.036.566 2.392.37 3.057-.67M376.201 13.794c1.09.531 2.127 1.24 3.35 1.449 2.06.352 4.094-.144 6.128.562a16.14 16.14 0 0 1-2.02.287c3.017 1.004 6.54.427 9.384-.861-1.395-2.122-5.104-1.521-7.244-1.557-3.722-.066-7.604-.198-11.326-.452a3.363 3.363 0 0 1 1.728.572" fill="#c83737" fill-rule="evenodd" stroke="#000" stroke-width=".144"/><path d="M376.48 11.587c3.244-.32 7.577-1.414 10.635.192-2.38-.568-4.892-.386-7.285-.094 1.715.343 3.496.343 5.171.862-1.369-.12-2.752-.346-4.107 0 2.791-.08 5.53.647 8.281 1.026 3.323.459 5.703-.45 8.88-.982 2.525-.423 5.224-.535 7.776-.365 1.874.12 5.065.662 6.447-1.02-1.25.107-4.254-1.057-4.493-2.488 1.383.214 3.177.331 4.4-.478-3.735-1.356-7.922-.66-11.565-2.325-3.163-1.442-7.51-2.633-10.926-1.408 1.076.138 2.18.067 3.256.192-5.024 0-9.757 1.906-14.649 2.392.333 1.633 2.646.727 3.736 1.149-.878.3-1.09.965-.386 1.627-1.329 0-2.844-.234-4.014.576 1.435.148 2.898.026 4.307.382-1.98 0-4.865-.845-6.514.67.346.027.705.067 1.05.093M382.13 16.572h1.05c-1.223-.814-2.845-.566-4.214-.671.957.574 2.087.587 3.164.671M385.68 18.58c1.063.106 2.206.36 3.243-.094-1.077-.385-2.154.142-3.244.093M390.65 18.672a6.355 6.355 0 0 0 2.008 0c-.678-.333-1.356-.333-2.007 0" fill="#c83737" fill-rule="evenodd" stroke="#000" stroke-width=".144"/><path d="M398.4 13.794a4.935 4.935 0 0 0-2.1.765c1.064.188 2.14.374 3.15.766-2.791.608-5.343 2.002-8.228 2.106 1.01.258 2.047.52 3.084.655.133.013 6.128-.47 3.23.106.838.303 1.569 0 2.393-.08 1.29-.136 2.087 1 3.15 1.492 2.58 1.19 4.852 1.82 7.67 1.517 1.503-.162 2.62.357 4.042.682 1.701.386 3.722.222 5.463.222 1.489 0 2.964.317 4.413.624.638.136 4.932.487 2.26.811 2.725 0 5.344.186 8.069.067 2.007-.093 5.29.72 6.567-1.404-2.659-1.341-5.81-1.215-8.415-2.681 1.09.04 2.154.565 3.257.193-.625-1.58-2.074-2.437-3.07-3.734.411-.107.823-.197 1.249-.287-3.35-1.913-8.827-3.25-12.549-1.819.785-.093 1.024.347.771 1.053-1.063-.212-2.193-.407-3.257-.093.665 1.302-.996 1.304-1.807 1.245 1.555-.08.69-1.903 1.528-2.68-1.675-.026-3.203-.86-4.878-.86-2.273 0-4.506.528-6.766.5-2.566-.04-6.926-.683-9.226.839" fill="#c83737" fill-rule="evenodd" stroke="#000" stroke-width=".144"/><path d="M434.863 16.186c.545 1.073 1.077 1.008 1.914.289a7.342 7.342 0 0 1-1.914-.289M447.784 27.007l.478.477c-.824.642-1.396 1.547-1.82 2.49 3.588.989 6.433.246 9.902-.68 3.536-.937 6.98-.568 10.555-.59 1.927-.014 4.147-.51 6.155-.644 3.216-.216 6.327-.656 9.185-2.106-1.515-1.425-3.629-2.273-5.65-2.68-.903-.185-1.847.053-2.764-.026-1.356-.12-2.792-1.106-4.135-1.463-1.847-.491-4.679-1.729-6.553-.914-1.17.509-3.044 2.822-4.44 2.305.625-1.413-1.25-2.596 0-3.924-1.143 0-2.246-.467-3.363-.668-.837-.148-4.679.466-2.087 1.338-1.396.04-2.512-.908-3.842-.99-.917-.052-1.103 1.383-2.007 1.66.452 1.228 1.755 1.02 2.778 1.244-.624-.093-1.94.04-2.392.528-.479.52 2.831 1.57 3.163 1.673-.531-.12-3.974-.877-4.094.157-.133.968.718 1.905.93 2.812M489.417 28.722a9.363 9.363 0 0 0 2.02-.766c-1.076-.91-1.993.468-3.163.093.372.223.758.447 1.143.67M499.187 29.878l.958-.575c-2.433-1.51-5.783-.293-8.428-.383 2.353 1.04 5.21-.367 7.47.958M499.852 35.514a4.207 4.207 0 0 0 2.007-.288c-.69-.487-1.422-.55-2.193-.191 0 .16.133.32.186.48M507.03 36.857c.692-.133 1.396-.255 2.1-.383-.956-.6-2.073-.573-3.15-.67 1.37.428 1.41.715.133.86.32.067.638.133.957.193M167.356 118.117c1.156.554 3.19-.295 4.307-.67-1.502-.177-2.965-.04-4.307.67M192.918 48.156c.678.271 1.622-.148 2.193-.479-.717.225-1.448.385-2.193.479M194.832 48.249c.36.027.705-.04 1.05-.193a57.85 57.85 0 0 1-1.05.193M197.318 47c.386 0 .771-.067 1.143-.192-.385.067-.757.133-1.143.191M198.182 113.145c.665.04 1.343 0 2.007.093a2.546 2.546 0 0 0-2.007-.093M200.003 46.149c.758.89 2.247-.14 3.058-.384-1.037.053-2.034.328-3.058.384M205.161 97.925c.292-.265.651-.36 1.063-.287a3.477 3.477 0 0 0-2.113 0c.345.093.704.19 1.05.287M111.95 13.408a3.256 3.256 0 0 0 2.008 0 2.184 2.184 0 0 0-2.007 0M128.5 11.016c.679.27 1.383.333 2.114.192a6.72 6.72 0 0 0-2.113-.192M142.378 10.63c.599.294 1.596-.04 2.1-.382-.77-.29-1.475-.164-2.1.382M146.5 10.537a1.8 1.8 0 0 0 .956-.191c-.319.066-.638.132-.957.191M150.9 10.63c1.076.25 2.259.416 3.349.093-1.117-.106-2.233-.263-3.35-.093M154.82 9.872c.346.08.692.08 1.05 0h-1.05M155.3 4.994c1.435.845 3.934.542 5.263-.382-1.768 0-3.51.25-5.264.382M160.656 5.95c1.569.52 3.882 1.288 5.357.094-1.661-.304-3.775-1.11-5.357-.093M160.75 2.016c.797.29 1.555.226 2.299-.193a7.63 7.63 0 0 0-2.3.193" fill="#c83737" fill-rule="evenodd" stroke="#000" stroke-width=".144"/><path d="M162.477 5.273a2.83 2.83 0 0 0 2.1-.093 15.758 15.758 0 0 0-2.1.093M167.077 9.101a5.125 5.125 0 0 0 1.05-.192c-.346.066-.705.133-1.05.192M177.884 12.358a7.04 7.04 0 0 0 2.113 0 3.457 3.457 0 0 0-2.113 0M182.098 1.923c.718.432 1.449.465 2.206.093-.73-.093-1.475-.12-2.206-.093M184.012 1.352c2.512.394 7.338 2.097 9.478 0-3.004-.736-6.474-.701-9.478 0" fill="#c83737" fill-rule="evenodd" stroke="#000" stroke-width=".144"/><path class="landxx ru" d="M77.11 192.344c-.492.107-1.608 1.067-1.808 1.46-.226.455-.226.634-.585.819-.571.283-.651.35-1.342.35h-1.117c-.319 0-.77.066-1.05-.12-.24-.164-.651-.24-.81-.408-.134-.12-.134-.77 0-.876.292-.291.744-.4.983-.644.186-.175.186-.701.24-.759 0-.066.225-.484.132-.7-.253-.49-.917-.81-1.236-1.284-.306-.477-.745-1.22-1.157-1.635-.319-.309-2.698-.238-3.163-.468-.133-.067-.373.053-.519 0-.372-.12-.758-.188-1.17-.293-.133-.04-.345.067-.465 0-.571-.287-.81-.509-1.223-.934-.133-.107-.306-.067-.412-.174v-.12c-.133-.106-.385-.04-.465-.12-.133-.093-.332-.154-.479-.292-.133-.093-.133-.211-.226-.35-.332-.836-.279-1.675-.824-2.22-.133-.132 0-.417-.226-.525-.252-.12-.252-.502-.359-.7 0-.04-.186-.234-.173-.234.692 0 1.037.984 1.582-.12.186-.376-.305-.707-.412-.817v-1.286c.173-.174.492.395.519.41a9.78 9.78 0 0 0 1.116.466c.32.107.638-.18.984.054.213.14.625.558.77.701 0 .067 3.364.133 3.377.12 0-.04.545-.233.652-.233.438-.555.292-1.344 0-1.869-.24-.362-.293-.822-.585-1.11-.133-.12-1.064 0-1.223 0-.399 0-.904-.053-1.29-.175-.584-.195-1.076.19-1.688-.12-.133-.04-.252.054-.345 0-.333-.166-1.223-1.098-1.53-1.4-.265-.275-.73-.15-.983-.409-.425-.43-1.223-1.154-1.223-1.927 0-.217-.598-.863-.359-1.11.133-.093 1.715.817 2.047.817.173 0 .97.52 1.29.584.665.133 3.536 1.089 3.855 1.402.133.12 1.116.236 1.342.291.506.133.891.383 1.396.585.2.08.519.027.705.12.133.053.292.206.345.232.373.187.825.12 1.17.351.186.12.226.28.293.41 0 .12.478.537.584.642.133.133-.252 1.778-.292 1.985 0 .276.133 1.074 0 1.226-.213.436-.598.987-.399 1.577.133.364.306.514.465.818v.233c.16.329.559.8.878 1.11.412.414.997.502 1.515.76.758.381 1.715 1.42 2.273 1.985.133.12.186.358.293.467.252.249.77.493.997.935.133.281.133 1.382-.133 1.576-.213.22 0 .645-.519.935zm-32.807-1.241c-.385-.253-2.26-.178-2.565-.331-.506-.254-.93-.455-1.649-.743-.718-.285-1.435-.606-1.9-1.073-.134-.066-.267-.013-.333-.08-.319-.319-.705-.892-1.063-1.074a6.228 6.228 0 0 1-1.582-1.156c0-.014-1.821-.362-1.98-.414-.293-.093-1.437-.6-1.65-.494-.199.106-.132.425-.159.578-.359.705-.957 1.341-1.489 2.147-.132.175-.199.08-.332.165-.306.202-.532.514-.824.66-.612.309-1.662.333-2.06.743 0 .054 0 .29-.133.331-.4.403-.133.47-.333.908-.438.894.692 1.405 1.49 1.405.438.317 2.511 1.306 2.565 1.404.16.315.425.53.571.826v.33c.226.33.146-.192.253.248.292 1.158.16 1.805.904 2.56.305.302.704.35 1.156.578.226.107.598-.08.838 0 .2.067.598.521.824.743.252.261.492 1.642.651 1.982.266.525.838.911 1.077 1.404.16.307.252 1.415.332 1.57.133.229.598.76.745.908 0 .066.545.08.664.08.625 0 1.223-.404 1.649-.826.133-.106.133-.339.16-.413.132-.093.518-.358.584-.495.133-.133.133-.648.16-.744.332-.324.611-.923.917-1.073.252-.133.691-.08 1.063-.08.28 0 1.103-.227 1.33 0 .438.446.97 1.295 1.728 1.487.372.093.784.04 1.156.164.412.137.957.107 1.33-.08.504-.252.863-1.831 1.156-2.395.146-.297 0-1.378.24-1.816.278-.564.783-.352 1.235-.578.133-.066.186-.26.253-.33.452-.457-.133-1.702-.332-2.065-.253-.394-1.13-.935-1.49-1.074-.145-.067-.345 0-.491-.08-.186-.093-.479-.401-.665-.578a31.81 31.81 0 0 0-1.316-.743c-.465-.23-1.037-1.678-1.236-1.982-.186-.271-.638-.218-.744-.331-.266-.26-.226-.267-.745-.165zM480.365 32.837c-1.768 0-3.39.368-5.224.67-2.034.334-3.75 2.377-5.903 2.01.585.093 1.17.243 1.742.401-.877.656-1.795 1.213-2.672 1.876.306.332.598.634.93.939-1.94-.56-1.448 1.496.266 1.875.97.213 2.26.322 2.02 1.609-.132.305 2.54.828 5.225 1.205-.558-.053-1.063-.026-1.608 0-1.277.067-3.204-.832-4.294-.535-3.935 1.079-8.189.534-12.19.133 2.792 2.586 7.311 1.305 10.05 4.02-4.959-.338-8.122-2.258-13.134-.938 3.244.58-1.621.532-2.007.67.691.093 1.356.313 2.007.536-1.063.407-2.485.626-3.615.401-1.303-.262-2.207.766-3.483.67-1.25-.093-2.02-1.15-3.35-.67-1.037.374-2.127.678-3.217.805a9.688 9.688 0 0 1 2.007-1.742c-5.556-1.733-11.365.3-17.015-.403.665.318 1.41.402 2.14.403-1.927.775-4.094-.61-5.755.133-1.542.687.585 1.589 1.342 1.474-2.725-.416 1.728-.465 2.406-.401 1.396.133 2.779.138 4.161-.134-3.483 1.694-7.736 1.793-11.525 2.01-4.4.252-8.866.762-13.266 1.205 1.023.941-1.928 1.231-2.818 1.34-.412.053-4.932-.12-2.273.134-2.114-.066-3.124 2.073-4.959 2.68-2.34.777-4.825-.968-7.231-.268.997.92 5.849.106 5.756 1.875-1.09-.093-2.074-.842-3.217-.535 1.954.27-.412 1.276 1.077 2.41-1.715-.604-.97.232-.4.805-2.432 1.24-4.652-2.063-7.098-1.608 2.646.82-1.555.555.532 1.608.625.318 1.449.434 2.14.536 1.436.211 2.845.154 4.294.268-2.738.12 1.103.735 1.608.803.758.107 1.689.21 2.273.805-.598-.027-1.728.987-2.273.535-.398-.348-.837-.66-1.342-.803-1.303-.477-2.552.027-3.882-.134.798.093 1.41.396 2.007.937-.717-.226-1.395-.373-2.153-.401 1.316 1.483 3.51.92 5.237 1.205 2.154.36 4.041 1.402 6.288 1.609h-2.007c.452.562 1.103 1.009 1.741 1.34-1.502 1.135-5.849.12-7.763.267-1.662.12-2.672 1.507-4.16 1.608-1.875.133-3.576-.753-5.49-.402-4.706.857-9.957.804-14.743.804-2.645 0-9.344-.752-11.259 1.608 2.207-.437-.292 1.108-.93 1.473.691 0 3.562 1.308 1.063 1.34 2.566-.145 5.224 1.436 5.902 3.753.745 2.556 3.829 3.447 6.168 3.751 3.018.395 6.301-.08 8.973 1.741 1.024.696 1.595 1.183 2.818 1.742 1.037.476 2.087.977 2.672 2.01-3.03.667-6.221.869-9.239 0-2.419-.696-4.639-1.865-7.098-2.412 2.712.54-.253-.906-.81-1.071-1.21-.355-2.5-.383-3.75-.537-2.366-.295-4.612-1.259-6.965-1.607-2.313-.34-5.051-.317-6.7-.135-1.581.176-3.788 2.492-5.357 1.609-.704 1.818 1.595 1.243 2.54 1.071 1.581-.287 3.389.392 4.293 1.742-2.606 2.026-5.53.093-8.175-.67-2.58-.74-4.865.204-7.378.67 1.582 1.245 2.978 3.007 4.958 3.618 1.383.425 2.779.56 4.161.937 1.901.519 6.54 2.684 8.175.67.28 1.571 1.875.55 2.805 1.206 1.103.768 1.595 2.253 3.217 1.608v1.072c1.396-.285 2.712.106 4.028-.67-1.622 4.846-15.38-4.604-15.553-.536-1.303-2.253-5.025-1.115-7.098-1.34-2.234-.243-5.73-.202-7.365-2.01 2.247.237.585-1.23-.266-1.875-1.847-1.387-1.994-1.763-1.608-4.287.545-3.696-6.102-8.634-9.65-6.834 1.541 1.056 8.201 5.168 4.293 7.1-1.967.967-4.613.505-6.301 2.01-.505.453-.319 1.419-.545 2.01-.319.86-1.077 1.422-1.741 2.01 4.12 1.105 7.51 3.602 11.126 5.762.864.52 3.217 1.486 3.35 2.68.133.747-1.25 2.007-1.476 2.814-.252.942 0 1.873.133 2.812.28 2.575 1.728 2.89 3.483 4.423 1.156 1.008 1.342 3.617 3.084 3.751 2.393.185 5.29-.013 7.643-.536 2.393-.533 3.908-1.442 6.42-.804 2.154.543 4.853.337 6.833 1.072 2.26.834 4.24 1.4 6.567 2.01 2.406.627 2.792 2.448 4.56 3.885.917.751 2.06 1.18 2.818 2.144.638.827-2.247.642-2.42 1.742-.2 1.27 1.104 3.45 2.42 3.617 2.3.29 4.493.792 6.832.938.771.053.771.87 1.609.269.797-.57 1.874.258 2.539.67-4.48-.906-11.964 1.482-15.407-2.815 1.888.55.505-1.012.133-1.875-.452-1.056-.904-2.082-1.476-3.081-1.222-2.145-2.538-2.109-4.679-2.949-1.768-.69-3.296-2.625-4.958-3.081-2.752-.753-6.314.587-8.986 1.206-1.33.308-4.985.154-4.014 2.278.704 1.554.146 2.123 1.874 3.081 2.273 1.262 8.042 5.04 3.483 7.236-2.832 1.365-1.104 3.013-1.609 5.358-.505 2.353-3.522 2.036-5.091 3.216-1.489 1.12-3.576.276-2.818 2.68.279.882-1.13 1.979-2.007 2.01-1.436.052-2.765-.822-4.148-1.072-2.738-.499-5.304-.04-8.042-.269-2.592-.22-5.184-1.038-7.776-1.34-2.686-.313-3.363-2.355-5.623-3.08 2.047-.886 4.44-.067 6.566 0 1.981.066 3.257 1.589 5.358 1.07 2.073-.511 4.067-1.891 6.167-2.142.732-.093 5.291-1.534 2.406-2.144.652-.269 1.33-.409 2.008-.269-.36-.3-.731-.598-1.064-.937 2.313-.961 1.45-4.2 4.826-4.69-.891-.868-.426-2.443-1.476-3.617-.691-.76-.704-.998-.266-2.01.545-1.27 1.755-1.635.266-2.814-.864-.683-2.074-.835-3.084-1.206-1.263-.467-8.614-2.453-7.497-4.956.611-1.386-.824-.995-.678-2.546-.771-1.149-1.396-1.29-1.476-2.814-.132-1.779-3.39-3.205-3.881-4.824-.346-1.155 1.675-1.215.665-2.277-.851-.906-.612-1.288-1.064-2.412-1.914-4.752-8.64-3.1-11.259-7.1.625-.275 1.715-.317 2.14-.94.519-.736-.492-1.456 0-2.01.731-.814.85-2.594.811-3.616-.133-2.567-3.775-5.066-6.035-5.494-1.542-.293-3.204.149-4.692-.402-1.768-.661-3.603-.646-5.49-.535-3.55.207-6.873.852-10.449.267 2.234-.499-.584-.827-1.342-.267-.878.655-1.383 1.733-1.476 2.813-.212 2.554 2.047 6.42.266 8.71-1.342 1.733-3.828 2.72-5.889 3.215-1.608.385-3.39 3.637-.943 3.081-2.194 1.372.97 2.197 2.153 1.876 2.778-.758 2.526 1.486 3.35 3.215.226.472.279 1.969.797 2.279.612.362 1.197.553 1.609 1.205.77 1.205-2.06 1.125-2.54 1.072.333 1.434.333 3.481 2.141 3.885.186-1.893 3.297-.143 4.692.269 1.184.348 3.164 1.038 4.28.134.785 1.047.572 2.26 1.742 3.081.878.608 1.768 1.08 2.685 1.607 1.024.592 2.1 1.448 3.35 1.475 1.05.026 1.954-.807 2.951 0-1.648.162.465 1.012-.146 2.68-.28.793-1.037 1.936-.665 2.814 1.423 3.341-4.705-.744-4.958-.805-4.014-1-7.657-4.02-11.658-4.555-1.768-.238-3.47-.592-5.224-.939-.665-.133-5.782-1.39-3.084-1.34-1.25-.137-5.902-1.936-6.42-.67-.559 1.343-2.446-.6-.412-1.071-3.922-.813-7.59-2.438-11.525-3.216-3.762-.747-7.697-.83-11.512-.938-2.154-.067-4.334-.133-6.434-.669-1.263-.323-2.619-.793-3.749.133a5.642 5.642 0 0 0-.412 1.206c-.345.027-.717.106-1.063.134-.85.493-1.41-.292-2.007.804 1.608.958 3.549 1.771 4.679 3.35 1.077 1.492 2.393.173 3.217 1.474 2.711 4.3-5.623 3.033-6.567 4.422.598.22 2.393 1.3 2.02 2.143-.531 1.2-3.163.412-4.027.268-2.167-.36-4.187-2.822-1.064-3.617-.744-.485-5.397-2.184-2.818-2.413-2.06.338-4.48-.214-6.168 1.34.24.34.519.64.811.939-.16-.067-3.31-1.763-3.084-.536.146.86-.917.93-1.608.937-1.104.014-1.662 1.147-2.685 1.474-.997.32-2.114-.013-3.084-.268-2.965-.775-13.825-1.131-12.855 4.02-1.236.518-2.3-1.528-3.217-1.072-.77.386-2.22 1.571-2.14-.134-1.316 1.618-5.357.993-7.111.67 0-2.26 3.39-.72 4.426-1.876-.372-.618-3.576-3.766-.797-4.02-1.037-.354-2.194-.31-3.217-.67 1.954-.575 4.214.382 6.021-.804-4.04-.146-11.365.552-14.196 4.02 1.236-.066 2.233.666 3.083 1.474-.65.133-3.15 1.945-3.615.937-.426-.918.744-1.436-.545-1.875-1.37-.465-3.124.198-4.28.938-1.223.78-2.938.439-4.294.536-2.566.182-4.68 2.643-6.833 3.216-3.044.81-5.21 2.314-8.574 1.608 1.41.517 2.779 1.567 3.882 2.546-1.223-.714-5.091-1.023-6.288-.135-1.156.846-2.193-.194-3.084.67 1.782.866.758 2.115.4 3.483-.333 1.268 1.714 2.193-.134 3.216-.718.398-2.725.12-3.615.268-1.396.234-3.403.133-4.56 1.072.306-.306.532-.605.81-.938-1.86-.12-4.226.576-5.901-.535-1.183-.787-1.781-2.183-3.084-2.814-1.396-.673-3.443-.212-4.546-1.475-1.37-1.547.77-2.375 2.007-2.68-.133-.35-.28-.72-.399-1.07 3.244-1.132 6.766-.12 10.036-1.072-1.063-2.523-3.895-3.2-6.021-4.556-2.327-1.483-3.802-2.414-6.7-2.68-3.03-.276-6.327.902-9.252.135-1.409-.373-4.36-1.957-5.623-.536 2.3.704 5.171 1.56 7.232 2.813 1.25.752 0 2.613 1.608 2.814-1.436.234-.904.819-.133 1.34-1.635.08-.439.642-.532 1.607-.133.782-.385 1.555-.664 2.278-.373.933-1.183 2.542.133 3.082 1.874.773 3.642.449 5.224 2.144.89.954.332 2.813 1.874 3.215-3.43 1.084-2.06 5.994-.532 7.906-1.262-.996-1.874-2.785-3.629-3.083-.917-.158-2.645 0-2.539 1.34a3.294 3.294 0 0 1-1.076-.67c.571-.546 1.236-.916 2.007-1.071-.346-1.655-3.204-2.086-4.546-2.145-2.114-.093-3.058-.08-5.091-.67-2.008-.587-3.217.817-4.427 2.145-1.489 1.63-3.137 2.07-5.224 2.545-2.114.483-3.323 1.82-5.091 2.947-.97.617-3.802 1.372-3.616 2.949.186 1.515 3.602 3.058 4.692 4.02 1.622 1.428 3.031 3.093 3.882 5.09-1.25-.376-4.12-1.226-5.357-.938-1.888.439-2.699.505-4.56-.267-1.954-.811-4.16-1.397-6.3-1.206-1.343.12-2.925 1.848-3.35 0 .797.067 1.621-.356 2.153-.938-3.19.933-5.317-2.243-8.175-2.814-1.09-.217-3.164-1.312-3.882.134-.784 1.558-.877 2.123-3.083 2.01 1.661 2.252 4.28 3.513 6.42 5.225 1.01.802 2.353.61 3.496.269 1.476-.442 2.433.537 3.749.937-1.077 1.384 3.07 4.49-1.609 4.02-1.276-.133-1.661 1.224-3.483.67-1.927-.583-4-.735-5.902-1.34-1.555-.496-2.366-1.898-3.748-2.68-.731-.419-.665.968-1.476-.134-.345-.45-.784-.787-1.342-.938-1.582-.772-2.5.601-4.015-.134-1.223-.595-2.459-1.45-3.748-1.875.292-.317.518-.616.797-.939-.345-.229-.718-.452-1.063-.67.372-.24.81-.464 1.196-.67-1.356-.093-1.396-1.953-2.805-2.143 1.383-1.536-2.034-2.802-2.818-3.618-.784-.823 3.11-1.845 1.742-3.751 2.725.65-1.476-3.197-2.14-3.617-2.872-1.793-6.753-2.243-10.05-2.413.97-.334 2.579-.147 2.14-1.741-1.21.238-4.001 0-5.224-.269 1.13-.589 2.552-.597 3.749-.267-1.223-1.258-3.204-.17-4.693-.536 1.13.194 2.087-.873 3.217-.402-1.156-.938-2.818-.63-4.147-1.072 2.499.263-1.954-1.64-2.951-1.474.332-.34.638-.574.943-.937-1.688-1.177-3.682-.976-5.503-1.743 1.303.202 2.632-.504 3.895 0 1.343.534 2.99.726 4.413.67-2.858.106 2.885 2.96 3.63 3.216.877.304 2.591-.36 3.203.134.917.728 1.967.835 2.685-.267-.359 1.714 2.06.725 2.951 2.277.133.173 3.39-.353 4.147 0 3.55 1.647 6.94 2.374 10.86 2.545 4.627.202 8.827 1.68 13.4 2.144 4.094.42 7.683-.132 11.645-1.07 3.629-.858 5.862-2.212 8.587-4.69 1.794-1.645 3.828-4.922.532-5.762-.678-.171-1.516-2.282-1.742-2.948-.585-1.68-1.196-1.328-2.552-2.01-1.502-.752-3.11-.548-4.413-1.741-1.17-1.057-2.659-2.049-4.16-2.546.265.339.438.71.677 1.071-3.31.402-7.005-1.52-9.784-3.081.36.278.732.506 1.064.804-3.563-.634-6.354-3.26-9.77-4.288-4.002-1.198-8.056-2.353-11.924-3.886-3.47-1.367-6.5-.378-9.917-.937-1.475-.239-2.938-.9-4.426-.938-1.343-.04-2.832.47-4.148 0 0 .89-.438 1.275-.944 1.608-.903.606-2.233.8-2.818 2.01-.784-1.58 2.034-1.466 2.818-2.01-.717-.22-1.927-.678-.132-.938-1.356-.27-.918-.434 0-.937-1.104-1.306-2.978-.642-4.148.133.24-.338.465-.575.665-.938-1.13-.026-2.233-.436-3.35-.535-.492-.04-.89.12-1.343.267.186-.053.346-.214.545-.267-1.223-.638-2.485-.964-3.761-1.475.132-.357.292-.658.545-.938 1.09 1.324 7.138 2.882 7.497.269-1.649-.708-3.43-.357-5.091-1.206-1.13-.574-2.858-1.437-4.148-.939.32.287.612.519.93.805-.558.066-1.98-.185-2.14.67-.132.538-1.515 1.281-1.874 1.071-1.223-.7-3.057-.816-4.426-1.071.983.696 1.528 1.884 0 2.278-1.556.404-3.031-.34-4.414-.939 1.21 2.741-2.937 2.752-4.56 3.082-1.887.38-.544 1.314-1.608 2.278-1.448 1.299-3.987 1.373-5.769 2.01 1.05.137 3.935.371 2.154 2.01-1.542 1.452-1.303 2.811.531 4.018 1.782 1.168 4.002 1.209 5.756 2.413 1.383.945 3.908 1.969 4.959 3.216 2.352 2.765-7.657 4.965-4.547 8.842 2.991 3.749 7.458 6.147 9.106 10.987-1.01.053-1.954.357-2.951.535 1.303.367.598 2.36 0 3.35-.558.935 1.436 1.2 1.741 1.876-2.073.445-1.661 2.765.133 3.35 1.197.387 2.526-.333 3.217 1.071-3.669 1.658 1.622 3.553 3.084 4.288 3.257 1.629-1.701 4.729-3.217 5.493 3.948 2.196 7.963 4.267 11.791 6.565 1.609.959 2.247 1.331 1.476 3.082-.891 2.042-1.502 3.432-3.35 4.824-3.961 2.995-7.032 6.864-10.847 10.048-3.696 3.076-8.348 5.05-11.658 8.575 1.874.027 2.805 0 4.413-1.071.612-.4 2.114-1.283 2.818-.536-.957.561-.239 1.683 0 2.411a32.948 32.948 0 0 1-2.007-1.071c1.143 1.272 3.895 3.447 5.49 4.018 2.286.815 4.187-.735 6.434.805.133.066 4.719 2.545 2.685 2.545-2.233 0-4.294-1.409-6.567-1.473-1.98-.053-2.392 2.16-4.16 2.277-.997.067-2.274-1.346-2.951 0-.2.402-.24 1.07-.798 1.072-.944 0-2.738-1.852-2.406 0 .146.875.944 1.24.266 2.144.664.258 1.342.618 1.608 1.34-2.286-.027-2.14 1.6-2.95 3.216-.586 1.159-2.314 1.662-2.274 3.08 0 1.42 1.196 2.594.93 4.02-.159.82-.345 1.642.4 2.279.917.776 1.595 2.936 2.685 3.081-2.845 2.25-4.36 3.619-.133 5.493 1.834.814 1.21 3.96.133 5.36 2.113-.257 3.868 2.613 4.825 4.287.359.636.784 4.947 2.007 4.422 2.114-.908 3.177 1.143 5.357.67 1.024-.222 2.247-.315 3.217.133 1.037.479.532 1.15.665 2.01.359 2.13 5.702-1.094 7.111-.67.864.263 6.235 2.632 6.288 3.35.133 1.485-.558 2.172.412 3.618.479.717 1.117 2.158.133 2.813-1.715 1.138 2.579 4.069 3.35 5.36.784 1.336 1.635 2.791 3.084 3.484 1.05.506 2.871.304 3.203 1.741.213.858-1.236 2.571.811 2.144 1.45-.303 1.928-.08 3.35.268 2.446.607.306.801 1.609 1.74.837.6 2.512 1.183 2.818 2.28.199.748-3.948 3.14-4.826 3.215-2.459.213-4.426-2.261-6.832-.269-1.157.955.638 2.244 1.329 2.814 1.396 1.132.917 1.191 1.21 2.815.452 2.434 1.156 5.011 3.748 5.895 2.1.712 3.908-.412 3.762-2.68 2.42.169 3.815 1.073 6.155.134 2.14-.856 3.642.644 5.49-.134 1.954-.821 3.296 2.053 3.895 3.35.638 1.39 2.725 1.56 3.35 2.947-.851.526-2.14.186-2.686 1.206-.266.5 2.965 3.413 1.476 4.288 1.263.42 4.373 1.43 5.623.803 1.98-.988 2.818 1.71 4.692 1.608-.558 1.052 1.064 4.134 1.476 5.226.704 1.836 2.1 2.729 3.881 1.741 1.635-.898 2.54.218 3.895.939.186.106 2.725 1.21 2.805 1.205 2.3-.106 4.373-2.539 6.965-2.278 1.502.151 2.22 2.386 3.084 3.35.957 1.062 2.606 1.11 3.217 2.545 2.233-1.285 1.183-2.22 3.882-.804 1.409.734 5.277 2.298 6.434.939 1.01 1.999 2.485.79 3.615 2.144.811.953 2.127 1.418 3.35 1.34.85-.054 1.037-.738 2.02-.269-1.475 1.404 2.034 4.524-1.342 5.896-.877.354-1.622.44-.944 1.607.877 1.5 2.22-.561 2.42 1.474-1.144-.34-3.058.71-2.42 2.144.226.49 3.749 1.715 1.874 3.081.4.322.851.4 1.343.269.253 1.208-.625 5.102-2.007 5.225-1.462.133-3.124-.418-4.56-.134-1.25.25-2.632-.816-3.482.67-.413.743-.878 1.36-1.742 1.607-1.688.488-3.602 3.46-1.475 3.886-1.383 1.213-.213 2.38 1.21 1.742.358-.16.624-.348.943-.535-.186.174-.439.428-.545.668 1.821.208 3.496-1.034 5.224-1.338 2.207-.385 1.21 2.004 2.951 1.472-1.342 1.18-3.762 2.546-5.756 2.815-4.014.538-1.01.659-1.475 2.545-1.223.08-2.114-.642-3.35-.268-1.13.336-2.047.747-3.217.268.864 2.761 2.42 2.277 4.427 3.484.784.476 3.788 2.14 3.483 3.349-.984.066-2.021-1.472-2.952-1.072-.797.343-.704 2.171-1.21 2.814-.132-.636-.278-1.236-.398-1.875-1.196.748-1.263 5.781-3.217 4.555-.133.641.439 3.272 1.077.937.133.983.93 1.927.399 2.949-.692-.206-5.092-.677-4.693.133-1.329-1.085-4.04-2.849-4.692-.536.306-.247.611-.47.944-.67 0 .803.531 1.34 1.342 1.34-.877.512-1.98.677-2.42 1.743 2.713 1.192 5.517.797 7.232 3.617.864 1.398 5.278 2.552 3.895.804 1.98.554 2.951 2.793 4.693 3.751 1.874 1.042 4.094 1.342 6.021 2.412 4.413 2.444 7.298 6.86 11.791 9.11-.213-4.595 10.036-.368 12.057.536 1.621.72 3.35 1.207 5.09 1.474 1.636.25 2.886-.33 4.427-.268 1.104.04 1.941.763 3.084.804 1.037.04 2.167-.093 3.084.536 1.117.763 8.867 4.022 7.763 5.225 2.952 2.187 7.803-3.698 9.784.403.146-2.128 3.257-1.366 4.147-.268 1.516 1.862 2.46.365 4.294 1.34 1.17.626.293 2.19.399 3.215.133 1.021 2.42 1.825 3.217 2.144 3.017 1.207 6.553 1.453 8.84 3.752.983.986 1.807 1.403 2.95 2.01 1.224.647 1.21 2.344 2.553 2.946 1.09.498 3.35 1.487 4.546.939.665-.304 1.21-1.96 1.741-2.546 1.09-1.19 2.393-2.059 3.217-3.484.878-1.51-.412-1.846-1.475-2.947-1.236-1.279-2.1-2.823-3.483-4.02-1.196-1.043-2.752-1.984-3.616-3.35-.917-1.468-1.382-2.93-2.95-3.885-1.117-.68-.758-3.037.132-3.751-2.432-.436-.877-5.151-.133-6.431-1.794-1.12-1.621 2.769-1.462 3.75-1.741-.257-.478-1.122-.545-2.276-.133-1.214-.944-2.276-1.608-3.216-1.104-1.564-1.915-2.322-3.616-3.217-1.263-.668-3.51-1.072-3.35-2.947.133-1.309 2.938-2.367 1.874-3.75.24.337.532.636.811.936 1.05-3.657 4.227-7.033 1.197-10.45 1.236 0 1.847 1.24 2.419 2.143-.266-.82-.346-1.825-1.077-2.41 1.117.313 2.074 1.077 3.084 1.606-.412-2.124 1.556-.668 2.818-1.338.612-.33.918-1.024 1.742-.939-1.649-2.05 2.645-.367 3.084-.134.133-.814-.28-1.202-1.077-1.206.479-.674.346-1.294-.532-1.474.678-.347 1.356-.278 2.007.134 0-1.305 1.503-1.31 2.274-.804-.133-.665-.2-1.334-.266-2.01.359.186.718.34 1.076.537-.319-1.964-8.042-3.771-7.51-4.824.691-1.34 4.666.892 4.16-.938-.372-1.307-1.953-2.389-2.817-3.349-2.938-3.233-4.945-7.049-9.518-7.905-1.117-.21-3.443-.722-4.28.401-.984 1.32-2.353-2.371-2.952-2.947.32-.226.625-.449.944-.67-1.396-1.256-1.156-2.15-3.217-2.68-1.143-.292-2.565-.635-3.217-1.74-1.21-2.061.386-5.103 2.008-6.299 2.233-1.659-1.861-3.065-2.14-4.556-.625-3.238.132-4.475 2.406-6.162 1.435-1.032-1.396-4.997 2.14-4.957 3.07.04 5.17 5.069 7.776 6.297 1.37.642 3.416-.198 4.427-1.206.85-.859-.545-1.68-.944-2.413-.731-1.333-1.29-4.566-2.951-5.09 2.326.61 4.453-.515 6.3-2.01.665-.539-.398-1.613-.265-2.278.2-1.03 1.701-.67 2.406-.67 1.276 0 1.688-1.286 2.818-1.608 1.037-.297 2.353-.233 2.95-1.34.918-1.71.2-3.577 2.673-2.411-.253-.637-.412-1.374-.665-2.01 1.489.317 5.118.602 5.49 2.144.572 2.314 2.313-.53 3.35 1.206.518-.64.505-1.904 1.343-2.278 1.17-.527 2.233-.511 3.482-1.207 1.476 4.746 5.73 2.77 9.385 3.217 2.114.26 2.38 2.243 4.015 2.947 1.475.633 2.725.232 3.881 1.608.85.998 4.148 2.28 4.028 2.948-.173.938 0 2.298.797 2.947 1.303 1.111 1.622-1.353 1.21-2.143-.545-1.01-1.648-1.86-2.007-2.948 1.701-1.174 4.134 1.119 5.357 2.01 1.33.973 3.323 1.17 4.413 2.144 1.316 1.163 3.868.674 4.427-1.34.399-1.44 2.512-1.788 2.406-3.35.757.04 1.422.34 2.02.804 0-1.294 4.095-1.623 4.414-.804.319.798 2.166 1.775 2.95 2.01.878.263 1.317-.84 2.274-.402-.133-4.397 1.037-.491 3.482-2.278 1.941-1.41 3.563 1.546 4.294 2.68 1.037 1.594 3.47 1.98 5.224 2.144.731.067 4.72.306 3.749 1.876 1.103-.08 2.818-.317 2.95-1.743.134-.677-.145-1.918.812-2.143.864-.209 1.701 1.03 2.273 1.473.85.653 2.193.752 3.217.804 1.422.067 6.806-.577 6.832-2.545 0-1.166-1.502-3.914.532-4.153-1.9-.629-2.273-1.922-4.56-2.144-1.767-.172-2.392-1.516-3.881-1.876-1.768-.428-2.831.208-4.015-1.474-.717-1.018-4.413-.689-4.426-2.144 0 0 3.363-1.909 3.616-2.01.997-.388 1.701-.04 2.552-.803.505-.456.997-1.15 1.608-1.474-.585-.375-4.2-3.95-4.027-4.287.438-.822 2.326-1.682 1.342-2.814 1.064-.12 2.566-.325 3.616-.269.837.04 1.555.537 2.42.537.478 0 5.383-.19 2.937-1.608-2.406-1.404-5.065-1.292-7.63-2.01-3.709-1.038 1.342-1.84 1.741-2.411-.731-1.084-1.515-.665-2.552-.536-1.103.138-2.406-.562-3.35-1.073 3.257-.268.678-2.447-.266-3.215.652-.12 1.25-.054 1.874.134-.598-2.19 4.414-.295 5.238-.134 1.236.244 2.246-.803 3.483-.803 1.262 0 1.621 1.255 2.804 1.338-.584-3.627 4.148-.857 4.294-2.545.133-1.629 5.676-.742 6.833-1.072.133-.316.146-.615.265-.938.559.08 1.21.04 1.742-.133 1.422-.192 2.3-.532 3.748-.269.958.175 1.689-.822 2.553 0 1.103 1.062 1.076-.569 1.063-1.205 0-2.587 8.64-2.21 10.728-2.68 2.313-.524 4.493-.883 6.832-1.34 1.768-.347 5.277-1.16 6.434-2.546-2.06-.368-.346-1.08.133-1.34.93-.509 2.565-.238 2.007-1.875.784.223 1.595.23 2.406.134-.28-.324-.638-.625-.93-.938 1.25.066 2.738 1.269 3.615.535 1.263.181 2.58.225 3.749.804 1.183.588 4.373 2.614 5.623 1.34 1.675-1.692 2.831-1.599 4.958.135 1.223.991 1.276 2.516 2.286 3.617.785.858 1.808 1.216 2.805 1.742-1.263 1.32 2.074 4.213-.664 4.422 1.688 2.083 3.163.767 4.825 1.607.984.504 1.808-.477 2.406-1.072.611-.606 2.246.391 3.084.269-.731-.367-1.13-1.056-.93-1.876 1.395.621 2.392 2.447 4.014 2.546-1.343.997.133 1.402.665 2.678.545-.586 1.222-.95 2.007-.937-.426-.662-1.236-1.026-2.007-.67 1.409-3.964 7.922 4.27 9.65-.401.705.558 1.343 1.342 1.343 2.277-1.316-.182-3.59.72-3.084 2.411.385 1.267 2.127 1.14 2.539 2.413 1.05-.97 2.91-3.236 4.56-1.877.863.704 1.461-.338 2.286.403.505.46.69.933 1.462.937-.16-2.626 1.29-2.883 3.35-3.617.983-.347 3.934-1.493 2.685-2.947 1.608-.141 3.084-.686 4.56-1.34.159-.08 1.754-1.492 1.874-1.474 1.542.223 2.964-.794 4.413-1.34-.266.335-.572.704-.798 1.071 1.356.35.904 1.482.266 2.279-.425.522-1.568.026-2.14.401 4.453 3.382 9.704 5.195 14.463 8.04 4.426 2.638 7.922 6.166 11.658 9.646 3.868 3.605 7.962 7.07 11.79 10.718 2.406 2.288 5.903 7.71 9.252 8.441-1.262-1.332 1.01-.654 1.875-2.277.598-1.143-.705-1.531-.266-2.68.146-.39 2.06-.812 2.273-.804 1.05.027 1.662 1.16 2.552 1.073 1.821-.185.758 1.082 1.064 2.143.252.868 1.674.372 2.286.403 1.103.053 1.768 1.665 2.539 2.277 1.063.838 2.924-.311 4.16-.135 1.01.147 1.463.914 2.54.403.505-.254 1.05-.308 1.608-.268 1.542-.04 1.834-1.413 2.951-1.608 1.489-.26.93.04 2.007-1.072.36-.374 1.037-.208 1.476-.135 4.227.709 8.547 3.515 10.847 6.969 1.768 2.665 6.314 1.278 8.175 3.482 1.276 1.508 2.207 3.292 3.749 4.556 1.502 1.228 5.237.828 7.098 1.073.904.12 2.5 1.643 3.084-.269.2-.635 1.01-1.313 1.475-1.741.878-.794 1.875-.499 1.476.804-.518 1.683 1.33 1.299 2.273 2.009 1.21.898 1.994 2.62 3.63 2.814 1.647.198 1.408 1.268 2.671 1.741 1.701.635 5.77-.732 5.902-2.679.133-1.527 1.33-2.112 2.805-1.876 1.263.199 2.858 1.431 2.685-.402.944.402 2.153.859 3.084.134-.186-.323-.479-.623-.678-.938 1.542-.243 2.712-.67 4.16-1.206-.77-.462-1.196-1.32-1.475-2.144 1.143-.803 2.898-.066 2.672-1.741 0-.309 2.406-1.242 2.685-1.34 1.143-.41 1.941-.133 2.818-1.072.771-.84 1.423-1.515 2.54-1.875 1.7-.545 2.06-.137 3.083-1.743.492-.758 1.183-.872 2.008-.937 1.13-.093 3.841.013 2.95-1.876 2.008-.04 2.58 2.816 4.693 1.34 1.848-1.297 1.143.826 2.539 1.34 3.15 1.158 7.218-.623 10.448.67 1.688.67 2.632 2.284 3.895 3.483 1.662 1.584 3.802 2.333 6.022 2.68.784.12 5.224 1.455 5.769 1.071 1.29-.905 2.326-1.256 3.881-1.071 2.393.295 4.666 1.063 7.099 1.34 1.754.198 3.921 1.7 5.636 1.34 1.515-.322 1.728-1.94 3.35-2.145 1.701-.216 2.074-2.524 1.874-3.885-.319-2.089-1.103-2.357-2.818-3.082-1.675-.71-1.861-2.727-3.35-3.484-1.595-.812-3.695-7.26-.797-6.296-.825-1.727-.599-2.904 1.329-3.485 1.396-.418.93-2.924.678-3.885 3.576 1.12 6.979 2.628 10.581 3.753 3.775 1.179 7.617 1.094 11.392 2.545 2.964 1.14 5.995 1.178 9.106 1.742 2.685.49 3.682 3.985 5.224 5.895.797.984 1.86 1.598 2.552 2.68.705 1.103 1.994 1.069 2.938 1.875.944.791 2.964 1.362 4.16 1.475 1.662.156 2.167.83 3.616 1.34 5.171 1.833 10.076-1.278 15.008-2.413 2.552-.588 5.955-.297 8.441.537 2.047.687 3.336 0 5.357.267 1.848.238 3.337 1.686 4.825 2.68 1.888 1.263 3.67 1.417 5.89 1.474 2.565.067 3.043.667 4.559 2.546 1.143 1.418 2.698 1.82 4.16 2.813 3.948 2.691 7.657.995 11.924 2.412 2.752.913 5.33.746 8.175.803 1.609.027 3.403.883 4.945.134.917-.44 1.529-1.159 2.42-1.607.983-.493 2.18-.146 3.216-.67 1.423-.72 4.015-.678 5.623-1.072 1.782-.438 4.055.724 4.959-1.473.624-1.533.77-2.646 2.14-3.753 3.602-2.885 7.35-4.638 11.79-2.277 2.167 1.148 3.842 2.597 6.301 3.081 2.114.416 3.324-.954 5.357-1.205 2.58-.317 4.095 1.224 6.168 2.411 1.875 1.073 4.081 1.248 6.168 1.608 1.582.276 4.826 2.143 6.155.67 1.103-1.21 1.715-3.146 3.35-3.75 1.116-.414 5.915-.837 4.825-2.95-.545-1.061-2.911-1.333-3.084-2.142-.306-1.397-.173-2.4.133-3.753.226-.954-.864-1.621-.399-2.545.412-.835.346-1.924.266-2.813-.133-1.626-1.023-3.78-.399-5.36.838-2.139 2.912-2.1 2.008-4.69-.519-1.499-2.553-2.565-3.35-4.154-.678-1.35-2.858-1.555-4.148-1.472-1.9.12-2.485-.197-3.762-1.609 3.204-1.08 1.848-5.429 5.637-5.761 3.669-.324 7.018-2.385 10.714-2.01 4.2.427 8.64-1.624 12.602.536.917.506 2.007.339 2.937.804.838.419 1.582 1.057 2.42 1.474 1.635.819 3.589.505 5.224 1.34 0-1.703 1.86-1.05 2.818-.67 1.05.422 4.04.912 4.546 1.742.798 1.298 2.938 1.682 4.294 2.41 1.143.619 1.13.557 1.608 1.61.439.982 1.795.877 2.539 1.473 1.542 1.231 3.243 2.16 4.825 3.35 1.529 1.154 1.795 2.888 3.483 4.019 1.183.788 2.778 2.762 4.028 3.215.917.334 2.778 2.029 3.336 2.814 2.433 3.383 7.125 4.624 9.252 8.173 1.223 2.042 2.06 2.347 4.015 3.484 1.103.634 1.449 2.798 2.419 3.751 1.529 1.514 3.244 2.849 5.357 3.35 2.273.538 3.39.29 5.623.134 1.622-.106 2.472.14 3.895 1.072 1.595 1.051 3.51.904 5.224 1.608-1.436-2.55 2.06.606 2.273.67 1.356.408 2.074.448 3.217 1.473 2.007 1.8 4.493 3.177 7.231 2.948 3.842-.319 1.223 2.184 3.616 3.483 2.18 1.18 4.107 2.244 4.028 4.824 0 1.437 5.849 5.33 7.231 5.091.838-.145 2.42-.878 3.217-.267.93.72 1.33.687 2.539.536 1.569-.196 6.567.282 6.567-1.743 0-2.851 3.589-3.686 5.769-2.813-.253-.093 2.246-2.095 2.539-2.278 1.688-1.063 3.815-1.493 5.636-.536 1.303.688 1.569.213 1.741 1.742.133.935.466 1.702 1.064 2.412 1.103 1.288 2.672 1.739 3.084 3.483.571 2.417-1.05 1.502-1.875 3.216-.518 1.06.572 1.722.944 2.545.333.76.186 1.622.399 2.413.292 1.13 1.037 1.951 1.343 3.081.16.646-.133 1.551.265 2.144.612.961 2.486 2.44.4 3.483 1.953 1.428-.36 2.22.398 3.886.425.918 1.728 2.084.266 2.814-1.821.916 0 3.023.545 4.154 1.475 2.813-5.57.64-6.434.401-1.316-.364-4.32-2-5.623-1.741-.651.133-1.143 2.406-1.475 2.947-.838 1.364-2.008 1.043-3.217 1.474-.944.332 2.1 2.867 2.406 3.216 2.685 3.017 4.812 6.149 6.567 9.78 1.488 3.083 4.027 4.343 4.014 8.039 0 .646.572 2.066-.532 2.144-1.661.12-3.177-.013-4.147 1.741 2.38.66 3.855 2.912 5.357 4.824.252-2.121-.439-3.06-2.286-4.02 1.09-1.124 3.828 0 4.958.536.252-1.018.492-3.396-.399-3.885 2.579.436-.253-4.481 2.286-4.287 1.915.146.147 2.833 2.008 2.814.757 0 1.741-2.184 1.608-2.814.452.54 2.606 4.846 3.07 4.555.958-.589 2.58.725 3.763.67.319-.013 3.443.832 3.615 1.072.918 1.326 1.928.578 3.084 0 3.749-1.887 6.62-3.787 9.638-6.833 1.09-1.087 3.828-5.596 1.874-6.565 1.223-.735.598-2.752.81-3.886.267-1.454.2-1.338 1.343-2.278.93-.77-.93-3.062.665-3.216.558-.053.519-2.206.678-2.68.439-1.346.133-2.226.93-3.482.625-.952.97-1.819 1.476-2.815 1.196-2.347 2.34-6.223 1.608-8.842-.319-1.151.16-1.425.133-2.411-.239-.519-.452-1.08-.664-1.609-.346-1.44-.957-3.728-.133-5.09 1.755-2.941-.811-6.09.664-9.112 1.25-2.568 3.51-4.743 1.609-7.502-.744-1.084-1.117-4.73-2.685-4.155.97-.385-.28-2.71-1.197-2.948.452-1.187 0-2.601-.678-3.617-1.316-2.135-3.974-2.673-2.538-5.493-2.194.72-5.504-4.59-6.434-6.03-.878-1.352-.492-3.334-1.476-4.555-.718-.897-2.964-2.66-1.21-3.751-1.063-.225-1.874-2.197-.93-2.948 1.024-.822-.359-2.357.93-3.216-2.405-.642-.584-2.86-2.804-3.35-1.29-.28-4.041-.92-4.16-2.545-.333-4.438-6.647-4.95-9.652-7.101 1.675-.314 3.496.865 4.959 1.474-.24-2.522.611.324.943-.939.612-2.358-5.237-3.174-6.167-3.617-1.755-.835-3.177-2.01-5.092-2.68-1.555-.547-3.15-1.1-4.546-2.01-2.393-1.545-5.915-5.285-9.119-4.956-1.794.183-2.778 1.208-4.692.67-1.356-.383-3.11-1.178-4.546-.805 1.488.249 1.289 1.514 2.14 2.412.917.966 1.223.9 1.874 2.144 1.21 2.325 2.233 3.537-.665 4.154.213-1.068.692-4.71-.943-4.958-1.609-.245-.147 2.476-1.609 3.484-1.382.955-4.6 1.866-6.154 1.071-.44-.222 1.023-3.974 1.608-4.421-1.914-.47-4.626-.233-6.035-1.876 1.33.12 1.675-1.29 1.874-2.278-1.196.35-4.373-.08-3.482 2.144.438 1.095 1.488.41 2.14 1.073.478.48.531 1.393.678 2.008-1.702.331-4.121 1.537-4.826-.937-.359-1.219-.85-2.185-1.608-3.215-.332-.458-1.688-1.315-1.742-1.876-.279-2.889-4.333-2.579-6.3-2.413-2.845.24-5.171-.12-7.91-.937-1.9-.573-5.65-2.145-2.539-4.555.984-.76 2.167-1.146 2.818-2.279.452-.807-.132-1.957.532-2.678.572-.689 1.635-.552 2.007-1.475.36-.898 1.303-1.774 2.008-2.41 1.329-1.19.545-5.248 2.818-5.36-1.01-.442-1.728-.958-1.476-2.145.2-.917-.266-2.875.4-3.482.983-.888.876-2.35 1.873-3.217.984-.846 1.702-1.2 2.154-2.546.345-1.06-.266-2.546 1.33-2.678 1.554-.133 1.448-.948.81-2.01-.651-1.082-1.848-2.838-1.476-4.154.426-1.49 2.566-1.832 3.35-3.082.93-1.474-.266-3.065.266-4.555.691-1.917 2.699-2.426 4.427-2.949 1.568-.475 2.565-.093 4.147-.267 1.755-.185 3.004-.752 4.825-.535 4.135.491 8.215-.492 12.323-.135 1.635.143 1.888 1.151 3.084 2.01 1.29.921 2.685-.155 4.028.402-3.616-4.004.704-1.655 3.07-1.876 1.53-.142 3.31.154 4.693.804 1.183.557 2.153-.453 3.217.267-.24-.337-.466-.708-.665-1.071 2.26-.766 4.267-.655 6.155.804 1.09.834 2.751-.308 4.027.402-.611-1.68-4.04-.863-3.748-2.947.944.53 2.073.133 3.07.267-1.25-.521-3.017-1.08-1.329-2.277 2.02-1.443 5.57.053 7.763.535.665.148 9.013 3.374 7.91.939 2.99-.55 5.676.843 8.175 2.277 1.874 1.08 4.267.311 5.888 1.608-1.143.944-2.804.57-4.147.536-1.396-.04-2.645.586-4.028.67 3.19 2.192 6.447 2.341 10.183 2.01-.226-.318-.452-.617-.665-.938 1.622-.61 5.849.093 7.364.938-1.462-.921-.545-1.763.412-2.547 1.157-.958.665-.965 2.672-.536.758.161 7.564 2.377 5.637 0 2.326-.589 3.868 1.38 6.287-.535-1.9-.536-6.713-5.107-8.973-2.546.333.251.705.475 1.077.67-.944-.403-1.98-.15-2.951-.401-1.063-.276-1.888-2.578-.133-1.609-.744-.336-5.144-3.557-2.286-3.081-.878-1.01-1.396-2.396-1.33-3.751.133-1.7 1.09-1.726 2.008-2.815.505-.603 1.316-1.826 1.063-2.545-.372-1.082-2.02-3.603-.266-4.556 1.436-.775-.917-2.287-1.475-2.947 1.542-.364.93-2.95 2.95-2.278 0-.351 0-.72-.132-1.072 1.595.183 3.257.314 4.825.67.878.2 2.446-.68 3.483-.67 1.449.014 2.605-.906 4.014-1.072 1.423-.166 2.606.985 3.895 1.34 1.343.37 1.914 2.125 3.07.134.705-1.208 1.543-2.215 2.952-1.071.904.728 1.728 2.059 2.286 3.08.492.917-.81 1.289.665 1.876-1.157 0 2.433 1.67-.532.939 1.33.79 2.619 1.616 3.483 2.947 1.183 1.83 1.821-.766 3.616-.134 1.528.538.837 2.342 1.741 2.68.97.362.89 1.512 1.874 2.01.599-1.412 2.034-2.115 3.483-1.475-1.834-1.922.944-4.494.944-6.565 0-2.514 1.927-3.21 3.881-2.679-2.432-.717.253-1.055 1.077-.67.984.466 1.768 1.243 2.805 1.608-.213-.309-.359-.608-.532-.938.32-.168.612-.252.93-.402-1.541-1.584-3.801-1.109-5.356-3.082-.771-.975-4.254-3.001-2.672-4.287-1.143-.106-2.38-.574-2.818-1.742 3.044-.946 6.78-2.503 9.916-1.072 3.19 1.453 6.66 1.34 10.05 1.876-1.356.323-2.659-.134-4.028-.134.904.675 1.98.945 2.951 1.474-1.595-.693-5.583-2.495-7.231-1.34-2.845 1.987.957 4.563 2.539 5.761 1.355 1.025 1.422 1.912 2.02 3.35.758 1.853 2.46 1.118 3.749 2.144 1.621 1.301.133 1.327.399 2.813.265 1.384 1.834 1.602 2.95 1.875-.372.152-1.528 1.651-1.874 1.475-.797-.398-2.047-.525-2.818 0-.465.316-.345 1.232-.797 1.608-1.05.841-2.234 1.413-3.35 2.143.571.877 1.754 1.244 2.14 2.278.266.743-1.064 1.485-1.21 2.144-.292 1.318.372 2.49-.399 3.752-.757 1.223-1.887.026-1.342 1.875.625 2.135-2.02 3.983.133 5.896 1.595 1.409-.439 3.392 1.21 4.69-1.516-.916-.811 0-1.343.937a29.61 29.61 0 0 1-1.077 1.741c-.598.895-1.183 2.023.28 2.413-1.636-.794-3.444.57-5.092-.269-.385.657.558 2.33-.28 2.68-1.342.568-3.083-.754-4.545-.401.983 1.712 3.137 2.347 4.546 3.617 1.236 1.104 1.13 2.913 2.153 4.154-1.382-.503-1.675 2.642-1.608 3.885-.572-2.24-.492.237-.266.803.399 1.01 1.103 1.81 1.741 2.68 1.33 1.813 2.62 3.735 4.015 5.494 3.695 4.644 7.258 8.707 11.79 12.594 5.291 4.54 10.635 9.135 15.806 13.8 3.27 2.94 8.282 10.274 13.133 10.317-1.94.198 0 1.16.811 1.876.864.818 1.768 1.495 2.672 2.278 1.821 1.573 3.55 3.237 5.091 5.091 1.37 1.642 2.712 3.413 4.56 4.556 1.595.983 3.642 1.65 4.28 3.617 1.223-1.272 1.502-2.86 2.42-4.287.624-.98-.466-1.31.398-2.279 2.14-2.36.918-5.926-.266-8.574-.505-1.13-1.82-1.677-2.685-2.545-.611-.632-.359-1.283-.93-1.877-.572-.59-1.25-2.283-2.007-2.412-.798-.134-1.649 0-1.742-1.07 1.157-.505 2.167.525 2.938 1.205 1.01-1.213 2.845-3.484 4.692-3.484.825 0 1.476-.7 2.008.268.452.803 1.874 1.086 2.685 1.206-1.183-2.176-3.775-2.866-5.623-4.287 2.273 1.114-2.393-2.636-2.818-3.216-1.104-1.494-2.845-3.298-1.476-5.092 1.223-1.603 1.29-3.78 3.882-3.617 1.25.08 2.246 1.184 3.483 1.071.943-.08 1.887-.425 2.818-.133-.226-.995.864-2.317.133-3.215-.931-1.153-2.62-1.832-3.882-2.547-2.42-1.373-4.772-2.628-6.7-4.689-1.675-1.784-2.22-3.817-3.35-5.895-.863-1.593 2.845-3.232-.677-3.886.372-1.188 1.701-1.422 2.685-.804-.213-.882.957-1.204 1.077-.401.159 1.114-1.223 1.115-.413 2.411.878 1.388 4.454 3.464 5.637 1.607 1.17-1.833-5.264-6.366-7.099-6.698-2.074-.375-2.738-.001-4.56-1.609-1.209-1.064-2.232-2.205-3.482-3.215-.638-.507-1.94-1.266-1.741-2.277.292-1.49 1.063-2.176-.266-3.484-1.529-1.5-4.2-1.662-6.168-2.277-3.124-.976-1.542.75-1.077 2.142-.837-1.099-3.217-1.133-4.28-1.607-2.1-.931-3.377-2.037-4.56-4.02-.305-.509-3.336-8.725-.266-7.502-.598-.62-1.449-1.091-2.273-1.34a2.466 2.466 0 0 1 2.14 0c-.252-.287-4.386-2.603-1.475-2.144-.412-.7-4.08-2.325-3.616-2.947 1.037-1.393-1.9-1.652-1.741-3.35.784.234 1.29-.262 1.343-1.073-.479-.053-.997-.053-1.476-.133 1.967-1.466 4.28 1.164 5.889 0-2.18-.757 1.01-1.026 2.153-.268 1.01.673 1.821 1.652 2.938 2.144 1.316.576 2.672-.572 1.741-1.876-.571-.824-2.206-.9-3.084-1.207 1.21-.093 1.808.08 2.818-.67 1.13-.83 1.117-2.467 2.008-3.08 1.143-.781 3.044 1.628 3.762 2.278.877.798 3.203 6.086 4.945 4.287 1.183-1.213.319-4.065 0-5.493.69.133 1.355.193 2.02 0-.279-.332-.505-.633-.81-.939 2.166 1.229 4.705-1.051 6.832-1.34 2.286-.31 5.383-.313 7.643.135 5.517 1.094 10.688 4.707 15.806 6.967 1.023-1.4-2.606-5.021-3.75-5.493 1.344.267 1.051.013.4-.804 1.276.304 5.064-.862 2.685-2.279 1.037.4 2.047-1.403 2.007-1.875 1.25 1.05 1.742-.351.798-.938-.572-.356-1.276-.513-1.875-.804 1.05.12 2.02.66 3.084.67a2.634 2.634 0 0 0-2.007-1.071c1.316-.053 1.383-.343 0-.804.426 0 1.688.363 2.007 0 .638-.728-.359-1.292-.93-1.34.691.133 1.303.274 2.007.401-.837-.965-2.06-1.148-3.217-1.474 1.343-.864 2.765.941 4.015-.133-.692-.62-1.104-1.27.398-1.206-.717-.477-1.395-1.027-1.874-1.742.877-.067 1.688.368 2.552.402 1.024.04 1.835-.873.266-1.34 1.542-.304 3.257.555 4.693-.402-.545-.61-1.21-1.05-2.008-1.206 1.423.08 2.58.166 3.882-.536-.213-.36-.439-.728-.665-1.071 1.276.393 3.869-.965 4.812-1.743 1.954-1.6 2.207-2.665 5.092-2.813-1.436-.313-2.872-.25-4.015-1.34-.651-.619-1.156-1.366-2.007-1.742 1.462.352 2.605 1.564 4.147 1.608-1.954-2.238 1.861.519 2.287.804 1.435.997 3.948.58 5.623.803 3.788.507 8.002.855 11.525 2.413-.147-.75-.732-1.285-1.476-1.474 1.263-.08 1.21-2.147.399-2.814-1.648-1.36-4.081-1.323-5.889-2.412-1.515-.902-1.648-2.285-3.616-2.814-1.714-.457-3.47-.975-5.237-1.205.359-.054.744-.067 1.077 0-1.582-.769-3.217-1.552-4.693-2.546.652.528 1.396.974 2.154 1.34-1.662.778-3.044-1.85-4.959-.67 0-1.449 1.635-.899 2.406-.536-1.409-.5-1.409-.646 0-.401-.65-.508-1.329-1-2.007-1.474-.864-.593-1.794-1.189-2.818-1.475-.758-.21-1.542-.373-2.273-.67-.465-.188-2.193-1.422-.133-.535-1.98-1.31-4.2-2.123-6.3-3.216-.466.72-.147 1.197.664 1.34-3.018.211-8.72-.948-10.581-3.617-1.104-1.59-3.47-3.012-4.826-.804-.518.853-1.9.04-2.539-.134-1.09-.297-1.794.57-2.818.67.333-.302.638-.603.944-.939-2.02-.993-4.094-1.86-6.3-2.277 1.834-.304 3.735 1.465 5.49.67 1.834-.827 3.522 1.328 5.356.67-.81-1.553-3.336-2.38-4.958-2.546-.957-.106-1.86.315-2.805.402-.824.08-1.449-.657-2.286-.536 3.616-1.219 8.96.41 12.07 2.277 3.416 2.054 7.723 1.548 11.512 1.34-.213.32-.44.62-.665.939.704.08 3.403-1.578 3.881-2.145.492-.568.32-1.215.545-1.875.28-.827 1.17-.626 1.742-1.072.957-.75-.917-2.73-1.609-2.948-.624-.194-3.27-.106-2.685.537-2.818-1.303 2.659 0 2.273-1.743-.332-1.56-5.702-2.194-6.965-2.68-1.914-.743-4.453-1.99-5.091-4.152.81 1.078 2.206.819 3.084 0-1.05-.396-2.06-.884-3.084-1.34.664.165 1.329.169 2.02.134-.345-.306-.571-.536-.944-.804 1.768.606 3.031 2.455 5.092 2.144 0-.72-.213-1.323-.665-1.877 1.848-.093 4.892 3.831 2.805 3.618 2.007.791 3.881 2.018 6.035 2.412 1.86.34 2.778 2.29 4.56 2.814 1.873.557 5.077.649 6.965.134.957-.262 1.621-1.34 2.672-1.34 1.09 0 2.14.303 3.216.402 4.706.428 9.664 2.335 13.666 4.824 1.874 1.165 3.788 1.769 5.902 2.411.73.226 5.875 1.583 3.217 0 3.815 2.14 8.746 2.099 12.854 3.751 2.898 1.163 8.015 1.79 2.95-1.34 2.78.593 4.84 4.835 8.043 3.35-.452-1.037-1.37-1.86-2.552-1.875 1.635-.91 3.323 1.29 5.091.535-1.462-1.187-6.367-3.218-8.308-2.411 1.303-1.502-1.622-2.264-2.539-1.34 0-1.323 1.595-.962 2.951-1.206.784-.14.651-.699.266-1.205-1.502-1.984-3.55-1.735-5.77-2.01.984-.49 2.074-.512 3.085-.135a10.715 10.715 0 0 1-2.672-2.144c-.452-.485-1.901.206-2.552-.267-1.808-1.305-3.922-1.624-6.035-2.144 2.14-.347 4.16.331 6.168.937 1.116.336 5.476.422 2.95 1.073 1.37.08 2.66-.596 4.015-.536 1.077.053 2.14.644 3.217.67-1.33-2.587-5.77-2.272-8.042-3.484 3.217.473 6.101 2.064 9.384 2.144-.199-1.76-4.36-2.91-1.21-4.422-1.435-.99-2.937-.887-4.545-1.339 2.472.315 0-.767-.545-.938-.864-.296-1.981-.309-2.672.401.412-2.094-9.358-3.685-10.728-4.018-2.153-.528-3.988-1.54-6.021-2.413-2.858-1.224-6.261-1.001-9.385-1.206-.266-.12-2.991-.42-3.35-.401 1.728.61 3.616.379 5.357.937-1.781.286-3.855.62-5.49-.402.266.338.572.709.81 1.072-1.062.332-4.426-1.741-2.02-1.741-.997-.237-2.073.132-3.07 0-.758-.094-1.263-.51-2.02-.536-1.902-.067-4.653.026-6.567.267.677.093 12.176 2.757 9.65 4.824 1.462.977 3.496.594 5.091 1.34 1.183.553 1.742 1.486 2.42 2.546-.612-.176-5.676-3.897-4.826-1.609-2.166.08-3.894-2.01-6.035-2.277-.957-.12-4.745-1.942-2.273-1.34-2.273-1.59-4.998-2.389-7.231-4.02-1.848-1.334-3.536-2.93-5.902-3.215.332.235.638.395.944.67-.93.838-6.447-3.002-7.51-3.35-3.364-1.107-7.006-1.52-10.45-2.277-1.754-.384-3.349-.925-5.09-1.34-1.17-.28-2.513-.04-3.616-.403-1.223-.399-2.406-1.202-3.749-.803-.598.176-2.977-.995-.678-.535-.717-.196-1.422-.331-2.14-.538-1.462 1.016-4.24-.739-5.623-1.205-2.352-.79-4.732-.645-6.978-1.876.943.16 1.914.383 2.818.67-5.956-2.253-12.283-3.146-18.49-4.421-2.207-.928-4.574-1.198-6.833-2.01-2.127-.767-5.078.476-6.833-1.34 1.077.053 2.167.503 3.217.67-3.868-2.163-8.574-1.054-12.735-2.01-4.373-1.007-8.906-1.465-13.253-2.545-4.453-1.105-8.095-.56-12.601-.67-2.074-.054-4.228.066-6.301 0-2.074-.067-3.922-1.072-6.022-.805 1.024.278 1.927.63 2.951.939-.984 1.244-3.895-.27-4.958-.67-1.715-.64-3.27-.747-5.091-.804-5.318-.167-10.808-1.695-16.085-1.34 2.193.562 3.961 2.06 5.77 3.35-1.476.08-1.57 1.782 0 1.875 1.621.093 2.87-.066 4.413.67 3.057 1.446 6.247 2.486 8.972 4.556-.319.345-.625.712-.93 1.071a13.56 13.56 0 0 1 1.874 1.34c-.611-.395-1.21-.764-1.874-1.071.345.785 1.05 1.282 1.874 1.474-2.805-.887-5.676.408-8.441-.269-1.98-.486-3.323-2.13-5.224-2.813-4.108-1.474-9.08-.303-12.735-3.082-1.13-.87-8.122-5.207-9.105-2.813-1.183 2.883-6.102 2.06-8.441 1.607-5.105-.989-10.25-.053-15.274-1.607-2.566-.794-5.397.173-8.042.133-2.606-.04-5.158.12-7.763.134-2.685.027-4.852 1.565-7.51.67-2.168-.728-4.427-1.051-6.7-1.34-2.114-.268-3.962-.428-5.89-1.473-.597-.32-.464-1.402-.943-1.877-.266-.27-.665-.361-1.063-.401.345.013.717-.04 1.063 0-2.619-1.57-4.44-3.543-7.497-4.556-2.832-.934-5.65-2.01-8.574-2.545-6.434-1.175-13.08-1.502-19.567-2.144-6.328-.628-12.602.508-18.757 1.875-5.596 1.243-11.804.601-17.28-.937 1.01.093 2.073.294 3.083 0-2.193-1.991-5.755-2.725-8.587-3.215-1.808-.315-4.014-.871-5.756 0-.97.486-2.392.877-3.482.937 2.007-1.287 2.313-2.195-.4-2.546-2.445-.313-3.096.766-4.825-.803-2.379-2.17-8.308 1.457-9.916-1.742 1.276-.04 2.007.626 2.007-.938 1.37 0 2.632.912 4.028.803 2.22-.174-1.236-2.12-1.741-2.277-4.533-1.377-8.96-2.12-13.679-2.545-2.592-.233-5.29-.367-7.896-.269-2.579.093-2.233 1.56-2.42 3.619-.225 2.7-7.138 2.764-8.706 1.607 2.313-.236-1.196-1.238-1.874-1.742 2.06.38 4.094.193 6.168.402-.572-1.073-1.715-.903-2.686-1.34-.864-.394-.638-1.488-1.741-1.607 1.276-.268 3.297.696 4.16 1.607 0-.352 0-.722.134-1.072 1.621-.04 1.369 2.356 2.671 2.947 1.662-3.585-.611-4.287-3.35-4.287-.903 0-1.927.08-2.804.135-2.287.15-5.357.066-7.51.804-1.49.514-2.872.428-4.281-.537.771-.166 1.569.04 2.273.403-.545-3.096 4.294-1.634 6.035-1.34 2.02.343 4.147.543 6.288.535 1.05 0 2.087-.093 3.084-.134-7.537-3.231-17.427-2.411-25.456-3.081a160.13 160.13 0 0 0-13.267-.536c-3.815 0-7.962-1.192-11.79-1.608.957.848 2.312.986 3.482 1.34 1.21.361 2.287 1.725 3.616 1.608-1.821-.027-3.496.97-5.357.937-1.33-.026-2.845-.441-4.148 0-2.06.698 0 2.12 1.476 2.814.133-.258 2.433-.149 3.07-.268 1.157-.212 2.353-.225 3.497.134-.731.396-1.529.467-2.287.134-.252.827.266 1.565.944 2.01-.665.08-1.343.153-2.007.135 3.496.77 7.085 2.475 10.182 4.42-2.525-.785-4.692.96-7.244-.268-.825-.396-4.334-2.322-4.414-.267-.85-1.053-2.1-.597-3.217-.536 1.463 2.741 2.127 1.816 4.959 2.546-.731-.067-1.463 0-2.154.267.386.237.824.46 1.21.67a7.218 7.218 0 0 0-2.14 0c1.023.38 2.18.093 3.084.804-5.916-.949-11.499-3.218-17.427-4.287-1.463-.264-3.058-.55-4.547-.402-1.342.132-2.751 1.443-4.027 1.34-1.595-.133-.585 1.298-.133 2.01-1.21-2.098-5.53-1.176-7.497-1.34-3.63-.305-6.42-1.666-9.784-2.815-1.157-.393-5.583-3.436-4.825-.133.385 1.667 2.406 4.612 4.293 4.823-2.14.569 1.263 6.106-2.95 4.421-2.792-1.116-5.73-1.352-8.442-2.545-3.363-1.481-7.125-1.651-10.315-3.617-1.37-.842-2.526-1.649-4.16-1.742-.812-.04-2.021 0-2.141-1.072 1.117 0 2.233-.811 3.35-.268-1.808-1.139-3.922-2.08-6.022-2.545 1.064.607 2.273 1.134 3.35 1.741-1.768 2.159-10.355-2.172-11.658-3.885 3.177.432 6.78 2.89 9.903.937-1.834.12-.824-.55-.133-.937-2.047-.366-3.549-1.938-5.623-2.279-2.087-.343-4.386.4-6.3-.803 1.276.027 2.645.644 3.761-.268-.412-.188-.85-.41-1.21-.67.639.12 1.543.202 2.008-.402-1.396-.14-2.738-.45-4.147-.535.877-.331 1.847-.027 2.672-.537-2.14-.45-4.48-.24-6.567-.937 1.103-.08 2.353-.362 2.818-1.475-.944-.667-1.648.537-2.273.135-.359-.228-.133-.89-.545-1.073-2.007-.783-4.068-.32-6.022-1.206-1.661-.75-3.164-1.31-4.293-1.34-2.021-.053-5.251-1.227-7.099-.401.346.262.718.421 1.077.67-1.236.013-2.393.497-3.63.401-.77-.066-3.322-.462-.93-1.071-1.847-.818-3.163.788-4.958.67-.545-.04-.718-.876-1.343-.939a7.856 7.856 0 0 1-2.007-.401c-2.166-.877-4.293-.91-6.566-1.34-1.729-.326-3.55.314-5.225-.402.4.296.851.595 1.21.938-.97.943-2.087.196-2.951-.402-.359 2.455 3.602 4.189 5.49 4.556-2.153.575 1.954 1.9-.93 2.411-1.542.27-3.27-.356-4.826-.267-3.602.21-7.39.461-10.993.267-4.307-.234-8.534-.802-12.854-1.071-2.991-.186-6.833-.63-8.986-2.949.837-.938 1.914-.465 2.95-.535-2.538-3.128-11.165-1.121-14.741-1.475-7.843-.777-15.712-.85-23.436.939 1.263.924 3.244 1.69 4.812 1.34-2.06.684-2.499.251-4.546-.269-2.113-.533-.837-1.321-1.741-2.143-1.781-1.597-4.892-2.438-7.112-3.215a9.067 9.067 0 0 0 2.154 1.607c-1.41 1.776-5.225 1.224-7.099.938-1.023-.155-8.082-2.62-4.958-2.948-.745-.425-2.074-.74-2.154.403-.133 1.24-3.216-.04-3.748-.134-1.077-.201-3.616-.674-4.56.134-.664.57-.212 1.073-1.329 1.34 2.153 4.075 7.59-1.448 10.448 1.205-3.363 1.164-6.434 2.473-10.05 1.608.639.335 1.304.628 2.008.804-1.25-.412-2.659.827-3.881.938-1.117.107-2.234.306-3.35.402 2.512.5-2.167 1-2.818 1.071-1.729.19-3.51-.146-5.225 0-1.302.106-2.485-.173-3.748-.134-1.303.04-.625 1.477.133 1.743-1.768 1.733-3.855 2.447-6.301 2.01 1.063-.027 3.655-.798 3.483-2.279-.133-.95-.705-2.329.943-2.546.625-.08 2.672.464 2.672-.67 0-1.066 1.303-1.846 2.154-2.144 1.409-.494 3.19-.386 4.679-.668 1.422-.27.944-.961 1.608-1.743 1.383-1.607 5.118-1.114 5.637-3.483-.958-.582-2.074-.242-3.084-.537 1.435-.38 2.937-.066 4.28-.803a23.073 23.073 0 0 0-1.063-.67c2.366-.386 3.562-.58 5.622-1.742.864-.49 1.954.441 2.686 0 .531-.326.319-1.118.531-1.607.28-.639 1.861-.507 2.406-.67 1.356-.406 2.008-1.327 2.951-2.279 1.968-1.967-3.27-3.465-4.413-3.751-1.502-.371-2.752.775-4.028-.402-1.329-1.225-3.217-.998-4.825-1.608 3.802-.695 7.71 2.15 11.392 2.144-.784-.868-1.05-2.25-2.273-2.68-1.303-.45-1.795.249-3.084-.401-1.967-.994-3.536-3.495-6.035-2.814.93.553 1.98.767 2.951 1.205-1.103-.234-2.26-.513-2.951.67-.253-.865-2.698-2.123-3.483-2.545-1.183-.64-3.695-1.722-4.825-.402-.133-2.848-11.366-3.299-13.4-3.215-2.711.106-5.476-.311-8.161 0-2.978.343-5.902-.165-8.853.134 2.14 1.495-1.05 1.837-2.14 1.876-2.234.08-4.813.73-6.966 0 1.595.167 4.174-3.2 1.476-4.02-3.802-1.155-8.468-.2-12.323.134.784-.093 1.422-.52 1.462-1.34-3.828.608-7.79.287-11.644.402 2.18-.82 4.493-.43 6.686-1.072 1.542-.45 2.885-1.425 4.56-1.205-2.566-1.589-5.477-1.189-8.309-1.743-2.472-.485-4.785-.713-7.231-1.072a12.588 12.588 0 0 0-1.874-.134zm665.63 86.017c-2.166-.622-4.333-1.393-6.566-1.74 2.166.59 4.413 1.133 6.566 1.74zm-442.282 130.1c0-.107 1.807.106 2.273.535.824.74 1.236 1.945 1.608 2.948.957 2.55 2.007 5.067 3.217 7.503.625 1.245.505 2.593 1.21 3.886.531.96 1.489 1.63 2.007 2.546 1.037 1.787-1.157 3.627.545 5.36-1.595 1.588-1.94-2.238-3.35-2.145-1.17.08-.93 2.877-1.21 3.617 1.49-.175 4.347-.988 4.56 1.34.2 2.333-3.828.791-3.496 3.484.638 5.083-5.889 3.4-7.763 6.698-.399.698 0 2.062-1.343 1.743-.93-.23-1.555-.691-2.539-.403-1.568.455 0 2.812.133 3.753.465 4.242-4.612 4.224-7.377 5.358-3.643 1.91-8.614.08-12.057-1.473 1.316-1.106 3.456-1.274 5.091-1.34 1.436-.053 2.446-.882 3.749-.804 2.552.153 4.639-2.242 5.091-4.69.292-1.553.798-2.556 2.286-3.215.825-.367 1.768-.843 1.875-1.876.133-1.179 1.555-1.86.266-2.545-1.01-.541.664-2.707 1.076-3.082 1.98-1.809 1.914-3.695 3.749-5.76 1.927-2.182 0-5.076.399-7.505.385-2.44.558-6.445-.532-8.842-.505-1.11-2.193-2.138-1.21-3.484.545-.743.984-1.52 1.742-1.607z" fill="#c83737" fill-rule="evenodd" stroke="#000" stroke-width=".144"/><path d="M65.997 150.18a3.22 3.22 0 0 0-2.1.19c.704-.066 1.396-.132 2.1-.19M82.082 9.008c.571.925 3.722.513 4.639.544 2.233.08 3.51 1.186 5.716.28 1.741-.717 4.134-1.187 5.982-1.684 2.432-.656 4.785 1.399 7.31.669a14.305 14.305 0 0 0-2.113-.479c2.632-.472-2.047-.897-2.579-.92-2.02-.093-4.054.181-6.048.527-4.294.742-8.587.663-12.907 1.063" fill="#c83737" fill-rule="evenodd" stroke="#000" stroke-width=".144"/><path d="M100.931 13.023c1.449.43 2.938-.093 4.387-.093.598-.15 1.17-.34 1.741-.575.665.107 1.33.21 2.007.286-.438-1.15-1.555-1.083-2.579-1.051 1.383-1.629 5.171-.55 7.099-1.294 3.097-1.195 6.553-.668 9.744-1.482-2.486-1.909-5.49-.013-8.229-.575 1.064-.337 2.14-.645 3.257-.67-1.436-1.263-3.695-.027-5.357-.288a4.658 4.658 0 0 1 2.007-.287c-2.486-.725-5.13.468-7.563.86.997.353 2.087.878 3.163.479-2.818 1.164-3.708 1.555-6.7 1.08-1.98-.312-4.04.54-5.941.93 1.82.12 3.682-.479 5.463.191-.984.12-1.98.093-2.978.093.665.317 1.37.476 2.114.479-2.645 1.463-5.676-.666-8.428.287 2.699 1.401 5.517.12 8.335.574a3.684 3.684 0 0 0-1.542 1.056M110.13 134.095c-.32.921 0 .985.957.191a40.431 40.431 0 0 0-.957-.191M115.194 13.315c.838 0 1.582-.456 2.02-1.148-1.355-.334-2.977-.351-4.12.574.691.191 1.396.383 2.1.574M114.53 5.95c.359.56 2.512-.467 2.964-.575-1.063-.432-2.207-.4-2.964.576M119.98 13.794c-1.077.226-2.18-.12-3.257.192 2.978.297 6.248 1.146 9.199.288-2.074-.552-3.829-1.484-5.942-.48M129.936 12.066c2.938.836 6.647.82 9.478-.383-1.874-.138-3.602-1.053-5.49-1.053a3.835 3.835 0 0 0-1.715.53c-1.143.539-2.18.193-3.323.523.346.12.691.255 1.05.383M134.243 9.872a2.693 2.693 0 0 0 2.007-.093c-.917-.545-1.994-.913-3.057-.67a8.34 8.34 0 0 0 1.05.765M137.314 4.13c.345.026.704.066 1.05.093a4.868 4.868 0 0 0-2.02-.477c.318.133.65.255.97.382M137.779 7.573c.691.881 3.656.61 4.64.663 2.658.145 5.157-.265 7.802-.472-4.107-.343-8.361-1.23-12.442-.191M138.165 9.965c.957.708 2.459.652 3.256-.287-1.037-.533-2.392-.631-3.256.287" fill="#c83737" fill-rule="evenodd" stroke="#000" stroke-width=".144"/><path d="M139.507 6.137c3.536.984 7.896 1.004 11.565 1.39 2.792.294 6.965 2.171 9.491.141-3.682-.695-7.87-1.684-11.605-1.687-1.794 0-8.161-1.487-9.45.156M143.335 9.872c.97.2 2.034.605 2.965 0a3.97 3.97 0 0 0-2.965 0M145.635 4.701c1.755.686 4.121.494 5.955.32 2.632-.25 5.557-.153 8.11-.894-3.204-.861-6.767-.95-10.05-.575.664.392 1.356.68 2.113.86-2.366.08-4.878-1.056-7.178-.092.346.133.705.256 1.05.384M158.17 109.41c-2.91-.907-5.995-2.466-9.119-1.714-1.023.246-2.1.712-2.778 1.554-1.076 1.348.133 2.14.133 3.495 0 2.427 5.238 2.253 6.833 1.962 1.422-.26 3.004-.377 4.214-1.279.678-.509 2.95-3.953 3.243-1.531 1.077-1.39-1.568-2.3-2.486-2.487M145.928 11.786c.917.433 2.352.28 3.057-.478-1.077-.289-2.02.373-3.057.478" fill="#c83737" fill-rule="evenodd" stroke="#000" stroke-width=".144"/><path d="M147.55 8.344c2.007.994 6.699 1.698 8.52 0-2.831-.487-5.676-.107-8.52 0M149.557 5.565c4.506.565 9.212 2.533 13.784 1.245-4.599-.42-9.172-1.074-13.784-1.245M152.242 12.744c.412 1.483 7.271.573 8.414.288-1.754-2.328-5.397-2.673-8.135-1.628.252.316.518.636.77.958-.345.12-.704.254-1.05.382M160.563 3.651a4.353 4.353 0 0 0 2.007-.574c-3.403-.747-7.178-1.28-10.528 0 2.845-.093 5.69.334 8.521.574M158.835 1.352c2.034-.08 6.155.737 7.67-1.053-2.911-.335-5.942-.345-8.813.287 1.369.026 1.396.255.133.67.345.026.691.066 1.05.093M163.913 12.93c.864.2 5.49-.836 2.685-1.34 1.994-.703 4.16-.295 6.221-.479-4.705-1.65-10.156-1.518-15.034-.957 2.393.12 3.655 2.745 6.128 2.776" fill="#c83737" fill-rule="evenodd" stroke="#000" stroke-width=".144"/><path d="M159.22 9.101c.931.948 3.31.617 4.214-.192-1.409 0-2.831-.12-4.213.192M164.777 77.533a11.74 11.74 0 0 1 4.014.193c-1.103-.14-2.352-.338-2.964.86a4.05 4.05 0 0 1 1.914-.287 2.697 2.697 0 0 1-2.007.957c.186.74.745 1.29 1.529 1.341-.652.244-1.489.366-2.007.86-.346.334.438 1.269-.32 1.513-1.608.523-3.469-1.394-5.117.053-1.928 1.713.505 3.61 1.568 4.785.625.697 1.569.889 2.46.914.757.027 4.12.4 1.794-.667 2.06.698 4.254-.331 6.022 1.34.16-.318.319-.637.478-.957.32.253.638.509.957.765.133-.767.572-1.139 1.343-.957-1.143 3.302 3.07.945 3.828 1.053a4.229 4.229 0 0 0-1.914 1.53c1.609.87 3.536.626 5.171 1.436-.545-.305-3.908-.62-1.143.382-.944-.25-1.954-.28-2.871.093.957.153 2.233.817 1.807 2.01-.65-.511-1.316-.543-2.007-.093 1.635-.165 3.377.303 4.892.858.85.31 1.715-.204 2.552.106.878.319 1.728.775 2.699.667-.333-.34-.678-.659-1.05-.957 1.05.895 4.12 2.614 5.25.996.678-.979 1.888-.484 2.752-.137.611.24 4.2 1.049 1.29 0 1.262.518 4.891 1.877 6.114.861-.997-.659-2.34-.222-3.15-1.245 2.858-.04 5.45 1.635 8.321 1.435-1.342-.416-2.938-.293-4.12-1.147.916.49 2.073.665 3.097.64.677-.014 3.403-.74.93-1.12 2.153-.219-.479-.83-1.17-1.04-1.409-.42-2.858-.658-4.28-1.045-2.313-.634-5.384-1.52-7.059-3.357-2.033-2.24-4.785-3.942-6.992-6.039-.678-.647-.173-2.377-.492-2.547-1.143-.616-1.409-1.827-2.791-2.148.638.12 1.276.093 1.914-.093a2.529 2.529 0 0 0-1.914-1.053c.611 0 1.276.291 1.861.424 1.183.266.532-1.298-.332-1.477.69.197 1.395.23 2.113.094-.864-.736-2.02-.545-2.964-1.053.558.267 5.091.571 4.387-.839-.506-1.024-3.19-.49-4.108-.693 1.316.094 3.057.054 4.12-.861h-3.163c1.396-.288 3.018-.027 4.214-.957-1.622-1.21-4.533-1.436-6.5-1.436-3.377 0-5.73-1.486-9.053-.066-2.127.912-5.69-.503-7.51 1.25-.545.527.85 2.748 1.621 2.926-2.087-.381-4.705-.636-6.021 1.436.678.12 1.342.285 2.007.483M162.291 7.48c.465 1.686 5.357.382 6.314-.192-2.047-.486-4.293-.3-6.314.192M163.049 3.837c1.675.439 3.749.68 5.37-.093-1.808-.325-3.589-.45-5.37.093M164.777 5.658a2.94 2.94 0 0 0 1.143-.191c-.385.067-.757.133-1.143.191M167.077 4.701c1.608.51 3.416.386 5.064.193-1.648-.441-3.39-.193-5.064-.193" fill="#c83737" fill-rule="evenodd" stroke="#000" stroke-width=".144"/><path d="M175.69 68.441c-.824.359-3.828.83-2.485 2.298a9.394 9.394 0 0 1-1.157.478c1.808.886 4.081-.54 5.929-.668 1.196-.08 2.433.31 3.602.485.917.139 4.972 1.396 3.483-.487.572.931 1.768 1.316 2.778 1.503.904.168 4.214.796 2.965-.93 1.156.949 2.392-.159 2.977-1.146-1.369-.541-3.07-.57-4.12-1.724 1.462.701 3.894 1.798 5.41.467 1.023-.898-6.554-2.164-7.139-2.382 1.556.402 3.204-.053 4.733.468 1.023.354 2.206 1.195 3.35.751 2.605-1.015-3.457-2.975-4.254-3.037 2.06.134.85-.476.133-.86 2.206-.193 3.708 2.333 6.021 1.34a9.622 9.622 0 0 0-.664-.959c.73.507 3.416-.106.957-.381a4.64 4.64 0 0 1 2.007-.289c-.824-2.09-2.951-2.364-4.692-3.35 1.449.45 3.39 1.348 4.931.987.785-.186 2.805-1.397.811-1.656 1.41.188 1.41-.04 0-.67 1.45.401 3.842 2.133 5.078.383a6.278 6.278 0 0 1-2.3-.862c.957.45 2.06.646 3.11.523.719-.08 3.39-.596.905-1.192h2.007c0-1.943-3.323-.509-4.294-1.34.918.027 2.593.391 2.765-.957a2.829 2.829 0 0 0 2.114.766c-.612-1.591 2.273-1.187 2.393-2.681.943 1.292 2.14.294 3.084-.378 1.409-.991 3.23-1.016 4.878-1.317 1.01-.186 4.613-.327 5.198-1.106.332-.43 3.895-.617 4.825-.797 9.092-1.782 18.37-2.453 26.52-7.217-1.01-.08-1.596-1.683-2.553-2.199-1.98-1.053-4.307-1.443-6.513-1.591-3.935-.262-8.986.375-12.097 3.023a7.813 7.813 0 0 0 1.928.957c-1.383.271-2.739-.407-4.121-.192-.851.133-1.649.79-2.54.682-.93-.12-1.7 1.037-2.777 1.18-2.048.275-4.148 0-6.195.394-3.403.672-5.955.711-9.438.4-1.741-.16-3.47-.328-5.237-.227-1.25.067-3.071 1.226-.904 1.88-1.064-.053-2.02 1.033-3.058.287a21.61 21.61 0 0 1 1.05-.671c-1.382-.216-3.137-.234-4.306.67.744-.079 1.435.04 2.1.384-2.114-.08-4.706-.04-6.633.928-1.33.663-3.217.987-4.653 1.435-.611.194-4.493.703-2.007 1.274-1.037.216-2.127.315-3.07.861.757.18 1.408.685 1.82 1.34-2.007.257-4.506-1.526-6.128.383l.957.67c-1.528 2.346-5.197-1.343-6.34.321-1.715 2.52 6.939 1.012 3.762 1.88.638.04 1.276.14 1.914.287-1.33.266-2.978.213-4.015 1.246 1.263.416 2.553-.17 3.815.353 1.077.455 2.273.69 3.457.604-1.569.238-3.031-.453-4.613-.161-.731.134-3.244-.177-3.682.498-.838 1.287 4.2 1.47 4.945 1.576-1.994.246-4.467-.4-6.128 1.052 1.13.014 2.26.326 3.256.862-1.183-.347-3.23-.725-4.306.093 2.06.106 4.267.385 6.128 1.34-1.596.08-3.15-.561-4.733-.649-1.116-.066-4.466 1.776-2.073 1.893a93.53 93.53 0 0 0-7.086 2.106c1.848.134 3.563 2.073 5.437.878 1.728-1.1 3.948-.59 5.862-.59-1.036.053-2.02.452-3.057.477M173.962 93.418c1.25-2.63-1.807-2.439-3.163-3.732.678.232 1.356.488 2.02.765-1.063-.967-4.865-1.91-5.17.288 2.272.574 4.585.934 6.313 2.68M169.376 14.272c-.16.027-.332.067-.491.093 1.462-.053 2.964.661 4.413.192-1.33-.053-2.592-.666-3.922-.287M171.862 4.13c-.252.026-.518.066-.77.093 1.594.209 3.562.68 5.077-.093-1.436.053-2.871-.18-4.307 0M172.234 9.673c2.885 1.424 7.165.787 10.329.768 2.1 0 5.955-.142 6.806-2.587-4.147-2.307-9.451 0-13.878-.287 2.512-.254-.585-.2-.957-.167-1.25.106-2.353.654-3.257 1.507.293.291.612.547.957.766M172.048 13.794c2.233.283 4.533 1.045 6.7 0-2.007-.91-4.852-1.655-6.7 0" fill="#c83737" fill-rule="evenodd" stroke="#000" stroke-width=".144"/><path d="M174.826 6.23c2.606 1.08 7.232 1.525 9.372-.766-3.11-.364-6.38-.162-9.372.766M191.004 7.387c2.127 1.702 5.37 1.193 7.883 1.012 3.203-.232 6.34-.412 9.438-1.395-.891-2.703-6.155-2.553-8.242-1.827-1.343.464 0 1.251-1.582 1.251-2.645.001-4.958.164-7.497.959M213.974 114.767c.758.593 3.323.053 4.015-.477-1.316.336-2.699.168-4.015.477M219.238 102.71c1.037.51 2.167.818 3.15 1.435-2.91-1.63 2.154-.371 2.819-.17 1.236.372 1.874 1.519 3.217 1.653 1.01.106 7.085.233 4.213-1.733-2.352-1.606-5.157-2.433-7.802-3.387-1.57-.57-3.869-2.292-5.584-2.045-1.063.153-1.714 1.404-2.884.993.718.273 1.449.528 2.193.766a4.457 4.457 0 0 1-2.1-.093c.864.917 1.555 2.067 2.778 2.584M226.895 111.032c-.904-1.338-2.672-1.375-4.028-1.915a15.61 15.61 0 0 0 4.028 1.915M276.557 111.417c1.728.392 3.337 1.166 5.078 1.531-1.635-.713-3.23-1.656-5.078-1.53M282.592 107.589c.665.406 1.37.47 2.114.191 0-1.529-1.529-.912-2.114-.191M283.164 70.648c.678 1.374 1.25 1.422 1.09 3.052-.173 1.725 1.316-.093 1.396-.08 3.589.47 6.885-.027 10.528-.957-1.742-1.182-1.662-.476-3.43-.483-.984 0-1.98-1.038-1.063-1.91-2.845-.385-5.796-.782-8.521.383" fill="#c83737" fill-rule="evenodd" stroke="#000" stroke-width=".144"/><path d="M291.592 71.312c.89.816 1.236.657 1.05-.478-.346.16-.705.319-1.05.478M318.39 134.959c-1.103-.2-2.26.151-3.164 0-1.222-.205-1.74-1.425-3.057-.576 2.1-.426 3.283 1.68 5.065 2.299 1.874.651 3.695-.666 1.156-1.723M314.083 74.184c1.423 1.117 3.417 1.047 5.065 1.627-.625-.661-2.02-2.382 0-2.202-1.635-.142-3.815-.973-5.065.575M320.211 70.648c.918-.829 4.188.585 3.922-1.436-1.462.191-3.031 0-3.922 1.436M323.083 135.145a6.008 6.008 0 0 0-2.008.383c1.17 1.29 3.443 1.623 5.065 1.148-.877-.755-1.94-1.253-3.057-1.531M324.997 69.597c1.661.604 3.522.596 5.264.86-1.542-.753-3.563-1.18-5.264-.86M327.868 72.947c1.064.168 2.193.637 3.15-.191-1.063.04-2.126-.203-3.15.191M337.824 80.604c2.22 2.058 7.95.484 9.85-1.436-1.528-.802-3.35-1.15-5.064-1.148-2.02 0-3.177 1.658-4.786 2.584M338.875 34.371c.651.242 1.316.37 2.007.383a3.609 3.609 0 0 0-2.007-.383M339.446 59.827c.97.386 1.994.753 3.058.766-.798-1.006-2.008-.93-3.15-1.053 1.368.277 1.395.372.132.287M347.01 48.063c1.316.485 2.738.427 4.107.574-1.329-.462-2.738-.388-4.107-.574M347.103 75.433c.85 2.166 4.799 1.658 6.607 1.819.452-1.408-.758-2.048-1.808-2.578-2.327-1.168-2.832-.686-4.799.76M353.603 51.785h-1.05c1.462 1.808-.97.946-1.529.478-.438 1.184.745 1.614 1.662 1.249.651-.257 1.675 1.064 2.353 1.144-.24-.308-.465-.627-.665-.957.346-.137.691-.264 1.05-.383-.571-.614-1.262-.901-2.1-.86.133-.224.186-.448.28-.671M355.624 48.249a4.424 4.424 0 0 1 2.1-.093c-1.808-.846-4.214-.95-6.128-.479 1.33.33 2.778-.093 4.028.575M354.853 69.877a2.181 2.181 0 0 0-2.194-.575 7.078 7.078 0 0 0 2.194.575M365.86 63.855c-.32.027-.639.066-.958.093.612.48 1.316.767 2.1.86a6.013 6.013 0 0 0-1.143-.956M368.252 64.52c1.635-.04 3.403.792 4.985.093-1.13-.78-3.908-1.191-4.985-.093M376.587 65.091c1.05.426 2.193.645 3.336.574-.864-1.01-2.233-.406-3.336-.574M378.208 60.691c-.358.093-.704.192-1.05.287.585.577 1.276.832 2.1.766-1.408-.399-1.408-.622 0-.67-.345-.133-.704-.255-1.05-.383M379.644 59.92c-.319.093-.638.193-.957.289.359 0 .678-.093.957-.289M381.266 57.913a4.11 4.11 0 0 1-2.007.477c1.25.313 2.725.693 4.027.384a2.607 2.607 0 0 0-2.02-.861M384.43 60.399a5.872 5.872 0 0 0-2.965-.287c.492.686 2.805 1.849 2.965.287" fill="#c83737" fill-rule="evenodd" stroke="#000" stroke-width=".144"/><path d="M382.223 61.462c.704.08 1.409.138 2.113.192a3.714 3.714 0 0 0-2.113-.192M386.437 37.535c-1.197-.366-1.489-.04-.864.957.478-.16.77-.48.864-.957M386.623 61.263l.957-.574c-.678-.592-2.167-1.05-2.1.382.385.067.757.133 1.143.192M387.78 63.749c-.705-.067-1.396-.133-2.1-.192.677.398 1.368.461 2.1.192M390.558 56.384c-1.303.093-3.177-.246-4.214.766 1.276.798 2.805.492 4.214.67-2.646-.634.319-.606.864-.574-.293-.287-.572-.576-.864-.862M387.78 37.336c.93-.08 1.953.12 2.392-.958a4.16 4.16 0 0 0-3.057 0c.186.345.412.662.664.958M388.059 57.913c.611.401 1.289.561 2.02.477a5.039 5.039 0 0 0-2.02-.477M393.522 37.535h-1.143a5.89 5.89 0 0 0 2.485.287c-.451-.093-.89-.191-1.342-.287M394.758 66.141a10.231 10.231 0 0 0-2.007-.67c.625.353 1.29.576 2.007.67M323.747 134.48c2.06-1.334 5.85-2.141 6.607 1.053-1.901.215-5.889 1.797-6.607-1.053M953.128 94.854c-1.05-.258-1.994-.83-3.057-1.053a2.896 2.896 0 0 0 3.057 1.053M1018.303 102.71c-2.592 2.063 12.762 4.14 13.214 4.211.132-2.23-2.58-3.129-4.201-3.302-2.778-.3-6.274-1.772-9.013-.909M1081.578 88.154c-1.954 1.282-3.948 3.51-1.143 5.128.943.542 2.632 1.61 3.761 1.572 1.05-.04 4.32-.542 5.065-1.284 1.343-1.344 5.184.186 6.766.381 1.967.244 7.657-.57 9.093-1.968-1.915-2.938-7.192-2.776-10.223-3.442-2.113-.465-4.014-1.08-6.22-1.083-1.65 0-5.836-.2-7.1.696M1236.241 154.779c1.05.483 2.207.158 3.164-.383-1.143-.555-3.63-1.958-3.164.383M1236.534 155.35c.624.356 1.289.58 2.007.67a3.264 3.264 0 0 0-2.008-.67M1114.877 204.162c.332.302.65.62.957.958-.904.014-.825-.252-.957-.958M987.105 391.074a5.568 5.568 0 0 0-1.236-.67c0 1.053.372 1.276 1.236.67" fill="#c83737" fill-rule="evenodd" stroke="#000" stroke-width=".144"/></svg>