<?xml version="1.0" encoding="UTF-8" standalone="no"?>
<!-- Created with Inkscape (http://www.inkscape.org/) -->

<svg
   xmlns:dc="http://purl.org/dc/elements/1.1/"
   xmlns:cc="http://creativecommons.org/ns#"
   xmlns:rdf="http://www.w3.org/1999/02/22-rdf-syntax-ns#"
   xmlns:svg="http://www.w3.org/2000/svg"
   xmlns="http://www.w3.org/2000/svg"
   xmlns:sodipodi="http://sodipodi.sourceforge.net/DTD/sodipodi-0.dtd"
   xmlns:inkscape="http://www.inkscape.org/namespaces/inkscape"
   width="40.151707mm"
   height="49.637577mm"
   viewBox="0 0 40.151707 49.637577"
   version="1.1"
   id="svg26835"
   inkscape:version="0.92.0 r15299"
   sodipodi:docname="serbia.svg">
  <defs
     id="defs26829" />
  <sodipodi:namedview
     id="base"
     pagecolor="#ffffff"
     bordercolor="#666666"
     borderopacity="1.0"
     inkscape:pageopacity="0.0"
     inkscape:pageshadow="2"
     inkscape:zoom="0.35"
     inkscape:cx="543.02027"
     inkscape:cy="510.94614"
     inkscape:document-units="mm"
     inkscape:current-layer="layer1"
     showgrid="false"
     fit-margin-top="0"
     fit-margin-left="0"
     fit-margin-right="0"
     fit-margin-bottom="0"
     inkscape:window-width="1920"
     inkscape:window-height="1017"
     inkscape:window-x="1912"
     inkscape:window-y="-8"
     inkscape:window-maximized="1" />
  <metadata
     id="metadata26832">
    <rdf:RDF>
      <cc:Work
         rdf:about="">
        <dc:format>image/svg+xml</dc:format>
        <dc:type
           rdf:resource="http://purl.org/dc/dcmitype/StillImage" />
        <dc:title></dc:title>
      </cc:Work>
    </rdf:RDF>
  </metadata>
  <g
     inkscape:label="Layer 1"
     inkscape:groupmode="layer"
     id="layer1"
     transform="translate(160.68304,-234.38359)">
    <g
       id="rs"
       style="fill:#c83737;fill-opacity:1;stroke:#000000;stroke-width:0.10870087;stroke-miterlimit:4;stroke-dasharray:none;stroke-opacity:1"
       transform="matrix(1.3292939,0,0,1.3292939,-2030.7707,-245.02391)">
      <title
         id="title262">Serbia</title>
      <path
         inkscape:connector-curvature="0"
         id="rs-"
         class="landxx rs rs-"
         d="m 1412.87,360.84 c -1.16,-0.493 -2.19,1.274 -2.59,1.436 -0.71,0.286 -1.93,0.07 -3.38,0.555 0.41,1.008 0.71,1.592 0.93,2.646 0.15,0.665 0.35,0.857 1.04,0.882 -1.97,1.369 1.7,2.208 2.32,2.822 -0.1,-0.09 -2,0.428 -2.25,0.529 0.61,1.203 0,1.819 -0.21,2.167 0.9,-0.354 1.72,-0.589 1.93,-0.126 0.49,1.086 0.6,1.003 -1.06,3.528 -0.55,0.831 1.22,2.069 2.72,3.124 1.63,1.513 -1.16,0.787 -1.59,1.134 -0.26,0.06 2.29,2.873 1.76,3.129 -1.41,0.672 -2.88,0.803 -3.92,0.829 0.5,-0.08 1.75,1.454 3.63,2.957 0.6,0.478 0.74,0.978 2.08,1.434 1.07,0.636 3,0.03 3.32,1.278 0.14,0.09 -1.48,0.892 -1.38,0.932 0.14,0.06 0.98,1.43 0.68,1.578 1.93,0.621 -0.38,1.805 3,2.448 1.02,0.194 0.99,4.744 1.1,3.642 1.46,-1.231 1.34,-3.46 4.73,-2.239 0,-1.088 1.17,-0.907 1.77,-1.331 0.69,0.7 1.45,-0.718 2.51,-0.394 0.66,0.201 5.13,-0.282 4.01,-1.941 -0.65,-0.955 -0.81,-2.077 -0.26,-2.671 0.54,-0.572 1.22,0.06 1.82,-0.705 0.59,-0.747 1.06,-1.48 1.38,-2.243 -0.99,-0.314 -2.26,-1.607 -3.02,-2.318 -2.44,-2.288 -1.22,-4.136 0.15,-6.426 -0.31,-0.287 -2.01,-2.014 -1.36,-2.444 0.55,-0.359 1.26,-0.132 1.82,-0.403 -0.55,-0.672 -1.99,-1.577 -2.83,-0.907 -0.26,0.213 -1.03,1.525 -1.31,1.512 -0.37,-0.02 -1.09,-1.037 -1.51,-1.21 -0.98,-0.404 -2.08,-0.722 -3.02,-1.209 -0.7,-0.361 -0.28,-0.234 -0.99,-0.491 0.9,-0.487 1.28,-1.27 0,-1.424 1.4,-1.319 0.26,-1.592 -0.92,-2.029 -1.21,-0.448 -2.76,-1.544 -3.82,-2.255 1.32,-2.609 -1.49,-2.625 -1.86,-4.435 -0.33,-1.617 -3.73,-1.645 -5.45,-1.361 z"
         style="fill:#c83737;fill-opacity:1;fill-rule:evenodd;stroke:#000000;stroke-width:0.10870087;stroke-miterlimit:4;stroke-dasharray:none;stroke-opacity:1" />
      <g
         id="xk"
         style="fill:#c83737;fill-opacity:1;stroke:#000000;stroke-width:0.10870087;stroke-miterlimit:4;stroke-dasharray:none;stroke-opacity:1">
        <path
           inkscape:connector-curvature="0"
           id="xk-"
           class="limitxx xk rs"
           d="m 1416.36,389.948 c 0.39,-0.288 1.2,-0.809 1.61,-0.628 0.1,-0.687 0.17,0.1 0.44,-0.361 0.44,-0.743 0.98,-0.639 1.46,-0.848 1,-0.429 0.97,-0.884 0.5,-1.977 0.47,-0.06 1.07,-0.392 1.46,-0.664 0.3,1.962 5.13,1.273 4.79,3.224 -0.17,0.986 1.74,1.337 1.95,2.147 0.31,1.186 -1.92,2.399 -1.04,3.357 -0.8,0.366 -2.02,0.417 -1.72,1.379 -1.2,-0.149 -1,-0.82 -2.75,-0.113 -1.4,0.564 -1.31,2.199 -2.03,2.417 -0.48,-0.132 0.2,-2.393 -0.79,-3.162 -0.24,-0.864 -1.1,-0.557 -1.96,-1.212 -0.57,-0.914 -0.16,-1.38 -1.21,-1.713 -0.22,-0.493 -1.18,-1.451 -0.71,-1.846"
           style="fill:#c83737;fill-opacity:1;fill-rule:evenodd;stroke:#000000;stroke-width:0.10870087;stroke-miterlimit:4;stroke-dasharray:none;stroke-opacity:1" />
        <circle
           id="xk_"
           class="unxx rs xk"
           r="4.2337999"
           cy="389.55499"
           cx="1423.13"
           style="opacity:0;fill:#c83737;fill-opacity:1;stroke:#000000;stroke-width:0.10870087;stroke-miterlimit:4;stroke-dasharray:none;stroke-opacity:1" />
      </g>
    </g>
  </g>
</svg>
