<svg xmlns="http://www.w3.org/2000/svg" width="151.754" height="187.607" viewBox="0 0 40.151707 49.637577"><g transform="matrix(1.3293 0 0 1.3293 -1870.088 -479.408)" fill="#c83737" stroke="#000" stroke-width=".109"><title>Serbia</title><path class="landxx rs rs-" d="M1412.87 360.84c-1.16-.493-2.19 1.274-2.59 1.436-.71.286-1.93.07-3.38.555.41 1.008.71 1.592.93 2.646.15.665.35.857 1.04.882-1.97 1.369 1.7 2.208 2.32 2.822-.1-.09-2 .428-2.25.529.61 1.203 0 1.819-.21 2.167.9-.354 1.72-.589 1.93-.126.49 1.086.6 1.003-1.06 3.528-.55.831 1.22 2.069 2.72 3.124 1.63 1.513-1.16.787-1.59 1.134-.26.06 2.29 2.873 1.76 3.129-1.41.672-2.88.803-3.92.829.5-.08 1.75 1.454 3.63 2.957.6.478.74.978 2.08 1.434 1.07.636 3 .03 3.32 1.278.14.09-1.48.892-1.38.932.14.06.98 1.43.68 1.578 1.93.621-.38 1.805 3 2.448 1.02.194.99 4.744 1.1 3.642 1.46-1.231 1.34-3.46 4.73-2.239 0-1.088 1.17-.907 1.77-1.331.69.7 1.45-.718 2.51-.394.66.201 5.13-.282 4.01-1.941-.65-.955-.81-2.077-.26-2.671.54-.572 1.22.06 1.82-.705.59-.747 1.06-1.48 1.38-2.243-.99-.314-2.26-1.607-3.02-2.318-2.44-2.288-1.22-4.136.15-6.426-.31-.287-2.01-2.014-1.36-2.444.55-.359 1.26-.132 1.82-.403-.55-.672-1.99-1.577-2.83-.907-.26.213-1.03 1.525-1.31 1.512-.37-.02-1.09-1.037-1.51-1.21-.98-.404-2.08-.722-3.02-1.209-.7-.361-.28-.234-.99-.491.9-.487 1.28-1.27 0-1.424 1.4-1.319.26-1.592-.92-2.029-1.21-.448-2.76-1.544-3.82-2.255 1.32-2.609-1.49-2.625-1.86-4.435-.33-1.617-3.73-1.645-5.45-1.361z" fill-rule="evenodd"/><path class="limitxx xk rs" d="M1416.36 389.948c.39-.288 1.2-.809 1.61-.628.1-.687.17.1.44-.361.44-.743.98-.639 1.46-.848 1-.429.97-.884.5-1.977.47-.06 1.07-.392 1.46-.664.3 1.962 5.13 1.273 4.79 3.224-.17.986 1.74 1.337 1.95 2.147.31 1.186-1.92 2.399-1.04 3.357-.8.366-2.02.417-1.72 1.379-1.2-.149-1-.82-2.75-.113-1.4.564-1.31 2.199-2.03 2.417-.48-.132.2-2.393-.79-3.162-.24-.864-1.1-.557-1.96-1.212-.57-.914-.16-1.38-1.21-1.713-.22-.493-1.18-1.451-.71-1.846" fill-rule="evenodd"/></g></svg>