<svg xmlns="http://www.w3.org/2000/svg" width="469.624" height="336.428" viewBox="0 0 124.25478 89.013351"><path d="M.898 10.455c.133-.16.2-.319.293-.479-1.237.107-1.276-.942-.93-1.815.544-1.408 1.541-1.032 2.432-1.984 1.701-1.842 5.397-.974 7.776-2.037-1.927.08-.691-.471 0-.862-.412.15-.824.278-1.25.383-.292-1.256 3.935-4.476 3.935-2.393L15.07.12c.16 1.413 5.702.768 5.742 3.158 1.688-2.185 6.647-.488 8.986-.86 2.007-.319 2.526-.437 4.64.067 2.246.535 4.532 1.035 6.819 1.422 3.11.528 5.968.235 8.826-.45 1.808-.434 3.948-.027 5.53.927 2.153 1.298 1.834-.501 3.828-.357 1.768.12 3.496.828 5.224 1.16 1.037.2 4.4-.919 4.852-.189.506.794 3.63-.17 3.071 1.746-.133.405-.611.89-.252 1.285.81.921.558-.106 1.422-.066 2.725.14 6.327 2.706 7.444 3.14.545.207 1.183-.329 1.741-.12.718.262 1.197 1.31 1.875 1.17 1.874-.393 4.253-.304 6.526.319-.305-.833 0-1.42.479-2.01 1.156.026 1.98.12 4.028 1.383 1.688.054 3.256.61 2.858 3.402 2.313-.368 2.166-2.034 2.326-.885.439.248 2.752 1.653 3.297 1.474.651-.209 1.262-.689 2.007-.392 1.409.565 2.924 1.12 4.094.174.89-.723 1.728-.62 3.868-.39.824.092.16 1.41 1.157 1.265 0 1.02-.638.708-1.223 1.172-.85.687 0 2.385 0 3.274-.133 2.46-5.49 4.235-7.298 4.986-1.37.564-1.728 1.847-2.858 2.384-1.37.648-3.243.629-4.706.997-3.549.893-5.702 2.435-8.56 4.414 2.22 1.778.133 2.117-1.396 2.985-2.233 1.274-2.659 4.348-4.839 5.742-3.722 2.378-5.038 9.192-1.98 12.448 1.86 1.982 3.363 2.584.292 4.503-1.768 1.112-3.124 1.58-4.56 3.164-.863.939-1.634 2.375-2.233 3.742-.372.857-.797 1.818-.81 2.77 0 .794 1.276 1.868.491-.04 1.223 2.01-3.735 2.162-4.692 2.276-2.313.278-5.517 2.377-6.075 4.657-.478 1.959-2.1 5.451-4.2 3.758-1.29-1.037-2.247.358-3.31.796-1.542.633-3.204-.32-4.839-.053-3.403.558-6.793.167-10.275.235-1.861.04-2.274.383-3.616 1.644-1.542 1.442-3.576.85-5.357 1.742-.878.442-1.755 3.432-2.552 3.353-.984-.093-.732 1.536-2.26 1.498-1.236-.026-2.18-2.157-3.363-2.028-1.29.14-2.273-2.558-2.58-3.521 1.702-.3-.411-1.528-.916-1.916-1.21-.934.226-2.536 1.395-2.871-.73-.234-1.09.16-1.143.861-.625-.666-5.73-4.122-4.6-5.17-1.767-.193 0 .738-1.927.781-.85.013-1.9.34-2.725.04-1.196-.433-1.143-3.47-.983-4.453.146-.859.824-1.502 1.395-2.094.705-.727.798-1.87 1.41-2.48 1.435-1.403 2.02-.32 2.937-2.509-1.821.604-3.297-1.818-3.35-3.35-.133-2.383 2.685-3.545 3.363-5.65.36-1.138-1.807-2.662-2.313-3.668-.425-.85 0-1.345-.624-2.074-.532-.611-1.237-1.265-1.582-2.01 1.21.34 2.486.093 3.722.093 1.276 0 .93-.75 1.369-1.544.558-.99 1.675-1.126.452-4.14-.359-.889 1.276-1.351 1.436-1.43.864-.41.558-1.627.518-2.365 0-.57.266-6.227-.478-6.045 1.342-.325 1.967-1.779 3.243-2.587.744-.467 3.935-3.193 3.55-3.961-.466-.946-2.912-.745-3.005-1.324-.146-.899.518-3.38-.439-2.549-.651.564-5.144-.684-5.25.093-.213 1.623-2.832 1.025-3.749.656-1.449-.594-2.938.093-4.307.583-2.805 1.01-1.09-1.897 0-2.669-.837.106-1.183-.35-1.05-1.148-.824.785-1.94.813-2.978 1.003-1.316.24-2.087 1.307-3.243 1.868-1.05-2.743 1.994-3.04 2.672-5.17-.492.936-1.502 1.23-2.486 1.246.213-1.094 1.25-1.53 2.114-2.01-.878.384-2.18.481-2.114-.862 0-.957 1.555-1.322 1.728-2.297-.85.793-2.193.714-2.685 1.913-.957-1.382.571-2.495 1.529-3.254-.97.782-2.207.997-2.58-.473" class="landxx es eu" fill="#c83737" fill-rule="evenodd" stroke="#000" stroke-width=".144"/><path d="M96.222 56.395c-1.914-.347-1.183-2.1.133-2.762.611-.312 1.396-.415 1.94.08.918.841-1.648 1.82-2.033 2.678M96.315 58.589c-.306-1.1 0-1.292.957-.574-.319.19-.638.382-.957.574M114.407 49.696c-1.795 2.02-1.622 1.007-3.776.658-2.286-.371-.757-2.832-3.376-1.706-2.326.999-.412-1.808.253-2.291 2.007-1.453 4.094-2.105 6.42-2.881-.97.277-1.369 1.495-.439 2.164.718.521 1.742-.2 2.42.332.917.729-1.436 2.918-1.502 3.724M119.392 43.09c1.714-1.628 4.586-.384 4.785 1.913-1.223.196-4.134-.803-4.785-1.914" fill="#c83737" fill-rule="evenodd" stroke="#000" stroke-width=".144"/></svg>