<svg xmlns="http://www.w3.org/2000/svg" width="154.517" height="82.36" viewBox="0 0 40.88274 21.791027"><path class="landxx ch" d="M.064 18.394c.293-.578.625-1.139.97-1.686.44-.86-.238-1.552 0-2.36.453-1.208 2.527-2.148 2.606-2.534.28-1.55 1.05-2.535 3.257-3.793 1.196-.68 1.954-2.09 3.097-3.216-2.14.257-.837-3.101.918-1.507 1.9 1.714 2.751-1.105 4.586-1.364-.958 1.118 3.881.259 4.772.306 1.728.093 3.097.144 3.47-.954-1.33.494-1.596-.737-.4-1.15.492-.167.984.014 1.728.309 1.263.493 2.858.524 3.124.62 1.476.555 3.324.764 4.52 1.817 1.582 1.383-.771 3.638-1.037 5.177 3.057-.384 3.297 1.827 5.796 2.31 1.077.21 1.502-1.826 2.672-1.492 1.382.39.2 1.932.133 2.641-.133.55 1.116 2.27-.133 2.304-.878.026-1.569-1.562-2.406-.823-.306.266-1.343 1.829-.612 2.161 1.276.586.519 1.032.32 2.277-1.25-.5-1.303-1.845-2.872-1.531-1.542.306-1.702.631-2.964-.574-.133-.12-1.49-2.449-1.675-.544-.173 1.747-.133 2.172-1.41 3.492-1.608 1.683-.159 5.628-2.724 1.861-.585-.839-1.263-1.25-2.048-1.842-1.21-.904-.73-2.622-1.914-3.447-.678.853-1.488 1.716-2.579 2.011 1.197 1.392-1.435 3.84-2.91 3.703-2.792-.257-5.105 1.51-7.232-.736-.758-.792-1.795-1.624-1.542-2.871.372-1.743-1.01-2.162-2.5-2.011-2.498.253-2.073 3.37-5.05 3.446" fill="#c83737" fill-rule="evenodd" stroke="#000" stroke-width=".144"><title>Switzerland</title></path></svg>