<?xml version="1.0" encoding="UTF-8" standalone="no"?>
<!-- Created with Inkscape (http://www.inkscape.org/) -->

<svg
   xmlns:dc="http://purl.org/dc/elements/1.1/"
   xmlns:cc="http://creativecommons.org/ns#"
   xmlns:rdf="http://www.w3.org/1999/02/22-rdf-syntax-ns#"
   xmlns:svg="http://www.w3.org/2000/svg"
   xmlns="http://www.w3.org/2000/svg"
   xmlns:sodipodi="http://sodipodi.sourceforge.net/DTD/sodipodi-0.dtd"
   xmlns:inkscape="http://www.inkscape.org/namespaces/inkscape"
   width="40.88274mm"
   height="21.791027mm"
   viewBox="0 0 40.88274 21.791027"
   version="1.1"
   id="svg19856"
   inkscape:version="0.92.0 r15299"
   sodipodi:docname="switzerland.svg">
  <defs
     id="defs19850" />
  <sodipodi:namedview
     id="base"
     pagecolor="#ffffff"
     bordercolor="#666666"
     borderopacity="1.0"
     inkscape:pageopacity="0.0"
     inkscape:pageshadow="2"
     inkscape:zoom="0.35"
     inkscape:cx="-41.312703"
     inkscape:cy="178.32275"
     inkscape:document-units="mm"
     inkscape:current-layer="layer1"
     showgrid="false"
     fit-margin-top="0"
     fit-margin-left="0"
     fit-margin-right="0"
     fit-margin-bottom="0"
     inkscape:window-width="1920"
     inkscape:window-height="1017"
     inkscape:window-x="1912"
     inkscape:window-y="-8"
     inkscape:window-maximized="1" />
  <metadata
     id="metadata19853">
    <rdf:RDF>
      <cc:Work
         rdf:about="">
        <dc:format>image/svg+xml</dc:format>
        <dc:type
           rdf:resource="http://purl.org/dc/dcmitype/StillImage" />
        <dc:title></dc:title>
      </cc:Work>
    </rdf:RDF>
  </metadata>
  <g
     inkscape:label="Layer 1"
     inkscape:groupmode="layer"
     id="layer1"
     transform="translate(6.0782758,-174.22353)">
    <path
       inkscape:connector-curvature="0"
       id="ch"
       class="landxx ch"
       d="m -6.0138043,192.61797 c 0.2924511,-0.57826 0.6247719,-1.13921 0.9703826,-1.6869 0.4386645,-0.86004 -0.239267,-1.55127 0,-2.35949 0.4519544,-1.20831 2.5256676,-2.14812 2.6054313,-2.53363 0.279137,-1.54995 1.0501223,-2.53496 3.25675894,-3.79381 1.19635976,-0.67927 1.95405506,-2.08965 3.09725536,-3.21555 -2.1401628,0.25655 -0.8374592,-3.10124 0.9172233,-1.50743 1.900871,1.71479 2.75162,-1.10464 4.586042,-1.36384 -0.957069,1.11793 3.8815548,0.2592 4.7721738,0.30574 1.728078,0.093 3.097255,0.14487 3.46947,-0.9531 -1.329308,0.49316 -1.595155,-0.73776 -0.398795,-1.14985 0.491824,-0.16749 0.983673,0.0134 1.728078,0.30839 1.262834,0.49317 2.857988,0.52374 3.123836,0.61945 1.47552,0.55564 3.323233,0.76434 4.519618,1.81716 1.581838,1.38378 -0.771012,3.63827 -1.036857,5.17759 3.05736,-0.38417 3.296652,1.82644 5.795716,2.3103 1.076724,0.20872 1.5021,-1.82644 2.671879,-1.49278 1.382469,0.38948 0.199398,1.93279 0.132924,2.64131 -0.132924,0.55032 1.116621,2.27044 -0.132924,2.30366 -0.877329,0.0266 -1.568574,-1.56193 -2.40601,-0.82283 -0.305739,0.26585 -1.342596,1.82909 -0.611481,2.16144 1.276125,0.58621 0.518427,1.03152 0.319032,2.27707 -1.249545,-0.49983 -1.302705,-1.84505 -2.87128,-1.53135 -1.541994,0.30574 -1.701498,0.63141 -2.96433,-0.57424 -0.132924,-0.11966 -1.488811,-2.44856 -1.674895,-0.5437 -0.172818,1.7467 -0.132948,2.17207 -1.409073,3.49206 -1.608444,1.68288 -0.159501,5.62823 -2.725039,1.861 -0.584902,-0.83877 -1.262834,-1.24952 -2.047109,-1.84238 -1.209674,-0.90393 -0.731116,-2.62137 -1.914186,-3.44686 -0.677956,0.8534 -1.488811,1.7161 -2.578827,2.01121 1.19636,1.39176 -1.435651,3.84032 -2.911172,3.70341 -2.7915148,-0.25787 -5.1044708,1.51008 -7.2313431,-0.73643 -0.7576955,-0.79225 -1.7945521,-1.62438 -1.5419948,-2.87127 0.3722147,-1.74271 -1.01025246,-2.16144 -2.4990634,-2.01121 -2.4990634,0.2539 -2.0736889,3.37109 -5.0513107,3.44686"
       style="fill:#c83737;fill-opacity:1;fill-rule:evenodd;stroke:#000000;stroke-width:0.14449541;stroke-miterlimit:4;stroke-dasharray:none;stroke-opacity:1">
      <title
         id="title275">Switzerland</title>
    </path>
  </g>
</svg>
