<?xml version="1.0" encoding="UTF-8" standalone="no"?>
<!-- Created with Inkscape (http://www.inkscape.org/) -->

<svg
   xmlns:dc="http://purl.org/dc/elements/1.1/"
   xmlns:cc="http://creativecommons.org/ns#"
   xmlns:rdf="http://www.w3.org/1999/02/22-rdf-syntax-ns#"
   xmlns:svg="http://www.w3.org/2000/svg"
   xmlns="http://www.w3.org/2000/svg"
   xmlns:sodipodi="http://sodipodi.sourceforge.net/DTD/sodipodi-0.dtd"
   xmlns:inkscape="http://www.inkscape.org/namespaces/inkscape"
   width="159.52306mm"
   height="89.227486mm"
   viewBox="0 0 159.52306 89.227486"
   version="1.1"
   id="svg31521"
   inkscape:version="0.92.0 r15299"
   sodipodi:docname="ukraine.svg">
  <defs
     id="defs31515" />
  <sodipodi:namedview
     id="base"
     pagecolor="#ffffff"
     bordercolor="#666666"
     borderopacity="1.0"
     inkscape:pageopacity="0.0"
     inkscape:pageshadow="2"
     inkscape:zoom="0.35"
     inkscape:cx="437.17517"
     inkscape:cy="500.04721"
     inkscape:document-units="mm"
     inkscape:current-layer="layer1"
     showgrid="false"
     fit-margin-top="0"
     fit-margin-left="0"
     fit-margin-right="0"
     fit-margin-bottom="0"
     inkscape:window-width="1920"
     inkscape:window-height="1017"
     inkscape:window-x="1912"
     inkscape:window-y="-8"
     inkscape:window-maximized="1" />
  <metadata
     id="metadata31518">
    <rdf:RDF>
      <cc:Work
         rdf:about="">
        <dc:format>image/svg+xml</dc:format>
        <dc:type
           rdf:resource="http://purl.org/dc/dcmitype/StillImage" />
        <dc:title></dc:title>
      </cc:Work>
    </rdf:RDF>
  </metadata>
  <g
     inkscape:label="Layer 1"
     inkscape:groupmode="layer"
     id="layer1"
     transform="translate(132.67819,-191.91001)">
    <path
       inkscape:connector-curvature="0"
       id="ua"
       class="landxx ua"
       d="m -132.56997,235.81072 c -0.30574,-2.02053 1.40904,-3.41229 2.23321,-5.09118 0.46525,-0.93981 0.18609,-2.22525 0.70451,-2.58016 0.50514,-0.3536 1.87432,0.10634 3.09726,0.97172 0.13295,-0.74708 -0.37219,-0.82551 -0.93049,-1.21498 -0.81088,-0.56098 -0.34563,-2.07637 -0.69124,-2.92313 -1.12989,-2.74631 1.15649,-4.58341 2.96433,-6.48696 1.5021,-1.56989 3.04407,-3.41628 4.91838,-4.55681 2.07369,-1.26814 4.57278,-2.15345 1.78127,-4.63126 0.54501,-0.23927 1.09001,-0.4945 1.62173,-0.76568 -2.33956,-0.53437 -5.63621,-5.5777 -5.47671,-7.88934 0.13295,-1.9913 2.85799,0.0532 3.96132,-0.52507 1.02354,-0.53837 1.94077,-1.33197 2.57883,-2.28107 0.81085,-1.19636 2.83138,-0.88266 4.02774,-0.88797 2.71178,-0.0134 5.45011,-0.24594 8.14859,-0.3496 2.40601,-0.0931 4.346777,0.77497 6.579993,1.33992 1.103307,0.27648 4.599357,-0.0798 5.383657,0.79092 0.824145,0.91191 1.608444,1.88361 2.977597,1.42767 1.183071,-0.39215 2.060424,0.73642 3.110544,1.00363 0.172818,-1.5965 0.797589,-0.69923 2.113585,-0.8481 0.98367,-0.10634 1.847736,-0.15953 2.685169,0.4586 0.611483,0.43866 1.488813,-0.37884 2.193348,-0.0798 0.677931,0.2805 0.704511,1.39179 1.435626,1.72143 -0.252558,-1.93677 2.087005,-2.57218 3.509341,-1.8158 1.5021,0.79491 1.422337,3.02679 3.642262,1.42499 0.638064,-0.46125 1.143201,-0.48253 1.874316,-0.11964 0.943804,0.47058 2.193322,-0.51842 3.243469,-0.28977 0.664642,0.14356 3.522631,3.54522 3.934714,1.76396 0.49185,-2.19866 -1.395756,-2.90981 -0.146211,-5.32648 0.890617,-1.71744 2.472484,-3.78583 4.559461,-2.75162 0.332322,0.16349 1.635025,-0.50115 1.940767,-0.57826 0.983697,-0.24192 2.366139,-0.21668 3.336546,0.0134 1.91416,0.46527 3.89482,1.01558 4.293614,-2.56554 4.931677,0.69256 3.801768,0.8933 7.085131,-0.17944 1.555285,-0.10634 3.150415,1.05412 4.825333,0.10635 0.943804,-0.53971 2.645303,1.31864 3.030803,2.25049 1.40905,3.37508 3.07065,2.39007 3.9613,4.23248 -0.70454,0.43997 -2.08701,0.44796 -2.63201,1.03284 -0.31903,0.34295 2.85798,3.52131 1.43562,4.36408 1.18307,0.40144 4.36009,1.57787 5.83561,0.77763 1.67492,-0.90924 2.67188,1.77062 4.46644,1.67358 0,0.51047 -0.81088,0.76168 2.43261,6.74485 1.48879,1.54596 2.84467,0.0532 3.88153,-0.0532 1.83442,-0.17813 3.6289704,1.76132 5.7824304,2.42996 1.38246,0 3.28336,-1.65895 6.07487002,-2.37943 1.59516,-0.41474 2.75164998,1.14052 3.25675998,2.22654 0.82417,1.76664 3.37642,2.14815 3.92143,3.72736 2.23322,-1.28542 1.22294,-2.17472 3.9347096,-0.75769 1.39576,0.73376 5.15766,2.3103 6.31415,0.95045 1.01025,1.99925 2.59211,0.80287 3.73531,2.15476 0.5583,0.66732 1.50211,1.09669 2.33957,1.30804 1.48881,0.37087 1.90087,-0.79226 2.99091,-0.39615 -1.3426,1.27747 1.62173,4.09425 -0.74441,5.8436 -0.67795,0.49847 -2.31298,0.27913 -1.71479,1.55261 0.79757,1.65895 2.53894,-0.36689 2.57883,1.72277 -1.12991,-0.34031 -3.0441,0.70319 -2.40603,2.13751 0.22597,0.49051 3.84166,1.72939 1.96736,3.09591 0.39878,0.32169 0.83744,0.41739 1.34258,0.28712 0.23926,0.7936 -0.69122,3.88553 -1.03686,4.45714 -1.1033,1.79587 -3.85495,0.29642 -5.60961,0.64602 -1.02356,0.20473 -1.90089,-0.47189 -2.89786,0.0665 -0.93051,0.50246 -0.97038,1.74935 -2.28637,2.196 -3.90814,2.27839 -2.21993,3.92008 -1.60847,3.9573 -0.73109,0.64337 0,1.70681 -0.86404,2.21993 -1.09002,0.62742 -3.8416596,-0.0134 -5.1443596,0.22198 -1.28942,0.23662 -1.46221,1.62042 -2.79152,1.72144 -1.56857,0.11963 -3.42957,0.94246 -3.82836998,2.63201 -0.7178,-1.20968 -2.37943002,-1.11528 -3.45615002,-0.49983 -1.82114,1.03554 -3.09726,0.5211 -5.01144,1.09534 -3.2036004,0.9624 -3.7220304,5.47138 -6.9522104,6.29421 0.13292,-0.55564 4.66583,-4.02777 1.06343,-4.49834 1.26284,1.81582 -1.15649,2.16144 -2.2465,2.89124 -0.38551,0.26451 0.67793,3.62498 0.62477,3.95065 -0.26587,-0.9252 -1.91419,-2.21992 -2.00724,-1.85569 -0.13292,-0.28581 1.22296,-0.97837 -0.45195,-1.66029 -1.24955,5.42219 -3.05739,-0.28581 -1.19636,1.10864 0.18608,-1.04351 0.13292,-2.41003 0.13292,-1.07807 0.13292,0.11963 -0.50514,0.26585 -0.89062,0.21004 -0.51843,-0.0798 -0.9438,-0.92787 -1.11662,0.58621 0.18611,0.0931 -1.64831,-2.10959 -1.62173,-1.94344 0.13292,0.91058 0.95709,1.56193 -4.28033,0.64339 0.30574,0.53303 1.51539,1.51009 2.8048,2.3143 0.13293,-0.58756 0.7577,-1.14053 1.56858,0.70718 -0.31903,-3.04275 3.88153,1.75201 3.97459,-0.0665 0.13292,0.1449 0.70453,1.04881 -0.54501,2.08302 l 1.78126,-1.06875 c -0.5849,0.97835 3.27005,2.65326 3.41628,2.84068 1.75466,2.22127 -1.18309,2.69051 3.48274,4.02378 -0.17282,-0.90259 -4.24045,-4.99681 -3.44287,-4.2471 0.63807,0.60618 2.21993,2.08966 2.91115,2.46718 0.67793,0.37618 1.3293104,0.65668 1.9141904,0.79491 0.57159,0.13826 1.09002,0.1356 1.5021,-0.0532 0.41208,-0.18745 0.73111,-0.55964 0.89062,-1.16048 1.03685,1.20035 1.7015,0.83746 2.88456,0.22067 1.58187,-0.82283 3.50935002,-0.0399 4.77218,1.02488 -1.51538998,0.20339 -1.48880998,0.93847 -1.47551998,2.20131 0,1.54864 -1.36918002,1.47686 -2.56554002,1.61243 -1.28941,0.14622 -1.99392,0.0931 -3.17699,-0.55963 -0.70454,-0.39347 -1.68821,-1.00894 -2.55225,-0.66995 -0.85075,0.33631 -0.38551,1.22958 -0.90393,1.43828 -1.2761304,0.50913 -2.0205304,1.77992 -3.3764004,1.97134 -1.83444,0.26056 -3.45618,0.0798 -4.87851,1.51673 -2.4592,2.47382 -7.01868,5.44346 -9.69056,1.00628 1.92747,0.43467 2.40603,-6.03898 -0.5583,-6.47498 -1.63503,-0.24195 -2.48578,-0.83347 -3.86824,-1.66029 -1.302706,-0.76968 -2.499067,-0.22199 -3.854954,-0.39216 -2.073714,-0.26188 2.552248,-3.34185 3.256764,-3.62763 1.42236,-0.56229 6.30085,-1.34924 6.73951,-3.06269 -1.20965,0.0399 -1.40904,-1.17112 -1.43562,-2.1056 -1.39576,0.78958 -1.05015,0.98499 -2.8447,0.093 -1.47552,-0.72713 -3.456158,0.0532 -5.077893,0.0798 -1.754682,0.0266 -2.857989,0.22067 -4.466433,-0.66864 -1.382467,-0.76434 -2.951041,-2.01254 -4.639226,-1.51938 4.998128,-1.97 -1.262832,-1.21763 -2.485797,-2.96698 3.123858,1.53267 7.31113,1.10199 9.943118,-0.86139 -1.781238,0.50779 -4.187272,1.38381 -5.782426,-0.18742 -1.183071,-1.18173 -0.279138,-3.19162 -1.581865,-4.4066 1.023567,1.32928 0.691245,2.59345 0.717826,4.07163 0,1.13122 -2.578828,0.41208 -3.203599,0.80954 -0.345612,-0.65669 -0.305742,-1.29475 0.132924,-1.91419 -0.770986,0.1635 -0.9172,1.20434 -1.302705,1.74935 -0.545008,0.76566 -2.113558,0.0399 -2.924437,0.18078 -3.469471,0.59951 -2.937754,3.89351 -4.958258,6.01239 -0.186108,-1.00628 -2.100294,-4.04105 -3.44289,-3.06269 0.49185,1.40639 2.685171,1.52737 3.097255,2.94041 0.491849,1.67092 -4.200562,4.7469 -5.396921,5.38762 1.090017,-0.72447 2.445904,-1.49015 2.778226,-2.87128 -1.262836,0.0931 -3.575815,4.29096 -3.841663,1.33992 -0.598191,0.66068 -1.43565,2.78886 0.478536,1.91287 -0.239268,0.30971 -0.451956,0.62874 -0.664644,0.95841 1.355889,0.19541 2.100294,2.77423 0.57159,3.25411 -0.425376,-4.09023 -3.815059,-2.15477 -5.689373,-1.69218 -2.406009,0.59286 -2.951019,2.35285 -5.662795,0.53172 -0.412083,-0.27782 -3.429574,-1.90489 -1.156488,-2.29436 2.33956,-0.40145 1.608444,-1.72277 2.725065,-3.12384 1.236229,-1.54464 2.671879,-2.75962 2.33956,-5.05399 -0.279162,-2.01254 -0.584904,-2.48976 1.900896,-3.39367 0.212686,0.58089 0.425374,1.15382 0.664642,1.72275 1.435626,-2.94571 5.38363,1.93013 7.523792,-0.33497 -0.930487,-0.28581 -1.302703,-1.12193 -2.180032,-1.48616 2.512354,-1.2522 -1.874316,-5.32648 -3.974584,-5.60961 0.545007,-0.85209 0.558297,-4.11683 -0.638061,-2.55624 -0.358926,0.47057 -1.621758,-3.20759 -1.874317,-3.5891 -0.651351,-0.97569 -0.850749,-2.02051 -1.54197,-3.08129 -1.767972,-2.66789 -0.970383,0.55696 -2.88457,-1.6417 -0.797589,-0.91985 -2.92446,-2.4605 -3.349836,-0.52505 -0.292426,-1.71746 -1.422337,0.43599 -1.741366,-1.22031 -1.954056,0.91723 -4.147402,-2.86728 -5.83561,-3.40166 -1.342576,-0.42537 -2.36614,1.89691 -6.314147,1.03022 -0.770985,-0.17017 -1.674891,0.0266 -1.409046,1.07538 -0.451953,0.57028 -1.754659,0.44266 -2.459194,0.61149 -0.691221,0.16218 -1.608444,0.48252 -1.874292,1.2389 -0.611481,1.74668 -1.528704,1.60047 -3.32323,1.76131 -2.219927,0.19939 -4.625957,-0.22598 -6.260987,1.60445 -2.39272,2.69715 -3.69545,-0.60749 -5.98182,-1.34523 -1.07673,-0.35228 -2.31298,0.0266 -3.403,0.15951 -1.36918,0.16218 -2.0604,-0.28712 -3.33652,-0.50646 -1.3027,-0.22201 -2.56554,0.21934 -3.73532,-0.59286 -1.94076,-1.35589 -2.20664,0.34961 -3.97458,0.8029 0,-2.0551 -2.00724,-1.24689 -3.03078,-2.37812 -0.73112,-0.79759 -1.1432,-0.4493 -1.84774,-0.97038 -0.79757,-0.58889 -0.97038,-1.46357 -2.11358,-1.72411"
       style="fill:#c83737;fill-opacity:1;fill-rule:evenodd;stroke:#000000;stroke-width:0.14449541;stroke-miterlimit:4;stroke-dasharray:none;stroke-opacity:1">
      <title
         id="title2181">Ukraine</title>
    </path>
  </g>
</svg>
