<?xml version="1.0" encoding="UTF-8" standalone="no"?>
<!-- Created with Inkscape (http://www.inkscape.org/) -->

<svg
   xmlns:dc="http://purl.org/dc/elements/1.1/"
   xmlns:cc="http://creativecommons.org/ns#"
   xmlns:rdf="http://www.w3.org/1999/02/22-rdf-syntax-ns#"
   xmlns:svg="http://www.w3.org/2000/svg"
   xmlns="http://www.w3.org/2000/svg"
   xmlns:sodipodi="http://sodipodi.sourceforge.net/DTD/sodipodi-0.dtd"
   xmlns:inkscape="http://www.inkscape.org/namespaces/inkscape"
   width="83.174545mm"
   height="101.83309mm"
   viewBox="0 0 83.174545 101.83309"
   version="1.1"
   id="svg14498"
   inkscape:version="0.92.0 r15299"
   sodipodi:docname="britain.svg">
  <defs
     id="defs14492" />
  <sodipodi:namedview
     id="base"
     pagecolor="#ffffff"
     bordercolor="#666666"
     borderopacity="1.0"
     inkscape:pageopacity="0.0"
     inkscape:pageshadow="2"
     inkscape:zoom="0.98994949"
     inkscape:cx="520.15166"
     inkscape:cy="238.95136"
     inkscape:document-units="mm"
     inkscape:current-layer="layer1"
     showgrid="false"
     fit-margin-top="0"
     fit-margin-left="0"
     fit-margin-right="0"
     fit-margin-bottom="0"
     inkscape:window-width="1920"
     inkscape:window-height="1017"
     inkscape:window-x="1912"
     inkscape:window-y="-8"
     inkscape:window-maximized="1" />
  <metadata
     id="metadata14495">
    <rdf:RDF>
      <cc:Work
         rdf:about="">
        <dc:format>image/svg+xml</dc:format>
        <dc:type
           rdf:resource="http://purl.org/dc/dcmitype/StillImage" />
        <dc:title></dc:title>
      </cc:Work>
    </rdf:RDF>
  </metadata>
  <g
     inkscape:label="Layer 1"
     inkscape:groupmode="layer"
     id="layer1"
     transform="translate(174.63489,-102.3832)">
    <path
       style="fill:#c83737;fill-opacity:1;fill-rule:evenodd;stroke:#000000;stroke-width:0.14449541;stroke-miterlimit:4;stroke-dasharray:none;stroke-opacity:1"
       d="m -174.57373,155.40385 c 0.81087,-1.28942 2.632,-1.26416 3.82836,-2.0099 -0.43866,-0.32301 -0.86404,-0.67528 -1.24953,-1.05413 2.45919,0.76701 3.40299,-1.97931 4.57277,-3.32323 1.1166,-1.27745 3.42958,0.40278 3.7619,-1.94077 2.16675,1.00362 4.87851,-1.49944 7.04526,-0.001 0.87733,0.60616 1.39576,2.02319 1.80784,2.93641 -0.13293,-0.16483 1.60844,1.79455 1.56856,1.44627 0,0.36955 -1.84772,1.29474 -2.10028,1.55262 0.66465,-0.0665 2.64529,-0.91456 3.08396,-0.0399 0.45196,0.88797 1.30271,2.69581 -0.21269,3.10257 0.23928,-0.94114 -0.13293,-2.19599 -1.34258,-1.91418 0.7444,0.43999 0.65135,1.21364 0.1861,1.81847 0.38549,-0.20471 0.71782,-0.17679 0.99697,0.0798 0.13293,0.65534 -1.39576,1.50343 -1.90089,1.5566 -1.30271,0.13692 -1.30271,2.31165 -2.88457,1.8424 -1.32929,-0.3948 -1.56857,-0.80954 -2.71176,-0.0665 -0.95709,0.63274 -2.53895,-0.0133 -2.11358,-1.31068 -0.53171,0.0266 -4.18727,-4.04903 -4.43984,-1.43298 -0.42537,4.62461 -6.10146,0.2499 -7.896,-1.24821"
       class="landxx gb eu"
       id="path2690"
       inkscape:connector-curvature="0" />
    <path
       style="fill:#c83737;fill-opacity:1;fill-rule:evenodd;stroke:#000000;stroke-width:0.14449541;stroke-miterlimit:4;stroke-dasharray:none;stroke-opacity:1"
       d="m -163.56718,126.4917 c -1.26283,-0.45196 -0.53172,-1.73605 0.5716,-2.1056 -1.62174,-3.16239 -3.24348,2.71176 -0.5716,2.1056"
       id="path2640"
       inkscape:connector-curvature="0" />
    <path
       style="fill:#c83737;fill-opacity:1;fill-rule:evenodd;stroke:#000000;stroke-width:0.14449541;stroke-miterlimit:4;stroke-dasharray:none;stroke-opacity:1"
       d="m -163.08863,122.18479 c 0,-0.29111 1.76796,-1.46621 0.98367,-1.70016 -0.87733,-0.2632 -2.97762,-0.42804 -2.89786,1.0302 0.71782,-0.0133 1.35588,0.20604 1.91419,0.66996"
       id="path2642"
       inkscape:connector-curvature="0" />
    <path
       style="fill:#c83737;fill-opacity:1;fill-rule:evenodd;stroke:#000000;stroke-width:0.14449541;stroke-miterlimit:4;stroke-dasharray:none;stroke-opacity:1"
       d="m -163.56718,123.24823 c 0.26586,-1.02356 0,-1.18307 -0.95709,-0.47855 0.31903,0.15952 0.63806,0.31903 0.95709,0.47855"
       id="path2644"
       inkscape:connector-curvature="0" />
    <path
       style="fill:#c83737;fill-opacity:1;fill-rule:evenodd;stroke:#000000;stroke-width:0.14449541;stroke-miterlimit:4;stroke-dasharray:none;stroke-opacity:1"
       d="m -161.55995,133.57684 c 0.42538,-0.38549 0.90392,-0.70452 1.43564,-0.95842 -0.77099,-0.17281 -1.27612,0.20338 -1.43564,0.95842"
       id="path2646"
       inkscape:connector-curvature="0" />
    <path
       style="fill:#c83737;fill-opacity:1;fill-rule:evenodd;stroke:#000000;stroke-width:0.14449541;stroke-miterlimit:4;stroke-dasharray:none;stroke-opacity:1"
       d="m -158.02402,117.02713 c 1.55527,2.15745 3.32323,-1.88361 1.54198,-1.24555 0.9305,-0.11963 4.02776,-1.41436 2.00723,-1.81714 1.78125,-0.80954 1.43564,-3.17568 -0.43867,-1.87696 -0.9305,0.63806 -2.02052,0.78694 -2.97762,1.35588 -1.02355,0.61812 -0.13292,1.69485 -1.46222,2.14813 0,-0.35226 0,-0.70319 -0.13293,-1.0528 -0.73111,0.14091 -1.36917,0.46127 -1.91418,0.9571 0.81087,0.57824 1.28941,1.20832 -0.13293,1.53134 0.69123,0.14755 1.32929,0.43468 1.91418,0.86006 -0.66464,0.30706 -1.30271,0.658 -1.91418,1.0528 1.05014,1.74802 3.2036,-0.76169 3.44287,-1.91286"
       id="path2648"
       inkscape:connector-curvature="0" />
    <path
       style="fill:#c83737;fill-opacity:1;fill-rule:evenodd;stroke:#000000;stroke-width:0.14449541;stroke-miterlimit:4;stroke-dasharray:none;stroke-opacity:1"
       d="m -159.45966,132.23425 c 0.73111,-0.24459 1.30271,-0.69123 1.72808,-1.34125 -0.73111,0.19009 -1.36917,0.67794 -1.72808,1.34125"
       id="path2650"
       inkscape:connector-curvature="0" />
    <path
       style="fill:#c83737;fill-opacity:1;fill-rule:evenodd;stroke:#000000;stroke-width:0.14449541;stroke-miterlimit:4;stroke-dasharray:none;stroke-opacity:1"
       d="m -157.34608,142.96166 c 1.58185,-0.7032 2.93773,-2.23588 0.78428,-3.43889 -1.38247,-0.77099 -2.14016,1.5473 -2.60542,2.38609 0.63806,-0.38949 1.30271,-0.70852 2.00724,-0.9571 0.13293,0.68858 0.13293,1.35854 -0.1861,2.0099"
       id="path2652"
       inkscape:connector-curvature="0" />
    <path
       style="fill:#c83737;fill-opacity:1;fill-rule:evenodd;stroke:#000000;stroke-width:0.14449541;stroke-miterlimit:4;stroke-dasharray:none;stroke-opacity:1"
       d="m -153.42467,127.35575 c 1.10332,-0.30441 2.85798,-1.28809 2.67188,-2.68119 -4.20057,1.48216 -2.41931,-3.59574 -4.67911,-4.40262 -0.23927,0.61679 -0.3722,1.25352 -0.3855,1.91285 -1.90089,-0.44531 -1.64832,0.75903 -3.07067,0.47855 -0.23927,1.92349 2.10029,0.72978 2.97762,1.62705 -2.18004,0.15686 0,1.51939 0.87734,1.51141 0.91721,0 1.95406,-0.47456 2.84469,-0.0798 -0.78429,0.18743 -1.30271,0.80688 -1.23625,1.62972"
       id="path2654"
       inkscape:connector-curvature="0" />
    <path
       style="fill:#c83737;fill-opacity:1;fill-rule:evenodd;stroke:#000000;stroke-width:0.14449541;stroke-miterlimit:4;stroke-dasharray:none;stroke-opacity:1"
       d="m -154.47481,204.12247 c 1.16978,0.26586 2.84469,-2.01654 3.74861,-2.73436 1.64832,-1.32132 4.8918,-0.22465 6.00841,-2.24252 0,1.23757 2.47248,2.43527 3.48275,2.5137 1.90089,0.14755 3.13713,-3.59973 3.12384,-5.00347 0.59818,1.11661 2.68517,0 3.44287,-0.28048 2.02053,-0.71117 4.08093,0.21535 5.55645,1.62174 0.13293,-1.23624 1.38246,-0.86271 2.20663,-0.7125 0.90392,0.16483 3.48275,-0.63274 1.05014,-1.10597 1.10331,0 8.06881,-0.0399 6.11475,-1.91419 1.16978,1.18972 2.64529,0.25922 4.02776,0.57559 0.35891,0.0665 0.51842,0.26985 0.47855,0.60084 0,0.56761 2.31297,-0.0532 2.29967,-0.0532 2.03382,-0.25788 3.97459,-0.35094 5.96853,0.23794 1.67491,0.4945 4.02776,-0.79226 5.67609,-1.22428 1.448929,-0.38151 1.76796,-0.86005 2.738344,-1.75201 1.050143,-0.95975 3.083962,-0.74706 3.70873,-2.19333 0.691233,-1.60446 -6.792694,-1.82645 -7.576974,-1.93412 0.53172,-0.14224 1.05014,-0.33499 1.54198,-0.57559 -0.97038,-0.22465 -1.99394,-0.46259 -2.87127,0.19275 0.86404,-0.9212 2.03381,-0.55432 3.12384,-0.76435 1.821129,-0.35492 1.754664,-2.19599 -0.13293,-2.39405 0.70452,0.14622 1.156482,-0.44266 1.714786,-0.71516 1.103314,-0.54103 1.940769,0.56362 3.163719,-0.53039 -0.305737,-0.65667 -0.810869,-1.03951 -1.528688,-1.14851 0.757698,-0.14224 2.592123,-0.0266 0.571597,-0.76435 2.791517,0.83746 3.190305,-0.96772 4.373376,-2.95502 1.555274,-2.57617 1.276123,-5.06594 -1.714789,-6.54677 -1.728082,-0.85872 -5.689378,-2.05775 -7.390871,-0.58888 -0.59818,0.50381 -0.79758,1.59516 -1.58186,1.85836 -1.19637,0.40011 -1.91419,-1.52204 -3.16372,-1.24422 1.55527,-2.34621 4.75887,-2.49243 2.0737,-5.92068 -2.21992,-2.83804 -4.66583,-2.67188 -7.80296,-3.07731 2.08699,-0.90259 5.78243,-0.11964 7.45734,1.24555 -0.3855,-1.33594 -4.65253,-4.99948 -1.62174,-5.83959 -1.96735,-0.50248 -2.33956,-2.47781 -3.64226,-3.73266 -1.22295,-1.17244 -3.09726,-1.13522 -4.62595,-1.37449 -2.56553,-0.40145 -3.27006,-6.51221 -3.42957,-8.49419 -0.26586,-3.29798 -4.39997,-6.15596 -7.56369,-6.73553 -0.82416,-0.15154 -1.52869,-1.3067 -2.4326,-0.49583 -0.5716,0.52375 -1.11661,0.77498 -1.9009,0.76302 -2.0604,-0.0266 -4.91838,0.0931 -6.46036,-1.56059 3.20359,2.38209 5.38364,-0.95842 8.61382,-0.95842 1.83443,0 1.18307,-1.41836 0.21269,-2.18005 -1.36917,-1.07672 -2.75164,0.63408 -4.24045,0.45728 3.7752,-0.7351 6.85916,-2.49242 9.29176,-5.48732 1.09003,-1.34658 1.42235,-2.93774 2.35285,-4.31622 0.63807,-0.95842 2.40603,-1.58186 1.91419,-2.99889 -0.90392,-2.55756 -5.95524,-1.58053 -8.05552,-1.34657 -2.18004,0.24326 -4.28033,-0.61547 -6.4072,0.0133 -1.78125,0.53571 -3.81507,1.64832 -5.59633,1.974 0.26586,-0.90924 1.316,-0.99032 1.62174,-1.91418 -1.05014,-0.0931 -1.99394,0.40012 -2.96432,0.66996 1.15648,-1.18839 4.06764,-0.36289 4.59935,-2.19998 -1.38246,-0.32302 -3.03079,0 -4.21386,-0.95842 2.27309,0.86936 1.83443,0.29776 3.32324,-0.69921 1.22295,-0.82283 2.69846,-1.16978 3.948,-1.96204 0.50513,-0.32567 7.00538,-4.56612 3.61568,-5.24805 -2.06041,-0.41607 -4.62594,0.57824 -6.64647,0.97039 -1.11661,0.21933 -2.31297,0.49449 -3.45616,0.40144 -0.29245,-0.0266 -0.67794,-0.0798 -0.86405,-0.32302 -0.31903,-0.39745 -1.66161,0.60749 -2.12687,0.83214 1.02356,-1.66427 0.13293,-0.51576 -0.61147,-0.96108 -0.29245,-0.17812 -0.79758,-0.82283 -1.20966,-0.72712 -0.83745,0.19408 -0.51842,2.63067 -1.71479,3.21955 0.3722,0.19939 1.14319,0.4719 1.14319,0.86138 -2.89786,-1.33062 -2.02052,1.83177 -3.44287,2.29702 0.73112,0.30308 1.3293,0.89063 1.62174,1.62839 -0.9305,0.36289 -4.26703,-0.88 -4.01447,1.05147 -0.29244,-1.77461 -2.4459,1.23358 -0.13292,2.68118 -0.63807,-0.0797 -1.27613,-0.11963 -1.91419,-0.093 -0.14622,1.85304 1.38247,1.86234 2.77823,1.72277 -0.70453,0.22199 -1.34259,0.57292 -1.91419,1.0528 0.85075,-0.31637 1.79455,-0.13825 2.29968,0.67129 -1.24953,-1.44627 -2.92445,1.33727 -0.13293,1.14718 -0.29244,0.10635 -4.87851,0.30574 -1.71479,1.43564 -1.36917,-1.22428 -2.91115,1.06742 -1.05014,1.43564 -0.77099,-0.10635 -1.22295,0.28048 -1.24954,1.0528 -1.03684,-0.4945 -2.37943,-0.36822 -3.25677,0.38283 1.5154,0.3536 3.61568,-0.66065 4.97156,0.28713 -1.07672,-0.49449 -1.78125,0.78163 -2.87127,0.28713 0.90392,3.94269 5.79572,-0.83878 7.37758,-1.72276 -0.62477,0.69256 -0.99697,1.78922 0.5716,1.1485 -0.77099,0.15553 -4.78546,1.98331 -2.19334,1.72277 -0.31903,0.31504 -0.65135,0.6354 -0.97038,0.95709 0.69123,0.0399 1.35588,-0.0266 2.02052,-0.19142 -0.39878,0.21402 -2.20662,0.28846 -2.31297,0.43202 -0.33232,0.40677 -0.82416,0.75371 -1.26283,1.03154 -0.50513,0.32567 -0.14622,1.25352 -0.21268,1.77062 0,0.55963 -2.68518,4.21253 -0.42538,1.55128 -1.1299,0.78694 -0.9305,3.76323 0.66465,2.39273 -1.75467,0.98899 -1.80784,2.89786 -2.95103,4.34679 -0.81087,1.01425 1.71479,1.7653 1.96735,-0.26054 0.1861,-1.45026 2.11358,-3.13049 1.62174,-4.51295 -0.69123,-1.96603 2.2598,-3.16904 3.48275,-3.87888 -0.81087,0.70984 -2.96433,1.78923 -2.73835,3.15308 0.15952,0.64471 0.53172,0.80555 1.11661,0.48254 0.31903,0.61546 0.73111,1.15914 1.23624,1.62838 0.22598,-0.81486 -0.25256,-1.62705 -0.95709,-2.00989 0.7577,-1.01824 1.15649,-0.34562 1.34259,0.47722 1.34259,-1.19238 0.41208,-3.47611 2.00723,-3.15841 -0.66464,0.55698 -0.75769,1.19504 -0.27915,1.91419 -0.19939,-1.80917 0.90392,0.10634 2.00724,0.57425 -0.74441,-0.0399 -2.4592,-0.67794 -2.77823,0.42139 -0.61147,2.10294 0.79758,2.06572 1.46222,3.55187 1.11661,2.53231 -4.58606,4.00649 -3.46945,7.03329 -0.13293,-0.21401 -1.38247,-1.37183 -1.55528,-0.71383 -0.33232,1.2615 1.71479,2.98693 2.41932,3.77653 -0.74441,-2.20264 0.13293,-2.63865 2.19333,-1.70416 1.7015,0.77232 2.03382,0.71649 2.10029,-1.35721 1.99394,1.96736 3.23018,1.17909 5.4634,0.53172 0.69123,-0.20072 1.76796,-0.42404 1.62173,-1.3931 1.52869,0.18743 3.07067,0.0798 4.59936,0.19142 -1.71479,1.14319 -3.78849,1.29207 -4.78546,3.35115 -0.62476,1.30271 0.55831,5.66013 2.48578,4.59404 -0.27915,0.71915 -0.14622,1.35721 0.3855,1.91285 0.41208,-0.54102 0.7577,-1.11394 1.05014,-1.72143 0.27915,1.17775 1.28942,0.59552 1.91418,0.19142 -0.62476,0.8534 -0.61147,1.94209 -1.34258,2.87127 -0.41208,0.53969 -2.11358,2.74366 0.19939,2.39273 -2.32626,1.16047 -1.59515,5.13905 1.23624,4.2112 -1.28941,0.9438 -5.21083,-2.6639 -3.24347,1.24422 -2.6453,-2.25714 -6.42049,0.0798 -9.29177,0 1.06344,-1.30404 -2.27309,-2.52167 -3.12384,-1.80518 -1.71479,1.44893 1.07673,3.47743 2.73835,1.99793 -1.55528,1.75068 -3.7752,2.77424 -5.26401,4.59404 1.94077,0.15154 3.70873,-2.0418 5.6495,-1.0528 -0.47854,0.7989 0,1.58452 0.67794,2.00989 -1.14319,0.52906 -0.83745,1.99926 0.47855,1.81848 -1.07673,0.15419 -1.15649,1.1844 -1.56857,1.97798 -0.54501,1.04084 -1.91418,1.66295 -2.95103,2.04845 -2.31297,0.85606 -5.6495,1.44228 -7.16489,3.34317 0.82416,0.32967 1.12989,1.01558 0.47854,1.72277 1.03685,0.218 2.0737,0.0931 2.77823,-0.76568 -0.49184,0.92253 -1.50211,1.21631 -2.48578,1.14851 1.3027,1.64833 5.27729,-0.22731 6.60659,-1.14851 0,1.38646 1.52868,1.43564 2.48578,1.14851 -0.39879,0.58888 -0.9438,0.74839 -1.63504,0.47855 0.26586,1.66294 1.50211,0.85208 2.48578,0.39214 1.5154,-0.70586 2.35285,1.6244 3.66886,2.20264 2.41931,1.0528 2.8181,-1.1299 4.78545,-1.4157 2.15346,-0.31238 3.61568,-1.43298 5.33047,-2.71176 -1.63503,1.96736 -3.948,3.32722 -5.74255,5.1683 -0.46525,0.47987 0.22598,1.05811 -0.77099,1.18573 -1.11661,0.14356 -2.2598,0.21268 -3.37641,-0.0133 -1.58185,-0.327 -4.24044,-0.876 -5.75584,0.0399 -0.91721,0.54767 -0.97038,1.6337 -1.90089,2.19068 -1.27612,0.76567 -1.52869,-1.13788 -1.98065,1.13123 -0.1861,0.91189 -2.4326,4.36274 -3.58909,4.09954 -0.71782,-0.16217 -0.90392,-0.13293 -1.16978,0.66465 -0.43866,1.26947 -2.23321,1.84639 -3.34982,2.30499 -0.90392,0.36556 -1.8876,0.76302 -2.65859,1.37715 -0.30573,0.25257 0.13293,1.12857 0.43867,1.05413 1.19637,-0.26187 2.65859,-1.29739 3.25677,0.42538"
       id="path2656"
       inkscape:connector-curvature="0" />
    <path
       style="fill:#c83737;fill-opacity:1;fill-rule:evenodd;stroke:#000000;stroke-width:0.14449541;stroke-miterlimit:4;stroke-dasharray:none;stroke-opacity:1"
       d="m -156.10984,128.21979 c 0.1861,-0.093 0.3722,-0.19142 0.57159,-0.28713 -0.25256,-0.91057 -0.89062,-1.06742 -1.52868,-0.38284 0.31903,0.22332 0.63806,0.44665 0.95709,0.66997"
       id="path2658"
       inkscape:connector-curvature="0" />
    <path
       style="fill:#c83737;fill-opacity:1;fill-rule:evenodd;stroke:#000000;stroke-width:0.14449541;stroke-miterlimit:4;stroke-dasharray:none;stroke-opacity:1"
       d="m -156.20289,135.30492 c 1.67491,-0.11963 3.24348,-0.81087 4.87851,-1.14851 -0.33233,-1.80385 -4.13411,-3.57048 -5.26401,-1.62705 0.77099,0.0665 1.40905,0.37885 1.91419,0.95709 -0.66465,0.51311 -1.58186,1.25352 0.19939,0.95709 -0.69123,0.0665 -1.26283,0.35891 -1.72808,0.86138"
       id="path2660"
       inkscape:connector-curvature="0" />
    <path
       style="fill:#c83737;fill-opacity:1;fill-rule:evenodd;stroke:#000000;stroke-width:0.14449541;stroke-miterlimit:4;stroke-dasharray:none;stroke-opacity:1"
       d="m -154.56786,140.56893 c 0.81087,-1.25087 2.21992,-2.2731 2.48578,-3.82837 -1.27612,0.76434 -1.98065,2.25448 -3.34982,2.86995 0.25256,0.35492 0.53172,0.67395 0.86404,0.95842"
       id="path2662"
       inkscape:connector-curvature="0" />
    <path
       style="fill:#c83737;fill-opacity:1;fill-rule:evenodd;stroke:#000000;stroke-width:0.14449541;stroke-miterlimit:4;stroke-dasharray:none;stroke-opacity:1"
       d="m -153.42467,124.09898 c 0.29245,-0.64072 0.47855,-1.31069 0.5716,-2.01123 -0.59818,0.55565 -0.79758,1.22561 -0.5716,2.01123"
       id="path2664"
       inkscape:connector-curvature="0" />
    <path
       style="fill:#c83737;fill-opacity:1;fill-rule:evenodd;stroke:#000000;stroke-width:0.14449541;stroke-miterlimit:4;stroke-dasharray:none;stroke-opacity:1"
       d="m -148.25371,144.49034 c 1.27612,-0.51709 0.87733,-3.25278 -0.58489,-3.1584 -1.7015,0.10635 -0.91722,3.25411 0.58489,3.1584"
       id="path2666"
       inkscape:connector-curvature="0" />
    <path
       style="fill:#c83737;fill-opacity:1;fill-rule:evenodd;stroke:#000000;stroke-width:0.14449541;stroke-miterlimit:4;stroke-dasharray:none;stroke-opacity:1"
       d="m -128.54029,108.59941 c 0.18611,-0.77232 0,-1.54065 -0.95709,-1.62839 -0.19939,0.77764 0.25257,1.36519 0.95709,1.62839"
       id="path2670"
       inkscape:connector-curvature="0" />
    <path
       style="fill:#c83737;fill-opacity:1;fill-rule:evenodd;stroke:#000000;stroke-width:0.14449541;stroke-miterlimit:4;stroke-dasharray:none;stroke-opacity:1"
       d="m -128.54029,106.49912 c 0.99697,0.9026 3.65556,1.35721 4.49302,0 -1.03685,-0.0665 -2.80481,0 -3.17702,-1.28409 -0.30573,-1.03951 -2.92444,-0.0266 -1.316,1.28409"
       id="path2672"
       inkscape:connector-curvature="0" />
    <path
       style="fill:#c83737;fill-opacity:1;fill-rule:evenodd;stroke:#000000;stroke-width:0.14449541;stroke-miterlimit:4;stroke-dasharray:none;stroke-opacity:1"
       d="m -126.24061,109.07795 c 0.31903,-0.31371 0.47855,-0.69655 0.47855,-1.14851 -1.02356,-0.0665 -1.18307,0.31106 -0.47855,1.14851"
       id="path2674"
       inkscape:connector-curvature="0" />
    <path
       style="fill:#c83737;fill-opacity:1;fill-rule:evenodd;stroke:#000000;stroke-width:0.14449541;stroke-miterlimit:4;stroke-dasharray:none;stroke-opacity:1"
       d="m -125.19047,103.81395 c 0.13293,-0.65933 -0.13292,-1.10597 -0.77099,-1.33993 -0.34561,0.75371 0,1.2389 0.77099,1.33993"
       id="path2676"
       inkscape:connector-curvature="0" />
    <path
       style="fill:#c83737;fill-opacity:1;fill-rule:evenodd;stroke:#000000;stroke-width:0.14449541;stroke-miterlimit:4;stroke-dasharray:none;stroke-opacity:1"
       d="m -123.66178,104.2925 c 0.55831,-0.45595 1.16978,-0.83879 1.82114,-1.14851 -0.85075,-0.11964 -1.52869,0.37885 -1.82114,1.14851"
       id="path2678"
       inkscape:connector-curvature="0" />
    <path
       style="fill:#c83737;fill-opacity:1;fill-rule:evenodd;stroke:#000000;stroke-width:0.14449541;stroke-miterlimit:4;stroke-dasharray:none;stroke-opacity:1"
       d="m -119.06242,197.70198 c 0.82416,-0.0798 1.54198,-0.57027 2.00723,-1.24555 -1.56856,-0.87069 -2.45919,-0.59419 -3.92141,0.28713 0.67794,0.22997 1.316,0.549 1.91418,0.95842"
       id="path5354"
       inkscape:connector-curvature="0" />
  </g>
</svg>
