<svg xmlns="http://www.w3.org/2000/svg" width="586.501" height="1427.399" viewBox="0 0 155.1783 377.66589"><g class="landxx coastxx ar" transform="matrix(1.3293 0 0 1.3293 -1008.09 -1260.115)" fill="#cbe6a3" fill-rule="evenodd" stroke="#000" stroke-width=".109"><title>Argentina</title><path d="M837.41 1097.5c.118-.5-.119-.57-.71-.22.236.1.473.15.71.22M838.64 1099.01c.06-.85-.814-1.27-1.51-.87.455.38.958.67 1.51.87"/><path class="landxx ar" d="M758.65 1012.75c.137-.72.965-.89 1.13-1.57.224-.91-.312-2.26-.27-3.25.119-2.79 1.672-3.94 2.687-6.31.66-1.54.65-3.13 1-4.73.171-.79.359-1.68.81-2.36.451-.68 1.291-.13 1.992-.45 2.98-1.38-.09-3.19-1.09-4.75-1.136-1.78.873-2.9.241-4.63-.45-1.23-3.986-7.55-.959-7.66-.306-.78-1.928-2.61-1.69-3.38.561-1.81 1.733-3.09 3.448-3.85 1.516-.67 3.96-1.27 4.684-2.95.727-1.68.604-3.94.894-5.74.115-.7-.109-2.72-.412-3.43-.207-.48-1.332-.16-1.214-.67.614 0 2.398-4.435 4.234-5.358 2.018-1.009 2.132-1.217 2.368-3.639 1.626.326 2.452 1.98 3.908 2.62 1.675.736 3.642-.205 5.391.06 4.162.636 3.989 3.803 6.111 6.757.139-1.33.109-2.602.646-3.863.289-.68.761-3.104 1.457-3.381.53-.211 1.525-.103 2.147-.257 1.145-.283 2.46-.06 3.628-.06.691 0 2.218-.373 2.437.409.296 1.056 2.417 2.314 3.191 3.088.893.893 1.52 1.015 2.077 2.184.438.91 1.009 1.82 1.634 2.62 1.446 1.84 3.868 3.14 5.754 4.49 1.081.78 1.601 1.87 2.589 2.69.917.77 2.185.72 3.247 1.14 1.432.57 2.369.94 3.959.94 1.206 0 2.065 1.1 3.061 1.61 2.582 1.33 4.6 3.84 7.453 4.75.839.27 1.839.36 2.512.98.979.91 1.403.38 2.405.98.967.58 2.249.67 2.974 1.58.512.65 1.08 1.24 1.586 1.9.999 1.29-.895 2.65-1.149 4.15-.38 2.23-2.375 2.82-1.914 5.44.422 2.4-1.362 3.14-1.883 5.18-.259 1.02-.618.66-.07 1.87 1.468-.57 3.038-.58 4.567-.28 2.705.52 5.244 2.11 7.893 1.25.831-.27 1.226 1.01 2.083.39.824-.58 1.704.76 2.377 1.02.469-.98.542-2.33 1.87-2.52 1.017-.14 1.539 1.02 2.42.9 1.397-.18 1.177-1.87 1.519-2.8.393-1.07 2.659-.96 2.546-1.58-.04-.2 1.303-2.13 1.46-2.11.994.17.801-2.16.919-2.98.235-1.64.212-3.42-.209-5.03-.43-1.63.6-1.07 1.495-.51.203-1.3 1.93-1.17 2.842-.85 1.579.56 1.904 2.2 2.421 3.61.73 2.01.937 3.14.995 5.29.03 1.13.312 2.14.142 3.27-.1.57-.191 1.14-.28 1.71-.357-.13-.697-.1-1.019.11-1.193.68-1.964 1.58-3.263 2.11-.649.26-2.791 1.01-2.867 1.88-.117 1.32-1.573 1.44-2.465 2.01-.519.33-.611 1.05-1.058 1.49-.652.65-1.483 1.12-2.069 1.83.601.21.862.72.57 1.3-1.324-1.36-3.936 4.08-4.679 5.14-1.295 1.85-1.635 5.62-4.055 6.6-1.089.44-1.009 1.91-1.54 2.78-.281.45-.718.72-1.247.81.298.78.02 1.8-.556 2.31-1.626 1.44.333 1.63.49 3.17.08.76-.402.9-.438 1.5-.04.71.05.89.122 1.59.07.7 0 1.33-.312 1.97-.638 1.27.575.61.466 1.84-.138 1.56-1.032 1.85-.739 3.56.251 1.46 1.125 2 .651 3.48-.428 1.34.479 2.98 1.145 4.09 1.16 1.94-1.45 1.23-1.348 2.36.134 1.47-.739 2.96-.05 4.45.387.83 3.513 5.32.997 5.18 1.141.93 1.264 2.13 2.629 2.98 1.484.93 2.961 1.65 4.547 2.38 2.588 1.2 6.22 3.23 4.816 6.43-1.011 2.3 2.042 6.95 4.793 5.8 1.085-.45 1.564 2.81 1.792 3.4.681 1.75-.491 3.72-1.206 5.28-.658 1.45-2.344 3.5-2.394 5.09-.05 1.69.111 2.19-1.449 3.3-2.826 2.02-6.069 3.05-9.434 3.73-4.061.82-7.996 2.01-12.162 2.2-1.608.1-2.957 0-4.536-.1-1.801-.17-3.02-1.31-4.747-1.54.24.47.563.87.966 1.21.445.4-.05 1.29.207 1.79.142.28 3.424 2.71 1.347 1.9.957.7 1.413 1.2 1.624 2.39.152.86.283 2.28-1.044 1.57.197.87.445 1.76.413 2.66-.02.72-.771 1.35-.231 2 .394.48.941.81 1.396 1.21.693.63.334 1.63 1.302 1.11-.59 3.54-4.185 4.07-7.161 4.34-3.947.36-7.177-2.31-11.059-2.9 1.607-.31-.08-.89-.593-.63-.678.35-1.085 1.22-1.114 1.96-.08 2.11 2.5 3.65 2.895 5.73.321 1.69.36 3.78 2.237 4.5.958.36 3.59.57 2.846 2.19.4.1 4.097.52 3.848-.44-.203-.79-1.91-.82-2.488-1.14 1.23.19 1.888-1.08 3.03-1.15 1.177-.1 2.392 1.57 2.59 2.59.184.95 1.38 2.34.72 3.31-.457.68-2.14.89-2.866.8-1.209-.15-1.013-1.52-1.613-2.12-.983-.98-2.331-1.38-3.534-.57-3.186 2.13 2.071 3.87 3.913 3.4-.154 1.01-1.226 1.34-2.033 1.67-1.594.66-1.528 1.38-2.145 2.8-.641 1.48-.743 1.98.275 3.36.353.48.847 1.06.908 1.69-.119.42-.127.84-.02 1.26.426.4.651.88.674 1.46-.05.27.09 1.25-.309 1.36-.563.15-1.336.39-1.415 1.1-.132 1.18 1.667 1.37 1.475 2.3-.21 1.02-7.369-.43-5.835 2.17-3.091-.66-3.91 3.05-4.337 5.31-.717 3.77 1.761 5.27 4.603 7.19 1.396.94 2.602 2.19 4.166 2.88 1.993.87 4.405-.31 6.295.81 2.641 1.56 3.044 6.8-1.076 6.27.759.3 1.304-.37 2.02-.43 1.088-.1 1.515.65 2.16 1.37-.63.1-.834.44-.51 1-1.188-.25-3.579 2.82-4.315 3.55-.964.95-1.707 1.88-2.42 3.04-.481.79-.949 1.26-.906 2.23.03.77.113 1.5-.569 2.06.587.1 1.048-.22 1.16-.8.07 2.14 2.428 5.85-.772 6.87-2.357.76-3.113-2.83-5.138-3.19.521.19 1.895 1.24 1.44 1.94-.337.51-1.721.1-2.23.5 1.973-.81 2.809.5 4.54.87-.214 1.32-2.303 1.25-2.784 2.72-.647 1.98.744 3.26-.386 5.27 1.46-1.82 3.575 2.16 4.106 3.2.816 1.6-2.498.66-3.316 1.34.858-.29 2.877.52 3.244.31 1.181-.7 2.095.89 2.995 1.6 1.746 1.39 3.614 2.39 4.421 4.42-.424-.73-1.396-.69-2.112-.77-1.283-.14-2.455-.83-3.681-1.19-3.089-.9-6.415-1.28-9.617-1.28h-4.258c-1.194 0-3.709.48-4.74-.16-1.607-1.01-2.958-3.25-5.042-3.51.656-.97.05-2.54-.781-3.15-1.102-.8-.248-1.85-.841-2.83-.366-.61-1.5-2.19-2.402-1.78-.706.32-1.319-.13-2.026 0-.524.13-.798.76-1.247 1.02-.948.54-2.289-1.97-2.586-2.57-.591-1.18-2.97-1.99-3.16-3.2-.1-.63-.435-.65-.719-1.18-.225-.42-.04-.96-.208-1.41-.235-.64-.987-.87-1.22-1.51-.262-.73-.04-1.49-.15-2.23 1.202.19 1.292-.51 1.59-1.44.17-.53-.149-.97.28-1.44.381-.42 1.128-.13 1.521-.58.775-.9-.06-2.37-.656-3.16-.691-.91 1.127-.98 1.226-1.73.109-.83-1.106-1.87-1.696-2.29-1.199-.85-1.374-1.39-1.366-2.84 0-.99.245-4.51 1.982-4.24-.351-.79-1.319-.87-1.278-1.7.03-.53-.521-.96-.286-1.52.167-.39.593-.59.784-.98.784-1.59-1.914-4.06-3.03-4.87.978 0 1.564-1.91.49-2.22-.767-.21-2.012-1.98-1.192-2.73.697-.65.914-.22 1.403-1.26.414-.88.556-.9-.229-1.66a18.38 18.38 0 0 0-2.237-1.84c-1.111-.8-2.681 0-3.693-1.07-.859-.94 4.718-.54 5.168-1.17-.249.35.02-1.83.14-1.51-.845-2.37-4.677 0-5.615-2.28-.235-.37-.465-.76-.688-1.14-.16-.62.797-1.18.383-1.77-.527-.75-1.843-1.18-1.105-2.01.922-1.05-3.644-1.86-1.993-3.34.883-.8-.227-1.44-1.034-1.57-1.537-.27-2.132-.84-2.61-2.33-.365-1.14-.404-2.49-.799-3.56-.3-.82-1.521-1.51-.358-2.33.721-.51 1.981-.1 1.071-1.32-.776-1.05-2.465-2.5-2.317-3.92.255-2.46-2.272-4.74-2.697-6.97-.172-.9-.109-2.1.301-2.91.654-1.3-1.192-1.62-1.398-2.71 1.715.58.608-1.91.115-2.48-.994-1.15-.708-1.72.675-1.77-.878-.86-.427-3.35-.833-4.54-.624-1.82 1.202-2.17 2.308-3.18 1.204-1.09-1.408-2.84-1.774-4.19-.463-1.7-3.098-3.77-2.83-5.45.18-1.13-.95-3.86-1.476-4.94-.563-1.16-.855-3.71.06-4.72.495-.54.941 0 1.237-.61.222-.5.171-1.22.547-1.63.297-.33 1.085-.54 1.126-1.03.1-1.18-.323-2.42-.776-3.48-.383-.9-.849-1.76-1.285-2.63-.107-.21-.986-.79-.987-.89 0-.79.969-.44 1.067-1.33.1-.88-.08-1.76-.162-2.63-.08-.85.124-4.81 1.411-4.58 1.246.23-.518-2.9-.623-3.15-.487-1.17.136-5.18-1.236-5.63-.779-.25-.307 1.02-1.377-.31-.785-.98-.562-1.45-.395-2.54.131-.85-.486-1.16-1.064-1.58-.748-.54-.504-1.06-.742-1.83-.522-1.69-2.222-2.73-2.709-4.43 1.61.74-.178-1.46-.794-1.78-1.472-.75-1.965-3.16-2.028-4.61-.08-1.78 1.28-1.12.892-3.02-.284-1.39 1.125-3.93.13-5.06 2.434 1.62 1.515-2.58 1.186-3.48-.482-1.31-2.756-4.78-1.98-6.04M835.54 1212.48c1.457 1.32 3.289 2.22 4.399 3.89-1.003-1.84-3.31 1.38.507 1.42 1.429 0 1.863 1.6 2.776 2.42 1.12 1 2.766 1.25 3.815 2.18 2.776 2.48 6.803 3.63 10.167 5.17 1.532.7 3.759 1.57 5.459 1.52.837 0 1.666-.19 2.506-.16 1.183.1.917 1.3.61 2.28-.949-.52-2.064.39-3.184 0-1.222-.48-2.906 1.09-4.439.77-1.721-.37-3.221-.79-5.007-.84-1.991-.1-4.54 0-6.41-.75-1.203-.5-1.929.73-2.96-.79-.947-1.4-1.482-3.15-2.241-4.65-2.05-4.08-4.268-8.19-5.998-12.42"/><path d="M869.96 1231.13c.981-1.21 3.125-.88 4.46-1.37-1.813-.46-3.503.15-5.18.79.219.22.46.42.72.58"/></g></svg>