<svg xmlns="http://www.w3.org/2000/svg" width="483.782" height="575.224" viewBox="0 0 128.0006 152.19458"><g class="landxx bo" transform="matrix(1.3293 0 0 1.3293 -986.38 -1120.953)" fill="#cbe6a3" fill-rule="evenodd" stroke="#000" stroke-width=".109"><title>Bolivia, Plurinational State of</title><path d="M742.086 854.279c1.907.124 3.823.289 5.725.432.872.06.425.21.555.73.235.94 1.591-.02 1.972-.188.44-.191 1.315-.373 1.598-.819.435-.686.574-1.656 1.226-2.193 1.444-1.189 2.594.728 3.379-1.189.683-1.669 2.805-1.748 4.116-2.673 1.221-.862 1.84-2.643 3.356-3.085 1.809-.527 3.83-1.384 5.75-1.117 2.125.296 1.655.488 3.064-.838 3.055 2.112-.221 6.135.667 8.849.222.68.784 1.069 1.02 1.67.264.673-.384 1.367-.541 1.979-.467 1.827 1.316 2.811 1.72 4.172.291.98.199.866 1.043 1.585.523.446.392 1.557.875 1.837.65.377 1.011.04 1.704.61.663.543 1.302.858 2.07 1.478.104.08.527 1.006.7 1.195.514.565 1.045.717 1.762.885.974.229 1.738.627 2.695.09.785-.436 1.349-.23 2.062.267.579.403 1.061.93 1.659 1.309.826.522.985-.562 1.645-.37 1.245.362 1.281 2.699 2.896 2.88 1.411.158 2.392 1.276 3.791 1.352 1.94.105 2.224 2.98 3.845 3.397 1.333.343 2.614.118 3.927-.08 1.865-.285 3.751 1.198 5.298 2.074 2.533 1.435.914 2.8 1.828 4.877 1.007 2.289 1.39 4.308 1.885 6.743-.625-.02-1.249 0-1.87.07.08 1.774 2.339 2.8 2.637 4.707.223 1.425.07 3.097.692 4.424.791 1.681 3.87 1.109 5.384 1.259 2.849.282 5.806.696 8.637.05.04 1.269-.701 2.044-.797 3.189-.08.945.305 2.141.55 3.054.388 1.442 2.072 3.687 3.64 3.979.799.149 1.219-.384 1.58.624.274.765.638 1.469.943 2.225.803 1.986 1.844 3.092 1.384 5.246-.231 1.083-1.139 2.945-.765 4.054.526 1.561-.588 2.89-1.192 4.393-.815 2.026-.857 2.954.791 4.344 1.225 1.033-.74 1.674-1.594 2.303.591-1.953-1.869-4.153-3.402-5.131-1.609-1.027-3.424-1.829-5.278-2.226-5.134-1.098-10.488 1.768-15.377 2.273-2.394.247-3.587.483-3.971 3.063-.32 2.144-1.869 3.321-2.218 5.401-.328 1.958.513 3.867.113 5.889-.567 2.868-.71 5.99-1.404 8.83-2.188-1.402-1.27-2.35-3.257-2.265-1.545.07-3.426-.306-4.871.178-1.724.577-1.623-.761-2.54 1.573-.785 1.997-1.066 3.709-1.285 5.817-2.188-3.046-1.827-5.995-6.033-6.667-1.713-.274-4.219.543-5.744-.199-1.335-.65-2.108-2.269-3.633-2.574-.211 2.168-.09 2.851-2.267 3.642-1.091.397-2.283 2.491-2.889 3.529-.899 1.542-1.248 2.21-3.339 2.498-.762.105-1.973-.276-2.331-.723-1.346-3.504-1.731-5.621-3.243-8.442-1.306-2.327-1.111-4.23-2.126-5.803-.593-.92-1.659-1.677-2.195-2.574-.703-1.176.374-2.349-.09-2.307-.882.08-1.467-.848-1.87-1.652-.451-.9.611-1.512-.603-2.637 2.14-1.293 1.964-1.091.457-3.124-.219-.296.657-1.545.764-1.821.446-1.149-.08-1.692-1.059-2.526-1.942-1.657-2.836-3.045-3.487-5.493-.294-1.108-1.999-3.941-.924-4.966-3.609-.736-3.64-6.181-5.11-6.479.121-.666.613-1.022 1.123-1.386.782-.557 1.03-1.467 1.57-2.229.468-.661.807-1.265 1.44-1.774.1-.08-.1-1.176.08-1.079.562.293 1.946.58.553-1.057.443.287 2.111-1.579 2.078-1.064-.113-1.873-3.027 1.231-1.887-3.092-1.816-.305-.285-.76-4.223-3.348.198-1.03 1.466-2.112.949-3.185-.812-1.688-2.081-1.999-1.029-4.091.678-1.35 1.381-2.363 1.835-3.7.539-1.586.86-1.522-.07-3.201-.856-1.543-.224-2.783-.377-4.438-.124-1.334-.937-4.07.07-5.203 1.001-1.126 1.922-1.892 1.059-3.363-2.443-4.166-5.041-8.384-7.276-12.655"/><path d="M750.247 899.896c.02 0-.47-.03-1.112-.216-.3-.09.23-.892.506-1.039.323.315.929 1.041.606 1.255"/></g></svg>