<svg xmlns="http://www.w3.org/2000/svg" width="230mm" height="1650.497" viewBox="0 0 230 436.69391"><g class="landxx coastxx cl" transform="matrix(1.3293 0 0 1.3293 -913.246 -1210.802)" fill="#cbe6a3" fill-rule="evenodd" stroke="#000" stroke-width=".109"><title>Chile</title><path d="M841.37 1235.66a.994.994 0 0 0-.71-.43c.236.15.473.29.71.43M855.34 1239.26c.02-.19.05-.38.07-.57-.531-.13-1.035-.1-1.51.21.526-.1 1.006.1 1.44.36M857.65 1239.19c.119-.49-.121-.59-.72-.29.24.1.481.2.72.29M858.66 1239.34c-.15-.29-.367-.53-.65-.72l.65.72M855.56 1233c-1.135-1.51-7.188-2.84-8.5-.86 1.103-.55 1.323.92 1.917 1.46.514.46 3.773.44 2.043.63.505.1 1.012.1 1.521.1.405-.1-.09-.48.1-.64.589-.5 1.153.82 1.485.98.93.44 1.734-.85 1.435-1.64M853.47 1236.96c.167-.21.333-.43.5-.65-.8-.3-.967-.1-.5.65M856.64 1238.33a2.092 2.092 0 0 0-1.01-1.23c-.221.24-.388.5-.5.8.501.15 1.005.3 1.51.43M855.41 1231.85c.08.63 1.047.55 1.45.57a5.028 5.028 0 0 0-1.45-.57M857.29 1233.79c-.392 0-.705.19-.94.51.453.26.933.33 1.44.21l-.5-.72M859.37 1234.22c.573-.55.114-1.03-.57-.72.165.26.355.5.57.72M802.78 1217.52c-.546 0-.771-.12-.79.58.277-.17.54-.36.79-.58M805.59 1220.33l.51-.72c-.892-.24-1.062 0-.51.72M807.46 1218.67c-.363 0-.723.1-1.08.15.187.25.38.48.58.71-.497-.14-1-.26-1.51-.35.644.24 2.969 1.03 2.01-.51M814.52 1224.79c.753-.53 1.678-.97 2.59-1.15-.775-.27-.907-1.56.141-1.08-.271-1.5-1.809-.76-2.382-1.68-.424-.68-1.701-1.31-1.578 0-.315-.61-1.42-1.69-1.51-.29-.412-.56-1.711-2.33-2.59-1.65.135.25.279.49.43.72-.503-.1-1.007-.1-1.51 0 .989.5 1.84 1.14 2.95 1.36-1.107.1-2.923-1.53-3.67-.1.594-.15.96.1.94.72 1.865-.83 1.326.39 2.063 1.49.382.56 1.115.8 1.479.11.501-.95 1.611-.99 2.579-.59-.245.24-.484.48-.72.72.259.2.523.4.79.58-.485.23-.988.39-1.51.5.533 0 1.036.11 1.508.36M811.64 1224.79c.03-.9-.966-.95-1.51-.5.605-.14 1.108 0 1.51.5M817.69 1224.29c-.146 0-.293.1-.439.1.425.55.261.94-.431 1.01 1.017 1.04 2.383-.63.87-1.08M818.12 1227.24c.205-.45.18-.68.79-.58-.503-.4-1.006-.4-1.51 0 .22.22.459.42.72.58M818.34 1222.49c-.26 0-.5.13-.72.28.24-.1.48-.18.72-.28"/><path d="M821.14 1223.21c-.635-.22-1.081.4-1.407-.3-.286-.61-1.587.64-2.043.66.359 1.2 3.545 1.28 3.09 2.81 1.966 0 .05-1.43-.43-2.02.397.46.877.58 1.44.36a2.74 2.74 0 0 1-.65-1.51M819.63 1226.16a6.35 6.35 0 0 0-.79-.65c.263.22.527.44.79.65M819.77 1227.6a1.47 1.47 0 0 0-.71-.22c.237.1.474.15.71.22M820.21 1227.31c.289-.74.05-.9-.72-.5.24.17.48.34.72.5M823.95 1223.78c-.73-.34-1.804-.46-2.59-.28.174.14 2.246 3.96 2.23 1.15-.02 1.7 1.919.1 1.58 1.73a5.688 5.688 0 0 0 1.59-.58c-.373-.52-2.118-2.64-1.73-.65-.562-.25-.98-.75-1.08-1.37M822.66 1229.9c-.08-.5 0-.71-.65-.72l.65.72"/><path d="M823.74 1225.65c.06.45.06.6.57.73-.19-.24-.38-.48-.57-.73M829.71 1225.58c-.274-.89-1.182-1.4-1.58-2.23.459.47.939.49 1.439.1-1.129-.53-1.019-2.18-2.09-2.73-1.58-.8-.836 1.37-.14 1.87-.516-.17-1.023-.15-1.521.1.935 1.52 2.113 2.57 3.892 2.95M829.42 1231.49c.07-.19.146-.38.22-.58-.997.13-1.874-.49-2.88-.21.1.27.24.51.43.72.599-.82 1.608-.55 2.23.1M830.5 1224.94c.206-.88-.03-.98-.72-.29.24.1.48.2.72.29M833.89 1233.57c.238-.64.438-1.2 1.22-.72-.377-1.02-1.979-.79-2.81-.93.592 0 1.089-.31 1.3-.86-.649-.1-1.09.65-1.717.54-.696-.12-1.398-.34-2.103-.11.683 1.7 3.308.31 4.11 2.08M831.44 1225.94c.148-.92-.981-.74-1.439-.43.478.15.958.29 1.439.43M832.74 1230.55c-.574-.1-1.08.1-1.52.43.589.15 1.095 0 1.52-.43M836.05 1231.2l-.58.72c.62 0 .552-.22.58-.72M837.06 1233.86a1.113 1.113 0 0 0-.72-.5c.24.17.48.34.72.5M837.13 1232.21c1.274-.16 2.766.1 3.81-.87-1.083-.24-3.558-.63-4.46.15.188.27.405.51.65.72"/><path d="M836.91 1232.93c.339.69 2.255.93 2.88.79-.674 1.34 2.7 2.22 3.529 1.73-.498-.37-1.005-.73-1.523-1.08-1.926-1.29 1.401-.61-.787-1.3.889-.31 2.042.83 3.035.9.95.1 1.615 1.16 1.215 1.69.794-.51 3.028.1 3.914.3 1.03.25 1.218 1.55 2.496 1.22-.807-.94-1.453-1.74-2.66-2.17-.918-.32-2.374-.14-3.03-1 .782.68 2.074.39 2.96.14-1.808-1.24-4.5-.19-6.05-1.94 1.416.55 1.885.36 3.283.38 1.097 0 .468-1.07-.284-1.2-1.106-.18-2.272.16-3.322.48-.595.18-3.929-.36-2.847 1.14-.465-1.24-2.099-.78-2.809-.1M837.7 1234.37c-.682.11-.585.3.29.57-.1-.19-.194-.38-.29-.57"/><path d="M839.94 1235.23c-.155-.44-.158-.61-.72-.5.24.17.481.34.72.5M790.11 1206.29c.86-.26.178-1.21-.29-1.44-.13.53-.03 1.01.29 1.44M791.98 1208.16c.435-.93.276-3.81-1.29-3.6.231.5.495.98.79 1.44-1.322-.27-.183 1.68.5 2.16"/><path d="M792.7 1208.3c.467-.55.759-2.58-.5-2.23-.02.79.397 1.47.5 2.23M794.29 1209.82c.782-.96-1.069-.7-1.521-.8.517.25 1.023.52 1.521.8M793.35 1207.73a1.7 1.7 0 0 0 1.15-.79c-.62-.17-1.065.18-1.15.79M796.52 1206.79c.01-.99-2.224-1.93-3.03-1.87.913.81 1.93 1.37 3.03 1.87M796.81 1205.5l.5-.36c-.789-.44-1.224-1.29-2.02-1.73.354 1.22.241 1.58 1.52 2.09M798.54 1210.39c.41-.1.72-.28.93-.65-.854-.48-2.649-2.4-3.67-1.29.881-.26 1.595.43 2.3.79-1.766-.5-.03.97.44 1.15M806.96 1218.02c.64.19 1.287.21 1.939.1-1.115-.28-1.916-1.2-3.02-1.52 2.252 2.2-3.08-2.15-.72.1-1.555-1.17-3.133-1.2-4.907-1.66-1.389-.36-2.542-1.88-4.093-1.5 1.877.86 3.188 2.05 5.157 2.65.993.3 2.042.12 3.02.52.815.33 1.611 1.74 2.624 1.36"/><path d="M797.38 1208.3c-.227-.39-.257-.52-.79-.36l.79.36M798.39 1205.64c-.06-.71-.964-.91-1.51-1.01.475.38.978.72 1.51 1.01M800.55 1209.02c-.27-1.42-2.392-2.34-3.67-2.45.801 1.31 2.571 1.49 3.67 2.45M798.32 1206.36c-.328-.29-.07-.55-.72-.36l.72.36M800.48 1210.39c.167 0 .333-.1.5-.14-.476-.98-1.666-1.54-2.729-1.44.727.56 1.6.9 2.229 1.58"/><path d="M799.11 1207.22c.515-.4.349-.64-.5-.72l.5.72M799.62 1208.88c.12-.52-.147-.61-.8-.29.266.1.533.2.8.29M801.41 1213.2c1.012-.56.593-2.71-.709-2.47-1.014.18.713 2.07.709 2.47M803.36 1216.37c.167.27.407.44.72.5-.24-.16-.479-.33-.72-.5M805.66 1215.07c-.196-.98-1.581-.88-2.23-.5.797-.27 1.602 0 2.23.5M803.79 1207.58c.573-.2.941-.67.649-1.29-.533.23-.86.71-.649 1.29M781.54 1189.73c-.545-1.5-2.104-2.23-3.601-2.38.202.79.938 1.86 1.8 1.01.09 1.03 1.251.76 1.801 1.37M783.92 1193.04c.251-.54.611-1 1.08-1.37-.838.55-1.576.49-1.37-.57-.378.19-.7.13-.965-.17-.604-.46-1.325.1-1.985 0 .538.45 2.445.7 2.3 1.66-.959.22-.827-1.04-1.8-.87.03.42.05 1.01.392 1.32.595.56 1.818-.19 1.128 1.06a1.658 1.658 0 0 0 1.22-1.08M784.14 1197.14c.224-.71-.396-1.32-.73-1.87.564.29 1.021.1 1.08-.57-.798.2-1.494-.45-2.23.14.7.25.792.75.22 1.22.907 0 .738 1.09 1.66 1.08M784.71 1193.83c-.197-.19-.437-.21-.72-.1.24 0 .48.1.72.1M786.15 1197.29c.1-.64-.104-1.4-.93-1.3.06.58.424 1.05.93 1.3M786.66 1194.7c.319-.29.509-.65.57-1.08-.637.1-.94.5-.57 1.08"/><path d="M788.67 1197.94c.03-.56-1.594-2.25-2.16-1.73-1.054.99 1.527 1.71 2.16 1.73"/><path d="M789.39 1199.81c.427-.67 1.234-1.15 2.02-.72-1.217-.81-1.347-2.57-3.17-2.31.423.48.806.99 1.15 1.52-.762-.14-1.522-.31-2.3-.36.06.83 1.541 1.77 2.229 1.07.02.27.05.54.07.8M787.74 1204.13c1.057-.28.526-1.78.64-2.52-.541.42-1.023.18-1.22-.43.03.9-.06 2.23.58 2.95M791.7 1197.57c.03-.85-1.208-1.3-1.81-1.58 1.351 0 .365-.24-.138-.77-.567-.6-1.128-.92-1.942-.52.623.36.813.98 1.22 1.52.68.91 1.787.8 2.67 1.35M789.17 1202.83c.85-.23 1.286-1.11 1.52-.21-.04-.31-.04-.62 0-.94.268.16.531.33.79.5-.717-1.18-1.642-2.51-2.74-.57.61.2.847.68.43 1.22"/><path d="M791.7 1200.6c.143-.81-.895-.85-1.16-1.51-.693.9.575 1.25 1.16 1.51M792.7 1200.67c.17 0 .34-.1.51-.14-.6-.74-1.148-1.54-1.95-2.09.456.76.923 1.51 1.44 2.23M794.65 1202.62c-.04-.7-.647-1.25-1.37-1.09.325.5.808.9 1.37 1.09M794.72 1201.97c.217-.14.433-.29.65-.44-.269-.64-.795-.81-1.3-.28.187.27.404.51.65.72M796.59 1201.97c.03-.57-.292-.91-.86-.94-.03.58.292.92.86.94M776.79 1179.57c1.286-1.34-3.186-6.05-4.9-5.11.297.42 1.396.93 1.471 1.42.128.84 1.159.69-.101 1.18.671.28 1.461-.54 1.762.23.286.73 1.056 1.92 1.768 2.28M773.7 1172.3c.238-.46.141-.84-.29-1.15-.218.21-.388.45-.51.72.266.15.533.29.8.43"/><path d="M774.06 1179.5c.995.22 1.609-.54 1.08-1.44-.651-1.1-1.274-.32-2.17-.1.197.88 1.095.95 1.8 1.15l-.71.36"/><path d="M774.42 1180.37c.635-.16 1.19-.55 1.649-1.01-.859-.27-1.443.67-2.3.29.2.26.417.5.651.72M774.7 1171.87c.292-.72.05-.91-.72-.57l.72.57M776.5 1174.25c.242-.78-.07-1.67-.79-2.09-.326.48-.326.96 0 1.44-.522-.45-1.786-.67-1.51.43.762-.75 1.5.1 2.3.22M777.01 1177.42c2.259-1.67-1.065-2.97-2.59-2.74.67 1.07 1.579 1.99 2.59 2.74M777.87 1182.82c-.09-1.21-2.331-2.31-3.31-1.66.281 1.48 2.623.4 3.31 1.66"/><path d="M776.43 1174.75c-.24-.6-.947-.72-1.51-.65.541.13 1.044.35 1.51.65M775.93 1182.89c.119-.49-.121-.59-.72-.29.24.1.48.2.72.29M776.86 1184.4c-.218-.95 1.525-1.7-.21-2.23.134.96-1.683 1.94.21 2.23M777.87 1182.1l.79-.36a2.23 2.23 0 0 0-2.08-1.16c.45.49.88 1 1.29 1.52M777.22 1173.96a7.899 7.899 0 0 0-.57-.79c.189.27.38.53.57.79"/><path d="M777.8 1180.73c.02-.5-.195-.85-.65-1.08-.301.61.05.99.65 1.08M780.61 1179.5c1.32-.28-2.461-4.02-2.95-4.6.09.51.18 1.01.28 1.51.223.56.779.85.94 1.44-.547-1.31-2.073-.53-1.334.68.556.91 2.212.59 3.064.97M778.09 1186.7c-.203-.2-.443-.34-.72-.43.24.15.48.29.72.43"/><path d="M783.92 1190.52c.668.3 1.581.35 2.16 0a7.244 7.244 0 0 0-.58-.65c1.313.92.778-1.32-.28-1.51 1.958.38-.851-2.11-.51-.14-.169-1.68-.261-4.12-1.627-5.35-.517-.47-.211-1.21-.956-1.44-.51-.16-1.087-2.84-1.087-.92-.776-3.07-3.575 1.3-1.51.36-1.648.43-.103 1.46.65.72-.521.68.784 2.74.93 3.46-.42-.4-.9-.71-1.439-.93 1.006 2.03-1.766-.88 0 1.22-.328-.47-.854-.77-1.44-.65.521.44 1.001.92 1.44 1.44-.778-.48-1.328-1.25-2.16-1.66-.122 1.35 1.298 1.59 1.932 2.49.687.99 1.777 2.48 3.108 2.55.07-.97-.999-1.34-1.08-2.22-.08-.91.876-.96.94-1.81.843.11 1.093 1.12-.15.86-.02.61.388 1.01.94 1.16-.267.14-.53.28-.79.43.241.56.995.65 1.454.94.996.63-.77 1.32.847 1.01-.254.22-.517.44-.792.64M778.23 1179.94c.787-.45.456-.81-.36-.72l.36.72M778.23 1172.66c.182-.35.43-.28.22-.79-.07.27-.146.53-.22.79"/><path d="M780.61 1184.47c.319-1.24-1.766-2.94-2.234-1.6-.187.53 1.918 1.3 2.234 1.6M779.24 1184.33c-.177-.23-.417-.32-.72-.29.24.1.479.2.72.29M779.96 1176.55c1.076-.76-.305-1.55-1.08-1.51.364.5.723 1.01 1.08 1.51M780.03 1173.53c.854-.26 1.854-.1 2.52-.79-1.205-.62-2.405-.14-3.67-.29.107.6.549 1.02 1.15 1.08M782.12 1177.63c.18-.71-.879-1.07-1.3-1.37-.432.94.74 1.07 1.3 1.37M783.63 1177.85c-.291-.55-.874-.92-1.51-.79.477.32.98.58 1.51.79M784.21 1173.82c-.06-.4-.295-.62-.72-.65.24.22.48.44.72.65M785.43 1187.28l.65-.51a2.637 2.637 0 0 0-1.44-1 8.4 8.4 0 0 0 .79 1.51M785.43 1174.61a3.15 3.15 0 0 0-.72-.36l.72.36M768.87 1154.3c-.237-.17-.5-.29-.79-.36l.79.36M769.3 1154.52c.24.1.48.1.72.14.03-.48-.02-.96-.14-1.44-.643.19-.941.69-.58 1.3M774.56 1156.1c.121-.63.185-1.65-.79-1.51.111.59.374 1.09.79 1.51M775.64 1156.68c.209-.45.546-.76 1.01-.94-.744-.88-1.942.16-1.01.94M775.86 1154.81c-.09-.36-.306-.63-.649-.8.216.27.433.54.649.8M776.36 1149.62a2.017 2.017 0 0 0-.649-.72l.649.72M776 1166.62c.36-.21.526-.52.5-.94-.816-.1-.983.23-.5.94M777.29 1158.55c.331-1.05-.588-1.96-1.51-1.08.582.25 1.085.61 1.51 1.08"/><path d="M777.22 1157.04c-.187-.45-.52-.74-1-.86.07.56.43.88 1 .86M766.71 1140.62c-.364-.15-.304-.39-.79-.14.263 0 .527.1.79.14M769.81 1143.5c.442-.65-.424-.7-.8-.36l.8.36M764.12 1121.26c-.711-.54-.893-.14-1.244.42-.432.68-1.859-.78-2.426-.78 1.247 1.27.116 2.98.762 4.03 1.074 1.73.902 4.3 1.756 6.03.366.74-.437 1.2-.105 2.02.321.79 1.322 1.02 2.061 1.22.64.17 1.295.37 1.954.45 1.359.18.207-1.82.123-2.23 2.093-.24 0-1.69-.65-2.31.48.1.96.1 1.44 0-.26-.47-4.179-3.03-2.021-3.02-1.636-.96.07-1.52.87-2.16-1.037-1.03-2.043-2.26-2.52-3.67M761.45 1136.74c.263-.16.506-.36.73-.58-.48-.32-.96-.32-1.44 0 .237.2.473.39.71.58M763.83 1147.68c.235-.59-.113-.93-.72-.72.219.26.459.5.72.72M765.06 1145.59c-.07-.43-.07-.59-.58-.72l.58.72"/><path d="M766.14 1128.17c.128-.62-.112-.64-.72-.1.24 0 .48 0 .72.1M767.14 1127.45c-.158-.68-.833-1.09-1.51-.87.566.18 1.07.47 1.51.87M767.29 1145.74c-.306-.72-1.051-.68-1.521-.15.507 0 1.014.1 1.521.15M767.22 1144.44c.336-.35.43-.75.28-1.22-.421.47-.925.59-1.51.35.205.53.646.9 1.23.87M767 1140.91c-.232-.1-.472-.11-.72-.1.24 0 .48 0 .72.1M767.07 1142.35c-.201-.18-.441-.23-.72-.14.24 0 .481.1.72.14M767.94 1139.26c-.08-.54.172-1.04.79-1.08-.81.25-1.676-.18-2.31.57.549 0 1.056.22 1.52.51M768.44 1147.1c.171-.77-.773-1.11-1.37-1.08.341.51.797.87 1.37 1.08M767.72 1121.54c.03-.41-.16-.67-.58-.79.193.27.386.53.58.79M768.87 1131.19a1.65 1.65 0 0 0-1.44-.43c.481.14.961.28 1.44.43"/><path d="M769.09 1146.67c.77-.31 1.342-1.06 2.229-1.08-.712-.65-1.89-.93-2.818-.65-1.568.48-.435 1.46.589 1.73M769.16 1142.57c.04-.32.141-.64.29-.94a2.787 2.787 0 0 0-1.59-.14c.299.53.732.88 1.3 1.08M769.09 1139.62c-.184-.21-.424-.29-.72-.22.24.1.48.15.72.22M769.66 1144.51c.1-.21.193-.43.29-.65a9.73 9.73 0 0 0-1.51-.36c.217.52.667.91 1.22 1.01M769.66 1141.49a1.32 1.32 0 0 0-.86-.87c-.03.58.286.9.86.87M769.09 1148.26c.88.37 1.971-.18 2.8-.44-.911-.74-2.234-.69-2.8.44M770.31 1150.85c.156-.62-.399-1.1-.94-1.23.02.59.381 1.06.94 1.23M770.24 1142.64c.09-.76-.177-.81-.79-.14.263 0 .527.1.79.14M770.24 1151.64c.179-.71-.06-.81-.72-.29.24.1.479.2.72.29M770.89 1140.91c.31-.81-.575-1.35-1.23-1.44a6.44 6.44 0 0 0 1.23 1.44M770.53 1143.72c.401-.46.231-.7-.51-.72l.51.72M770.74 1147.1c.101-.26.101-.52 0-.79-.275.15-.515.35-.72.58.24.1.479.14.72.21M771.1 1154.88c.985-.49 1.284-2.51-.14-2.59-1.562-.1-.04 2.01.14 2.59M772.11 1148.26c-.611.32-1.309.38-1.939.64.177 1.46 3.022 1.4 4.03 1.23-.141-.95-1.101-1.88-2.091-1.87"/><path d="M772.76 1151.35c.457-.1.913-.1 1.37-.14-.429-.83-2.084-1.23-2.88-.79.423.44.927.75 1.51.93M772.47 1147.9c.441-.79-.384-1.49-1.15-1.23.234.55.618.96 1.15 1.23M772.4 1146.1c.313-.1.627-.14.94-.22-1.078-2.1-2.719-.43-.94.22M772.18 1123.99c.143-.54-.1-.66-.72-.36l.72.36M772.62 1153.22c.385-.69 1.241-.45 1.8-.21-.382-1.12-2.477-1.14-1.8.21M773.05 1146.89h.5c0-.61-.315-.92-.93-.72l.43.72M773.62 1152c.07-.65-.188-.72-.79-.22.263.1.526.15.79.22M773.91 1139.97c-.116-.78-.195-1.46-1.08-.93.112.54.526.91 1.08.93"/><path d="M774.13 1154.45c1.083-.67-.506-1.69-1.3-1.15.26.54.728.97 1.3 1.15M778.37 1146.02a5.308 5.308 0 0 0-.57-.79c1.068-.28.842-1.36-.159-1.45-.329 0-.639 0-.93-.2-.858-.7-.691.32-1.791-.29-.224.62.151 1.05.72 1.22-.467.36-.994.53-1.58.5.196.74.713 1.73 1.65 1.53-1.625.29.04.98.617 1.05.908.12 1.578-.98 2.043-1.57M776.58 1154.74c.05-.37-.396-2.75-1.005-2.52-1.8.66.33 1.96 1.005 2.52"/><path class="landxx cl" d="M741.58 918.29c1.585-.898 3.479-.09 4.11-2.311.291-1.023-1.113-2.525-.309-3.389a.75.75 0 0 1 .62-.1c.644 0 1.21-1.069 1.559-1.481 0 1.25 1.333 1.804 1.673 2.913.331 1.077.998 1.482 2.067 1.696-.991.944.461 3.587.803 4.579.889 2.583 1.406 4.099 3.608 5.88 1.991 1.61 1.111 2.125.252 4.159-.149.354 1.46 1.369 1.454 2.055 0 .858-1.326.93-1.867 1.257 1.079.999.203 2.076.87 3.17.332.544 1.173.395 1.51.93.46.732-.08.799 0 1.521.257 2.19 3.241 3.234 3.485 5.76.297 3.059 2.346 5.617 3.205 8.49.659 2.198.647 4.998 3.787 3.998 3.246-1.03 3.436.99 3.116 3.65-.245 2.04-.09 5.89-1.831 7.4-3.704 1.07-6.287 2.72-7.108 5.1-.3.87 1.247 2.56 1.605 3.47-2.273.1-.715 3.7-.236 4.75.419.93 1.065 2.23 1.401 3.19.517 1.48-.869 1.81-.78 3.15.124 1.87 3.224 3.3 2.779 4.88-.269.96-1.908 1.8-2.7 1.41-.959-.48-1.381 2.27-1.419 2.74-.201 2.51-1.098 5.65-3.045 8.36-1.44 2 .43 3.51-.355 5.73-.391 1.1-1.603 1.18-1.199 2.58.339 1.17 1.171 2.13 1.509 3.29.197.67.423 1.17.622 1.84.181.62.529 1.11.71 1.66.396 1.23-.873 3.07-2.037 1.64.839.96.07 2.86.07 3.95 0 .75.469 1.89-.27 2.54-.542.47-.588.36-.647 1.35-.101 1.67 1.159 3.37 1.968 4.75.394.67.808.45 1.251 1.07.384.55.322 1.37-.424 1.03.546 1.9 2.468 2.89 2.815 4.83.139.77.519 1.34 1.324 1.74 1.069.54-.03 1.72.181 2.57.569 2.25 2.899.3 2.871 2.86-.02 2.02-.271 3.65.836 5.41.172.28 1.071 1.8.04 1.87-.715 0-.79.44-.936.95-.237.82-.381 1.65-.517 2.49-.165 1.01.183 1.93.291 2.93.147 1.39-.6 1.7-1.001 1.56-.804-.27.192.56.593 1.13 1.332 1.9 2.048 3.9 2.298 5.98.08.68-.03 1.07-.673 1.15-.596.1-.83 1-.846 1.46-.06 1.65-1.478.13-1.896 2.13-.185.88-.106 1.64.201 2.53.292.85.326 1.67.787 2.47 1.219 2.12.983 2.96 1.161 4.34.213 1.63 1.676 2.51 2.338 3.93.435.94.835 1.81 1.5 2.63.315.39 1.033 1.41.763 2.04-.587 1.37-2.813 1.27-2.356 3.19.285 1.19-.277 4.05.589 4.89-.996.32-1.706.58-.825.79.355.1 2.406 4.12.32 3.46.208 1.11 1.003 1.15 1.278 1.97.22.65-.213 1.61-.339 2.21-.405 1.91.325 3.2 1.651 4.54 1.061 1.07 1.274 3.09 1.378 4.8.09 1.47 1.729 2.38 2.511 3.62-.577.55-1.735.3-1.943 1.24-.183.82 1.003 2.13 1.119 3.11.131 1.11.683 3.4 1.656 4.06.879.61 2.62.19 2.695 1.67.06 1.29-1.88.34.06 1.92.389.32.968.76 1.32 1.15.785.87-.112.58.139 1.17.241.57.714.79 1.048 1.32.521.82-.333 1.35.07 2.08.518.93.564 1.7 1.602 1.9 1.4.27 3.104-.27 4.176.85.283.29.1 1.99-.172 2.23-1.026.93-2.766.49-3.918.53-2.507.1.187 1.06 1.293 1.15 2.513.21 6.054 2.75 3.241 4.99-.295.24-.76-.1-.995.31-.411.63.782 1.28.92 1.86.127.53.682.62.976 1.01.481.63-.324 1.9-1.041 1.93 1.018.75 3.861 3.33 3.034 4.79-.388.69-.972.86-.496 1.81.135.27.01 1.14.324 1.28.535.24.702.64.947 1.19-1.103-.16-2.018 2.76-1.963 3.58.06.95-.217 1.85.416 2.67.547.71 3.147 2.1 2.869 3.15-.171.65-1.074.72-1.254 1.32-.302 1 1.555 2.15.693 3.54-.45.73-1.375.28-1.682 1.09-.396 1.03-.08 2.68-1.959 2.37.156 1.02-.187 2.38.717 2.95 1.17.74 1.732 2.26 1.812 3.1.113 1.18 2.005 2.02 2.662 2.95.637.91 1.056 2.2 2.146 2.69.749.34 1.148-.19 1.706-.58.661-.47 1.179-.17 1.903-.16 1.557 0 1.839.16 2.828 1.68.688 1.05-.252 2.34.743 2.92.869.5 1.536 2.41.969 3.24 1.496.19 3.482 1.87 4.346 3 1.001 1.31 5.501.51 6.762.39 5.592-.53 11.252.84 17.399 2.96-1.476 0-2.815-.61-4.24-.87-2.598-.49-1.282.93-2.09 2.02-.712.95-2.142 0-2.978.97-1.009 1.12-2.835.9-4.152 1.33.873 1.15.945 2.6 1.239 3.96.287 1.33 1.11 2.07 1.733 3.21 1.659 3.02-2.296 1.99-3.803 1.68-1.809-.37-5.922-1.51-6.616-3.5-.697-2 3.181-.85 1.547.48.93 0 .641-1.11 1-1.6.258-.35 2.295 1.44 1.3 2.4 1.575-.54-1.296-2.97 1.665-3.5.511-.1.624-1.48.625-1.85 0-1.02-1.719-.8-2.29-1.35.04 1.06-1.492 2.04-2.23 2.59-1.253.92-2.372-.51-3.6.29.894-.17 1.593.6 2.229 1.08-.52.11-1.023.1-1.51-.15.195.54.122 1.05-.22 1.52.909.12 1.615.76 2.24 1.37-2.175.55-5.865-1.81-7.42-3.17 1.073.51 2.579.46 3.74.43-.187-.97-2.469-1.04-2.55-2.93-.05-1.13 1.932-1.59 1.55-.17 1.261-.37 1.449-.25 2.331-1.32.894-1.07 3.255.52 4.499-.33-.798-1.04-6.075-1.79-6.33 0-.709-.25-1.217-.56-.07-1.01-.678 0-3.406.1-2.81 1.37.482-.47.986-.49 1.51-.1-.205.55-.661.97-1.22 1.15.374.62 1.521 2.15.06 2.28-.907.1-2.921-1.07-1.137-1.56-.894.28-1.586-.47-2.23-.94.503.1 1.007.1 1.51 0a7.983 7.983 0 0 1-.8-.43c.993-.61-.117-1.79 1.23-1.44-1.058-.39-1.058-.56 0-.5a2.3 2.3 0 0 0-1.51 0c.53.37.662.97.28 1.51-.246-.51-.721-.88-1.29-.94.03.6-.321 1.12-.86 1.37.311-.7.09-.96-.65-.79 1.633-1.34-2.303-3.8-2.6-5.04.685.77 1.894 1.53 2.962 1.48.493 0 2.396-1.73 1.868.25.758-.45 2.197.31 1.08-1.01.391 1.7-.65-.54-.65-1.37.847.1 1.589.94 2.207 1.44 1.147.92.426 1.74-.267 2.66.703-.46 1.493-.13 2.24-.1-.982-.49-.242-1.67-1.126-2.2-.54-.32-2.345-1.69-.743-1.9-.974-.77-1.407-1.98-2.497-2.63-1.167-.7-2.608-.72-3.633-1.69-.189.21-.332.45-.43.72.91-.1 5.346 1.06 5.225 2.3-.1 1.02-4.649-1.35-5.295-1.29.459.63 1.137.49 1.697.94.599.47.214 1.35 1.184 1.36-.37.42-.61.9-.721 1.44-.676-.99-1.183-2.2-2.16-2.95.772.99 1.919 2.33 1.87 3.67-1.114-.98-2.577-1.38-3.16-2.88.495.37.998.73 1.51 1.08-.39-.69-1.596-1.13-1.37-2.09-.467 0-.977.47-1.44.36-.463-.11-.36-.79-.945-.9-.613-.1-1.401-1.65-1.505-2.19 1.264.31 2.036 1.41 3.02 2.16-.985-1.12-1.594-2.54-2.73-3.53 1.564 1.41.373-.36-.36-.51-.07.24-.146.48-.22.72-.6-.15-1.126-.44-1.58-.86 1.011 1.63-1.391-1.06-1.768-1.39-.462-.42.687-.62.847-.65.323-.1.647-.1.974-.1 1.243.1-1.185-1.42.667-.36-.648-.55-.6-1.68.43-1.66-.844 0-1.775-.8-1.149-1.65-.808.72-.07 2.24-.585 3.1-.611 1.01-3.142-2.44-3.665-2.74.545.18 1.048.45 1.51.79-1.509-1.36.127-.36.87-.43-.939-.83-3.007-.76-3.39-1.94 0 1.67-1.873-.8-2.88-.87 1.022-2.03 4.292 1.1 5.91.87-1.429-.33-4.382-1.19-4.61-2.96 1.184-.1 2.011 1.17 3.24.72-.773 0-.946-.54-.649-1.15-.706 1.73-4.189-.92-1.73-1.37-.557.14-2.543-.48-1.407-1.15 1.496-.87 2.629.73 3.928 1.15-.947-.58-1.995-1.21-2.8-1.72-.42-.27-1.116-.33-1.08-1.01.03-.66.749-.8 1.22-.51-.781-.37-2.175-3.26-.58-2.44-.539-.35-1.042-.3-1.51.14.378.36.426 3.28.149 3.74-1.104-1.08-2.856-3-2.768-4.64.02-.38-1.31-1.08-.694-1.56.459-.36 1.562-.39 2.092-.2-.233-.17-3.927-.56-2.579-1.81.563-.52 2 .23 2.579.44-.604-.32-.851-.92-.43-1.51-.497.1-3.338-.18-1.52-.8-1.772.81-2.724-2.48-4.46-1.94-.267-1.93 2.612.33 3.09.79-.33-.5-.687-.98-1.07-1.44 1.348-.21 2.352.46 3.578.85.521.17 1.089 0 1.562.33.66.48 1.493.22 2.05.69.256-.44.209-.85-.14-1.22-.309 1.59-2.715-.58-2.81-1.44.914.72 1.982.5 3.03.79a3.09 3.09 0 0 0-1.204-.2c-.822-.1-1.211-.95-1.826-1.38-.547-.39-1.051-.2-1.51-.79-.364-.47-.111-1.07-.57-1.52.633.85.838 2.85-.802 2.46-1.397-.33-4.301-.1-5.318-1.09.624-.16.843-.62.43-1.15 1.431-.38 2.048 1.31 3.311 1.58-1.117-.21-.449-1.35.43-1.01-.159-1.32-.91 0-1.717-.47-.554-.3-.809-1.04-1.522-1.04-.734 0 .304-3.38 1.51-1.44-.211-.59 0-.96.65-.93-.09-.36-.229-.7-.43-1.01-.126.92-1 1.2-1.44.29.47-.16.95-.28 1.44-.36-.475-.66-1.477-.79-2.126-1.22-1.355-.88-1.669-1.33-3.274-.44.577-.19 1.154 0 1.51.51-1.201-.3-2.437-.52-3.535-1.12-1.928-1.05-.56-1.52-1.285-2.77-.699 1.38-3.512 1.57-3.601 2.81 1.31-2.1 3.414 3.17.455.86-1.944-1.53-.202-5.5 2.136-4.54-.696-.1-.923-.57-.5-1.15 1.191.93.592-1.28 1.79 0-.96-.73.334-1.64-.79-2.3.653 2.75-2.789.48-.72.57-.743-.1-1.602-.3-1.8-1.15.964.35 1.866-.61 2.918-.41.908.17 1.082 1.14 1.982 1.2-1.299-.89.09-1.25.823-1.34.876-.12.61.99 1.557 1.06-.52.7.594 2.02.28.5 2.145.97-1.073 2.38-2.3 1.8.825.5 3.494.93 4.46.86-.543-.25-.89-.77-.859-1.37.621.41 1.37.61 1.654 1.38.306.84-.585 1.53-.145 2.37 1.422-.19 1.84-3.63 1.59-4.68-.236.77-.423 1.58-.94 2.23.107-1.53-1.999-5.39 1.01-5.33-.852-.47-1.715.19-2.16.87-.152-.7-.63-1.59-.43-2.31.229-.83 1.158-.84 1.43-1.65.54.65 1.33.9 2.054 1.27.933.48 1.182-.53.412-.46-.621 0-1.006-.24-1.499-.55-.916-.57-1.941-.1-2.837-.55 1.577-1.18-2.183-2.4.771-2.74 2.121-.24 3.054-3.23 1.97-4.89-.748 1.23-5.327-1.23-5.224-2.42.194-.24.449-.26.764 0-1.327-1.4 1.35-2.31.5-3.46-.238.87-1.031.89-1.066 0-.04-1.19-.817-.74-1.348-1.84-.459-.96.04-1.34.25-2.17.119-.48-.85-1.89.584-1.55 0-.88-.573-1-1.052-1.58-.395-.48-.255-1.11-.562-1.62-1.14-1.88.295-.79 1.463-1.05-1.125-.15-2.283-1.4-2.59-2.45 1.606-.57 2.397.79 3.17 1.94-.162-1.51-1.216-3.03-1.95-4.31-1.462 1.37-3.563-.63-1.773-1.81 1.133-.75 2.686-1.3 1.204-2.73.893 3.94-2.192 1.07-3.96.64-1.351-.32-.417 1.82-1.162 2.31-1.112.73-5.268-.5-3.019-1.51-3.951-.1-4.495-6.27-4.926-8.99-.191-1.2-.98-3.95-.427-5.15.554-1.19 1.377-.14 1.134-1.67-.169-1.06.268-2.07-.001-3.15-.406-1.61-.855-2.49-1.996-4.16-1.161-1.7-2.578-3.26-3.159-5.28-.358-1.25 0-2.13-.961-3.2-.642-.72-1.274-1.38-1.743-2.24-.39-.71.149-1.09-.111-1.63-.467-.96-.985-1.63-.839-2.76.83.61 2.326 1.01 2.766-.28.547-1.6-1.098-2.82-.536-4.4.03.57.37.88.94.86-.02-.4-.109-.79-.266-1.16-.19-.73.415-1.53.406-2.29-.02-1.52-.875-2.52.05-3.96.746-1.16-.608-1.84-.05-3.22.424-1.05 1.227-2.82 1.373-3.91.355-2.66-.773-5.46-.65-8.07.07-1.45 1.416-2.69 1.349-3.98-.06-1.13-.953-2.45-1.382-3.49-.363-.88.205-2.06.539-2.86.361-.87-.258-2.28-.365-3.13-.08-.62.299-1.13-.148-1.7-.469-.59-.894-1.18-1.142-1.9-.55-1.6-.774-3.08-1.449-4.67-1.224-2.9-2.579-6.04-3.11-9.15-.27-1.58.05-1.73 1.152-2.53.858-.62 0-2.01.59-2.82.552-.76-1.233-4.95-1.854-5.46-.781-.65-1.771-2.51-1.224-3.53.763-1.43.868-2.71 1.355-4.24.31-.97-.401-2.68-.384-3.75.03-1.73 1.338-2.78.663-4.54-1.011-2.64.389-5.91.409-8.7.02-2.44-1.5-4.46-1.384-6.77.07-1.33 1.485-1.56 1.436-2.84-.07-1.7-1.292-3.36-1.651-5.04-.375-1.76-.08-3.49-.333-5.24-.127-.88-.452-1.47-.211-2.39.197-.74.511-1.5.348-2.29-.193-.94-1.609-.37-1.841-1.4-.245-1.09.119-2.26.219-3.34 1.697 1.52 1.609-3.44 1.593-4.173-.09-4.222.765-9.078-.806-13.042-1.683-4.246-.571-8.913-2.157-13.238-.661-1.801-1.386-3.97-1.714-5.854-.216-1.184.345-3.592-1.035-4.23"/><path d="M772.25 1155.1c-.07-.26-.14-.53-.21-.8.979.1 1.048.37.21.8M805.95 1208.88c-.02-.26-.05-.52-.07-.79.181.25.324.51.43.79h-.36"/><path class="landxx cl" d="M826.18 1217.95c-.517-.67-1.31-2.11-.72-2.95.202.97 1.667.89 1.51-.15-.08-.55-1.771-1.12-2.23-1.29.825-.77 1.907.17 2.758.37 1.855.43 1.016-1.76 1.58-2.56.604-.85 2.29 1.1 2.926 1.26 1.136.29 2.027-1.04 3.062-.4 1.14.71 1.215 2.28 1.919 3.31.974 1.43 1.67 3.03 2.349 4.61 1.575 3.67 3.908 7.06 5.206 10.83-.7-.42-1.531-.51-2.23-.93.408.41.888.7 1.44.86-1.038 1.11-3.541.42-4.734 0-.611-.23-1.304-1.24-1.99-1.04-.912.26-1.073.51-1.847-.23.172.31.342.62.51.93-.529-.55-2.904.56-2.09-1.01-.14.77-2.644 1.17-3.31.87.457-.39.937-.75 1.439-1.08-.887-.52-2.113.54-2.96.72a2.074 2.074 0 0 0-.71-1.44c-.326 1.81-1.613-.3-2.24-.65.997 1.36-1.015.86-1.7.75-.546-.1-1.193.5-1.68.33-.514-.17-.693-1.13-1.149-1.44.871-.1 1.485.64 2.3.79-.05-.57-.402-.96-1.01-.86.585-.22 1.092-.1 1.52.36-1.641-1.55 3.171.1 3.663-.53.415-.52-.04-1.38 1.23-1.03.872.24-.02 2.65 1.437 2.28-.472-.32-.771-.85-.65-1.44 1.251 0 2.493 1.57 3.75 1.01-1.207-.67-2.529-1.02-3.635-1.87-.965-.75-2.271-.17-2.995-1.37 2.028.33 4.296.94 5.98 2.16-.638-.4-.846-1.27.199-1.11.933.14 1.604 1.09 2.321 1.61a2.92 2.92 0 0 0-1.149-1.3c.94-.34 1.951.93 2.589.51 1.017-.67 2.464.93 1.65 1.94.271-.58.807-.85 1.37-.43-.866-.9-.09-.95.65-.86-2.652-2.27-8.018-1.5-10.048-4.7-1.438-2.27 4.071-1.79 3.408-3.85-.827-2.57-6.054 1.66-7.689-.96"/></g></svg>