<svg xmlns="http://www.w3.org/2000/svg" width="468.662" height="725.265" viewBox="0 0 124.00005 191.89302"><path class="landxx co" d="M1.135 124.67c-.351-.094-.702-.192-1.053-.288.373-2.286 2.827-3.008 4.69-1.914 1.008-1.951-1.501-3.791-.507-5.78 1.274-2.554 4.136-2.424 6.536-2.832.456-.08.297-1.182.917-.809.456.274 1.492.515 1.499-.29.013-1.604 2.112-3.599.838-4.644 2.283-.066 2.704-2.999 3.377-4.557.531-1.23 1.57-2.083 2.653-2.812-1.348-1.101.251-1.267.67-2.393-.94.04-2.14.812-2.488-.574.736-.192 1.276-.733 1.244-1.532-.725-.254-2.195 1.684-2.345.192-.157-1.566.736-1.877 1.962-2.49-1.924.013-1.045-2.542-.782-3.595.515-2.067.067-4.837-.137-6.942-.151-1.594-.858-3.115-.969-4.703-.053-.87 2.721-1.211 2.25-3.241-.282-1.215-3.078-4.005-1.222-4.709 1.668-.631.236-4.171-.488-4.98-1.46-1.63-1.64-4.07-3.218-5.444-1.038-.904-.003-2.043.602-2.87.728-.996.027-2.294.9-3.14.48.568.83 1.206 1.053 1.914 2.041-1.429 4.946-4.22 4.002-6.993-.968-2.84-2.773-3.443-1.035-6.12.987 1.277 2.061 3.021 2.913 4.441.88 1.465 3.037 1.912 1.106 3.694 2.593 2.975 1.32-5.556.954-6.47-.527-1.315 5.539-4.349 6.314-5.412.974-1.339 1.67-3.585 3.299-4.291.923-.4 3.108-.172 3.626-1.207.738-1.472-.69-2.004-.39-2.91.533-1.613.755-3.638 1.702-5.071-1.407-.144-1.026-.61-.066-1.1.873-.446.536-1.648.512-2.398-.054-1.76 2.908-2.253 2.908-2.868 0-.922 3.61-4.481 4.452-4.459 1.667.04 3.075 1.522 4.736 1.54-1.404-.185-1.204 1.337-2.488 1.34.975 3.618 3.11-1.196 3.6-2.5 1.218-3.255 2.657-3.021 6.085-2.45 4.678.78 6.167-2.26 9.855-4.471 2.029-1.217 7.93-2.664 6.11-6.177.775-.232 2.967-.931 1.723.67 1.435-.22.531-1.646 2.105-2.361 1.896-.86 3.561-.862 5.18.492 5.524 4.616-6.367 6.486-8.148 8.76-.952 1.213-1.312 2.985-2.44 4.04-.782.732-2.056.59-2.754 1.384-1.314 1.495-2.693 3.776-3.538 5.567-1.262 2.671-1.315 5.412-2.03 8.226-.705 2.764-2.713 6.086-4.55 8.252 1.524.04 2.702-.55 3.828-1.53a4.67 4.67 0 0 1 .287 2.01c2.898-.748 1.926 4.392 3.397 6.261 2.099 2.67 2.675 4.238 1.447 7.517-.617 1.649-1.607 5.175.622 6.011 2.53.948 1.19 3.96 3.793 4.575 1.053.248 2.06-.422 3.09-.532 1.678-.18 3.208.945 4.894.79 1.5-.136 2.758-1.202 4.29-1.173 1.36.027 2.373 1.341 3.66 1.644.945.222 1.826-.571 2.69.185 1.134.994 1.903 2.813 2.74 4.045a63.387 63.387 0 0 1 2.188 3.492c.904 1.534 1.278 1.105 2.643 1.5 1.987.575 3.815-1.094 6.406-.054.792.318 2.537-.455 3.393-.474 1.876-.04 3.471.106 5.117-.892 1.864-1.13 4.942 1.093 3.964 3.053-.56 1.12-1.922 1.981-2.167 3.235-.302 1.543.32 2.352-1.146 3.35-1.953 1.331-1.179 6.68-1.372 8.85-.23 2.577.838 5.318 1.322 8.04.364 2.05 4.293 4.757 3.657 6.848-.785 2.572-5.633 3.576-5.526 6.66 1.757-1.32 6.05 3.51 6.606 4.976-.12.398-.093.8-.175 1.206.227.746.803 1.484.804 2.283 0 1.66.968 3.415 1.379 5.059.162.65 1.024 3.169 1.201 4.177.178 1.007-.36.356-1.162.606-1.337.416-1.749-.218-1.42-1.003.54-1.285-.23-9.7-3.58-9.57-1.308.053-4.86 6.819-5.857 3.086-.372-1.389-2.159-2.022-1.962 0 .222 2.267-2.658 1.437-4.2 1.437H98.78c-1.528 0-3.18-.9-4.683-.237-2.246.99-.459 6.033-.688 7.894 1.82-1.23 6.088-.164 6.907 1.845.303.743.474 3.245-.943 3.116-.876-.08-1.406-1.245-2.35-1.076-2.083.373-5.725.945-5.878 3.377-.186 2.961-.447 7.106 2.11 9.043 1.291.977 2.797 1.821 2.731 3.669-.066 1.773.839 2.452 1.531 3.95 1.573 3.395-.464 8.041-.943 11.515-1.154 8.362-.967 17.459-3.55 25.532-.62-1.538-1.84-2.651-2.939-3.87-1.252-1.388-2.836 0-4.285-.827-1.344-.764 2.041-6.423 2.51-7.22.913-1.553 3.65-4.603 2.26-6.093-.603-.643-1.218-2.34-2.192-1.998-1.73.606-3.699-2.157-4.134-2.516-1.661-1.375-3.066 0-4.82.863-1.672.816-2.778-1.383-4.313-1.64-.937-.158-3.596 3.966-6.713 3.022-1.09-.33-1.839-.322-3.193-.146-1.87.244-2.855.053-4.326-1.09-1.147-.892.054-3.264-.353-4.62-.563-1.85-3.495-.846-3.823-2.703-.234-1.323-.894-2.832-1.425-4.065-.559-1.296-2.243-.74-3.042-1.882-.865-1.238-1.42-1.588-2.579-1.977-1.472-.495-2.338-2.485-2.45-3.814-.21-2.533-4.847-6.588-7.207-7.28-.454-.133-.93-.661-1.333-.026-.436.693-.426.704-1.355.28-1.383-.63-3.512-1.375-4.677-2.287-.906-.708-5.101-6.002-5.598-2.233-.258 1.958-7.64-.537-9.174-.811-2.485-.444-.656-2.547-2.488-3.33-1.607-.687-.896-2.056-2.966-2.082-1.627-.013-4.842-1.823-6.045-2.818-2.025-1.67-3.667-3.719-5.224-5.847" fill="#cbe6a3" fill-rule="evenodd" stroke="#000" stroke-width=".144"><title>Colombia</title></path></svg>