<svg xmlns="http://www.w3.org/2000/svg" width="109.277" height="60.966" viewBox="0 0 28.912933 16.130663"><g transform="matrix(1.3293 0 0 1.3293 -1171.666 -1593.947)" fill="#cbe6a3" stroke="#000" stroke-width=".109"><title>Falkland Islands (Malvinas)</title><g class="landxx coastxx fk" fill-rule="evenodd"><path d="M882.7 1206.86c.427-.13.559-.39.394-.76-.676-.94-.963.99-.963-.75-1.503.23-.04 1.26.569 1.51"/><path d="M887.24 1202.18c.1.2.193.39.29.58-1.631.62-2.934-.91-4.54-.79.736.66 1.36.36 1.905 1.23.425.69 2.124 1.19 2.845 1.43-1.206-.35-2.286 0-3.45.29.836 1.23 1.979-.75 2.95.36-.593-.14-.865.13-.72.72-.191-.26-.384-.52-.58-.79-.04.73-.9 2.09.51 1.22-.439 1.09-2.68.96-3.6 1.22.374.18 3.57 1.56 1.58.36.439-.1 1.75 1.46 2.036.91.451-.88 1.897-.51 1.274-1.91 2.014.66 2.714-1.58 3.639-2.9.316-.45.733-1 .778-1.57.05-.64-1.459-1.38-1.177.1-.885-.4-2.82-.91-3.74-.44"/><path d="M885.29 1201.97c.398.22.809.24 1.229.1-.155-.6-.642-.87-1.229-.65.265.2.531.39.8.58h-.8M886.88 1201.32c.222.21.486.3.79.29-.263-.1-.527-.19-.79-.29M888.1 1200.89c.416.62 1.661.56 2.24.29-.734-.2-1.503-.11-2.24-.29M891.77 1209.24c.513-.45-.153-.78-.57-.72l.57.72M891.56 1208.09c.994.48 1.731 1.65 2.95 1.58-.5-.32-.774-.86-.5-1.44.735.29 1.431.71 2.23.79.01-.93-.951-1.39-1.66-1.72.877-.1 1.438.49 2.23.49.542 0 .859-.36 1.44-.21-.03-.98-1.909-1.2-2.44-1.87 1.029.62 2.206.73 3.371.59.736-.1 1.799-.96.729-1.16 1.09.17 2.239-.1 3.24-.51-.291.1-2.788-1.02-3.09-1.29.753-.4 1.521.11 2.3-.1-.687-.53-3.89-2.47-3.96-.21.612.1 1.178.4 1.58.86-.853 0-3.507-1.66-1.65-1.44-.766-1.38-2.994-1.27-4.32-1.15.434.61.09 1.17-.51 1.44.562.1.909.35.79.94-.27-.13-.533-.28-.79-.44.238.82 1.425.95 1.37 1.88-1.177-1.45-3.477 1.43-2.59 2.66-.24.1-.48.2-.72.29M899.12 1207.3c.203.21.443.35.72.43-.24-.14-.48-.28-.72-.43"/></g></g></svg>