<?xml version="1.0" encoding="UTF-8" standalone="no"?>
<!-- Created with Inkscape (http://www.inkscape.org/) -->

<svg
   xmlns:dc="http://purl.org/dc/elements/1.1/"
   xmlns:cc="http://creativecommons.org/ns#"
   xmlns:rdf="http://www.w3.org/1999/02/22-rdf-syntax-ns#"
   xmlns:svg="http://www.w3.org/2000/svg"
   xmlns="http://www.w3.org/2000/svg"
   xmlns:sodipodi="http://sodipodi.sourceforge.net/DTD/sodipodi-0.dtd"
   xmlns:inkscape="http://www.inkscape.org/namespaces/inkscape"
   width="30.255371mm"
   height="41.680611mm"
   viewBox="0 0 30.255371 41.680611"
   version="1.1"
   id="svg9055"
   inkscape:version="0.92.0 r15299"
   sodipodi:docname="frenchguiana.svg">
  <defs
     id="defs9049" />
  <sodipodi:namedview
     id="base"
     pagecolor="#ffffff"
     bordercolor="#666666"
     borderopacity="1.0"
     inkscape:pageopacity="0.0"
     inkscape:pageshadow="2"
     inkscape:zoom="0.35"
     inkscape:cx="1041.4612"
     inkscape:cy="690.19507"
     inkscape:document-units="mm"
     inkscape:current-layer="layer1"
     showgrid="false"
     fit-margin-top="0"
     fit-margin-left="0"
     fit-margin-right="0"
     fit-margin-bottom="0"
     inkscape:window-width="1920"
     inkscape:window-height="1057"
     inkscape:window-x="-8"
     inkscape:window-y="-5"
     inkscape:window-maximized="1" />
  <metadata
     id="metadata9052">
    <rdf:RDF>
      <cc:Work
         rdf:about="">
        <dc:format>image/svg+xml</dc:format>
        <dc:type
           rdf:resource="http://purl.org/dc/dcmitype/StillImage" />
        <dc:title></dc:title>
      </cc:Work>
    </rdf:RDF>
  </metadata>
  <g
     inkscape:label="Layer 1"
     inkscape:groupmode="layer"
     id="layer1"
     transform="translate(292.56221,-289.76684)">
    <path
       style="fill:#cbe6a3;fill-opacity:1;fill-rule:evenodd;stroke:#000000;stroke-width:0.14449541;stroke-miterlimit:4;stroke-dasharray:none;stroke-opacity:1"
       d="m -292.50982,329.10416 c 1.71213,-0.0797 3.07864,-3.01484 3.6622,-4.30292 1.08736,-2.40469 0.0133,-5.08056 1.6563,-7.27124 1.94476,-2.59611 0.15819,-4.51029 -1.49811,-6.57735 -1.71745,-2.14415 -1.64833,-5.97251 -1.81316,-8.58856 -0.19142,-3.04807 0.25257,-4.78014 2.47647,-6.90303 0.82815,-0.79093 1.85969,-1.66427 2.12555,-2.83272 0.34428,-1.51407 0.7351,-3.40565 2.8819,-2.59478 1.3931,0.5264 2.34887,1.65364 3.8297,2.05907 1.59914,0.44 3.54124,0.41474 4.89446,1.49679 1.58718,1.27213 3.69677,6.11741 6.18919,5.94061 -0.41872,0.61414 -0.70585,1.2841 -0.86271,2.01122 0.70719,-3.18498 6.16394,2.27974 3.05738,4.40263 1.50476,-0.55432 0.63008,-1.96071 1.3798,-2.963 1.13788,-1.52337 2.02186,2.02717 2.10959,2.78354 0.41474,3.58644 -2.33689,7.3829 -4.20189,10.23822 -2.14283,3.2807 -3.63296,6.05759 -5.03005,9.75436 -0.51843,1.37183 -1.18706,2.53231 -2.33956,3.46547 -0.47855,0.38815 -1.33594,1.28144 -1.96603,1.4476 -1.03817,0.27516 -1.85569,-0.55564 -2.96565,-0.0266 0.45728,-1.30404 -0.36024,-1.30936 -1.33993,-1.00628 -1.36917,0.42404 -2.53895,-0.13293 -3.84033,-0.57293 -0.65667,-0.22199 -3.21024,1.62839 -3.61834,2.11358 -0.75769,0.89993 -4.28564,-1.54065 -4.78678,-2.06838"
       class="landxx fr gf eu"
       id="gf"
       inkscape:connector-curvature="0">
      <title
         id="title60">French Guiana</title>
    </path>
  </g>
</svg>
