<svg xmlns="http://www.w3.org/2000/svg" width="324.493" height="362.19" viewBox="0 0 85.85537 95.829514"><path class="landxx py" d="M.07 34.192c.93-3.803 1.454-7.771 1.908-11.657.25-2.152-.067-4.146-.205-6.282-.138-2.067.982-3.861 1.828-5.667 1.192-2.548.54-6.202 4.392-6.683 4.034-.505 8.118-1.433 12.002-2.635C26.313-.686 30.765-.315 36.48 2.87c2.273 1.267 5.464 3.027 5.641 5.974.106 1.768 1.47 7.18 3.32 7.75-1.188 1.406.728 1.916 1.05 2.962.243.795 0 3.304-.133 4.209a7.254 7.254 0 0 0-.36 1.955c.106.886.745 1.76.445 2.684-.357 1.1-.972 2.518-.85 3.66.067.678 7.127 2.743 8.16 2.763 1.516.027 3.325.653 4.803.58 1.43-.08 1.307-3.337 2.737-2.317 1.402.997 3.713 2.17 5.445 2.41 1.292.178 1.441.545 1.688 1.96.252 1.444 1.278 2.678 1.483 4.382.263 2.185 2.198 3.334 2.45 5.507.288 2.48.887 7.508 4.28 7.179 1.889-.184 3.168-1.6 4.97-1.95 1.668-.325 2.935 1.673 4.12 2.485-.734.532-.805 1.254-.415 2.018.761 1.496-.483 2.308-.093 3.74.413 1.506-.49 4.179-.763 5.648-.263 1.417-.677 4.402-.456 5.88l1.38 9.275c.12.832-.552 2.984-1.7 3.202-.564.106-2.138 2.364-1.903 2.906.238.549-2.257.956-2.564 1.111-.609.309-1.489.977-1.301 1.573.272.861-1.265 4.333-2.51 3.254-2.602-2.259-4.019-.354-5.179 2.068-.756-.288-1.732-1.604-2.564-1.433-1.1.226-1.314 1.209-2.376-.15-.744-.953-1.692.41-2.715.441-.981.027-2.135-.333-3.06-.582-3.102-.833-6.123-1.988-9.404-1.653-1.554.16-2.495 1.25-3.036-.625-.106-.356 1.065-3.71 1.414-3.94 3.31-2.18-.08-7.79 3.04-9.324 1.445-.711 1.418-4.065 2.21-5.527 1.418-2.613-.196-3.871-2.392-5.533-1.716-1.297-4.275-1.265-5.789-2.54-.898-.758-2.043-1.03-3.167-1.245-1.382-.264-2.618-1.182-3.788-1.853-2.618-1.503-4.587-2.991-6.985-4.912-2.627-2.103-5.06-1.613-8.005-2.79-1.826-.73-4.347-1.015-6.004-2.737-2.4-2.496-6.168-4.786-7.875-6.32-2.05-1.845-4.234-4.223-4.771-5.75-.905-2.567-3.318-2.926-4.892-5.073" fill="#cbe6a3" fill-rule="evenodd" stroke="#000" stroke-width=".144"><title>Paraguay</title></path></svg>