<?xml version="1.0" encoding="UTF-8" standalone="no"?>
<!-- Created with Inkscape (http://www.inkscape.org/) -->

<svg
   xmlns:dc="http://purl.org/dc/elements/1.1/"
   xmlns:cc="http://creativecommons.org/ns#"
   xmlns:rdf="http://www.w3.org/1999/02/22-rdf-syntax-ns#"
   xmlns:svg="http://www.w3.org/2000/svg"
   xmlns="http://www.w3.org/2000/svg"
   xmlns:sodipodi="http://sodipodi.sourceforge.net/DTD/sodipodi-0.dtd"
   xmlns:inkscape="http://www.inkscape.org/namespaces/inkscape"
   width="134.18576mm"
   height="210.21628mm"
   viewBox="0 0 134.18576 210.21628"
   version="1.1"
   id="svg10233"
   inkscape:version="0.92.0 r15299"
   sodipodi:docname="peru.svg">
  <defs
     id="defs10227" />
  <sodipodi:namedview
     id="base"
     pagecolor="#ffffff"
     bordercolor="#666666"
     borderopacity="1.0"
     inkscape:pageopacity="0.0"
     inkscape:pageshadow="2"
     inkscape:zoom="0.35"
     inkscape:cx="253.5794"
     inkscape:cy="397.25909"
     inkscape:document-units="mm"
     inkscape:current-layer="layer1"
     showgrid="false"
     fit-margin-top="0"
     fit-margin-left="0"
     fit-margin-right="0"
     fit-margin-bottom="0"
     inkscape:window-width="1920"
     inkscape:window-height="1017"
     inkscape:window-x="1912"
     inkscape:window-y="-8"
     inkscape:window-maximized="1" />
  <metadata
     id="metadata10230">
    <rdf:RDF>
      <cc:Work
         rdf:about="">
        <dc:format>image/svg+xml</dc:format>
        <dc:type
           rdf:resource="http://purl.org/dc/dcmitype/StillImage" />
        <dc:title></dc:title>
      </cc:Work>
    </rdf:RDF>
  </metadata>
  <g
     inkscape:label="Layer 1"
     inkscape:groupmode="layer"
     id="layer1"
     transform="translate(84.101812,-43.725195)">
    <path
       inkscape:connector-curvature="0"
       id="pe"
       class="landxx pe"
       d="m -84.026525,94.807253 c 1.325315,-2.737017 2.055092,-4.609994 4.138103,-6.941569 0.930513,-1.040849 1.648315,-2.289053 2.772894,-3.14511 0.814871,-0.620778 2.585497,-1.452933 2.65993,-2.649291 1.321324,0.377521 2.714404,5.779773 1.565897,6.45505 -0.83612,0.49185 -1.79056,0.05318 -2.392719,0.906587 -0.687254,0.977027 -0.533057,2.308987 0.826822,2.501717 -1.123265,1.496793 -0.80954,3.392358 0.962399,1.482164 1.555285,-1.676233 2.338245,-0.501144 3.815081,0.751052 1.265487,1.074073 2.714428,-0.554307 3.71139,1.062122 1.023543,1.661605 1.056792,4.413248 3.43223,4.861215 2.0059,0.37886 2.132203,0.27383 2.706444,-1.94476 3.833677,-14.820297 6.961505,-20.025805 2.552247,-3.966602 -0.640714,2.331577 0.684578,-4.219181 1.676234,-6.459043 0.509129,-1.151159 0.91323,-1.793213 0.931851,-3.117191 0,-0.840113 1.272133,-3.353805 1.748013,-1.096685 0.32037,-0.518403 0.382828,-1.063413 0.187423,-1.633685 -0.07974,-0.735108 0.996987,-1.530019 1.389112,-2.049788 1.020914,-1.357202 2.298351,-2.363462 3.839007,-3.069336 3.35249,-1.536666 7.276568,-2.101607 10.336582,-4.225827 6.436456,-4.469086 10.893566,-11.159413 12.293315,-18.784245 0.523734,0.554307 1.160483,0.774977 1.912847,0.664642 -0.947772,-2.206612 0.03989,-4.159353 -1.273447,-6.042966 -0.518427,-0.741753 -3.09594,-2.997557 -2.936412,-3.913441 1.086024,0.184768 2.352849,0.555644 3.381721,-0.05316 1.019575,-0.603498 0.696553,-0.800243 1.846398,-0.373529 1.983287,0.735083 3.450825,1.522035 4.820004,3.171688 1.779924,2.146808 2.786208,2.939067 3.63827,5.684067 0.356272,1.144514 -0.09303,2.080333 1.491491,2.217248 1.530019,0.132924 1.129884,0.744406 2.1880143,1.689547 2.052415,1.835736 3.563839,0.858709 4.278987,3.991866 0.554331,2.427284 0.450641,3.010847 3.038766,3.785824 2.788862,0.834806 0.155535,4.088912 1.579211,5.710646 0.772324,0.878668 1.976643,1.177763 3.103901,1.131226 0.703196,-0.09305 1.410385,-0.156851 2.120228,-0.188762 0.941125,0 2.040464,0.555646 2.875245,0.526412 1.918177,-0.06647 4.1899497,-1.454248 5.0220777,-3.127827 0.878668,-1.766633 3.30595,1.611098 4.356095,1.692177 1.58318,0.119631 4.12348,-2.358157 5.25071,-1.532673 0.89994,0.659335 1.59781,1.849051 2.46452,2.44325 0.83213,0.571587 2.78887,0.416052 3.30063,0.959747 2.0923,2.219925 2.12422,3.020144 0.48919,5.609608 -1.30937,2.073712 -3.85364,5.621584 -4.21653,8.034264 -0.43467,2.885905 2.88988,0.626086 4.13811,1.716127 1.0076,0.878641 1.752,2.084324 2.5057,3.176995 0.3629,0.525071 0.77632,0.76967 0.5942,1.205682 -0.11963,0.930511 -0.93582,1.246865 -1.50344,0.20071 -0.25655,0.319032 -0.51309,0.638062 -0.77098,0.957094 -1.49147,-2.025836 -4.79742,-3.344506 -6.67838,-0.969045 -2.14415,2.709098 -6.812634,1.993927 -9.893924,2.810111 -1.613773,0.428053 -2.3940577,2.219925 -3.9932027,2.718419 -1.680226,0.525073 -1.133903,1.199015 -2.253152,2.206638 -2.682518,2.417987 -4.540866,1.724087 -4.58076,5.868807 -0.01339,1.43699 0.07976,2.64131 -0.768332,3.8922 -0.801557,1.18971 -1.758651,2.38208 -1.439619,3.90679 0.331007,1.58184 1.694852,3.83103 -0.07976,5.05131 -1.487471,1.02488 -2.893867,1.54862 -4.112839,2.97762 -0.88928,1.04217 -1.35187,2.22658 -1.067403,3.59972 0.152857,0.66464 0.384167,1.30404 0.69256,1.91419 -0.74309,0.32302 -1.515391,0.72846 -2.075027,1.33062 -2.158783,2.32361 4.211199,4.34015 1.596467,5.9393 1.333302,0.87068 2.25583,2.46051 2.537619,4.00781 0.164835,0.90524 0.788291,1.22028 1.442296,1.74801 0.818841,0.65934 0.741755,1.66428 1.282769,2.4858 0.95045,1.43961 2.782218,2.11755 3.449511,3.78448 0.796253,1.9873 -0.731115,3.20095 -1.822445,4.62993 2.362147,1.23625 5.834272,0.11963 8.180451,1.68421 1.5233757,1.01159 2.9297677,3.64095 2.3475447,5.494 3.173026,0.39876 7.240656,1.08602 10.062746,-0.84545 1.78126,-1.21897 4.10354,-5.62557 6.50159,-5.65481 -0.2805,1.1525 -1.17642,1.21099 -0.47191,2.40202 0.74706,1.26417 -0.50246,2.52567 -0.42272,3.96928 0.20473,3.75394 0.33366,7.60356 0.78829,11.33488 1.23224,-1.08071 2.0657,1.12857 3.34981,1.00364 1.77062,-0.17282 3.01219,-1.56724 4.83198,-1.5513 1.73606,0.0134 2.99356,-0.18477 3.4987,1.53136 0.76833,2.60675 2.6094,4.75752 3.93072,7.13563 1.33063,2.39406 2.65594,4.79078 4.02512,7.1649 1.19103,2.06308 2.24651,3.36313 0.29377,4.82533 -1.72144,1.2881 -1.92483,3.61435 -1.29871,5.47004 0.54233,1.6018 0.14487,3.74197 0.23527,6.63053 0.0399,1.24555 1.55526,2.82875 1.60978,4.12082 0,0.0798 -1.10732,3.14511 -1.19638,3.22618 -1.16445,1.05281 -1.8557,2.96035 -2.39671,4.42922 -0.98898,2.68383 1.65763,2.91249 1.66428,4.99815 0,1.48083 -0.97038,2.09097 -1.24689,3.5266 -1.55261,-1.06475 -5.03535,-4.68842 -5.70001,-1.98993 -0.4586,1.861 0.40013,1.22294 0.59819,3.5532 0.10634,0.26584 -1.55261,-1.53401 -0.88531,-0.96773 -0.0134,0.39346 -2.21859,2.35684 1.71213,3.74727 0.13957,-1.86366 2.40601,1.14186 3.4628,0.84145 0.60618,-0.17282 0.2898,0.67662 0.17017,2.09097 1.20965,0.3496 3.3578,0.94246 3.5532,0.17946 0.16084,0.0266 1.12458,0.1542 1.39707,0.36024 -0.77763,4.27634 -0.24058,3.32457 0.34165,3.80576 -0.42937,0.88797 0.18476,0.68591 -0.42803,1.48085 -1.0528,1.3665 -2.0006,3.44552 -3.26742,4.70436 -0.55166,0.54766 -1.316,0.83878 -1.75201,1.50741 -0.80024,1.22696 0.86005,0.65403 1.07408,1.68156 0.27516,1.31733 0.80555,1.27082 0.33631,1.85969 -7.62218,9.57093 -2.55758,1.30803 -2.87527,1.97667 -0.7125,1.50076 1.14451,3.42824 0.13957,5.15101 -0.86536,1.48348 -2.69313,2.00855 -4.30825,2.00855 -1.81315,0 -3.2089,-1.35455 -4.43849,-2.51369 -1.45028,-1.36519 -3.03745,-2.00456 -4.60602,-3.11585 -2.78353,-1.97137 -2.57484,-5.55779 -5.91136,-6.92697 -3.94934,-1.62173 -6.61059,-5.47934 -10.791211,-6.50821 -1.956707,-0.48121 -3.9666007,-1.83311 -5.6667847,-2.89121 -2.035132,-1.26549 -4.236439,-1.68955 -6.310151,-2.80749 -2.029828,-1.09666 -3.752598,-2.77158 -5.787734,-3.93072 -2.289053,-1.3027 -4.568782,-2.58014 -6.8804263,-3.84696 -1.952741,-1.07009 -3.129166,-3.52397 -4.665829,-5.1045 -2.036471,-2.09496 -4.906412,-3.19561 -6.330087,-5.79572 -0.802897,-1.46753 -1.825125,-3.23018 -3.234172,-4.11417 -1.232262,-0.77364 0.404101,-3.72999 -1.754682,-3.3578 0.02658,-0.37353 0.119634,-0.72844 0.28712,-1.06343 0.32171,0.19143 0.640739,0.38684 0.957094,0.5849 0.850749,-4.2511 -0.987666,-6.45505 -3.118504,-9.93781 -1.935461,-3.16371 -3.250139,-6.50956 -5.963229,-9.08174 -0.813533,-0.77232 -1.644322,-1.17908 -1.422337,-2.23587 0.255209,-1.21629 -0.457285,-2.58148 -1.038172,-3.59441 -0.570272,-0.99564 -1.260179,-2.06305 -2.144154,-2.81412 -0.81353,-0.69256 -2.202643,-1.02089 -2.719734,-2.02849 -0.06647,-0.52773 -0.01339,-1.05149 0.142221,-1.56858 -0.16084,-1.14716 -0.887965,-2.4605 -1.410385,-3.47609 -1.000953,-1.94741 -2.367455,-3.67283 -3.477429,-5.55513 -1.046155,-1.77328 -1.633686,-3.89748 -2.374125,-5.80767 -1.728076,-4.46113 -4.51426,-7.89601 -5.766459,-12.20958 -1.7108,-5.88743 -6.710289,-9.4712 -8.979383,-15.28688 -2.596109,-6.65177 -7.963798,-11.39203 -14.472033,-14.13569 -0.572927,-0.24195 -2.719735,-0.7577 -2.792853,-1.5513 -0.106344,-1.10598 -0.333636,-2.95104 1.254874,-2.7543 2.826078,0.35095 1.753319,-2.32094 0.838774,-3.7127 -1.290753,-1.96338 -2.574836,-2.78355 -2.642648,-5.22547 0.261879,-0.3137 0.517114,-0.63273 0.765679,-0.95709 -0.05316,-0.37219 -1.176425,-1.401063 -1.427668,-1.685533 -1.321299,-1.48881 -0.513098,-2.366163 -1.066089,-4.050379"
       style="fill:#cbe6a3;fill-opacity:1;fill-rule:evenodd;stroke:#000000;stroke-width:0.14449541;stroke-miterlimit:4;stroke-dasharray:none;stroke-opacity:1">
      <title
         id="title22">Peru</title>
    </path>
  </g>
</svg>
