<?xml version="1.0" encoding="UTF-8" standalone="no"?>
<!-- Created with Inkscape (http://www.inkscape.org/) -->

<svg
   xmlns:dc="http://purl.org/dc/elements/1.1/"
   xmlns:cc="http://creativecommons.org/ns#"
   xmlns:rdf="http://www.w3.org/1999/02/22-rdf-syntax-ns#"
   xmlns:svg="http://www.w3.org/2000/svg"
   xmlns="http://www.w3.org/2000/svg"
   xmlns:sodipodi="http://sodipodi.sourceforge.net/DTD/sodipodi-0.dtd"
   xmlns:inkscape="http://www.inkscape.org/namespaces/inkscape"
   width="41.09795mm"
   height="47.823936mm"
   viewBox="0 0 41.09795 47.823936"
   version="1.1"
   id="svg7805"
   inkscape:version="0.92.0 r15299"
   sodipodi:docname="suriname.svg">
  <defs
     id="defs7799" />
  <sodipodi:namedview
     id="base"
     pagecolor="#ffffff"
     bordercolor="#666666"
     borderopacity="1.0"
     inkscape:pageopacity="0.0"
     inkscape:pageshadow="2"
     inkscape:zoom="0.35"
     inkscape:cx="77.665417"
     inkscape:cy="90.37594"
     inkscape:document-units="mm"
     inkscape:current-layer="layer1"
     showgrid="false"
     fit-margin-top="0"
     fit-margin-left="0"
     fit-margin-right="0"
     fit-margin-bottom="0"
     inkscape:window-width="1920"
     inkscape:window-height="1057"
     inkscape:window-x="-8"
     inkscape:window-y="-5"
     inkscape:window-maximized="1" />
  <metadata
     id="metadata7802">
    <rdf:RDF>
      <cc:Work
         rdf:about="">
        <dc:format>image/svg+xml</dc:format>
        <dc:type
           rdf:resource="http://purl.org/dc/dcmitype/StillImage" />
        <dc:title></dc:title>
      </cc:Work>
    </rdf:RDF>
  </metadata>
  <g
     inkscape:label="Layer 1"
     inkscape:groupmode="layer"
     id="layer1"
     transform="translate(37.557903,-124.92137)">
    <path
       inkscape:connector-curvature="0"
       id="sr"
       class="landxx sr"
       d="m -34.550492,153.10358 c -1.094008,-0.65004 -2.949704,-4.67248 -2.935075,-5.97518 0.01339,-1.90754 0.229969,-6.6571 0.232622,-8.38786 0,-3.25011 4.209884,-2.35285 6.346055,-2.35815 1.007599,0 2.875246,-2.74632 0.769646,-3.35515 2.158783,-2.58812 1.304043,-8.27752 5.995114,-7.62882 1.476859,0.20473 9.386158,0.8933 8.640414,3.4894 1.032865,-2.03915 -0.574241,-3.45883 2.71309,-3.44554 1.216318,0 5.0526484,-0.1595 5.1297604,1.72411 0.634069,-0.80158 1.864993,-0.35228 2.685169,-0.38416 -0.202049,-0.1396 -2.848689,-1.11663 -2.456539,-1.38513 1.749351,-1.19769 6.322128,0.64337 8.21104701,0.96106 3.30329899,0.55434 3.15574599,2.86199 1.71612699,5.30655 -1.57256699,2.66657 -3.736655,4.1833 -3.610377,7.57033 0.106344,2.96168 -0.21001,6.48828 1.22695801,9.18676 1.14051999,2.14282 3.96260599,3.94932 2.44191099,6.70895 -0.521081,0.94512 -1.066115,2.00989 -1.33196,3.09327 -0.25920499,1.0581 -0.06647,2.52832 -0.37486999,3.63296 -0.741728,2.68249 -2.81278801,5.67075 -3.69676101,5.71461 -0.753705,0.0399 -3.389707,-1.88227 -3.759245,-2.3462 -1.285423,-1.61774 -4.0463634,0.3443 -5.8954144,0.68195 -1.491465,0.27249 -1.749352,0.60216 -3.085305,-0.13295 -1.405055,-0.76699 -1.297373,-0.14755 -1.922145,0.81886 -1.378475,2.13352 0.494502,2.02319 0.907901,4.37338 0.52242,2.96565 -4.635234,1.31731 -5.793063,0.58354 -0.844104,-0.53437 -2.315633,-1.29073 -3.022798,-1.96335 -0.937158,-0.89196 -0.98635,-1.59781 -0.974374,-2.39275 0.02658,-2.06305 -3.288693,-4.76285 -3.291346,-6.79533 0,-0.76702 -0.330982,-4.74292 -1.318647,-4.87187 -0.705874,-0.0931 -1.888944,0.65135 -2.480467,-0.0931 -0.594201,-0.74706 -0.600845,-1.82245 -1.067428,-2.33956"
       style="fill:#cbe6a3;fill-opacity:1;fill-rule:evenodd;stroke:#000000;stroke-width:0.14449541;stroke-miterlimit:4;stroke-dasharray:none;stroke-opacity:1">
      <title
         id="title877">Suriname</title>
    </path>
  </g>
</svg>
