<?xml version="1.0" encoding="UTF-8" standalone="no"?>
<!-- Created with Inkscape (http://www.inkscape.org/) -->

<svg
   xmlns:dc="http://purl.org/dc/elements/1.1/"
   xmlns:cc="http://creativecommons.org/ns#"
   xmlns:rdf="http://www.w3.org/1999/02/22-rdf-syntax-ns#"
   xmlns:svg="http://www.w3.org/2000/svg"
   xmlns="http://www.w3.org/2000/svg"
   xmlns:sodipodi="http://sodipodi.sourceforge.net/DTD/sodipodi-0.dtd"
   xmlns:inkscape="http://www.inkscape.org/namespaces/inkscape"
   width="130.48566mm"
   height="103.85941mm"
   viewBox="0 0 130.48566 103.85941"
   version="1.1"
   id="svg37019"
   inkscape:version="0.92.0 r15299"
   sodipodi:docname="afghanistan.svg">
  <defs
     id="defs37013" />
  <sodipodi:namedview
     id="base"
     pagecolor="#ffffff"
     bordercolor="#666666"
     borderopacity="1.0"
     inkscape:pageopacity="0.0"
     inkscape:pageshadow="2"
     inkscape:zoom="0.35"
     inkscape:cx="246.58706"
     inkscape:cy="196.26992"
     inkscape:document-units="mm"
     inkscape:current-layer="layer1"
     showgrid="false"
     fit-margin-top="0"
     fit-margin-left="0"
     fit-margin-right="0"
     fit-margin-bottom="0"
     inkscape:window-width="1920"
     inkscape:window-height="1017"
     inkscape:window-x="1912"
     inkscape:window-y="-8"
     inkscape:window-maximized="1" />
  <metadata
     id="metadata37016">
    <rdf:RDF>
      <cc:Work
         rdf:about="">
        <dc:format>image/svg+xml</dc:format>
        <dc:type
           rdf:resource="http://purl.org/dc/dcmitype/StillImage" />
        <dc:title></dc:title>
      </cc:Work>
    </rdf:RDF>
  </metadata>
  <g
     inkscape:label="Layer 1"
     inkscape:groupmode="layer"
     id="layer1"
     transform="translate(82.251755,-96.903677)">
    <path
       inkscape:connector-curvature="0"
       id="af"
       class="landxx af"
       d="m -82.093972,147.25593 c -0.358925,-1.23357 0.478534,-2.17606 1.435627,-2.79416 1.515391,-0.96243 0.704536,-1.61908 -0.132923,-2.75829 2.552247,-0.2898 2.445903,-3.54656 2.618697,-5.44081 0.132923,-0.97172 -1.010253,-2.0963 -0.451955,-3.03743 0.491848,-0.82151 0.505138,-2.08965 0.651352,-3.01352 0.345611,-2.02718 3.110545,0.69524 4.014478,1.15914 1.355863,0.69655 2.39272,-0.20071 3.761897,0.17547 1.488811,0.41209 2.618697,1.8464 3.097256,3.26608 0.957093,-2.01919 3.469446,-0.90658 4.944967,-2.23321 0.784275,-0.70985 1.661628,-1.07142 2.140163,-2.07503 0.451954,-0.93317 -0.505139,-1.32929 0.757695,-2.00989 -0.677932,-0.47189 -1.249519,-1.13257 -1.528681,-1.91285 4.120798,0.53172 8.534071,-2.27177 11.72438,-4.54087 3.150415,-2.22922 -0.82417,-9.26917 3.057361,-10.86034 1.409049,-0.57823 3.881556,0.24991 5.038021,-0.48785 1.222965,-0.78294 -0.225976,-3.0773 1.541997,-3.36444 1.342572,-0.21668 2.844673,1.16846 3.9214,1.76531 1.635048,0.89461 3.057385,0.40676 4.812043,0.17813 2.033818,-0.26587 3.854974,-0.31772 5.343761,1.24156 1.502127,1.57123 3.256782,-0.10635 5.051335,0.39346 0.731115,0.19806 2.07369,1.94875 2.711751,2.53098 1.422337,1.27478 1.568575,-0.28048 3.030781,0.0266 -0.252555,-1.64832 2.538958,-1.72543 3.349837,-2.628 0.837459,-0.9252 0.717801,0.17944 1.5286799,-0.14889 0.398796,-0.16084 0.358902,-1.06609 0.89062,-0.98236 1.44894,0.22201 1.94079,2.93111 3.722028,2.52168 2.140162,-0.49051 -0.212688,-3.19163 0.664642,-4.44915 1.847736,-2.65859 5.8489,0.50779 7.005388,-0.76169 1.435627,-1.55526 -0.744405,-2.12687 -0.98367,-3.21954 -0.279162,-1.27213 1.51539,-2.77024 1.980634,-4.038407 1.276125,-3.493372 5.83561,-3.793783 7.7896661,-0.346925 0.451954,0.804212 -0.212688,3.373742 0.664642,3.660862 0.903933,0.2951 2.206635,-0.90924 2.764932,0.38949 0.584904,1.36519 0.239292,4.29228 0.305742,5.78109 0,1.67623 0.345612,3.3937 0.957094,4.9596 1.900899,4.84926 4.772169,2.18137 7.510509,-0.11964 1.1299,-0.94511 3.40299,0.10635 4.01447,-1.34126 0.82417,-1.94874 2.03382,-3.1491 4.00117,-4.13411 1.46223,-0.72977 7.03197,-0.57957 4.65254,2.07637 1.6616,0.69655 4.39996,-1.16314 5.88877,-1.90489 1.24954,-0.62078 5.27729,0.52376 5.98182,2.0006 -1.11662,0.50513 -2.21992,-0.45196 -3.34981,0.0931 -1.32931,0.64604 -0.45198,1.79854 0.94378,2.25315 -1.19636,0.40943 -2.77823,0.96108 -3.69543,1.81582 -1.56857,1.45824 -2.71177,-0.69124 -4.26703,-0.34695 -3.29665,0.72978 -6.68636,0.34561 -9.71714,0.84146 -1.44894,0.23393 -2.68517,1.06341 -4.10751,1.45955 -1.60845,0.44531 -1.92748,2.52433 -2.96433,3.068 -1.12991,0.59554 -1.48881,-0.68193 -2.68517,1.01027 -0.584905,0.82283 -1.767976,1.99792 -2.033822,2.91381 -0.319032,1.02887 1.196359,1.71478 1.834422,2.19999 1.43563,1.74136 2.95102,3.2993 3.68213,5.89276 -1.35586,1.64301 0.70454,1.54065 0.66467,2.54027 -0.83746,0.65004 -0.67796,1.31334 -1.03686,2.24651 -0.71782,1.82247 -2.27308,2.24385 -2.79151,3.17702 -0.25258,0.48121 -0.34564,0.94911 -0.14624,1.46089 -0.27914,0.0134 -1.183071,0.0665 -0.957093,0.63008 0.332343,0.79493 1.316023,1.28676 1.887603,1.8783 2.00724,2.06571 -1.12991,4.24577 -2.632008,4.57278 -1.448917,0.31903 -3.150415,0.0399 -4.612645,-0.25258 -0.717802,-0.1449 -2.7516221,-0.8986 -3.4428671,-0.2087 -1.488811,1.48482 2.9776211,2.83407 3.4029961,4.65785 0.212688,0.92783 1.767949,2.49242 1.302703,3.40699 -0.451953,0.89992 -2.552248,2.18268 -3.7087361,2.16939 -4.041034,-0.0532 -2.89786,1.20435 -2.725042,2.80084 0.146214,1.3067 0,2.85266 -0.917223,3.88952 -0.983673,1.12458 0,2.61339 0.358926,3.83499 0.598167,2.2864 0.252555,5.14305 -2.087004,6.36068 -1.382467,0.72313 -1.954054,-0.0266 -2.645302,-1.11927 -0.279135,-0.45062 -1.51538997,-0.85341 -2.07368797,-0.9531 -0.358902,-0.0665 0.265849,0.1954 -0.292451,0.87467 -5.33047103,-1.95405 -2.18003203,1.8105 -8.24162003,2.58416 0.305741,1.18572 1.648338,1.23491 2.392746,2.00989 -1.462233,0.77629 -3.083968,1.27613 -4.7588859,1.44493 -1.621735,0.16218 -2.273086,-0.97835 -3.137125,-1.02089 -1.541994,-0.0665 -2.31298,2.83671 -3.429577,3.63428 -1.355886,0.95312 -1.661628,0.91323 -1.767972,2.97231 -0.132921,1.90355 0.664644,3.38971 0.824169,5.23343 -0.159525,0.72578 -0.172815,1.21763 -0.305739,1.95006 0.132924,0.69789 0.704535,1.09669 0.957093,1.66562 0.903907,2.05242 -7.005391,3.40965 -8.015645,3.64892 -1.688208,0.40278 -2.93775,1.15515 -4.718989,1.08205 -1.767972,-0.0798 -3.921424,-0.73644 -5.569738,0.14622 -1.595155,0.86138 -2.618722,1.75999 -4.479724,1.24022 -1.741393,-0.48386 -3.735316,-1.03418 -5.529869,-0.78827 -3.974584,0.55034 -8.547362,1.38247 -12.521945,0.21534 -4.65254,-1.37183 -7.670032,-3.31525 -12.428891,-4.38667 2.033819,-2.33158 3.469446,-5.08322 5.210814,-7.62216 1.5021,-2.18271 2.990911,-4.57411 2.087003,-7.3324 -1.661629,-5.04466 -9.42469,-1.06076 -10.647654,-6.57999 -0.770985,-3.4987 -0.917199,-6.53747 -2.499064,-9.83412 -1.382467,-2.84202 -3.203599,-5.59501 -1.236254,-8.54072 1.581865,-2.37544 1.222965,-2.10959 -1.249519,-2.78087 -2.246506,-0.61548 -2.605431,-4.38268 -2.379454,-5.64152"
       style="fill:#cbe6a3;fill-opacity:1;fill-rule:evenodd;stroke:#000000;stroke-width:0.14449541;stroke-miterlimit:4;stroke-dasharray:none;stroke-opacity:1">
      <title
         id="title392">Afghanistan</title>
    </path>
  </g>
</svg>
