<svg xmlns="http://www.w3.org/2000/svg" width="197.311" height="152.775" viewBox="0 0 52.205193 40.421844"><g class="landxx coastxx az" transform="matrix(1.3293 0 0 1.3293 -2116.072 -527.604)" fill="#cbe6a3" fill-rule="evenodd" stroke="#000" stroke-width=".109"><title>Azerbaijan</title><g class="landxx coastxx az az-"><path d="M1591.91 402.427c2.12-1.62 3.41-1.363 5.29.255 1.2 1.019 2.1.436 3.42.762 1.11.274 1.53 1.014 2.49.535 2.15-1.07-1.72-3.065-2.11-3.286-.94-.536-1.31-1.301-1.25-1.695.1-.41 1.66-1.349.92-2.021.61-.176 3.47 1.168 4.35 2.319.59.775 1.79.843 2.09 1.454.43.861.69 1.69 1.63 2 .84.276 1.78.531 2.67.512.8-.02 1.24-1.141 1.59-1.811.16-.321 3.38-2.828 2.68-3.725 1.54.5 3.18 2.322 4.02 3.605 1.21 1.84 2.21 3.483 3.74 5.107.24.09.48.189.72.288 0 .264 0 .528.1.793.69.769 1.41 1.127 2.46 1.21 2.28.182 3.47.864 4.38 2.965-.82-1.139-3.13-1.627-4.32-.856-1.7 1.107-1.76 1.891-2.09 3.744-.3 1.665 0 2.781.34 4.307.12.543-.68 1.108-.74 1.751-.1.976.35 1.728-.82 1.494 1.22-1.151-1.26-1.803-1-.487.36 1.843-.41 3.655.25 5.597-.54.01-1.42.09-1.89-.238-1.71-1.177-4.73-2.901-4.55-3.929.1-.53 1.38-.499 1.45-.913.13-.868-1.91-2.458.27-3.27-1.91-2.188-3.59-3.669-5.54-1.613-1.9 2.009-2.99 1.815-3.24 2.544-1.56 2.314-2.37 2.467-3.51 3.184-.46-.577-1.14-2.663.12-2.82-.34-.415-1.91-1.122-1.64-1.823.12-.304.77-.478.28-.847-.37-.288-1.02-.586-1.43-.49-1.54.354-3.58-2.349-5.35-3.39.82-.397 1.99-.08 2.44-1.091.48-1.074-.9-1.378-1.62-1.74-1.18-.587-4.58-3.147-1.82-4.01-.66-1.782-2.71-1.798-4.04-2.808 1.99.32-.54-1.134-.71-1.563M1592.26 416.156c1.15-.253 3.09-.808 2.96 1.08.85-.499 1.44.691 2.39.396.48-.149 1.85-.485 2.23.05.76 1.099-.28 1.322 1.25 2.086.64.316 1.4 2.912 1.99 3.581-4.27-.247-4.35-.694-6.35-2.337-1.67-1.364-3.61-2.804-4.47-4.854"/></g><path class="limitxx az xn" d="M1609.19 419.825c-1.56 2.314-2.37 2.467-3.51 3.184-.46-.577-1.14-2.663.12-2.82-.34-.415-1.91-1.122-1.64-1.823.12-.304.77-.478.28-.847-.37-.288-1.02-.586-1.43-.49-1.54.354-3.58-2.349-5.35-3.39.82-.397 1.99-.08 2.44-1.091.17-.38.11-.663-.1-.887 0 0 1 .465 1.14.485.14.02 1.23-1.013 1.23-1.013s-.18-.561.1-.909c.19-.268.7-.462.78-.454.2.02 1.15 1.753 1.31 1.889.15.136 2.06 1.461 2.06 1.616 0 .156.41 1.422 1.05 1.753.65.331 1.06 1.013 1.06 1.013s-.34.545-.18 1.324c.16.779.88 1.421.92 1.616 0 .195-.26.838-.28.844z"/></g></svg>