<svg xmlns="http://www.w3.org/2000/svg" width="205.795" height="205.248" viewBox="0 0 54.449909 54.305073"><g class="landxx coastxx kh" transform="matrix(1.3293 0 0 1.3293 -2720.783 -840.238)" fill="#cbe6a3" fill-rule="evenodd" stroke="#000" stroke-width=".109"><title>Cambodia</title><path d="M2061.92 669.24c-.32.455-.75.695-1.3.721.97.748 1.07 2.032 1.8 2.951-.36-1.23.68-2.687-.5-3.672M2053.78 660.89h-.43c.16.291.35.555.58.792 0-.264-.1-.528-.15-.792M2056.09 667.22c.35-.609.13-.849-.65-.72.2.256.42.495.65.72"/><path class="landxx kh" d="M2047.16 644.47c0-.754 0-1.519-.29-2.232 2.39.08 3.4-3.35 4.13-5.084.81-1.893 4.8-3.316 6.41-2.18.7.495 1.52.207 2.63-.04 1.23-.274.86.475 4.1-.152 3.08-.595 1.82 2.708 3.97.711.15 3.016 3.59.812 4.79 2.813.58.98 2.59 1.03 2.4-.463-.1-.824-1.93-1.834-.83-2.604.46-.323.91.328 1.05-.422.12-.612.64-.398 1.1-.438.59-.05.5-.866.99-.909.66-.06 1.33.861 1.8 1.206 2.07 1.516 4.96-.715 6-2.392 0 .553 0 1.204-.16 1.744-.21.594-.83 1.469-.76 2.073.1.743-.12 1.221.33 1.749.69.811.74 1.61.88 2.316.4 1.907 1.68 2.396 1.19 4.613-.19.863-.37 1.746 0 2.762.28.787.46 1.798.66 2.625.83 3.515-2.15 2.848-2.59 3.148-.91.626-1.34 1.138-2.04 1.694-1.62 1.286-2.39 1.046-3.78 1.053.63.769 0 1.756.5 2.592-.82-.159-2.96-1.61-3.6-.614-.42.653-1.31.751-1.13 1.597.19.892.5 1.904.97 2.692.54.922 2.2.972 2.39 2.302-.95.138-.12.796-.14 1.584-.67-.215-1.46-.193-2.06-.59-.53-.344-.77-1.402-1.54-1.251-1.48.29-3.39 1.714-4.75.4-.77.79.17 1.853-.82 2.834-.95.953-1.82.476-2.93.92-.82.328-.94.854-1.94.423-1-.423-3.04-.719-3.53-1.729.27 1.068-1.2 1.8-1.98 1.104-1.02-.922-.1-1.119.51-1.752.7-.741-.15-2.717-.8-3.234-1.15-.926-1.29 1.493-1.48 2.083-.71-.599-1.15.273-1.8-.05-.99-.487-.39-2.059-.63-2.875-.22-.742.51-1.807-.26-2.347-.54-.376-1.69-1.684-.34-1.858-.57-.302-.96 0-1.08.576.19-1.228-.86-2.321-1.29-3.385-.47-1.19.15-2.854-.59-3.917-1.57-2.27-2.75-4.422-3.65-7.1"/></g></svg>