<svg xmlns="http://www.w3.org/2000/svg" width="1060.681" height="1248.884" viewBox="0 0 280.63864 330.43396"><g class="landxx coastxx in" transform="matrix(1.3293 0 0 1.3293 -2367.034 -601.64)" fill="#cbe6a3" fill-rule="evenodd" stroke="#000" stroke-width=".109"><title>India</title><path d="M1977.82 654.19c-.2.342-.35.237 0 .72v-.72M1983.73 685.654c0 .241 0 .481.1.721 0-.241 0-.481-.1-.721M1974.58 666.286a9.71 9.71 0 0 0-.57-1.009c-.64.526-1.01 1.558-.84 2.368.45 2.047 2.1-.121 1.41-1.359M1975.16 647.998c-1.43 1.191 0 4.762.14 6.191-1.79-.331-2.14 5.617.22 5.4-1.05-.735.1-.813.1-1.646 0-.994-.59-1.929-.25-2.928.25-.758.91-1.412.76-2.274-.25-1.347.36-.445.61-1.675.25-1.239-1.15-2.499-.85-3.455.29-.934 2.06-2.874.23-3.287.75-.583.62-1.488.1-2.159-1.83 1.407-.6 3.954-1.01 5.833"/><path d="M1974.51 647.422h-.36c.1.281.2.546.36.792v-.792M1977.1 679.606c-.34.153-.5.417-.5.792.81.231.98-.03.5-.792M1976.82 655.702c.16.253.4.396.71.432-.24-.144-.48-.288-.71-.432M1982.29 690.262c-2.06.754 1.87 1.551 0 0M1983.29 688.534c-1.03.06-.35 1.206.1 1.512-.23-.494-.25-.997-.1-1.512M1984.88 695.446c-.6.23-.74.919-.43 1.44.57-.302.85-.865.43-1.44M1986.25 697.39c-2.67-1.325-.51 2.813 0 3.672.8-1.783 0-2.11 0-3.672"/><path class="landxx in" d="M1780.76 553.894c-.1-1.698 1.77-1.728 2.99-1.728 1.45 0 .74-2.228.68-3.024.87.509 3.34.186 4.13.272 1.97.213 3.32 1.285 5.61.863.15-.03 0-1.146.69-1.161.75-.02 1.81-1.26 2.86-.724 1.26 2.01 2.36 1.378 4.14-.04-2.42-1.73-.46-1.986-.61-2.533-.82-2.888-2.8-4.491-3.44-6.065-.43-1.046.23-2.841-1.68-2.474-2.42.465-3.28-1.312-3.2-2.86.1-1.312.56-3.583-.48-4.237-1.69-1.058-4.42-.495-5.16-3.048-.53-1.828 1.06-3.949 2.05-5.285.71-.959.96-1.783 1.51-2.837.38-.743 1.48-2.287 2.57-2.018 1.43.35 1.3 2.587 2.85 2.729.89.08 1.58-.582 2.35-.922.94-.419 2.1-.261 3.08-.476 2.1-.46 1.86-2.207 3.19-3.557 1.61-1.632.65-3.818 2.99-5.146 2.14-1.214 3.01-2.725 3.67-5.108.49-1.742 0-4.05 2.13-4.769.72-.245 1.6-.406 2-1.146.55-1.041-.8-1.275-.79-1.8 0-.632 1.66-2.858 2.04-3.436.71-1.077 2.43-1.658 2.93-2.828-1.54-.03-1.15-1.474-1.16-2.521 0-1.271-1.18-2.227-1.15-3.318 0-1.909 3.73-2.27 4.79-3.501 1.81-2.114-3.23-2.319-4.13-2.649-.93-.339-.68-1.712-1.66-2.243-.67-.363-1.48-.357-2.17-.672.29-.765 0-1.202-.69-1.552-.7-.374-2.71-1.542-2.17-2.456.51-.866.88-1.789-.12-2.486-.61-.427-1.63-1.333-.75-2.09.35-.301 2.42-1.694.67-1.85-.29-.03-3-.05-2.22-1.034.98-1.236-.32-1.144-1.09-1.743-.96-.746.64-2.7 1.27-3.086 1.61-.993 3.3-.233 4.97.139 1.89.421 3.76.894 5.65 1.332 1.61.373 2.56-.628 3.99-1.125 1.24-.433 2.55-.377 3.78-.771.38-.123 2.57-2.353 2.41-2.642-.46-.783 1.85-1.98 2.47-2.483.5-.403 1.04-.85 1.65-1.065.52-.181.51.05.87.314 1.44 1.035 1.47 1.46 1.98 2.086.83 1.037.95 3.234 2.35 4.233 1.74 1.248 4.76 2.692 6.33 3.817.5.357-.76.904-1.03 1.232-.48.579-.28.588.19 2.406.41 1.525 1.14 2.83 2.22 4.062.98 1.109 2.8 1.031 3.55 1.79.38.389.1 1.043.31 1.516.26.534.49.905.83 1.373 1.23 1.662-.5 2.255-1.22 2.867-.98.823-1.72 2.085-2.91.246-.95-1.467-1.72-1.756-3.2-.653.52.592.72 1.266.92 2.005.23.827 1 1.285 1.58 1.841 1.65 1.579.82 2.724 1.87 3.837.62.659-.19 3.473 1.29 2.989.53-.172.79-.661 1.35-.854.88-.302 1.27.699 1.6 1.238.48.77 1.87 2.382 2.77 2.56 1.06.213 2.02-.506 2.91.512.54.618 1.09.571 1.76.92.66.337.68.947.55 1.408-.22.763 1.03.881 1.71 1.066 2.12.573 3.64 1.124 4.95 2.71-1.99.118-2.19 3.863-3.56 4.825-.13.09-.43 1.157-.59 1.49-.56 1.187.57.985.38 2.111-.17 1.051-1.66 2.379-.77 3.317.69.729 3.31 2.889 3.31 1.433 1.22.753 2.96 1.419 4 2.07 1.81 1.123 2.28 1.982 3.73 2.846.42.255 3.02 2.01 3.62 1.769 1.41-.565 2.5.816 3.71 1.433.51.263 2.25.29 2.53.631.97 1.187 1.1 1.509 2.79 1.852.89.181 1.77.818 2.65.164 1.18-.873 2.16.104 3.47.683-.85-2.261 4.81.04 5.2.154 1.56.475 1.02 2.567 2.46 2.899 1.23.284 2.49.808 3.24 1.88.61.858 1.99-.31 2.72-.371 1.77-.149.9 2.526 3.25 1.567.69-.283 3.71.761 4.37 1.16 1.71 1.025 2.1 0 3.67-.521.14 1.122 1.47 1.962 2.84 1.411.42-.171 2.71 0 3.27.02 1.2.03 1.47-.281 1.65-1.572.3-2.2-.83-2.673-1.67-4.556-.47-1.033-.1-2.488 0-3.587.12-1.333-.2-2.365-.27-3.665 1.33-.09 2.86-1.223 4.19-.835 2.62.761.33 4.006 1.45 5.37.2.245 1.18.823.88 1.25-.48.658-.92.575-.39 1.517 1.15 2.072 2.69 2.009 4.7 2.271 1.35.176 2.19 1.373 3.53 1.231.56-.06 1.34-.141 1.83-.472.5-.344 1.62-1.565 2.35-1.056 1.82 1.274 4.1.856 6.19.776.64-.02 1.6-.928 1.96-.5.55.659 2.49.08 3.29.001 1.96-.188-.32-1.347 0-2.898.6-3.358-2.97-1.376-3.37-3.022-.24-.964-.95-2.236.5-1.886 1.15.281 2.31-.142 3.32-.394 1.45-.36 2.56.179 2.91-2.46.15-1.132 2.94-2.227 3.07-3.744.21-2.394 3.14-1.087 4.53-2.449 1.11-1.091 1.76-2.355 3.01-3.347a13.07 13.07 0 0 1 1.59-1.091c.44-.252 2.58 1.323 3.03 1.588-.53-.532-.27-.612.65-.109.72.301 1.48.868 2.29.835.83-.03.7-1.021 1-1.547.53-.94 2.32-1.66 3.26-2.039.21-.08 2.44 1.914 2.7 2.141-1.7 1.453-1.49 1.341-.97 1.907.55.597 1.86-.579 2.23-.684-.3 1.056 1.63 1.788 1.29 2.626-.51 1.274-1.1 1.644-1.36 2.919-.19.908 1.44-.169 1.76-.257 1.34-.373 2.72 1.38 4.09.964 1.17-.357 2 1.127 2 2.125 0 .373.55.679.49.957-.14.669-1.24 1.455-1.67 1.928-2.44 2.672 1.19 3.696 1.61 5.73-1.72.73-2.39-2.101-3.41-1.893-3.54.722-4.39.557-5.1 1.764-.6 1.014-1.01 1.805-1.88 2.126-.7.208-.45.535-.83.523-.45.368 0 .667-.72 1.056-.36.189-1.58-.232-2.14 1.058-.34.787-.1 1.772.13 2.585.18.62.65 1.046.84 1.626.25.775-.27 1.52-.33 2.28-.17 2.125-3.05 3.305-2.26 5.011.28.612 1.06 1.37 1.01 2.093-.24 3.572-2.16 6.302-2.88 9.996-.72-.575-2.59-1.13-3.49-1.364-.46.03-.91.191-1.35.287-.58-.117-.64-.624-1.32-.484.74 2.036 1.06 3.754 1.18 5.913.1.91.15 3.784-1.5 2.56.26 1.969.1 3.413.88 5.273.28.661.92 2.88-.59 1.999.15 3.63-1.19 1.964-2.52.433.12.582-.21 1.279-.67 1.639-1.2-4.941-2.69-9.429-4.27-14.729-.25-1.298-1.78.678-2.58-.03.45.575.18 1.423-.21 2.143-.49.909 0 1.798 0 2.693 0 .905-.52 1.856-1.62 1.048-.83-.605-1.12-1.737-1.78-2.268.1.485.1.966-.1 1.44-.65-1.475-1.69-2.915-2-4.404-.33-1.583 1.42-3.027.99-4.381.75.1 2.08.334 1.94-.864.49.758 1.18-.395 1.87.217.22-1.89 2.92-3.796 1.73-6.049.45.04 2.05.12 1.16-.784-1.04-1.059-2.66-1.774-4.11-1.807-1.22-.03-2.16-.166-3.77-.109-1.7.06-3.21.289-4.89.165-2.44-.181-7.47.307-7.15-2.892.13-1.358-.53-5.916-2.69-5.733.35.614.17 1.194-.1 1.801-1-.555-2.5-.818-3.21-1.801-.6-.823-.78-2.333-2.12-2.087.47.419.8.923 1.01 1.512-.63-.203-1.37-.144-2.32-.67-.45-.251-.53-.943-.96-1.287-.58-.462-1.38-.779-1.98-1.211l-.19.955c.34.01 1.28.117 1.56.988-2.27.861-3.73 4.09-.98 5.182 1.1.436 1.5 1.628 2.44 2.252.7.458 1.99-.344 2.1.631.16 1.421 2.12.883 1.19 2.376-.62-.328-1.64-.225-2.31-.161-.91.09-1.12.146-1.21.986-.1.896-.96 2.765-1.74 1.047-.1 1.478-1.79 2.25.32 3.856 1.12.86 2.78.788 3.74 1.601 1.82 1.54.95 2.166 1.19 2.936.25.79-1.93 1.559-.63 2.807 1.15 1.101 1.11.908 1.44 1.3.31.377-.16 1.255.1 1.992.1.279 1.04.259 1.18.3.77.229.34 1.455.4 1.912.1.925.38 1.521.51 2.452.18 1.261.57 1.99 1.01 3.124.49 1.235.97 2.723.36 3.928-.28-.179-.57-.347-.86-.504.22.482 1.91 2.378 1.33 2.863-.62.518-1.46-.407-1.48-.991-.13.782-.72 1.467-1.22.432-.52-1.09.11-2.463.1-3.6-.68.336.1 1.023-.72 1.655.18-.762-.31-1.49.1-2.231-1.36 1.037-.12 4.393-.36 5.832-.31-.952.1-2.487-.86-3.168 0 .104.24 2.674-.19 2.39a4.49 4.49 0 0 1-.37-.571c-.82-1.163-.1 1.727-.81-.451.33.515.35 1.043.1 1.584-.99-.893-.96-2.817-1.08-4.032-.18-1.87-1.66-1.511-2.23-3.024.24 1.516 2.71 1.223 1.55 3.164-1.31 2.187-2.53 3.078-5.01 3.821-1.31.395-3.11 1.083-3.4 2.617-.2 1.043.78 4.454 1.6 5.23-.5.391-1.29.792-1.53 1.425-.37.965.57 1.04-.58 1.957-1.38 1.093-1.9 3.2-3.58 1.011.24.823 1.2 1.219 1.88 1.584-2.1 1.051-4.35 2.116-6.7 2.447.74-.404.95-2.2-.22-1.795-1.21.415-2.27 2.151-1.87 3.379.15-.464 1.26-2.003 1.66-1.224-.73.21-1.86 2.127-2.56 2.812-1.58 1.537-2.38 3.412-3.47 5.302-1.11 1.912-2.42 3.809-4.49 4.753-1.78.81-1.99 3.182-3.74 3.981 1.16.699-4.47 3.328-5.1 3.893-.61.552-1.26 1.356-1.58 2.116-.52 1.227 1.12 1.539.57 2.94-1.09 2.774-4.37 2.534-6.77 2.653-.98.05-1.09.753-1.31 1.585-.24.908-1.21 2.523-1.14 3.373-.77-.384-.79-1.166-1.08-1.872.32.813-.18 1.566-.43 2.304.54-2.436-2.99-1.055-3.62.126-.92 1.731-2.1 4.379-1.42 6.31.56 1.588 1.21 3.312 1.23 4.938 0 2.786.59 4.997 1.36 7.707-.23-.468-1.35-2.709-1.23-.864-.64-1.322-.62.392-.13.692.63.384 1.23.43 1.66 1.115.79 1.256.11 4.524-.1 5.883-.36 2.428-1.79 4.274-2.51 6.559-.56 1.779.28 4.356-1.02 5.839.22-.216.46-.407.72-.575.81.945.82 2.296.81 3.468 0 1.925.42 3.827.35 5.748-.51-.04-1.01-.11-1.51-.216 1.95.629 0 .318-.39.225-.72-.195-1.78-.568-2.22.321-.23.462-.6 1.022-.32 1.547.41.785-.75 1.551-1.11 2.154-.71 1.17-2.09 3.734-.1 4.588.52.222 1.18.157 1.69-.05.37-.145 1.12 1.161 1.35 1.365-1.98-2.047-5.28-.768-7.42.288-2.79 1.373-1.51 3.984-2.85 6.098-.68 1.067-2.01 1.801-3.13 2.301-1.77.788-2.78 0-4.1-1.198-.61-.551-5.32-5.521-3.82-5.904-1.32.475-1.84-2.178-2.31-3.294-.66-1.586-1.38-3.461-.93-5.202.39.625.55 1.362.58 2.088.17-1.735-.1 1.671.94 1.801-.36-.947-.1-2.026-.51-2.952-.36-.792-1.16-1.22-1.22-2.16 0 1.841-.58.06-.54-.339.1-.932-.44-1.222-.87-2.227-.77-1.789-1.39-3.656-2.07-5.478-.26-.686-4.47-7.531-4.23-7.868-2.65-3.262-4.48-7.186-5.4-11.274-.32-1.454-.51-2.779-1.03-4.145-.34-.906-.72-1.749-1.09-2.639-.28-.671-1.31-2.386-.11-1.958-1.33-.445-1.02-2.293-1.73-3.24-.45-.602-2.67-1.801-.79-2.16-1.11.508-1.67-.82-1.99-1.634-.25-.639-.46-1.303-.78-1.913-.32-.625-1.32-.914 0-1.062-.63-.16-1.17-1.061-1.15-1.682 0-.644-.69-.842-1.18-1.54-1.2-1.686-1.99-3.696-2.62-5.653-.44-1.361-.81-2.789-.81-4.229 0-1.5-.81-2.901-1.05-4.375-.22-1.381-1-2.564-1.42-3.893-.27-.869-1.85-3.742-.41-3.181-.26-.332-2.25-2.902-.5-1.943-.28-1.054-1.56-1.728-1.08-2.952.24.188.48.38.72.576 0-.615-.17-1.119-.65-1.513 1.04-.41.49-1.41.29-2.159-.1.606-.28 1.154-.72 1.584-.78-1.255-.54-4.08 1.22-2.088-.29-.706-2.9-1.151-2.08-2.144.29-.346-.92-1.771-1.05-2.212-.36-1.181-.4-2.347-.16-3.557.38-1.892 1.51-3.871.76-5.808-.1-.252-.61-3.564-1.57-2.337.33-.868.14-.893-.58-.07.89-1.058-.64-1.379-.38-2.159.16-.506.3-1.048.38-1.575.11-.768 2.69-1.252 3.17-2.169-1.89 1.415-6.24.316-3.31-1.801-.99.443-2.16-.255-1.44-1.367.62-.952 1.6.02 2.23-.937-.98.253-3.05-.107-3.6-1.08-.1.491-1.03.681-1.01.576-.1.472.62.548.64 1.274 0 .978-.67 1.273-1.5 1.533.19.246.38.486.58.721-.58-.154-1 .18-1.16.72 2.03.629 2.91 1.958 1.57 3.846-.47.669-.21 1.604-1.13 1.951-1.12.421-2.13 1.166-3.15 1.779-1.8 1.083-3.85 2.417-6.03 1.705-2.2-.717-4.81-2.778-6.11-4.672-1.94-2.817-4.83-4.587-7.1-7.06-.6-.651-2.29-2.866-.33-3.139.53-.07.56.949.96 1.167.77.415 2.18.09 2.32-.904.76 1.065 4.25-.938 4.96-1.656.62-.624.5-1.591.94-2.304.47-.749 1.67-1.252.65-2.16-.51.508 0 1.711-.97 1.656-1.07-.06-1.95.148-2.98.5-.89.3-1.24 1.124-2.24 1.076-1.23-.06-2.45-.648-3.52-1.204-1.07-.555-2.28-1.038-3.24-1.745-.78-.564-.83-1.966-1.75-2.296-3.11-1.124.53-3.533 1.45-4.25-1.66-.188-2.75 2.985-4.39 2.231.32-.496.34-1 .1-1.517"/></g></svg>