<svg xmlns="http://www.w3.org/2000/svg" width="1763.676" height="731.657" viewBox="0 0 466.63931 193.58438"><g class="landxx coastxx id" transform="matrix(1.3293 0 0 1.3293 -2654.393 -941.92)" fill="#cbe6a3" fill-rule="evenodd" stroke="#000" stroke-width=".109"><title>Indonesia</title><path d="M2294.91 793.51c-.51.321-.37.561.43.72-.15-.24-.29-.48-.43-.72M2296.42 774.72c-.65.219-.73.962-.5 1.51 0-.546.2-1.049.5-1.51M2297.58 777.02c-.53-.118-.58.122-.15.721.1-.241.1-.481.15-.721M2301.46 767.74c-.91.194-.76 1.996.21 1.72.58-.161 0-1.467-.21-1.72M2303.19 772.34c0 .146-.1.293-.1.439a6.11 6.11 0 0 0 1.51-.289c-.48-.04-.96-.09-1.44-.15M2305.14 765.14c0 1.131 1.9 2.56 2.72 1.306.59-.893-2.27-1.262-2.72-1.306M2306 773.42c-.1.24-.1.48-.14.72 1.85.127 3.45 1.141 5.25 1.521.76.161 1.57.506 2.36.295.88-.234 1.88-.761 2.82-.586-.77-1.121-2.73-1.048-3.91-1.19-2.13-.257-4.24-.539-6.38-.76M2319.32 831.74c-.1.24-.15.48-.22.72 1.48-.494 3.09-.271 4.63-.279 1.5 0 2.39-.777 3.55-1.665.5-.39 3.66-4.271 3.02-5.057-1.83-2.268-3.02-2.504-5.83-1.333-2.89 1.205-4.01 4.999-5.15 7.614"/><path d="M2328.17 832.32c.24-.07.48-.146.73-.22-.38-.733-.34-2.142-1.55-1.655-1.6.646-.32 1.838.82 1.875M2327.82 817.78c0 .568.39.939.93 1.08-.1-.548-.39-.96-.93-1.08"/><path class="landxx id" d="M2273.74 768.24c.23-.566.13-1.07-.29-1.511 2.24-.571 4.11-.697 5.86-2.308 1.62-1.496 3.31-2.133 5.49-1.595 2.21.544 3.31 2.173 5.21 2.992 1.92.828 3.9-.273 5.69 1.121-1.37 1.014-.1 2.375.53 3.397.79 1.381-.11 2.533-.62 3.807-1.3 3.264.64 7.164 2.11 10.006.5-.734-.19-2.384.64-2.928 1.16-.767 1.02 2.666 1.03 2.992 0 .653.24.813.68 1.25.64.627.34 1.473.91 2.113 1.11 1.238 3.37 1.9 4.64.582.92-.958 1.87-1.807 2.82-2.738.99-.979 1.19-2.29 2.51-3.13 1.19-.753.85-3.544 2.37-3.553 1.8-.01 2.66.159 4.34-.718 1.21-.628 1.27-1.049.73-2.175-.41-.867 2.23-2.095 2.76-2.378 1.34-.713 2.58-1.206 4-.475 1.85.955 4.06 1.622 5.72 2.872 1.39 1.05 2.98 1.629 4.53 2.414 1.06.537 3.14 2.179 4.39 1.743 1.57-.551 2.23.647 3.84.625 1.69-.02 2.52 1.723 4.2 1.496l-1.62 30.983c-.17 1.674-1.44 2.87-1.37 4.648 0 .733.98 1.129.98 1.589 0 1.117-.19 2.264-.27 3.38-.36 5.254-.76 10.525-1.25 15.77-2.16-1.087-2.6-3.551-4.24-5.113-.81-.772-3.9-2.735-2.45-4.097-.94.738-2.63.425-3.75.874-.97.382-2.74.47-2.23-1.093-.48.587-1.71 1.694-2.52 1.702-1.24.01.21-2.112.33-2.412.42-.979 1.79-3.176.8-3.71-.9-.481-1.16-1.665-1.85-2.351 1.18-1.015 2.74.76 3.67-.79-1.63 1.623-3.75-.935-4.89-1.939 1.5-1.73 3.22.289 4.75.359-1.33-.516-2.46-1.435-3.67-2.16 1.42-.249.19-.685-.27-1.174-.67-.692-1.32-1.525-1.59-2.465-.34-1.209-1.46-3.473.13-4.071-1.57.58-1.66-1.115-.22-1.37-.54-.001-1.88.854-2.3.221-.5-.757.5-1.75.14-2.59-.46 1.846-1.83-1.1-2.43-1.36-1.03-.444-1.09-.699-1.87-1.059-.61-.278-2.07-.689-2.43-1.298-.51-.84-3.6-.908-4.56-1.492-1.51-.916-3.27-1.914-4.96-2.458-1.63-.524-4.03-.04-5.45-.741-1.27-.625-2.96-1.49-3.5-2.9-.5-1.31 1.6-1.104 2.31-1.223-.87-.263-1.97-.708-2.66.173-.79.992-1.31-.535-2.02-.753 0 1.476-2.32.391-1.23-.64-1.58.01-2.19.03-2.59-1.881-.1.556-.37 1.01-.82.439-.64-.807-.14-1.311-.21-2.154-.14-1.543 1.4-2.415 1.46-3.975-.38.81-1.73 1.097-1.73 2.107 0 .902.1 2.304-1.22 2.223 1.13.504.23 1.092-.14 1.72-.25.227-.49.467-.72.72 0 .479-.1.959-.1 1.44-.35 1.022-2.43 2.102-3.52 1.8-.95-.268-1.52-2.512-1.55-3.351 0-.566.73-.619 1.12-.799 1.02-.478-.55-1.761-.29-2.61-1.24.747-2.78-3.252-4.52-3.322-2.69-.11-1.24-1.962.7-2.158 2.01-.205 3.46 1.791 4.86-.546 1.04-1.749 4.24-2.306 3.42.546.22-.485.39-.988.5-1.51.28 1.381 1.87-.327 1.81 1.15.21-1.199.62-.532.93.08.29-.627.34-1.44-.22-1.95.49.105.98.06 1.45-.14-.42-.501-.4-.981.1-1.44-1.54 1.146-.36-.82-.1-1.15-1.65.138-2.54 1.187-4.32.912-1.1-.171-2.58.874-3.53.523-1.17-.431-1.67.369-2.58-.545-.32-.316-1.23.263-1.54.282-1.01.06-1.82-.866-2.58-1.392.18-.245.38-.485.58-.72-.82.142-1.55-.808-1.26-1.58.11-.288.5-.682.44-1.015-.14-.848-1.46.532-.56-1.005-.73.144-.92.154-.85-.649-1.04 1.507-3.06-1.128-3.96-1.08.85 1.133-1.21.96-1.73.595-1.47-1.016 1.38-2.892 1.65-3.906"/><path d="M2006.41 739.01c.31.219 1.45.339 1.27-.423-.1-.368-1.33-1.134-1.62-1.432-.37-.372-.82-.71-1.38-.593.29-.8-.81-1.405-1.37-1.656-.29-.132-.53-.73-.93-.408-.72.596-.71 1.198 0 1.826 1.2 1.048 3.32 1.058 4.01 2.686M2181.73 804.31c-.34 1.213.31 2.326.14 3.53 1.12-.52 1.76 1.628 3.01.699.86-.635.87-.757 1.97-.63 1.04.12 1.74-1.067 2.73-.29-.1-1.688-1.43-3.145-.81-4.877.75-2.118 1.15-3.503.89-5.824-.22-1.941.22-3.465.4-5.353.1-.862 0-1.718.1-2.582.15-1.448-.5-1.446-.86-2.674-.69-2.388 3.44-4.34 5.25-3.774 1.63.511 1.13 4.159.27 5.113-2.42 2.681 1.67 5.731 3.98 6.971.97.526-1.49 4.198-.49 5.693.54.806 2.31 1.219 3.22 1.352 1.12.163.83-1.646.96-2.285.28-1.438 2.31-1.176 3.32-1.587.6-.245 3.03.998 1.63-.752 1.1 1.851 2.57-1.901.65-2.45-.34 1.761-.81-.665-1.73-.65.2-.264.39-.527.58-.79-.79-.03-1.78-1.07-2.23-1.649-.74-.945.23-1.722-.44-2.67.36.09.72.161 1.08.22-.82-.502-.6-1.718.44-1.66a3.303 3.303 0 0 0-.75-.967c-.58-.628-.16-1.298-.55-1.983-.32-.574-1.08-.618-1.44-1.149-.41-.604-.54-1.566-.87-2.239-.51-1.015-.93-2.009-2-2.533-.88-.427-1.29-2.255-2.46-1.708.1-.622.1-1.246.1-1.87 1.22 1.032 2.18 1.974 3.41.272 1.07-1.477 2.19-1.498 3.7-2.342 2.07-1.158 3.59-6.019 6.31-5.933.78.03.91 2.268 1.81 1.323.54-.563 1.56-2.003 1.02-2.805-.91-1.332-4.43-.923-5.52-.03.59.06 1.1.302 1.51.72-1.41.05-5.49-.944-5.99.892-.33 1.229-4.03 1.183-3.8-.531-1.23.756-2.51 2.01-3.13 3.328-.67 1.435-.98 2.282-2.64 1.92-1.09-.236-2.12-.52-2.42-1.748-.16-.619-.21-1.245-.55-1.804-.63-1.028-1.06-.191-1.75-.697-2.24-1.626-2.34-6.686-1.37-8.934.55-1.289 1.48-2.734 2.76-3.417 1.05-.563 3.63.367 4.73.766.77.282 2.27-.37 2.96-.692 1.44-.667 1.84.353 3.24.565 1.55.235 3.62-.605 5.28-.564 1.99.05 3.26.162 4.85 1.31 1.98 1.428 8.12.465 9.73-1.418 1.11-1.293 1.5-2.742 2.83-3.938 1.43-1.288 1.37-3.47 2.91-4.622-.54-.344-.85-.944-.65-1.584-.56.146-1.36-.254-1.84.151-.71.607-.67 1.793-1.65 2.094-1.5.459-.55.921-1.26 1.859-.41.541-1.41.332-1.69 1.073-.72 1.856-3.56 2.187-5.14 1.846-1.34-.289-2.92-.597-4.3-.528-.77.04-1.51.894-2.14.638-1.99-.802-3.4-1.183-5.53-1.405-1.1-.114-1.74-.437-2.9-.319-1.33.134-1.73-1.68-2.41-1.667-.86.02-4.09-1.573-4.28.233-.25 2.461-2.48 4.805-4.29 2.223-.17.807-.43 1.42-1.06 1.971-.84.745-.67 1.896-1.49 2.559-1.57 1.263.48 3.463-1.13 4.61-.13-.566-.54-.95-1.15-.79.4 1.528 1.58 1.154 1.1 2.916-.44 1.606 1.03 3.078.56 4.715-.33-.61-.47-1.314-1.01-1.801-.9 2.437-2.81 3.71-2.95 6.48-.1 1.237.1 2.556 0 3.761-.1 1.412-1.42 2.327-1.52 3.838-.12 2.001-3.39 2.924-2.88 4.595.28.941 1.04.353.23 1.686-.71 1.154.22 3.653.68 4.841.65-.73 2.33-1 3.24-1.049 1.99-.107.41 1.822 1.06 2.978 1.07 1.92.81 3.562.47 5.773-.28 1.81-.75 4.628-1.96 6.046M2201.6 803.52c-2.33.806-.24 3.407-.12 3.295.62-.57.56-2.649.12-3.295"/><path d="M2202.25 763.63c-.39-.723-1.41-.752-1.44.22.52.197 1 .123 1.44-.22M2203.33 762.84c-.46-.655-1.03-.636-1.51 0 .47.332 1.03.32 1.51 0M2205.78 806.62c.3-.37 1.04-1.164.77-1.706-.5-.992.49-1.438.76-2.293.15-.467.75-3.654-.53-2.964-.63.341-1.47.79-2.02 1.247-1.04.858.53 1.957-.21 2.874-.28.354-1.03 1.576-.79 2.043.39.755 1.66.531 1.65-.359.11.389.23.776.37 1.158"/><path d="M2210.24 797.69c-1.85.03-2.53 4.02-2.61 5.432-.1 1.473-.67 2.108-1.21 3.452-.67 1.665.37 1.221 1.3 2.206.45-.613.49-1.433.97-2.019.47-.59 1.35-.269 1.8-.833.65-.806-.69-2.225-1.48-1.399.22-.876.17-1.794.42-2.667.16-.575 1.22-2.482 1.46-.793.8-1.335-.73-2.109-.65-3.379M2212.33 773.78c0-.511 0-1.014.14-1.51 2.75 1.425 2.06-4.005-.14-.65-.72-1.063.72-1.362-.73-1.81-.5-.153-1.09-.216-1.55.08-1.06.685-.81 2.448-.53 3.456.81-.414 1.27-1.228 1.65-2.01.79.568 0 2.357 1.16 2.44M2210.17 794.01c-.82.344-.73 1.849.1 2.164 1.21.47 1.9-1.905-.1-2.164"/><path d="M2212.98 769.97c-.24.305-.39.232-.15.72.1-.24.1-.48.15-.72M2213.33 774.22c-.32.124-.48.364-.5.72.17-.24.33-.48.5-.72M2213.41 805.03c.1.512 0 .716.65.721-.22-.241-.43-.481-.65-.721M2214.63 806.9c0 .407.29.624.72.65l-.72-.65M2216.65 810.58c-.52.518-.35.758.5.72-.17-.24-.33-.48-.5-.72M2221.33 773.93c-1.26 1.836-.26 3.436 1.94 2.73.35-.215.71-.407 1.08-.575.42.08.84.125 1.26.122.8-.399 2.19-.08 2.56-1.126-.58.07-.96-.232-1.08-.79-.93 1.312-4.37-.854-5.76-.361M2228.89 735.77c-.74-.173-.82.07-.22.72.1-.24.15-.48.22-.72M2230.4 730.58c.43-.902-.84-3.777-1.95-2.521 1.18.324.78 2.031 1.95 2.521M2228.89 775.01c-1.04 1.085 1.62 1.141 2.13 1.149 1.4.02 3.48.24 4.56-.859-2.21-.325-4.54.492-6.69-.29M2232.99 776.66c-1.55.334-.14 3.851.65 4.399.32-.558-.29-3.834-.65-4.399M2238.03 792.72c1.06-.526 3.37-.876 4.05-1.885.85-1.276.38-2.212-.95-2.505 1.06-1.191-1.24-1.925-2.03-2.122-1.49-.37-2.81.09-4.29.253-1.81.197-2.18 1.092-1.37 2.834.85 1.831 2.91 2.529 4.59 3.425M2238.17 726.77c.19-.577 0-1.155-.5-1.512.14.512.31 1.016.5 1.512M2238.46 725.11c.78-.813.98-2.084.83-3.163-.1-.555-.56-2.199-1.08-.882-.35.917.71 1.644.36 2.339-.32.639-.96 1.113-.11 1.706M2243 761.9c-.9-.387-1.62 1.641-1.01 2.16 1.05.898 1.15-1.614 1.01-2.16M2243 764.86c-.87.451-.43 1.808.58 1.51-.11-.536-.3-1.04-.58-1.51M2243.72 752.18c-.22.343-.1.476.22.79-.1-.263-.15-.527-.22-.79M2245.23 762.26c-.24.315-.48.628-.72.939-.25-.235-.49-.476-.72-.72-.66 1.998.31 1.269.94 2.66.14.308-.79 1.63.2 1.393.53-.128 1.11-.434 1.3.269.23.811 3.1-.549.7-1.21-.98-.27-1.21-.835-.68-1.684.33-.528-.73-1.353-1.02-1.647M2244.22 756.36c-.18.34-.33.251 0 .721v-.721M2244.58 771.98c-1.11.865-.53 2.422.79 2.601.56.08 1.05-.36 1.61-.36.6 0 1.19.191 1.8.225 2.05.115 0-1.854-.58-2.167-1.34-.687-2.3-1.338-3.62-.299M2244.51 753.19c-.17-.02-.34-.05-.5-.07.13.287.3.551.5.791v-.721M2246.38 759.53c.1.894-.29 1.828.34 2.603.61.749 1.26 1.11 1.61 2.065.39 1.043 2.32 3.292 3.24 2.742-2.61-2.668-2.91-5.887-3.43-9.319-.22-1.487-.16-2.71 1.69-1.766 1.58.803 3.86 1.29 5.62 1.445-1.11-.539-1.13-1.883-2.02-2.589-.9-.71-3.43-.594-2.33-2.428.73-1.224 2.66-1.263 3.03-2.787.25-1.028-.48-2.753 0-3.506-1.85-.469-3.87 1.355-4.61 2.881 1.72.08 0 .977-.44 1.166-1.04.411-.59 1.532-1.08 2.297-.51.793-1.59-.02-1.91-.549-.58-.939.61-1.547 1.25-1.967 1.32-.866 2.18-3.534 1.46-5.052-.31-.65-1.41-.886-1.14-1.757.25-.835 1.39-1.351 1.07-2.346-1.77.01-2.56 2.235-2.98 3.607-.45 1.454-1.61 4.025-1.34 5.464.12.707.43 1.445.83 2.042.16.284.38.492.68.623-.48.6-.65 1.335-.58 2.089.1.986.44 1.55 1.03 2.284.59.737.18 1.935.1 2.758M2245.45 769.75c-.26.193-.53.387-.79.58.53.07 1.04-.02 1.51-.29-.24-.1-.48-.193-.72-.29M2245.01 787.82c-.44.602-.24.842.58.721-.19-.241-.39-.481-.58-.721M2246.09 786.89c-.18.26-.25.547-.21.86.27 0 .53-.04.79-.141-.17-.26-.36-.499-.58-.719M2247.97 784.8c-.23.369-.47.729-.72 1.08.57-.119.85-.502.72-1.08"/><path d="M2263.45 789.62c1.61.93 3.25 1.576 4.73 2.727 1.71 1.338 1.95-.668 1.67-2.005-.17-.823-1.27-1.088-1.44-1.871-.16-.808-.16-1.71-.97-2.188-.73-.442-1.02-1.019-1.98-.832-.97.188-1.9.05-2.69-.572-.77-.609-1.76-1.071-2.76-1.04-1 .03-1.47.844-2.35 1.038-.78.17-1.08-.237-1.5-.725-.14-.174-2.59.128-2.95.103-3.36-.244-6.91 2.145-5.53 5.877 0-.76 1.07-3.848 2.16-3.601-.35 1.016 1.46 2.639 2.32 2.8.36.07 4.41-3.298 3.44-.71.63-.139 4.36 1.362 4.57.08.19-1.107 3.09-.188 3.28.924"/><path d="M2248.4 790.63c-.57.274-1.01.843-.87 1.51.85-.107 1.44-.767 2.24-1-.77 1.292 1.03.06.86-1.16-.81.06-1.38.822-2.23.65M2249.55 739.73c.22-.328.37-.222.1-.72 0 .24-.1.48-.1.72M2250.7 742.1c2.7-.609 3.7-2.908 2.09-5.328-.32.781-1.2.979-1.73 1.558-.92 1-.95 2.623-.36 3.77M2251.57 789.98c-.21.268-.24.558-.1.87.3-.144.57-.337.8-.58-.24-.1-.48-.194-.72-.29M2252.65 789.77c-.27.747.32 1.383 1.08 1.01-.1-.568-.49-.986-1.08-1.01M2259.06 759.53c.37.646.94 1.178 1.65 1.44-.5-.517-1-1.107-1.65-1.44M2263.88 777.02c.49.166.99.286 1.51.36.55-.01.85-.514 1.44-.431-.58-.797.63-1.185 0-2.395-.67-1.297-3.54.846-4.69 1.026.18.811.9 1.41 1.73 1.44M2263.09 769.46c-.3.148-.57.342-.8.58.69.382.96.189.8-.58M2264.89 759.6l.36.72c.1-.602-.1-.413-.36-.72M2269.57 763.34c3.01.851 0-2.043-.65-2.73.85-.12 1.42.791 1.87 1.338.86 1.021 1.09.142 1.92.556 1.56.783 1.7-1.458.56-2.083-1.07-.588-6.68-1.43-6.8.688 1.43-.965.64.594-.22.29.69.882 2.25.28 1.95 1.87.1-.544.47-.956 1.01-1.08.14.378.26.761.36 1.151M2267.48 766.73c-.26 1.356 3.39.878 3.02-.51-.77.862-2.06.21-3.02.51"/><path d="M2268.92 763.2c-.43.178-.77.464-1.01.86.62.38 2.03-.437 1.01-.86M2270.94 767.3c-2.74.456-1.66 2.364-.18 3.83.86.851 2.57-3.366.18-3.83M2272.74 768.17c-.23.32-.45.18-.29.72.1-.24.19-.48.29-.72M2273.17 794.81c.12.447.1.633.65.72-.22-.24-.44-.48-.65-.72M2274.1 793.87c-.63-.09-.55.146.22.721-.1-.24-.15-.48-.22-.721M2288.65 795.1c-.29.997 1.68 1.209 2.16 1.72-.56-.783-1.6-.939-2.16-1.72"/><path class="landxx id" d="M2211.03 846.07c.39.295.34.604.94.36.2 1.067-1.77 1.406-1.95 2.811.86-.266 1.73-.03 2.6-.199 1.14-.217 1.98-1.431 3.13-1.464 1.86-.05 2.49-.583 3.72-1.958.8-.887 2.13-2.009 2.46-3.122.51-1.692-.52-.333.97-.829 0 0 .25.04.54-.756-.32-.05-.39-.95-.38-1.674 1.63-2.156-.72-2.533-.71-2.626-2.98 1.204-.66 1.843-4.16 2.523-.87.17-.2 2.65-.81 3.042-.62.392-.78-.93-1.21-.364-.43.566-1.87-1.449-2.18-.758-.31.692-2.7 4.246-2.96 5.014"/><path d="M2178.06 829.94c-.51.198-.68.558-.51 1.08.67-.06.84-.529.51-1.08M2073.44 816.12c-.31.134-.57.327-.79.58.69.384.95.19.79-.58M2084.82 812.01c-.64-.496-3.85-1.09-4.47-.5-.1-2.038-1.98.629-2.23 1.3-.26.679-.3 3.95-1.73 2.66-.24 1.075-.91 1.937-1.3 2.95-.43-1.01-1.34-.734-2.08-.28 2.32 1.126 5.06-.224 7.15 1.23.65.453 1.59.489 2.3.832 1.15.546-.45 1.381-.62 2.17-.46 2.13 5.67 1.76 6.81 1.964 2.19.393 4 1.991 6.19 2.554.69.178 1.63.411 2.31.06.73-.373.56-1.009 1.6-1.039 2.65-.08 5.33.55 7.8 1.371 3.06 1.015 6.01 2.65 9.14 3.367 1.31.298 3.17.02 4.33.593 1.2.586 2.23.05 3.54.175 2.68.258 5.67 1.924 8.13.241 2-1.375 4.32 1.132 6.05 2.025.58.302 4.14.52 4.06.931-.13.747.99 1.196 1.59.901.45-.219-.74-1.719-.87-1.931-1.22-1.862.25-3.707.43-5.623.11-1.203-1.08-1.428-1.95-1.701-1.49-.468-1.95.181-3.34.04-1.31-.128-3.1.826-4.24.265-.72-.356-2.8-1.051-3.13-1.846-.29-.679.98-3.895-.69-2.483.33-1.065-.59-2.098-.51-3.171-.97.497-2.27.155-3.31.255-.41-.04-.74-.227-1.01-.548-.71-.623-1.46-.155-2.23-.566-.4-.216-1.08-1.891-1.78-1.05-.69.831-2.09.688-2.62-.252-1.27-2.224-2.75-2.496-3.79.269-.35.931-.96 3.048-2.38 2.581-.8-.261-.96-.675-1.85-.614-.72.05-1.47.237-2.19.08-1.41-.313-2-.235-3.36-.15-.79.05-2.05-.99-2.75-.608-2.85 1.546-3.46-2.444-4.54-3.967-1-1.405-.82-.104-1.72-.104-1.07 0-1.98-1.537-3.08-.987-1.05.522-1.77-.852-2.41-1.393-1.06-.888-1.85-.526-3.02-1.22-.21 1.01-1.22 2.396-2.23 1.216"/><path d="M2100.08 826.06c.1.757.99.685 1.51.72a4.593 4.593 0 0 0-1.51-.72M2131.83 819.22c-.73-.117-2.6 1.334-1.74 2.056.82.681 2.77 1.27 2.89.104 1.18 1.397 2.69.588 4.09.09.58-.207 1.2-.374 1.82-.237-.13-.969.95-.947 1.58-1.149-.25-1.44-2.18-1.103-3.19-.963-1.8.25-3.69-.377-5.45.103M2130.46 809.14c-.58.09-.69.502-.5 1 .68-.01.83-.457.5-1M2142.27 820.66c.1.533 0 .776.65.789-.2-.276-.42-.54-.65-.789M2142.92 829.58c-.94 1.776 1.43 2.638 2.65 3.217.77.365 1.38.738 1.9 1.423.94 1.238-.23.908-.29 1.802 0 .585 2.32-2.089 2.42-2.125.98-.346 3.43-1.315 2.2-2.606-.88-.934-2.64-2.251-3.97-1.521-1.52.837-3.42.861-4.91-.19M2143.71 821.3c.21.183.44.183.72 0h-.72M2149.76 818.71c-.61.324-.74.879-.22 1.37.55-.684 1.47-.788 2.24-.431-.34-.867-1.24-.885-2.02-.939M2150.98 835.78c.23-.385.23-.771 0-1.16-.28.17-.52.387-.72.65l.72.51M2157.03 830.66c-1.04.52-2.32 1.487-2.2 2.81.11 1.053-.26 2.756-1.61 1.66-1.12 1.72 4.67 1.239 4.89 1.51-.48-1.053 1.04-3.073 1.55-3.927.78-1.31-1.63-2.428-2.63-2.053M2168.55 836.78c1.55-.799 3.08-1.059 3.96-2.729.33.554-.43 1.702.14 1.998.61.317 1.04.08 1.61-.143.71-.288 1.29.132 1.99.235a1.946 1.946 0 0 0-1.43-.8c1.37-.831 3.35.727 3.74-1.51-1.25 1.547-1.1-1.318-1.4-1.917-.72-1.452-2.24.04-2.2 1.127-.22-1.084-1.05-2.927-2.28-1.557-.94 1.035-1.72-1.003-2.19-1.53-.7-.771-3.57-.185-2.74 1.105 1.01 1.577 2.34 1.952 3.9 2.842-.49.656-1.81 1.011-2.56 1.18-1.29.289-1.44-.903-1.99-1.72-1.26-1.902-5.23-1.227-6.55.281-.63.724 0 1.854-.56 2.592-.79.989.62 1.783 1.41 1.993.5.13.92.154 1.34-.174.79-.607.76-.207 1.77-.247 1.43-.06 2.6-1.493 4.04-1.026"/><path d="M2166.03 832.18c.5-.612.79-1.356 1.22-2.02-1.5-.688-1.37 1.085-1.22 2.02M2176.04 842.11c.68 1.787 2.34 1.73 3.96 1.91 1.91.213 3.43 1.983 4.58 3.354 2.16 2.572 7.13.245 4.53-2.63-.81-.896-1.42-1.641-2.61-1.643 0 0-1.88-2.309-2.12-2.528-.18-.162-3.38-.111-3.53-.01-1.49.956-3.56-.562-4.81 1.55M2180.65 832.53c-.41.671-.9 1.455-.22 2.17 0-.994 1.99-1.476.22-2.17M2181.87 833.97c.2.566.13 1.096-.21 1.59.96.238.8-.873 1-1.44l-.79-.15M2184.53 835.85c.77-.412 2.25.05 3.15-.05.82-.09 2.07.09 2.88.254.89.182 1.36 1.176 2.38.711.71-.321 2.39.298 2.11-1.067 2.23.938 3.19.322 5.35-.464 1.44-.525 6.48.188 5.74-2.706.99.191.88-1.043 1.8-1.069-.41-1.19-1.68-2.965-2.02-.65.45-.285.93-.334 1.44-.149-1 1.151-2.79 1.229-3.55 2.64-.91 1.708-2.45.572-3.42-.327-.91-.852-2.04.556-3.01.168-.52-.205-.48.203-.81.509-.51.481-1.49-.357-1.86-.628-1.25-.901-3.22-1.463-4.7-1.809-2.33-.544-3.07.34-5.01 1.303-.97.484-1.6.471-1.71 1.82-.1.698.22 2.768 1.24 1.513M2189.94 809.64c-1.23.412-.63 4.976-.36 5.9.25-1.973.69-3.904.36-5.9M2190.58 820.3c-.22.357-.22.717 0 1.08.28-.146.52-.34.72-.58l-.72-.5M2191.81 822.46c.2.616 1.08.298 1.44.14-.49.03-.97-.02-1.44-.14M2194.98 851.33c.25.106.49.06.72-.15l-.72.15M2196.49 850.82c0 .12-.1.24-.15.36.57.219 1.43.06 1.89-.344.23-.186.29-.414.17-.685-.49-.916-1.33.364-1.91.669M2204.91 852.7c-.31.466-.33.946-.1 1.44 1.22-.693 3.06-1.898 4.39-2.24a10.87 10.87 0 0 1-.65-1.439c-1.37.628-2.14 1.694-3.67 2.239M2206.93 833.26c.1.213.14.426.21.64.3-.532.71-.962 1.23-1.29-.59-.02-1.07.195-1.44.65M2208.44 831.24c-.34.282-.5.642-.5 1.079.61-.08 2.01.197 2.23-.649.28-1.066-1.24-.713-1.73-.43M2209.66 847.44c-.51.328-.84.904-.86 1.51.94.125 1.12-.824.86-1.51M2210.82 831.17c.19.22.36.459.5.72-.56.229-1.46.643-1.65 1.283-.33 1.132 1.8.276 2.23.587-.15-1.358 1.93-2.451 3.02-2.66-1.4-1.546-2.13.457-3.1.93.48-1.04-.25-.976-1-.86M2215.21 831.74c-.31.294-.45.654-.43 1.079.61-.146 1.16.172 1.44.721.58-.609 1.78-2.078 1-2.95-.39.801-1.25.93-2.01 1.15M2219.09 829.94c-.42.468-.99 1.66.36.94-.75.333-1.4 1.015-1.44 1.87 1.77-.169 3.82-.02 5.48-.772 1.05-.472.69-1.576-.35-1.759-.61-.108-1.15.15-1.76.09-.77-.07-1.5-.476-2.29-.37M2228.02 830.09c-.56-.06-.98.9-1.08 1.29.54-.239.94-.717 1.08-1.29M2229.1 828.94c1.5-1.257 2.97-.971 4.75-.661.95.165 1.9-1.672 3.1-1.649-1.57-1.931-2.38-1.242-4.63-.363-.64.246-1.08-.328-1.61-.1-.97.418-1.47 1.814-1.61 2.772M2241.85 824.54a1.87 1.87 0 0 0-.44 1.3c.64-.222.95-.727.44-1.3M2243.36 830.23c-.18.85.1.899.72.15l-.72-.15M2244.37 829.66c-.32 1.255 2.06 1.676 2.3.279-.79.145-1.56-.06-2.3-.279M2246.74 830.59c0 .217.1.434.1.65.27-.179.51-.396.71-.65h-.79M2251.28 820.73a.98.98 0 0 0-.5.86c.78.09.95-.197.5-.86M2252.43 830.45c.23.489.61.706 1.15.65-.11-.607-.57-.875-1.15-.65M2258.55 827.06c-.64.559-.31 1.929.63 1.912 1.78-.03.97-2.096-.63-1.912M2266.9 831.82c1.18-.396 2.25-1.135 3.24-1.88-1.24.48-2.48.362-3.24 1.88M2268.2 824.47c-.13.619.11.642.72.07-.24-.02-.48-.05-.72-.07M2269.49 823.75c-.12.193-.23.387-.35.58.57.194.96-.07 1.08-.65-.24.02-.49.05-.73.07M2274.32 821.16c-1.19.07-4.53 4.052-3.38 5.109-2.33-1.073-.71 4.782.47 2.077.52-1.198 1.82-1.783 2.46-2.923.53-.943-.1-3.073 1.1-3.474-.18-.293-.4-.556-.65-.789M2275.11 821.16c.38.638 1.24.464 1.73 1.01 0-.987-.99-1.067-1.73-1.01M2283.39 808.7c-.18-.231-.42-.301-.72-.209.31.521-.19 2.125.5 2.339 1.09.336.41-1.744.22-2.13M2283.97 807.84c-.63-.131-.66.109-.1.72 0-.24 0-.48.1-.72M2283.97 811.51c1.29-.96 2.58-4.366 3.02-5.9-1.09.384-.97 1.451-1.34 2.334-.52 1.244-1.29 2.213-1.68 3.566M2293.69 812.95c-.2.888-.37 2.092.36 2.811-1.45-.08-1.93 4.254.47 3.113 3.11-1.485 1.09-4.488-.83-5.924M2297.94 816.62c-.52.327-.58 1.002-.36 1.521.37-.447.49-.954.36-1.521M2297.94 815.4c-.67.392-.58.632.28.72-.1-.24-.19-.481-.28-.72M2298.94 815.54c.85-2.607-.61-.843 0 0M2051.84 807.05c.2-.974-1.2-2.093-1.94-1.15.7.337.99 1.512 1.94 1.15M1997.55 709.41c1.08.341.52-1.038-.5-.721.17.241.33.481.5.721M2014.62 714.09c-.64.37-1.46.925-2.25.706-.75-.209-.96-.89-1.81-.912-1.42-.04-2.66.699-4.12.558-1.72-.166-2.85-.73-3.98-2.021-.83-.963-3.16-2.305-4.43-1.413-4.71 3.296 6.7 12.52 8.51 14.933.68.92 1.61.956 2.67 1.148 1.73.318 2.29 2.257 3.08 3.534.61.981 1.84 3.441 2.89 3.884 1.82.771 1.11 2.544 1.62 4.171.48 1.532 2.06 1.149 3.23 1.966.75.519 1.48 1.077 2.22 1.611.91.657 1.83 1.332 2.62 2.139 1.1 1.134 0 1.258.38 2.517.4 1.509 1.05 2.963 1.46 4.488.44 1.615 1.6 3.301 1.48 5.005-.12 1.797 1.27.694 1.95 1.501 1.12 1.321 2.76 1.013 3.07 3.171.39 2.813 4.1 4.64 4.73 7.59.1.422-.61.47-.28.925.45.617.85 1.268 1.2 1.951.78 1.548 2.4 3.582 2.46 5.338.1 1.698 0 2.776 1.06 4.249.79 1.109 1.99 1.89 2.65 3.085.79 1.424 1.2 2.859 2.46 3.991 1.24 1.12 2.97 1.871 3.73 3.444.75 1.552.62 2.463 2.06 3.645 1.45 1.197 2.74 2.562 4.14 3.829 1.2 1.095 2.37 2.129 3.82 2.883 1.44.752 1.64 1.31 2.35 2.596.38.682.87 1.321 1.35 1.936.41.438.86.84 1.33 1.204.3.266-.1.559.32.824.26.189 2.66 3.308 2.67 1.658 0-.967-.91-1.706-1.01-2.661-.14-1.342 1.97.391 2.22.614 1.79 1.591 3.54 1.598 3.33-1.419 1.12.967 1.87 2.932 3.46 3.24.95.185.92-2.691.94-3.177.1-1.872.36-3.732.5-5.603.1-.997.72-2.411.27-3.367-.34-.738-.58-1.159-.34-1.953.28-.965 1.07-2.258.94-3.288-.1-.764-.95-.797-.75-1.83.17-.897.72-1.68 1.17-2.452.49-.833.87-1.188.68-2.226-.17-.987-.98-.585-1.54-1.165-.76-.791-1.96-3.43-1.51-4.46-.87-.142-5.05-1.242-5.4-.36-.13-.259-.25-.521-.36-.789-.91 1.136-1.03 2.736-2.38 3.529.4-.587 2.23-2.585.43-2.6.97-.395 2.13-1.244 1.97-2.437-.12-.898-1.06-.585-1.62-.924-.57-.345-.89-1.827-1.02-2.402-.38-1.688-.78-3.291-1-5.021-.13-1.064-3.24-1.178-4.16-.966-.72.167-2.09-1.254-2.62-1.69-.89-.737-.53-2.284-.91-3.33.4.482 1 .575 1.51.209-.2-.833-1.01-.943-1.73-1 .59-.04 1.02-.455 1.16-1.01-.48-.03-.97.02-1.44.141.85-.248 1.35-1 1.98-1.562.48-.433 1.73-.306 2.02-.792.48-.803-1.29-2.545-1.75-3.063-1.27-1.436-2.22-1.316-3.69-.269-1.15.809-4.03 2.855-5.26 1.225 2.55 1.463 7.46-3.06 2.81-4.109-.74-.167-1.5.154-2.23-.141-.82-.333-1.16-1.265-1.83-1.792-1.37-1.083-.6-3.308-2.09-4.458-.55-.424-1.13-1.082-1.72-1.425-.64-.366-1.48-.05-2.18-.418-1.14-.595-1.05-2.362-1.79-3.332-.36-.478-2.93-2.989-3.49-1.49-.43 1.116.93 2.541 1.07 3.627-.47-.479-.6-1.123-.98-1.655-.63-.88-1.79-1.012-2.55-1.729-1.26-1.187-1.39-3.085-2.59-4.319-.34.466-.41.97-.21 1.512-.2-.362-1.45-2.813-1.01-.864-.81-.93.4-2.088-.83-2.888-1.11-.724-1.97-1.987-3.06-2.799-1.25-.935-2.27-2.438-3.72-3.072-.52-.226-1.07-.345-1.59-.58-.89-.406-.75-1.063-1.33-1.673-.75-.801-2.09-.853-2.86-1.588-.96-.924.32-2.541-.71-3.378-1.23-1.009-1.47-1.019-2.01-2.608-.46-1.349-2.76-3.145-3.83-4.097M2017.14 754.2c1.49 1.597 2.01-2.856 1.35-3.759-.79-1.063-2.03-3.071-3.27-3.606-.91-.396-1.44.892-2.4.308.15 1.342 1.34 2.333 1.92 3.489.35.717 1.18.965 1.6 1.628.38.603.45 1.326.8 1.94"/><path d="M2014.33 741.81c0-.72-.54-1.907-1.44-1.224.54.334 1.02.742 1.44 1.224M2023.33 763.63c.19-.638-.1-1.267-.58-1.66-.4.541-.69 1.375-.85 2.023-.2.868 1.72.901 1.43-.363M2022.03 759.53c.37 1.068.94 2.047 1.51 3.021.24-.798-.39-3.15-1.51-3.021M2023.83 745.49c.11-.562-.13-.562-.72 0h.72M2025.7 758.74c-.2-.952-1.7-.8-2.23-.291.67.445 1.47.499 2.23.291M2027.94 775.15c2.98-.421-1.67-6.247-1.59-7.63-.49.269-1.32.138-1.67.625-.5.701-.82 2.05-.29 2.802 1.01 1.422 1.59 3.783 3.55 4.203M2033.48 780.12c-.19-.771-1.17-3.485-2.23-2.762-1.17.799 1.7 2.445 2.23 2.762M2034.49 783.58c.23.854 1.22.459 1.53-.09.45-.81-1.04-2.033-1.61-2.365-.3.823.23 1.617.1 2.45M2037.87 788.4c0-.551-.48-.965-.38-1.505.12-.699.54-.534.33-1.229-.15-.507-.78-2.076-1.55-1.784-1.15.437 1.04 4.059 1.6 4.518M2048.24 742.75c-.3-1.424-2.28-1.862-2.8-.323-.28.857.26 2.078 1.21 2.267 1.14.228 1.18-1.283 1.59-1.944M2053.57 746.49c-1.07-.454-2.31-.39-3.32-1.008-.2 1.054.69 1.533 1.57 1.694.87.158 1.33.955 1.96 1.474 0-.726.1-1.466-.21-2.16"/><path d="M2053.71 749.16c-.44-.748-1.09-1.589-2.01-1.728-.24 1.315-.11 3.668 1.58 3.959.26-.724.13-1.513.43-2.231M2058.1 752.76c-.5-.946-1.47-1.593-2.48-1.886-.56-.164-1.07-.968-1.43-1.038-.42-.08-.8 2.311-.29 2.653 1.18.792 2.89-.02 4.06.99 0-.239.1-.479.14-.719"/><path d="M2058.97 752.18c-.31-1.235-4.22-3.62-3.68-1.439 1.5-.672 2.15 1.924 3.68 1.439M2059.98 754.49c-.11-.513-.42-.803-.94-.871-.36.542-.29 1.022.21 1.44.27-.159.51-.349.73-.569M2060.98 750.67a1.86 1.86 0 0 0-.79-.647c-.1.607.21.85.79.647M2061.56 753.19c-.18-.567-.62-.943-1.23-.72 0 .601.38 1.117.87 1.44l.36-.72M2063.22 761.9c-.53-.36-2.48-.153-1.68.782.48.572 1.59-.229 1.68-.782M2064.87 751.53c.2-.753-.1-.896-.79-.43.26.143.53.286.79.43"/><path d="M2066.45 749.73c-.52-1.201-1.51.163-1.51.878 0 .855 1.62-.06 1.51-.878M2066.67 752.69c.39-.718.2-.958-.58-.72.19.24.39.48.58.72M2070.41 750.67c-1.03-2.517-3.91-.152-2.71.295.8.298 1.16-.474 1.42.855.26 1.336 1.32-.591 1.29-1.15M2067.46 753.48c0-.278-.1-.541-.21-.79.1.263.14.527.21.79M2069.05 762.55c-.35.275-1.02.414-1.44.549-.8.258.54 1.838.64 2.261 0-.72.42-.946 1.01-.5.19-.859.82-1.705-.21-2.31M2068.62 758.16c-.41.453-.25.716.5.789-.17-.263-.33-.525-.5-.789M2069.33 759.53c.1.514-.8 2.405.28 2.266.61-.08.98-.409 1.59-.102.62.315 1.14.819 1.88.426-.38-.607-3.04-2.662-3.75-2.59M2070.05 752.9c-.25-.01-.49.04-.72.15l.72-.15M2069.62 757.73c-.33.703.72 1.268 1.16 1.511-.37-.52-.75-1.023-1.16-1.511M2075.6 774.43c.84 1.158-1.3 1.682-1.73 2.45.88.716 1.56 1.301 2.74.865.8-.293 2.13.39 2.36 1.21.2.726.76 1.597.87 2.236.28 1.471-.59 2.088 1.08 3.005.72.394 3.98 2.894 4.76 2.184.78-.707-.41-1.035-.65-1.619-.37-.924.76-2.595 1.66-2.771-1.14-.688-2.7-.354-3.75-1.221-.97-.799-1.31-2.777-1.2-3.955.1-.7-.41-2.962-.88-3.535-1.32-1.625-3.03.243-1.81 1.73-.51.07-3.35-3.846-3.45-.579"/><path d="M2086.62 784.66l-.65.209c.15.597.6.856 1.15.511a4.094 4.094 0 0 0-.5-.72M2091.66 784.01a2.15 2.15 0 0 0-.87.57c.56.269.89.05.87-.57M2093.45 781.7c-.95.967-1.18 2.638-1.07 3.914.11 1.362 2.12 2.079 1.79.627.59.04 1.48 1.684 2.07 1.105.8-.794 1.62-2.402 1.49-3.569-.19-1.707-2.9-2.355-4.28-2.077M2095.76 726.26c.62.102 1.18.455 1.58.937-.59-.368-.97-.06-1.01.575 1.79.257 2.29-1.537 1.6-2.891-1.24-2.403-2.76-.496-2.17 1.379M2100.94 774.43c.3.03.59-.02.87-.14-.3-.03-.6.02-.87.14M2103.17 773.14c-.41-.32-.81-.32-1.22 0 .16.284.38.523.65.72.22-.218.41-.458.57-.72M2109.29 768.53c-1.13-1.601-3.43.908-2.01 2.301.68-.677 2.46-.985 2.01-2.301M2158.69 787.97c-2.61-1.094-1.77 5.536-1.23 6.41.69-1.134 1.43-.789 1.33-2.342-.1-1.218-.58-2.905-.1-4.068M2159.84 789.05c-.82.149-.75 1.017-.22 1.44.11-.473.19-.953.22-1.44M2167.54 730.73c-.16.657.1.729.72.216-.24-.07-.48-.144-.72-.216M2168.41 729.86c-.31.695.35 1.305.93 1.513.1-.649.1-1.743-.93-1.513M2168.62 724.1c0 .621.38 1.037 1.01.72-.1-.578-.44-.858-1.01-.72M2168.91 762.77c-.23.208-.32.472-.29.79.1-.263.19-.527.29-.79M2170.14 728.64c0 .517.29.853.79 1.008 0-.526-.3-.869-.79-1.008M2176.4 739.51c0 .518.29.925.72 1.224-.22-.421-.46-.829-.72-1.224"/><path class="landxx id" d="M2102.74 752.04c.93-.626.3-1.282.5-2.125.26-1.095 1.85-1.166 2.02-2.413a6.053 6.053 0 0 1-1.22 1.439c-.88-1.292.21-2.565 1.04-3.522.54-.623.7-1.208.98-1.959.36-.973 1.61-1.199 2.3-1.862-.13.89-1.31 1.981 0 2.517.19.08.67 2.179 1.05 2.59 1.1 1.202 3.08 2.143 3.79 3.677.28.593 1.5 1.107 2.09 1.412 1.1.57 2.65-.557 3.6-.98 1.89-.843 3.69.271 5.7.08.81-.08 1.54-.697 2.25-1.076 1.06-.567.76-1.953 1.57-2.828.83-.912 5.09-1.836 5.75-.441.62 1.327 4.51 2.593 5.75 1.827 1.07-.662 1.31-1.717 2.76-1.216.72.247 1.29-.34 1.9-.585.51-.205 1.11.456 1.63.43-.28-1.386 2.66-4.404 1.85-5.299-1.39-1.544 1.73-3.514 2.9-3.917-.69-.845-1.97-3.955.16-4.211 2.68-.323.67-1.98 2.2-3.447.59-.565-.17-2.877-.1-3.85.1-.9.32-2.04.72-2.851.35-.698 1.07-1.031 1.25-1.842 1.41.527 1.77.808 3.28.159.51-.221 1.77 1.684 1.9-.304.97.944 2.82.707 4.04.595 1.57-.143 2.52 1.556 4.03 1.422-.46.321-.96.513-1.51.575.27.237 2.98 2.492 1.15 1.585.37.262 1.33.437 1.52.873.19.437.17.872.71 1.07-.87 1.107-2.27.415-2.66-.72.17.489.24.993.21 1.512-.78-.482-2.14-.433-2.95-.07 1.03.398 1.56 1.454 2.67 1.729-.29.566-.42 1.815-1.37 1.368.7.917 1.75 1.3 2.81 1.655-.88 1 .82 1.098-.58 1.296.48.02.94.139 1.37.36-1.43.39.36 1.203.91 1.871.62.765 1.17 1.6 1.68 2.442.64 1.059-.71 3.142-1.95 3.103.81.284.41 1.089 1.04 1.612.91.753 1.81 1.53 2.76 2.235.76.568 1.21 1.54 2.1 1.86 1.19.429 2.03 1.643 2.82 2.573.33.392 1.2.08.59 1.031-.74 1.17-1.96.589-3 1.112-1.71.866-3.73-1.519-5.08-2.066.62.912 1.11 2.063-.35 2.146-1.32.07-1.74 2.093-2.08 3.085-.9 2.65-1.33 5.686-1.17 8.449a2.03 2.03 0 0 1 1.44-.72c-.19.594-1.14 1.304-.43 1.58-.69.422-.69 1.017 0 1.439-.94.264-1.98 1.382-2.23.07-.29 1.857-3.75 5.774-4.25 2.02-.73 1.313.5 2.341-.98 3.37-.68.474-.35 1.213-.82 1.811-.56.694-1.58.671-2.09 1.439 2.26-.859 1.51 2.29.43 3.101.56.549 1.7-.212 2.17.356.46.553-.46 2.69-.8 3.173-.4-.466-.88-.585-1.44-.359 1.41 1.226-.44 5.153-1.44 3.16-.27.875.46 1.628.94 2.239-1.98.363-1.37 3.374-3.04 4.048-1.83.74-3.67 1.97-5.53 2.792-.49.216-4.35 2.829-4.19 1.356.1-.894 0-1.875 0-2.787.1-1.3-.78-2.377-.46-3.689-1.46 1.433-2.46.893-1.44-1.08-.66 1.122-2.13 1.844-1.8-.141-.16 1.053-2.94 3.5-3.75 1.877-.28-.561.5-.992 0-1.582-.99-1.083-2.04.879-2.33-.585.32 1.666-1.82-1.299-2.02-2.02 0 1.508-1.61 3.187-2.89 3.842-1.34.682-2.5-1.237-3.8-.304-.47.338-2.28 2.947-2.63 1.253-.43-2.062.27-3.904-.83-5.941-.87 2.233-1.17 1.193-2.82 1.147-.69-.02-1.26.582-1.8.922-1.02.648-1.69.07-2.72-.119.33-.364.69-.701 1.08-1.01-.84.126-1.11 1.208-2.02 1.08.38-2.191-1.83-.977-2.73-.29-1.05-1.31-.21-3.482-.68-4.993-.31-1.027-.12-2.113-.31-3.157-.16-.881-1.53-1.589-1.44-2.36 0-.181.78-1.114.87-1.383.32-.962.49-1.796-.1-2.683-.4-.606-.49-1.259-.83-1.841-.42-.708-1.31-.97-1.26-1.943-.21.25-.43.489-.65.72-.77-1.473-1.58-.118-2.62-.748-.59-.356-.22-1.014 0-1.417.27-.406 1.23.06 1.57.07-.57-.314-.9-1.078-1.52-1.234-.47-.117-1.07-.03-1.37-.495-.42-.652-.67-3.309.66-2.511-.35-.928-.92-2.051.22-2.159-.96-1.269-2.24-2.372-2.58-3.985-.14-.674-.77-2.861-.16-3.433"/><path d="M2165.89 729.07c0-.168.1-.336.1-.504.77.11 1.48.427 2.16.792-.76.138-1.52-.04-2.23-.288M2169.2 723.53c.87-.116 2.02-.281 1.8 1.009-.84.174-1.25-.574-1.8-1.009M2294.48 811.73c0 .594.29 1.098.72 1.511-.2-.343.15-2.436.3-2.909.38-1.207-.89-.581-.52-1.632.98.492 1.61-1.117 2.02-1.7.71-1.001 1.64 1.145 1.63 1.688 0 1.421-.13 2.947-.21 4.368-.13 2.229-1.79 1.207-2.93.405 1.47 1.748-3.82-1.891-1.01-1.731"/><path d="M2296.21 813.96c.3.197 1.24 1.418.62 1.71-1.01.476-1.69-1.459-.62-1.71"/></g></svg>