<svg xmlns="http://www.w3.org/2000/svg" width="773.926" height="636.453" viewBox="0 0 204.76805 168.39496"><g class="landxx coastxx ir" transform="matrix(1.3293 0 0 1.3293 -2110.058 -552.581)" fill="#cbe6a3" fill-rule="evenodd" stroke="#000" stroke-width=".109"><title>Iran, Islamic Republic of</title><path d="M1667.43 527.83c.22-.115.46-.163.72-.145a1.644 1.644 0 0 0-1.51-.144c.26.1.52.194.79.289M1673.19 530.42c.13-.601-.11-.648-.72-.144.24.05.48.1.72.144M1686.15 526.61c-1.18.987-2 2.694-3.89 2.376-.17 1.771 2.51-.04 3.12-.305.64-.281 1.38-.06 2.02-.363.9-.425 1.06-1.826 2.13-1.924-1.21-1.177-2.14.774-3.38.216"/><path class="landxx ir" d="M1587.37 418.97c1.99-.679 2.7.792 2.66-2.355 0-1.365 1.18-.858 2.04-.224.85.623 1.32 1.616 2.09 2.319.75.679 1.6 1.228 2.34 1.908 1.53 1.392 2.19 2.166 4.39 2.505 1.36.21 3.29.356 4.62-.04.73-.217 3.2-2.359 3.45-3.046.3-.792 1.39-.963 1.99-1.478.69-.597 1.3-1.308 2.05-1.831 1.99-1.365 3.76.716 4.97 2.167-2.64.995.94 3.218-.54 3.553-2.74.622.1 2.232 1.27 2.96.83.513 1.56 1.305 2.45 1.711.35.163 1.43-.05 1.54.177 1.1 2.233.94 5.913 3.41 7.209 2.1 1.104 4.6.585 6.73 1.494 1.38.592 1.84 2.133 2.96 3.026 1.22.978 3.07 1.668 4.5 2.304 2.69 1.196 6.29 2.029 9.17 1.164 3.47-1.038 7.82-2.716 11.49-2.144-.74.278-1.53.193-2.3.288.53.395 2.6 1.169 2.89.09.26-.942-1.21-3.531-1.5-4.494 1.72.338 3.01.308 4.63-.375 1.84-.779.58-1.456 1.41-2.736.83-1.272 2.76-2.531 4.16-3.056 2.02-.765 3.98.409 6-.03-.69-1.146.83-1.259 1.72-1.334 1.11-.1 2.38.312 3.47.201 1.55-.159 1.56.04 2.32 1.446.72 1.336 2.73 1.306 4.08 1.549 1.49.269 2.53 1.772 4.11 1.897 1.76.139 3.15-.152 4.86.487 1.69.63 2.24 1.313 3.16 2.735.94 1.448 3.06 1.243 4.39 2.137 1.17.793 1.56 2.257 2.76 2.986 1.35.825 4.79-.762 5.84.37.88.947 1.07 3.585 1.25 4.606.2 1.16-.74.735.18 1.524.56.488 1.09 2.557 1.17 3.289.14 1.153-.91 1.945-.7 3.175.29 1.675.87 5.266-1.63 5.55.23.315 1.08 1.021 1.01 1.44-.12.67-1.65.874-1.93 1.745-.52 1.563.38 5.239 2.29 5.368 2.44.166.23 2.096-.14 3.324-.55 1.791 2.02 5.806 2.53 7.818.57 2.292.38 4.516 1.95 6.263 1.26 1.394 3.99.664 5.62 1.481 1.71.855 1.6 3.487 1.17 4.936-.45 1.49-1.82 2.724-2.57 4.061-.62 1.11-2.2 3.629-2.83 4.075.79.8 1.44 1.42 1.82 1.758 3.61 3.219 4.86 7.909 7.76 9.502.88.482 1.77.778 2.68 1.223.86.418 1.9 1.164 2.87 1.227 1.35.09 1.8 4.75 1.86 5.947.19 4.188.96 3.043 3.36 3.066 1.15.01.49 3 .41 4.182-.16 2.389-7.85.198-6.62 3.431-.72-.162-2.01.311-2.4.86-1.32 1.853-1.15 4.93-1.28 7.376 0 .676.2 2.133-1 1.699.56 1.885-3.55.201-4.2 0-.73-.227-2.41-.07-2.6-1.09-.27-1.404-1.9-.566-1.19.08-.32.06-3.98-.05-4.29-.293-1.17-.938-3.44-.799-4.75-.396-1.1.341-1.9-.271-2.75-.878-1.14-.81-2.08-.317-3.32-.649-.98-.265-1.83.538-2.82.128-.91-.377-1.13-1.666-2.16-.504.27-1.406-2.74-1.004-3.58-1.788-1.76-1.647-2.28-5.3-2.68-7.563-.5-2.846-3.07-4.414-5.87-4.2-1.27.1-2.18 1.163-3.37 1.508-.99.288-2.26.484-1.69 1.638.37.739-2.21.409-2.39.451-1.28.311-1.78 1.648-2.88 2.196-1.85.924-3.54-1.602-5.34-1.602-2.2 0-3.43.431-4.8-1.594-.68-1.011-2.2-1.338-3.23-1.908-1.34-.742-2.65-1.552-4.05-2.186 1.35-1.284-1.95-2.478-2.72-2.828-.7-.319-1.32-.94-2.06-1.118-1.04-.25-2.43.161-3.3-.492-1.92-1.443-2.38-2.76-3.65-4.768-.6-.949-.19-2.249-1.15-3.016-.64-.523-1.67-.812-1.67-1.819 1.18.115 1.01-.925.13-1.121-.59-.131-2.06-.02-1.46-1.064.77-1.355-1.5-2.836-2.2-3.547-1.19-1.198-2.06-2.474-2.66-4.037-1.03-2.677-3.12 2.008-4.26.407-.76-1.073-1.91-.31-2.42-1.324-.24-.485-1.72-.745-2.18-1.482.75-.05 1.49.243 2.23 0-.25-.998-1.42-1.268-2.23-.792.19.222.38.438.58.647-2.14-.28 1.35 4.627-2.38 3.097.25.749-.39.945-.97.692-.8-.354-.84-1.285-1.12-2.003-.59-1.482-2.68-1.604-2.93-3.438-.15-1.166.38-3.487-1.27-3.436-2.6.08-1.79-3.48-1.44-5.246.47-2.347-.69-2.778-2.06-4.427-1.4-1.677-1.13-2.643-3.4-3.072-1.72-.327-2.86-2.176-4.23-3.12-.75-.515-1.62-1.163-2.58-1.083-1.6.132-.64-.77-1.81-1.221 2.56-.782-2.48-4.771-3.3-5.466-.6-.509-1.12-1.116-1.7-1.643-.87-.781-.1-.962.28-1.939.33-.89.15-1.324-.58-1.894-.72-.567-.15-1.407 0-2.091.46.285.97.429 1.51.433-.12-.638-.43-1.231-.5-1.88-.12-1.123 1.12-.941 1.21-1.773.13-1.214.17-.87 1.19-.864.96 0 .85-.866.53-1.417-.54-.926-1.84-1.813-1.51-3.043.28-1.062 1.9-.79 2.18-1.966-.7.202-1.2-.321-1.88-.252-.82.08-1.72.482-2.52.04-1.22-.674-1.41-1.66-3.02-1.296 1.1-2.538-3.01-3.271-2.85-4.968.1-.989 0-1.339-.91-1.733-.24-.102-1.7-3.295-1.6-3.721.36-1.531-.66-.92-1.41-1.963-.75-1.032-.38-2.758-1.22-3.119-.44-.189-2.14-.722-2.08-1.407.1-1.025.58-2.443 1.36-3.177-2.16-.443-1.17-3.286-2.13-4.379-.54-.612-.36-1.158-.7-1.873-.19-.396-1.05-2.004-1.56-2.814"/></g></svg>