<svg xmlns="http://www.w3.org/2000/svg" width="46.307" height="166.175" viewBox="0 0 12.252017 43.967194"><path class="landxx il" d="M.058 23.998c.466-.634 2.978-3.672 1.821-4.403C3.86 16.303 4.325 12.478 5.043 8.78c.213-1.131.253-2.99 1.17-3.806.678-.61-.359-1.931.266-2.606.571-.62 1.967 0 2.632.093 1.582.194 1.369-1.433 1.86-2.386 2.3.12.572 8.877.772 11.437-.28-1.022-1.901-2.372-3.137-2.7-1.463-.393-1.928 1.462-2.22 2.601-.32 1.278-1.024 5.805.824 5.568 3.868-.502-1.648 2.12-.904 4.885.425 1.546 4.4-1.417 5.237-1.427-.199 1.399-.133 2.275 0 4.503 0 1.987-.744 4.568-1.342 6.31-1.157 3.39-.306 9.216-2.606 12.56l-7.47-19.81" fill="#cbe6a3" fill-rule="evenodd" stroke="#000" stroke-width=".144"><title>Israel</title></path></svg>