<svg xmlns="http://www.w3.org/2000/svg" width="397.328" height="660.42" viewBox="0 0 105.12648 174.73625"><g fill="#cbe6a3" fill-rule="evenodd" stroke="#000" stroke-width=".144"><path d="M1.143 123.37c-2.127.444-.665 3.62.77 4.02-.73-1.14-.478-2.75-.77-4.02M1.808 128.634c-.293-.568-.732-.727-1.33-.479.293 2.222 2.127 2.024 1.33.479M2.007 146.247c.133.43.28.846.478 1.247.612-.412 1.29-.7 2.008-.863-.612-1.144-1.808-.803-2.779-1.34.133.318.187.637.293.956M4.971 142.033c-.133-.16-.252-.319-.385-.478 0 .896-.479 2.228.864 2.392a4.02 4.02 0 0 1-.479-1.914M7.936 139.255a42.54 42.54 0 0 0-.665-.383 4.002 4.002 0 0 0-.293 2.01c.705-.263 1.157-.852.958-1.627M7.936 133.326c-.293.027-.572.067-.864.094.212.733.77 1.157 1.542.86l-.678-.955M10.528 139.069c-.426-.336-1.622-.338-2.02.013-.56.467.916 1.904 1.169 2.172.864.876 2.1.923 3.177 1.354.837.333.97 1.685 1.688 2.205-.598-.307-1.449 0-2.007-.383-.625-.43-.731-1.378-1.25-1.913-1.847 1.438 2.127 2.913 2.207 4.403.292-.537 2.632-2.517 3.07-1.272.24.674-.132 1.84 1.157 1.568 1.383-.304.173-3.905-2.02-2.498.704-1.312-.412-2.476-1.343-3.252 1.502-2.143 4.586 2.162 5.477 3.415 1.329 1.874 2.565 4.414 1.25 6.766-.785 1.4-1.848 1.042-1.224 2.919.333.98.825 1.719 1.383 2.572.412.65 3.15 4.867.571 3.948.997 1.06 1.635 1.808 3.164 1.962.758.08 1.09.98 1.914.814 1.197-.241.32-1.191-.212-1.479-1.17-.64-2.14-2.99-1.25-4.196 1.024-1.39 3.044 1.192.798.506.398 1.137 1.369 1.908 1.9 2.966.652 1.29.386 2.555.293 3.924 1.476-.597 2.167-2.02 3.443-2.871-2.645-1.75-.824-2.423 1.342-1.34 1.53-2.967-1.116-7.289-.89-10.533 0-.581-.479-3.027-.2-3.496.878-1.463 2.54-3.054.226-4.155.213-.327.44-.644.678-.957-1.409.067-1.515-.912-2.366-1.69-1.037-.95-2.725-.244-3.762-1.277 1.502-.724 1.901-3.24.213-4.015-2.353-1.082-4.347 2.606-6.607-.634-1.289-1.864-.398-2.743-2.884-2.437-1.768.215-4.148 1.603-2.885 3.832-2.353-.08-1.329.067-2.858 1.723-.997-2.297-1.661.04-1.342 1.336"/><path d="M16.164 149.305c.133.997.744 1.838 1.063 2.775 3.855-2.112-2.02-4.85-1.063-2.775M16.164 158.118c.824.22.984-.093.478-.957-.16.319-.319.636-.478.957M18.57 132.17c.146-1.868 2.712.14 4.24-.396 3.11-1.096 5.171-.338 8.003 1.353-1.024-.8-1.715-5.797.186-5.934 1.063-.08 1.568 1.303 2.525 1.582.678.2 3.802-1.388 4.28-1.87 0 .491.213.785.626.88.279-.34.319-.729.132-1.165.785.558 1.715.367 1.636-.766 1.076.65 1.993-.607 3.137-.187 1.675.609 2.818-1.683.97-1.055 1.795-.466 3.363-1.606 5.198-1.916 2.02-.344 3.575 1.554 5.397 1.2 1.355-.265 2.884-1.556 3.881.214.838 1.468-.824 3.247-2.034 3.85 1.037.783 1.901 1.87 1.781 3.254-.159 1.56 1.702 2.27 2.805 2.822 1.197.6 1.582 2.06 2.885 2.535.997.36 1.9.956 2.924 1.22 1.197.309 1.888-5.032 2.114-5.811.213-.742.133-2.497.718-3.044 1.25-1.07 3.044-.184 4.386-.88-1.21-1.546-2.113-2.478-3.921-3.32-2.207-1.026-1.41-2.025-1.436-3.99 0-.881.811-2.556 1.609-.88.452.98.2 3.273 1.927 2.926-.598-.528-.77-1.166-.478-1.914.571 2.557 3.669.303 4.214 2.298-.732.193-1.277.734-1.25 1.53 3.244-1.912 7.085-.707 10.528-.191-2.246-2.14 1.476-8.34 4.32-4.882-.359.12-.704.248-1.063.382.784 1.14.571 3.565 2.1 4.12 1.648.603 1.954-1.963 1.848-2.994-.133-1.312-1.41-2.135-1.542-3.451-.266-2.742 4.373-.6 5.157.22.758-1.218-3.163-3.472-.571-4.02-1.436-1.73 3.935-2.448 2.446.818-.386.836-.532 5.863.944 6.244.571.148 3.855-3.004 3.868-3.722 0-1.12-.811-1.874-.85-2.92-.134-1.653 1.62-2.252 2.777-2.909-3.11-2.015-5.304-5.006-6.34-8.558-.373-1.296-.532-2.752-.506-4.1 0-.824.16-.772.825-1.083.611-.282 0-.845 0-1.285-.213-3.867-3.483-6.918-5.37-10-2.207-3.614-.48-6.858 3.562-4.261-1.489-1.6-4.36-8.276-1.343-8.9-1.063-.854-.226-2.513-.983-3.58-.612-.865-.559-1.894-1.303-2.816-.838-1.044-1.223-2.415-2.1-3.495-.785-.969-1.596-1.392-2.22-2.467-1.356-2.309-4.414-3.43-6.381-5.12-2.566-2.207-4.44-5.897-5.29-9.129-1.45 1.318-4.892-2.12-5.783-.643-1.316 2.176 3.23 5.144 3.868 2.079 1.476.7 3.058 2.975 2.007 4.594-.943-.602-1.94-1.085-2.964-1.53.412.67.412 1.34 0 2.01-1.595-.396-2.113-2.131-3.07-3.254-.998-1.18-2.42-.723-3.536-1.629 0 1.39 2.83 4.306 1.581 5.388-.651.556-2.964 1.143-1.635 2.476 1.024 1.021 2.978 2.384 3.417 3.716.385 1.188.438 4.044-1.542 2.681.385 1.347 1.076 1.149 2.193 1.146 1.489 0 2.592 1.673 3.257 2.778 1.728 2.84 2.246 7.782 1.794 11.012-.359 2.504 2.114 6.882-.558 8.359-3.07 1.69-1.529 4.63-3.07 7.49-1.277 2.357-4.095 2.48-6.142 3.84-1.276.851-2.885 4.794-4.772 1.481-.519-.898-.332-2.132-1.622-2.369-.77-.14-1.662-1.66-.638-1.475 2.167.384 1.33-3.099 1.702-3.74-1.503-.42-4.068.923-4.56 2.41-.665 2.054 2.964 4.49 2.5 7.146-.373 2.125-1.317 3.433-2.58 5.088-2.113 2.76 2.3 4.364 2.154 6.697-1.768-1.458-.36 1.002-2.1.383.664 3.115-5.45-.45-3.443 1.723-.585-.371-1.915-.411-2.074-1.247-.16-.93.505-2.354-1.103-1.904-.692.194-1.29.63-1.968.832-1.675.503-3.47-.013-5.064.79-1.104.568-2.127.937-3.377 1.107-1.183.163-3.642-.565-4.533.04-1.276.856-1.78.246-2.95-.413-1.303-.742-3.577.702-4.786 1.176 2.127 2.386-6.34 8.91-6.966 10.725-.664 1.908-4.586.231-4.533 2.106 0 1.494 1.237 3.213 1.941 4.494"/><path d="M18.37 149.025c.24 1.209 1.968.21 2.008-.67-.771-.252-1.529.04-2.007.67M28.805 106.913c-.85-.106-.983.245-.385 1.053.133-.35.253-.702.385-1.053M29.191 172.182c-1.702.3-.32 2.245.704 2.443 1.994.387.585-2.23-.704-2.443M29.763 104.614c-.785.39-.878 1.502.133 1.724 1.581.359.717-1.41-.133-1.724M33.112 132.462c-.319-.608-1.635.266-1.914.383a6.285 6.285 0 0 0 1.914-.383M32.155 128.342c-1.116.397-1.023.716.28.957-.133-.32-.187-.638-.28-.957M35.213 135.626c-.692 1.58-2.526 1.977-3.536 3.254 1.196.08 1.94-1.02 2.964-1.435.226.553.665 2.231 1.489 2.168 1.077-.08 1.502.699 0 .99 1.09.36 1.077 3.32 2.539 3.125 1.29-.173 1.502 1.36 2.539 1.756 1.023.391 2.087-.222 2.964.67-2.007-1.385-.797-5.188 0-6.907 2.074-4.408 5.716-1.212 8.415.495.279-1.01 0-2.057.279-3.063.359-1.2 1.489-1.966 2.127-3.016.598-.999-1.954-3.652-2.021-5.024-2.233.463-3.695-1.067-5.77-1.44-1.727-.309-3.23 1.996-4.479 1.249 1.755 1.564.878 2.63-1.05 3.158-2.778.758-2.433-1.107-4.972-1.531-.225 1.27-.172 5.122-1.541 5.551M33.112 129.405c-.917.532-.279 1.176.572.957-.2-.319-.385-.638-.572-.957M33.112 167.782c-1.076.555-.957 5.46.665 4.88-.678-1.573.16-3.337-.665-4.88M37.22 128.062c-.731-.138-.731.18 0 .958v-.958M44.89.57c-.612-.107 1.196 1.207 1.529 1.34-.24-.691-.811-1.209-1.53-1.34M48.904 125.377c-.717-.395-1.329-.066-1.728.576.652.609 2.38.85 1.728-.576M48.04 2.87c-.133 1.173 1.144 1.73 2.008.957a3.818 3.818 0 0 0-2.008-.957M51.005.57c.824 1.357 1.023 2.94 2.26 4.052 1.847 1.656 4.014 3.384 5.117 5.648.984 1.984 2.114 4.214 2.872 6.285.717 1.974-1.33 2.773.132 4.477 1.45 1.752 4.84 5.896.147 5.35-2.127-.246-4.52-2.022-6.54-1.966-1.25.04.172 1.958.584 2.232 1.144.782 2.3 1.183 2.048 2.863-.452 3.022-3.815 1.299-2.42 5.283 1.064 3.024 4.2 2.874 6.075 5.054 1.183 1.378.558 3.423 1.609 4.969 1.661 2.458 2.233.824 4.16.066-1.316-1.033 0-2.297 1.17-2.52.32-.053 4.373 1.04 3.363-.649-.73-1.204-3.416-1.877-4.573-2.686-1.701-1.183-3.96-.995-5.716-2.207-.983-.68-1.661-2.147-1.01-3.298.638-1.135 2.513-.093 3.27.304 1.01.516 1.861 1.465 2.885 1.872 1.077.43 2.42-2.07 3.416-2.64 3.283-1.88 7.723 2.344 10.674 3.407 2.127.768 6.554 3.618 8.814 3.349 1.382-.165.65-1.604.265-2.344-.93-1.773-1.143-3.103-.359-5.053 1.622-4.104 4.161-4.228 8.136-3.23-1.768-2.238 4.16.293 2.206-2.298.93-.398 1.941-.675 2.965-.479-.133-.842.372-1.526 1.143-1.817-1.263-1.458-1.21.459-2.114.897-.545.266-1.542-.914-1.728-1.082-.425-.386-3.948-3.682-1.329-2.495-1.861-.838-3.988-1.245-4.373-3.6-.253-1.537.172-4.458-1.649-5.206-.279 1.51-.678 4.134-2.42 4.687-2.086.664-5.303-2.574-6.486-1.24-.372-1.16-1.223-1.08-2.207-.908-1.369.238-1.635-.785-2.778-1.222-3.536-1.364-6.766-2.544-10.063-4.557-3.801-2.32-7.35-5.027-11.14-7.367-1.235-.764-2.777-2.117-4.24-2.41-1.05-.21-.97 1.36-2.113.479M54.833 125.098c-1.449-.08-2.366 2.855-1.316 3.727 1.954 1.617 1.236-3.211 1.316-3.727M53.397 37.232c0 .77.386 1.163 1.157 1.053 0-.809-.332-1.246-1.157-1.053M68.71 82.122c-1.036.356-2.232 2.554-.823 3.196 1.263.571 1.023.951.824 2.356 1.568-.04 2.273-1.499 1.489-2.816a1.974 1.974 0 0 0-.957-.517c-.492-.27-.346-1.727-.532-2.219M95.988 122.32c-.386.865-.133 1.184.864.957a9.55 9.55 0 0 0-.864-.957"/></g></svg>