<svg xmlns="http://www.w3.org/2000/svg" width="149.447" height="182.514" viewBox="0 0 39.541122 48.290165"><path class="landxx jo" d="M.09 46.238c-.185-3.209 1.104-6.265 1.144-9.455 0-3.668 1.675-6.387 2.113-9.878.187-1.454-.239-2.938-.132-4.415.132-1.396.571-2.769.624-4.129.133-2.85-.279-6.274-.385-9.15-.133-2.442 2.95-1.69 4.347-.728 2.3 1.585 4.36 3.984 7.444 3.378 3.11-.611 5.968-3.53 8.534-5.24 3.283-2.185 6.553-4.602 9.996-6.515 1.063 3.403 2.46 6.688 3.629 10.051-1.183.12-.412 1.74.346 1.935 1.21.31 2.738.12.784 2.169-6.128 3.744-12.27 5.729-19.62 7.566l10.966 11.52c-.984.486-3.589.428-4.293 1.313-.811 1.018.132 3.073-.758 4.091-1.45 1.709-5.118.254-6.992 2.049-2.14 2.047-2.845 5.895-5.902 7.101-2.779 1.089-9.053-.936-11.858-1.663" fill="#cbe6a3" fill-rule="evenodd" stroke="#000" stroke-width=".144"><title>Jordan</title></path></svg>