<?xml version="1.0" encoding="UTF-8" standalone="no"?>
<!-- Created with Inkscape (http://www.inkscape.org/) -->

<svg
   xmlns:dc="http://purl.org/dc/elements/1.1/"
   xmlns:cc="http://creativecommons.org/ns#"
   xmlns:rdf="http://www.w3.org/1999/02/22-rdf-syntax-ns#"
   xmlns:svg="http://www.w3.org/2000/svg"
   xmlns="http://www.w3.org/2000/svg"
   xmlns:sodipodi="http://sodipodi.sourceforge.net/DTD/sodipodi-0.dtd"
   xmlns:inkscape="http://www.inkscape.org/namespaces/inkscape"
   width="83.967628mm"
   height="98.724174mm"
   viewBox="0 0 83.967628 98.724174"
   version="1.1"
   id="svg7236"
   inkscape:version="0.92.0 r15299"
   sodipodi:docname="laos.svg">
  <defs
     id="defs7230" />
  <sodipodi:namedview
     id="base"
     pagecolor="#ffffff"
     bordercolor="#666666"
     borderopacity="1.0"
     inkscape:pageopacity="0.0"
     inkscape:pageshadow="2"
     inkscape:zoom="0.35"
     inkscape:cx="720.10757"
     inkscape:cy="-344.8632"
     inkscape:document-units="mm"
     inkscape:current-layer="layer1"
     showgrid="false"
     fit-margin-top="0"
     fit-margin-left="0"
     fit-margin-right="0"
     fit-margin-bottom="0"
     inkscape:window-width="1920"
     inkscape:window-height="1017"
     inkscape:window-x="1912"
     inkscape:window-y="-8"
     inkscape:window-maximized="1" />
  <metadata
     id="metadata7233">
    <rdf:RDF>
      <cc:Work
         rdf:about="">
        <dc:format>image/svg+xml</dc:format>
        <dc:type
           rdf:resource="http://purl.org/dc/dcmitype/StillImage" />
        <dc:title></dc:title>
      </cc:Work>
    </rdf:RDF>
  </metadata>
  <g
     inkscape:label="Layer 1"
     inkscape:groupmode="layer"
     id="layer1"
     transform="translate(207.53739,41.135898)">
    <path
       inkscape:connector-curvature="0"
       id="la"
       class="landxx la"
       d="m -207.43989,-16.353959 c 0.38531,-1.551269 -0.1329,-3.772534 1.34262,-4.881171 0.83731,-0.635384 3.11047,0.07976 3.25676,-1.33992 -1.96745,1.167127 -0.39894,-2.340874 -0.14629,-2.977622 0.41209,-1.0528 0.3987,-1.625726 1.54197,-2.133518 0.95707,-0.428027 2.81814,-1.409047 2.52557,-2.737016 1.31609,0.922529 0.90401,5.076576 3.36313,3.8882 1.66172,-0.794936 1.59527,0.67927 3.17716,0.792259 1.74132,0.119634 -0.17281,-2.538957 -0.22612,-2.701138 -0.3987,-1.333275 0.83756,-1.841067 0.33249,-2.589464 -1.0369,-1.498109 -1.22311,-2.511039 -1.99397,-3.384376 -1.06344,-1.220287 -1.23626,-2.694493 -1.44899,-3.465479 -0.27919,-1.015583 0.15943,-3.587765 1.7014,-3.126488 0.62482,0.18876 0.37216,0.798904 0.67812,0.75901 3.48264,-0.453269 1.3823,-0.30175 2.87121,0.186107 0.18596,0.03989 0.35878,0.921215 1.34262,1.928814 1.18295,1.201666 2.39267,2.29436 3.65546,3.428238 0.97045,0.868031 1.02352,2.834062 2.33961,3.231517 0.94368,-0.951762 0.19935,-2.25449 0.50506,-1.713449 0.65135,1.333275 1.19634,0.776291 1.70165,2.065705 0.30571,0.808227 -0.35903,2.07106 0.1329,4.255085 0.47853,2.150799 3.25676,5.202854 5.14436,5.139058 1.74132,-0.05318 2.35275,0.711156 4.02762,1.738715 0.82417,-1.121927 0.62482,-2.219927 2.04728,-2.945736 1.72793,-0.881321 2.95104,0.106344 4.39979,1.207021 0.82417,0.622094 2.18018,1.232238 2.32622,2.36614 0.15967,1.16978 -1.62156,1.00626 -1.87422,1.956708 0.89062,0.361578 2.76484,0.106344 3.05741,1.280116 0.29233,1.124579 0.79764,1.104645 1.43561,1.208335 3.589,0.580886 2.11348,3.577129 0.38555,4.019784 1.9672,0.563605 -1.83454,2.8991717 -3.24361,2.6864867 -0.33225,-0.05316 -3.76183,-1.099315 -4.02763,-0.389475 -0.3191,0.866693 1.86108,2.10161 1.14328,2.703793 -0.67813,0.564944 -2.65872,1.139209 -0.71805,2.112243 1.35601,0.680585 0.87748,0.167487 2.26002,1.003607 1.39568,0.837462 4.3068,3.13980501 5.47661,3.959982 0.93054,0.647358 6.42053,1.238882 5.23734,2.338221 -0.35878,0.338965 -0.86409,0.761687 0.61144,2.908495 0.69127,1.000954 1.91438,2.144155 2.72516,2.207951 0.99699,0.07976 1.62181,1.7639803 1.96744,2.4751613 0.78425,1.628378 1.8343,2.831383 3.07056,4.122137 0.7178,0.741728 4.041,3.622328 4.70574,3.807098 1.28932,0.361553 2.64533,3.410955 2.87121,3.712704 0.89062,1.212326 0.66474,3.042756 1.36915,4.063646 0.23927,0.349626 0.89062,1.662967 1.35601,1.736061 0.57152,0.09305 1.06344,-0.381487 1.62156,-0.06645 1.11675,0.650013 0.61168,1.234914 2.04728,1.596467 0.54499,0.136917 2.36614,2.507049 4.54608,3.232856 -0.50507,1.143178 -2.1534,1.533988 -2.59202,2.717057 -0.46539,1.285446 3.01749,2.814127 3.7219,3.615685 1.24965,1.425014 2.53896,1.978006 1.86108,4.102203 -0.22588,0.72313 -1.24964,1.316016 -1.24964,1.742704 0,0.519769 0.3191,0.236615 0.86409,1.855695 0.59829,1.809181 -1.90075,4.167339 -5.15751,4.988854 -2.61879,0.66199 -3.90836,-2.041803 -4.99832,-2.230562 -0.82417,-0.142248 -0.33225,0.78296 -0.87723,1.012928 -0.54499,0.228632 -1.75471,-0.158189 -1.74132,0.430681 0,0.810879 -0.7845,1.096661 -1.48891,0.740415 -0.1329,-0.05316 -0.89062,0.7843 -0.65135,1.195044 0.65135,1.096661 2.39267,2.358157 1.1165,3.66086 -0.71781,0.731117 -2.233,0.345635 -3.0175,-0.810856 -0.47853,-0.707186 -2.6054,-1.213641 -3.94778,-1.131223 -1.46238,0.09305 -3.09733,-1.755997 -1.87446,-2.775572 0.904,-0.759034 2.37952,-1.632371 2.23324,-3.044095 -0.14629,-1.312002 0.35902,-2.986921 -0.1329,-4.029083 -0.25266,-0.530381 -1.08997,-0.81884 -1.03691,-1.843719 0,-0.776317 0.66474,-1.480852 0.95707,-2.154791 -0.37217,0.180777 -0.70441,0.159502 -0.99699,-0.06647 -0.19935,-1.074073 2.29969,-2.47913 0.66474,-4.128783 -0.87723,-0.89327 -4.3735,-1.951403 -2.1534,-3.464139 -3.69537,-1.447602 -7.52389,-3.950658 -8.10879,-8.324038 -0.46515,-3.39635 0.75772,-8.132622 -2.72492,-10.20232 -3.56272,-2.110928 -4.69261,-7.5863003 -8.81321,-8.4755813 -0.53184,-0.119634 -7.44406,-1.831768 -5.33057,0.778971 -1.1698,0.232621 -1.3027,3.2381373 -2.36614,3.2859903 -0.29233,0.01339 -1.40907,0.394803 -2.16679,0.989004 -1.34262,1.046155 -2.15341,-0.755041 -2.59202,-0.808201 -2.10034,-0.256551 -2.80476,-1.6842193 -4.08093,-2.4977493 -1.39593,-0.905248 -1.70164,2.7928523 -3.44296,1.519381 -0.1329,2.6306723 -3.28329,4.4624413 -4.81212,6.2849123 -0.70441,0.841428 -1.7014,0.376182 -2.47251,-0.420068 -0.8507,-0.886627 -0.15943,-2.520337 0.21274,-3.452165 0.59829,-1.452933 0.78425,-2.4339523 0.55837,-4.0104853 -0.1329,-0.941152 -1.06344,-2.557555 -0.94368,-3.37907 0.23927,-0.475883 0.54498,-0.910553 0.90376,-1.301391 0.49192,-0.814845 0.1329,-0.84011 0,-1.666933 -0.1329,-1.81049599 0.7178,-2.85665099 -0.18596,-4.588719 -1.28956,-2.443229 0,-6.157272 -4.09432,-5.022053 -0.49192,0 -0.86408,0.191412 -1.10335,0.586216 -0.3987,0.927833 -0.51845,0.119632 -1.3027,0.279133 -1.36916,0.273831 -2.29969,-0.638061 -2.97758,-1.958046 -0.95707,-1.8782827 1.67487,-3.7525987 0.57152,-5.1470167 -0.452,-0.572928 -1.80777,-2.330263 -2.37929,-2.677212 -0.89061,-0.521082 -1.26302,0.821516 -2.29969,1.107322 -0.1329,-0.32037 -0.1329,-0.6394 -0.19959,-0.958431"
       style="fill:#cbe6a3;fill-opacity:1;fill-rule:evenodd;stroke:#000000;stroke-width:0.14449541;stroke-miterlimit:4;stroke-dasharray:none;stroke-opacity:1">
      <title
         id="title2009">Lao People's Democratic Republic</title>
    </path>
  </g>
</svg>
