<svg xmlns="http://www.w3.org/2000/svg" width="763.346" height="281.085" viewBox="0 0 201.96858 74.370277"><g class="landxx coastxx my" transform="matrix(1.3293 0 0 1.3293 -2699.645 -925.312)" fill="#cbe6a3" fill-rule="evenodd" stroke="#000" stroke-width=".109"><title>Malaysia</title><path class="landxx my" d="M2034.27 703.942c.35-.614.2-1.432.46-2.058.36-.886.86.784 1.88 1.168.75.28 1.54.276 2.25.474.66.186.79 1.101 1.15 1.568.56.723 2.64.645 1.9 2.514-.3.751-1.33 3.324.96 2.798.76-.176 1.2-1.819 2.39-1.97 1.2-.154 1.22 1.657 2.13 1.305.74-.292 2.47-3.568 1.46-4.429.92.292 2.3.67 2.92 1.511.6.833.85 1.846 1.68 2.515 2.08 1.665 3.91 3.196 5.15 5.601 1.25 2.428 2.12 4.887 1.98 7.668 0 1.069-.19 2.252-.39 3.303-.29 1.489 0 1.601.43 2.94.67 2.003-.56 4.433.63 6.448.92 1.558 3.03 2.387 3.53 4.274.59 2.231 2.06 4.105 2.63 6.363.76 3.031-2.68 1.37-1.1.271-.61.02-1.12-.327-1.37-.864.1.208.67 2.235-.17 1.632-.84-.608-2.81.733-3.57 1.104-.81-2.641-4.02-3.369-5.94-4.992-.5-.419-.87-.924-1.34-1.36-.76-.699-1.97-.68-2.8-1.281-.84-.604-2.18-1.896-2.65-2.768-.32-.603-.82-.66-1.42-.821-.92-.25-1.34-1.086-2.09-1.607-.71-.497-.56-.633-.17-1.175.42-.604-.14-1.837-.39-2.404-.79-1.778-2.79-3.004-3.51-4.803-.35-.866-2.24-1.346-.1-2.046-1.28.183-2.56-2.476-2.22-3.412.66-1.816-.31-3.773-1.4-5.126-.97-1.19-.77-4.93-.77-6.438 0-2.205-1.35-3.95-2.16-5.903"/><path d="M2169.2 723.526c0-.264-.1-.528-.14-.792.69-.06 1.26.352 1.8.721-.56-.02-1.11 0-1.66.07M2120.96 737.926c.1.498.16.74.72.792-.39-.997.12-2.281-.86-3.024-.1.752.18 1.481.14 2.232M2149.47 713.878c.73.266.83.02.29-.721-.1.241-.2.481-.29.721M2161.57 697.39c.43-.246.71-.605.86-1.08-.57.1-.96.473-.86 1.08M2163.29 696.454c-.25.472-.22.927.1 1.367 1.54-.537.91-2.4-.1-1.367M2165.45 701.854c.28.05.55-.02.8-.216-.27.07-.54.143-.8.216M2174.38 719.134c.41.44.89.512 1.44.216a9.295 9.295 0 0 0-1.44-.216M2078.05 734.974c.7-.407.75-1.327-.15-1.512.13.495.18.999.15 1.512M2101.59 734.47c.25.201.51.201.79 0-.1-.263-.2-.503-.36-.72-.15.24-.29.48-.43.72M2032.18 703.654c-.36.384-.76.696-1.22.937.77 1.484 2.4.02 1.22-.937M2036.07 712.438c-.88-.385-.97.444-.92 1.081.11 1.343 1.08-.2.92-1.081M2066.45 734.758c-.3.177-.44.44-.43.792.82.15.97-.114.43-.792"/><path class="landxx my" d="M2108.36 741.598c-.25 2.565 5.35 4.75 5.26 2.376 0 .67 1.01.744.95 1.021-.2.847 1.41 1.213 2.01 1.433.92.339 1.47-.408 2.26.495.72.824 1.81.915 2.84 1.011-.72-.983-2.25-.124-2.63-1.594-.24-.953.5-1.752 1.33-.925-.8-.499-.85-1.277-.58-2.097.16-.395.29-.802.38-1.222.21-1.005.74-.613 1.35-1.218-.51.05-1.01.101-1.51.144.69-.664 0-1.451.22-2.231.75 0 1.41.393 2.16.432-2.61-1.956 1.31-4.282 2.92-4.538 2.55-.405 6.23-.939 8.38-2.456 1.86-1.31 1.92-4.002 3.57-5.487 2.12-1.902 3.33-4.094 3.49-6.959 2.09.04 1.96.764 2.37 1.973.26.739 2.28 2.548 3.04 2.758.98.274 1.06-3.235.8-4.059-.69-2.171.51-2.251 1.51-3.355.35 1.824 0 4.461 2.36 4.987-.16-1.454-.15-3.126-.96-4.218-1.22-1.661.83-.638 1.39-1.084.52-.413 2.32-1.796.89-2.351-2.16-.838 0-2.439.62-3.364-.18 1.821 2.07-.156 2.47-.934.6-1.188.8-2.535 1.35-3.744.32-.689.72-.355 1.08-.794.43-.531.8-1.433 1.27-2.053 1.01-1.355.89-3.324 2.19-4.571 1.01 1.186-.2 2.409.28 3.672.82-.524 1.58-3.679 2.6-3.493.1.01 2.52 5.6 2.88 3.062.12 1.043 2.06 1.501 1.92 2.753-.1.827-1.25.523-.95 1.653.35 1.322.18 1.66-1.12 2.146.81-.466 1.68.05 2.42-.372.61-.347.94-1.22 1.8-.859 1.62.682.1 1.806-.69 2.095.16 1.559 1.67.07 2.26-.313 1.28-.812 2.79 1.076 2.92 2.185.88-.934 2.38.719 2.74 1.439.71-.968 2.71-.218 2.74.932 0 1.661-3.61 2.974-4.92 2.872-.91-.07-4.4-1.292-3.32 1.257.42 1.004 2.74 1.429 2.55 2.644.71-.445 1.28.219.87.89-.45.723-1.45.564-2.16.622-2.26.182-3.2.76-5.12-.863-.17.518.35 1.695-.17 2.054-.78.544-2.28-.57-2.84-.974-1.31-.933-3.8.594-5.42-.936 0 2.078-1.41-.02-2.1.376-1.38.788-1.88.185-3.05-.217-.17.77-.81 1.008-1.15 1.655-.44.838-.69 1.99-.81 2.923-.1.738.24 2.218.29 2.977.1 1.287-.51.745-.75 1.803-.38 1.689.25 2.411-1.68 2.671-2.08.28-.77 3.435-.18 4.157-1.17.403-4.29 2.373-2.9 3.917.81.895-2.13 3.913-1.85 5.299-1.12-.01-1.01-1.021-2.45 0-.84.592-1.65-.401-2.38.206-1.2.985-1.68 1.586-3.22 1.352-1.63-.247-3.68-1.189-4.1-2.095-.55-1.174-4.82-.604-5.78.735-.47.666-.54 1.551-.95 2.322-.1.147-1.89 1.148-1.97 1.182-1.37.543-3.09-.07-4.58-.197-1.49-.125-2.52.667-3.79 1.268-1.53.724-2.62-.612-3.39-.919-.41-.167-.99-1.498-1.43-1.848-1.1-.881-2.07-1.499-2.84-2.37-.47-.527-.62-2.034-.96-2.49-1.38-.792-.19-1.485 0-2.558"/><path d="M2182.52 719.422c.38-.749.31-1.573-.1-2.304.1.766.1 1.536.1 2.304"/></g></svg>