<svg xmlns="http://www.w3.org/2000/svg" width="1134.123" height="446.963" viewBox="0 0 300.07013 118.259"><path class="landxx mn" d="M.01 33.024c2.26.193 1.397-1.287 1.849-2.634.957-2.889 6.021.534 5.716-1.386 1.568.094 2.033.82 2.964.094-.186-.323-.372-.641-.572-.958 1.689-.265 2.5-.639 4.121-1.245-.758-.463-1.25-1.282-1.542-2.106.426-.297 3.23-.571 2.938-1.332-.386-.98.93-.951 1.608-1.39.918-.606 2.526-.46 3.15-.944.732-.569 1.57-1.773 3.058-2.369.93-.37 1.888-.026 2.685-1.022.598-.742.811-1.39 1.795-1.533 1.13-.163 4.706.093 3.722-1.998 1.914-.026 2.712 2.21 3.881 1.72.32-.139 1.556-1.391 1.968-.933.904.997.917 2.029 2.486 2.062 2.073.04 4.253 0 6.314-.066 2.286-.08 4.134.247 5.57 2.212 2.698 3.72 5.636 4.01 9.836 4.962 2.287.517 3.284-.562 5.344-.574.2 0 2.273.187 2.5.23 2.232.414 5.024.837 7.63 1.196 1.767.243 4.492 2.347 5.303.912.838-1.484 1.476-1.54 2.991-1.89 1.462-.333 1.356-2.493 1.276-3.648-.133-1.586-1.13-2.41-2.472-2.987-2.074-.887-2.699-2.756-4.44-3.977-1.25-.875-2.871-6.796 0-5.856-.638-1.357-.878-2.811.877-3.339C82.308 3.701 81.95 1.422 81.603.1c2.14.524 3.988 1.422 6.248 2.21 2.166.754 4.28 1.775 6.58 2.097 2.353.327 4.147.75 6.54 1.067 2.153.289 5.397 2.18 7.444 1.64 4.014-1.061 8.002 2.21 8.614 4.805.398 1.68 2.392 2.794 3.363 4.158 1.21 1.69 4.001 2.694 5.21 3.36 1.41.78 3.536.142 5.397 1.759.652.566 3.297.949 4.653.476 1.9-.66 2.06.267 4.68-.74 2.007-.776 3.987-1.467 5.994-1.964 3.975-.985 9.505.37 13.572.758 2.034.194 3.576 1.734 5.251 2.766 2.672 1.643 4.786 1.054 7.684 1.652 1.488.309 2.286 1.682 3.203 2.71 1.17 1.302 2.592 1.827 4.094 2.704 2.18 1.28 4.228 1.622 6.035 1.505 3.058-.198 5.038.581 7.737 1.135 2.153.442 4.054.331 6.22.426 1.583.066 3.683.82 4.627-.133 1.528-1.543 2.605-1.925 5.583-2.15 1.25-.094 4.878-1.451 7.085-1.22 1.967.207 3.137-.2 3.629-2.12.545-2.075 1.954-3.11 3.682-4.295 1.648-1.123 2.34-1.46 4.466-1.759 1.888-.266 3.829-.406 6.195 1.22 1.635 1.123 3.895 2.45 5.875 2.774 1.755.284 2.805-.308 4.307-.988 2.22-1.002 5.716.667 6.633 1.675l1.157 16.427c1.848 1.529-1.369 2.241-.319 3.648 1.024 1.372 3.217 2.8 4.334 3.376 1.595.823 2.206-1.533 4-1.385 2.3.187 4.44-.546 6.66.498 1.808.846 2.965 1.693 4.427-.206 1.25-1.648 2.06-2.513 4.267-2.363 3.775.258 8.441 3.07 11.591 5.08 3.643 2.32 7.55 4.38 10.568 7.57 3.536 3.75-2.313 3.52-4.666 3.125-1.568-.263-3.137-1.783-4.32-.664-.385.362-2.445-.276-3.004-.24-1.701.106-2.844.969-4.293 1.712-1.024.52-3.19-.885-3.497.342-.332 1.337-.252 1.992-1.914 1.888-1.94-.12-3.855-.373-4.745 1.737a7.02 7.02 0 0 0-.532 2.497c0 .916 1.117 1.808.917 2.538-.2.782-2.805 2.677-3.51 3.265-1.302 1.092-3.615 1.12-5.223 1.083-1.197-.027-3.217-1.087-3.935.334-.678 1.33-.85 2.927-1.98 4.027-.745.728-1.636.547-2.22 1.497-.44.72-.785 1.39-1.729 1.31-2.034-.175-4.187-.56-6.168-.98-3.35-.709-7.204-4.746-10.714-2.062-1.355 1.03-1.276 2.778-.691 4.215.359.9-.266 1.734 0 2.624.28.938 1.09 1.02 1.715 1.627 1.21 1.191 9.132 5.6 5.809 7.046-.837.368-2.06 1.748-2.738 2.415-.918.915-2.66 1.067-3.164 2.422-.718 1.973-1.41 4.232-3.058 5.66-1.342 1.158-3.695 1.676-5.29 2.64-1.808 1.094-5.091.78-7.152.877-2.658.133-4.931-.46-7.577-.04-5.516.88-10.209 1.46-15.3 4.054-2.073 1.051-4.187 2.072-5.995 3.542-1.635 1.332-1.343 1.547-3.27 1.37-1.183-.106-2.46 0-3.43-.786-1.887-1.536-2.047-1.589-4.705-1.306-4.852.513-9.65-1.994-14.357-2.844-2.206-.398-4.6-.811-6.633-1.786-2.22-1.062-3.589-3.228-6.141-3.692-2.247-.408-4.533-.054-6.793-.521-1.967-.402-3.961-.721-5.942-1.03-2.313-.36-3.961.932-6.221 1.173-2.938.31-6.101-.513-9.052-.609-4.972-.16-9.864-2.164-14.835-1.625-1.41.151-3.869.887-5.251.283-.638-.286-1.024-1.046-1.316-1.635-.479-.967-1.821-1.558-2.698-2.06-3.855-2.187-5.623-6.365-8.814-9.225-1.223-1.098-3.163-1.302-3.376-3.231-.2-1.897-4.24-1.048-5.995-1.864-2.02-.942-4.161-1.938-6.049-3.137-1.701-1.083-3.655-.985-5.303-2.294-3.776-2.986-8.893-1.717-13.293-2.157-3.643-.365-7.378-1-10.98-1.498-3.164-.437-7.338-2.612-7.763-6.22-.2-1.714 2.007-3.361.784-4.826-1.555-1.857-.745-4.231-2.114-5.937-1.768-2.18-3.203-3.845-5.556-5.41-2.154-1.437-2.778-3.402-4.413-5.239-1.09-1.217-3.124-1.936-4.467-3.004-1.236-.997-.412.346-1.489.368-.864.014-1.688-.686-2.366-1.128-1.794-1.171-1.994-.798-3.921-.67-2.446.16-4.919-1.565-6.753-2.972-1.422-1.085-2.871-2.34-4.666-2.772-1.701-.412-2.526-.318-2.459-1.95 0-1.19-2.898-1.385-3.403-2.518-.186-.388.399-.401.532-.64C1.792 34.7.33 33.529.064 33.019" fill="#cbe6a3" fill-rule="evenodd" stroke="#000" stroke-width=".144"><title>Mongolia</title></path></svg>