<svg xmlns="http://www.w3.org/2000/svg" width="335.15" height="811.029" viewBox="0 0 88.675041 214.58473"><g class="landxx coastxx mm" transform="matrix(1.3293 0 0 1.3293 -2608.832 -681.173)" fill="#cbe6a3" fill-rule="evenodd" stroke="#000" stroke-width=".109"><title>Myanmar</title><path d="M1967.96 582.69c0 .371.11.636.5.792-.17-.264-.33-.529-.5-.792M1969.54 586.51c.33.479.62.983.87 1.512-.21-.819-.56-1.62-1.16-2.231.1.239.19.479.29.719M1973.22 586.94c-.25.578.49 1.23.86 1.513 0-.616-.38-1.153-.86-1.513M1976.02 596.16c-.4.02-.75.141-1.08.36 2.34 2.691 2.36-.41 1.08-.36M1977.97 591.98c-.42-.847-1.47-.877-2.02-1.584-1.05 1.065 1.05 3.05 2.02 1.584M1986.32 618.98c-.49.531-2.26 2.198-1.23 2.952.74-.779 1.81-1.762 1.23-2.952M1987.98 621.79c-.2.342-.35.237 0 .72v-.72M2007.78 616.75c-.39.172-.51 1.728 0 1.728.98 0 .95-1.607 0-1.728M2014.83 653.18c.21-.224.33-.487.36-.792-.86-.141-.98.123-.36.792M2015.77 658.65c0-.543-.15-1.022-.51-1.439.2.466.37.946.51 1.439M2015.55 654.26h.43c-.18-.292-.4-.557-.65-.792.1.264.15.528.22.792M2016.56 647.28c.45-.575.2-1.168-.43-1.439.14.481.28.96.43 1.439M2018.14 666.79c-.1-.843-.51-1.613-1.22-2.088-.19.214-.33.454-.43.72.98-.477 1.35.714 1.65 1.368M2016.78 660.45c1.21-.08 1.09-2.277.57-2.952-.25.971-.44 1.96-.57 2.952M2017.28 652.53c.37.525 2-2.688-.29-2.232.14.737.44 1.466.29 2.232M2017.64 673.05c0 .24.1.479.14.72.45-.286.66-.694.65-1.224-.28.142-.54.31-.79.504M2018.58 659.09c.17.416.48.632.93.647.36-2.339-2.25-2.784-.93-.647M2018.5 655.7c.19.334.39.67.58 1.008.28-.168.52-.385.72-.648a3.292 3.292 0 0 1-1.44-1.08c0 .24.1.48.14.72M2018.43 652.1c.14-.386.39-.243.1-.792 0 .263-.1.528-.1.792"/><path class="landxx mm" d="M1962.63 576.21c.1-.554-.22-2.045.59-2.137 1.02-.114 1.55.897 2.87 1.201-.77-1.854-1.04-3.857-1.39-5.814 0-.02.88-.756.67-1.602.73.262 1.14 1.815 2.04 1.53.65-.204.36-1.48.48-1.963 1.51.881.86-1.338.59-1.999-.78-1.86-.63-3.305-.88-5.273 1.48 1.103 1.54-1.167 1.51-2.103-.1-2.307-.5-4.292-1.29-6.465.34-.02.65.08.92.299.68.458.64.123 1.45-.02.82-.146 3.25.876 3.89 1.38 0-3.304 4.52-9.193 1.96-11.766-1.36-1.365 1.52-3.268 1.83-4.632.36-1.589.84-2.508 0-3.915-.65-1.158-.85-3.383.41-4.24.39-.267 1.58.09 1.65-.606.1-.646 1.36-1.075 1.85-1.549.63-.6.98-1.21 1.4-1.961.71-1.277 2.57-1.091 3.81-1.283.6-.09 1.33-.511 1.86 0 .71.681 1.44 2.271 2.75 1.733-.2-1.106-1.29-1.641-1.96-2.429-1.22-1.441-.4-2.551.69-3.648 1.58-1.574.75-1.325.75-3.026 0-.603.48-.452.43-1.01-.1-.693.57-1.657.59-2.342 1.34 1.496 4.05 1.738 5.14 3.649.39.693.27 1.548.62 2.255.47.958 1.18 1.778 1.66 2.736.56-.199.86-.649.57-1.225 2.98 1.388 3.24 4.425 4.05 7.379.4 1.457.53 2.661.58 4.233 0 .624.71 2.688-.88 2.068.38.6 2.7 2.98.32 2.342-.37-.1-1.06 1.132-1 1.427.2.94-1.06.731-1.55.696-.15.529-.27 4.479-1.95 2.952.1 1.332-.63 2.328.15 3.6-1.34.105-1.2.939-1.15 1.991.1 1.09.88 1.193 1.26 2.037.17.368.72 1.523.56 1.937-.29.72-1.42 1.657-.5 2.382.43.338 2.89-1.609 3.31-1.844 1.81-1.02 3.98.619 5.73-.67.28 1.125-1.19 1.568-.82 2.686.21.634.73.95 1.16 1.418.55.591-.21 1.243.16 1.578 1.26 1.132.9 2.72 2.01 3.217 1.51.677 2.91-.72 4.01 1.901-1.66-.124-.98 2.453-.85 3.465.15 1.103-1.71 3.847 0 3.652.96-.111 4.04-.541 5.17.484 1.2 1.093-.57 3.095 1.85 3.127-.33.502-.1 1.426.27 1.853.56.693 1.09-.815 1.87-.313 1.6 1.036 3.7-1.498 4.92-2.403.1 1.255 1.04 1.957-.12 3.002-.54.482-1.75.848-2.07 1.403-.24.436-1.81 4.102-.33 3.227-.12 1.069-1.82.53-2.45 1.008-1.1.834-.73 2.505-1.01 3.672-.65-1.434-2.62.2-4.39.288.47.606.96 1.228.17 1.581-.78.35-1.82.21-2.54.269-.9.07-.37 1.696-.54 2.286-.18.661-.81.762-1.29.441-.46-.315-1.49.749-2.44.905-.33.05-3.26-.592-3.25-.6.3-.316-1.72 2.026-1.58 3.139.1.572.38 1.008.48 1.542.12.726-.71 1.848-.55 2.551.22.933 1.2 1.947.55 2.914-.58.873-2.51.994-3.05-.05.3 1.065.95 3.031 2.45 2.592-.13.679.35 1.228.71 1.736.57.8.29 1.644.55 2.44.48 1.487 2.53 3.114 3.45 4.237 1.11 1.343 2.59 1.77 3.43 3.827.68 1.672.86 3.537 2.08 5.04.4-.441.69-.945.87-1.513.91.749.75 2.285-.1 2.952-.82.669-1.84-.06-1.44 1.848.2.97.65 2.836.53 3.913-.1.852-1.59.72-1.33 1.728-.7-.629-1.12-.115-1.27.652-.22 1.099.35 2.501.89 3.426 1.47 2.504 3.98 4.301 5.58 6.316 1.71 2.156 2.65 4.383 2.32 6.872-.15 1.146-.37 1.171.18 2.467.52 1.229.68 1.822 1.44 2.9.75 1.072 1.23 1.954 1.37 3.094.14 1.213 1.25 3.282 1.56 3.971.54 1.206-.99 3.385-1.93 4.832-.82 1.262-1.76 2.482-3.02 4.691-.58 1.024.1 1.603-.35 2.487-.65 1.299-.72 2.645-1.49 3.94-.86-1.354-.74-3.344-1.09-4.863-.15-.621-.48-1.156.13-1.538.75-.465.18-.744.54-1.322.78-1.245.95-2.736.65-4.197-.14-.692-.57-2.989.69-2.985-.2-.333-.3-.693-.29-1.08-.35.483-.86.859-1.44 1.008-.18-1.028 1.23-1.588-.22-1.439 1.66-.794-.78-2.05.58-2.809-.6.158-1.1-.151-1.3-.72.39-.06.75-.203 1.08-.433-.66-.352-1.11-1.133-.1-1.367-.89-.295-.36-1.159-.49-1.959-.22-1.33-.73-2.728-1.24-3.973-.54-1.309-1.33-2.562-1.97-3.831-.6-1.209-.66-2.669-1.48-3.773.38 1.029.85 3.382.1 4.319.27-.853-.46-1.616-.53-2.437-.1-.774-.1-2.042-.27-2.747-.17-.669-2.92-5.397-1.22-4.464-.1-.286-.19-.55-.36-.792l-.72.432c-1.24-3.095-.97-6.559-2.1-9.643-.22-.597-.75-.921-1.02-1.473-.23-.492 0-1.071 0-1.587 0-.944-.72-2.788.52-3.28-.8.127-2.19.678-2.79-.1-1.08-1.417-1.94-2.975-2.04-4.797-.71.474-.57-.565-1.18-1.121-.52-.479-1.19-.894-1.41-1.615-.15.183.11 1.736.11 2.09 0 1.219.72 2.466.1 3.741-.47.924-1.07 2.206-2.26 2.304-1.23.102-2.63-1.555-1.73-2.664-1.42.357-.19 1.404.19 2.279.52 1.211-.75 2.596-1.85 1.465 1.17.826-1.16 2.293-2.02 1.439.29 1.104-.58 4.851-2.4 4.164-.93-.354-.1-2.843-.26-3.588 0 .07-.98 3.496-.5 1.224a3.63 3.63 0 0 0-.36 1.944c-.9-.443-1.15-2.403-.44-2.952-1.06-.695-.64 4.324-2.08 3.074-.68-.595-.1-3.847.5-4.154-1.05.413-1.34 2.563-1.87 3.528a2.615 2.615 0 0 1-.79-.72c.88-.369 1-1.279 1.22-2.088-.41.707-.58 1.765-1.58 1.871 1.08-1.461.59-3.298.79-4.968-.14.01-.29.01-.43 0 .56 1.202-1.07 3.892-2.19 4.342-1.62.651-.31-6.197-.1-6.956.21-.762 0-3.011.4-3.411 1.07-1.014-.1-3.866-.6-4.984-.65-1.438-.43-3.623-1.5-4.802-.45-.5-.71-1.151-1.01-1.748-.43-.895-1.62-1.423-.4-1.665-.85-.587-1.87-.785-1.87-2.027 0-.925 0-2.412-.44-3.229.12.673.42 2.223-.79 1.367.56.682 1 2.039.58 2.881-1.74-.709-2.81-2.511-3.83-3.989-.28-.404.6-.815.9-.266.23.413.82.557 1.23.677.94.271 2.14-.227 1.27-1.369-.48-.645-2.67-1.477-1.37-2.397a7.97 7.97 0 0 1-1.73-.216c.18-.489.25-.993.21-1.512-.66.323-1.57-.455-1.94-.916-.68-.861-1.27-.255-2.23-.668.33.769.76 1.5 1.01 2.304-.31-.495-.6-.999-.87-1.512-.13.525 0 1.006.29 1.44-.86-1.18-1.32-1.92-.57-3.313-.33.06-.67.09-1.01.07.2-.511.41-1.015.64-1.512a.605.605 0 0 0-.35.216 3.103 3.103 0 0 1 0-1.656c-.5 1.209-.42 2.561-1.01 3.744-.96-.422-.52-.948-.41-1.705.12-.882-.89-1.61-1.32-2.255.13.734.56 1.516.1 2.231-.36-1.333-1.36-2.411-2.5-3.036-1.31-.713-1.54-3.01-2.18-4.521"/></g></svg>