<svg xmlns="http://www.w3.org/2000/svg" width="317.215" height="176.294" viewBox="0 0 83.92968 46.64447"><path class="landxx np" d="M.277 16.875c.518-1.567 1.728-2.36.93-4.022-.491-1.049-.385-1.2 0-2.282.811-2.118.838-1.544 1.702-2.934 1.33-2.108 2.127-6.28 4.48-4.508.412.314 1.036 1.344 1.714.82 1.077-.823 1.183-1.639.997-2.864 1.21.464 1.423-1.247 2.234-.987 1.409.459 2.698.358 4.094 1.476 2.99 2.415 6.008 4.896 8.773 6.346 2.273 1.2 4.094 1.305 5.716 3.185 1.662 1.922 2.699 4.422 4.852 2.62 1.063-.887 2.472-.145 3.51.65 1.249.968 1.422 3.032 2.033 3.525 1.755 1.405 5.145 3.391 6.793 3.385 1.13 0 1.967-1.251 2.658.367.386.877-1.09 1.389.133 2.34.918.724 4.414 1.476 5.464.159.611 1.869 2.738 2.461 3.602 4.13 1.13 2.144 1.037-1.768 1.476-2.12 0 1.173 3.084 3.636 3.948 1.979.319-.617.531-1.551 1.608-1.016.957.472 1.29.274 2.154.832 2.645 1.695 3.163 1.506 5.117 1.62 1.715.107 4.839-.74 6.806-.092 1.396.46 0 5.967.226 7.537.4 2.993 3.15 4.239 2.446 7.606-.571 2.726-2.765 1.418-5.264 1.724-1.967.24-4.719.82-5.078-1.914-1.794.6-2.38 2.19-4.4.978-.97-.58-5.343-2.119-6.38-1.715-2.06.814-1.702-.215-2.805-1.369-1.688-1.761-2.938.868-4.692 0-.878-.436-2.247-2.232-3.922-2.536-2.047-.37-1.808-1.247-2.619-2.88-.824-1.638-9.278-4.088-8.294-1.473-1.104-.487-2.659-1.772-3.948-1.136-1.768.886-2.194 1.085-4.267.167-1.13-.503-2.712-.575-3.244-1.87-.758-1.867-2.207-.494-3.722-1.41-1.409-.855-2.805-2.407-4.134-2.07-1.994.504-3.855-1.331-5.902-2.27-1.768-.818-2.805-2.643-4.506-3.675-1.782-1.087-3.736-1.852-5.504-2.955 0 1.76-1.94.132-2.99-.543-.745-.473-2.62-1.695-1.795-2.809" fill="#cbe6a3" fill-rule="evenodd" stroke="#000" stroke-width=".144"><title>Nepal</title></path></svg>