<svg xmlns="http://www.w3.org/2000/svg" width="174.635" height="228.995" viewBox="0 0 46.205612 60.588333"><path class="landxx kp" d="M.07 32.728c.359-1.291 1.103-2.319 2.126-3.344.678-.687 1.768-.373 1.955-1.233.372-1.773 3.948-1.89 3.948-3.665 0-1.074 1.156-.585 1.794-.758 1.236-.332 1.449-2.252 1.649-3.032.611-2.374-.625-5.265 1.01-6.181.638-.364 1.342-1.485 2.246-1.036 1.276.64 2.194 1.768 3.443 2.465 2.207 1.234 4.466 1.632 6.912 1.841 1.356.12 4.134.3 3.15-1.902-.425-.956-1.66-1.105-2.392-1.723-.984-.837-1.715-1.93-2.486-2.964 2.14-.548 4.586-.347 6.793-.55 2.898-.268 1.33-2.105 1.914-3.568.505-1.266 2.3-.426 3.23-.845C36.718 5.63 34.42 1.04 34.14.091c2.048-.12 3.762.314 4.746 2.08 1.396 2.535 5.37 3.216 7.218 5.575-.864.644-1.595-.31-2.499-.145-.545.093-.89 1.614-1.05 2.023-.625 1.576-2.18 4.26-1.742 6.018.306 1.236 6.753 7.472 3.895 8.883-.944.467-2.113.858-2.618 1.884-.32.657.279 1.553-.266 2.09-.811.783-1.675.823-2.287 1.905-.478.85-.797 1.861-1.542 2.538-.85.776-2.06.554-3.057.983-.864.369-1.476 1.106-2.14 1.726-.917.843-1.821 1.247-.625 2.22.984.804 1.17 2.396 1.396 3.565-.452-1.546-.997-.7-.89.404.199 2.11 2.485 1.273 3.92 2.163 2.154 1.33 9.332 4.196 8.987 7.255-.519 4.48-8.734.08-10.874 3.559-.77 1.242-.758 4.394-2.233 4.142-.771-.133-5.012-1.538-3.416.757-.878-.535-2.526-.856-3.217-1.467-1.064-.96-2.18-1.727-3.67-1.787a8.401 8.401 0 0 0 1.915 1.147c-.97.093-1.143 1.835-2.393 2.872-.824-1.283.798-.742.665-1.53-.186-1.076-1.595-1.573-1.529-.093-.744-1.62-2.924-.027-3.828-1.628 2.206 0-.585-1.645 1.728-.86-1.21-1.261-3.642-.567-5.171-.862.2-.793.85-1.16 1.622-.86-1.875-1.263-.133-3.248-1.436-4.69 1.41 1.02.745-.863 2.499-.963 1.09-.066 2.5.107 3.443.676-1.17-2.432-5.902.04-5.969-3.44 0-1.37.718-3.376.346-4.656-.385-1.302-1.741-1.159-1.17-2.815-2.406 1.549-5.37-1.343-7.47-2.201.478.692.398 1.33-.2 1.914-.292-1.291-1.449-1.83-2.539-2.305-.624-.267-3.589-2.4-1.382-2.48L.07 32.73" fill="#cbe6a3" fill-rule="evenodd" stroke="#000" stroke-width=".144"><title>Korea, Democratic People&apos;s Republic of</title></path></svg>