<svg xmlns="http://www.w3.org/2000/svg" width="575.26" height="577.804" viewBox="0 0 152.20419 152.87741"><path class="landxx pk" d="M.104 82.573c4.228.95 8.096 3.024 12.23 4.263 4.918 1.475 8.88-.053 13.798-.145 1.741-.04 3.217.671 4.905.918 1.728.254 2.938-.978 4.467-1.532 2.007-.731 3.894.093 5.902 0 1.688-.08 3.283-.952 4.931-1.33 1.901-.44 5.61-.759 6.82-2.548.717-1.067-.997-1.647-.798-2.68.492-2.513-.678-4.54-.439-6.988.253-2.48.731-1.92 2.194-3.388.904-.901 1.13-2.405 2.326-3.028 1.236-.653 1.662.668 2.871.808 2.06.24 3.882-.416 5.676-1.377-.744-.775-2.087-.824-2.392-2.01 1.768-.027 3.602-1.142 4.546-2.588 1.116-1.71 3.881 1.198 3.974-.953 1.316.62 1.861.327 2.672 1.701.678 1.16 1.742.765 2.685.067 2.5-1.881 1.875-5.352.864-7.835-.638-1.594.612-1.843.957-3.214.266-1.072.293-2.7-.132-3.748-.466-1.245.85-1.463 1.728-1.66 1.462-.327 2.233.165 3.562-.903 1.635-1.3 1.582-1.366.917-2.973-.558-1.343-1.342-2.82-2.605-3.617-2.473-1.566-2.858-3.815.611-2.87 2.353.643 8.07 1.406 8.72-1.954.187-.992.173-1.735-.598-2.406-.332-.287-1.82-1.25-1.528-1.843.252-.261.571-.37.957-.327-.439-.951.332-1.683.864-2.348.478-.615 2.193-2.018 2.193-2.772 0-.715.24-1.35.691-1.905.346-.49-.864-.988-1.023-1.301-.133-.349 0-.606.279-.773.532-.563-.385-1.705-.532-2.234-.212-.705-1.422-2.377-1.9-2.984-.705-.874-1.835-1.461-2.672-2.186-1.144-.983 2.286-5.192 3.403-4.846 1.515.474 1.635-1.191 2.538-2.105.958-.966 2.207-1.587 3.483-1.992 2.765-.871 5.716-.879 8.587-.99 1.45-.054 3.47-.814 4.813-.143 1.316.658 1.422 1.025 2.632.12 1.661-1.236 5.809-3.296 6.978-.439 1.183-2.123 4.254-.379 5.198 1.062.864 1.332 3.257.605 4.652 1.905.984.923 1.635 1.971 1.981 3.278.24.948.146 2.574.518 3.387.4.888 2.433 2.095 3.204 2.778.97.882 2.286-.594 3.204-.83.172 4.124 9.69 5.503 12.987 4.784-.877.987-6.54 3.646-6.088 4.974.2.603-1.609 2.225-.89 1.638.385-.314-1.038.822-1.45 1.469-.399.648-6.248 1.425-7.271 2.134-2.911 2.018-5.49.431-8.906-.288-2.765-.578-6.168-2.42-8.84-.77-1.821 1.123-3.044 3.656-.745 4.626 2.114.888-.81 2.14.93 2.697.586.184 4.507.014 2.992 1.513-1.383 1.357-3.177 2.32-.598 3.867 2.406 1.449-.652 3.444.585 4.897.73.868 1.967 1.344 2.858 2.013.412.264.717.63.704 1.112 0 1.007.359 1.12 1.808 1.353 2.805.452 1.382 2.954 3.935 3.505 1.449.31 4.16.592 5.197 1.811 1.276 1.5-2.778 2.963-3.589 3.34-2.074.965-4.48 2.875-2.353 4.974 1.555 1.53-.558 5.617 2.14 5.674-.266 1.102-2.14 1.974-3.163 3.204-1.29 1.546-4.24 4.667-2.818 5.838 2.565 2.12-2.234 3.309-3.27 3.825-1.144.573-1.144 2.47-1.317 3.562-.305 1.855-.81 3.763-1.648 5.454-1.25 2.515-3.376 2.853-5.144 4.782-.718.776-1.05 2.156-1.143 3.18-.16 1.81-2.1 2.91-2.739 4.506-1.369 3.39-3.363 2.3-6.593 3.162-1.09.294-2.34 1.424-3.523 1.308-1.422-.138-2.073-1.856-2.778-2.847-1.648-2.324-4.12 1.203-4.772 2.656-1.143 2.576-3.004 4.785-4.041 7.318-1.276 3.118.478 4.862 3.456 5.61 2.778.697 4.147.842 3.882 4.242-.147 1.944-.519 6.292 2.818 6.328.97 0 2.073-.689 2.924.08.85.768.16 2.86.917 3.936 1.542 2.21 3.244 3.864 3.962 6.59.279 1.045.877.733-.147 1.461-.81.581.532 2.516 1.21 2.655-1.808 1.365-3.695 3.074-5.224.518-.705-1.188-1.795-.299-2.685.067-.452.12-.904.276-1.343.448-.718.372-.266 1.273-1.037 1.605-2.579 1.09-5.476-1.394-8.175-1.247-1.449.08-3.363.334-4.706-.332.133 1.06 1.024 4.02-.89 4.02-1.622 0-4.108.04-3.988 2.297-.133-1.308-.266-1.276-.479.093-.638-.556-1.063-1.319-1.528-2.01.345.6.438 1.24.279 1.913a7.04 7.04 0 0 1-1.821-1.627c.438 1.752-.944.764-2.007 1.34v-1.532c-1.157.837-2.646-.743-1.33-1.53-1.555.294-3.762-1.98-2.113-3.254-1.821-1.046-.838-4.06-2.34-4.814-.85-.42-5.118-.604-4.998-1.968.24-2.76-.386-3.574-1.755-5.757-1.01-1.619-4.054-3.285-4.586-.381 1.649-.08 2.739-1.546 3.63.67-1.755-1.133-3.723-.435-5.53.135-1.888.594-3.696-.066-5.477.476-.97.292-7.763.2-6.022 2.068-.784.237-1.303-.137-1.343-.957-2.618 1.356-4.705-2.564-6.128-1.914.226.322.439.64.665.959-1.316.27-6.726-1.468-5.357 1.722-1.37-.7-11.725-1.467-10.82 1.147-.692-.026-1.237-1.04-1.795-1.362-.984-.557-.984.756-1.582 1.106-2.406 1.401-4.16-.19-4.08-2.316.132-2.864-.573-13.22 4.97-11.974-1.621-4.272 8.216-1.958 8.694-4.303.213-1.023.585-4.922.146-5.268-1.036-.832-2.432-.229-3.615-.304-1.702-.107-1.45-2.909-1.489-4.057-.133-2.21-.771-5.052-1.476-7.167-.319-.978-2.033-1.039-2.897-1.573-1.436-.884-2.912-1.419-4.427-2.122-3.363-1.558-4.746-3.836-6.447-6.946C5.568 87.84 2.67 85.215.051 82.58" fill="#cbe6a3" fill-rule="evenodd" stroke="#000" stroke-width=".144"><title>Pakistan</title></path></svg>