<svg xmlns="http://www.w3.org/2000/svg" width="60.966" height="72.555" viewBox="0 0 16.130663 19.196959"><g transform="matrix(1.3293 0 0 1.3293 -2188.58 -709.332)" fill="#cbe6a3" stroke="#000" stroke-width=".109"><title>Qatar</title><path class="landxx qa" d="M1649.79 540.79c0-.39-.61-2.786.5-1.656-.1-.388-.32-2.542.37-.72 0-1.816.7-6.609 3.2-3.966.63.663 1.83 1.128 1.84 2.168 0 .726-.36 1.186-.52 1.849-.15.574.21 1.32.26 1.893.1.573.67.584.83 1.08.26.809.1 1.543-.26 2.29-.57 1.293-.38 2.237-1.8 2.662-1.18.354-2.24 1.291-3.03-.439-.72-1.578-1.02-3.477-1.39-5.161" fill-rule="evenodd"/></g></svg>