<svg xmlns="http://www.w3.org/2000/svg" width="804.399" height="686.153" viewBox="0 0 212.83047 181.54456"><g class="landxx coastxx sa" transform="matrix(1.3293 0 0 1.3293 -2031.978 -640.032)" fill="#cbe6a3" fill-rule="evenodd" stroke="#000" stroke-width=".109"><title>Saudi Arabia</title><path d="M1589.82 616.25c0-.811-.38-1.567-1.08-2.017 0 .265 0 .529-.1.792-.94.04-1.28-.954-2.08-1.224.78 1.298 2.79 1.272 3.24 2.449"/><path class="landxx sa" d="M1594.65 617.58c.1-.908-.46-3.06-1.28-3.58-.41-.265-2.43-4.499-2.31-2.456-.19-3.659-2.72-4.6-4.74-7.077-.77-.938-1.84-2.292-2.2-3.439-.46-1.48-1.3-1.902-2.06-3.105-.44-.706-.1-1.322-.58-2.047-.36-.515-.97-2.154-1.21-2.815-.23-.619-.36-1.273-.65-1.868-.27-.547-.83-.624-1.1-1.105-.25-.462 0-1.092-.36-1.497-.35-.409-.94-.466-1.33-.828-.98-.909-2.11-1.828-2.97-2.841-1.05-1.23-2.27-.715-3.46-1.585-1.95-1.446-3.26-4.131-4.49-6.187-.72-1.197-.51-1.882-.57-3.145-.1-1.368-1.06-2.5-1.16-3.883-.13-1.815.62-3.62.26-5.428-.17-.824-.62-1.521-1.06-2.216-.23-.366-1.64-2.181 0-.94-.35-.912-1.14-.922-1.35-1.921-.18-.893-.62-1.87-.97-2.713-.97-2.335-2.85-3.926-4.62-5.606-1.29-1.224-2.56-1.417-4.14-1.847-.67-.183-.99-1.458-1.18-2.002-.42-1.166-1.24-1.966-1.97-2.938 2.53-.922-1-5.075-1.82-6.08-.56-.675-2.12-1.905-2.05-2.796.11-1.535-1.86-2.422-2.53-3.803-2.02-4.19-5.2-7.671-7.43-11.782-.68-1.252-1.44-3.183-2.94-3.606-.69-.192-3.37-.638-3.42.621-.9-.82.55-2.975.8-3.836.53-1.805.11-3.683.41-5.505.37-2.309 0-.872.33-2.247 1.73.512 6.47 1.785 8.19 1.41 3.41-.745 3.36-5.71 6.57-6.216 1.2-.19 4.15.114 4.02-1.508-.29-3.699 1.32-2.589 3.56-3.344-2.92-2.8-5.71-5.719-8.38-8.754 5.19-1.085 8.64-2.255 14.76-5.525 2.59.498 7.22.78 10.06 2.096 9.55 4.422 17.42 11.182 25.71 17.491 1.76 1.337 3.47 2.664 5.1 4.137 1.87 1.677 3.17 1.593 5.63 1.831 2.83.274 5.82.675 8.66.937 1.04.1 1.56-.434 2.69-.19 1.52.329 3.11.515 4.66.656 1.65.148 1.78 2.064 2.31 3.277.77 1.802 3.4.664 4.89.795 1.54.136 1.74.971 2.25 2.232.54 1.365 3.25 3.104 2.83 4.635a2.89 2.89 0 0 0-.51-.647c-.46 1.097.64.972.51 1.94 0 .01 4.63.442 2.87 1.797.68.214 2.11 3.675 2.8 1.725-.46 1.736 3.71 3.686 4.67 4.741-.51-.154-.9-.466-1.15-.934 0 1.914 1.18 1.942 1.6 3.478.24.9.14 2.799-1.17 1.624.12 1.021-.21 1.224.72 1.412.14.03 1.36 2.665 1.44 2.971-.27-.233-.53-.473-.79-.719.8 1.169 2.22 1.826 2.85 3.12.64 1.308.83 2.508 1.6 3.779.59.978 1.44 2.654 2.67 2.954.55.137 2.58-.393 2.29.71.21-.56.7-.765 1.22-.432-.68.834-1.3 3.108 1.01 2.519-.15.04 1.18 2.637 1.31 2.82 2.66 3.018 6.24 8.327 7.65 8.9 8.77.979 12.82 1.455 17.59 2.516.62-.148 1.16-.522 1.36-.924 1.07 2.46 3.48 3.747 3.89 5.344.37 1.443.26 2.401-.11 3.885-1.27 4.968-1.97 13.916-3.8 14.905-12.5 6.732-28.13 9.087-42.98 11.547a33.185 33.185 0 0 0-5.54 2.57c-2.64 1.53-5.21 6.125-6.07 8.868-.4 1.268-1.89 2.656-3.28 2.662-1.46 0-1.73-2.364-2.92-2.764-1.35-.455-2.34.235-3.51.09-1.8-.221-4.22.06-5.84-.772-1.95-1.003-3.38-.543-5.54-.539-1.89 0-3.89 1.162-5.77 1.138-2.34-.03-2.68-1.809-3.9-1.489-1.63.429-2.06 2.569-2.15 3.922-.1 1.335 1.58 2.112.16 3.076-.27.185-.55 2.077-2.59 2.75 0-.18.11-.228.1-.403"/><path d="M1587.37 612.43c.53.132.65.3.36.504l-.36-.504"/><path d="M1587.73 612.93c.22.31.26.646.14 1.008-.27-.07-.5-.193-.72-.359.19-.217.39-.433.58-.649M1638.99 523.29c.35-.539.91-.395 1.3 0-.43.08-.87.08-1.3 0"/></g></svg>