<svg xmlns="http://www.w3.org/2000/svg" width="88.179" height="170.095" viewBox="0 0 23.330702 45.004311"><g class="landxx coastxx lk" transform="matrix(1.3293 0 0 1.3293 -2496.002 -896.73)" fill="#cbe6a3" fill-rule="evenodd" stroke="#000" stroke-width=".109"><title>Sri Lanka</title><path d="M1877.74 680.83c.22.51 1.04.828 1.44 1.151-.16-.684-.72-1.183-1.44-1.151"/><path d="M1878.82 693.79c0 3.21 1.21 16.343 7.12 14.41 2.69-.88 6.69-2.723 8.12-5.29 1.17-2.117 1.7-5.852.24-7.969 0 .377-1.33-2.188-1.65-2.52 1.86 1.327-.43-1.459-.7-1.906-.87-1.416-.89-3.043-1.61-4.502-.55.464-1.15.303-1.51-.288 1.78.141-2.25-4.864-2.46-5.573-.24-.764-4.76-5.995-5.6-5.227.93.219 1.45 1.111 2.09 1.728-.98-.57-2.78-3.051-3.96-1.512.54.812 1.54.888 2.23 1.512.12-.886 2.47.541 2.95 1.225-.43-.328-2.81-.885-3.46-.864.49.673 0 .693-.32 1.161-.48.646.55 1.699-.1 2.742-1.48 2.429-1.21 6.716-1.32 9.561-1.15-.336-.62-1.835-.65-2.664-1.12 1.733.39 4.174.57 5.976"/><path d="M1878.75 675.72c.13.483.1.689.72.576l-.72-.576"/></g></svg>