<?xml version="1.0" encoding="UTF-8" standalone="no"?>
<!-- Created with Inkscape (http://www.inkscape.org/) -->

<svg
   xmlns:dc="http://purl.org/dc/elements/1.1/"
   xmlns:cc="http://creativecommons.org/ns#"
   xmlns:rdf="http://www.w3.org/1999/02/22-rdf-syntax-ns#"
   xmlns:svg="http://www.w3.org/2000/svg"
   xmlns="http://www.w3.org/2000/svg"
   xmlns:sodipodi="http://sodipodi.sourceforge.net/DTD/sodipodi-0.dtd"
   xmlns:inkscape="http://www.inkscape.org/namespaces/inkscape"
   width="78.339569mm"
   height="49.895069mm"
   viewBox="0 0 78.339569 49.895069"
   version="1.1"
   id="svg36450"
   inkscape:version="0.92.0 r15299"
   sodipodi:docname="tajikistan.svg">
  <defs
     id="defs36444" />
  <sodipodi:namedview
     id="base"
     pagecolor="#ffffff"
     bordercolor="#666666"
     borderopacity="1.0"
     inkscape:pageopacity="0.0"
     inkscape:pageshadow="2"
     inkscape:zoom="0.35"
     inkscape:cx="148.04328"
     inkscape:cy="94.290084"
     inkscape:document-units="mm"
     inkscape:current-layer="layer1"
     showgrid="false"
     fit-margin-top="0"
     fit-margin-left="0"
     fit-margin-right="0"
     fit-margin-bottom="0"
     inkscape:window-width="1920"
     inkscape:window-height="1017"
     inkscape:window-x="1912"
     inkscape:window-y="-8"
     inkscape:window-maximized="1" />
  <metadata
     id="metadata36447">
    <rdf:RDF>
      <cc:Work
         rdf:about="">
        <dc:format>image/svg+xml</dc:format>
        <dc:type
           rdf:resource="http://purl.org/dc/dcmitype/StillImage" />
        <dc:title></dc:title>
      </cc:Work>
    </rdf:RDF>
  </metadata>
  <g
     inkscape:label="Layer 1"
     inkscape:groupmode="layer"
     id="layer1"
     transform="translate(56.178713,-123.88585)">
    <path
       inkscape:connector-curvature="0"
       id="tj"
       class="landxx tj"
       d="m -56.061723,144.00245 c 0.784275,-1.49546 0,-4.00117 2.778225,-3.82838 2.087003,0.13295 3.974584,0.87468 6.247694,0.79229 1.568551,-0.0532 2.033819,-1.29609 1.728079,-2.5948 -0.132948,-0.48917 -0.186108,-1.02887 0.425374,-1.1977 1.448917,-0.3948 -0.132948,-1.76529 1.462207,-0.35091 -0.651352,-0.44001 -1.129886,-1.12857 -1.24952,-1.91287 0.451955,0 0.903909,0.0266 1.342574,0.0931 -0.664642,-1.4117 -2.40601,0.10634 -3.456157,-1.02488 1.767948,-1.861 4.466433,0.26585 6.500253,-0.57427 -0.957093,-0.75901 0,-1.2668 -0.677956,-2.35416 -0.584878,-0.9385 -1.541971,-3.35514 -0.132924,-4.00915 1.555285,-0.68591 2.804804,1.31466 3.974584,0.9983 1.874316,-0.50913 4.213876,-2.35285 5.117785,-4.04371 1.063436,0.82283 1.781262,2.0245 2.818117,2.87924 1.302706,1.07407 0.744408,1.73606 -0.63806,2.75829 -1.874316,1.39042 -1.316018,1.07407 0.212687,2.1149 0.664641,0.45594 1.090017,1.51407 1.927476,1.72277 0.957091,0.24192 1.967344,-0.26984 2.911147,-0.31105 -0.837459,0.8986 -2.751645,3.28998 -3.974584,3.37374 1.369153,-1.21233 -3.642263,-3.06135 -4.785464,-3.1584 -2.738354,-0.23396 -4.346799,1.10465 -4.493012,3.44552 -2.047109,-2.1654 -1.010277,3.06269 -0.412085,3.93471 0.797565,1.18707 2.605407,-0.093 3.57579,-0.17678 1.754682,-0.15819 3.044095,0.69387 4.878517,-0.40809 0,0.35225 0,0.70186 0.132924,1.0528 0.903932,-0.34695 2.00724,-0.80954 3.0042,-0.52773 1.116621,0.31903 1.355889,1.52868 2.312982,1.98728 1.409047,0.67263 4.253746,-1.41039 5.463395,-2.1056 1.369176,-0.78162 1.010277,0.7032 1.635048,1.1073 0.571587,0.15553 1.156467,0.25655 1.754659,0.3044 0.252558,0.34963 0.438663,0.73246 0.571587,1.14719 1.834422,1.34525 3.363127,-0.36024 5.2640231,1.91419 0.358899,-3.40034 5.995114,-2.07637 8.161856,-2.10161 1.12988497,-0.0134 3.416287,-1.78126 4.280326,-0.87735 0.358899,0.76037 0.132921,1.93811 0.704535,2.79154 0.784275,1.15515 2.180032,2.0152 2.552224,2.96299 -2.140164,0.0134 0,3.02148 0.598191,3.67948 0.744405,0.95045 1.44894,0.83213 2.658592,0.18742 2.1002909,-1.12324 2.5655369,-0.56759 3.4029959,-0.37618 2.645275,0.59286 4.944968,0.93582 4.506302,4.41724 0,0.48786 0.172794,1.66827 1.143201,2.46452 1.076727,0.89194 1.355862,2.37279 1.58184,2.86062 0.412084,0.88799 -0.225978,1.67891 0.239292,2.25184 0.691221,0.82682 1.48881,0.78827 1.954054,1.85968 0.385482,0.86935 0,1.99792 -0.983673,2.34753 -0.172816,0.10634 -1.342597,-1.11926 -1.914184,-1.27613 -0.770985,-0.21534 -3.602395,-1.21763 -4.38667,-0.6487 -1.608444,1.16978 -4.187272,2.41268 -5.7425559,1.75734 2.4857729,-2.77557 -3.82837,-2.88722 -5.303893,-1.68553 -1.355863,1.09267 -2.4193,1.90221 -3.15041503,3.60502 -0.770986,1.81183 -3.40299697,0.57826 -4.69240997,1.86901 -7.8827181,7.84682 -8.4675981,-4.28432 -8.2283301,-9.61878 0.159528,-3.5984 -1.794552,-0.66199 -3.216888,-1.96204 -0.571588,-0.51843 -0.132924,-2.5642 -0.292452,-3.30461 -0.31903,-1.20169 -2.711749,-2.5948 -3.602392,-2.57221 -3.961297,0.10634 -4.320196,3.95864 -5.902061,5.6987 -0.890619,0.96108 0.651351,1.88227 1.010277,2.59476 0.930487,1.8411 -0.903933,2.36349 -2.578827,1.8557 -1.621759,-0.49316 -3.363127,-0.53568 -4.29364,0.21138 -1.422337,1.15115 -0.132924,1.95006 -0.132924,3.03343 0.146238,4.01847 -3.270049,1.04219 -3.628973,0.18744 -0.186108,-0.46259 -1.063437,-1.11661 -1.262834,-0.74973 -0.970383,1.86102 -1.462207,0.50248 -1.754658,0.68326 -0.518428,0.32037 -1.16978,0.76434 -1.528681,0.94246 -0.797589,0.39082 -2.233216,0.52907 -2.29969,1.98597 -1.23623,-0.28578 -1.568551,1.09934 -2.804804,0.24725 -1.940766,-1.34525 -3.137125,-5.03802 -1.821132,-7.31775 1.674918,-2.89121 4.532882,-5.59634 0.983672,-8.1047 -2.764934,-1.95009 -0.199397,-7.47198 -3.987874,-7.5504 -1.090016,-0.0266 -2.512378,0.20339 -3.030806,-0.99032 -0.704511,-1.60713 -2.645276,-0.77763 -3.509315,-2.40735"
       style="fill:#cbe6a3;fill-opacity:1;fill-rule:evenodd;stroke:#000000;stroke-width:0.14449541;stroke-miterlimit:4;stroke-dasharray:none;stroke-opacity:1">
      <title
         id="title1774">Tajikistan</title>
    </path>
  </g>
</svg>
