<svg xmlns="http://www.w3.org/2000/svg" width="331.123" height="641.944" viewBox="0 0 87.609734 169.84763"><g class="landxx coastxx th" transform="matrix(1.3293 0 0 1.3293 -2664.36 -774.738)" fill="#cbe6a3" fill-rule="evenodd" stroke="#000" stroke-width=".109"><title>Thailand</title><path d="M2019.66 688.75c-.37 1.208-.16 2.515.28 3.672 1.07-.862.95-2.997-.28-3.672M2021.45 689.4c.22.503.47.99.65 1.512 0-.615-.18-1.119-.65-1.512M2026.06 695.01c-.1-.578-.32-1.082-.72-1.512.1.589.3 1.093.72 1.512M2030.67 701.57c-.51.51-.56 1.265.29 1.44-.1-.481-.19-.961-.29-1.44M2031.9 676.73c-.5.453-.48.885.1 1.296.48-.448.46-.88-.1-1.296M2031.75 674.85c-.22.513.19.726.65.72-.2-.259-.41-.499-.65-.72M2047.74 655.7c.24.02.47.05.71.07 0-.583-.36-1.047-.86-1.296 0 .415.1.823.15 1.225M2049.97 657.86c-.23.561-.11 1.041.36 1.44.14-.545 0-1.025-.36-1.44"/><path class="landxx th" d="M2004.39 598.75c.44.857 2.3.823 2.91.195.73-.756-.72-2.807-.53-3.796.1-.551.54-.931.57-1.512 0-.9-.69-1.483-.45-2.442.16-.611 1.27-2.68 1.69-2.604 1.22.226 2.41.754 3.66.48.6-.129 1.17-.808 1.76-.795.6.01.84.599 1.34-.178.5-.765-.43-2.221.75-2.524.85-.217 4.07.439 2.34-1.801 1.23-.06 4.55-2.249 4.54.433.68-.188.89-1.157 1.68-.92.36.105 1.55 1.696 1.84 2.021.69.792-.29 1.98-.49 2.773-.29 1.118.39 1.848 1.2 2.511.28.231 1.14 0 1.45.138.69.321.47-.472.9-.594.38-.104.3-.02.65-.122.36-.106.87-.197 1.21-.15 1.53.216 1.29 2.702 2.22 5.005.3.742-.5 1.637-.27 2.419.46 1.549-.34 1.29-.71 2.315-.15.426.5 1.338.59 1.923.14.974.39 1.516.1 2.455-.82 2.418-1.25 4.367.96 4.25.11 0 3.44-3.061 3.96-4.945 1.22.731 1.31-1.256 2.25-1.274.65-.01 1.51 1.247 2.1 1.54.46.23 1.53.311 1.81.784.89 1.494 1.94-.698 3.06-.474.61.121.83-2.312 1.8-2.448-1.68-1.856 3.47-.828 4.02-.673 3.14.872 4.25 5.244 7.16 6.768 2.4 1.26.98 5.943 1.69 8.092.46 1.384.71 1.887 1.66 2.783 1.63 1.555 2.51 1.957 4.26 2.758-1.62 1.109.77 1.904 1.53 2.453 1.78 1.281-1.71 3.79.34 3.307-.31.713-1.03 1.405-.54 2.214.28.458.85.663.79 1.287-.17 1.717.51 3.413-1.2 4.477-1.15.71-1.77 2.196-2.65.597-.92-1.646-3.52-.02-4.87-.422-.93-.28-1.83.06-2.75.187-.99.138-1.45-.471-2.32-.542-1.2-.1-2.53.449-3.63.882-1.74.684-2.14 2.602-2.67 4.161-.24.681-.99 1.368-1.64 1.97-.44.41-1.15.442-1.56.526.6 1.432-.1 2.456 1.33 4.544.73 1.103.93 2.45 1.88 3.57.92 1.087 1.24 2.107 1.18 3.53-.1 2.267 1.62 3.241 1.44 4.989 0-.881-.75-1.361-1.14-2.065-.59-1.063-.51-2.399-1.95-2.832 0 .432.1.863.1 1.296-.4-.955-3.62-1.404-1.73-2.664-.52.311-.89-.02-1.08-.504 0 1.551-1.84-.848-2.16-1.584 0 1.364-1.03-1.4-2.31-.813-.63.286-1.26.817-2.01.668-.91-.183-1.97-.686-2.92-.452-1.85.458-.81-1.462-.94-2.603-.1-.668-.1-1.345-.18-2.011-.13-.921.55-1.639.37-2.494-.78.628-2.88.05-3.17-.936.34 1.974-5.65.23-3.94 3.297.86 1.529.31 2.501 0 4.099-.32 1.696.94 3.281.62 4.988-.12.677-.63 1.188-.97 1.758-.41.698-.15 1.543-.63 2.231-.9 1.298-1.04 3.293-1.37 4.807-.4 1.846-.67 3.178-1.44 4.873-.28.605.3 2.268-.85 2.099 1.31 1.574-.1 4.487.75 6.39.39.905.97 1.508.52 2.428-.51 1.042 1.38 1.274 1.93.985 1.92-1.018 3.1-1.039 3.39 1.574.1.862 1.31 7.038 2.56 5.04.77 1.756.89 3.708 1.47 5.521.52 1.621 1.32 3.332 1.34 5.063-1.19-.218-1.43-5.458-2.72-4.553-.93.651.46 2.702.82 3.226.44.623.95 1.103 1.5 1.61.46.423 1.14.262 1.59.684 1.04.98 1.24 2.003 2.97 2.053 1.26.04 2.67-.466 3.79.385 1.22.936 1.48 2.647 2.67 3.639 1.25 1.049 2.06 1.554 1.43 3.216-.29.762-.79 2.31-1.74 2.511-.73.155-.87-1.037-1.43-1.257-1.46-.578-2.27 1.999-3.2 1.994-1.8 0-1.42-1.766-.79-2.755.69-1.074-.54-2.057-1.33-2.251-1.12-.275-.61-1.883-2.04-2.075-1.31-.176-2.08-.231-2.92-1.333-1.18-1.545-.76 1.124-1.27 1.819-.11-2.04-5.2-3.954-3.17-6.12-1.71 1.03-1.03-1.643-1.87-2.159.1 1.049-.79.826-1.18.187-.49-.825-.38-2.077-1.09-2.764-.48-.455-1.42.138-1.51-.609-.1-.679.1-.929-.35-1.496-.6-.854-.53-.789-1.43-.96-.56-.106-.45-1.027-.63-1.414-.28-.627-.61-1.593-1.51-1.368-.96.24-.56 1.117-.87 1.801-2.41-.496-1.92-4.098-1.65-5.836.55-3.5 1.3-7.056 2.04-10.523.28-1.346 1.39-3.134 1.38-4.458 0-1.556.58-1.645 1.18-3.031.75-1.745 5.33-6.426 3.78-8.347-.67-.818-1.22-3.044-1.46-4.047-.36-1.528-.92-2.047-1.68-3.339-.43-.744-1.41-2.831-1.26-3.643.35-1.962.27-3.39-.53-5.277-1.31-3.071-4.34-4.927-6.31-7.553-.86-1.151-1.7-2.284-1.88-3.771-.11-.836.14-2.758 1.35-1.664-.26-1.018.94-.8 1.19-1.514.35-1.013-.29-3.383-.45-4.471-.26-1.798 1.15-.878 1.78-1.885.41-.646.43-2.043-.21-2.571a4.06 4.06 0 0 1-.87 1.513c-1.21-1.503-1.56-3.26-2.08-5.04-.33-1.133-2-2.254-2.79-3.136-1.22-1.358-2.83-2.797-3.86-4.278-.57-.82-.3-1.593-.57-2.479-.25-.799-1.09-1.433-.92-2.347-1.49.437-2.14-1.528-2.45-2.594"/></g></svg>