<svg xmlns="http://www.w3.org/2000/svg" width="331.172" height="644.915" viewBox="0 0 87.622482 170.63377"><g class="landxx coastxx vn" transform="matrix(1.3293 0 0 1.3293 -2705.96 -740.634)" fill="#cbe6a3" fill-rule="evenodd" stroke="#000" stroke-width=".109"><title>Viet Nam</title><path d="M2078.19 675.21c.24.767.69 1.553 1.51 1.8-.58-.527-1.11-1.123-1.51-1.8M2082.8 667.29c.17.788-.38 1.58.43 2.16.36-.76.11-1.568-.43-2.16M2084.02 668.59c-.1.238-.1.478 0 .72v-.72M2100.66 650.23c.12.339.35.555.71.648-.24-.216-.47-.432-.71-.648"/><path class="landxx vn" d="M2035.64 565.77c1.19-.05 1.29-2.197 2.04-2.783 1.23-.969 2.61.811 3.24 1.445 1.13 1.133 1.82.264 2.51-.93.96-1.642 1.55-.165 2.29.684.27-.635.26-2.187 1.25-1.194.62.613 1.18 1.368 1.93 1.835.46.292.78-2.749 2.08-2.801-.37 2.019 3.41.224 3.95-.453.58-.724-.16-1.256.1-1.91.28-.862 2.59-1.125 3.11-2.388 1.06 1.475 2.41 2.638 4.04 3.425 1.28.617 2.46-.563 3.38.567.93 1.134 2.37-.626 3.49.502.58.573 1.27 2.896-.32 2.346 0 1.967 1.03 3.412 1.65 5.327.57-.489 2.67.176 2.67 1.008 0 1.247 2.4.968 2.73 2.161l.72-.433c.39 1.019.98.336 1.83.114 1.28-.333 4.82.849 3.62 1.517-.86.757-1.9-.875-2.79-.14-.8.666-1.05 1.615-2.14 1.783-1.15.18-.24 1.235-.67 2-.41.745-2.75 1.466-1.57.126-.76-.183-1.76.964-1.8 1.368-.64-.355-.89-1.538-1.8-1.225.28.308.61.547 1 .72-.64.744-.16 1.112.32 1.902.4.658-1.05.639-1.32.474.32.681.51 2.588-.22 3.097.1.03.19.03.29 0-.1.545-2.33 2.995-2.81 2.376-1.22.605-1.61 2.421-1.72 3.629-.16 1.667.54 2.796-.32 4.364-.98 1.778.92 2.184 1.03 3.814.42-1.125.68.571 1.15 1.184.62.824 1.35 1.463 2.2 2.053.8.562 1.61 1.146 2.33 1.817 1.04.964.58 2.001.94 3.227a2.724 2.724 0 0 0-1.51-.576c1.79.305 2.64 2.548 4.05 3.674 1.02.822 4.28 2.423 3.44 4.174 1.1-.635 2.85 1.567 3.46 2.232-.31-.14-.62-.26-.94-.36 1.34.838 2.57 1.759 3.46 3.097 1.19-1.436 3.61 1.785 2.95 2.52.63-.444-.35-1.832.94-1.152-1.93 1.663 3.99 5.51 4.1 6.984.49-1.251.71-.207 1.11.368.61.899-.33.53-.17 1.216.29 1.276 1.32 2.412 1.83 3.603.69 1.614 1.04 3.365 1.77 4.987.29.653.61 1.313.77 2.017.1.344.11 2.158-.34.409 0 .975 1.12 3.806 0 2.089.25.579.61 1.083 1.08 1.512-1.34.184-.27.854 0 1.614.3 1.1.65 1.843 1.24 2.82.23.398.25 2.376.16 2.981-.4-.409-.69-.889-.85-1.44-1.36.797-.1 2.447.35 3.385a5.109 5.109 0 0 0-1.43-.576c.64.585 1.29 3.662.93 4.535 0-.521-.14-1-.43-1.439.46.716.1 1.457-.14 2.16.81-.02.85.57.64 1.186-.23.657-1.19.971-1.25 1.19-.38 1.351.15 1.39-1.32 2.145-.42.355-.86.677-1.32.965-.64.262-.84 1.19-1.33 1.338-.81.245-1.65.592-2.36 1.058-.33.218-.83 1.832-1.09 1.745-.73-.249-1.96.658-2.51 1.075-.75.566-2.23 1.064-2.78 1.755-.51-.988-1.85-.956-1.94-2.232-.1.505-.19 1.009-.29 1.513-.12-.406-.28-.79-.5-1.152.37.833.25.785-.37-.145.81 0-.81-.508-.79-.504.25.874-.11 1.994-1.22 1.729.26.805 1.42-.417 1.68.72.34 1.451-2.24.74-2.76.72.89.728 2.37.587 2.95 1.729-.87.132-.92 1.503-1.92.805-.66-.463-1.1-1.856-1.97-1.957.56.655 3.33 2.954 2.88 3.672-1.78-.721-2.71-2.48-4.17-3.6.31 1.153 5.59 4.695 3.22 5.987-1.55.849-4.19-3.283-5.31-3.972.77 1.263 3.6 3.212 3.12 4.893-.38 1.3-2.58 1.655-3.63 2.178-1.76.883-1.82 2.202-2.9 3.611-.74.961-2.65 2.555-3.86 1.414.37-.47.85-.758 1.44-.864-.14-.3-.23-.612-.29-.937a7.57 7.57 0 0 1-.94.36c0-1.815-.33-3.617-.34-5.433 0-.895.1-1.812.34-2.667.19-.576 1.46-3.022 1.73-1.261 0-2.827-5.4-2.415-4.89-4.823-.11.426-.68.131-.97-.343.49-.166 1.2-.707 1.74-.762 4.2-.423 2.03-2.12 3.26-3.575 1.36 1.314 3.27-.11 4.75-.4.51-.101.85.346 1.08.725.57.915 1.62.828 2.52 1.116 0-.788-.81-1.446.14-1.584-.19-1.33-1.85-1.38-2.39-2.302-.47-.788-.78-1.8-.97-2.692-.18-.846.71-.943 1.13-1.597.64-.996 2.78.455 3.6.614-.46-.836.13-1.823-.5-2.592.69-.175 1.56.09 2.14-.113.6-.202 1.65-1.081 2.2-1.47.65-.453.89-1.035 1.71-1.27.63-.181 1.48-.11 2-.593 1.38-1.301-.73-4.871-.56-6.536.15-1.427.68-2.45 0-3.83-.24-.423-.47-.845-.71-1.266-.4-.753-.15-1.289-.43-1.985-.4-.984-.96-.894-1.05-2.205-.12-1.586.89-2.514.98-3.918 0-.338-.1-1.914-.26-2.075-1.2-.999 0-.943.49-1.987.7-1.609-1.21-3.196-2.37-3.942-.53-.342-1.89-1.068-1.82-1.856.1-.941 1.65-1.326 2.02-2.16-1.01-.382-2.32-1.165-2.96-2.051-.48-.658-.93-.111-1.46-1.013-.71-1.215-1.11-.08-1.99-.608-.52-.306-1.11-1.607-1.21-2.185-.3-1.819-1.06-3.372-2.55-4.654-.42-.362-1.37-.603-1.96-1.22-1.11-1.165-2.44-2.346-3.37-3.649-.6-.838-.86-1.866-1.49-2.684-.25-.324-.67-.711-1.09-.369-.44-.678-1.26-.915-1.68-1.613-.31-.514-1.18-1.727-.6-2.301.72-.719-2.67-1.417-2.9-1.469-2.26-.517-3.81-3.112-5.95-3.7-.62-.17-2.29-.956-.95-1.588 1.91-.898-.49-1.428-.15-2.432.18-.54 2.77.254 3.03.293 1.06.16 3.92-1.596 2.44-2.021.32-.489 1.29-.747 1.29-1.44 0-.875-.97-1.66-1.82-1.549-.58.08-.65-.299-.82-.782-.37-1.067-1.47-.779-2.32-1.125.2-.759 1.3-.61 1.36-1.241.1-1.071-1.08-1.476-1.78-1.98-.83-.602-1.39-1.325-2.55-1.113-1.81.329-1.41 1.298-2.22 2.391-.81-.494-2-1.428-2.88-1.257-1.01.195-2.89-1.614-3.38-2.344-.56-.829-1.07-2.813-.79-3.805.51-1.757-.95-1.373-1.3-2.747.22.564.12 1.068-.29 1.512-.95-.286-1.16-1.962-1.98-2.608-1.1-.881-2.92-2.432-3.49-3.733"/><path d="M2072.72 579.24c.1-.345 0-.585-.43-.72.14.24.29.479.43.72M2073.37 579.31c.31.448.72.784 1.22 1.008.6-.923-.57-1.174-1.22-1.008M2076.97 575.49c-.2.633-.32 1.281-.36 1.944.75-.446 1.58-1.438.36-1.944M2077.98 577.58c-.37.324-.66.708-.87 1.151.52-.167.89-.579.87-1.151M2079.85 574.56c.25.118.49.07.72-.144-.24.05-.48.1-.72.144"/></g></svg>