<svg xmlns="http://www.w3.org/2000/svg" width="457.599" height="302.093" viewBox="0 0 121.07312 79.928886"><g class="landxx coastxx ye" transform="matrix(1.3293 0 0 1.3293 -2118.228 -790.166)" fill="#cbe6a3" fill-rule="evenodd" stroke="#000" stroke-width=".109"><title>Yemen</title><path d="M1595.31 639.238c.1-.331.12-.667.1-1.008-1.11.177-.66.617-.1 1.008M1668.39 654.502c0-.778-1-.504-1.44-.432l1.44.432M1679.04 653.062c1.68-.387 4.61-.202 5.47-2.088-1.01-.607-2.35-1.537-3.6-1.256-.59.134-1.1.521-1.73.46-.67-.06-1.25-.648-1.94-.522-.76.137-1.44 1.617-.81 2.171.65.581 1.73 1.11 2.61 1.235"/><path class="landxx ye" d="M1672.78 615.229c-2.43-.09-1.06-5.061-3.46-5.344 1.08-1.714-2.92-7.033-3.61-8.909l-2.81-6.489c-7.13 1.401-14.28 2.934-21.3 3.881-5.85 1.805-8.8 4.713-10.12 7.879-1.22 1.824-1.88 6.43-4.8 6.253-1.99-.12-1.78-3.107-3.69-2.881-2.42.285-4.39.24-6.84-.104-1.39-.195-2.82-1.184-4.18-1.184-1.5 0-3 .145-4.5.287-1.84.174-3.39 1-5.3.895-1.05-.06-1.44-1.224-2.51-1.357-1.02-.128-1.81.563-2.24 1.429-.47.945-.62 2.091-.44 3.129.11.672 1.05 1.339.54 2.028-.48.653-.87 1.324-1.36 2.004-.27.372-.6.665-1.01.88-.96.48-.47.845-.27 1.898.31 1.668-.32 2.441-.61 3.961-.28 1.407.9 2.63.77 4.029-.27-.24-1.7-.277-1.46.282 0-.117 1.44.726 1.44.722.8.856 1.1 1.742 1.38 2.862.53 2.196.58 4.644 1.27 6.78.28.877.98 1.533 1.32 2.388.4 1.031 0 2.149 0 3.204 0 2.087 2.48 3.843 1.8 5.963.92.07 1.54-.446 2.47-.07.99.396 1.67.723 2.77.506 2.25-.447 3.26-2.023 5.61-.79-.12-.64.56-1.29.79-.359.39-.428.61-.925.93-1.401.49-.753 1.3-.736 1.96-1.238 1.48-1.118 1.65-2.245 3.69-2.713 1.9-.437 3.91-.52 5.85-.342 1.14.104 3.06-1.206 4.2-1.53 1.71-.483 2.56-1.96 4.06-2.792.46-.255 1.11-.832 1.61-.981.55.02 1.07.149 1.57.391.57.03 1.12-.04 1.66-.203 3.63-.584 4.44-4.338 7.7-5.939 1.52-.744 2.86-.932 4.47-1.215 2-.348 3.65-1.686 5.62-2.154 1.36-.326 2.74-.583 4.07-1.061 1.32-.478 1.79-1.532 2.91-2.103.93-.474 2.93-.415 3.21-1.675.34-1.46-.68-2.788-.15-4.277 1.07-3.009 4.74-2.89 6.99-4.536"/></g></svg>