<svg xmlns="http://www.w3.org/2000/svg" width="500mm" height="500mm" viewBox="0 0 500 500"><g class="landxx coastxx br" transform="matrix(1.3293 0 0 1.3293 -939.48 -897.516)" fill="#c83737" fill-rule="evenodd" stroke="#000" stroke-width=".109"><title>Brazil</title><path d="M975.94 876.96c1.08-2.827-1.86-.525 0 0M869.89 772.78c.72-.143 1.353-.577 1.87-1.08-.794-.115-1.659.242-1.87 1.08M871.62 773.78c.584-.653 1.517-.503 2.15-1.08-.668-1.095-2.582-.07-2.15 1.08M884.72 741.24l.5-.72c-.801-.23-.968.01-.5.72M885.37 743.32c1.108-.547.535-1.509 0-2.231-1.084.502-.504 1.552 0 2.231M873.85 772.34c1.971-.483 6.736-5.188 5.597-7.432-1.163-2.29-3.39.793-3.684 2.014-.215.896.174 1.854-.726 2.447-.975.641-1.7 1.724-1.187 2.971M877.74 763.78c.746-.499 2.766-1.862 1.8-2.96-1.04.545-1.453 1.933-1.8 2.96"/><path d="M877.81 770.11c1.071-.375 1.916-1.916 1.22-2.949-.01 1.16-1.233 1.802-1.22 2.949M880.9 767.09c-.823.275-1.43 1.022-1.58 1.87.999-.242 1.23-1.35 2.021-1.87h-.441M879.82 764.28c.323-.708.469-1.507 1.3-1.8-1.119-1.111-1.579 1.022-1.3 1.8"/><path d="M879.68 767.88c.651-.726 1.072-1.661 1.857-2.268.439-.34.689-1.256-.189-.944-.955.34-1.75 2.273-1.668 3.212M880.18 764.35c.58-.174 1.042-.644.79-1.29-.514.237-.865.702-.79 1.29M881.77 762.05c.53-.574 1.227-.948 1.754-1.525.66-.725-.457-.99-.958-.761-1.025.466-3.012 1.847-.796 2.286M880.83 764.57c.611-.324 1.908-.783 1.44-1.729-.933.07-1.053 1.091-1.44 1.729M881.19 766.87c.373-.217.636-.526.79-.93-.605 0-.932.315-.79.93M881.41 759.53c.02.144.05.287.07.431a2.35 2.35 0 0 0 1.44-.72c-.537-.396-1.131-.213-1.51.289M882.41 772.27c.535.862.897 1.863 1.621 2.598.545.554 2.784.719 1.629.07 1.025.117 2.303-.49 3.253-.214.672.195 1.658.736 1.427-.506.152.272.319.536.5.79.708-.48 1.434-1.163 1.44-2.09.403 1.495 2.97.426 3.79 0 1.496-.778 1.452-2.35 2.32-3.636.836-1.239 1.1-2.479 1.384-3.925.267-1.357 1.849-3.662-.523-3.808-1.855-.114-4.198-1.271-5.96-.51-.777.336.08.667-1.152.613a13.63 13.63 0 0 1-3.029-.473c-1.931-.509-4.451-1.371-5.728.788-.703 1.188-.763 3.076.838 3.533a27.833 27.833 0 0 1-1.73-.431c-.238.663.246.966.21 1.591-.04.72-.621 1.267-.237 2.036.419.84 1.621-.264 2.257-.1-.984 1.659-.773.469-2.52.72.385.894.253 2.005.21 2.949M884 759.53c.961.712.946-.32.632-.952-.725-1.457-1.497.09-.632.952M884.94 758.09c.725-1.075 1.273-2.34.28-3.46-.448.875-1.303 3.173-.28 3.46M887.74 759.53c.698 1.412 2.07-.825 2.656-1.428 1.53-1.576-1.203-1.303-2.048-1.039-.834.26-2.712.342-2.998 1.386-.241.881 1.907 1.02 2.39 1.081M886.37 756.58c.404-.326 2.35-1.811 1.615-2.435-1.174-.997-2.501 1.528-1.615 2.435"/><path d="M886.45 757.58a2.96 2.96 0 0 0 1.15-.86c-.607-.09-1.014.302-1.15.86M886.45 753.12c.718-.02 1.604-.226 1.51-1.149-.763-.222-1.77.197-1.51 1.149M888.17 751.53c.456-.269.529-.625.22-1.069-.435.275-.508.631-.22 1.069M890.12 759.53c-1.031 1.581 1.511 1.277 2.314 1.008 1.417-.475-1.086-2.228-2.314-1.008M896.31 775.15a6.76 6.76 0 0 0 .43-1.939c-.898.315-1.375 1.316-.43 1.939M900.13 769.61c1.948 1.908.423-2.321 0 0M905.89 765.5c.76.347.03-.752 0-.79v.79M914.96 768.38c.395-.108.588-.371.58-.79-.77-.166-.963.1-.58.79M926.62 771.7c.556-.202.864-.653.58-1.229-.278.818-.471.985-.58.5v.729M928.35 774c.263-.1.527-.193.79-.29-.688-.455-.952-.358-.79.29M929.94 786.1c.469-.945.824-1.887.79-2.96-1.143.486-.744 2.009-.79 2.96M936.63 779.9l.65-.72c-.767-.07-.984.169-.65.72"/><path class="landxx br" d="M706.8 824.69c.51-.979.292-1.512 1.421-1.715 1.126-.203-.184-1.552.134-3.061.514-2.435 2.367-2.643 3.971-3.685 1.143-.743.307-2.374.03-3.567-.255-1.094.313-2.08.925-2.942 1.229-1.732-.08-4.248 1.178-5.77.646-.785 2.022-.836 2.783-1.581.675-.661.7-1.419 1.636-1.743 1.205-.418 1.885-1.6 3.045-2.076 1.074-.44 2.735-.41 3.898-.652 1.382-.288 2.532-.222 3.551-1.303.164-.174.418-.878 1.955-1.239.573-.134.702.124 1.481.294.667.146 1.404.939 1.787 1.459l.58-.72c1.043 1.719 1.562-1.71 1.652-2.318.413-2.774.827-5.549 1.104-8.341.376-3.79.788-7.591 1.554-11.301.325-1.574.981-3.003.603-4.639-.363-1.573-1.472-2.381-1.523-4.064-.05-1.739-.893-2.033-2.183-3.241-1.441-1.349-1.464-2.766-1.464-4.479 0-.996-.157-2.248.378-3.165 1.359-1.474 4.05-2.23 5.126-1.127 1.177.625 1.589.271 1.495-1.088-.146-2.117-3.402-3.258-5.234-2.243-.01-1.531-.823-4.183-.107-5.511.697-1.292 3.23-.248 4.148-.248 2.195 0 4.252-.04 6.443.05.388.02 1.628.144 1.745-.462.06-.314-.124-1.223.293-1.495 1.538-1.001 1.164 2.14 2.422 1.522 1.074-.528 1.669-1.867 2.588-2.603 1.686-1.35 2.526.678 2.936 1.641.813 1.913.815 2.848.624 4.713-.04.439-.317 1.426.482 1.279 1.118-.206.894-.838 1.774.05 1.075 1.083 1.777 2.471 3.195 3.126 1.905.879 3.175-.512 4.644-1.236 2.915-1.436 1.354 1.99 1.782 2.772.71-.231 1.877-2.076 2.308-2.696.734-1.054 1.055-1.691 2.337-2.187 1.072-.415 1.652-.565 2.468-1.365.58-.569 2.096-1.646 2.036-.09.856-1.422 1.812-1.942 2.23-3.6.33-1.304.823-1.257 1.982-1.747.498-.211 2.38-1.181 2.605-1.52 1.379-2.073.342-2.452-1.278-2.256-.795.09-2.128.07-2.765-.462-.374-.313.06-1.741-.08-2.141-.743-2.009-1.519-2.787-1.47-6.131.02-1.401-1.027-2.368-2.114-3.485-.621-.639-2.645-2.906-1.696-3.859.65.285.988 1.201 1.692 1.27.963.09 3.035-.614 3.284.836.173 1.012.562 1.27 1.678 1.12 1.837-.247 2.896.661 3.206.104 1.444-2.595 2.561 3.173 4.569 2.807 1.312-.24.101-2.696.762-3.725.402-.626 1.48-.308 2.066-1.009.853-1.021 1.666.369 2.539.07 1.373-.475 4.467-1.298 5.088-2.459.04-.08 1.668-1.02 1.858-1.005.801.06 1.773.502 2.316-.48.881-1.594 4.13-2.634 1.822-5.622 1.093-.165 2.025 0 3.128-.31.896-.258 1.559.03 2.154.937 1.263 1.929-.353 3.315-.659 5.028-.157.88 1.926.422 3.046 1.542.249.249-.313.973-.1 1.471.346.808.73 1.436 1.178 2.17.496.813-1.781 2.969-1.961 3.641-.18.669-.193 1.436-.369 2.159-.323 1.326-1.06 2.353-1.22 3.712-.236 2.016.05 3.859 1.378 5.161.949.932-.111 3.852 1.133 3.756-.1.24-.192.48-.29.72 1.499.169 2.63 1.849 3.229 2.972.498.934 1.5.07 2.092.943.529.78 1.432.587 1.896.682.528.108 1.06-1.33 1.652-1.821 2.104-1.746 3.543-1.578 5.22-2.302.964-.417 1.448.174 2.262-.808 1.077-1.299 2.197-2 4.076-1.418 1.528.473 2.328-.454 3.924 0 1.041.293 3.916 1.752 4.306-.02.359-1.633-1.657-1.761-.906-3.271 1.379-2.772 1.657-.381 3.305-.798a24.88 24.88 0 0 0 2.728-.861c2.015-.745 1.924-.344 3.423.9.297.246.08-.592.437-.04.446.691 1.148.928 1.799 1.421.842.638 1.628.721 2.503 1.198.373.355.927-1.087 2.87-1.783.49-.272 1.106.379 1.627.426.642.06 3.103-.637 2.639.686.708-.334 1.833.5 2.417-.02.825-.741 1.561-1.053 2.181-2.007.875-1.346 2.528-5.672 3.414-7.01 2.796-4.219 5.407-7.671 4.138-10.442.09.577 1.595 3.652 1.99 4.083-.329-.936-1.115-2.094-.29-3.024 2.186 1.354 2.469 3.532 2.23 5.904.124-.698.191-1.459.79-1.944-.08 3.135.242 6.407 1.349 9.356.452 1.206 2.308 4.864.951 5.979 1.048-.346 1.223.786 1.553 1.473.643 1.338 2.162.801 3.277 1.263 2.544 1.055 2.054 4.055-.15 5.04.573-.162 1.216-.06 1.66.359-.969.969-2.651 1.839-3.042 3.248-.202.725-1.027 1.053-1.417 1.646-.591.898-.852 1.897-1.572 2.726-.976 1.122-2.23 1.938-3.323 2.932-1.35 1.229-2.054 2.88-3.19 4.282-1.053 1.299-1.44 2.301-1.292 3.973.08.937-1.646 1.103-1.707 2.39-.08 1.735-1.35.8-2.238.771-.813-.03-3.369 1.226-3.668 2.007.719-.167 4.602-.905 3.52.87.735-.809 1.881-.735 2.771-1.259 1.039-.611 1.837-1.275 2.96-1.757 1.462-.628 3.622-2.449 4.43-3.825 1.892 1.098.09 3.939 1.318 5.458.495.609.02 2.24.834 2.481.681.2 1.86-.196 1.447.992 1.598.313 4.458-2.6 4.75.72-.143-1.023.867-1.213 1.632-1.36.382.01.654-.159.816-.514.297-.791 1.145-.497 1.801-.646-.852 2.674-1.646 4.421-1.52 7.199 1.22-1.575.499-5.002 2.547-5.968 1.363-.642 1.588-.833 2.395-2.149 1.332-2.175 1.696-.565 3.048.268a3.363 3.363 0 0 0-.35-1.3c.753-.05 1.49-.223 2.23-.36-.76-.382-1.613-.07-2.38.07-.194-1.051.55-1.095 1.139-1.659.893-.856-.07-2.757 1.029-3.843 1.296-1.28.93-.201 1.792-.538.606-.236 1.875-1.764 2.02-.22 1.194-1.165 1.261.462 2.37.07-.477-.41-.588-1.027-.29-1.58.681.199 2.306.596 1.95 1.65.236-.128.476-.248.72-.36.1.267.193.534.29.801.622-.494.72-.498.72.35.576-.19.98-.676 1.01-1.29-.362.932.911 1.106.57 2.021.09-.586.466-.964 1.08-.73 0 .619-.416 1.087-1.01 1.23 1.028-.597 1.964.864 2.95-.07-.132 1.354.868.553 1.16-.15-.413 1.64.963.961.86 2.021.386-.154.676-.417.87-.79-.133.928 1.024.589 1.22 1.439.246-.234.486-.474.72-.72.05.539.241 1.019.58 1.44.238-.192.475-.385.71-.58.123.72.407 1.063 1.08.359-.525.375-.663.972-.28 1.51.149-.554.576-.98 1.149-1.08-.813.732-.524 2.293.221 2.961.325-.609-.07-1.635.756-1.953 1.494-.58.825.493 1.544.723-.04-.601.316-1.072.86-1.29-.25.472-.37.976-.36 1.51 1.709-1.025-.224 2.034 1.59.931-.25.229-.49.47-.72.72.583.202 1.116-.08 1.439-.57-.491 1.064 1.239.482.49 1.909-.669 1.275-.354 2.337-2 2.841.592-.372 1.055-.04 1.22.57.04-.915 1.049-2.321 1.893-1.134.902 1.271-.678 1.668-1.175 2.623-.424.814-1.178 3.324-.887 4.207.322.977-1.228 1.788-.55 2.515.09-1.373 1.719-1.789 2.3-2.88.577-1.084.198-2.9.826-3.792.321-.458 1.77-1.499 2.239-.709.77 1.296-1.668 1.987-1.834 3.061.71-.457.95-.287.72.51.839-.406 2.018-3.692 2.45-2.02.07-1.154 2.296-1.78 3.16-1.29-.09-2.272 4.617.244 5.452.725.592.341 3.853 1.668 3.908 2.295.71-.463 2.593.708 2.24-.79.943.209 1.581.914 2.44 1.29.99.432 2.052.366 2.88 1.16-.02-1.385.839-1.238 1.915-1.277 2.157-.08 4.063-.942 6.26-.473 4.022.858 7.744 4.292 10.884 6.752 1.04.819 2.24.957 3.11 1.988.82.988 1.47 2.092 2.25 3.106.89 1.144 2.07 1.654 2.88 2.778.87 1.2 2.46 1.332 3.42 2.573.96 1.246 2.35.742 3.44 1.815 1.27 1.243 3.49.741 5.04.547 3.57-.445 6.21.889 7.24 4.429.41 1.371 1.01 2.736 1.03 4.188 0 .438-.36 1.171 0 1.339.38.191.6.722.75 1.09.65 1.549 1.75 4.999.91 6.633.23-.351.45-.71.64-1.08-.15 1.638 1.05 3.611-.64 4.82.27.06.53.137.79.22-.67 1.355.4 2.987-.43 4.215-.85 1.272-.21 2.986-.88 4.322-.77 1.551-1.04 3.293-1.76 4.868-.79 1.733-2.51 2.864-3.19 4.665a9.006 9.006 0 0 1-.72-.57c.1.73-.17 1.639-.87.43.13.46.42.701.87.721-1.05 2.071-2.58 4.773-4.32 6.34-.72.646-1.69.904-2.42 1.546-.76.669-1.35 1.545-2.26 2.044.15-.615-.24-1.048-.8-1.22-.1.669.78.885.65 1.51-.15.805-.85 1.879-1.65.87.4.516 1.33 1.014.77 1.792-.33.451-1.69 1.945-1.14.288-.45.717-.35 1.62-1 2.24.29-.09.58-.187.86-.29-1.58 2.261-4.1 13.653-8.21 12.96.76-1.722-.99-2.043-1.51-3.391 0 .781-.89 2.976-1.58 1.301.22.701 1.3.989 1.27 1.744-.1 1.327-1.74 2.274-1.27 3.726-1.15-.78-.91 1.208-.94 2.02.1-.372.21-.732.36-1.079.39 1.01.4 1.885.36 2.949a8.144 8.144 0 0 1-.79-.72c.63.529 1.19 2.239.94 3.03.2-.504.39-1.011.57-1.521.1 3.029-.86 5.774-.42 8.848.37 2.637 1.52 5.398 1.65 8.027.23 4.668-2.7 9.016-1.4 13.804.72 2.67-.97 2.998-2.11 5.005-1.32 2.313-1.52 5.187-1.19 7.782.23 1.852 1.33 5.583-.86 6.546-2.072.909-.41 4.955-2.869 5.287 1.749 1.544-1.21 3.478-2.207 4.428-.854.814-.607 1.428-.909 2.52-.445 1.611-1.178 3.063-.919 4.78.135.893.782 2.288.112 3.103-1.105 1.345-2.795 1.303-4.184 2.132-.942.563-1.913 1.612-2.336 2.628-.274.658.05 1.268.236 1.898.197.64-.63.98-.303 1.7-.983-1.09-3.803-.55-5.04-.29-.724.15-1.887.55-2.59.15-1.043-.6-.302-1.62-.36-2.52-2.316.27-.415 1.23-.724 2.4-.306 1.15-4.934.7-5.977 1.27.707-.76 1.928-.42 2.81-.72-.948-.85-2.008-1.31-3.183-.6-1.043.64-1.511.13-2.589.26-.782.1-2.082.17-2.355 1.1-.255.87 1.079 1.25 1.578 1.62-1.137.92-2.651-.1-3.395 1.05-.64.94-1.667 1.05-2.552 1.67-.782.54.181 1.37-.603 1.89-1.084.71-2.931-1.3-4.471 0-.162.13-1.229 2.09-1.612 1.61-.334-.42-.07-1.04-.908-.89.441 1.31-1.253 1.46-2.193 2.08-1.154.77-1.687 1.87-2.598 2.86-.993 1.07-2.521 1.37-3.597 2.34-.918.83-1.442 2.09-2.483 2.79.239.14.479.29.72.44-.808.83-1.614 1.81-2.09 2.88-.07-.55.07-1.03.43-1.44-.752.32-1.531.11-2.23-.22.325 1.49-.506 2.35-1.94 1.15-.01.86 2.02 1.74 2.8 1.66-.538.5-.725 1.17-.86 1.87-.107.55-1.227.37-1.58.65.482 0 .962 0 1.44.1-.217.68.06 1.38-.134 2.05-.233.8-1.081.94-1.306 0 .278.59.15 1.39.803 1.67.854.36.355 2.17.557 2.87.322 1.1 1.691 2.72 1.08 4.1 1.056-.25.948.99.08 1.15.951.72.208 3.8.969 5.07.713 1.19-.552 4.15-.609 5.37a3.778 3.778 0 0 1-.94-1.01c.259.61.236 1.35 1.01 1.59-.804 1.13-2.082 1.81-3.112 2.7-1.097.96-1.855 2.24-2.534 3.5-1.651 3.09-2.133 6.38-3.01 9.72-.823 3.13-2.38 5.98-4.188 8.65-1.741 2.57-4.273 4.4-6.307 6.75.362-.93-.155-2.06-.36-2.96 1.06.29 1.478.38 2.417-.27.835-.58 1.301-1.92 2.056-2.34 1.043-.59 1.219-1.07 1.215-2.28 0-.78.135-2.14 1.083-1.02-.355-1.14.181-1.57.853-2.37.551-.65.667-1.4.546-2.23-.09-.61-.726-2.62.61-1.37.03-.32-.396-2.25-.893-2.08-.316.11-2.045 1.41-2.057 1.8-.475-.54-.747-1.18-1.452-1.43-.832-.3-.672-1.48-1.429-1.88-.07 1.97.868 1.89 1.65 3.31-1.653.4-.451 2.31-.57 3.38a3.72 3.72 0 0 0-.649-1.44c-.237.68.407 1.55.07 2.12-.151.25-.682.21-.608.6.311 1.64-1.084 2.51-2.246 3.18-.917.52-.55 1.66-.813 2.53-.221.72-2.041 2.48-.29 2.66-.93.57-.269 1.85.65 1.14.148.92-.528 1.77-.898 2.55-.605 1.26-.559 2.79-.752 4.15-.38 2.69-2.019 4.29-3.41 6.47-.566.88-1.304 1.38-1.762 1.19-.486-.19-1.131-1.35-1.369-1.9-.444-1.03-.259-1.89-.326-2.77-.09-1.15 1.039-2 1.542-2.95.79-1.49-.919-2.15-1.929-2.62-1.176-.55-1.657-1.57-2.368-2.6-1.659-2.38-3.975-2.27-5.533-3.95-1.288-1.35-2.795-2.1-4.365-2.97-.575-.27-.794-.85-1.37-1.11-1.638 1.04-3.619-2.52-5.32-3.86.874 1.25-2.64 3.35-2.562.72.06-2.09-2.521-3.42-3.993-4.53-1.093-.83-3.251-3.69-4.899-2.5-.549.4-.577 1.14-1.448 1.36-.811.22-1.931.11-2.667-.81 1.541-.61 1.128-3.04 2.894-3.76 1.578-.64 2.198-2.84 2.815-4.47.699-1.86 2.016-3.42 2.937-5.15.467-.88 1.592-3.21 2.813-1.95.292-.58.03-1.1-.57-1.3.971-1.17 1.963-2.69 3.301-3.44 1.369-.77 1.621-1.38 2.56-2.4.947-1.03 2.154-1.19 3.326-1.78.856-.44 2.469-2.32 3.554-1.81.248-1.78.186-3.2.138-4.98-.06-2.15-.265-3.28-.995-5.29-.517-1.41-.842-3.05-2.421-3.61-.912-.32-2.64-.45-2.842.85-.285-.27-.984-.1-1.5-.42-.371-.24-.166-1.22-.203-1.85-.1-1.7.445-2.92.654-4.66.142-1.2-.139-2.94.398-4.04.56-1.14-.999-2.06.291-3-.883-.6-1.543-1.67-2.69-1.81-1.206-.14-2.094.87-3.14 1.23-3.036 1.06-3.69-1.9-4.25-4.17-.333-1.35-1.298-2.74-1.546-4.11-.873-3.17-1.798-4.344-2.877-5.9-1.21-.318-2.393-.558-3.403-1.441-1.087-.95-1.078-.24-2.054 1.341-1.988 3.23-1.691-.04-2.643-.167-1.37-.175-3.014-.146-4.243-.815-.654-.356-3.257-.623-3.457-1.454-.204-.849.436-1.645.642-2.437.201-.775-.589-1.929-.287-2.706.531-1.369-.03-2.614.246-3.935.215-1.014-1.598-1.401-.634-2.543-1.175-.477-1.622-2.481-2.224-3.758-1.315-1.84 3.112-1.909 1.242-3.353-2.262-1.746-1.395-3.044-.326-5.491.289-.661 1.235-2.031.885-2.662-.593-1.069-.07-1.86.204-3.054 1.168-3.205.371-3.653-.696-5.979-.977-1.459-.894-3.823-1.813-3.452-1.586.64-3.698-1.417-4.26-3.144-.373-1.146-.839-2.518-.874-3.729-.03-1.21.868-2.226.827-3.496-2.433.556-4.995.368-7.448.117-1.557-.159-5.1.313-6.221-.937-1.022-1.141-.807-3.494-1.049-4.913-.322-1.886-2.557-2.993-2.632-4.707.622-.06 1.245-.09 1.87-.07-.421-2.075-1.092-4.925-1.8-6.485-.394-.865-.441-1.051-.385-1.873.07-1.058.119-1.874-.759-2.567-2.177-1.721-4.504-2.858-5.68-2.725-3.949.448-2.914.115-4.128.105-.985 0-2.28-2.183-2.747-2.81-.511-.684-.875-.361-1.552-.415-.61-.05-1.945-1.04-2.49-1.308-.382-.188-.934-.136-1.434-.372-1.168-.551-1.195-1.448-1.685-2.108-.636-.858-.774-.673-1.64-.287-1.019.455-1.556-.712-2.248-1.166-1.797-1.183-2.325.195-4.149-.234-2.09-.49-2.294-.652-3.431-2.249-.536-.753-2.46-1.98-3.343-2.072-.866-.09-.552-1.347-1.07-1.922-.377-.417-1.235-.343-1.229-.995.01-1.42-1.642-2.693-1.734-4.211-.05-.861.591-1.383.695-2.259.09-.716-.941-.851-1.088-1.663-.127-.7-.203-1.547-.22-1.99-.03-.889.419-1.609.563-2.386.276-1.487.377-3.858-.998-4.809-.334.314-.618 1.119-1.171 1.075-1.384-.111-2.459-.171-3.844.06-1.516.256-4.081.577-5.065 1.702-1.66 1.896-1.906 3.144-4.182 3.211-.52.01-1.956 1.049-2.082 1.841-.176 1.105-1.392.649-2.033.587-1.016-.1-1.819.809-1.956 1.612-.183 1.069-1.184 1.73-2.352 2.032-.377.1-2.134 1.014-1.791-.362.09-.366-1.063-.434-1.896-.461-2.199-.07-5.358-.519-7-.422-1.039.06-2.176 1.315-3.305.967-.673-.207-1.411-1.321-2.135-.685-.323-2.637-.51-5.559-.581-8.06-.04-1.281.15-1.544.525-2.631.02-.352-.09-.667-.32-.945-.372-.722.298-1.037.456-1.684-1.66.164-3.438 3.163-4.792 4.241-2.013 1.605-5.363.939-7.668.649.392-1.246-.65-3.176-1.575-3.971-1.657-1.423-4.532-.48-6.345-1.428 2.109-2.763 1.422-3.544-.849-5.875-.484-.497-.59-.845-.789-1.479-.212-.674-.928-.973-1.34-1.496-.949-1.202-.729-2.716-2.206-3.681 1.475-.846-1.331-2.533-1.718-3.446"/><path d="M912.08 987.55c.218.22.435.43.65.65.252-.7.528-1.45-.07-2.09-.407.4-.6.88-.58 1.44M914.53 1000.3c.651-.9 1.231-2.7.43-3.68-1.052.63-.539 2.73-.43 3.68M935.26 966.96c.104-.66-.446-1.11-.14-1.8-.915-.19-1.224.75-1.37 1.44.547-.1 1.05.1 1.51.36M941.53 960.48c.591-.1 1.108-.45 1.44-.94-.696-.49-1.781 0-1.44.94M976.95 873.22c.55-.523 1.89-1.392.79-2.16.18.886-.84 1.308-.79 2.16"/></g></svg>