<svg xmlns="http://www.w3.org/2000/svg" width="220.205" height="278.942" viewBox="0 0 58.262535 73.803528"><path d="M11.345 47c.362-.648.33-1.286-.093-1.914-.23.651-.198 1.29.093 1.914M9.816 47.292c-1.059.12-2.178.899-2.572 1.905-.14.363.186 2.85.956 2.23.265-.212.779-1.52.775-1.846 0-.554 1.527-1.098 1.893-1.718l-1.052-.57" fill="#c83737" fill-rule="evenodd" stroke="#000" stroke-width=".144"/><path d="M.06 41.829c2.048.66 2.088-2.402 1.972-3.637-.093-.993-.52-1.737-.856-2.66-.569-1.56 1.178-2.726.556-4.232-.68-1.651-2.515-3.855.527-4.153 1.27-.12 1.763-.634 2.01-1.868.32-1.604 1.174-1.236 2.489-1.435-2.223-.216-2.449-3.102-1.102-4.45 2.048-2.05 3.425-3.493 3.597-6.55.053-.872-1.251-4.834-.428-5.327.92-.55 4.502-3.238 4.538-.609-.57-1.579 1.39-2.297 2.526-2.685 1.195-.41 3.755-2.008 3.982-.48.49-1.244.995-2.568 1.819-3.637 2.697 2.465 6.816 6.995 10.798 6.968 1.238 0 1.29 1.5 2.477 1.875 1.59.502.193 3.678 2.957 3.645 2.073-.027 3.7.982 5.877 1.014.719 0 2.293.93 2.604-.342.093-.402-.638-.8-.093-1.066 2.008-.986 3.52.734 4.673 2.131 1.784 2.159 4.198 2.217 6.41 3.676-1.156.279-2.298.093-3.445-.107-.139.796 2.363 3.192 2.84 3.833 1.43 1.916.395 3.85 1.37 6.124-.752.106-1.39-.107-1.912-.665-1.4 7.625-5.856 14.315-12.293 18.784-3.087 2.143-7.068 2.75-10.471 4.249-1.722.759-2.703 1.882-3.807 3.34a7.27 7.27 0 0 0-1.089 1.385c-.225.803.263 1.251-.384 2.006-.651-3.093-1.997 2.927-2.17 3.233-1.046 1.846-2.07 4.461-1.954 6.617.139 2.586-1.749 2.489-2.392 4.516-.66 2.075-.52 2.458-2.495 2.405-2.39-.067-2.98-2.71-3.732-4.454-.97-2.249-2.05-.5-3.528-1.31-1.034-.566-2.174-2.701-3.484-1.392-1.777 1.78-3.642 1.29-1.778-1.187-1.366-.194-1.655-1.934-.656-2.754.596-.488 1.67-.18 2.33-.705 1.047-.833-.475-5.982-1.674-6.497 1.495-.777 2.723-.362 3.638-2.077.792-1.483.957-3.189 1.44-4.777.598-1.956.636-2.046 0-3.862-.615-1.74-.833-3.44.384-4.985-2.15 1.038-.78 3.422-1.1 5.188-.522 2.892-2.515.316-.432.17-1.042-.067-1.132-.943-.765-1.715-.695.701-3.11 3.63-2.584 4.692-1.578-1.082-2.73-2.794-4.419-3.702-1.18-.636-2.522-.996-2.76-2.531" class="landxx ec" fill="#c83737" fill-rule="evenodd" stroke="#000" stroke-width=".144"/></svg>