<?xml version="1.0" encoding="UTF-8" standalone="no"?>
<!-- Created with Inkscape (http://www.inkscape.org/) -->

<svg
   xmlns:dc="http://purl.org/dc/elements/1.1/"
   xmlns:cc="http://creativecommons.org/ns#"
   xmlns:rdf="http://www.w3.org/1999/02/22-rdf-syntax-ns#"
   xmlns:svg="http://www.w3.org/2000/svg"
   xmlns="http://www.w3.org/2000/svg"
   xmlns:sodipodi="http://sodipodi.sourceforge.net/DTD/sodipodi-0.dtd"
   xmlns:inkscape="http://www.inkscape.org/namespaces/inkscape"
   width="28.912933mm"
   height="16.130663mm"
   viewBox="0 0 28.912933 16.130663"
   version="1.1"
   id="svg15698"
   inkscape:version="0.92.0 r15299"
   sodipodi:docname="falklandislands.svg">
  <defs
     id="defs15692" />
  <sodipodi:namedview
     id="base"
     pagecolor="#ffffff"
     bordercolor="#666666"
     borderopacity="1.0"
     inkscape:pageopacity="0.0"
     inkscape:pageshadow="2"
     inkscape:zoom="0.35"
     inkscape:cx="144.6385"
     inkscape:cy="-43.80253"
     inkscape:document-units="mm"
     inkscape:current-layer="layer1"
     showgrid="false"
     inkscape:window-width="1920"
     inkscape:window-height="1017"
     inkscape:window-x="1912"
     inkscape:window-y="-8"
     inkscape:window-maximized="1"
     fit-margin-top="0"
     fit-margin-left="0"
     fit-margin-right="0"
     fit-margin-bottom="0" />
  <metadata
     id="metadata15695">
    <rdf:RDF>
      <cc:Work
         rdf:about="">
        <dc:format>image/svg+xml</dc:format>
        <dc:type
           rdf:resource="http://purl.org/dc/dcmitype/StillImage" />
        <dc:title></dc:title>
      </cc:Work>
    </rdf:RDF>
  </metadata>
  <g
     inkscape:label="Layer 1"
     inkscape:groupmode="layer"
     id="layer1"
     transform="translate(55.277864,-121.11325)">
    <g
       id="fk"
       style="fill:#c83737;fill-opacity:1;stroke:#000000;stroke-width:0.10870087;stroke-miterlimit:4;stroke-dasharray:none;stroke-opacity:1"
       transform="matrix(1.3292939,0,0,1.3292939,-1226.9441,-1472.8333)">
      <title
         id="title2574">Falkland Islands (Malvinas)</title>
      <g
         id="fk-"
         class="landxx coastxx fk"
         style="fill:#c83737;fill-opacity:1;fill-rule:evenodd;stroke:#000000;stroke-width:0.10870087;stroke-miterlimit:4;stroke-dasharray:none;stroke-opacity:1">
        <path
           inkscape:connector-curvature="0"
           id="path4876"
           d="m 882.7,1206.86 c 0.427,-0.13 0.559,-0.39 0.394,-0.76 -0.676,-0.94 -0.963,0.99 -0.963,-0.75 -1.503,0.23 -0.04,1.26 0.569,1.51"
           style="fill:#c83737;fill-opacity:1;stroke:#000000;stroke-width:0.10870087;stroke-miterlimit:4;stroke-dasharray:none;stroke-opacity:1" />
        <path
           inkscape:connector-curvature="0"
           id="path4878"
           d="m 887.24,1202.18 c 0.1,0.2 0.193,0.39 0.29,0.58 -1.631,0.62 -2.934,-0.91 -4.54,-0.79 0.736,0.66 1.36,0.36 1.905,1.23 0.425,0.69 2.124,1.19 2.845,1.43 -1.206,-0.35 -2.286,0 -3.45,0.29 0.836,1.23 1.979,-0.75 2.95,0.36 -0.593,-0.14 -0.865,0.13 -0.72,0.72 -0.191,-0.26 -0.384,-0.52 -0.58,-0.79 -0.04,0.73 -0.9,2.09 0.51,1.22 -0.439,1.09 -2.68,0.96 -3.6,1.22 0.374,0.18 3.57,1.56 1.58,0.36 0.439,-0.1 1.75,1.46 2.036,0.91 0.451,-0.88 1.897,-0.51 1.274,-1.91 2.014,0.66 2.714,-1.58 3.639,-2.9 0.316,-0.45 0.733,-1 0.778,-1.57 0.05,-0.64 -1.459,-1.38 -1.177,0.1 -0.885,-0.4 -2.82,-0.91 -3.74,-0.44"
           style="fill:#c83737;fill-opacity:1;stroke:#000000;stroke-width:0.10870087;stroke-miterlimit:4;stroke-dasharray:none;stroke-opacity:1" />
        <path
           inkscape:connector-curvature="0"
           id="path4880"
           d="m 885.29,1201.97 c 0.398,0.22 0.809,0.24 1.229,0.1 -0.155,-0.6 -0.642,-0.87 -1.229,-0.65 0.265,0.2 0.531,0.39 0.8,0.58 -0.267,0 -0.533,0 -0.8,0"
           style="fill:#c83737;fill-opacity:1;stroke:#000000;stroke-width:0.10870087;stroke-miterlimit:4;stroke-dasharray:none;stroke-opacity:1" />
        <path
           inkscape:connector-curvature="0"
           id="path4882"
           d="m 886.88,1201.32 c 0.222,0.21 0.486,0.3 0.79,0.29 -0.263,-0.1 -0.527,-0.19 -0.79,-0.29"
           style="fill:#c83737;fill-opacity:1;stroke:#000000;stroke-width:0.10870087;stroke-miterlimit:4;stroke-dasharray:none;stroke-opacity:1" />
        <path
           inkscape:connector-curvature="0"
           id="path4884"
           d="m 888.1,1200.89 c 0.416,0.62 1.661,0.56 2.24,0.29 -0.734,-0.2 -1.503,-0.11 -2.24,-0.29"
           style="fill:#c83737;fill-opacity:1;stroke:#000000;stroke-width:0.10870087;stroke-miterlimit:4;stroke-dasharray:none;stroke-opacity:1" />
        <path
           inkscape:connector-curvature="0"
           id="path4886"
           d="m 891.77,1209.24 c 0.513,-0.45 -0.153,-0.78 -0.57,-0.72 0.191,0.24 0.381,0.48 0.57,0.72"
           style="fill:#c83737;fill-opacity:1;stroke:#000000;stroke-width:0.10870087;stroke-miterlimit:4;stroke-dasharray:none;stroke-opacity:1" />
        <path
           inkscape:connector-curvature="0"
           id="path4888"
           d="m 891.56,1208.09 c 0.994,0.48 1.731,1.65 2.95,1.58 -0.5,-0.32 -0.774,-0.86 -0.5,-1.44 0.735,0.29 1.431,0.71 2.23,0.79 0.01,-0.93 -0.951,-1.39 -1.66,-1.72 0.877,-0.1 1.438,0.49 2.23,0.49 0.542,0 0.859,-0.36 1.44,-0.21 -0.03,-0.98 -1.909,-1.2 -2.44,-1.87 1.029,0.62 2.206,0.73 3.371,0.59 0.736,-0.1 1.799,-0.96 0.729,-1.16 1.09,0.17 2.239,-0.1 3.24,-0.51 -0.291,0.1 -2.788,-1.02 -3.09,-1.29 0.753,-0.4 1.521,0.11 2.3,-0.1 -0.687,-0.53 -3.89,-2.47 -3.96,-0.21 0.612,0.1 1.178,0.4 1.58,0.86 -0.853,0 -3.507,-1.66 -1.65,-1.44 -0.766,-1.38 -2.994,-1.27 -4.32,-1.15 0.434,0.61 0.09,1.17 -0.51,1.44 0.562,0.1 0.909,0.35 0.79,0.94 -0.27,-0.13 -0.533,-0.28 -0.79,-0.44 0.238,0.82 1.425,0.95 1.37,1.88 -1.177,-1.45 -3.477,1.43 -2.59,2.66 -0.24,0.1 -0.48,0.2 -0.72,0.29"
           style="fill:#c83737;fill-opacity:1;stroke:#000000;stroke-width:0.10870087;stroke-miterlimit:4;stroke-dasharray:none;stroke-opacity:1" />
        <path
           inkscape:connector-curvature="0"
           id="path4890"
           d="m 899.12,1207.3 c 0.203,0.21 0.443,0.35 0.72,0.43 -0.24,-0.14 -0.48,-0.28 -0.72,-0.43"
           style="fill:#c83737;fill-opacity:1;stroke:#000000;stroke-width:0.10870087;stroke-miterlimit:4;stroke-dasharray:none;stroke-opacity:1" />
      </g>
      <circle
         id="fk."
         class="circlexx fk"
         r="6.0130301"
         cy="1205.16"
         cx="891.31"
         style="opacity:0;fill:#c83737;fill-opacity:1;stroke:#000000;stroke-width:0.10870087;stroke-miterlimit:4;stroke-dasharray:none;stroke-opacity:1" />
    </g>
  </g>
</svg>
