<svg xmlns="http://www.w3.org/2000/svg" width="114.351" height="157.533" viewBox="0 0 30.255371 41.680611"><path d="M.052 39.337c1.713-.08 3.079-3.015 3.663-4.303 1.087-2.404.013-5.08 1.656-7.27 1.945-2.597.158-4.511-1.498-6.578-1.718-2.144-1.649-5.973-1.813-8.589-.192-3.048.252-4.78 2.476-6.903.828-.79 1.86-1.664 2.126-2.833.344-1.514.735-3.405 2.882-2.594 1.393.526 2.348 1.653 3.83 2.059 1.598.44 3.54.415 4.894 1.497 1.587 1.272 3.696 6.117 6.189 5.94a5.651 5.651 0 0 0-.863 2.011c.707-3.185 6.164 2.28 3.058 4.403 1.504-.554.63-1.96 1.38-2.963 1.137-1.523 2.021 2.027 2.109 2.784.415 3.586-2.337 7.382-4.202 10.238-2.143 3.28-3.633 6.057-5.03 9.754-.518 1.372-1.187 2.532-2.34 3.466-.478.388-1.335 1.281-1.966 1.447-1.038.275-1.855-.555-2.965-.026.457-1.304-.36-1.31-1.34-1.007-1.37.424-2.54-.133-3.84-.573-.657-.222-3.21 1.629-3.619 2.114-.758.9-4.285-1.54-4.787-2.068" class="landxx fr gf eu" fill="#c83737" fill-rule="evenodd" stroke="#000" stroke-width=".144"><title>French Guiana</title></path></svg>