<svg xmlns="http://www.w3.org/2000/svg" width="184.745" height="318.168" viewBox="0 0 48.88055 84.18203"><path class="landxx gy" d="M.066 29.814c.969-1.906 2.596-2.833 2.317-5.77-.19-1.99.715-2.586 1.919-3.245.271-.15.964-1.344 1.877-.738 1.163.77 1.094-.067 2.103-.765.888-.618 2.615-1.056 3.075-1.915.401-.75-.229-1.882-1.191-1.538-2.401.857-1.124-1.587-2.137-2.913-.92-1.205.232-2.592 1.003-3.542.969-1.196.77-1.13 2.158-1.838 1.863-.952 2.88-2.841 4.573-3.66 2.304-1.115.461-1.957-.585-3.843 1.564 1.828 3.85 3.035 5.651 4.594-.87-1.335-2.67-1.651-3.35-3.158 2.214 1 4.53 2.453 6.167 4.268 1.32 1.464 2.995 4.3 4.632 5.255 1.826 1.063 2.299 4.487 1.653 6.287-.484 1.35-1.183 2.272-1.353 3.755-.148 1.283-.18 2.682-.942 3.789 2.531-.464.62-6.654 4.521-5.27 2.929 1.04 6.527 3.13 7.242 6.513 1.908-1.718 3.258 1.829 3.526 3.194.466 2.377-.442 5.962-1.984 7.812 2.563.726.365 2.558-.219 3.255-.56.67-7.255-1.436-6.875 2.964.231 2.673.198 4.416-.217 7.04-.279 1.765 1.307 5.264 2.598 6.459 1.318 1.22.437 2.686 2.412 2.965.414.054 1.486-.453 1.74-.053.813 1.275.918 2.857 1.142 4.307.418 2.707 3.233 4.912 3.233 7.573 0 2.704 3.059 2.622 4.028 4.26-3.274 2.096-6.455-2.128-9.59.449-.525.43-.837 1.015-1.306 1.492-.863.879-1.954.499-3 .862-1.916.666-2.001 1.619-4.261 1.648-.702 0-1.103.556-1.558 1.004a2.329 2.329 0 0 0-.957.383c.08.397.137.798.156 1.205-.498.996-3.268 1.438-4.277 1.093-.702-.24-.248-1.053-1.245-1.06-.794 0-2.384-.6-2.684-1.414-.483-1.317-2.369-3.36-3.822-3.556.133-.318.26-.637.386-.957-1.344.08-1.189-1.12-1.025-2.038.283-1.598-.135-2.213-1.098-3.376-1.598-1.928-1.524-5.602-1.028-7.887.382-1.761 1.687-3.378 1.695-5.237 0-1.61.455-1.49 1.385-2.849.584-.85 1.828-2.345 1.279-3.36-.441-.811-1.595-1.945-1.595-2.914 0-.933.492-1.825-.584-2.293-.744-.323-2.637-.352-3.093-1.12-.43-.72 1.07-2.887 1.218-3.724.245-1.396.066-3.01-1.048-4.012-1.658-1.495-4.377.859-6.386-.134-2.389-1.18-5.196-5.9-6.28-8.242" fill="#c83737" fill-rule="evenodd" stroke="#000" stroke-width=".144"><title>Guyana</title></path></svg>