<svg xmlns="http://www.w3.org/2000/svg" width="507.159" height="794.518" viewBox="0 0 134.18576 210.21628"><path class="landxx pe" d="M.075 51.082c1.326-2.737 2.055-4.61 4.138-6.942.93-1.04 1.649-2.289 2.773-3.145.815-.62 2.586-1.453 2.66-2.649 1.322.378 2.715 5.78 1.566 6.455-.836.492-1.79.053-2.393.907-.687.977-.533 2.309.827 2.501-1.123 1.497-.81 3.393.963 1.483 1.555-1.677 2.338-.502 3.815.75 1.265 1.075 2.714-.554 3.711 1.063 1.024 1.661 1.057 4.413 3.432 4.861 2.006.379 2.133.274 2.707-1.945 3.833-14.82 6.961-20.026 2.552-3.966-.64 2.331.685-4.22 1.676-6.46.51-1.15.913-1.793.932-3.117 0-.84 1.272-3.353 1.748-1.096.32-.519.383-1.064.188-1.634-.08-.735.997-1.53 1.389-2.05 1.02-1.357 2.298-2.363 3.839-3.07 3.352-1.536 7.276-2.1 10.336-4.225 6.437-4.469 10.894-11.16 12.294-18.784.523.554 1.16.775 1.912.664-.947-2.206.04-4.159-1.273-6.042-.518-.742-3.096-2.998-2.936-3.914 1.086.185 2.352.556 3.381-.053 1.02-.604.697-.8 1.847-.374 1.983.735 3.45 1.522 4.82 3.172 1.78 2.147 2.786 2.94 3.638 5.684.356 1.145-.093 2.08 1.491 2.217 1.53.133 1.13.745 2.188 1.69 2.053 1.836 3.564.859 4.28 3.992.554 2.427.45 3.01 3.038 3.786 2.789.834.156 4.089 1.58 5.71.772.879 1.976 1.178 3.103 1.131.703-.093 1.41-.156 2.12-.188.942 0 2.041.555 2.876.526 1.918-.066 4.19-1.454 5.022-3.128.879-1.766 3.306 1.611 4.356 1.692 1.583.12 4.123-2.358 5.25-1.532.9.66 1.598 1.849 2.465 2.443.832.572 2.789.416 3.3.96 2.093 2.22 2.125 3.02.49 5.61-1.31 2.073-3.854 5.621-4.217 8.034-.434 2.886 2.89.626 4.139 1.716 1.007.878 1.752 2.084 2.505 3.177.363.525.777.77.594 1.205-.12.931-.935 1.247-1.503.201l-.771.957c-1.491-2.026-4.797-3.344-6.678-.969-2.144 2.71-6.813 1.994-9.894 2.81-1.614.428-2.394 2.22-3.993 2.719-1.68.525-1.134 1.199-2.254 2.206-2.682 2.418-4.54 1.725-4.58 5.87-.014 1.436.08 2.64-.769 3.891-.801 1.19-1.758 2.383-1.44 3.907.332 1.582 1.696 3.831-.08 5.052-1.487 1.024-2.893 1.548-4.112 2.977-.89 1.042-1.352 2.227-1.067 3.6.153.665.384 1.304.692 1.914-.743.323-1.515.729-2.075 1.33-2.159 2.324 4.211 4.34 1.597 5.94 1.333.87 2.256 2.46 2.537 4.008.165.905.789 1.22 1.443 1.748.818.66.741 1.664 1.282 2.486.95 1.44 2.783 2.117 3.45 3.784.796 1.987-.731 3.201-1.823 4.63 2.363 1.236 5.835.12 8.18 1.684 1.524 1.012 2.93 3.641 2.348 5.494 3.173.399 7.241 1.086 10.063-.845 1.781-1.22 4.104-5.626 6.502-5.655-.28 1.152-1.177 1.21-.472 2.402.747 1.264-.503 2.526-.423 3.97.205 3.753.334 7.603.788 11.334 1.233-1.08 2.066 1.129 3.35 1.004 1.77-.173 3.012-1.567 4.832-1.552 1.736.014 2.994-.184 3.499 1.532.768 2.607 2.61 4.757 3.93 7.135 1.331 2.395 2.657 4.791 4.026 7.165 1.19 2.063 2.246 3.363.294 4.826-1.722 1.288-1.925 3.614-1.3 5.47.543 1.602.146 3.742.236 6.63.04 1.246 1.555 2.829 1.61 4.121 0 .08-1.107 3.145-1.197 3.226-1.164 1.053-1.855 2.96-2.396 4.43-.99 2.683 1.657 2.912 1.664 4.998 0 1.48-.97 2.09-1.247 3.526-1.552-1.065-5.035-4.688-5.7-1.99-.458 1.861.4 1.223.598 3.554.107.265-1.552-1.535-.885-.968-.013.393-2.219 2.357 1.712 3.747.14-1.864 2.406 1.142 3.463.841.606-.172.29.677.17 2.091 1.21.35 3.358.943 3.553.18.161.027 1.125.154 1.397.36-.777 4.277-.24 3.325.342 3.806-.43.888.185.686-.428 1.48-1.053 1.367-2 3.446-3.267 4.705-.552.548-1.316.839-1.752 1.508-.8 1.227.86.654 1.074 1.681.275 1.317.805 1.27.336 1.86-7.622 9.57-2.558 1.308-2.875 1.976-.713 1.501 1.144 3.429.14 5.151-.866 1.484-2.694 2.009-4.309 2.009-1.813 0-3.209-1.355-4.438-2.514-1.45-1.365-3.038-2.004-4.606-3.116-2.784-1.97-2.575-5.557-5.912-6.926-3.95-1.622-6.61-5.48-10.791-6.509-1.957-.48-3.967-1.833-5.667-2.89-2.035-1.266-4.236-1.69-6.31-2.808-2.03-1.097-3.753-2.772-5.788-3.931a489.192 489.192 0 0 0-6.88-3.847c-1.953-1.07-3.13-3.524-4.666-5.105-2.036-2.095-4.906-3.195-6.33-5.795-.803-1.468-1.825-3.23-3.234-4.114-1.232-.774.404-3.73-1.755-3.358.027-.374.12-.729.287-1.064.322.192.64.387.957.585.851-4.25-.987-6.455-3.118-9.938-1.936-3.163-3.25-6.51-5.963-9.081-.814-.773-1.645-1.18-1.423-2.236.255-1.217-.457-2.582-1.038-3.595-.57-.995-1.26-2.063-2.144-2.814-.814-.692-2.203-1.02-2.72-2.028a3.764 3.764 0 0 1 .142-1.569c-.16-1.147-.888-2.46-1.41-3.476-1.001-1.947-2.367-3.673-3.477-5.555-1.047-1.773-1.634-3.898-2.375-5.808-1.728-4.46-4.514-7.896-5.766-12.21-1.71-5.887-6.71-9.47-8.98-15.286-2.596-6.652-7.963-11.392-14.471-14.136-.573-.242-2.72-.758-2.793-1.551-.107-1.106-.334-2.951 1.255-2.754 2.826.35 1.753-2.321.838-3.713-1.29-1.964-2.574-2.784-2.642-5.226.262-.313.517-.632.765-.957-.053-.372-1.176-1.4-1.427-1.685-1.322-1.49-.513-2.366-1.066-4.05" fill="#c83737" fill-rule="evenodd" stroke="#000" stroke-width=".144"><title>Peru</title></path></svg>