<svg xmlns="http://www.w3.org/2000/svg" width="155.331" height="180.752" viewBox="0 0 41.09795 47.823936"><path class="landxx sr" d="M3.007 28.182c-1.094-.65-2.95-4.672-2.935-5.975.014-1.908.23-6.657.233-8.388 0-3.25 4.21-2.353 6.346-2.358 1.008 0 2.875-2.746.77-3.355C9.579 5.518 8.725-.172 13.416.477c1.477.205 9.386.893 8.64 3.49C23.09 1.926 21.482.506 24.77.52c1.217 0 5.053-.16 5.13 1.724.634-.802 1.865-.352 2.685-.384-.202-.14-2.848-1.117-2.456-1.385 1.749-1.198 6.322.643 8.21.96 3.304.555 3.156 2.863 1.717 5.307-1.573 2.667-3.737 4.184-3.61 7.57.106 2.962-.21 6.489 1.226 9.187 1.14 2.143 3.963 3.95 2.442 6.71-.52.944-1.066 2.01-1.332 3.093-.259 1.058-.066 2.528-.374 3.633-.742 2.682-2.813 5.67-3.697 5.714-.754.04-3.39-1.882-3.76-2.346-1.285-1.618-4.046.344-5.895.682-1.491.272-1.75.602-3.085-.133-1.405-.767-1.298-.148-1.922.819-1.379 2.133.494 2.023.908 4.373.522 2.966-4.636 1.318-5.794.584-.844-.535-2.315-1.29-3.022-1.964-.937-.892-.987-1.597-.975-2.392.027-2.063-3.288-4.763-3.291-6.796 0-.767-.331-4.743-1.319-4.872-.706-.093-1.889.652-2.48-.093-.594-.747-.601-1.822-1.068-2.34" fill="#c83737" fill-rule="evenodd" stroke="#000" stroke-width=".144"><title>Suriname</title></path></svg>