<svg xmlns="http://www.w3.org/2000/svg" width="192.304" height="210.728" viewBox="0 0 50.880474 55.755123"><path class="landxx uy" d="M.073 5.265C.936 4.042 2.544 2.952 1.88 1.237c1.28.93 2.588 1.635 4.171.824.87-.452.892-1.821 2.02-1.967 2.068-.28 4.105 2.246 5.493 3.443 1.821 1.568 5.295 2.91 5.62 5.61.119.97-.067 2.591 1.32 2.246.999-.253 2.764-1.183 2.153-2.5 1.686.44 4.942 5.73 6.31 5.238 1.277-.452 1.52.558 2.556 1.196 1.376.864 2.736.864 3.96 2.114.893.917 1.643 2.02 2.729 2.738 1.414.918 3.141 1.077 4.452 2.207 2.403 2.074 3.129 4.732 6.134 6.221 3.4 1.688 1.78 2.672.163 5.184-1.177 1.835-.355 6.62 1.478 7.803 1.172.758-.76 5.238-1.551 6.58-.664 1.117-2.86 5.81-4.802 4.081 1.025 1.303-1.25 1.98-2.083 2.326-2.373.958-3.174 1.024-5.73.492-2.04-.438-4.226-1.475-6.228-.465-.85.425-1.777.984-2.75 1.064-1.483.132-1.392-.891-2.35-1.41-1.661-.89-3.761-.571-5.364-1.542-2.211-1.342-3.084-2.711-5.91-2.578-1.815.133-3.268.864-4.602-.612-1.791-1.994-4.504-3.31-5.941-5.596-1.002-1.582-2.582-8.375-.304-9.013 2.354-.638.606-3.376-.08-4.612-.49-.891-.855-1.861-1.242-2.792-.325-.784.72-1.436.334-2.526-.336-.957-2.04-3.748-1.215-4.705 1.828-2.114-.537-3.39.242-4.812.54-.997-.142-5.623.08-5.783C2.622 8.495.45 6.833.07 5.265" fill="#c83737" fill-rule="evenodd" stroke="#000" stroke-width=".144"><title>Uruguay</title></path></svg>