<?xml version="1.0" encoding="UTF-8" standalone="no"?>
<!-- Created with Inkscape (http://www.inkscape.org/) -->

<svg
   xmlns:dc="http://purl.org/dc/elements/1.1/"
   xmlns:cc="http://creativecommons.org/ns#"
   xmlns:rdf="http://www.w3.org/1999/02/22-rdf-syntax-ns#"
   xmlns:svg="http://www.w3.org/2000/svg"
   xmlns="http://www.w3.org/2000/svg"
   xmlns:sodipodi="http://sodipodi.sourceforge.net/DTD/sodipodi-0.dtd"
   xmlns:inkscape="http://www.inkscape.org/namespaces/inkscape"
   width="50.880474mm"
   height="55.755123mm"
   viewBox="0 0 50.880474 55.755123"
   version="1.1"
   id="svg13216"
   inkscape:version="0.92.0 r15299"
   sodipodi:docname="uruguay.svg">
  <defs
     id="defs13210" />
  <sodipodi:namedview
     id="base"
     pagecolor="#ffffff"
     bordercolor="#666666"
     borderopacity="1.0"
     inkscape:pageopacity="0.0"
     inkscape:pageshadow="2"
     inkscape:zoom="0.35"
     inkscape:cx="96.15207"
     inkscape:cy="105.364"
     inkscape:document-units="mm"
     inkscape:current-layer="layer1"
     showgrid="false"
     fit-margin-top="0"
     fit-margin-left="0"
     fit-margin-right="0"
     fit-margin-bottom="0"
     inkscape:window-width="1920"
     inkscape:window-height="1017"
     inkscape:window-x="1912"
     inkscape:window-y="-8"
     inkscape:window-maximized="1" />
  <metadata
     id="metadata13213">
    <rdf:RDF>
      <cc:Work
         rdf:about="">
        <dc:format>image/svg+xml</dc:format>
        <dc:type
           rdf:resource="http://purl.org/dc/dcmitype/StillImage" />
        <dc:title></dc:title>
      </cc:Work>
    </rdf:RDF>
  </metadata>
  <g
     inkscape:label="Layer 1"
     inkscape:groupmode="layer"
     id="layer1"
     transform="translate(42.449164,-120.95577)">
    <path
       inkscape:connector-curvature="0"
       id="uy"
       class="landxx uy"
       d="m -42.376299,126.22045 c 0.862724,-1.22293 2.471169,-2.31298 1.807842,-4.02776 1.280115,0.93051 2.588149,1.63505 4.171328,0.82417 0.870684,-0.45196 0.891958,-1.82114 2.019191,-1.96735 2.068382,-0.27916 4.106193,2.24651 5.493991,3.44287 1.821132,1.56857 5.29457,2.91115 5.618907,5.60961 0.119634,0.97038 -0.06645,2.59214 1.319985,2.2465 0.99964,-0.25255 2.764935,-1.18307 2.153477,-2.49906 1.68687,0.43866 4.942313,5.72927 6.310153,5.23742 1.277438,-0.45196 1.520696,0.5583 2.556238,1.19636 1.3757988,0.86404 2.7356778,0.86404 3.9599578,2.11358 0.893294,0.9172 1.643007,2.02053 2.729031,2.73835 1.414378,0.9172 3.141141,1.07673 4.45180504,2.20662 2.40337996,2.07371 3.12916596,4.73228 6.13470596,6.22109 3.400319,1.68821 1.778585,2.67188 0.162155,5.18426 -1.176425,1.83442 -0.354906,6.61988 1.478198,7.80295 1.172435,0.7577 -0.759034,5.23742 -1.551291,6.57999 -0.663327,1.11662 -2.859329,5.80903 -4.801407,4.08096 1.024882,1.3027 -1.24954296,1.98063 -2.08301196,2.32624 -2.37278304,0.9571 -3.17434104,1.02357 -5.72926604,0.49185 -2.041779,-0.43866 -4.2271428,-1.47552 -6.2290508,-0.46524 -0.849435,0.42537 -1.77727,0.98367 -2.750328,1.06343 -1.482143,0.13292 -1.391767,-0.89064 -2.350174,-1.40907 -1.66029,-0.89062 -3.760583,-0.57159 -5.363721,-1.54197 -2.210604,-1.3426 -3.083941,-2.71175 -5.908705,-2.57883 -1.815801,0.13293 -3.268734,0.86404 -4.603348,-0.61148 -1.79056,-1.99395 -4.503649,-3.30994 -5.940615,-5.59632 -1.002269,-1.58186 -2.581481,-8.37457 -0.304403,-9.01263 2.354189,-0.63806 0.606152,-3.37639 -0.07976,-4.61264 -0.489171,-0.89062 -0.854717,-1.861 -1.24156,-2.79152 -0.325676,-0.78427 0.720478,-1.43563 0.333659,-2.52564 -0.336313,-0.95709 -2.039125,-3.74863 -1.21498,-4.7057 1.827776,-2.11358 -0.537025,-3.38971 0.241944,-4.81205 0.541017,-0.99698 -0.142246,-5.62292 0.07974,-5.78245 1.67891,-1.19636 -0.493163,-2.85796 -0.873337,-4.42654"
       style="fill:#c83737;fill-opacity:1;fill-rule:evenodd;stroke:#000000;stroke-width:0.14449541;stroke-miterlimit:4;stroke-dasharray:none;stroke-opacity:1">
      <title
         id="title1717">Uruguay</title>
    </path>
  </g>
</svg>
