<svg xmlns="http://www.w3.org/2000/svg" width="516.986" height="503.17" viewBox="0 0 136.78595 133.13031"><g class="landxx coastxx ve" transform="matrix(1.3293 0 0 1.3293 -946.668 -869.203)" fill="#c83737" fill-rule="evenodd" stroke="#000" stroke-width=".109"><title>Venezuela, Bolivarian Republic of</title><path class="landxx ve" d="M712.2 680.18c1.97-2.324 2.956-4.818 3.577-7.748.596-2.809 1.25-4.99 2.714-7.446 1.193-2 3.897-3.16 5.041-5.258 1.304-2.39 3.529-1.772 5.66-3.087-.868 2.118-3.143 1.29-4.397 2.8-1.068 1.286.07 4.064 1.444 4.611-1.241-.06-.04 2.691.08 3.211.368 1.599-1.169 3.218-2.234 4.226-1.387 1.312-2.063 2.907-1.204 4.629.333.666.444 1.508 1.083 1.981.708.524.822.293.701 1.245-.255 2.001 1.28 2.452 2.888 1.538 1.66-.944 2.317-2.34 2.531-4.183.275-2.364-.787-3.687-1.974-5.616a11.864 11.864 0 0 1-1.167-2.485c-.252-.772.405-1.826-.196-2.457.902.106 1.684-1.258 2.376-1.656 1.266-.729 2.451-1.686 3.926-1.945 1.276-.225 2.296-.399 3.416-1.074.422-.254 1.678-1.269 2.231-1.012a1.71 1.71 0 0 0-.57-1.009c.55.224 2.228 1.628 2.8.965.388-.45-.01-1.556-.514-1.764-.855-.355-2.001.453-2.866.511.169-.992-.665-6.251 2.275-5.042 1.338.55 1.063 3.454 1.27 4.591.459 2.523 3.171.848 4.967 1.474 2.01.701 4.515 1.243 5.394 3.577.538 1.429-.86 4.635 1.52 5.14 2.831.601 6.416-.71 9.221-1.083 2.405-.32 4.906-.833 6.379 1.316.61.89 1.464 1.617 2.484 1.976.831.293 1.693.487 2.543.712-.09-.02 2.79.588 1.456.588 2.264 1.227 3.341-1.427 5.131-1.593 1.088-.101 1.337-1.234 2.24-1.656 1.245-.58 2.665.528 3.938-.206-1.096-1.157-3.672.08-4.4-1.368h1.889c.886 0 1.146-.546 1.791-.576.318.11.626.242.925.397.882.16 1.798.05 2.672-.1 3.734-.63 7.559.07 11.233-.661-.574 1.164-2.413.945-3.47 1.501-1.658.873-3.611-.513-5.17.803.502-.501 1.023-.434 1.22.287-.616-.05-1.059.336-1.15.937 1.365-.805 2.412.01 2.382 1.614-.02 1.268-2.15.419-2.812.402.477 1.779 3.405.527 3.1-1.08.789.112 1.125 1.017 1.189 1.698.09.906.925 1.926.821 2.766.561-.598.843-1.427.58-2.231.724.708.833 2.076.21 2.88.765-.546.449-1.617.36-2.376.392.09.775.212 1.15.36-.07-.08-2.451-1.349-1.052-1.173 1.328.167 3.058 1.561 2.352 3.045.316-.574.77-.523.43-1.08a2.197 2.197 0 0 1 1.66-.145c-1.219-1.352.754-.133 1.199.587.817 1.322 2.258.78 3.316 1.601 2.825 2.191-.49 2.201-1.205 4.221.228-.252.468-.492.72-.72.199 1.035-.924 2.83-1.413 3.691-.302.532-.215.988-.902.988-.608 0-2.469-.544-2.865 0 .883.5 2.309.648 2.81 1.656.571-.744 1.376-1.272 1.51-.07.827-.91 1.447-1.34 2.66-1.584 1.133-.228 1.573.978 2.628-.04 1.823-1.758 5.105 2.606 4.079 3.124-1.021.516-1.608 1.261-2.439 2.052-.777.741-2.123 1.097-2.738 1.748-.441.467-.8 1.11-1.197 1.622-.804 1.038.368 1.693.281 2.82-.06.701.207 1.48 1.02 1.035.972-.531 1.652.748.917 1.456-.809.779-2.012 1.054-2.795 1.836-.375.375-1.027-.169-1.413-.207-.344-.03-.54.638-.873.768-3.03 1.184.05 3.062-1.553 4.839-.408.452-2.035 1.475-1.458 2.264.981 1.341 1.988 2.698 3.043 3.98 1.251 1.521 3.802 3.929 1.411 5.673-.808.589-1.38 1.681-2.192 2.266-.45.325-2.002-.05-2.102.115-.438.719-1.747.557-1.771 1.303-.03.886-1.594.896-2.21 1.191-1.177.564-2.624 1.304-3.926.653-.883-.441-1.698.664-2.617.844-1.119.221-1.138 1.395-.876 2.313.378 1.326-.729 2.347-1.842 1.338-.753-.684-1.125-1.594-1.815-2.317-.916-.961-1.504.332-2.401 0-1.232-.449-1.692-.09-2.933-.218-.966-.104-.75.271-1.126-.917-.355-1.122-1.801-1.219-2.764-1.027-1.275.254-1.238-.862-2.23-1.296-.829.833.703 2.71 1.208 3.326 1.453 1.772 2.652 2.09 2.694 4.616.01.82.04 1.633.254 2.431.27 1.008 1.33 2.045 1.188 3.106-.241 1.803-.247 2.596 1.945 2.651.635.02 2.99-.474 2.787.676-.375 2.128-1.469 1.958-2.508 2.687-.782.548-2.162.672-2.477 1.407-.357.834-.275 1.439-.849 2.247-.512.72-1.191 1.289-1.652 2.052.02-1.942-2.98 1.04-3.542 1.15-1.351.265-2.221 1.04-3.03 2.165-.542.754-1.672 2.722-2.578 3.018-.596-.721.172-1.627-.02-2.41-.324-1.324-2.269-.04-2.781.33-2.932 2.11-5.167-.189-7.08-2.702-.894-1.174-.804-2.544-1.216-3.919-.472-1.579-1.627-3.774-1.555-5.427.06-1.301-3.414-5.554-4.982-4.375-.05-1.46 2.305-3.014 3.32-3.813 1.771-1.395.59-2.879-.659-4.308-2.759-3.153-1.961-8.529-1.952-12.315 0-1.354.439-2.002 1.263-2.92.526-.587.272-1.795.692-2.562.457-.835 1.191-1.431 1.421-2.165.412-1.313-1.389-2.626-2.129-2.287-1.778.816-3.219 1.001-4.763.896-.704-.05-2.215.703-3.827.267-1.141-.309-1.075.138-2.516.34-.261.04-2.35-.63-2.151-.502-.796-.509-1.162-1.639-1.664-2.404a70.076 70.076 0 0 1-2.028-3.265c-.332-.573-.798-1.27-1.619-1.022-1.531.463-2.508-1.018-3.954-1.169-.931-.1-1.341.656-2.19.872-1.253.32-2.429-.555-3.682-.325-.803.146-1.28-.372-2.118.05-.826.417-1.929-.08-2.393-.835a5.26 5.26 0 0 1-.699-1.653c-.223-.895-1.473-.803-1.921-1.443-.86-1.229-.186-3.837.549-4.85 1.394-1.921-.99-3.809-1.616-5.201-.66-1.467.06-4.874-2.088-4.319.04-.52-.03-1.024-.216-1.513-.841.735-1.727 1.182-2.874 1.149"/><path d="M804.22 686.23c-.731-.146-1.479-.252-2.16-.576.655-.374 2.12-.531 2.16.576M804.94 684.36c.434-.656 1.124-1.483 2.021-1.08-.297.971-1.258.798-2.021 1.08M805.16 686.01l-.58-.647a5.87 5.87 0 0 0 1.52-.288c-.04.564-.376.903-.94.935"/><path d="M805.81 684.79c-.24-.1-.48-.192-.72-.288a1.564 1.564 0 0 1 1.44-.145l-.72.433M806.74 685.01c-.12-.519.147-.615.8-.288-.267.1-.534.192-.8.288M806.96 682.63h-.72c.195-.532.637-.87 1.22-.721l-.5.721M807.32 680.76c-.741-.233-.667-.473.221-.72-.07.241-.147.48-.221.72M807.46 681.12c-.722.342-1.247.962-1.87 1.439.257-.813 1.023-1.387 1.87-1.439M807.61 680.69c.12-.331.359-.523.72-.576l-.72.576M774.63 665.42c-.24-.07-.48-.144-.72-.216a2.48 2.48 0 0 1 .72-.576c.323.315.323.578 0 .792M783.92 665.64c-.186-.54-3.585-1.289-1.821-1.85.937-.298.982.701 1.531.626.911-.124 1.064-1.201 1.87-1.513.489 1.93.269 1.733-1.58 2.737M793.49 668.88c.388.458.701.962.94 1.512-.461-.327-.933-.914-.94-1.512"/></g></svg>